<?xml version="1.0" standalone="no"?>
<!DOCTYPE svg PUBLIC "-//W3C//DTD SVG 1.1//EN" "http://www.w3.org/Graphics/SVG/1.1/DTD/svg11.dtd">
<svg version="1.1" xmlns="http://www.w3.org/2000/svg" viewBox="0 0 228.98239505766605 228.98239505766605" width="228.98239505766605" height="228.98239505766605"><!-- svg-source:excalidraw --><metadata></metadata><defs><style class="style-fonts">
      </style></defs><g stroke-linecap="round" transform="translate(10 10) rotate(0 104.49119752883303 104.49119752883303)"><path d="M85.14 2.04 C96.33 -1.67, 110.24 0.73, 122.4 2.71 C134.56 4.69, 147.3 7.22, 158.11 13.89 C168.92 20.57, 179.3 32.21, 187.26 42.75 C195.21 53.29, 202.5 65.4, 205.85 77.1 C209.2 88.81, 208.83 100.45, 207.34 112.97 C205.85 125.5, 202.22 140.67, 196.9 152.25 C191.57 163.83, 184.69 174.09, 175.4 182.47 C166.12 190.85, 152.83 197.89, 141.19 202.55 C129.55 207.21, 118.08 210.77, 105.58 210.41 C93.08 210.04, 78.09 205.04, 66.2 200.38 C54.31 195.72, 43.32 190.65, 34.24 182.44 C25.16 174.23, 17.63 162.15, 11.72 151.11 C5.81 140.06, 0.2 128.82, -1.2 116.16 C-2.6 103.5, -0.3 87.88, 3.33 75.14 C6.95 62.39, 12.58 49.55, 20.55 39.7 C28.53 29.85, 33.12 21.94, 51.15 16.04 C69.19 10.14, 109.83 3.09, 128.77 4.29 C147.7 5.5, 165.15 21.51, 164.77 23.28 M185.02 37.5 C193.97 45.63, 196.69 59.6, 200.74 71.63 C204.79 83.66, 209.78 97.84, 209.33 109.69 C208.88 121.54, 203.28 131.87, 198.06 142.71 C192.83 153.55, 186.08 165.29, 177.97 174.73 C169.85 184.17, 160.36 193.6, 149.36 199.38 C138.36 205.15, 124.86 208.79, 111.96 209.37 C99.06 209.94, 83.96 206.66, 71.95 202.82 C59.94 198.98, 49.62 194, 39.89 186.31 C30.17 178.63, 20.23 167.48, 13.61 156.72 C6.99 145.96, 1.6 134.31, 0.18 121.75 C-1.25 109.19, 2.01 93.66, 5.06 81.37 C8.11 69.08, 11.48 57.94, 18.48 48.01 C25.47 38.07, 37.35 28.99, 47.02 21.77 C56.69 14.55, 65 8.29, 76.51 4.7 C88.03 1.11, 102.95 -1.62, 116.12 0.21 C129.29 2.03, 144 9.31, 155.54 15.65 C167.08 21.99, 181.01 34.82, 185.35 38.23 C189.68 41.64, 182.74 35.46, 181.56 36.11" stroke="none" stroke-width="0" fill="#121212"></path><path d="M165.54 18.94 C176.75 24.73, 186.8 35.85, 193.75 46.44 C200.7 57.04, 205.21 69.76, 207.23 82.51 C209.26 95.27, 208.05 110.27, 205.88 122.98 C203.71 135.7, 200.31 148, 194.21 158.82 C188.11 169.64, 179.25 180.24, 169.29 187.88 C159.34 195.52, 146.22 201.33, 134.48 204.66 C122.74 207.99, 111.51 209.01, 98.87 207.86 C86.22 206.71, 70.39 203.18, 58.61 197.78 C46.83 192.38, 36.35 184.49, 28.17 175.45 C20 166.42, 14.31 155.29, 9.59 143.56 C4.86 131.83, 0.69 117.71, -0.19 105.05 C-1.07 92.4, 0.14 79.46, 4.3 67.64 C8.46 55.83, 15.95 43.61, 24.79 34.17 C33.63 24.73, 46.03 16.28, 57.35 10.98 C68.66 5.69, 80.47 3.67, 92.68 2.4 C104.89 1.12, 114.7 -3.2, 130.6 3.31 C146.5 9.82, 176.07 30.1, 188.08 41.44 C200.08 52.78, 204.06 70.07, 202.62 71.32 M192.75 49.27 C200.19 58.59, 201 71.51, 203.99 83.29 C206.99 95.06, 211.8 108.14, 210.73 119.92 C209.66 131.69, 204.57 143, 197.59 153.93 C190.6 164.85, 178.81 177.35, 168.84 185.46 C158.87 193.57, 149.11 198.7, 137.78 202.58 C126.44 206.45, 113.37 209.33, 100.83 208.71 C88.28 208.09, 74.76 204.54, 62.53 198.87 C50.31 193.2, 36.7 183.82, 27.47 174.69 C18.24 165.57, 11.72 155.58, 7.15 144.12 C2.58 132.65, 0.43 118.76, 0.03 105.92 C-0.37 93.07, 0.66 78.22, 4.74 67.02 C8.82 55.83, 15.82 47.92, 24.51 38.74 C33.21 29.56, 45.54 18.17, 56.9 11.96 C68.26 5.75, 80.49 2.89, 92.69 1.46 C104.89 0.03, 118.54 -0.02, 130.08 3.39 C141.61 6.79, 151.92 14.94, 161.9 21.91 C171.88 28.88, 185.35 40.46, 189.94 45.22 C194.54 49.99, 190.79 49.14, 189.46 50.5" stroke="#d3d3d3" stroke-width="2" fill="none"></path></g><g stroke-linecap="round" transform="translate(40.84978212755982 41.51321830234639) rotate(0 71.48524783321739 71.48524783321747)"><path d="M86.32 1.72 C96.2 2.68, 107.68 8.23, 115.77 14.61 C123.86 20.99, 130.21 30.75, 134.85 40.01 C139.48 49.26, 143.36 59.88, 143.58 70.13 C143.79 80.38, 140.55 91.91, 136.14 101.49 C131.72 111.08, 125.1 121.08, 117.1 127.64 C109.09 134.21, 98.44 138.69, 88.12 140.88 C77.8 143.08, 65.47 143.07, 55.18 140.82 C44.89 138.58, 34.46 133.81, 26.38 127.44 C18.3 121.07, 11.12 111.82, 6.69 102.6 C2.26 93.38, -0.3 82.51, -0.2 72.11 C-0.11 61.71, 2.69 49.74, 7.26 40.21 C11.83 30.69, 19.33 21.25, 27.23 14.95 C35.12 8.66, 43.44 4.19, 54.64 2.47 C65.84 0.74, 86.75 3.65, 94.42 4.61 C102.09 5.56, 101.17 7.35, 100.66 8.19 M90.92 4.12 C100.93 5.8, 111.77 10.84, 119.44 17.57 C127.11 24.3, 132.88 35, 136.94 44.49 C141 53.99, 144.27 64.4, 143.8 74.56 C143.33 84.71, 139.22 96.1, 134.11 105.4 C129 114.7, 121.69 124.16, 113.15 130.34 C104.62 136.52, 93.02 140.85, 82.89 142.49 C72.77 144.13, 62.46 143.2, 52.41 140.18 C42.35 137.15, 30.45 131.05, 22.55 124.34 C14.65 117.64, 8.6 109.62, 5 99.95 C1.4 90.27, 0.33 77.03, 0.94 66.29 C1.55 55.54, 3.8 44.34, 8.67 35.47 C13.54 26.61, 21.83 18.76, 30.18 13.11 C38.54 7.46, 48.36 3.41, 58.8 1.57 C69.23 -0.28, 87.66 1.56, 92.8 2.02 C97.95 2.48, 90.48 2.86, 89.69 4.34" stroke="#d3d3d3" stroke-width="2" fill="none"></path></g><g stroke-linecap="round" transform="translate(32.60528732093849 33.268723495724544) rotate(0 80.60749523652828 80.60749523652838)"><path d="M52.39 4.68 C61.55 -0.14, 73.82 -0.92, 84.66 -0.21 C95.5 0.51, 107.74 3.82, 117.44 8.96 C127.13 14.11, 136 22.16, 142.84 30.67 C149.69 39.18, 155.6 49.64, 158.5 60.02 C161.4 70.39, 162.07 82.01, 160.25 92.92 C158.44 103.83, 153.69 116.21, 147.6 125.5 C141.51 134.78, 132.97 142.98, 123.69 148.63 C114.41 154.29, 102.67 157.96, 91.94 159.42 C81.2 160.89, 69.57 160.07, 59.28 157.42 C48.98 154.77, 38.79 150.19, 30.18 143.52 C21.58 136.85, 12.8 127.38, 7.65 117.4 C2.49 107.42, -0.56 94.81, -0.74 83.64 C-0.93 72.48, 2.47 60.52, 6.54 50.43 C10.61 40.35, 15.43 30.98, 23.68 23.14 C31.92 15.3, 49.65 6.58, 55.99 3.39 C62.33 0.2, 61.13 2.52, 61.73 3.99 M50.25 5.6 C59.46 0.2, 71.72 -1.99, 82.81 -1.37 C93.9 -0.75, 106.82 4.22, 116.8 9.32 C126.77 14.43, 135.6 20.9, 142.67 29.25 C149.75 37.61, 156.32 49.33, 159.24 59.45 C162.17 69.58, 161.93 79.35, 160.23 89.98 C158.53 100.61, 154.98 113.57, 149.06 123.23 C143.14 132.88, 133.61 141.88, 124.71 147.92 C115.82 153.96, 106.13 157.85, 95.71 159.48 C85.28 161.11, 72.75 160.02, 62.18 157.71 C51.61 155.41, 40.98 152.35, 32.28 145.64 C23.57 138.92, 15.43 127.29, 9.93 117.41 C4.43 107.53, 0.13 96.9, -0.73 86.36 C-1.59 75.81, 1.1 64.15, 4.76 54.14 C8.42 44.12, 13.72 34.45, 21.22 26.26 C28.71 18.08, 44.91 8.3, 49.74 5.03 C54.56 1.76, 49.45 5.2, 50.17 6.63" stroke="#d3d3d3" stroke-width="2" fill="none"></path></g><g stroke-linecap="round"><g transform="translate(106.35479918847636 147.31666992672865) rotate(0 7.2613272884725575 -33.93146359583274)" fill-rule="evenodd"><path d="M-42.75 -22.59 C-42.75 -22.59, -42.75 -22.59, -42.75 -22.59 M-42.75 -22.59 C-42.75 -22.59, -42.75 -22.59, -42.75 -22.59 M-39.73 -19.96 C-36.3 -23.85, -31.61 -28.22, -29.23 -32.04 M-39.73 -19.96 C-35.63 -24.02, -32.07 -29.65, -29.23 -32.04 M-37.37 -16.58 C-33.37 -18.62, -31.23 -22.21, -26.87 -28.66 M-37.37 -16.58 C-35.16 -20.93, -31.68 -24.22, -26.87 -28.66 M-34.35 -13.96 C-32.24 -18.54, -25.84 -21.79, -23.85 -26.04 M-34.35 -13.96 C-32.55 -15.87, -30.38 -19.07, -23.85 -26.04 M-31.99 -10.58 C-28.75 -15.76, -26.78 -16.85, -21.49 -22.66 M-31.99 -10.58 C-29.57 -13.3, -25.71 -18.05, -21.49 -22.66 M-28.97 -7.96 C-25.99 -11.83, -25.05 -14.68, -18.47 -20.03 M-28.97 -7.96 C-26.17 -11.04, -23.37 -14.76, -18.47 -20.03 M-25.95 -5.33 C-24.65 -7.5, -21.08 -9.32, -16.11 -16.65 M-25.95 -5.33 C-24.5 -8.06, -21.76 -9.42, -16.11 -16.65 M-23.59 -1.95 C-20.97 -3.34, -17.87 -8.59, -13.09 -14.03 M-23.59 -1.95 C-20.98 -3.97, -18.12 -8.17, -13.09 -14.03 M-20.57 0.67 C-17.55 -2.56, -14.83 -7.37, -10.07 -11.4 M-20.57 0.67 C-17.28 -2.67, -13.36 -7.79, -10.07 -11.4 M-17.55 3.3 C1.57 -17.62, 17.74 -36.73, 47.4 -71.42 M-17.55 3.3 C1.96 -18.73, 21.74 -42.31, 47.4 -71.42 M-13.22 4.41 C2.37 -13.42, 15.08 -28.36, 50.42 -68.8 M-13.22 4.41 C0.45 -11.28, 13.48 -26.27, 50.42 -68.8 M-8.89 5.52 C3.82 -9.02, 20.73 -27.52, 52.78 -65.42 M-8.89 5.52 C10.92 -16.78, 31.59 -42.06, 52.78 -65.42 M0.69 0.6 C19.56 -20.01, 37.57 -40.23, 55.8 -62.79 M0.69 0.6 C18.27 -19.5, 36.77 -39.98, 55.8 -62.79 M-19.07 2.13 C-19.07 2.13, -19.07 2.13, -19.07 2.13 M-19.07 2.13 C-19.07 2.13, -19.07 2.13, -19.07 2.13 M-10.41 4.36 C-23.77 -3.75, -32.75 -16.2, -42.11 -23.2 M-10.41 4.36 C-18.58 -1.85, -24.45 -8.65, -42.11 -23.2 M-5.52 3.31 C-13.28 -4.77, -26.06 -12.94, -39.49 -26.22 M-5.52 3.31 C-13.14 -2.7, -20.32 -9.37, -39.49 -26.22 M-1.39 1.6 C-10.04 -7.98, -22.95 -18.08, -36.86 -29.24 M-1.39 1.6 C-13.81 -9.22, -27.29 -19.76, -36.86 -29.24 M1.23 -1.42 C-0.31 -5, -3.74 -4.93, -10.84 -11.92 M1.23 -1.42 C-1.78 -4.39, -4.98 -5.39, -10.84 -11.92 M-10.84 -11.92 C-18.29 -19.07, -25.28 -24.02, -34.24 -32.25 M-10.84 -11.92 C-17.8 -18.11, -25.85 -26.06, -34.24 -32.25 M3.86 -4.44 C-0.2 -6.79, -1.71 -9.6, -7.46 -14.28 M3.86 -4.44 C1.06 -5.99, -1.32 -8.34, -7.46 -14.28 M6.48 -7.46 C2.23 -9.26, 0.38 -14.96, -4.84 -17.3 M6.48 -7.46 C2.57 -10.52, -0.43 -13.74, -4.84 -17.3 M9.11 -10.48 C6.42 -14.85, 3.12 -16.08, -2.21 -20.32 M9.11 -10.48 C6.44 -13.36, 4.68 -14.44, -2.21 -20.32 M12.49 -12.84 C8.75 -17.19, 6.21 -19.39, 0.41 -23.34 M12.49 -12.84 C8 -16.31, 4.51 -21, 0.41 -23.34 M15.11 -15.86 C12.99 -18.93, 6.43 -21.12, 3.03 -26.35 M15.11 -15.86 C10.43 -20.55, 6.5 -24.79, 3.03 -26.35 M17.73 -18.88 C12.17 -22.03, 10.59 -24.61, 5.66 -29.37 M17.73 -18.88 C13.12 -22.79, 8.86 -25.96, 5.66 -29.37 M20.36 -21.89 C15.62 -26.23, 13.43 -28.44, 8.28 -32.39 M20.36 -21.89 C15.99 -25.77, 11.55 -29.88, 8.28 -32.39 M22.98 -24.91 C19.58 -27.15, 17.74 -28.87, 11.66 -34.75 M22.98 -24.91 C18.51 -27.82, 14.92 -32.34, 11.66 -34.75 M25.61 -27.93 C21.8 -30.17, 21.45 -32.3, 14.29 -37.77 M25.61 -27.93 C23.26 -30.75, 19.73 -33.07, 14.29 -37.77 M28.23 -30.95 C23.54 -33.35, 20.88 -37.69, 16.91 -40.79 M28.23 -30.95 C25.8 -33.05, 22.7 -36.07, 16.91 -40.79 M31.61 -33.31 C26.46 -36.08, 22.9 -39.23, 19.53 -43.81 M31.61 -33.31 C27.3 -37.1, 23.18 -40.71, 19.53 -43.81 M34.23 -36.33 C32.02 -38.53, 29.59 -39.86, 22.16 -46.83 M34.23 -36.33 C29.29 -39.42, 25.43 -42.9, 22.16 -46.83 M36.86 -39.35 C30.69 -42.88, 28.42 -48.61, 24.78 -49.85 M36.86 -39.35 C32.2 -42.78, 27.1 -47.05, 24.78 -49.85 M39.48 -42.37 C36.86 -44.41, 32.8 -48.46, 27.41 -52.87 M39.48 -42.37 C35.63 -45.51, 30.19 -50.38, 27.41 -52.87 M42.11 -45.39 C37.64 -47.62, 35.12 -52.77, 30.79 -55.23 M42.11 -45.39 C37.53 -49.49, 33.68 -53.48, 30.79 -55.23 M44.73 -48.41 C43.32 -50.59, 38.35 -52.45, 33.41 -58.25 M44.73 -48.41 C41.42 -50.54, 39.9 -52.59, 33.41 -58.25 M47.36 -51.43 C43.26 -55.25, 41.11 -58.26, 36.03 -61.27 M47.36 -51.43 C43.06 -55.59, 39.32 -58.65, 36.03 -61.27 M50.73 -53.79 C49.01 -55.24, 44.17 -58.24, 38.66 -64.29 M50.73 -53.79 C48.43 -55.78, 46.02 -58.15, 38.66 -64.29 M53.36 -56.81 C50.33 -60.48, 44.07 -63.32, 41.28 -67.31 M53.36 -56.81 C49.39 -59.57, 46.36 -63.1, 41.28 -67.31 M55.98 -59.83 C53.53 -63.16, 49.1 -66.89, 43.91 -70.32 M55.98 -59.83 C52.81 -63.82, 47.76 -65.94, 43.91 -70.32" stroke="#6e757c" stroke-width="0.5" fill="none"></path><path d="M0 0 C0 0, 0 0, 0 0 M0 0 C0 0, 0 0, 0 0 M0 0 C-0.88 0.44, -1.53 1.67, -2.38 2.09 M0 0 C-0.57 0.44, -1.24 1.05, -2.38 2.09 M-2.38 2.09 C-2.96 2.67, -3.52 2.55, -5.03 3.59 M-2.38 2.09 C-2.84 2.47, -3.62 2.82, -5.03 3.59 M-5.03 3.59 C-5.99 3.8, -6.7 4.38, -7.85 4.48 M-5.03 3.59 C-5.53 3.85, -6.19 4.02, -7.85 4.48 M-7.85 4.48 C-8.77 4.75, -9.39 4.74, -10.75 4.78 M-7.85 4.48 C-9.14 4.6, -10.15 4.64, -10.75 4.78 M-10.75 4.78 C-11.46 4.4, -12.09 4.3, -13.65 4.48 M-10.75 4.78 C-11.58 4.79, -12.43 4.53, -13.65 4.48 M-13.65 4.48 C-14.27 4.53, -15.12 3.86, -16.47 3.59 M-13.65 4.48 C-14.66 4.12, -15.56 3.84, -16.47 3.59 M-16.47 3.59 C-17.06 2.97, -17.82 2.82, -19.12 2.09 M-16.47 3.59 C-17.06 3.29, -17.8 2.63, -19.12 2.09 M-19.12 2.09 C-20.18 1.48, -20.9 0.43, -21.5 0 M-19.12 2.09 C-20.06 1.43, -20.61 0.54, -21.5 0 M-21.5 0 C-27.22 -6.54, -35.58 -15.44, -42.62 -22.73 M-21.5 0 C-26.44 -4.54, -32.29 -10.61, -42.62 -22.73 M-42.62 -22.73 C-38.04 -25.57, -35.48 -32.84, -31.87 -34.25 M-42.62 -22.73 C-40.12 -25.28, -38.23 -27.94, -31.87 -34.25 M-31.87 -34.25 C-25.82 -28.01, -16.38 -18.13, -10.75 -11.42 M-31.87 -34.25 C-23.23 -27.05, -15.97 -17.08, -10.75 -11.42 M-10.75 -11.42 C5.19 -25.29, 19.21 -43.87, 46.4 -72.64 M-10.75 -11.42 C0.99 -24.77, 15.16 -39.23, 46.4 -72.64 M46.4 -72.64 C50.33 -68.44, 56.45 -62.67, 57.15 -61.13 M46.4 -72.64 C49.28 -70.02, 52.32 -65.84, 57.15 -61.13 M57.15 -61.13 C39.27 -41.32, 23.96 -23.21, 0 0 M57.15 -61.13 C43.99 -46.07, 30.99 -31.37, 0 0 M0 0 C0 0, 0 0, 0 0 M0 0 C0 0, 0 0, 0 0 M0 0 C0 0, 0 0, 0 0 M0 0 C0 0, 0 0, 0 0" stroke="#ededed" stroke-width="1" fill="none"></path></g></g><mask></mask></svg>
