<?xml version="1.0" standalone="no"?>
<!DOCTYPE svg PUBLIC "-//W3C//DTD SVG 1.1//EN" "http://www.w3.org/Graphics/SVG/1.1/DTD/svg11.dtd">
<svg version="1.1" xmlns="http://www.w3.org/2000/svg" viewBox="0 0 340.41986329226506 370.7400861810542" width="340.41986329226506" height="370.7400861810542"><!-- svg-source:excalidraw --><metadata></metadata><defs><style class="style-fonts">
      </style></defs><g stroke-linecap="round"><g transform="translate(251.14031290270964 127.4609598872517) rotate(0 0.4340126244987914 -11.106031758657707)"><path d="M-3.79 -2.68 C-26.25 -14.67, -55.88 -26.53, -68.15 -38.44 M1.87 1.58 C-21.19 -11.78, -41.47 -26.57, -72.34 -42.72 M-73.27 -44.85 C-26.39 -21.62, 26.01 2.26, 74.13 18.89 M-72.36 -43.96 C-14.88 -18.49, 36.12 2.26, 74.14 22.64" stroke="#d3d3d3" stroke-width="2" fill="none"></path></g></g><mask></mask><g stroke-linecap="round"><g transform="translate(13.157878521829844 216.29383642300294) rotate(0 49.48277979985971 70.82185714373809)"><path d="M-3.16 -1.95 C0.82 21.48, -2.36 47.01, 5.95 100.21 M1.19 0.55 C2.52 18.74, 1.57 41.22, 3.76 98.78 M4.4 96.4 C35.02 108.61, 60.86 129.49, 102.12 137.18 M4.87 98.9 C38.19 115.06, 75.6 129.34, 96.84 140.95 M95.52 144.45 C94.78 103.82, 100.07 65.12, 100.39 28.85 M96.61 138.75 C96.06 99.68, 97 58.7, 101.79 26.72 M96.57 28.64 C74.94 23.06, 49.23 16.11, -3.09 -2.8 M99.39 28.75 C72.12 18.71, 44.81 11.13, 0.42 -0.14" stroke="#d3d3d3" stroke-width="1" fill="none"></path></g></g><mask></mask><g stroke-linecap="round"><g transform="translate(12.179975904155526 215.30720684007986) rotate(0 158.52509362886815 -28.585156205505086)"><path d="M0.26 -3.09 C63.75 -24.43, 134.5 -43.34, 236.13 -83.5 M0.56 -1.42 C60.63 -23.07, 123.94 -45.01, 239.5 -85.92 M240.18 -88.64 C258.37 -74.9, 289.18 -76.14, 318.24 -66.77 M238.86 -85.83 C257.7 -83.64, 270.74 -77.06, 315.73 -64.27 M313.19 -66.19 C240.82 -32.3, 163.99 4.57, 101.48 31.15 M314.63 -65.09 C255.03 -42.62, 198.44 -18.6, 98.16 28.98 M97.78 31.47 C71.53 24.67, 47.5 12.13, -1.19 3.99 M98.77 26.9 C68.36 19.63, 39.06 12.34, -0.51 -0.15" stroke="#d3d3d3" stroke-width="1" fill="none"></path></g></g><mask></mask><g stroke-linecap="round"><g transform="translate(326.5756674864067 149.69633957569818) rotate(0 -108.90108782530615 102.24777190792119)"><path d="M-3.73 -3.55 C2.52 19.5, -3.8 37.21, -2.08 71.93 M-0.98 0.27 C0.65 23.38, 0.66 44.84, -0.44 70.04 M-3.64 72.63 C-51.92 98.74, -107.85 135.38, -218.87 208.05 M1.06 67.96 C-74.52 114.84, -145.66 161.48, -215.34 204.6" stroke="#d3d3d3" stroke-width="1" fill="none"></path></g></g><mask></mask><g stroke-linecap="round"><g transform="translate(55.37176760212901 228.81717154776229) rotate(0 0.36128208190507394 51.4363915030121)"><path d="M3.51 -2.28 C2.99 42.71, 1.6 76.8, 2.91 102.65 M0.05 -1.05 C-0.85 29.94, 0.62 61.65, -2.79 105.16" stroke="#d3d3d3" stroke-width="2" fill="none"></path></g></g><mask></mask><g stroke-linecap="round"><g transform="translate(128.57941287074823 249.4348349091287) rotate(0 -2.6892604384388505 42.72936029964336)"><path d="M0 0 C-1.34 25.01, -2.57 47.15, -5.38 85.46 M0 0 C-1.49 21.27, -3.96 41.9, -5.38 85.46" stroke="#d3d3d3" stroke-width="1" fill="none"></path></g></g><mask></mask><g stroke-linecap="round"><g transform="translate(140.83048820141516 244.65392746301472) rotate(0 -2.228255986899285 40.63771329196854)"><path d="M0 0 C-0.45 18.58, -1.74 38.02, -4.48 81.28 M0 0 C0.28 21.69, -1.83 45.34, -4.48 81.28" stroke="#d3d3d3" stroke-width="1" fill="none"></path></g></g><mask></mask><g stroke-linecap="round"><g transform="translate(155.17321053975752 237.4825662938438) rotate(0 -1.7995398635116544 37.79904949583836)"><path d="M0 0 C-0.91 29.39, -4.7 59.11, -3.29 75.6 M0 0 C-0.7 24.05, -1.63 48.38, -3.29 75.6" stroke="#d3d3d3" stroke-width="1" fill="none"></path></g></g><mask></mask><g stroke-linecap="round"><g transform="translate(168.91831944733508 230.90881855543714) rotate(0 -0.44821007307314176 37.05203270738308)"><path d="M0 0 C-0.75 28.85, 0.79 56.32, -0.9 74.1 M0 0 C-0.22 22.93, -0.82 45.89, -0.9 74.1" stroke="#d3d3d3" stroke-width="1" fill="none"></path></g></g><mask></mask><g stroke-linecap="round"><g transform="translate(183.55984850105938 224.63387753241258) rotate(0 0.26760650822097887 35.70740248816351)"><path d="M0 0 C0.85 14.72, -0.97 32.51, 0 71.41 M0 0 C1.05 26.65, 1.15 52.27, 0 71.41" stroke="#d3d3d3" stroke-width="1" fill="none"></path></g></g><mask></mask><g stroke-linecap="round"><g transform="translate(197.60376412401843 215.0720626401847) rotate(0 -0.3077835464871441 35.707402488163524)"><path d="M0 0 C-0.51 24.76, 0.88 45.41, -0.6 71.41 M0 0 C0.04 21.52, -1.09 42.34, -0.6 71.41" stroke="#d3d3d3" stroke-width="1" fill="none"></path></g></g><mask></mask><g stroke-linecap="round"><g transform="translate(214.0381334700353 209.9923484786886) rotate(0 -0.5884323155346465 33.61575548048867)"><path d="M0 0 C1.09 19.37, -2.24 39.53, -1.2 67.23 M0 0 C-0.09 15.89, -0.21 30.91, -1.2 67.23" stroke="#d3d3d3" stroke-width="1" fill="none"></path></g></g><mask></mask><g stroke-linecap="round"><g transform="translate(227.18562894684896 201.62576044798922) rotate(0 -0.38681470848246136 34.213368911252914)"><path d="M0 0 C-1.77 26.74, -1.33 53.93, -0.6 68.43 M0 0 C0.25 19.74, 1.17 37.26, -0.6 68.43" stroke="#d3d3d3" stroke-width="1" fill="none"></path></g></g><mask></mask><g stroke-linecap="round"><g transform="translate(237.64386398522288 198.33888657878595) rotate(0 0.7497678424801961 31.972318545886992)"><path d="M0 0 C1.68 18.9, 1.24 35.89, 1.49 63.94 M0 0 C0.54 18.45, 1.58 35.62, 1.49 63.94" stroke="#d3d3d3" stroke-width="1" fill="none"></path></g></g><mask></mask><g stroke-linecap="round"><g transform="translate(248.40090573897965 192.9603657019077) rotate(0 1.6434369346015956 31.37470511512275)"><path d="M0 0 C2.87 18.61, 1.85 38.1, 3.29 62.75 M0 0 C2.47 21.49, 2.29 44.66, 3.29 62.75" stroke="#d3d3d3" stroke-width="1" fill="none"></path></g></g><mask></mask><g stroke-linecap="round"><g transform="translate(260.05436763888224 186.68542467888315) rotate(0 1.7024409797982116 30.17947825359427)"><path d="M0 0 C0.27 18.44, 4.12 38.27, 3.29 60.36 M0 0 C0.39 20.26, 2 42.08, 3.29 60.36" stroke="#d3d3d3" stroke-width="1" fill="none"></path></g></g><mask></mask><g stroke-linecap="round"><g transform="translate(269.6161825311103 181.90451723276922) rotate(0 1.9422436499837659 30.328881611285325)"><path d="M0 0 C2.43 22.13, 3.58 46.35, 3.88 60.66 M0 0 C0.83 17.23, 1.62 34.48, 3.88 60.66" stroke="#d3d3d3" stroke-width="1" fill="none"></path></g></g><mask></mask><g stroke-linecap="round"><g transform="translate(279.1779974233375 178.6176433635659) rotate(0 1.5500488606671752 29.133654749756843)"><path d="M0 0 C-0.13 20.59, 3.82 41.63, 2.99 58.27 M0 0 C0.02 17.41, 1.22 37, 2.99 58.27" stroke="#d3d3d3" stroke-width="1" fill="none"></path></g></g><mask></mask><g stroke-linecap="round"><g transform="translate(286.6481653078911 174.73315606359836) rotate(0 1.0458235038374823 28.536041318992588)"><path d="M0 0 C0.72 21.29, 1.41 44.93, 2.09 57.07 M0 0 C0.83 17.74, 0.67 35.25, 2.09 57.07" stroke="#d3d3d3" stroke-width="1" fill="none"></path></g></g><mask></mask><g stroke-linecap="round"><g transform="translate(296.2099802001187 171.7450889097771) rotate(0 0.3504083839316081 27.938427888228347)"><path d="M0 0 C2.08 18.27, -1.26 38.39, 0.9 55.88 M0 0 C-0.59 20.59, 0.27 41.65, 0.9 55.88" stroke="#d3d3d3" stroke-width="1" fill="none"></path></g></g><mask></mask><g stroke-linecap="round"><g transform="translate(303.3813413692899 167.26298817904524) rotate(0 1.3446302192194253 26.444394311317765)"><path d="M0 0 C0.71 15.54, -0.74 27.43, 2.69 52.89 M0 0 C1.28 21.04, 1.58 40.64, 2.69 52.89" stroke="#d3d3d3" stroke-width="1" fill="none"></path></g></g><mask></mask><g stroke-linecap="round"><g transform="translate(310.2538958230782 163.3785008790777) rotate(0 1.9422436499837659 25.846780880553496)"><path d="M0 0 C1.19 12.11, 2.28 28.51, 3.88 51.69 M0 0 C2.01 20.2, 1.98 38.87, 3.88 51.69" stroke="#d3d3d3" stroke-width="1" fill="none"></path></g></g><mask></mask><g stroke-linecap="round"><g transform="translate(317.7240637076318 160.09162700987434) rotate(0 1.045823503837255 26.74320102669988)"><path d="M0 0 C1.06 19.18, 1.43 39.28, 2.09 53.49 M0 0 C1.39 12.8, 1.95 28.31, 2.09 53.49" stroke="#d3d3d3" stroke-width="1" fill="none"></path></g></g><mask></mask><g stroke-linecap="round"><g transform="translate(62.26391045152718 280.89325752495006) rotate(0 1.8821374835904408 7.667967525739286)" fill-rule="evenodd"><path d="M0 0 C0 0, 0 0, 0 0 M0 0 C0 0, 0 0, 0 0 M-0.26 6.4 C0.78 5.47, 1.32 4.26, 3.67 1.87 M-0.26 6.4 C0.65 5.28, 1.66 4.22, 3.67 1.87 M-0.52 12.8 C1.7 10.33, 3.61 8.58, 4.73 6.76 M-0.52 12.8 C1.56 10.62, 3.47 8.12, 4.73 6.76 M2.5 15.42 C2.99 14.79, 3.66 14.28, 4.46 13.16 M2.5 15.42 C2.92 14.95, 3.36 14.51, 4.46 13.16 M-0.21 13.96 C-0.21 13.96, -0.21 13.96, -0.21 13.96 M-0.21 13.96 C-0.21 13.96, -0.21 13.96, -0.21 13.96 M3.92 12.26 C2.76 11.31, 1.27 9.91, -0.61 8.32 M3.92 12.26 C2.84 11.44, 1.67 10.46, -0.61 8.32 M4.28 7.27 C3.36 6.18, 1.69 5.4, -0.25 3.33 M4.28 7.27 C2.76 5.95, 1.38 4.91, -0.25 3.33 M4.64 2.28 C4.3 1.88, 3.78 1.46, 3.13 0.97 M4.64 2.28 C4.2 1.93, 3.82 1.56, 3.13 0.97" stroke="#d3d3d3" stroke-width="0.5" fill="none"></path><path d="M0 0 C1.87 0.95, 3.13 1.26, 4.32 1.81 M0 0 C1.66 0.73, 3.09 1.18, 4.32 1.81 M4.32 1.81 C4.2 5.14, 3.63 7.84, 3.9 15.34 M4.32 1.81 C3.99 6.76, 4.16 12.56, 3.9 15.34 M3.9 15.34 C2.58 14.73, 1.65 14.62, -0.56 13.66 M3.9 15.34 C2.73 14.94, 1.51 14.52, -0.56 13.66 M-0.56 13.66 C0.02 10.47, 0.13 8.31, 0 0 M-0.56 13.66 C-0.12 9.57, -0.28 5.52, 0 0 M0 0 C0 0, 0 0, 0 0 M0 0 C0 0, 0 0, 0 0" stroke="#d3d3d3" stroke-width="1" fill="none"></path></g></g><mask></mask><g stroke-linecap="round"><g transform="translate(47.90997484288664 276.1149928389798) rotate(0 1.5319644079456793 6.692044386099738)" fill-rule="evenodd"><path d="M0 0 C0 0, 0 0, 0 0 M0 0 C0 0, 0 0, 0 0 M-0.26 6.4 C0.81 5.35, 1.23 4.33, 3.67 1.87 M-0.26 6.4 C0.94 4.98, 2.18 3.61, 3.67 1.87 M0.13 12.04 C1.11 11.06, 2.3 9.84, 3.41 8.27 M0.13 12.04 C1.12 11.09, 1.87 9.96, 3.41 8.27 M-0.82 11.61 C-0.82 11.61, -0.82 11.61, -0.82 11.61 M-0.82 11.61 C-0.82 11.61, -0.82 11.61, -0.82 11.61 M4.07 10.56 C2.8 9.65, 2.17 8.5, -0.46 6.63 M4.07 10.56 C3 9.41, 1.8 8.62, -0.46 6.63 M3.67 4.92 C3.01 4.36, 1.92 3.67, -0.1 1.64 M3.67 4.92 C2.28 3.66, 0.68 2.31, -0.1 1.64" stroke="#d3d3d3" stroke-width="0.5" fill="none"></path><path d="M0 0 C1.27 0.73, 3.04 1.09, 3.58 1.58 M0 0 C1.34 0.5, 2.59 1.09, 3.58 1.58 M3.58 1.58 C3.57 5.38, 2.88 9.68, 3.23 13.38 M3.58 1.58 C3.49 4.64, 3.61 8.02, 3.23 13.38 M3.23 13.38 C2.39 13.09, 1.38 12.66, -0.46 11.92 M3.23 13.38 C2.02 12.82, 0.64 12.43, -0.46 11.92 M-0.46 11.92 C-0.73 9.12, 0.1 5.73, 0 0 M-0.46 11.92 C-0.33 7.3, -0.27 2.81, 0 0 M0 0 C0 0, 0 0, 0 0 M0 0 C0 0, 0 0, 0 0" stroke="#d3d3d3" stroke-width="1" fill="none"></path></g></g><mask></mask><g stroke-linecap="round"><g transform="translate(84.84956025461338 250.0819698306159) rotate(0 13.930835767105464 8.43476427831321)" fill-rule="evenodd"><path d="M0 0 C0 0, 0 0, 0 0 M0 0 C0 0, 0 0, 0 0 M0.39 5.64 C1.85 4, 3.19 2.54, 4.33 1.11 M0.39 5.64 C1.26 4.4, 2.4 3.21, 4.33 1.11 M3.41 8.27 C5.43 6.03, 6.93 4.1, 8.66 2.23 M3.41 8.27 C4.64 6.76, 6.06 5.16, 8.66 2.23 M7.09 10.14 C8.23 9.02, 9.46 7.25, 12.34 4.1 M7.09 10.14 C8.47 8.48, 9.63 6.96, 12.34 4.1 M11.42 11.25 C12.55 9.29, 14.12 7.53, 16.67 5.21 M11.42 11.25 C12.59 9.5, 13.97 8.01, 16.67 5.21 M15.09 13.12 C17.04 10.75, 19.22 8.41, 21 6.33 M15.09 13.12 C16.61 11.57, 17.54 9.96, 21 6.33 M19.43 14.24 C21.56 11.6, 23.08 9.82, 25.33 7.44 M19.43 14.24 C21.66 11.82, 23.63 9.3, 25.33 7.44 M23.76 15.35 C24.83 14.44, 25.85 12.7, 27.69 10.82 M23.76 15.35 C24.71 14.42, 25.49 13.32, 27.69 10.82 M0.3 7.27 C0.3 7.27, 0.3 7.27, 0.3 7.27 M0.3 7.27 C0.3 7.27, 0.3 7.27, 0.3 7.27 M10.48 10.81 C6.83 7.61, 3.72 5.4, -0.09 1.63 M10.48 10.81 C7.6 8.65, 5.31 5.87, -0.09 1.63 M21.4 15.01 C14.72 10.29, 8.91 3.35, 4.8 0.58 M21.4 15.01 C15.43 9.58, 9.77 4.44, 4.8 0.58 M27.8 15.27 C23.14 10.99, 19.81 8.08, 14.21 3.46 M27.8 15.27 C22.78 10.55, 17.22 6.85, 14.21 3.46 M28.16 10.29 C26.52 9.32, 25.47 7.71, 23.63 6.35 M28.16 10.29 C26.84 8.91, 25.11 7.71, 23.63 6.35" stroke="#d3d3d3" stroke-width="0.5" fill="none"></path><path d="M0 0 C-0.14 1.41, 0.45 2.92, 0.28 7.25 M0 0 C0.07 2.73, 0.16 5.71, 0.28 7.25 M0.28 7.25 C8.19 10.51, 16.42 13.53, 26.77 16.87 M0.28 7.25 C9.29 10.68, 17.45 13.11, 26.77 16.87 M26.77 16.87 C26.66 14.49, 27.43 12.49, 27.88 8.5 M26.77 16.87 C26.84 14.83, 27.44 12.58, 27.88 8.5 M27.88 8.5 C17.89 6.08, 8.31 1.79, 0 0 M27.88 8.5 C20.98 6.5, 15.04 4.32, 0 0 M0 0 C0 0, 0 0, 0 0 M0 0 C0 0, 0 0, 0 0" stroke="#d3d3d3" stroke-width="1" fill="none"></path></g></g><mask></mask><g stroke-linecap="round"><g transform="translate(80.9078011169056 325.0505674123341) rotate(0 13.923628431116413 8.43476427831321)" fill-rule="evenodd"><path d="M0 0 C0 0, 0 0, 0 0 M0 0 C0 0, 0 0, 0 0 M0.39 5.64 C1.86 3.68, 3.77 2.31, 4.33 1.11 M0.39 5.64 C1.51 4.5, 2.53 2.96, 4.33 1.11 M3.41 8.27 C5.32 6.72, 6.78 5.23, 8.66 2.23 M3.41 8.27 C5.16 6.46, 6.96 4.2, 8.66 2.23 M7.09 10.14 C8.48 9.13, 9.14 7.66, 12.34 4.1 M7.09 10.14 C9.17 7.84, 11.23 5.33, 12.34 4.1 M11.42 11.25 C12.35 10.16, 13.86 8.16, 16.67 5.21 M11.42 11.25 C13.21 9.17, 14.66 7.45, 16.67 5.21 M15.09 13.12 C16.99 10.71, 18.81 8.41, 21 6.33 M15.09 13.12 C17.34 10.44, 19.63 7.9, 21 6.33 M19.43 14.24 C20.68 12.61, 22.95 10.68, 25.33 7.44 M19.43 14.24 C21.4 11.6, 23.76 9.21, 25.33 7.44 M23.76 15.35 C25.02 13.66, 26.52 11.91, 27.69 10.82 M23.76 15.35 C24.51 14.35, 25.57 13.32, 27.69 10.82 M0.3 7.27 C0.3 7.27, 0.3 7.27, 0.3 7.27 M0.3 7.27 C0.3 7.27, 0.3 7.27, 0.3 7.27 M10.48 10.81 C6.85 7.37, 2.98 4.19, -0.09 1.63 M10.48 10.81 C7.58 7.98, 4.87 5.85, -0.09 1.63 M21.4 15.01 C15.08 10.41, 9.38 4.5, 4.8 0.58 M21.4 15.01 C15.33 9.58, 9.54 4.52, 4.8 0.58 M27.8 15.27 C21.83 10.29, 17.52 6.73, 14.21 3.46 M27.8 15.27 C24.66 12.33, 20.64 9.97, 14.21 3.46 M28.16 10.29 C26.55 9.02, 24.72 7.09, 23.63 6.35 M28.16 10.29 C26.74 9.08, 25.15 7.86, 23.63 6.35" stroke="#d3d3d3" stroke-width="0.5" fill="none"></path><path d="M0 0 C-0.06 1.93, -0.08 3.35, 0.28 7.25 M0 0 C0.07 2.7, 0.26 5.17, 0.28 7.25 M0.28 7.25 C7.54 10.14, 16.56 12.89, 26.77 16.87 M0.28 7.25 C5.69 9.59, 11.37 11.29, 26.77 16.87 M26.77 16.87 C27.28 14.31, 27.66 12.61, 27.88 8.5 M26.77 16.87 C27.15 15.02, 27.23 13.44, 27.88 8.5 M27.88 8.5 C21.81 5.98, 15.46 4.11, 0 0 M27.88 8.5 C19.59 5.83, 12.12 3.9, 0 0 M0 0 C0 0, 0 0, 0 0 M0 0 C0 0, 0 0, 0 0" stroke="#d3d3d3" stroke-width="1" fill="none"></path></g></g><mask></mask><g stroke-linecap="round"><g transform="translate(14.506961042266994 228.39611000886967) rotate(0 10.078829661477926 6.970879568853874)" fill-rule="evenodd"><path d="M0 0 C0 0, 0 0, 0 0 M0 0 C0 0, 0 0, 0 0 M0.39 5.64 C2 3.77, 3.41 2.58, 4.33 1.11 M0.39 5.64 C1.75 4.09, 2.78 2.79, 4.33 1.11 M4.07 7.51 C5.14 5.92, 6.42 4.57, 8.01 2.98 M4.07 7.51 C5.22 5.95, 6.58 4.7, 8.01 2.98 M7.74 9.38 C8.88 7.78, 10.31 6.19, 12.34 4.1 M7.74 9.38 C9.43 7.69, 10.79 5.97, 12.34 4.1 M11.42 11.25 C13.31 9.25, 14.65 7.12, 16.01 5.97 M11.42 11.25 C12.52 10.01, 13.4 8.86, 16.01 5.97 M15.75 12.37 C17.25 10.47, 18.62 8.8, 20.34 7.08 M15.75 12.37 C16.63 11.17, 17.55 10.07, 20.34 7.08 M0.14 5.94 C0.14 5.94, 0.14 5.94, 0.14 5.94 M0.14 5.94 C0.14 5.94, 0.14 5.94, 0.14 5.94 M11.82 10.79 C6.69 6.7, 2.66 2.1, -0.26 0.29 M11.82 10.79 C9.57 8.76, 6.93 6.27, -0.26 0.29 M19.73 12.36 C15.1 8.51, 9.88 4.22, 7.65 1.87 M19.73 12.36 C15.41 8.24, 10.45 4.45, 7.65 1.87 M20.09 7.38 C19.59 6.85, 19.1 6.42, 17.82 5.41 M20.09 7.38 C19.39 6.84, 18.61 6.19, 17.82 5.41" stroke="#d3d3d3" stroke-width="0.5" fill="none"></path><path d="M0 0 C-0.13 1.55, -0.07 3.42, 0.2 5.99 M0 0 C0.06 2.03, 0.16 4, 0.2 5.99 M0.2 5.99 C3.7 7.35, 7.41 10.21, 19.41 13.94 M0.2 5.99 C6.9 8.9, 14.75 11.47, 19.41 13.94 M19.41 13.94 C19.49 12.78, 19.91 11.25, 20.22 7.03 M19.41 13.94 C19.86 11.24, 20.22 8.54, 20.22 7.03 M20.22 7.03 C14.84 5.82, 10.69 2.73, 0 0 M20.22 7.03 C13.57 4.63, 6.33 2.08, 0 0 M0 0 C0 0, 0 0, 0 0 M0 0 C0 0, 0 0, 0 0" stroke="#d3d3d3" stroke-width="1" fill="none"></path></g></g><mask></mask><g stroke-linecap="round"><g transform="translate(16.69957592515061 297.92742152688186) rotate(0 10.110460195381165 6.970879568853874)" fill-rule="evenodd"><path d="M0 0 C0 0, 0 0, 0 0 M0 0 C0 0, 0 0, 0 0 M0.39 5.64 C1.72 3.85, 2.93 2.15, 4.33 1.11 M0.39 5.64 C1.77 4.09, 3.06 2.58, 4.33 1.11 M4.07 7.51 C5.13 6.1, 6.58 4.28, 8.01 2.98 M4.07 7.51 C5.12 6.19, 6.5 4.8, 8.01 2.98 M7.74 9.38 C9.49 7.7, 10.47 5.71, 12.34 4.1 M7.74 9.38 C9.43 7.35, 11.2 5.33, 12.34 4.1 M11.42 11.25 C12.6 10.25, 13.24 8.58, 16.01 5.97 M11.42 11.25 C12.97 9.22, 14.52 7.36, 16.01 5.97 M15.75 12.37 C16.45 11.12, 17.9 10.1, 20.34 7.08 M15.75 12.37 C16.76 11.23, 17.91 10.09, 20.34 7.08 M0.14 5.94 C0.14 5.94, 0.14 5.94, 0.14 5.94 M0.14 5.94 C0.14 5.94, 0.14 5.94, 0.14 5.94 M11.82 10.79 C9.16 8.12, 4.88 5.05, -0.26 0.29 M11.82 10.79 C9.36 8.45, 6.3 5.72, -0.26 0.29 M19.73 12.36 C16.64 8.35, 11.67 5.29, 7.65 1.87 M19.73 12.36 C15.5 8.45, 10.23 4.21, 7.65 1.87 M20.09 7.38 C19.55 6.88, 18.68 6.33, 17.82 5.41 M20.09 7.38 C19.7 6.92, 19.13 6.55, 17.82 5.41" stroke="#d3d3d3" stroke-width="0.5" fill="none"></path><path d="M0 0 C0.21 2.05, 0.2 3.69, 0.2 5.99 M0 0 C0.02 1.45, 0.13 2.73, 0.2 5.99 M0.2 5.99 C7.2 8.49, 15.48 11.9, 19.41 13.94 M0.2 5.99 C4.78 7.76, 9.56 9.42, 19.41 13.94 M19.41 13.94 C19.41 11.12, 19.95 8.94, 20.22 7.03 M19.41 13.94 C19.56 11.44, 19.98 8.9, 20.22 7.03 M20.22 7.03 C16.31 6.01, 11.02 4.91, 0 0 M20.22 7.03 C14.09 5.1, 7.88 2.39, 0 0 M0 0 C0 0, 0 0, 0 0 M0 0 C0 0, 0 0, 0 0" stroke="#d3d3d3" stroke-width="1" fill="none"></path></g></g><mask></mask><g stroke-linecap="round"><g transform="translate(25.475333893134803 251.52785310896607) rotate(0 0.49983701877442854 19.212458530396717)"><path d="M0 0 C1.56 15.19, 0.77 29.88, 0.98 38.42 M0 0 C0.13 7.91, 0.59 16.33, 0.98 38.42" stroke="#d3d3d3" stroke-width="1" fill="none"></path></g></g><mask></mask><g stroke-linecap="round"><g transform="translate(37.52382483592601 248.59713909585471) rotate(0 -0.17290374377421358 24.911069111446594)"><path d="M0 0 C-0.67 15.25, 0.15 32.16, -0.33 49.82 M0 0 C0.15 13.79, -0.54 27.31, -0.33 49.82" stroke="#d3d3d3" stroke-width="1" fill="none"></path></g></g><mask></mask><g stroke-linecap="round"><g transform="translate(79.53072569052233 262.9250742710658) rotate(0 -0.9319229272514349 26.21360867282941)"><path d="M0 0 C0.44 17.72, -0.8 33.1, -1.95 52.43 M0 0 C-1.21 10.64, -1.15 21.47, -1.95 52.43" stroke="#d3d3d3" stroke-width="1" fill="none"></path></g></g><mask></mask><g stroke-linecap="round"><g transform="translate(99.0688191112647 271.7172163103999) rotate(0 -0.9769046710371185 24.42261677592802)"><path d="M0 0 C-0.3 19.27, -1.6 38.38, -1.95 48.85 M0 0 C-0.34 14.97, -1.78 30.17, -1.95 48.85" stroke="#d3d3d3" stroke-width="1" fill="none"></path></g></g><mask></mask><g stroke-linecap="round"><g transform="translate(17.3344616344923 211.87136739219622) rotate(0 80.30713478880932 -49.589105890302946)"><path d="M0.63 2.8 C59.46 -54.65, 125.56 -102.86, 155.95 -124.72 M1.59 -0.01 C58.34 -45.58, 115.82 -93.66, 159.99 -129.34 M157.37 -127.87 C141.6 -93.86, 125.44 -56.26, 95.04 30.17 M159.07 -126.64 C137.37 -83.27, 122.11 -34.9, 93.74 27.06" stroke="#d3d3d3" stroke-width="2" fill="none"></path></g></g><mask></mask><g stroke-linecap="round"><g transform="translate(244.30198020545026 141.78889506246293) rotate(0 24.09698188558218 6.187062916568436)"><path d="M0 0 C11.07 2.13, 19.61 6.14, 48.19 12.37 M0 0 C14.52 3.96, 28.45 6.83, 48.19 12.37" stroke="#d3d3d3" stroke-width="1" fill="none"></path></g></g><mask></mask><g stroke-linecap="round"><g transform="translate(228.99714035920192 146.02214863695707) rotate(0 23.445712104891072 6.512697806914105)"><path d="M0 0 C14.67 4.64, 29.93 8.1, 46.89 13.03 M0 0 C11.66 2.66, 24.35 6.87, 46.89 13.03" stroke="#d3d3d3" stroke-width="1" fill="none"></path></g></g><mask></mask><g stroke-linecap="round"><g transform="translate(211.96944446050816 153.41706951419138) rotate(0 23.445712104891072 6.512697806914105)"><path d="M0 0 C10.06 2.8, 21.28 6.91, 46.89 13.03 M0 0 C11.39 3.35, 23.12 5.82, 46.89 13.03" stroke="#d3d3d3" stroke-width="1" fill="none"></path></g></g><mask></mask><g stroke-linecap="round"><g transform="translate(191.35976476801147 161.4632601721172) rotate(0 23.445712104891072 6.512697806914105)"><path d="M0 0 C15.4 4.66, 30.63 9.41, 46.89 13.03 M0 0 C11.4 2.97, 22.8 6.54, 46.89 13.03" stroke="#d3d3d3" stroke-width="1" fill="none"></path></g></g><mask></mask><g stroke-linecap="round"><g transform="translate(168.14500595274944 170.16072061073436) rotate(0 25.725156337310864 6.8383326972598155)"><path d="M0 0 C13.31 3.26, 27.71 7.78, 51.45 13.68 M0 0 C15.2 3.53, 30.9 8.77, 51.45 13.68" stroke="#d3d3d3" stroke-width="1" fill="none"></path></g></g><mask></mask><g stroke-linecap="round"><g transform="translate(140.04572378230182 179.18381593969724) rotate(0 27.19051334386654 7.652419923124086)"><path d="M0 0 C12.38 2.2, 26.01 6.86, 54.38 15.3 M0 0 C19.99 6.08, 41.12 11.71, 54.38 15.3" stroke="#d3d3d3" stroke-width="1" fill="none"></path></g></g><mask></mask><g stroke-linecap="round"><g transform="translate(104.1312042435568 190.16072061073433) rotate(0 30.121227356978125 8.466507148988342)"><path d="M0 0 C23.13 7.63, 44.1 12.1, 60.24 16.93 M0 0 C12.85 3.75, 25.39 8.05, 60.24 16.93" stroke="#d3d3d3" stroke-width="1" fill="none"></path></g></g><mask></mask><g stroke-linecap="round"><g transform="translate(64.96033580135531 205.04524396591995) rotate(0 34.0288460411266 8.629324594161204)"><path d="M0 0 C14.89 3.57, 30.2 7.23, 68.06 17.26 M0 0 C14.11 3.48, 27.76 6.81, 68.06 17.26" stroke="#d3d3d3" stroke-width="1" fill="none"></path></g></g><mask></mask><g stroke-linecap="round"><g transform="translate(170.80554366814818 58.99119537377862) rotate(0 0.40885690992172385 -24.058755648127487)"><path d="M1.09 -1.74 C-1.35 -14.83, 0.44 -28.84, -0.28 -48.99 M0.56 0.87 C-0.61 -17.25, 0.42 -34.15, 0.76 -48.41" stroke="#d3d3d3" stroke-width="2" fill="none"></path></g></g><mask></mask><g stroke-linecap="round"><g transform="translate(174.2802289134736 59.6110554139338) rotate(0 0.7939166242390456 -23.437212227183124)"><path d="M1.75 -0.79 C-0.07 -17.01, 0.4 -35.27, -0.16 -47.5 M0.74 0.97 C0.76 -15.69, -0.43 -31.71, 1.23 -47.84" stroke="#d3d3d3" stroke-width="2" fill="none"></path></g></g><mask></mask><g stroke-linecap="round"><g transform="translate(179.38624284746743 59.823083281921754) rotate(0 0.5303816203959286 -23.407055657627723)"><path d="M1.95 -0.82 C-1.58 -10.9, -0.05 -19.73, 0.74 -46.49 M-0.88 0.92 C1.05 -18.51, 1.32 -37.11, -0.44 -47.73" stroke="#d3d3d3" stroke-width="2" fill="none"></path></g></g><mask></mask><g stroke-linecap="round"><g transform="translate(166.3608263456092 51.87001109947403) rotate(0 10.166578175876111 5.477372444926175)" fill-rule="evenodd"><path d="M0.73 0.39 L19.53 4.58 L20.98 10.41 L-1.78 11.61 L-1.62 0.36" stroke="none" stroke-width="0" fill="#121212" fill-rule="evenodd"></path><path d="M1.53 1.66 C7.95 -1, 13.67 1.99, 18.71 3.72 M-0.1 -0.8 C6.87 1.46, 13.32 2.09, 19.94 3.12 M19.14 3.43 C20.8 6.39, 21.24 10, 20.18 11.76 M19.45 2.94 C20.15 5.68, 20.31 8.27, 20.72 11.34 M22.07 11.72 C12.13 9.91, 5.21 9.29, -1.74 8.59 M21.26 11.54 C12.26 10.82, 5.18 10.36, -0.96 9.38 M-1.57 9.35 C-0.17 6.77, 0.46 3.89, 0.23 -0.68 M-1.11 10.22 C-0.8 7.86, -0.83 4.81, -0.08 -0.45 M0 0 C0 0, 0 0, 0 0 M0 0 C0 0, 0 0, 0 0" stroke="#d3d3d3" stroke-width="2" fill="none"></path></g></g><mask></mask><g stroke-linecap="round"><g transform="translate(176.38406852262074 61.27205881158608) rotate(0 0.9440750375940752 11.652635744857065)"><path d="M-0.5 0.38 C-0.52 1.97, 1.25 6.13, 0.39 8.99 C-0.47 11.85, -5.19 15.24, -5.66 17.52 C-6.13 19.81, -4.29 21.99, -2.44 22.7 C-0.6 23.42, 3.72 22.93, 5.4 21.81 C7.08 20.7, 7.28 16.92, 7.62 16.02 M0.25 0.1 C0.12 1.57, 0.82 5.15, 0.01 8.15 C-0.79 11.15, -4.18 15.64, -4.59 18.11 C-4.99 20.58, -4.01 22.36, -2.44 22.98 C-0.88 23.6, 3.28 22.84, 4.8 21.85 C6.32 20.86, 6.19 18.07, 6.68 17.06" stroke="#d3d3d3" stroke-width="2" fill="none"></path></g></g><mask></mask><g stroke-linecap="round"><g transform="translate(50.91456525079707 296.5234239382739) rotate(0 6.227939793388941 1.691383553760133)"><path d="M-0.03 -0.22 C1.96 0.56, 10.09 3.45, 12.15 4.19 M-0.7 -0.81 C1.43 -0.16, 11.07 2.34, 13.16 3.29" stroke="#d3d3d3" stroke-width="2" fill="none"></path></g></g><mask></mask></svg>