<?xml version="1.0" standalone="no"?>
<!DOCTYPE svg PUBLIC "-//W3C//DTD SVG 1.1//EN" "http://www.w3.org/Graphics/SVG/1.1/DTD/svg11.dtd">
<svg version="1.1" xmlns="http://www.w3.org/2000/svg" viewBox="0 0 248.85749310733536 233.46349132881534" width="248.85749310733536" height="233.46349132881534"><!-- svg-source:excalidraw --><metadata></metadata><defs><style class="style-fonts">
      </style></defs><g stroke-linecap="round" transform="translate(17.697000889260153 16.157600711408122) rotate(0 107.24487905702495 100.57414495299955)"><path d="M7.86 8.16 C7.86 8.16, 7.86 8.16, 7.86 8.16 M7.86 8.16 C7.86 8.16, 7.86 8.16, 7.86 8.16 M1.43 27.75 C6.08 21.23, 15.35 13.34, 24.4 1.33 M1.43 27.75 C7.53 21.38, 11.2 17.09, 24.4 1.33 M0.91 40.54 C8.64 30.71, 20.25 16.95, 36.34 -0.21 M0.91 40.54 C8.62 32.43, 15.41 24.73, 36.34 -0.21 M1.04 52.58 C20.43 30.03, 37.42 11.43, 46.97 -0.25 M1.04 52.58 C18.3 31.2, 35.6 11.95, 46.97 -0.25 M1.18 64.62 C13.77 49.46, 26.19 33.76, 57.6 -0.28 M1.18 64.62 C18.37 45.99, 34.04 25.63, 57.6 -0.28 M0.65 77.42 C19.14 58.49, 33.36 38.02, 67.57 0.44 M0.65 77.42 C15.53 61.22, 28.16 45.71, 67.57 0.44 M0.79 89.46 C22.12 66.9, 41.8 42.87, 78.2 0.41 M0.79 89.46 C22.83 63.92, 44.11 39.7, 78.2 0.41 M0.92 101.5 C34.15 61.29, 68.89 21.52, 88.83 0.37 M0.92 101.5 C33.53 62.01, 67.7 22.48, 88.83 0.37 M1.05 113.54 C24.44 89.51, 42.13 64.31, 99.46 0.34 M1.05 113.54 C33.69 75.87, 65.6 40.84, 99.46 0.34 M0.53 126.34 C26.05 101.05, 47.85 72.72, 110.09 0.3 M0.53 126.34 C31.83 89.65, 63.15 51.42, 110.09 0.3 M0.66 138.38 C27.87 108.7, 56 77.91, 120.72 0.27 M0.66 138.38 C30.24 104.82, 59.34 71.02, 120.72 0.27 M0.8 150.42 C32.83 114.61, 67.17 74.17, 131.35 0.23 M0.8 150.42 C48.46 94.59, 95.34 40.34, 131.35 0.23 M0.93 162.46 C38.75 115.48, 77.81 70.91, 141.98 0.2 M0.93 162.46 C36.83 124.66, 69.85 85.08, 141.98 0.2 M1.06 174.5 C50.17 115.87, 99.98 60.56, 152.61 0.16 M1.06 174.5 C52.65 115.76, 103.66 56.27, 152.61 0.16 M3.17 184.28 C39.42 139.12, 79.23 94.5, 163.24 0.13 M3.17 184.28 C62.35 115.62, 123.04 45.33, 163.24 0.13 M7.23 191.79 C70.25 121.98, 132.37 49.84, 173.87 0.09 M7.23 191.79 C74.84 116.94, 139.04 41.24, 173.87 0.09 M13.93 196.28 C78.28 122.09, 139.92 50.69, 183.85 0.81 M13.93 196.28 C65.78 135.85, 117.62 76.91, 183.85 0.81 M21.28 200.02 C58.15 158.18, 94.98 114.41, 193.82 1.54 M21.28 200.02 C56.04 158.65, 92.81 116.43, 193.82 1.54 M31.25 200.74 C71.66 152.51, 113.26 108.13, 201.17 5.27 M31.25 200.74 C87.09 134.1, 143.95 69.14, 201.17 5.27 M41.23 201.46 C106.3 127.46, 170.92 52.51, 207.87 9.77 M41.23 201.46 C92.1 142.84, 142.39 84.14, 207.87 9.77 M51.86 201.43 C86.68 161.18, 120.29 124.85, 211.93 17.28 M51.86 201.43 C109.16 137.3, 165.29 72.87, 211.93 17.28 M62.49 201.4 C111.54 146.27, 158.19 91.42, 214.04 27.06 M62.49 201.4 C110.85 145.53, 160.92 87.44, 214.04 27.06 M73.12 201.36 C123.75 143.56, 177.34 82.35, 214.83 38.34 M73.12 201.36 C118.57 149, 163.08 95.67, 214.83 38.34 M83.75 201.33 C128.65 149.9, 177.53 98.6, 214.96 50.38 M83.75 201.33 C126.49 151.72, 169.89 102.2, 214.96 50.38 M94.38 201.29 C139.23 151.53, 183.63 100.7, 215.09 62.43 M94.38 201.29 C141.38 147.12, 187.59 93.13, 215.09 62.43 M105.01 201.26 C138.51 163.98, 172.63 122.93, 214.57 75.22 M105.01 201.26 C138.14 165.6, 169.99 127.08, 214.57 75.22 M115.64 201.22 C153.48 157.01, 193.29 110.67, 214.7 87.26 M115.64 201.22 C150.9 160.35, 185.76 120.66, 214.7 87.26 M126.27 201.19 C154.51 168.5, 183.95 132.86, 214.83 99.3 M126.27 201.19 C146.52 175.81, 168.15 151.62, 214.83 99.3 M136.9 201.15 C152.14 182.06, 170.31 159.03, 214.97 111.34 M136.9 201.15 C153.1 183.65, 169.4 166.14, 214.97 111.34 M147.53 201.12 C163.92 179.99, 182.36 160.78, 215.1 123.38 M147.53 201.12 C167.66 178.31, 188.93 155.66, 215.1 123.38 M158.16 201.08 C176.52 180.78, 193.02 157.19, 214.58 136.18 M158.16 201.08 C180.99 176.07, 202.4 148.68, 214.58 136.18 M168.79 201.05 C179.84 187.59, 193.26 173.63, 214.71 148.22 M168.79 201.05 C179.02 189.75, 189.16 177.11, 214.71 148.22 M179.42 201.02 C193.35 184.24, 206.11 170.81, 214.84 160.26 M179.42 201.02 C192.25 185.4, 204.48 172.16, 214.84 160.26 M190.7 200.23 C199.29 190.76, 205.33 183.98, 214.32 173.06 M190.7 200.23 C197.5 193, 204.48 183.66, 214.32 173.06 M8.19 193.31 C8.19 193.31, 8.19 193.31, 8.19 193.31 M8.19 193.31 C8.19 193.31, 8.19 193.31, 8.19 193.31 M21.74 194.49 C15.06 190.5, 10.49 183.3, 5.13 180.06 M21.74 194.49 C16.84 189.71, 11.94 185.75, 5.13 180.06 M36.04 196.32 C28.32 191.1, 21.93 184.15, 2.08 166.8 M36.04 196.32 C23.99 186.9, 12.73 175.24, 2.08 166.8 M48.08 196.19 C30.37 180.93, 12.23 163.2, 2.04 156.17 M48.08 196.19 C32.73 184.29, 19.4 170.13, 2.04 156.17 M60.88 196.71 C40.2 179.68, 23.35 163.97, 2.01 145.54 M60.88 196.71 C43.05 180.95, 26.07 164.11, 2.01 145.54 M72.92 196.58 C50.83 177.24, 27.86 155.65, 1.98 134.91 M72.92 196.58 C45.99 174.93, 22.2 151.49, 1.98 134.91 M84.96 196.45 C53.96 170.34, 21.69 140.43, 1.94 124.28 M84.96 196.45 C62.84 177.82, 40.4 158.1, 1.94 124.28 M97 196.31 C72.07 177.34, 47.85 155.2, 1.91 113.65 M97 196.31 C73.65 177.69, 51.91 157.35, 1.91 113.65 M109.04 196.18 C82.96 173.91, 57.21 151.42, 2.63 103.68 M109.04 196.18 C78.06 169.8, 49.47 143.78, 2.63 103.68 M121.84 196.7 C82.42 162.39, 40.58 125.21, 2.59 93.05 M121.84 196.7 C87.83 166.84, 54.61 135.73, 2.59 93.05 M133.88 196.57 C106.19 170.95, 76.97 145.15, 2.56 82.42 M133.88 196.57 C108.86 173.54, 80.76 150.82, 2.56 82.42 M145.92 196.44 C99.32 156.26, 51 115.43, 2.52 71.79 M145.92 196.44 C101.01 157.96, 56.6 118.87, 2.52 71.79 M157.96 196.3 C113.99 158.08, 68.22 118.42, 2.49 61.16 M157.96 196.3 C127.91 169.47, 96.71 144.04, 2.49 61.16 M170 196.17 C129.7 159.08, 87.03 122.09, 2.45 50.53 M170 196.17 C127.04 158.87, 84.14 121.63, 2.45 50.53 M185.06 198.66 C139.13 158.36, 89.57 117.15, 2.42 39.9 M185.06 198.66 C142.03 161.24, 100.65 123.95, 2.42 39.9 M197.1 198.53 C136.57 146.96, 78.87 94.96, 2.39 29.27 M197.1 198.53 C132.61 143.47, 68.58 87.99, 2.39 29.27 M204.61 194.46 C145.02 143.81, 87.78 91.74, 3.86 19.95 M204.61 194.46 C131.35 130.55, 57.73 66.01, 3.86 19.95 M210.62 189.08 C138.1 124.29, 67.73 63.88, 6.84 11.94 M210.62 189.08 C154.52 140.13, 96.67 91.29, 6.84 11.94 M214.35 181.73 C141.31 119.17, 68.97 55.92, 10.58 4.59 M214.35 181.73 C160.02 132.81, 104.71 85.14, 10.58 4.59 M215.08 171.75 C167.68 128.75, 122.54 89.38, 18.85 1.18 M215.08 171.75 C154.65 118.7, 94.87 67.25, 18.85 1.18 M218.81 164.4 C157.6 110.54, 95.22 54.29, 29.38 -0.27 M218.81 164.4 C161.82 114.33, 104.47 65.1, 29.38 -0.27 M218.78 153.77 C168.4 109.61, 114.79 63.91, 36.14 -4.99 M218.78 153.77 C150.63 93.42, 81.46 34.6, 36.14 -4.99 M218.75 143.14 C160.12 92.94, 100.46 40, 48.18 -5.13 M218.75 143.14 C176.14 106.99, 136.1 71.59, 48.18 -5.13 M218.71 132.51 C160.85 82.88, 102.84 32.41, 60.98 -4.6 M218.71 132.51 C173.74 93.34, 128.74 52.88, 60.98 -4.6 M218.68 121.88 C185.16 90.61, 151.01 63.25, 73.02 -4.74 M218.68 121.88 C167.44 78.05, 115.66 33.24, 73.02 -4.74 M218.64 111.25 C181.88 83.31, 149.42 50, 85.06 -4.87 M218.64 111.25 C192.91 85.91, 165.11 62.43, 85.06 -4.87 M218.61 100.62 C187.38 71.63, 158.26 47.09, 97.1 -5 M218.61 100.62 C179.32 67.68, 142.07 34.95, 97.1 -5 M218.57 89.99 C184.46 60.89, 151.66 31.26, 109.14 -5.14 M218.57 89.99 C181.22 57.97, 144.47 25.68, 109.14 -5.14 M218.54 79.36 C199.39 62.22, 180.41 45.62, 121.94 -4.61 M218.54 79.36 C190.42 55.26, 162.37 30.45, 121.94 -4.61 M218.5 68.73 C194.78 49.51, 168.71 27.06, 133.98 -4.75 M218.5 68.73 C196.63 49.9, 176.03 31.12, 133.98 -4.75 M218.47 58.1 C198.71 41.25, 179.34 21.36, 146.02 -4.88 M218.47 58.1 C198.84 40.98, 177.86 22.25, 146.02 -4.88 M218.43 47.47 C203.52 35.02, 189.58 23.44, 158.06 -5.01 M218.43 47.47 C197.52 30.37, 177.05 10.7, 158.06 -5.01 M218.4 36.84 C207.44 26.08, 196.33 18.47, 170.1 -5.14 M218.4 36.84 C202.45 23.37, 187.52 8.96, 170.1 -5.14 M219.12 26.87 C205.85 18.79, 196.76 6.3, 185.16 -2.65 M219.12 26.87 C212.25 19.51, 203.32 14.04, 185.16 -2.65" stroke="#e9ecef" stroke-width="1" fill="none"></path><path d="M32 0 C90.33 0.79, 151.53 1.91, 182.49 0 M32 0 C76.95 -1.3, 123.37 -1.33, 182.49 0 M182.49 0 C202.74 -1.96, 212.73 9.37, 214.49 32 M182.49 0 C205.37 -0.95, 216.53 8.57, 214.49 32 M214.49 32 C214.53 66.87, 215.71 101.86, 214.49 169.15 M214.49 32 C213.96 77.18, 213.97 121.54, 214.49 169.15 M214.49 169.15 C212.57 191.63, 202.88 202.87, 182.49 201.15 M214.49 169.15 C214.81 191.27, 205.4 200.09, 182.49 201.15 M182.49 201.15 C124.5 199.57, 67.72 199.32, 32 201.15 M182.49 201.15 C147.08 201.45, 109.8 201.37, 32 201.15 M32 201.15 C10.75 200.48, 0.3 191.61, 0 169.15 M32 201.15 C9.33 200.84, 2.26 189.33, 0 169.15 M0 169.15 C-0.9 132.92, -0.2 95.61, 0 32 M0 169.15 C1.98 129.93, 0.37 91.34, 0 32 M0 32 C-0.4 10.18, 9.93 0.36, 32 0 M0 32 C1.29 9.67, 11.39 1.03, 32 0" stroke="#1e1e1e" stroke-width="2" fill="none"></path></g><g stroke-linecap="round"><g transform="translate(37.19606980871913 44.893070697979454) rotate(0 89.53935851514859 62.107271521513)" fill-rule="evenodd"><path d="M-1.55 -1.86 L181.19 2.08 L179.72 73.97 L148.13 73.05 L147.44 98.48 L121.96 97.77 L124.52 124.05 L53.73 124.48 L53.23 104.45 L27.92 103.5 L26.94 80.36 L1.55 79.45 L1.42 1.37" stroke="none" stroke-width="0" fill="#868e96" fill-rule="evenodd"></path><path d="M0 0 C36.77 1.03, 74.59 -0.98, 179.6 2.57 M0 0 C53.59 0.98, 105.67 2.26, 179.6 2.57 M179.6 2.57 C177.57 24.67, 178.44 45.96, 178.57 72.86 M179.6 2.57 C178.93 27.57, 178.4 51.8, 178.57 72.86 M178.57 72.86 C170.13 74.78, 163.2 74.57, 148.81 72.86 M178.57 72.86 C169.75 72.34, 162.21 72.12, 148.81 72.86 M148.81 72.86 C149.65 81.11, 147.03 93.29, 148.81 97.5 M148.81 72.86 C149.55 78.28, 148.47 84.01, 148.81 97.5 M148.81 97.5 C140.88 98.67, 133.76 96.93, 122.13 98.01 M148.81 97.5 C141.87 97.31, 135.25 97.4, 122.13 98.01 M122.13 98.01 C124.37 106.46, 124.51 119.38, 122.64 124.18 M122.13 98.01 C122.13 106.98, 121.85 114.93, 122.64 124.18 M122.64 124.18 C98.5 122.84, 74.58 125.22, 53.88 123.67 M122.64 124.18 C106.58 123.51, 91.82 124.57, 53.88 123.67 M53.88 123.67 C51.83 116.77, 54.78 110.44, 52.34 103.14 M53.88 123.67 C54.1 114.91, 52.75 107.23, 52.34 103.14 M52.34 103.14 C47.14 103.9, 39.54 102.12, 29.76 103.14 M52.34 103.14 C44.25 104.13, 35.49 104.1, 29.76 103.14 M29.76 103.14 C28.56 94.7, 27.71 85.28, 28.22 80.05 M29.76 103.14 C29.03 97.86, 29.85 93.81, 28.22 80.05 M28.22 80.05 C19.25 81.91, 11.56 78.94, 0 79.54 M28.22 80.05 C21.09 79.62, 13.94 80.89, 0 79.54 M0 79.54 C-1.17 54.98, 0.01 30.04, 0 0 M0 79.54 C-0.17 55.03, -0.47 32.38, 0 0 M0 0 C0 0, 0 0, 0 0 M0 0 C0 0, 0 0, 0 0" stroke="#1e1e1e" stroke-width="2" fill="none"></path></g></g><mask></mask><g stroke-linecap="round" transform="translate(65.93153979529075 55.15573855032625) rotate(0 3.078800355704061 13.34146820805097)"><path d="M0.45 -0.56 L5.67 -0.59 L5.21 26.29 L-0.51 26.47" stroke="none" stroke-width="0" fill="#ffffff"></path><path d="M0 0 C2.37 0.28, 4.59 0.2, 6.16 0 M0 0 C1.34 0.04, 2.55 -0.13, 6.16 0 M6.16 0 C6.64 10.16, 5.22 18.26, 6.16 26.68 M6.16 0 C5.74 8.98, 6.12 16.97, 6.16 26.68 M6.16 26.68 C3.66 26.58, 1.49 26.53, 0 26.68 M6.16 26.68 C4.86 26.67, 3.2 26.72, 0 26.68 M0 26.68 C-0.74 20.4, 0.92 14.37, 0 0 M0 26.68 C-0.14 18.05, 0.32 9.71, 0 0" stroke="#1e1e1e" stroke-width="2" fill="none"></path></g><g stroke-linecap="round" transform="translate(124.16607870132111 54.379937305362034) rotate(0 3.078800355704061 13.34146820805097)"><path d="M0.09 0.59 L5.32 -0.95 L6.94 27.34 L0.04 26.11" stroke="none" stroke-width="0" fill="#ffffff"></path><path d="M0 0 C2.03 0.05, 4.1 -0.02, 6.16 0 M0 0 C2.11 0.04, 4.13 0.03, 6.16 0 M6.16 0 C5.58 6.93, 6.74 11.59, 6.16 26.68 M6.16 0 C6.03 7.6, 6.18 15.08, 6.16 26.68 M6.16 26.68 C4.54 26.87, 2.65 26.62, 0 26.68 M6.16 26.68 C4.36 26.64, 2.46 26.85, 0 26.68 M0 26.68 C0.76 19.05, 0.53 12.08, 0 0 M0 26.68 C0.2 20.38, -0.45 13.72, 0 0" stroke="#1e1e1e" stroke-width="2" fill="none"></path></g><g stroke-linecap="round" transform="translate(95.43060871474972 54.89307069797934) rotate(0 3.078800355704061 13.34146820805097)"><path d="M0.13 -0.96 L6.93 0.31 L6.82 27.61 L-0.52 27.16" stroke="none" stroke-width="0" fill="#ffffff"></path><path d="M0 0 C2.13 0.27, 4.01 0.27, 6.16 0 M0 0 C2.14 -0.06, 4.43 -0.1, 6.16 0 M6.16 0 C6.38 9.13, 6.62 19.29, 6.16 26.68 M6.16 0 C6.39 9.98, 5.71 20.46, 6.16 26.68 M6.16 26.68 C4.15 26.59, 1.47 26.75, 0 26.68 M6.16 26.68 C3.95 26.66, 1.37 26.63, 0 26.68 M0 26.68 C1.05 17.07, -0.14 6.71, 0 0 M0 26.68 C-0.55 16.71, 0.28 7.01, 0 0" stroke="#1e1e1e" stroke-width="2" fill="none"></path></g><g stroke-linecap="round" transform="translate(153.6651476207801 54.117269453015126) rotate(0 3.078800355704061 13.34146820805097)"><path d="M-0.83 -0.95 L6.94 0.66 L6.2 26.11 L-0.31 27.57" stroke="none" stroke-width="0" fill="#ffffff"></path><path d="M0 0 C2.07 0, 4.68 -0.19, 6.16 0 M0 0 C2.28 0.04, 4.45 -0.1, 6.16 0 M6.16 0 C6.75 5.24, 5.91 10.34, 6.16 26.68 M6.16 0 C6.28 8.7, 6.09 17.12, 6.16 26.68 M6.16 26.68 C4.55 26.64, 2.85 26.5, 0 26.68 M6.16 26.68 C3.88 26.81, 1.52 26.65, 0 26.68 M0 26.68 C0.41 20.6, -0.65 15.57, 0 0 M0 26.68 C-0.51 17.08, -0.01 7.5, 0 0" stroke="#1e1e1e" stroke-width="2" fill="none"></path></g><g stroke-linecap="round" transform="translate(81.06287372146426 55.4062040905967) rotate(0 3.078800355704061 13.34146820805097)"><path d="M0.98 -0.49 L7.13 0.63 L5.85 26.37 L-0.62 26.23" stroke="none" stroke-width="0" fill="#ffffff"></path><path d="M0 0 C2.2 0.07, 4.34 0.27, 6.16 0 M0 0 C1.86 -0.01, 3.57 0.11, 6.16 0 M6.16 0 C6.66 7.02, 6.05 15.15, 6.16 26.68 M6.16 0 C6.37 8.16, 5.69 15.76, 6.16 26.68 M6.16 26.68 C4.69 26.93, 3.46 26.53, 0 26.68 M6.16 26.68 C4.41 26.64, 2.88 26.61, 0 26.68 M0 26.68 C0.96 17.23, 0.36 8.84, 0 0 M0 26.68 C0.24 20.02, 0.5 12.84, 0 0" stroke="#1e1e1e" stroke-width="2" fill="none"></path></g><g stroke-linecap="round" transform="translate(139.29741262749462 54.63040284563249) rotate(0 3.078800355704061 13.34146820805097)"><path d="M0.78 0.66 L6.2 -0.57 L5.85 27.57 L0.07 26.26" stroke="none" stroke-width="0" fill="#ffffff"></path><path d="M0 0 C2.11 -0.18, 4.22 0.09, 6.16 0 M0 0 C1.99 -0.1, 4.08 -0.09, 6.16 0 M6.16 0 C6.07 9.89, 6.5 21.2, 6.16 26.68 M6.16 0 C6.13 8.09, 6.04 16.95, 6.16 26.68 M6.16 26.68 C3.92 26.47, 1.89 26.79, 0 26.68 M6.16 26.68 C4.53 26.69, 2.87 26.83, 0 26.68 M0 26.68 C-0.61 20.25, 0.58 14.34, 0 0 M0 26.68 C0.17 17.64, -0.29 7.53, 0 0" stroke="#1e1e1e" stroke-width="2" fill="none"></path></g><g stroke-linecap="round" transform="translate(110.56194264092323 55.143536238249794) rotate(0 3.078800355704061 13.34146820805097)"><path d="M0.78 0.31 L6.82 0.93 L5.63 27.16 L0.48 26.27" stroke="none" stroke-width="0" fill="#ffffff"></path><path d="M0 0 C2.24 0.27, 4.99 -0.12, 6.16 0 M0 0 C1.61 -0.1, 3.42 0.13, 6.16 0 M6.16 0 C6.53 9.5, 6.98 18.55, 6.16 26.68 M6.16 0 C5.93 7.32, 6.63 14.2, 6.16 26.68 M6.16 26.68 C3.73 26.71, 1.68 26.83, 0 26.68 M6.16 26.68 C4.58 26.65, 3.34 26.54, 0 26.68 M0 26.68 C-0.39 20.88, 0.47 15.58, 0 0 M0 26.68 C0.47 18.22, 0.2 10.24, 0 0" stroke="#1e1e1e" stroke-width="2" fill="none"></path></g><g stroke-linecap="round" transform="translate(168.7964815469536 54.36773499328558) rotate(0 3.078800355704061 13.34146820805097)"><path d="M0.04 -0.57 L5.85 0.88 L6.22 26.26 L0.07 26.35" stroke="none" stroke-width="0" fill="#ffffff"></path><path d="M0 0 C2.07 0.11, 3.84 0.02, 6.16 0 M0 0 C1.9 -0.06, 4.24 0.12, 6.16 0 M6.16 0 C6.39 7.14, 6.26 14.66, 6.16 26.68 M6.16 0 C5.99 8.32, 6.46 16.21, 6.16 26.68 M6.16 26.68 C4.65 26.78, 2.56 26.69, 0 26.68 M6.16 26.68 C3.6 26.79, 1.24 26.76, 0 26.68 M0 26.68 C0.72 20.56, 0.57 12.76, 0 0 M0 26.68 C-0.43 17.5, 0.38 9.6, 0 0" stroke="#1e1e1e" stroke-width="2" fill="none"></path></g><g stroke-linecap="round" transform="translate(187.03102045298374 182.41281991942776) rotate(0 14.367734993285694 8.466700978186196)"><path d="M4.23 0 C8.12 -2.54, 12.36 1.26, 24.5 0 C24.25 -3.08, 28.73 2.62, 28.74 4.23 C28.76 6.08, 29.68 8.69, 28.74 12.7 C31.95 18.83, 23.93 20.53, 24.5 16.93 C19.48 19.19, 11.06 19.85, 4.23 16.93 C-1.99 15.85, -2.32 12.32, 0 12.7 C-1 11.07, 1.35 7.95, 0 4.23 C-2.25 -1.14, 2.62 -2.43, 4.23 0" stroke="none" stroke-width="0" fill="#e9ecef"></path><path d="M4.23 0 C9.82 1.44, 13.13 -0.02, 24.5 0 M4.23 0 C10.06 -0.77, 14.39 -1.06, 24.5 0 M24.5 0 C27.51 -1.18, 27.26 -0.19, 28.74 4.23 M24.5 0 C29.48 0.93, 28.26 1.21, 28.74 4.23 M28.74 4.23 C28.6 6.37, 28.82 9.86, 28.74 12.7 M28.74 4.23 C28.82 7.46, 28.45 10.37, 28.74 12.7 M28.74 12.7 C27.54 17.33, 26.93 15.95, 24.5 16.93 M28.74 12.7 C27.07 16.32, 25.09 18.78, 24.5 16.93 M24.5 16.93 C18.69 14.89, 10.51 18.31, 4.23 16.93 M24.5 16.93 C19.48 16.64, 13.58 17.87, 4.23 16.93 M4.23 16.93 C-0.52 16.77, 1.83 16.09, 0 12.7 M4.23 16.93 C0.21 16.15, 1.6 13.71, 0 12.7 M0 12.7 C-0.46 9.5, 0.02 6.79, 0 4.23 M0 12.7 C0.19 10, -0.41 6.59, 0 4.23 M0 4.23 C-0.37 1.51, 1.53 0.31, 4.23 0 M0 4.23 C-2.17 -0.68, 3.19 0.24, 4.23 0" stroke="#1e1e1e" stroke-width="2" fill="none"></path></g><g stroke-linecap="round" transform="translate(36.42026856375492 180.61075188922888) rotate(0 14.367734993285694 8.466700978186196)"><path d="M4.23 0 C13.6 -3.11, 15.61 -2.03, 24.5 0 C24.13 0.93, 29.6 4.5, 28.74 4.23 C29.62 5.29, 27.77 8.75, 28.74 12.7 C26.3 16.93, 25.29 17.47, 24.5 16.93 C19.27 16.34, 14.13 18.03, 4.23 16.93 C3.45 15.76, -0.91 17.92, 0 12.7 C0.27 9.06, -0.53 7.55, 0 4.23 C2.73 -0.67, 2.26 2.84, 4.23 0" stroke="none" stroke-width="0" fill="#ced4da"></path><path d="M4.23 0 C10.26 0.81, 16.13 -0.19, 24.5 0 M4.23 0 C11.46 -0.45, 17.92 -0.05, 24.5 0 M24.5 0 C26.34 -1.45, 29.43 -0.54, 28.74 4.23 M24.5 0 C29.17 1.57, 27.58 -0.33, 28.74 4.23 M28.74 4.23 C29.3 7.42, 28.08 10.79, 28.74 12.7 M28.74 4.23 C29.1 7.14, 28.67 11.25, 28.74 12.7 M28.74 12.7 C29.31 14.48, 26.64 18.32, 24.5 16.93 M28.74 12.7 C26.92 16.93, 27.78 15.32, 24.5 16.93 M24.5 16.93 C19.97 18.12, 15.52 16.87, 4.23 16.93 M24.5 16.93 C17.2 16.57, 10.1 16.81, 4.23 16.93 M4.23 16.93 C1.72 15.05, -1.82 17.07, 0 12.7 M4.23 16.93 C1.65 16.65, 0.81 17.21, 0 12.7 M0 12.7 C0.41 9.89, -0.67 8.53, 0 4.23 M0 12.7 C0.37 9.87, -0.29 7.3, 0 4.23 M0 4.23 C-1.52 3.2, 3.25 -1.89, 4.23 0 M0 4.23 C2.3 0.51, 3.33 -1.33, 4.23 0" stroke="#1e1e1e" stroke-width="2" fill="none"></path></g><g stroke-linecap="round" transform="translate(10 10) rotate(0 114.42874655366768 106.73174566440767)"><path d="M32 0 C70.67 2.72, 114.24 2.61, 196.86 0 M32 0 C89.66 -1.43, 148.56 1.92, 196.86 0 M196.86 0 C217.99 -0.84, 232.62 12.42, 228.86 32 M196.86 0 C215.51 -1.59, 229.1 10.87, 228.86 32 M228.86 32 C230.21 65.48, 228.09 99.52, 228.86 181.46 M228.86 32 C228.65 75.81, 230.56 121.39, 228.86 181.46 M228.86 181.46 C226.89 200.55, 221.08 217.12, 196.86 213.46 M228.86 181.46 C226.1 204.01, 215.62 217.65, 196.86 213.46 M196.86 213.46 C156.98 217.72, 122.17 211.46, 32 213.46 M196.86 213.46 C163.28 210.71, 130.28 212.38, 32 213.46 M32 213.46 C9.1 210.53, 2.71 199.19, 0 181.46 M32 213.46 C9.77 211.18, 1.55 202.83, 0 181.46 M0 181.46 C2.53 142.62, 5.43 100.31, 0 32 M0 181.46 C-0.03 133.49, -2.42 91.34, 0 32 M0 32 C1.14 11.93, 13.36 3.47, 32 0 M0 32 C-1.22 6.93, 8.31 -3.79, 32 0" stroke="#1e1e1e" stroke-width="2" fill="none"></path></g></svg>
