<?xml version="1.0" standalone="no"?>
<!DOCTYPE svg PUBLIC "-//W3C//DTD SVG 1.1//EN" "http://www.w3.org/Graphics/SVG/1.1/DTD/svg11.dtd">
<svg version="1.1" xmlns="http://www.w3.org/2000/svg" viewBox="0 0 447.477785528054 345.3720011969697" width="447.477785528054" height="345.3720011969697"><!-- svg-source:excalidraw --><metadata></metadata><defs><style class="style-fonts">
      </style></defs><g stroke-linecap="round" transform="translate(10 21.65934164699479) rotate(0 97.32426914903726 154.83614248132983)"><path d="M40 28.15 C40 28.15, 40 28.15, 40 28.15 M40 28.15 C40 28.15, 40 28.15, 40 28.15 M19.69 65.24 C30.71 47.48, 43.35 33.53, 63.86 13.4 M21.55 65.21 C36 41.16, 54.4 21.68, 65.44 13.4 M18.33 79.17 C33.31 61.89, 48.5 39.19, 75.22 7.85 M15.87 79.96 C40.53 52.86, 65.11 27.86, 76.11 13.37 M7.13 97.26 C26.59 81.53, 40.51 61.94, 85.74 7.12 M9.63 98.85 C30.49 72.75, 55.59 44.77, 89.66 9.61 M9.17 109.75 C34.07 88.65, 56.18 59.54, 100.33 3.4 M7.98 111.66 C39.73 75.55, 73.02 39.65, 104.8 5.01 M10.7 125.52 C43.38 85.07, 85.98 37.16, 115.98 4.36 M8.27 128.35 C36.64 92.68, 65.13 57.61, 110.93 6.96 M7.52 141.84 C40.96 102.95, 71.22 63.83, 123.39 6.64 M5.58 138.79 C47.55 93.28, 89.8 42.59, 118.89 8.73 M7.01 153.06 C40.07 119.81, 67.5 80.72, 124.56 14.85 M3.8 153.35 C54.79 98.78, 102.29 46.48, 129.57 10.46 M3.55 168.39 C61.07 106.64, 106.69 52.51, 136.06 15.51 M5.82 166.86 C30.78 131.6, 63.58 97.55, 138.09 13.27 M7.03 178.93 C60.96 116.43, 110.77 54.95, 139.73 21.44 M4.71 176.88 C53.55 119.47, 103.97 64.98, 144.05 20.45 M6.31 188.16 C50.6 141.07, 94.47 86.34, 145.67 24.47 M6.17 188.56 C62.96 122.56, 115.8 62.14, 147.84 24.08 M11.33 200.06 C45.3 157.28, 86.56 116.38, 150.87 31.77 M9.51 196.44 C57.02 143.68, 103.9 92.06, 154.05 29.98 M9.59 208.82 C54.42 154.76, 100.99 106.36, 157.57 35.6 M9.62 210.56 C61.58 146.51, 117.31 84.15, 158.62 38.15 M12.44 221.77 C57.54 166.27, 107.7 108.16, 166.74 41.64 M12.73 220.56 C62.81 163.42, 112.76 106.44, 165.91 41.88 M14.05 229.87 C68.57 164.45, 122.16 99.97, 170.74 51.69 M15.35 229.65 C55.41 181.72, 96.29 132.47, 168.29 48.09 M16.22 236.32 C73.04 171.88, 127.29 104.19, 171.28 59.65 M16.31 235.42 C54.95 196.48, 93.75 155.05, 173.64 57.66 M21.36 246.17 C75.99 181.8, 129.67 117.74, 175.73 64.88 M19.06 244.78 C83.4 176.73, 144.89 105.51, 179.01 65.41 M22.58 257.21 C63.64 209.72, 95.94 169.61, 185.11 71.49 M22.57 254.71 C84.52 190.17, 140.28 125.44, 181.4 71.22 M25.27 260.34 C87.01 202.87, 138.54 140.99, 183.88 80.82 M28.87 260.91 C65.66 219.16, 105.3 171.96, 188.13 79.02 M33.98 268.22 C75.78 219.78, 123.58 164, 187.81 85.08 M34.15 269.82 C73.19 222.99, 114.66 174.12, 191.03 88.68 M40.61 274.8 C75.61 233.25, 112.41 185.42, 193.19 99.66 M36.01 276.3 C91.56 212.1, 144.34 149.28, 192.68 98.34 M41.08 280.29 C86.74 229.19, 133.82 178.11, 196.7 104.8 M41.39 281.97 C103.57 210.68, 165.06 141.69, 192.5 107.74 M43.88 291.58 C101.38 227.01, 152.29 167.93, 193.62 116.17 M47.18 290.47 C76.14 253.89, 107.05 218.75, 196.07 118.47 M53.95 291.8 C100.53 236.46, 151.87 178.11, 194.44 129.9 M55.22 294.02 C79.72 262.34, 110.7 229.02, 196.77 127.47 M62.28 295 C101.26 252.59, 133.58 212.88, 194.6 140.78 M61.25 299.05 C105.61 240.49, 154.42 187.42, 197.38 138.94 M63.9 299.89 C121.01 246.63, 164.85 183.97, 195.99 148.51 M67.87 299.99 C96.57 265.7, 127.57 231.67, 196.77 152.09 M77.03 304.74 C112.22 263.17, 149.26 213.45, 200.54 163.19 M75.33 303.43 C105.04 268.56, 139.21 233.02, 197.67 163.75 M81.67 306.47 C108.54 281.46, 137.56 244.98, 197.97 176.84 M83.36 310.61 C111.56 275.89, 136.89 242.99, 195.7 177.72 M88.85 313.01 C121.14 270.44, 148.26 237.38, 196.8 191.57 M92.41 309.37 C120.76 276.47, 150.81 244.01, 194.01 193.69 M98.36 308.85 C133.53 276.75, 162.85 240.19, 189.12 208.12 M102.24 312.18 C127.72 282.49, 155.72 251.43, 191.48 209.52 M108.6 310.19 C131.69 291.44, 143.49 273.55, 182.72 228.87 M112.9 313.24 C136.37 286.98, 158.09 258.04, 183.88 228.1 M129.74 304.71 C144.64 288.04, 159.35 268.72, 174.26 254.12 M130.91 300.13 C139.65 290.75, 149.33 279.21, 172.15 255.66" stroke="#e9ecef" stroke-width="1" fill="none"></path><path d="M40.1 28.03 C47.6 17.51, 61.11 12.56, 71.18 7.99 C81.25 3.42, 89.85 -0.1, 100.5 0.6 C111.15 1.31, 125.09 6.05, 135.08 12.22 C145.07 18.39, 152.45 27.14, 160.43 37.63 C168.42 48.12, 177.31 60.78, 182.99 75.16 C188.67 89.55, 192.61 107.26, 194.5 123.94 C196.38 140.62, 195.79 158.23, 194.3 175.25 C192.81 192.27, 190.39 210.85, 185.55 226.06 C180.72 241.28, 172.83 255.3, 165.3 266.56 C157.78 277.82, 149.73 286.34, 140.42 293.64 C131.11 300.94, 119.78 308.1, 109.44 310.35 C99.09 312.6, 88.88 310.7, 78.34 307.16 C67.81 303.61, 55.78 298.17, 46.23 289.06 C36.68 279.94, 27.87 265.99, 21.02 252.48 C14.18 238.97, 8.76 223.27, 5.16 208.01 C1.56 192.75, -0.52 177.32, -0.6 160.91 C-0.68 144.51, 1.57 126.09, 4.69 109.59 C7.8 93.08, 7 78.85, 18.11 61.89 C29.21 44.92, 57.7 17.88, 71.33 7.8 C84.95 -2.27, 99.37 -0.92, 99.85 1.42 M146.72 23.68 C156.91 29.12, 166.17 38.78, 172.98 51.02 C179.8 63.27, 184.12 80.89, 187.6 97.16 C191.08 113.43, 193.48 131.97, 193.86 148.64 C194.24 165.32, 192.85 181.4, 189.9 197.22 C186.94 213.04, 182.18 229.78, 176.15 243.56 C170.13 257.35, 162.15 269.56, 153.75 279.94 C145.35 290.32, 135.49 300.75, 125.73 305.85 C115.98 310.94, 106.1 311.44, 95.22 310.52 C84.34 309.6, 70.18 306.26, 60.45 300.32 C50.72 294.38, 44.25 285.59, 36.84 274.89 C29.44 264.19, 22.17 250.6, 16.01 236.11 C9.85 221.62, 2.24 204.12, -0.14 187.94 C-2.51 171.76, 0.27 155.3, 1.75 139.01 C3.24 122.72, 4.87 105.18, 8.75 90.19 C12.63 75.2, 17.75 61.18, 25.02 49.06 C32.29 36.94, 42.23 25.62, 52.35 17.46 C62.47 9.29, 74.78 2.28, 85.75 0.06 C96.73 -2.16, 107.76 1.07, 118.2 4.13 C128.63 7.19, 143.42 14.89, 148.36 18.45 C153.3 22, 149.44 22.27, 147.81 25.44" stroke="#1e1e1e" stroke-width="2" fill="none"></path></g><g stroke-linecap="round" transform="translate(242.8292472299795 25.699716234309903) rotate(0 97.32426914903726 154.8361424813299)"><path d="M46.32 21.71 C46.32 21.71, 46.32 21.71, 46.32 21.71 M46.32 21.71 C46.32 21.71, 46.32 21.71, 46.32 21.71 M22.04 58.62 C36.66 42.07, 48.22 31.88, 69.75 13.8 M21.64 59.71 C36.93 42.07, 52.7 27.14, 66.13 12.88 M16 84.44 C34.07 57.63, 57.77 27.96, 86.64 0.39 M14.55 81.63 C32.21 64.68, 50.66 43.55, 80.71 6.27 M11.43 100.4 C28.05 80.13, 41.81 60.92, 93.54 4.81 M7.18 101.77 C38.48 67.34, 67.85 36.22, 92.95 2.81 M6.67 119.68 C32.2 87.89, 57.21 55.09, 107.33 1.98 M4.92 115.81 C33.47 87.54, 60.78 58.66, 107.18 1.42 M-0.36 134.97 C32.78 96.06, 66.06 60.75, 114.19 3.49 M3.03 134.27 C46.27 78.95, 89.61 29.03, 114.9 2.45 M1.71 145.44 C24.2 113.16, 54.23 84.95, 125.36 9.81 M1.56 149.52 C41.49 104.17, 78.44 58.76, 121.57 5.92 M4.39 160.72 C43.02 107.4, 84.26 60.68, 133.82 7.95 M3.07 157.62 C44.25 114.99, 84.07 66.04, 132.33 9.08 M5.54 168.93 C38.06 129.56, 76.19 84.87, 135.97 16.46 M0.6 170.14 C43.21 122.09, 84.13 73.51, 140.23 13.7 M5.23 182.69 C45.57 129.92, 89.3 78.06, 146.99 16.14 M1.85 179.41 C55.46 123.86, 103.73 70.3, 145.58 18.57 M3.94 195.05 C34.78 156.06, 63.76 120.28, 152.86 22.77 M4.33 191.04 C60.06 128.34, 114.41 64.45, 149.15 23.46 M3.8 203.39 C47.48 155.81, 82.01 108.06, 156 28.91 M6.09 201.28 C49.05 155.44, 90.35 105.4, 155.49 31.72 M10.68 208.69 C55.87 162.15, 97.86 105.42, 163.04 39.3 M8.86 210.84 C51.53 161.37, 95.31 109.7, 160.83 35.1 M7.45 223.82 C66.78 152.4, 124.69 88.1, 167.15 41.88 M10.55 221.35 C39.22 184.63, 72.15 146.35, 167.11 42.8 M12.77 229.31 C51.92 180.6, 96.47 137.07, 168.86 50.18 M14.36 231.41 C68.26 163.11, 120.6 99.72, 171.15 50.87 M17.35 239.42 C68.16 177.54, 116.43 125.42, 171.22 55.05 M14.8 240.4 C68.51 186.72, 114.11 131.88, 174.46 58.18 M19.08 248.22 C64.67 192.17, 111.42 138.41, 180.08 66.73 M20.17 248.17 C55.16 211.89, 87.62 175.82, 175.95 66.35 M26.48 254.36 C76.33 192.78, 135.54 128.09, 182.35 71.68 M25.27 254.68 C64.46 210.42, 101.9 164.9, 181.03 73.28 M31.64 264.01 C76.31 213.7, 115.82 163.62, 182.06 84.67 M28.47 262.84 C63.97 219.39, 101.39 178.65, 183.7 83.5 M31.57 270.13 C64.53 230.1, 93.97 192.52, 185.38 92.21 M32.48 269.49 C68 222.02, 107.96 179.67, 185.57 91.63 M38 278.42 C91.3 208.49, 147.99 149.45, 190.71 104.12 M38.1 274.47 C69.96 236.56, 104.55 201.43, 188.68 102.06 M43.14 282.1 C98.05 224.18, 151.29 160.03, 194.09 109.22 M42.75 280.72 C98.95 219.01, 149.85 158.8, 191.8 111.59 M51.08 287.4 C102.08 228.77, 152.24 165.11, 189.29 124.67 M49.29 285.77 C76.34 251.46, 107.62 217.46, 193.22 122.96 M52.47 291.78 C80.54 260.7, 107.93 230.72, 190.91 133.46 M53.61 292.31 C81.36 258.22, 108.53 225.25, 193.75 130.12 M63.11 295.99 C107.73 241.99, 157.06 184.66, 197 144.9 M59.57 296.01 C99.6 249.22, 141.53 200.13, 196.62 142.89 M71.12 303.11 C99.55 262.11, 132.09 226.78, 191.35 157.82 M67.24 299.83 C98.29 266.89, 128.26 232.86, 194.09 156.5 M75.5 307.38 C115.79 252.45, 161.88 207.02, 191.85 171.46 M75.61 304.52 C111.11 268.7, 143 228.71, 191.94 167.98 M83.82 309.99 C126.88 258.97, 165.82 216.28, 190.75 181.74 M86.04 305.68 C113.66 266.46, 147 230.88, 192.92 184 M94.71 305.55 C128.63 265.04, 170.27 223.27, 189.64 193.55 M92.06 308.3 C123.46 273.97, 155.36 238.67, 191.44 195.8 M101.31 312.62 C124.76 285.45, 150.03 256.56, 186.22 211.85 M101.5 311.16 C122.27 286.52, 141.27 266.22, 185.39 214.03 M119.83 306.25 C135.82 285.3, 156.74 261.35, 183 227.27 M118.1 307.4 C136.66 279.9, 155.19 259.72, 183.84 232.22 M131.83 304.79 C146.04 285.76, 161.3 269.57, 168.05 254.8 M130.86 301.19 C142.93 287.51, 154.91 276.93, 172.88 257.52" stroke="#e9ecef" stroke-width="1" fill="none"></path><path d="M24.17 56.1 C29.45 42.48, 37.01 30.46, 46.22 21.82 C55.42 13.18, 68.88 7.66, 79.41 4.25 C89.94 0.83, 98.95 -0.37, 109.41 1.33 C119.86 3.03, 132.33 7.12, 142.14 14.47 C151.94 21.82, 161.02 33.27, 168.24 45.43 C175.47 57.59, 181 71.93, 185.49 87.44 C189.97 102.94, 194.02 121.59, 195.14 138.46 C196.27 155.33, 194.48 172.75, 192.25 188.65 C190.03 204.56, 187.05 219.45, 181.81 233.88 C176.56 248.3, 168.74 264.11, 160.78 275.21 C152.83 286.3, 144.16 294.39, 134.08 300.44 C124 306.49, 111.4 311.3, 100.32 311.5 C89.24 311.7, 77.79 307.13, 67.6 301.65 C57.41 296.16, 47.58 287.97, 39.18 278.57 C30.78 269.17, 22.99 258.57, 17.18 245.22 C11.36 231.88, 7.22 215.08, 4.29 198.51 C1.36 181.94, -1.1 162.33, -0.42 145.79 C0.27 129.25, 2.74 117.79, 8.41 99.27 C14.07 80.76, 26.64 47.05, 33.58 34.71 C40.53 22.37, 48.71 23.27, 50.1 25.23 M105.53 -2.48 C115.56 -4.34, 125.43 4.55, 134.72 11.71 C144.01 18.87, 153.55 29.44, 161.29 40.5 C169.03 51.57, 176.01 63.8, 181.16 78.11 C186.31 92.43, 190.25 109.85, 192.19 126.4 C194.14 142.95, 194.26 160.3, 192.84 177.41 C191.41 194.52, 188.16 214, 183.63 229.06 C179.1 244.13, 173.62 256.6, 165.65 267.81 C157.68 279.01, 145.24 289.27, 135.78 296.3 C126.33 303.34, 118.71 308.29, 108.91 310 C99.12 311.71, 87.97 310.54, 77.01 306.55 C66.06 302.56, 52.23 294.8, 43.18 286.07 C34.13 277.35, 29.05 266.89, 22.7 254.2 C16.34 241.52, 9.32 225.59, 5.05 209.96 C0.78 194.33, -2.62 177.36, -2.93 160.43 C-3.24 143.49, -0.75 124.99, 3.19 108.35 C7.13 91.72, 13.85 74.06, 20.7 60.63 C27.56 47.21, 35.49 37.48, 44.31 27.82 C53.13 18.16, 63.37 7.01, 73.64 2.68 C83.91 -1.64, 101.47 1.29, 105.95 1.89 C110.44 2.5, 100.68 3.89, 100.57 6.32" stroke="#1e1e1e" stroke-width="2" fill="none"></path></g><g stroke-linecap="round"><g transform="translate(59.768092178485404 36.74143223148508) rotate(0 -4.693327365133769 -6.813573553666686)"><path d="M-0.17 -1.03 C-1.58 -3.13, -7.04 -10.74, -8.47 -13.13 M-1.72 1.04 C-3.25 -1.31, -7.93 -12.06, -9.21 -14.67" stroke="#1e1e1e" stroke-width="2" fill="none"></path></g></g><mask></mask><g stroke-linecap="round"><g transform="translate(292.0671114161919 37.89145159418149) rotate(0 -4.039296843947568 -6.751892255230132)"><path d="M-0.38 1.11 C-1.95 -1.1, -7.31 -10.72, -8.78 -13.09 M1.62 0.65 C-0.16 -1.88, -7.73 -12.03, -9.7 -14.61" stroke="#1e1e1e" stroke-width="2" fill="none"></path></g></g><mask></mask><g stroke-linecap="round"><g transform="translate(76.98254776271392 29.818786475736943) rotate(0 -2.7815200679259533 -7.491937676837836)"><path d="M0.69 0.03 C-0.12 -2.51, -4.64 -12.75, -5.69 -15.01 M-0.41 -1 C-1.24 -3.43, -5.33 -11.48, -6.25 -13.91" stroke="#1e1e1e" stroke-width="2" fill="none"></path></g></g><mask></mask><g stroke-linecap="round"><g transform="translate(309.2815670004202 30.968805838433354) rotate(0 -3.9282479417579452 -6.739634555123871)"><path d="M0.07 1.14 C-1 -1.23, -5.65 -10.6, -6.78 -13.08 M-1.36 0.69 C-2.58 -1.47, -6.87 -11.87, -7.92 -14.62" stroke="#1e1e1e" stroke-width="2" fill="none"></path></g></g><mask></mask><g stroke-linecap="round"><g transform="translate(96.03692549623861 25.777259549331575) rotate(0 -1.1781625294803462 -7.8541725079313665)"><path d="M0.62 -0.07 C0.32 -2.52, -1.5 -11.31, -1.95 -13.95 M-0.51 -1.16 C-0.98 -3.99, -2.56 -13.3, -2.98 -15.64" stroke="#1e1e1e" stroke-width="2" fill="none"></path></g></g><mask></mask><g stroke-linecap="round"><g transform="translate(328.33594473394487 26.927278912027987) rotate(0 -0.806421933278898 -7.533503310575043)"><path d="M-0.36 1.11 C-0.73 -1.46, -1.96 -11.69, -2.13 -14.31 M1.64 0.65 C1.08 -1.77, -2.66 -13.88, -3.26 -16.18" stroke="#1e1e1e" stroke-width="2" fill="none"></path></g></g><mask></mask><g stroke-linecap="round"><g transform="translate(111.54081640864115 23.33862383102803) rotate(0 1.673985299518563 -6.853370051820718)"><path d="M-0.28 -0.37 C0.4 -2.31, 3.12 -9.76, 3.62 -11.7 M1.78 -1.61 C2.35 -3.86, 2.83 -11.27, 2.81 -13.34" stroke="#1e1e1e" stroke-width="2" fill="none"></path></g></g><mask></mask><g stroke-linecap="round"><g transform="translate(343.83983564634764 24.488643193724442) rotate(0 1.7060555585235306 -6.979752779080513)"><path d="M-0.34 0.48 C0.35 -1.77, 3.17 -10.19, 3.75 -12.42 M1.68 -0.31 C2.28 -2.44, 2.9 -12.54, 3.01 -14.44" stroke="#1e1e1e" stroke-width="2" fill="none"></path></g></g><mask></mask><g stroke-linecap="round"><g transform="translate(128.36488610655692 26.344330229726665) rotate(0 2.987597131495022 -6.837553882439636)"><path d="M-0.04 0.09 C1.02 -2.02, 6.2 -9.83, 7.5 -11.98 M-1.52 -0.91 C-0.64 -3.43, 5.45 -11.98, 6.96 -13.76" stroke="#1e1e1e" stroke-width="2" fill="none"></path></g></g><mask></mask><g stroke-linecap="round"><g transform="translate(360.66390534426364 27.494349592423077) rotate(0 2.8355538108930887 -6.357344811958228)"><path d="M0.39 0.2 C1.53 -2.03, 5.33 -10.76, 6.54 -12.91 M-0.87 -0.74 C0.13 -2.84, 4.12 -9.74, 5.49 -11.53" stroke="#1e1e1e" stroke-width="2" fill="none"></path></g></g><mask></mask><g stroke-linecap="round"><g transform="translate(143.50654883468133 29.3500366284253) rotate(0 7.686385025662275 -5.972278388563211)"><path d="M-0.42 -1.05 C2.02 -3.33, 10.86 -11.14, 13.5 -12.96 M1.56 1.02 C4.49 -1.18, 13.51 -9.24, 15.79 -11.76" stroke="#1e1e1e" stroke-width="2" fill="none"></path></g></g><mask></mask><g stroke-linecap="round"><g transform="translate(379.36845432408154 36.52311416991938) rotate(0 3.5366614885081162 -7.956399214362136)"><path d="M-0.19 -0.29 C1.22 -2.93, 7.32 -13.09, 8.82 -15.62 M-1.75 -1.49 C-0.45 -3.95, 6.64 -12.03, 8.35 -14.14" stroke="#1e1e1e" stroke-width="2" fill="none"></path></g></g><mask></mask><g stroke-linecap="round"><g transform="translate(163.27483072973246 42.27457414282935) rotate(0 7.4626818674905735 -7.180478707357338)"><path d="M-0.25 -0.04 C2.08 -2.43, 12.85 -12.25, 15.17 -14.32 M1.82 -1.11 C3.97 -3.36, 12.89 -11.02, 14.68 -13.19" stroke="#1e1e1e" stroke-width="2" fill="none"></path></g></g><mask></mask><g stroke-linecap="round"><g transform="translate(392.746106598805 46.25233687415971) rotate(0 7.5639406744960525 -6.786661918117716)"><path d="M0.91 -0.1 C3.48 -2.3, 12.83 -11.37, 15.2 -13.47 M-0.07 -1.2 C2.43 -3.17, 12.24 -9.68, 14.72 -11.9" stroke="#1e1e1e" stroke-width="2" fill="none"></path></g></g><mask></mask><g stroke-linecap="round" transform="translate(55.47285687893827 160.66233777186653) rotate(0 42.71733303675319 59.83977021528233)"><path d="M68.04 12.29 C73.99 17.37, 80.1 26.49, 83.21 35.17 C86.32 43.84, 87.37 54.52, 86.68 64.35 C85.99 74.19, 83.4 85.66, 79.07 94.17 C74.75 102.68, 67.71 111.04, 60.73 115.42 C53.76 119.8, 44.33 121.44, 37.24 120.43 C30.15 119.43, 24.11 115.19, 18.2 109.38 C12.29 103.56, 4.61 95.18, 1.79 85.52 C-1.02 75.86, -0.1 61.32, 1.3 51.4 C2.69 41.48, 6.08 33.99, 10.19 26 C14.3 18.02, 19.53 7.47, 25.96 3.49 C32.38 -0.49, 39.35 -4.46, 48.74 2.11 C58.14 8.68, 76.57 29.74, 82.34 42.9 C88.11 56.06, 84.11 80.56, 83.37 81.07 M22.16 8.09 C27.61 3.06, 35.65 -0.71, 42.68 -0.96 C49.71 -1.21, 57.98 1.3, 64.34 6.58 C70.69 11.85, 77.2 21.55, 80.81 30.67 C84.42 39.8, 86.22 51.06, 86 61.33 C85.77 71.59, 83.42 83.45, 79.46 92.28 C75.49 101.1, 68.68 110.1, 62.2 114.28 C55.72 118.45, 47.52 118.5, 40.57 117.32 C33.62 116.14, 26.53 112.07, 20.49 107.19 C14.45 102.32, 7.28 96.13, 4.33 88.09 C1.37 80.06, 2.13 68.65, 2.77 58.99 C3.4 49.32, 4.35 38.96, 8.16 30.11 C11.96 21.25, 23.53 9.47, 25.6 5.85 C27.67 2.23, 21.03 7.1, 20.59 8.38" stroke="none" stroke-width="0" fill="#1e1e1e"></path><path d="M41.29 0.41 C48.19 -0.53, 59.54 4.35, 65.9 9.34 C72.25 14.32, 75.88 22.1, 79.4 30.32 C82.93 38.54, 86.73 48.75, 87.05 58.64 C87.37 68.53, 85.09 80.78, 81.31 89.63 C77.52 98.48, 70.61 106.41, 64.33 111.75 C58.04 117.09, 50.84 121.49, 43.6 121.65 C36.36 121.81, 27.03 118.24, 20.89 112.71 C14.74 107.18, 10.04 97.09, 6.71 88.49 C3.39 79.9, 0.78 70.77, 0.95 61.12 C1.11 51.48, 4.36 39.2, 7.72 30.63 C11.08 22.07, 14.64 14.99, 21.09 9.74 C27.54 4.48, 41.4 0.54, 46.44 -0.91 C51.49 -2.37, 51.32 -0.37, 51.37 1.03 M48.14 3.46 C55.19 4.31, 67.59 6.66, 72.97 13.24 C78.36 19.83, 78.34 33.03, 80.45 42.97 C82.55 52.91, 86.99 63.51, 85.6 72.9 C84.21 82.3, 76.91 91.67, 72.12 99.34 C67.32 107.01, 62.77 116.19, 56.82 118.92 C50.87 121.66, 43.46 118.13, 36.42 115.76 C29.37 113.39, 20.35 110.56, 14.55 104.72 C8.76 98.87, 4.09 90.19, 1.64 80.7 C-0.8 71.2, -1.47 57.81, -0.13 47.75 C1.21 37.68, 4.97 27.74, 9.68 20.3 C14.38 12.85, 21.24 5.75, 28.09 3.05 C34.95 0.35, 46.84 4.05, 50.81 4.08 C54.78 4.11, 52.38 2.6, 51.89 3.22" stroke="#1e1e1e" stroke-width="1" fill="none"></path></g><g stroke-linecap="round" transform="translate(292.4297327348222 166.8562775408932) rotate(0 42.71733303675319 59.83977021528233)"><path d="M13.79 17.17 C18.35 9.38, 26.04 2.85, 32.99 0.14 C39.94 -2.56, 48.73 -2.06, 55.49 0.95 C62.26 3.95, 68.99 10.79, 73.58 18.17 C78.18 25.55, 81.21 35.52, 83.07 45.22 C84.93 54.91, 86.72 66.62, 84.75 76.34 C82.77 86.06, 76.17 96.98, 71.21 103.52 C66.25 110.07, 61.23 113, 54.99 115.61 C48.75 118.23, 40.75 121.7, 33.77 119.22 C26.79 116.74, 18.25 107.72, 13.11 100.74 C7.96 93.76, 5.08 86.66, 2.91 77.33 C0.73 67.99, -5.69 57.39, 0.09 44.72 C5.86 32.05, 27.52 7.2, 37.55 1.29 C47.58 -4.63, 60.54 8.39, 60.25 9.24 M20.09 6.35 C25.64 0.3, 34.68 -3.02, 42.17 -2.92 C49.65 -2.83, 58.57 1.49, 65 6.92 C71.44 12.35, 77.24 20.63, 80.78 29.68 C84.32 38.73, 86.51 50.81, 86.24 61.22 C85.97 71.63, 83 84, 79.16 92.13 C75.31 100.26, 69.24 105.92, 63.16 110.01 C57.08 114.11, 49.84 116.39, 42.66 116.69 C35.49 117, 25.92 116.19, 20.14 111.84 C14.36 107.5, 11.11 99.08, 7.98 90.63 C4.85 82.19, 1.27 71.61, 1.38 61.17 C1.49 50.73, 5.67 36.85, 8.64 28 C11.62 19.14, 17.25 11.05, 19.22 8.05 C21.19 5.04, 19.35 9.21, 20.47 9.97" stroke="none" stroke-width="0" fill="#1e1e1e"></path><path d="M79.53 27.15 C84.07 34.42, 84.3 45.81, 84.85 55.3 C85.41 64.79, 85.56 75.18, 82.85 84.09 C80.14 93, 74.65 102.85, 68.59 108.73 C62.53 114.62, 53.69 118.21, 46.5 119.39 C39.3 120.56, 31.98 119.86, 25.44 115.78 C18.9 111.7, 11.28 103.61, 7.25 94.9 C3.22 86.19, 1.61 73.39, 1.26 63.52 C0.91 53.65, 1.95 44.34, 5.14 35.68 C8.34 27.01, 14.81 17.13, 20.44 11.53 C26.07 5.94, 32.38 3.27, 38.92 2.1 C45.47 0.93, 52.17 -4.08, 59.71 4.52 C67.24 13.12, 80.81 39.99, 84.14 53.68 C87.47 67.38, 80.12 86.26, 79.68 86.68 M33.89 0.55 C40.28 -2.69, 44.46 1.51, 51.13 4.61 C57.8 7.71, 68.9 12.48, 73.91 19.15 C78.91 25.81, 79.46 34.81, 81.17 44.59 C82.89 54.38, 85.27 68.73, 84.21 77.86 C83.14 86.99, 79.89 92.78, 74.79 99.37 C69.7 105.97, 60.94 114.12, 53.63 117.4 C46.33 120.69, 37.97 121.71, 30.96 119.06 C23.95 116.41, 16.62 108.84, 11.56 101.5 C6.51 94.16, 2.43 84.61, 0.62 75.04 C-1.19 65.48, -1.26 53.22, 0.71 44.12 C2.68 35.02, 7.08 27.32, 12.44 20.46 C17.79 13.6, 29.96 5.71, 32.84 2.96 C35.72 0.22, 29.4 2.99, 29.7 3.99" stroke="#1e1e1e" stroke-width="1" fill="none"></path></g><g stroke-linecap="round" transform="translate(104.75266764446496 187.64890081013095) rotate(0 8.213301794254448 9.973295035880426)"><path d="M10.04 0.79 C11.71 1.28, 13.84 2.9, 14.96 4.32 C16.08 5.75, 16.83 7.26, 16.75 9.35 C16.66 11.44, 15.55 15.18, 14.46 16.88 C13.37 18.58, 11.83 19.44, 10.21 19.55 C8.59 19.67, 6.21 18.69, 4.74 17.55 C3.27 16.41, 2.03 14.5, 1.4 12.72 C0.76 10.93, 0.54 8.64, 0.94 6.82 C1.34 5, 1.95 2.69, 3.8 1.81 C5.64 0.93, 10.59 1.33, 12 1.54 C13.42 1.75, 12.33 3.21, 12.3 3.09 M10.84 2.2 C12.4 2.81, 16.25 3.21, 17.13 5.2 C18.01 7.19, 16.82 12.13, 16.13 14.12 C15.45 16.11, 14.33 16.3, 13.02 17.14 C11.7 17.98, 10.08 19.34, 8.23 19.14 C6.38 18.94, 3.38 17.27, 1.93 15.93 C0.48 14.59, -0.28 13.19, -0.49 11.09 C-0.7 8.99, -0.36 5.41, 0.67 3.36 C1.71 1.3, 3.82 -0.72, 5.72 -1.24 C7.63 -1.76, 11.01 -0.05, 12.09 0.26 C13.18 0.57, 12.27 0.33, 12.26 0.63" stroke="none" stroke-width="0" fill="#ffffff"></path><path d="M11.28 -0.42 C13.1 -0.03, 15 2.25, 15.89 4.15 C16.78 6.04, 16.87 8.62, 16.64 10.95 C16.41 13.28, 15.84 16.53, 14.51 18.13 C13.19 19.73, 10.44 20.64, 8.68 20.55 C6.92 20.46, 5.29 18.81, 3.96 17.59 C2.63 16.38, 1.09 15.15, 0.72 13.24 C0.35 11.33, 1.1 8.05, 1.75 6.14 C2.4 4.24, 2.97 2.75, 4.6 1.83 C6.24 0.91, 10.12 0.61, 11.55 0.63 C12.98 0.66, 13.16 1.63, 13.17 1.98 M7.62 1.22 C9.44 1.23, 13.93 0.71, 15.17 2.25 C16.42 3.79, 15.03 8.09, 15.06 10.47 C15.1 12.86, 16.41 15.02, 15.38 16.56 C14.34 18.11, 10.62 19.12, 8.86 19.73 C7.09 20.34, 5.99 21.39, 4.79 20.22 C3.6 19.04, 2.44 14.87, 1.68 12.7 C0.93 10.53, -0.01 8.89, 0.25 7.18 C0.5 5.47, 1.85 3.71, 3.23 2.47 C4.61 1.23, 7.65 0.13, 8.54 -0.26 C9.43 -0.65, 8.57 -0.08, 8.58 0.12" stroke="transparent" stroke-width="1" fill="none"></path></g><g stroke-linecap="round" transform="translate(341.4912051480587 193.84284057915738) rotate(0 8.213301794254448 9.973295035880426)"><path d="M9.81 -0.73 C11.35 -0.64, 13.82 1.31, 15 3.28 C16.19 5.24, 17.06 8.68, 16.93 11.08 C16.8 13.48, 15.45 16.05, 14.21 17.67 C12.98 19.29, 11.37 20.61, 9.52 20.79 C7.67 20.96, 4.57 20.11, 3.11 18.72 C1.65 17.34, 1.18 14.62, 0.77 12.49 C0.37 10.36, 0.2 7.68, 0.66 5.95 C1.13 4.21, 1.81 2.9, 3.59 2.07 C5.36 1.25, 9.46 0.95, 11.3 1 C13.14 1.05, 14.52 2.26, 14.62 2.36 M10.32 -1.43 C12 -1.67, 14.62 -0.11, 15.48 1.48 C16.34 3.08, 15.39 5.84, 15.48 8.13 C15.56 10.42, 16.81 13.44, 16 15.21 C15.19 16.97, 12.67 18.17, 10.6 18.73 C8.53 19.28, 5.23 19.21, 3.57 18.54 C1.91 17.87, 1.07 16.56, 0.63 14.72 C0.19 12.87, 0.56 9.82, 0.92 7.48 C1.28 5.15, 1.46 1.88, 2.81 0.72 C4.16 -0.45, 8.17 0.48, 9.01 0.49 C9.86 0.5, 7.75 0.81, 7.87 0.77" stroke="none" stroke-width="0" fill="#ffffff"></path><path d="M5.76 0.5 C7.38 -0.62, 9.7 -1.12, 11.42 -0.53 C13.14 0.07, 15.19 2.05, 16.08 4.08 C16.97 6.12, 17.21 9.37, 16.75 11.67 C16.3 13.96, 14.65 16.38, 13.35 17.87 C12.05 19.35, 10.79 20.43, 8.95 20.56 C7.11 20.7, 3.68 20.24, 2.31 18.67 C0.94 17.11, 0.79 13.26, 0.72 11.17 C0.65 9.08, 0.84 8.11, 1.89 6.14 C2.93 4.17, 5.77 0.2, 7 -0.64 C8.22 -1.48, 9.36 0.78, 9.23 1.09 M12.3 -0.04 C13.8 0.66, 14.63 2.3, 15.21 4.41 C15.78 6.53, 16.25 10.49, 15.77 12.63 C15.29 14.77, 13.73 16.26, 12.32 17.23 C10.91 18.21, 8.87 18.58, 7.3 18.48 C5.72 18.37, 4.01 17.87, 2.86 16.6 C1.71 15.32, 0.61 12.77, 0.4 10.81 C0.19 8.85, 0.74 6.45, 1.59 4.84 C2.45 3.23, 3.94 2.04, 5.53 1.15 C7.12 0.27, 10.13 -0.18, 11.13 -0.47 C12.14 -0.77, 11.64 -1.04, 11.56 -0.63" stroke="transparent" stroke-width="1" fill="none"></path></g></svg>
