<?xml version="1.0" encoding="UTF-8" standalone="no"?>
<!-- Created with Inkscape (http://www.inkscape.org/) -->

<svg
   width="105.61579mm"
   height="41.264126mm"
   viewBox="0 0 105.61579 41.264127"
   version="1.1"
   id="svg295"
   sodipodi:docname="logo_readme.svg"
   inkscape:version="1.2.2 (b0a8486541, 2022-12-01)"
   xmlns:inkscape="http://www.inkscape.org/namespaces/inkscape"
   xmlns:sodipodi="http://sodipodi.sourceforge.net/DTD/sodipodi-0.dtd"
   xmlns:xlink="http://www.w3.org/1999/xlink"
   xmlns="http://www.w3.org/2000/svg"
   xmlns:svg="http://www.w3.org/2000/svg">
  <sodipodi:namedview
     id="namedview297"
     pagecolor="#ffffff"
     bordercolor="#cccccc"
     borderopacity="1"
     inkscape:pageshadow="0"
     inkscape:pageopacity="1"
     inkscape:pagecheckerboard="0"
     inkscape:document-units="mm"
     showgrid="false"
     fit-margin-top="1.3"
     fit-margin-left="1.3"
     fit-margin-right="1.3"
     fit-margin-bottom="1.3"
     inkscape:zoom="1.8116735"
     inkscape:cx="59.88938"
     inkscape:cy="-40.570225"
     inkscape:window-width="2560"
     inkscape:window-height="1276"
     inkscape:window-x="0"
     inkscape:window-y="32"
     inkscape:window-maximized="1"
     inkscape:current-layer="text18"
     lock-margins="true"
     inkscape:showpageshadow="2"
     inkscape:deskcolor="#d1d1d1" />
  <defs
     id="defs292">
    <linearGradient
       id="linearGradient27719"
       inkscape:collect="always">
      <stop
         style="stop-color:#9dd5f2;stop-opacity:1"
         offset="0"
         id="stop27715" />
      <stop
         style="stop-color:#a7ddf8;stop-opacity:1"
         offset="1"
         id="stop27717" />
    </linearGradient>
    <linearGradient
       inkscape:collect="always"
       xlink:href="#linearGradient4"
       id="linearGradient108"
       x1="93.12468"
       y1="-49.204983"
       x2="133.08565"
       y2="-73.634323"
       gradientUnits="userSpaceOnUse"
       gradientTransform="matrix(0.28932422,0,0,0.28932422,8.9946685,158.36121)" />
    <linearGradient
       id="linearGradient4"
       inkscape:collect="always">
      <stop
         style="stop-color:#007eca;stop-opacity:1;"
         offset="0"
         id="stop3" />
      <stop
         style="stop-color:#7acbf4;stop-opacity:1;"
         offset="1"
         id="stop4" />
    </linearGradient>
    <linearGradient
       inkscape:collect="always"
       xlink:href="#linearGradient2"
       id="linearGradient112"
       x1="141.91331"
       y1="-137.05867"
       x2="189.86954"
       y2="-69.134804"
       gradientUnits="userSpaceOnUse"
       gradientTransform="matrix(0.28932422,0,0,0.28932422,8.9946685,158.36121)" />
    <linearGradient
       id="linearGradient2"
       inkscape:collect="always">
      <stop
         style="stop-color:#79cbf4;stop-opacity:1;"
         offset="0"
         id="stop1" />
      <stop
         style="stop-color:#006ab3;stop-opacity:1;"
         offset="1"
         id="stop2" />
    </linearGradient>
    <linearGradient
       inkscape:collect="always"
       xlink:href="#linearGradient107"
       id="linearGradient110"
       x1="85.008934"
       y1="-47.515926"
       x2="43.822216"
       y2="-69.716125"
       gradientUnits="userSpaceOnUse"
       gradientTransform="matrix(0.28932422,0,0,0.28932422,8.9946685,158.36121)" />
    <linearGradient
       id="linearGradient107"
       inkscape:collect="always">
      <stop
         style="stop-color:#007eca;stop-opacity:1;"
         offset="0"
         id="stop107" />
      <stop
         style="stop-color:#00567e;stop-opacity:1;"
         offset="1"
         id="stop108" />
    </linearGradient>
    <filter
       inkscape:collect="always"
       style="color-interpolation-filters:sRGB"
       id="filter2047"
       x="-0.056569016"
       y="-0.055345372"
       width="1.113138"
       height="1.1106907">
      <feGaussianBlur
         inkscape:collect="always"
         stdDeviation="0.80275894"
         id="feGaussianBlur2049" />
    </filter>
    <linearGradient
       inkscape:collect="always"
       xlink:href="#linearGradient27719"
       id="linearGradient23899"
       x1="80.604645"
       y1="109.07618"
       x2="78.348564"
       y2="107.68114"
       gradientUnits="userSpaceOnUse"
       gradientTransform="matrix(1.025297,0.09585017,0.18179962,1.0408094,7.9302169e-7,-2.1990208e-8)" />
    <filter
       inkscape:collect="always"
       style="color-interpolation-filters:sRGB"
       id="filter1373"
       x="-0.029555175"
       y="-0.065883421"
       width="1.0591104"
       height="1.1317668">
      <feGaussianBlur
         inkscape:collect="always"
         stdDeviation="0.60732983"
         id="feGaussianBlur1375" />
    </filter>
  </defs>
  <g
     inkscape:label="Layer 1"
     inkscape:groupmode="layer"
     id="layer1"
     transform="translate(-23.537455,-114.00309)">
    <g
       id="g14755"
       transform="translate(0,1.0190564)">
      <path
         id="path99-2"
         style="opacity:0.472566;mix-blend-mode:normal;fill:#000000;fill-opacity:1;stroke:none;stroke-width:0.12095;stroke-linejoin:round;stroke-dasharray:none;stroke-opacity:0.658291;paint-order:markers fill stroke;filter:url(#filter2047)"
         d="m 51.544444,116.21086 c 0,0 -7.292464,0.003 -9.073866,5.2e-4 -1.465747,-0.002 -2.916217,-2.7e-4 -4.380611,0.0103 0,0 -5.16e-4,0 -5.16e-4,0 -2.89e-4,7e-5 -7.44e-4,4.5e-4 -10e-4,5.1e-4 -0.131818,0.005 -0.264332,0.007 -0.393774,0.0196 -0.2012,0.0203 -0.399103,0.0503 -0.593762,0.0899 -0.194659,0.0396 -0.385953,0.0883 -0.57309,0.14624 -0.187142,0.0579 -0.370165,0.12525 -0.548804,0.20051 -0.178636,0.0753 -0.35278,0.15851 -0.521933,0.25011 -0.169151,0.0916 -0.33379,0.19117 -0.492477,0.29817 -0.158686,0.107 -0.311647,0.22175 -0.458885,0.34313 -0.147236,0.12141 -0.288425,0.24967 -0.42323,0.38448 -0.09489,0.0949 -0.182484,0.19704 -0.270786,0.29817 0,0 -5.16e-4,0 -5.16e-4,0 v 5.2e-4 c -0.05306,0.0421 -0.110561,0.0783 -0.162779,0.12144 -0.221964,0.18319 -0.432157,0.37974 -0.638204,0.58032 -0.03383,0.0329 -0.07152,0.0617 -0.104905,0.0951 -0.03209,0.0321 -0.06225,0.0646 -0.09147,0.0977 -1.2319,1.31161 -2.839731,3.39731 -4.254521,5.08548 -0.01686,0.0165 -0.03552,0.0309 -0.05219,0.0475 -0.134787,0.13479 -0.263096,0.27601 -0.384471,0.42323 -0.121378,0.14721 -0.236149,0.30073 -0.343133,0.4594 -0.106982,0.15867 -0.206565,0.32282 -0.298172,0.49196 -0.09161,0.16914 -0.174866,0.3433 -0.250113,0.52193 -0.07525,0.17862 -0.142079,0.36168 -0.199988,0.5488 -0.05791,0.18713 -0.107175,0.37845 -0.146762,0.5731 -0.03959,0.19465 -0.06963,0.39257 -0.08992,0.59376 -0.02029,0.20119 -0.03049,0.40561 -0.03049,0.61236 v 16.54783 c 0,0.20676 0.01021,0.41118 0.03049,0.61237 0.02028,0.2012 0.05033,0.3991 0.08992,0.59376 0.03959,0.19466 0.08885,0.38595 0.146762,0.57309 0.05791,0.18714 0.12474,0.37016 0.199988,0.54881 0.07525,0.17863 0.158506,0.35277 0.250113,0.52193 0.09161,0.16915 0.19119,0.33328 0.298172,0.49196 0.106984,0.15869 0.221755,0.31216 0.343133,0.4594 0.121375,0.14723 0.249684,0.28842 0.384471,0.42323 0.134792,0.1348 0.276011,0.26308 0.42323,0.38447 0.147222,0.12139 0.300218,0.23613 0.458888,0.34314 0.158668,0.107 0.322821,0.20603 0.491959,0.29765 0.16914,0.0916 0.34331,0.17537 0.521933,0.25063 0.178625,0.0753 0.361674,0.14207 0.548804,0.19999 0.187129,0.0579 0.378441,0.10717 0.57309,0.14676 0.194654,0.0396 0.39257,0.0696 0.593762,0.0899 0.201194,0.0203 0.405614,0.031 0.612367,0.031 h 5.382102 c 1.5e-5,2.2e-4 -1.9e-5,3e-4 0,5.2e-4 h 9.182383 0.608748 c 0.115731,-0.008 0.231603,-0.0147 0.346233,-0.0264 0.171961,-0.0174 0.342794,-0.0388 0.512115,-0.0646 0.169328,-0.0259 0.337364,-0.0558 0.503843,-0.0899 0.166481,-0.0341 0.331123,-0.0722 0.494543,-0.1142 0.16342,-0.042 0.32561,-0.0882 0.485759,-0.13798 0.160161,-0.0498 0.318762,-0.10337 0.475422,-0.16071 0.156671,-0.0573 0.311632,-0.11877 0.464571,-0.18345 0.305933,-0.12937 0.604153,-0.27305 0.894004,-0.43047 0.28983,-0.15743 0.570783,-0.32834 0.842843,-0.51211 0.272061,-0.18377 0.534988,-0.38019 0.787548,-0.5886 0.25255,-0.20841 0.495232,-0.42856 0.72657,-0.65991 10e-4,-0.001 0.0016,-0.002 0.0026,-0.004 0.2017,-0.2019 0.391853,-0.41543 0.576191,-0.63355 0.0259,-0.0307 0.05512,-0.0584 0.08062,-0.0894 0.0514,-0.0623 0.101994,-0.12511 0.151929,-0.18862 l -0.0031,0.005 0.0248,-0.0315 3.792016,-4.14497 c 0.005,-0.005 0.01092,-0.009 0.01602,-0.0145 0.13479,-0.13479 0.263094,-0.27601 0.384472,-0.42323 0.121372,-0.14722 0.236154,-0.30073 0.343133,-0.4594 0.106979,-0.15867 0.206047,-0.32283 0.297656,-0.49196 0.0916,-0.16914 0.175382,-0.34331 0.250632,-0.52193 0.0752,-0.17864 0.142076,-0.36168 0.199985,-0.54881 0.0579,-0.18713 0.107172,-0.37792 0.146762,-0.57257 0.0396,-0.19466 0.06962,-0.39308 0.08992,-0.59428 0.0203,-0.20119 0.03049,-0.40562 0.03049,-0.61237 v -16.54815 c 0,-0.20674 -0.01029,-0.41116 -0.03049,-0.61236 -0.0203,-0.2012 -0.05032,-0.3991 -0.08992,-0.59376 -0.0396,-0.19466 -0.08889,-0.38595 -0.146762,-0.57309 -0.0579,-0.18715 -0.124738,-0.37018 -0.199985,-0.54881 -0.0752,-0.17864 -0.159033,-0.35278 -0.250632,-0.52193 -0.0916,-0.16916 -0.190677,-0.33327 -0.297656,-0.49196 -0.106979,-0.15868 -0.221761,-0.31216 -0.343133,-0.4594 -0.121378,-0.14724 -0.249682,-0.28842 -0.384472,-0.42323 -0.134789,-0.13481 -0.27601,-0.26307 -0.42323,-0.38448 -0.147219,-0.12138 -0.300217,-0.23613 -0.458888,-0.34313 -0.158668,-0.107 -0.322818,-0.20602 -0.491958,-0.29765 -0.16914,-0.0916 -0.343302,-0.17537 -0.521933,-0.25063 -0.17862,-0.0753 -0.361672,-0.14207 -0.548801,-0.19999 -0.187122,-0.0579 -0.378434,-0.10716 -0.573093,-0.14676 -0.194651,-0.0396 -0.393089,-0.0696 -0.594278,-0.0899 -0.201192,-0.0203 -0.405101,-0.031 -0.611849,-0.031 l -3.309877,5.2e-4 -1.515152,6.37791 c 0,0 0.306782,0.0388 0.456303,0.0692 0.194659,0.0396 0.385445,0.0888 0.572574,0.14676 0.187119,0.0579 0.370174,0.12423 0.548804,0.19948 0.178621,0.0753 0.352793,0.15903 0.521931,0.25062 0.16914,0.0916 0.33329,0.1912 0.491961,0.29818 0.15866,0.10697 0.312184,0.22176 0.459404,0.34313 0.147219,0.12138 0.288438,0.24968 0.42323,0.38447 0.134789,0.13479 0.263091,0.27601 0.384471,0.42323 0.12137,0.14722 0.235635,0.30022 0.342614,0.45889 0.106982,0.15867 0.206563,0.32282 0.298175,0.49196 0.0916,0.16914 0.175379,0.3433 0.250629,0.52193 0.0752,0.17862 0.142079,0.36168 0.199988,0.5488 0.0579,0.18713 0.106654,0.37845 0.146246,0.5731 0.0396,0.19465 0.07013,0.39257 0.09043,0.59376 0.0203,0.20119 0.03049,0.40561 0.03049,0.61236 v 5.62343 0.38396 c 0.081,0.10314 0.158583,0.20843 0.235643,0.31471 0.0667,0.092 0.139946,0.1786 0.203605,0.27285 0.183782,0.27206 0.355211,0.55351 0.51263,0.84336 0.157429,0.28985 0.301106,0.58807 0.430466,0.894 0.0647,0.15297 0.125595,0.3079 0.182933,0.46457 0.0573,0.15666 0.110914,0.31528 0.160713,0.47543 0.0498,0.16015 0.09593,0.32182 0.137978,0.48524 0.042,0.16343 0.08012,0.32858 0.114205,0.49506 0.0341,0.16648 0.06402,0.33451 0.08992,0.50384 0.0259,0.16932 0.04771,0.34016 0.06511,0.51212 0.0174,0.17195 0.03037,0.34498 0.03927,0.51934 0.009,0.17436 0.01344,0.35002 0.01344,0.52659 0,0.17657 -0.0041,0.35169 -0.01344,0.52606 -0.009,0.17438 -0.02177,0.34792 -0.03927,0.51987 -0.0174,0.17196 -0.03931,0.34227 -0.06511,0.5116 -0.0259,0.16932 -0.05582,0.33737 -0.08992,0.50384 -0.0341,0.16649 -0.07223,0.33164 -0.114205,0.49506 -0.042,0.16342 -0.08823,0.32509 -0.137978,0.48524 -0.02496,0.0803 -0.05116,0.16035 -0.07803,0.23978 0.02679,-0.0792 0.05262,-0.15919 0.07752,-0.23926 0.0498,-0.16015 0.09592,-0.32182 0.137978,-0.48524 0.042,-0.16342 0.08013,-0.32858 0.114205,-0.49506 0.0341,-0.16648 0.06402,-0.33453 0.08992,-0.50385 0.0259,-0.16932 0.04771,-0.33964 0.06511,-0.51159 0.0174,-0.17195 0.03037,-0.3455 0.03927,-0.51987 0.009,-0.17436 0.01344,-0.3495 0.01344,-0.52607 0,-0.17657 -0.0041,-0.35222 -0.01344,-0.52658 -0.009,-0.17437 -0.02177,-0.34791 -0.03927,-0.51986 -0.0174,-0.17195 -0.03931,-0.3428 -0.06511,-0.51212 -0.0259,-0.16932 -0.05592,-0.33684 -0.08992,-0.50333 -0.034,-0.16646 -0.07214,-0.33163 -0.114205,-0.49505 -0.042,-0.16342 -0.08822,-0.3251 -0.137978,-0.48525 -0.0498,-0.16015 -0.103372,-0.31876 -0.160713,-0.47542 -0.0573,-0.15667 -0.118255,-0.31161 -0.182935,-0.46457 -0.12936,-0.30593 -0.273045,-0.60415 -0.430464,-0.894 -0.157419,-0.28985 -0.328851,-0.5713 -0.51263,-0.84336 -0.0637,-0.0942 -0.136925,-0.18088 -0.203605,-0.27286 -0.0771,-0.10627 -0.154644,-0.21208 -0.235646,-0.31522 -0.0512,-0.0653 -0.09658,-0.13551 -0.149344,-0.19947 -0.20841,-0.25255 -0.428567,-0.49473 -0.659908,-0.72606 -0.231341,-0.23133 -0.474012,-0.45149 -0.72657,-0.6599 -0.25256,-0.20841 -0.514971,-0.40535 -0.787032,-0.58911 -0.27206,-0.18378 -0.55355,-0.3547 -0.843359,-0.51212 -0.289851,-0.15743 -0.588074,-0.30109 -0.894003,-0.43046 -0.15293,-0.0647 -0.307901,-0.12559 -0.464572,-0.18294 -0.15666,-0.0573 -0.315272,-0.11092 -0.475422,-0.16071 -0.158181,-0.0492 -0.318177,-0.0948 -0.479557,-0.13643 -0.002,-5.8e-4 -0.0037,-0.001 -0.0057,-0.002 -0.0789,-0.0203 -0.159173,-0.0364 -0.238744,-0.0548 -0.0854,-0.0198 -0.170156,-0.0412 -0.256315,-0.0589 -0.166481,-0.0341 -0.334515,-0.0645 -0.503846,-0.0904 -0.16932,-0.0259 -0.340154,-0.0472 -0.512112,-0.0646 -0.027,-0.003 -0.05403,-0.004 -0.08113,-0.006 -0.0782,-0.007 -0.156954,-0.0126 -0.235643,-0.0181 l -2.915068,-0.0336 H 40.556484 40.22472 c -0.0862,-0.003 -0.173085,-0.004 -0.257865,-0.0129 -0.101629,-0.0103 -0.200898,-0.0285 -0.300239,-0.046 -0.0368,-0.007 -0.07467,-0.01 -0.111104,-0.017 -0.13489,-0.0276 -0.267623,-0.062 -0.397393,-0.10232 -0.129778,-0.0404 -0.256874,-0.087 -0.380855,-0.13953 -0.12397,-0.0525 -0.244771,-0.11081 -0.362251,-0.17467 -0.11747,-0.0639 -0.231828,-0.13319 -0.342099,-0.20774 -0.110281,-0.0745 -0.216463,-0.15422 -0.318844,-0.23874 -0.102378,-0.0845 -0.200766,-0.17387 -0.294555,-0.26768 -0.09379,-0.0938 -0.183179,-0.19216 -0.267684,-0.29456 -0.08451,-0.1024 -0.164222,-0.20906 -0.238745,-0.31936 -0.07452,-0.11029 -0.143904,-0.22409 -0.20774,-0.34158 -0.06384,-0.11749 -0.1222,-0.23826 -0.174664,-0.36225 -0.05247,-0.12399 -0.09913,-0.25107 -0.139528,-0.38086 -0.0404,-0.12979 -0.07418,-0.2625 -0.101802,-0.39739 -0.02763,-0.1349 -0.04888,-0.27204 -0.06304,-0.41134 -0.01416,-0.13931 -0.02119,-0.28073 -0.02119,-0.42375 0,-0.14302 0.007,-0.28444 0.02119,-0.42375 0.01416,-0.1393 0.03541,-0.27644 0.06304,-0.41134 0.02763,-0.1349 0.06141,-0.2676 0.101802,-0.39739 0.04039,-0.12979 0.08706,-0.25687 0.139528,-0.38086 0.05247,-0.12399 0.110823,-0.24476 0.174664,-0.36225 0.06383,-0.11749 0.133226,-0.23129 0.20774,-0.34158 0.07452,-0.1103 0.154239,-0.21696 0.238745,-0.31936 0.0845,-0.1024 0.165621,-0.162 0.259416,-0.2558 0.0938,-0.0938 0.191659,-0.18315 0.294039,-0.26768 0.102381,-0.0845 0.209079,-0.16421 0.31936,-0.23875 0.110281,-0.0745 0.224102,-0.14388 0.341582,-0.20774 0.11747,-0.0638 0.238282,-0.12219 0.362252,-0.17467 0.0808,-0.0342 0.006,-0.008 0.247012,-0.0832 0.24098,-0.0754 2.739885,-0.0465 2.739885,-0.0465 h 7.523573 c 0.164388,0 0.32585,0.0114 0.486791,0.0243 0.0415,0.003 0.08433,0.002 0.125574,0.006 0.0466,0.005 0.09167,0.0154 0.137974,0.0212 0.338111,-1.43273 1.515155,-6.37894 1.515155,-6.37894 z m -20.262328,4.94957 c -0.01251,0.0186 -0.02543,0.0361 -0.03772,0.0553 0.0042,-0.006 0.0089,-0.0147 0.01292,-0.0207 0.004,-0.006 0.01873,-0.026 0.02481,-0.0346 z m -0.13126,0.21291 c -0.01591,0.0288 -0.03204,0.0572 -0.04754,0.0878 -0.07609,0.1506 -0.157506,0.29917 -0.230992,0.45165 0,0 0.113755,-0.23446 0.230992,-0.45165 0.01624,-0.0301 0.03142,-0.0591 0.04754,-0.0878 z m 8.960178,3.8871 a 1.2589042,1.2589042 0 0 0 -1.25884,1.25884 1.2589042,1.2589042 0 0 0 1.25884,1.25884 1.2589042,1.2589042 0 0 0 1.258837,-1.25884 1.2589042,1.2589042 0 0 0 -1.258837,-1.25884 z m -8.483722,7.03833 c 0.07428,0.10993 0.15217,0.21681 0.232029,0.32246 -0.07986,-0.10565 -0.157752,-0.21252 -0.232029,-0.32246 z m 0.475941,0.63614 c 0.04373,0.0552 0.08179,0.1152 0.126608,0.1695 -0.04481,-0.0543 -0.08288,-0.11428 -0.126608,-0.1695 z m 0.235646,0.28939 c 0.182115,0.21388 0.367866,0.42468 0.566372,0.62321 0.236707,0.23673 0.484709,0.46213 0.743109,0.67541 0.258397,0.21327 0.527299,0.41448 0.805635,0.60255 0.278334,0.18808 0.566478,0.36288 0.862997,0.524 0.148254,0.0806 0.298656,0.1575 0.451133,0.23099 0.152471,0.0735 0.307065,0.1436 0.463539,0.20981 0.156467,0.0662 0.314653,0.12889 0.474906,0.18759 0.160245,0.0587 0.322472,0.11336 0.486275,0.16433 0.148759,0.0463 0.299098,0.0884 0.450617,0.12815 0.0153,0.004 0.03007,0.009 0.04548,0.0129 0.0635,0.0163 0.128802,0.0292 0.192754,0.0445 0.10441,0.0248 0.208074,0.0506 0.313674,0.0723 0.17026,0.0348 0.342046,0.066 0.515215,0.0925 0.17316,0.0265 0.347642,0.0483 0.523481,0.0661 0.17585,0.0179 0.352936,0.0318 0.531236,0.0408 0.002,1.1e-4 0.0042,-1.1e-4 0.0072,0 0.004,0.005 0.0079,0.009 0.01292,0.0129 h 0.501261 0.0016 c 0.005,9e-5 0.0103,5.2e-4 0.0155,5.2e-4 0.005,0 0.0103,-2.3e-4 0.0155,-5.2e-4 h 0.0021 5.507672 1.3193 0.112654 c 0.115631,0.002 0.230669,0.006 0.343649,0.0176 0.131511,0.0133 0.261287,0.0329 0.388607,0.0589 0.12732,0.026 0.252185,0.058 0.374655,0.0961 0.122478,0.0381 0.242181,0.0823 0.359151,0.13178 0.116969,0.0494 0.231277,0.10417 0.342098,0.16433 0.11081,0.0602 0.218451,0.12562 0.322461,0.19585 0.104018,0.0702 0.204205,0.14513 0.300757,0.22479 0.0965,0.0796 0.189579,0.16429 0.278019,0.2527 0.0884,0.0884 0.172511,0.18098 0.25218,0.2775 0.0797,0.0965 0.154543,0.19676 0.224792,0.30076 0.0703,0.10399 0.135684,0.21165 0.195855,0.32246 0.0602,0.1108 0.115398,0.22463 0.164846,0.34158 0.0494,0.11696 0.09319,0.23669 0.13126,0.35915 0.0381,0.12246 0.07063,0.24787 0.09663,0.37518 0.026,0.12731 0.04561,0.25658 0.05891,0.38809 0.0133,0.13151 0.02015,0.26543 0.02015,0.40049 0,0.13504 -0.007,0.26847 -0.02015,0.39997 -0.0133,0.13151 -0.03291,0.26078 -0.05891,0.38809 -0.026,0.12731 -0.05853,0.25272 -0.09663,0.37517 -0.0381,0.12246 -0.08179,0.2422 -0.13126,0.35916 -0.0494,0.11696 -0.104666,0.23078 -0.164846,0.34158 -0.0602,0.1108 -0.125605,0.21846 -0.195855,0.32246 -0.0703,0.10399 -0.145132,0.20422 -0.224792,0.30075 -0.0797,0.0965 -0.16374,0.1896 -0.25218,0.27802 -0.0884,0.0884 -0.18147,0.17254 -0.278019,0.25219 -0.0966,0.0797 -0.196739,0.15456 -0.300757,0.22479 -0.10401,0.0702 -0.211651,0.13569 -0.322461,0.19585 -0.110821,0.0602 -0.225129,0.11489 -0.342098,0.16433 -0.11697,0.0494 -0.236673,0.0932 -0.359151,0.13126 -0.12247,0.038 -0.247335,0.0706 -0.374655,0.0966 -0.0955,0.0195 -0.162317,0.032 -0.265616,0.0486 -0.0324,0.005 -0.09004,0.009 -0.122991,0.0103 -0.1357,0.007 -0.250973,0.002 -0.386022,0.002 -0.135051,0 -0.264562,-0.005 -0.402042,-0.01 -0.032,-10e-4 -0.0562,-0.002 -0.109038,-0.006 h -0.966351 -7.434688 c -0.19594,0 -0.676444,-0.0289 -0.676444,-0.0289 v -5.2e-4 c 0,0 -0.0818,-0.0237 -0.170532,-0.0377 -0.120042,-0.0169 -0.241046,-0.0304 -0.358635,-0.0543 -0.194659,-0.0396 -0.385953,-0.0884 -0.57309,-0.14624 -0.187142,-0.0579 -0.370165,-0.12474 -0.548804,-0.19999 -0.178636,-0.0753 -0.35278,-0.15903 -0.521933,-0.25063 -0.169151,-0.0916 -0.33379,-0.19119 -0.492477,-0.29817 -0.158686,-0.10698 -0.311647,-0.22125 -0.458885,-0.34262 -0.147238,-0.12138 -0.288425,-0.2502 -0.42323,-0.38498 -0.134808,-0.1348 -0.263081,-0.27602 -0.384472,-0.42323 -0.121396,-0.14723 -0.236132,-0.30022 -0.343133,-0.45889 -0.106997,-0.15867 -0.206552,-0.32282 -0.298172,-0.49196 -0.09162,-0.16914 -0.175371,-0.3433 -0.250632,-0.52193 -0.07526,-0.17862 -0.14207,-0.36169 -0.199988,-0.54881 -0.05792,-0.18713 -0.10665,-0.37843 -0.146243,-0.57309 -0.0396,-0.19465 -0.06963,-0.39256 -0.08992,-0.59376 -0.02029,-0.20119 -0.031,-0.40562 -0.031,-0.61237 z m 15.358234,6.32622 a 1.2589042,1.2589042 0 0 0 -1.258837,1.25884 1.2589042,1.2589042 0 0 0 1.258837,1.25884 1.2589042,1.2589042 0 0 0 1.258837,-1.25884 1.2589042,1.2589042 0 0 0 -1.258837,-1.25884 z" />
      <path
         id="path1955"
         style="opacity:1;fill:#ffffff;fill-opacity:1;stroke:none;stroke-width:0.12095;stroke-linejoin:round;stroke-dasharray:none;stroke-opacity:0.658291;paint-order:markers fill stroke"
         d="m 51.015277,116.21086 c 0,0 -7.292464,0.003 -9.073866,5.2e-4 -1.465747,-0.002 -2.916217,-2.7e-4 -4.380611,0.0103 0,0 -5.16e-4,0 -5.16e-4,0 -2.89e-4,7e-5 -7.44e-4,4.5e-4 -0.001,5.1e-4 -0.131818,0.005 -0.264332,0.007 -0.393774,0.0196 -0.2012,0.0203 -0.399103,0.0503 -0.593762,0.0899 -0.194659,0.0396 -0.385953,0.0883 -0.57309,0.14624 -0.187142,0.0579 -0.370165,0.12525 -0.548804,0.20051 -0.178636,0.0753 -0.35278,0.15851 -0.521933,0.25011 -0.169151,0.0916 -0.33379,0.19117 -0.492477,0.29817 -0.158686,0.107 -0.311647,0.22175 -0.458885,0.34313 -0.147236,0.12141 -0.288425,0.24967 -0.42323,0.38448 -0.09489,0.0949 -0.182484,0.19704 -0.270786,0.29817 0,0 -5.16e-4,0 -5.16e-4,0 v 5.2e-4 c -0.05306,0.0421 -0.110561,0.0783 -0.162779,0.12144 -0.221964,0.18319 -0.432157,0.37974 -0.638204,0.58032 -0.03383,0.0329 -0.07152,0.0617 -0.104905,0.0951 -0.03209,0.0321 -0.06225,0.0646 -0.09147,0.0977 -1.2319,1.31161 -2.839731,3.39731 -4.254521,5.08548 -0.01686,0.0165 -0.03552,0.0309 -0.05219,0.0475 -0.134787,0.13479 -0.263096,0.27601 -0.384471,0.42323 -0.121378,0.14721 -0.236149,0.30073 -0.343133,0.4594 -0.106982,0.15867 -0.206565,0.32282 -0.298172,0.49196 -0.09161,0.16914 -0.174866,0.3433 -0.250113,0.52193 -0.07525,0.17862 -0.142079,0.36168 -0.199988,0.5488 -0.05791,0.18713 -0.107175,0.37845 -0.146762,0.5731 -0.03959,0.19465 -0.06963,0.39257 -0.08992,0.59376 -0.02029,0.20119 -0.03049,0.40561 -0.03049,0.61236 v 16.54783 c 0,0.20676 0.01021,0.41118 0.03049,0.61237 0.02028,0.2012 0.05033,0.3991 0.08992,0.59376 0.03959,0.19466 0.08885,0.38595 0.146762,0.57309 0.05791,0.18714 0.12474,0.37016 0.199988,0.54881 0.07525,0.17863 0.158506,0.35277 0.250113,0.52193 0.09161,0.16915 0.19119,0.33328 0.298172,0.49196 0.106984,0.15869 0.221755,0.31216 0.343133,0.4594 0.121375,0.14723 0.249684,0.28842 0.384471,0.42323 0.134792,0.1348 0.276011,0.26308 0.42323,0.38447 0.147222,0.12139 0.300218,0.23613 0.458888,0.34314 0.158668,0.107 0.322821,0.20603 0.491959,0.29765 0.16914,0.0916 0.34331,0.17537 0.521933,0.25063 0.178625,0.0753 0.361674,0.14207 0.548804,0.19999 0.187129,0.0579 0.378441,0.10717 0.57309,0.14676 0.194654,0.0396 0.39257,0.0696 0.593762,0.0899 0.201194,0.0203 0.405614,0.031 0.612367,0.031 h 5.382102 c 1.5e-5,2.2e-4 -1.9e-5,3e-4 0,5.2e-4 h 9.182383 0.608748 c 0.115731,-0.008 0.231603,-0.0147 0.346233,-0.0264 0.171961,-0.0174 0.342794,-0.0388 0.512115,-0.0646 0.169328,-0.0259 0.337364,-0.0558 0.503843,-0.0899 0.166481,-0.0341 0.331123,-0.0722 0.494543,-0.1142 0.16342,-0.042 0.32561,-0.0882 0.485759,-0.13798 0.160161,-0.0498 0.318762,-0.10337 0.475422,-0.16071 0.156671,-0.0573 0.311632,-0.11877 0.464571,-0.18345 0.305933,-0.12937 0.604153,-0.27305 0.894004,-0.43047 0.28983,-0.15743 0.570783,-0.32834 0.842843,-0.51211 0.272061,-0.18377 0.534988,-0.38019 0.787548,-0.5886 0.25255,-0.20841 0.495232,-0.42856 0.72657,-0.65991 10e-4,-0.001 0.0016,-0.002 0.0026,-0.004 0.2017,-0.2019 0.391853,-0.41543 0.576191,-0.63355 0.0259,-0.0307 0.05512,-0.0584 0.08062,-0.0894 0.0514,-0.0623 0.101994,-0.12511 0.151929,-0.18862 l -0.0031,0.005 0.0248,-0.0315 3.792016,-4.14497 c 0.005,-0.005 0.01092,-0.009 0.01602,-0.0145 0.13479,-0.13479 0.263094,-0.27601 0.384472,-0.42323 0.121372,-0.14722 0.236154,-0.30073 0.343133,-0.4594 0.106979,-0.15867 0.206047,-0.32283 0.297656,-0.49196 0.0916,-0.16914 0.175382,-0.34331 0.250632,-0.52193 0.0752,-0.17864 0.142076,-0.36168 0.199985,-0.54881 0.0579,-0.18713 0.107172,-0.37792 0.146762,-0.57257 0.0396,-0.19466 0.06962,-0.39308 0.08992,-0.59428 0.0203,-0.20119 0.03049,-0.40562 0.03049,-0.61237 v -16.54815 c 0,-0.20674 -0.01029,-0.41116 -0.03049,-0.61236 -0.0203,-0.2012 -0.05032,-0.3991 -0.08992,-0.59376 -0.0396,-0.19466 -0.08889,-0.38595 -0.146762,-0.57309 -0.0579,-0.18715 -0.124738,-0.37018 -0.199985,-0.54881 -0.0752,-0.17864 -0.159033,-0.35278 -0.250632,-0.52193 -0.0916,-0.16916 -0.190677,-0.33327 -0.297656,-0.49196 -0.106979,-0.15868 -0.221761,-0.31216 -0.343133,-0.4594 -0.121378,-0.14724 -0.249682,-0.28842 -0.384472,-0.42323 -0.134789,-0.13481 -0.27601,-0.26307 -0.42323,-0.38448 -0.147219,-0.12138 -0.300217,-0.23613 -0.458888,-0.34313 -0.158668,-0.107 -0.322818,-0.20602 -0.491958,-0.29765 -0.16914,-0.0916 -0.343302,-0.17537 -0.521933,-0.25063 -0.17862,-0.0753 -0.361672,-0.14207 -0.548801,-0.19999 -0.187122,-0.0579 -0.378434,-0.10716 -0.573093,-0.14676 -0.194651,-0.0396 -0.393089,-0.0696 -0.594278,-0.0899 -0.201192,-0.0203 -0.405101,-0.031 -0.611849,-0.031 l -3.309877,5.2e-4 -1.515152,6.37791 c 0,0 0.306782,0.0388 0.456303,0.0692 0.194659,0.0396 0.385445,0.0888 0.572574,0.14676 0.187119,0.0579 0.370174,0.12423 0.548804,0.19948 0.178621,0.0753 0.352793,0.15903 0.521931,0.25062 0.16914,0.0916 0.33329,0.1912 0.491961,0.29818 0.15866,0.10697 0.312184,0.22176 0.459404,0.34313 0.147219,0.12138 0.288438,0.24968 0.42323,0.38447 0.134789,0.13479 0.263091,0.27601 0.384471,0.42323 0.12137,0.14722 0.235635,0.30022 0.342614,0.45889 0.106982,0.15867 0.206563,0.32282 0.298175,0.49196 0.0916,0.16914 0.175379,0.3433 0.250629,0.52193 0.0752,0.17862 0.142079,0.36168 0.199988,0.5488 0.0579,0.18713 0.106654,0.37845 0.146246,0.5731 0.0396,0.19465 0.07013,0.39257 0.09043,0.59376 0.0203,0.20119 0.03049,0.40561 0.03049,0.61236 v 5.62343 0.38396 c 0.081,0.10314 0.158583,0.20843 0.235643,0.31471 0.0667,0.092 0.139946,0.1786 0.203605,0.27285 0.183782,0.27206 0.355211,0.55351 0.51263,0.84336 0.157429,0.28985 0.301106,0.58807 0.430466,0.894 0.0647,0.15297 0.125595,0.3079 0.182933,0.46457 0.0573,0.15666 0.110914,0.31528 0.160713,0.47543 0.0498,0.16015 0.09593,0.32182 0.137978,0.48524 0.042,0.16343 0.08012,0.32858 0.114205,0.49506 0.0341,0.16648 0.06402,0.33451 0.08992,0.50384 0.0259,0.16932 0.04771,0.34016 0.06511,0.51212 0.0174,0.17195 0.03037,0.34498 0.03927,0.51934 0.009,0.17436 0.01344,0.35002 0.01344,0.52659 0,0.17657 -0.0041,0.35169 -0.01344,0.52606 -0.009,0.17438 -0.02177,0.34792 -0.03927,0.51987 -0.0174,0.17196 -0.03931,0.34227 -0.06511,0.5116 -0.0259,0.16932 -0.05582,0.33737 -0.08992,0.50384 -0.0341,0.16649 -0.07223,0.33164 -0.114205,0.49506 -0.042,0.16342 -0.08823,0.32509 -0.137978,0.48524 -0.02496,0.0803 -0.05116,0.16035 -0.07803,0.23978 0.02679,-0.0792 0.05262,-0.15919 0.07752,-0.23926 0.0498,-0.16015 0.09592,-0.32182 0.137978,-0.48524 0.042,-0.16342 0.08013,-0.32858 0.114205,-0.49506 0.0341,-0.16648 0.06402,-0.33453 0.08992,-0.50385 0.0259,-0.16932 0.04771,-0.33964 0.06511,-0.51159 0.0174,-0.17195 0.03037,-0.3455 0.03927,-0.51987 0.009,-0.17436 0.01344,-0.3495 0.01344,-0.52607 0,-0.17657 -0.0041,-0.35222 -0.01344,-0.52658 -0.009,-0.17437 -0.02177,-0.34791 -0.03927,-0.51986 -0.0174,-0.17195 -0.03931,-0.3428 -0.06511,-0.51212 -0.0259,-0.16932 -0.05592,-0.33684 -0.08992,-0.50333 -0.034,-0.16646 -0.07214,-0.33163 -0.114205,-0.49505 -0.042,-0.16342 -0.08822,-0.3251 -0.137978,-0.48525 -0.0498,-0.16015 -0.103372,-0.31876 -0.160713,-0.47542 -0.0573,-0.15667 -0.118255,-0.31161 -0.182935,-0.46457 -0.12936,-0.30593 -0.273045,-0.60415 -0.430464,-0.894 -0.157419,-0.28985 -0.328851,-0.5713 -0.51263,-0.84336 -0.0637,-0.0942 -0.136925,-0.18088 -0.203605,-0.27286 -0.0771,-0.10627 -0.154644,-0.21208 -0.235646,-0.31522 -0.0512,-0.0653 -0.09658,-0.13551 -0.149344,-0.19947 -0.20841,-0.25255 -0.428567,-0.49473 -0.659908,-0.72606 -0.231341,-0.23133 -0.474012,-0.45149 -0.72657,-0.6599 -0.25256,-0.20841 -0.514971,-0.40535 -0.787032,-0.58911 -0.27206,-0.18378 -0.55355,-0.3547 -0.843359,-0.51212 -0.289851,-0.15743 -0.588074,-0.30109 -0.894003,-0.43046 -0.15293,-0.0647 -0.307901,-0.12559 -0.464572,-0.18294 -0.15666,-0.0573 -0.315272,-0.11092 -0.475422,-0.16071 -0.158181,-0.0492 -0.318177,-0.0948 -0.479557,-0.13643 -0.002,-5.8e-4 -0.0037,-0.001 -0.0057,-0.002 -0.0789,-0.0203 -0.159173,-0.0364 -0.238744,-0.0548 -0.0854,-0.0198 -0.170156,-0.0412 -0.256315,-0.0589 -0.166481,-0.0341 -0.334515,-0.0645 -0.503846,-0.0904 -0.16932,-0.0259 -0.340154,-0.0472 -0.512112,-0.0646 -0.027,-0.003 -0.05403,-0.004 -0.08113,-0.006 -0.0782,-0.007 -0.156954,-0.0126 -0.235643,-0.0181 l -2.915068,-0.0336 h -4.461787 -0.331764 c -0.0862,-0.003 -0.173085,-0.004 -0.257865,-0.0129 -0.101629,-0.0103 -0.200898,-0.0285 -0.300239,-0.046 -0.0368,-0.007 -0.07467,-0.01 -0.111104,-0.017 -0.13489,-0.0276 -0.267623,-0.062 -0.397393,-0.10232 -0.129778,-0.0404 -0.256874,-0.087 -0.380855,-0.13953 -0.12397,-0.0525 -0.244771,-0.11081 -0.362251,-0.17467 -0.11747,-0.0639 -0.231828,-0.13319 -0.342099,-0.20774 -0.110281,-0.0745 -0.216463,-0.15422 -0.318844,-0.23874 -0.102378,-0.0845 -0.200766,-0.17387 -0.294555,-0.26768 -0.09379,-0.0938 -0.183179,-0.19216 -0.267684,-0.29456 -0.08451,-0.1024 -0.164222,-0.20906 -0.238745,-0.31936 -0.07452,-0.11029 -0.143904,-0.22409 -0.20774,-0.34158 -0.06384,-0.11749 -0.1222,-0.23826 -0.174664,-0.36225 -0.05247,-0.12399 -0.09913,-0.25107 -0.139528,-0.38086 -0.0404,-0.12979 -0.07418,-0.2625 -0.101802,-0.39739 -0.02763,-0.1349 -0.04888,-0.27204 -0.06304,-0.41134 -0.01416,-0.13931 -0.02119,-0.28073 -0.02119,-0.42375 0,-0.14302 0.007,-0.28444 0.02119,-0.42375 0.01416,-0.1393 0.03541,-0.27644 0.06304,-0.41134 0.02763,-0.1349 0.06141,-0.2676 0.101802,-0.39739 0.04039,-0.12979 0.08706,-0.25687 0.139528,-0.38086 0.05247,-0.12399 0.110823,-0.24476 0.174664,-0.36225 0.06383,-0.11749 0.133226,-0.23129 0.20774,-0.34158 0.07452,-0.1103 0.154239,-0.21696 0.238745,-0.31936 0.0845,-0.1024 0.165621,-0.162 0.259416,-0.2558 0.0938,-0.0938 0.191659,-0.18315 0.294039,-0.26768 0.102381,-0.0845 0.209079,-0.16421 0.31936,-0.23875 0.110281,-0.0745 0.224102,-0.14388 0.341582,-0.20774 0.11747,-0.0638 0.238282,-0.12219 0.362252,-0.17467 0.0808,-0.0342 0.006,-0.008 0.247012,-0.0832 0.24098,-0.0754 2.739885,-0.0465 2.739885,-0.0465 h 7.523573 c 0.164388,0 0.32585,0.0114 0.486791,0.0243 0.0415,0.003 0.08433,0.002 0.125574,0.006 0.0466,0.005 0.09167,0.0154 0.137974,0.0212 0.338111,-1.43273 1.515155,-6.37894 1.515155,-6.37894 z m -20.262328,4.94957 c -0.01251,0.0186 -0.02543,0.0361 -0.03772,0.0553 0.0042,-0.006 0.0089,-0.0147 0.01292,-0.0207 0.004,-0.006 0.01873,-0.026 0.02481,-0.0346 z m -0.13126,0.21291 c -0.01591,0.0288 -0.03204,0.0572 -0.04754,0.0878 -0.07609,0.1506 -0.157506,0.29917 -0.230992,0.45165 0,0 0.113755,-0.23446 0.230992,-0.45165 0.01624,-0.0301 0.03142,-0.0591 0.04754,-0.0878 z m 8.960178,3.8871 a 1.2589042,1.2589042 0 0 0 -1.25884,1.25884 1.2589042,1.2589042 0 0 0 1.25884,1.25884 1.2589042,1.2589042 0 0 0 1.258837,-1.25884 1.2589042,1.2589042 0 0 0 -1.258837,-1.25884 z m -8.483722,7.03833 c 0.07428,0.10993 0.15217,0.21681 0.232029,0.32246 -0.07986,-0.10565 -0.157752,-0.21252 -0.232029,-0.32246 z m 0.475941,0.63614 c 0.04373,0.0552 0.08179,0.1152 0.126608,0.1695 -0.04481,-0.0543 -0.08288,-0.11428 -0.126608,-0.1695 z m 0.235646,0.28939 c 0.182115,0.21388 0.367866,0.42468 0.566372,0.62321 0.236707,0.23673 0.484709,0.46213 0.743109,0.67541 0.258397,0.21327 0.527299,0.41448 0.805635,0.60255 0.278334,0.18808 0.566478,0.36288 0.862997,0.524 0.148254,0.0806 0.298656,0.1575 0.451133,0.23099 0.152471,0.0735 0.307065,0.1436 0.463539,0.20981 0.156467,0.0662 0.314653,0.12889 0.474906,0.18759 0.160245,0.0587 0.322472,0.11336 0.486275,0.16433 0.148759,0.0463 0.299098,0.0884 0.450617,0.12815 0.0153,0.004 0.03007,0.009 0.04548,0.0129 0.0635,0.0163 0.128802,0.0292 0.192754,0.0445 0.10441,0.0248 0.208074,0.0506 0.313674,0.0723 0.17026,0.0348 0.342046,0.066 0.515215,0.0925 0.17316,0.0265 0.347642,0.0483 0.523481,0.0661 0.17585,0.0179 0.352936,0.0318 0.531236,0.0408 0.002,1.1e-4 0.0042,-1.1e-4 0.0072,0 0.004,0.005 0.0079,0.009 0.01292,0.0129 h 0.501261 0.0016 c 0.005,9e-5 0.0103,5.2e-4 0.0155,5.2e-4 0.005,0 0.0103,-2.3e-4 0.0155,-5.2e-4 h 0.0021 5.507672 1.3193 0.112654 c 0.115631,0.002 0.230669,0.006 0.343649,0.0176 0.131511,0.0133 0.261287,0.0329 0.388607,0.0589 0.12732,0.026 0.252185,0.058 0.374655,0.0961 0.122478,0.0381 0.242181,0.0823 0.359151,0.13178 0.116969,0.0494 0.231277,0.10417 0.342098,0.16433 0.11081,0.0602 0.218451,0.12562 0.322461,0.19585 0.104018,0.0702 0.204205,0.14513 0.300757,0.22479 0.0965,0.0796 0.189579,0.16429 0.278019,0.2527 0.0884,0.0884 0.172511,0.18098 0.25218,0.2775 0.0797,0.0965 0.154543,0.19676 0.224792,0.30076 0.0703,0.10399 0.135684,0.21165 0.195855,0.32246 0.0602,0.1108 0.115398,0.22463 0.164846,0.34158 0.0494,0.11696 0.09319,0.23669 0.13126,0.35915 0.0381,0.12246 0.07063,0.24787 0.09663,0.37518 0.026,0.12731 0.04561,0.25658 0.05891,0.38809 0.0133,0.13151 0.02015,0.26543 0.02015,0.40049 0,0.13504 -0.007,0.26847 -0.02015,0.39997 -0.0133,0.13151 -0.03291,0.26078 -0.05891,0.38809 -0.026,0.12731 -0.05853,0.25272 -0.09663,0.37517 -0.0381,0.12246 -0.08179,0.2422 -0.13126,0.35916 -0.0494,0.11696 -0.104666,0.23078 -0.164846,0.34158 -0.0602,0.1108 -0.125605,0.21846 -0.195855,0.32246 -0.0703,0.10399 -0.145132,0.20422 -0.224792,0.30075 -0.0797,0.0965 -0.16374,0.1896 -0.25218,0.27802 -0.0884,0.0884 -0.18147,0.17254 -0.278019,0.25219 -0.0966,0.0797 -0.196739,0.15456 -0.300757,0.22479 -0.10401,0.0702 -0.211651,0.13569 -0.322461,0.19585 -0.110821,0.0602 -0.225129,0.11489 -0.342098,0.16433 -0.11697,0.0494 -0.236673,0.0932 -0.359151,0.13126 -0.12247,0.038 -0.247335,0.0706 -0.374655,0.0966 -0.0955,0.0195 -0.162317,0.032 -0.265616,0.0486 -0.0324,0.005 -0.09004,0.009 -0.122991,0.0103 -0.1357,0.007 -0.250973,0.002 -0.386022,0.002 -0.135051,0 -0.264562,-0.005 -0.402042,-0.01 -0.032,-10e-4 -0.0562,-0.002 -0.109038,-0.006 H 45.212058 37.77737 c -0.19594,0 -0.676444,-0.0289 -0.676444,-0.0289 v -5.2e-4 c 0,0 -0.0818,-0.0237 -0.170532,-0.0377 -0.120042,-0.0169 -0.241046,-0.0304 -0.358635,-0.0543 -0.194659,-0.0396 -0.385953,-0.0884 -0.57309,-0.14624 -0.187142,-0.0579 -0.370165,-0.12474 -0.548804,-0.19999 -0.178636,-0.0753 -0.35278,-0.15903 -0.521933,-0.25063 -0.169151,-0.0916 -0.33379,-0.19119 -0.492477,-0.29817 -0.158686,-0.10698 -0.311647,-0.22125 -0.458885,-0.34262 -0.147238,-0.12138 -0.288425,-0.2502 -0.42323,-0.38498 -0.134808,-0.1348 -0.263081,-0.27602 -0.384472,-0.42323 -0.121396,-0.14723 -0.236132,-0.30022 -0.343133,-0.45889 -0.106997,-0.15867 -0.206552,-0.32282 -0.298172,-0.49196 -0.09162,-0.16914 -0.175371,-0.3433 -0.250632,-0.52193 -0.07526,-0.17862 -0.14207,-0.36169 -0.199988,-0.54881 -0.05792,-0.18713 -0.10665,-0.37843 -0.146243,-0.57309 -0.0396,-0.19465 -0.06963,-0.39256 -0.08992,-0.59376 -0.02029,-0.20119 -0.031,-0.40562 -0.031,-0.61237 z m 15.358234,6.32622 a 1.2589042,1.2589042 0 0 0 -1.258837,1.25884 1.2589042,1.2589042 0 0 0 1.258837,1.25884 1.2589042,1.2589042 0 0 0 1.258837,-1.25884 1.2589042,1.2589042 0 0 0 -1.258837,-1.25884 z" />
      <path
         id="path99"
         style="opacity:1;fill:url(#linearGradient108);fill-opacity:0.658291;stroke:none;stroke-width:0.12095;stroke-linejoin:round;stroke-dasharray:none;stroke-opacity:0.658291;paint-order:markers fill stroke"
         d="m 37.561238,116.22208 c -2.9e-4,10e-6 -6.08e-4,-1e-5 -8.97e-4,0 -2.9e-4,7e-5 -6.08e-4,9e-5 -8.97e-4,1.5e-4 -0.131827,0.005 -0.264369,0.007 -0.393816,0.0197 -0.201197,0.0203 -0.399354,0.0504 -0.594013,0.09 -0.194661,0.0396 -0.385793,0.0886 -0.572931,0.14652 -0.187141,0.0579 -0.370372,0.12479 -0.54901,0.20005 -0.178637,0.0753 -0.352796,0.15898 -0.521948,0.25058 -0.169152,0.0916 -0.33336,0.19113 -0.492045,0.29813 -0.158688,0.107 -0.311765,0.22144 -0.459004,0.34283 -0.147236,0.1214 -0.288613,0.24989 -0.423419,0.3847 -0.09489,0.0949 -0.182316,0.19685 -0.270617,0.29798 -1.41e-4,1.1e-4 -3.19e-4,1.9e-4 -4.34e-4,2.8e-4 v 1.6e-4 c -0.05306,0.0421 -0.1106,0.0786 -0.162819,0.1217 -0.221962,0.18319 -0.432222,0.37953 -0.638269,0.58011 -0.03383,0.0329 -0.07142,0.0618 -0.104808,0.0952 -0.236709,0.23671 -0.384835,0.50296 -0.598097,0.76137 -0.213267,0.25835 -0.419027,0.54694 -0.622869,0.81394 -0.216319,0.28335 -0.411183,0.49987 -0.581107,0.83617 -0.07609,0.1506 -0.15766,0.29875 -0.231147,0.45123 -0.07349,0.15248 -0.143268,0.30686 -0.209467,0.46334 -0.04633,0.10951 -0.0886,0.22114 -0.131272,0.33251 -0.0183,0.0478 -0.0386,0.0945 -0.05622,0.14264 -0.01754,0.0479 -0.03233,0.0971 -0.04919,0.14533 v 1.5e-4 c -0.03955,0.11311 -0.07954,0.22604 -0.115274,0.34088 -0.05097,0.16382 -0.09813,0.32938 -0.14114,0.49653 -0.04302,0.16715 -0.08192,0.33583 -0.116769,0.5061 -0.03485,0.17021 -0.06563,0.34205 -0.0921,0.51522 -0.02647,0.17311 -0.04867,0.34775 -0.06653,0.5236 -0.01787,0.17585 -0.03133,0.35305 -0.04037,0.53136 -0.009,0.17832 -0.01361,0.3577 -0.01361,0.53825 0,0.18055 0.0046,0.36008 0.01361,0.53839 0.009,0.17832 0.0225,0.35552 0.04037,0.53137 0.01786,0.17585 0.04006,0.35042 0.06653,0.52359 0.02647,0.17317 0.05724,0.34495 0.0921,0.51522 0.03485,0.17028 0.07375,0.33895 0.116769,0.5061 0.04301,0.16716 0.09017,0.33272 0.14114,0.49653 0.05096,0.16382 0.105772,0.32596 0.164464,0.48622 0.05869,0.16026 0.12129,0.31867 0.187488,0.47515 0.0662,0.15648 0.135981,0.311 0.209467,0.46349 0.07349,0.15248 0.150592,0.30296 0.231147,0.45122 0.161102,0.29654 0.336131,0.58449 0.52419,0.86284 0.148549,0.21986 0.311517,0.42878 0.475898,0.63633 0.04373,0.0552 0.08182,0.11494 0.126637,0.16924 0.03441,0.0417 0.07395,0.0788 0.108995,0.11991 0.182116,0.21388 0.367846,0.42464 0.566353,0.62317 0.236707,0.23673 0.484678,0.46222 0.743077,0.6755 0.258398,0.21327 0.527238,0.41446 0.805573,0.60253 0.278334,0.18808 0.566319,0.36307 0.862836,0.52419 0.148254,0.0806 0.298601,0.15766 0.451079,0.23115 0.152471,0.0735 0.307013,0.14341 0.463488,0.20962 0.156468,0.0662 0.314898,0.12879 0.475151,0.18749 0.160245,0.0587 0.322411,0.11349 0.486214,0.16446 0.148759,0.0463 0.29926,0.0884 0.45078,0.12813 0.01533,0.004 0.03024,0.009 0.0456,0.013 0.06349,0.0163 0.128325,0.0292 0.192273,0.0444 0.104413,0.0248 0.208379,0.0507 0.313976,0.0724 0.170261,0.0349 0.342051,0.0656 0.51522,0.0921 0.17316,0.0265 0.347751,0.0487 0.523592,0.0665 0.17585,0.0179 0.352915,0.0315 0.531218,0.0405 0.0022,1.1e-4 0.0044,4e-5 0.0066,1.5e-4 0.004,0.005 0.0083,0.009 0.01301,0.013 h 0.501019 0.0023 c 0.0052,9e-5 0.01033,5.8e-4 0.01554,5.8e-4 0.0052,0 0.01021,-2.9e-4 0.01539,-5.8e-4 h 0.0023 5.50774 1.319295 0.112585 c 0.115631,0.002 0.230745,0.006 0.343729,0.0173 0.131512,0.0133 0.261112,0.0332 0.388432,0.0592 0.127317,0.026 0.252357,0.0582 0.374828,0.0963 0.122474,0.0381 0.242306,0.082 0.35928,0.13143 0.116971,0.0494 0.231115,0.1043 0.341935,0.16446 0.110817,0.0602 0.218339,0.12548 0.322348,0.19571 0.104012,0.0702 0.204419,0.14536 0.300969,0.22502 0.09655,0.0796 0.189207,0.16396 0.277645,0.25237 0.08844,0.0884 0.172709,0.18097 0.252377,0.2775 0.07967,0.0965 0.154768,0.19697 0.225016,0.30097 0.07025,0.10399 0.135688,0.21154 0.195861,0.32235 0.06017,0.1108 0.115018,0.22483 0.164464,0.34178 0.04944,0.11696 0.09351,0.23682 0.13157,0.35928 0.03807,0.12246 0.07026,0.24752 0.09629,0.37483 0.02604,0.12731 0.04587,0.25692 0.05921,0.38843 0.01334,0.13151 0.0202,0.26504 0.0202,0.4001 0,0.13504 -0.0069,0.26844 -0.0202,0.39994 -0.01334,0.13151 -0.03318,0.26113 -0.05921,0.38844 -0.02604,0.12731 -0.05822,0.25237 -0.09629,0.37482 -0.03806,0.12246 -0.08213,0.24232 -0.13157,0.35928 -0.04945,0.11696 -0.10429,0.23099 -0.164464,0.34179 -0.06017,0.1108 -0.125613,0.21835 -0.195861,0.32235 -0.07025,0.10399 -0.145348,0.20443 -0.225016,0.30096 -0.07967,0.0965 -0.16394,0.18923 -0.252377,0.27765 -0.08844,0.0884 -0.181094,0.17258 -0.277645,0.25222 -0.09655,0.0797 -0.196957,0.15479 -0.300969,0.22502 -0.104009,0.0702 -0.211531,0.13555 -0.322348,0.19571 -0.11082,0.0602 -0.224964,0.11518 -0.341935,0.16462 -0.116974,0.0494 -0.236806,0.0932 -0.35928,0.13127 -0.122471,0.038 -0.247511,0.0703 -0.374828,0.0963 -0.09551,0.0195 -0.16238,0.032 -0.265683,0.0486 -0.03245,0.005 -0.08977,0.009 -0.122749,0.0106 -0.135699,0.007 -0.251287,0.002 -0.386341,0.002 -0.135053,0 -0.26426,-0.005 -0.401741,-0.01 -0.03198,-0.001 -0.05633,-0.002 -0.109141,-0.006 H 45.21252 37.777712 c -0.195942,0 -0.676786,-0.0295 -0.676786,-0.0295 l 0.48364,6.3554 9.181983,8e-4 0.608964,-4e-5 c 0.115724,-0.008 0.231639,-0.0147 0.346272,-0.0263 0.171954,-0.0174 0.342757,-0.0392 0.512081,-0.065 0.169324,-0.0259 0.337227,-0.0558 0.503707,-0.0899 0.166481,-0.0341 0.331465,-0.0722 0.494887,-0.11423 0.163422,-0.042 0.325316,-0.0881 0.485465,-0.13784 0.160153,-0.0498 0.318636,-0.10339 0.475299,-0.16073 0.156667,-0.0573 0.3116,-0.11847 0.464536,-0.18315 0.305935,-0.12937 0.604231,-0.27318 0.894085,-0.4306 0.289821,-0.15743 0.571186,-0.32846 0.84325,-0.51223 0.27206,-0.18377 0.534775,-0.38022 0.787332,-0.58863 0.252557,-0.20841 0.494993,-0.42876 0.726331,-0.6601 0.0012,-0.001 0.002,-0.002 0.0033,-0.004 0.201708,-0.2019 0.391433,-0.41552 0.575773,-0.63364 0.02592,-0.0307 0.05546,-0.0581 0.08104,-0.0891 0.208414,-0.25255 0.404857,-0.51527 0.58863,-0.78733 0.183775,-0.27206 0.354807,-0.5534 0.512231,-0.84325 0.157421,-0.28985 0.301233,-0.58815 0.430595,-0.89408 0.02017,-0.0477 0.03765,-0.0968 0.05711,-0.14488 0.03899,-0.0963 0.07826,-0.19248 0.114376,-0.29021 0.0037,-0.01 0.008,-0.0195 0.01166,-0.0294 0.05734,-0.15666 0.11093,-0.31515 0.160726,-0.4753 0.04979,-0.16015 0.09582,-0.32205 0.137851,-0.48547 0.04203,-0.16342 0.08002,-0.3284 0.114078,-0.49488 0.03405,-0.16648 0.06415,-0.33439 0.09001,-0.50371 0.02587,-0.16932 0.04759,-0.33998 0.06504,-0.51193 0.01745,-0.17195 0.03063,-0.34519 0.03947,-0.51956 0.0088,-0.17436 0.01331,-0.34986 0.01331,-0.52643 0,-0.17657 -0.0045,-0.35222 -0.01331,-0.52658 -0.0088,-0.17437 -0.02202,-0.34746 -0.03947,-0.51941 -0.01745,-0.17195 -0.03918,-0.34276 -0.06504,-0.51208 -0.02587,-0.16932 -0.05596,-0.33723 -0.09001,-0.50371 -0.03405,-0.16647 -0.07205,-0.33146 -0.114078,-0.49488 -0.04203,-0.16342 -0.08806,-0.32532 -0.137851,-0.48547 -0.0498,-0.16015 -0.103382,-0.31864 -0.160726,-0.4753 -0.05735,-0.15667 -0.118469,-0.31157 -0.183151,-0.46453 -0.129362,-0.30593 -0.273174,-0.60424 -0.430595,-0.89409 -0.157424,-0.28985 -0.328455,-0.57119 -0.512231,-0.84325 -0.06366,-0.0942 -0.137253,-0.18074 -0.203936,-0.27271 -0.07706,-0.10628 -0.154638,-0.21203 -0.235632,-0.31517 -0.05125,-0.0653 -0.09627,-0.13549 -0.149062,-0.19945 -0.208415,-0.25255 -0.428759,-0.495 -0.660099,-0.72633 -0.231338,-0.23134 -0.473775,-0.45169 -0.726331,-0.6601 -0.252557,-0.20841 -0.515272,-0.40486 -0.787333,-0.58863 -0.272063,-0.18377 -0.553439,-0.35481 -0.84325,-0.51223 -0.289853,-0.15743 -0.588149,-0.30123 -0.894084,-0.4306 -0.152925,-0.0647 -0.30787,-0.1258 -0.464536,-0.18315 -0.156663,-0.0573 -0.315146,-0.11093 -0.475299,-0.16072 -0.158182,-0.0492 -0.318109,-0.0946 -0.479485,-0.13621 -0.002,-5.8e-4 -0.004,-0.001 -0.006,-0.002 -0.07885,-0.0203 -0.159204,-0.0366 -0.238774,-0.055 v 1.5e-4 c -0.08535,-0.0198 -0.169955,-0.0414 -0.256112,-0.0591 -0.16648,-0.034 -0.334384,-0.0641 -0.503708,-0.09 -0.169324,-0.0259 -0.340127,-0.0476 -0.512081,-0.065 -0.02702,-0.003 -0.05455,-0.004 -0.08163,-0.006 -0.07819,-0.007 -0.156941,-0.0124 -0.235631,-0.0179 l -2.914745,-0.0338 h -4.46205 -0.331768 c -0.0862,-0.003 -0.172987,-0.004 -0.257759,-0.013 -0.10164,-0.0103 -0.200882,-0.0284 -0.300223,-0.0459 -0.03681,-0.007 -0.07477,-0.01 -0.111237,-0.0171 -0.134881,-0.0276 -0.267482,-0.0619 -0.397254,-0.10226 -0.12978,-0.0404 -0.256834,-0.087 -0.380808,-0.1395 -0.123976,-0.0525 -0.244796,-0.11077 -0.362269,-0.17463 -0.117474,-0.0639 -0.231659,-0.13328 -0.341935,-0.20782 -0.110276,-0.0745 -0.216678,-0.15425 -0.31906,-0.23877 -0.102382,-0.0845 -0.200598,-0.17382 -0.29439,-0.26763 -0.09379,-0.0938 -0.183122,-0.19214 -0.267627,-0.29454 -0.08451,-0.1024 -0.164249,-0.20891 -0.238771,-0.31921 -0.07451,-0.11029 -0.143838,-0.22429 -0.207673,-0.34178 -0.06384,-0.11749 -0.122164,-0.23843 -0.17463,-0.36242 -0.05247,-0.12399 -0.0991,-0.25102 -0.139495,-0.38081 -0.0404,-0.12979 -0.07464,-0.26236 -0.102267,-0.39725 -0.02763,-0.1349 -0.04863,-0.27216 -0.0628,-0.41146 -0.01416,-0.13931 -0.02138,-0.2807 -0.02138,-0.42372 0,-0.14302 0.0072,-0.28426 0.02138,-0.42357 0.01416,-0.1393 0.03517,-0.27656 0.0628,-0.41146 0.02763,-0.1349 0.06187,-0.26746 0.102267,-0.39725 0.04039,-0.12979 0.08703,-0.25682 0.139495,-0.38081 0.05247,-0.12399 0.110788,-0.24493 0.17463,-0.36242 0.06383,-0.11749 0.133158,-0.23149 0.207673,-0.34178 0.07452,-0.1103 0.154266,-0.21681 0.238771,-0.31921 0.08451,-0.1024 0.165287,-0.16202 0.259079,-0.25582 0.09379,-0.0938 0.192008,-0.1831 0.29439,-0.26763 0.102382,-0.0845 0.208783,-0.16423 0.319059,-0.23877 0.110276,-0.0745 0.224462,-0.14396 0.341935,-0.20782 0.117474,-0.0638 0.238294,-0.12215 0.362269,-0.17463 0.0808,-0.0342 0.006,-0.008 0.246995,-0.0831 0.240983,-0.0754 2.739692,-0.0465 2.739692,-0.0465 h 7.523767 c 0.164394,0 0.325868,0.0116 0.486811,0.0245 0.04147,0.003 0.08422,0.002 0.125442,0.006 0.04664,0.005 0.09139,0.0151 0.137701,0.0209 0.338104,-1.43273 1.515246,-6.37852 1.515246,-6.37852 0,0 -7.29229,0.003 -9.073688,1.7e-4 -1.465916,-0.002 -2.916294,-1e-5 -4.380864,0.0106 z"
         sodipodi:nodetypes="cccsssscsssccccsscssssssccssccssssssssssssssssssssscscsssssscsccccscccccssssssssssssssssssssssssssssssssssccsccccssssssccssscssssssscssssscsssssssssssssssssccssccccsscccccccsccssssssssssssssssssssssscszcsscccscc" />
      <path
         id="path60"
         style="opacity:1;fill:url(#linearGradient112);fill-opacity:0.658291;stroke:none;stroke-width:0.12095;stroke-linejoin:round;stroke-dasharray:none;stroke-opacity:0.658291;paint-order:markers fill stroke"
         d="m 51.01579,116.21134 -1.515237,6.37834 c 0,0 0.306785,0.0387 0.45631,0.0691 0.194655,0.0396 0.385655,0.0886 0.572784,0.14652 0.187129,0.0579 0.370384,0.12465 0.54901,0.1999 0.178623,0.0753 0.352657,0.15898 0.521796,0.25058 0.169139,0.0916 0.333377,0.19115 0.492048,0.29813 0.158657,0.10697 0.311782,0.22146 0.459002,0.34283 0.147222,0.12138 0.288479,0.24961 0.423269,0.3844 0.134791,0.13479 0.26317,0.27605 0.384547,0.42327 0.121377,0.14722 0.235848,0.30048 0.342832,0.45915 0.106983,0.15867 0.206522,0.32276 0.298128,0.4919 0.09161,0.16914 0.175186,0.34332 0.250433,0.52195 0.07525,0.17862 0.14214,0.36173 0.200048,0.54886 0.05791,0.18713 0.106784,0.37828 0.146372,0.57293 0.03959,0.19465 0.06987,0.39282 0.09016,0.59401 0.02028,0.20119 0.03065,0.40535 0.03065,0.6121 v 5.62362 0.38365 c 0.08099,0.10314 0.15857,0.20889 0.235632,0.31517 0.06668,0.092 0.140273,0.17846 0.203933,0.27271 0.183776,0.27206 0.354807,0.5534 0.512231,0.84325 0.157424,0.28985 0.301233,0.58815 0.430595,0.89408 0.06468,0.15297 0.125807,0.30787 0.183154,0.46454 0.05734,0.15666 0.11093,0.31515 0.160726,0.4753 0.04979,0.16015 0.09582,0.32204 0.137848,0.48546 0.04203,0.16343 0.08003,0.32841 0.114081,0.49489 0.03405,0.16648 0.06415,0.33438 0.09,0.50371 0.02587,0.16932 0.04758,0.34012 0.06504,0.51208 0.01745,0.17195 0.03064,0.34504 0.03947,0.51941 0.0088,0.17436 0.01331,0.35001 0.01331,0.52658 0,0.17657 -0.0045,0.35206 -0.01331,0.52643 -0.0088,0.17437 -0.02202,0.3476 -0.03947,0.51955 -0.01745,0.17196 -0.03918,0.34261 -0.06504,0.51194 -0.02587,0.16932 -0.05595,0.33723 -0.09,0.5037 -0.03405,0.16649 -0.07205,0.33147 -0.114081,0.49489 -0.04203,0.16342 -0.08806,0.32532 -0.137848,0.48547 -0.0498,0.16015 -0.103382,0.31863 -0.160726,0.4753 -0.0036,0.01 -0.008,0.0195 -0.01166,0.0294 l -0.602086,1.32932 -0.952545,1.44653 0.02468,-0.0316 3.792083,-4.14493 c 0.0051,-0.005 0.01091,-0.009 0.016,-0.0145 0.134787,-0.13479 0.263169,-0.27605 0.384543,-0.42327 0.121378,-0.14722 0.235701,-0.30033 0.342685,-0.459 0.10698,-0.15867 0.206522,-0.32291 0.298128,-0.49204 0.09161,-0.16914 0.175333,-0.34318 0.250581,-0.5218 0.07525,-0.17863 0.142139,-0.36173 0.200047,-0.54886 0.05791,-0.18713 0.106787,-0.37828 0.146375,-0.57293 0.03959,-0.19466 0.06987,-0.39282 0.09015,-0.59402 0.02028,-0.20119 0.03065,-0.4055 0.03065,-0.61225 v -16.54805 c 0,-0.20675 -0.01036,-0.4109 -0.03065,-0.6121 -0.02028,-0.2012 -0.05057,-0.39935 -0.09015,-0.59401 -0.03959,-0.19466 -0.08847,-0.38579 -0.146375,-0.57293 -0.05791,-0.18715 -0.124797,-0.37038 -0.200047,-0.54901 -0.07525,-0.17864 -0.158975,-0.3528 -0.250581,-0.52195 -0.09161,-0.16916 -0.191148,-0.33321 -0.298128,-0.4919 -0.106984,-0.15868 -0.221307,-0.31191 -0.342685,-0.45915 -0.121374,-0.14724 -0.249756,-0.28846 -0.384543,-0.42327 -0.134791,-0.13481 -0.27605,-0.2633 -0.42327,-0.3847 -0.147223,-0.12139 -0.300484,-0.23583 -0.459155,-0.34283 -0.158671,-0.107 -0.322755,-0.2065 -0.491894,-0.29813 -0.169139,-0.0916 -0.343324,-0.17532 -0.52195,-0.25058 -0.178623,-0.0753 -0.36173,-0.14213 -0.54886,-0.20005 -0.187129,-0.0579 -0.378276,-0.10692 -0.572931,-0.14652 -0.194651,-0.0396 -0.392818,-0.0697 -0.594011,-0.09 -0.201197,-0.0203 -0.405352,-0.0307 -0.612106,-0.0307 z"
         sodipodi:nodetypes="ccsssssssssssssssccsssssssssscsssssssscccccssssssssssssssssssssssssssc" />
      <path
         id="path28"
         style="opacity:1;fill:url(#linearGradient110);fill-opacity:0.658291;stroke:none;stroke-width:0.12095;stroke-linejoin:round;stroke-dasharray:none;stroke-opacity:0.658291;paint-order:markers fill stroke"
         d="m 32.376296,119.05028 c -1.242847,1.304 -2.896405,3.45358 -4.346028,5.1833 -0.01686,0.0165 -0.03566,0.0309 -0.05233,0.0475 -0.134789,0.13479 -0.26317,0.27605 -0.384546,0.42327 -0.121377,0.14722 -0.23585,0.30048 -0.342832,0.45915 -0.106982,0.15867 -0.206522,0.32276 -0.298128,0.4919 -0.09161,0.16914 -0.175186,0.34332 -0.250433,0.52195 -0.07525,0.17862 -0.142139,0.36173 -0.200048,0.54886 -0.05791,0.18713 -0.106935,0.37828 -0.146522,0.57293 -0.03959,0.19465 -0.06972,0.39282 -0.09001,0.59401 -0.02028,0.20119 -0.03065,0.40535 -0.03065,0.6121 v 16.54804 c 0,0.20676 0.01037,0.41091 0.03065,0.6121 0.02028,0.2012 0.05042,0.39951 0.09001,0.59417 0.03959,0.19466 0.08861,0.38579 0.146522,0.57293 0.05791,0.18714 0.1248,0.37022 0.200048,0.54886 0.07525,0.17864 0.158827,0.35279 0.250433,0.52195 0.09161,0.16915 0.191146,0.33336 0.298128,0.49204 0.106982,0.15869 0.221455,0.31192 0.342832,0.45916 0.121376,0.14723 0.249757,0.28846 0.384546,0.42327 0.13479,0.1348 0.27605,0.26315 0.42327,0.38454 0.147221,0.12139 0.300332,0.23583 0.459003,0.34283 0.158669,0.107 0.322907,0.20651 0.492045,0.29813 0.169138,0.0916 0.343175,0.17532 0.521799,0.25058 0.178625,0.0753 0.361731,0.14213 0.54886,0.20005 0.187129,0.0579 0.37828,0.10693 0.572931,0.14652 0.194652,0.0396 0.392819,0.0697 0.594013,0.09 0.201193,0.0203 0.4055,0.0308 0.612254,0.0308 h 5.382453 l -0.4835,-6.35566 c 0,0 -0.08188,-0.0235 -0.170623,-0.0375 -0.120044,-0.0169 -0.241242,-0.0305 -0.358829,-0.0544 -0.194661,-0.0396 -0.385793,-0.0885 -0.572932,-0.14637 -0.187141,-0.0579 -0.370371,-0.1248 -0.54901,-0.20005 -0.178637,-0.0753 -0.352795,-0.15883 -0.521948,-0.25043 -0.169152,-0.0916 -0.333359,-0.19115 -0.492045,-0.29813 -0.158687,-0.10698 -0.311765,-0.22146 -0.459003,-0.34283 -0.147238,-0.12138 -0.288613,-0.24976 -0.423419,-0.38455 -0.134808,-0.13479 -0.263153,-0.27605 -0.384546,-0.42327 -0.121395,-0.14722 -0.235833,-0.30033 -0.342832,-0.459 -0.106998,-0.15867 -0.206507,-0.32291 -0.298128,-0.49205 -0.09162,-0.16914 -0.175322,-0.34317 -0.250583,-0.5218 -0.07526,-0.17862 -0.142129,-0.36173 -0.200047,-0.54885 -0.05792,-0.18713 -0.106929,-0.37828 -0.146523,-0.57294 -0.0396,-0.19465 -0.06972,-0.39281 -0.09001,-0.59401 -0.02029,-0.20119 -0.03065,-0.4055 -0.03065,-0.61225 v -5.50281 c -0.03505,-0.0412 -0.07458,-0.0782 -0.108995,-0.11991 -0.04481,-0.0543 -0.08291,-0.11403 -0.126637,-0.16925 -0.164386,-0.20754 -0.327349,-0.41645 -0.475898,-0.63632 -0.188065,-0.27836 -0.363083,-0.5663 -0.52419,-0.86284 -0.08056,-0.14826 -0.15766,-0.29874 -0.231147,-0.45122 -0.07349,-0.15249 -0.143268,-0.30701 -0.209467,-0.46349 -0.0662,-0.15648 -0.128797,-0.31489 -0.187488,-0.47515 -0.05869,-0.16026 -0.113499,-0.3224 -0.164464,-0.48622 -0.05096,-0.16381 -0.09812,-0.32937 -0.14114,-0.49653 -0.04302,-0.16715 -0.08192,-0.33583 -0.116769,-0.5061 -0.03485,-0.17027 -0.06563,-0.34205 -0.0921,-0.51522 -0.02647,-0.17317 -0.04867,-0.34774 -0.06653,-0.52359 -0.01787,-0.17585 -0.03132,-0.35306 -0.04037,-0.53137 -0.009,-0.17831 -0.01361,-0.35784 -0.01361,-0.53839 0,-0.18055 0.0046,-0.35993 0.01361,-0.53825 0.009,-0.17831 0.0225,-0.35551 0.04037,-0.53137 0.01787,-0.17584 0.04006,-0.35043 0.06653,-0.52359 0.02647,-0.17316 0.05725,-0.34496 0.0921,-0.51521 0.03485,-0.17028 0.07375,-0.33896 0.116769,-0.50611 0.04302,-0.16715 0.09018,-0.33272 0.14114,-0.49653 0.03573,-0.11484 0.07573,-0.22777 0.115274,-0.34089 0.134997,-0.36602 0.26892,-0.71654 0.446147,-1.08382 0,0 0.241955,-0.50347 0.385336,-0.71781 0.143381,-0.21434 1.648559,-2.14455 1.647882,-2.14489 z"
         sodipodi:nodetypes="ccssssssssssssssssssssssssssccsssssssssssssssscsssssssssssssssssssscczcc" />
      <circle
         style="opacity:1;fill:#41a7e1;fill-opacity:0.658824;stroke:none;stroke-width:0.306201;stroke-linejoin:round;stroke-opacity:0.658291;paint-order:markers fill stroke"
         id="path4"
         cx="39.582123"
         cy="126.51938"
         r="1.2589042" />
      <use
         x="0"
         y="0"
         xlink:href="#path4"
         id="use4"
         transform="translate(7.5857936,14.290131)"
         width="100%"
         height="100%"
         style="opacity:1" />
      <rect
         style="opacity:0.938053;fill:#57aadc;fill-opacity:1;stroke-width:0.264586"
         id="rect15748"
         width="0.2316657"
         height="6.3289957"
         x="25.672041"
         y="146.96742"
         transform="matrix(0.99752832,-0.07026551,0.0773852,0.99700127,0,0)" />
      <path
         id="rect15748-6"
         style="opacity:0.938053;fill:url(#linearGradient23899);stroke-width:0.271231"
         transform="matrix(0.99156904,0.12957948,-0.42812246,0.90372073,0,0)"
         d="m 97.534954,114.61683 3.393936,-0.0686 1.23662,6.45241 -2.276418,0.26185 z"
         sodipodi:nodetypes="ccccc" />
    </g>
    <g
       id="g14746">
      <g
         aria-label="sen"
         id="text18"
         style="font-size:36.5461px;line-height:1.25;font-family:Michroma;-inkscape-font-specification:Michroma;fill:#a7ddf8;stroke-width:0.264583">
        <g
           aria-label="Sen"
           id="g1371"
           style="font-size:29.4984px;font-family:Inter;-inkscape-font-specification:Inter;opacity:0.617873;fill:#000000;stroke-width:0.213559;filter:url(#filter1373)"
           transform="matrix(1,0,0,1.0174976,0,-2.1358468)">
          <path
             d="m 83.108478,129.17942 h 2.514068 c -0.115228,-3.23686 -3.100684,-5.65665 -7.248896,-5.65665 -4.106311,0 -7.332699,2.38836 -7.332699,5.99186 0,2.89118 2.095057,4.60912 5.447148,5.57285 l 2.639771,0.75422 c 2.262662,0.62852 4.273916,1.42464 4.273916,3.5616 0,2.34646 -2.262661,3.8968 -5.237642,3.8968 -2.555969,0 -4.81863,-1.13133 -5.028136,-3.56159 h -2.681673 c 0.251407,3.51969 3.100684,5.90806 7.709809,5.90806 4.944334,0 7.75171,-2.72358 7.75171,-6.20137 0,-4.02251 -3.813003,-5.32145 -6.033763,-5.90806 l -2.178859,-0.58662 c -1.592243,-0.41901 -4.148213,-1.25703 -4.148213,-3.5616 0,-2.05315 1.885551,-3.56159 4.734829,-3.56159 2.59787,0 4.567223,1.23608 4.81863,3.35209 z"
             id="path1365"
             style="fill:#000000" />
          <path
             d="m 96.600669,145.60466 c 3.268289,0 5.656651,-1.63414 6.410871,-4.06441 l -2.38836,-0.67041 c -0.628519,1.67604 -2.084584,2.51406 -4.022511,2.51406 -2.901654,0 -4.902433,-1.87507 -5.017661,-5.32144 h 11.679942 v -1.04753 c 0,-5.99186 -3.561597,-8.04502 -6.913688,-8.04502 -4.357718,0 -7.248896,3.4359 -7.248896,8.38023 0,4.94433 2.849277,8.25452 7.500303,8.25452 z m -5.017661,-9.67916 c 0.167604,-2.50359 1.937927,-4.73483 4.766254,-4.73483 2.681673,0 4.399618,2.01126 4.399618,4.73483 z"
             id="path1367"
             style="fill:#000000" />
          <path
             d="m 109.50621,135.59029 c 0,-2.80737 1.73889,-4.39962 4.10631,-4.39962 2.29408,0 3.6873,1.49797 3.6873,4.02251 v 10.05627 h 2.47216 v -10.22387 c 0,-4.10631 -2.18933,-6.07567 -5.44714,-6.07567 -2.43027,0 -3.93871,1.08943 -4.69293,2.72358 h -0.20951 v -2.51407 h -2.38836 v 16.09003 h 2.47217 z"
             id="path1369"
             style="fill:#000000" />
        </g>
        <g
           aria-label="Sen"
           id="text353"
           style="font-size:29.4984px;font-family:Inter;-inkscape-font-specification:Inter;stroke-width:0.213559"
           transform="translate(-0.21906542,0.29208277)">
          <path
             d="m 83.108478,129.17942 h 2.514068 c -0.115228,-3.23686 -3.100684,-5.65665 -7.248896,-5.65665 -4.106311,0 -7.332699,2.38836 -7.332699,5.99186 0,2.89118 2.095057,4.60912 5.447148,5.57285 l 2.639771,0.75422 c 2.262662,0.62852 4.273916,1.42464 4.273916,3.5616 0,2.34646 -2.262661,3.8968 -5.237642,3.8968 -2.555969,0 -4.81863,-1.13133 -5.028136,-3.56159 h -2.681673 c 0.251407,3.51969 3.100684,5.90806 7.709809,5.90806 4.944334,0 7.75171,-2.72358 7.75171,-6.20137 0,-4.02251 -3.813003,-5.32145 -6.033763,-5.90806 l -2.178859,-0.58662 c -1.592243,-0.41901 -4.148213,-1.25703 -4.148213,-3.5616 0,-2.05315 1.885551,-3.56159 4.734829,-3.56159 2.59787,0 4.567223,1.23608 4.81863,3.35209 z"
             id="path1358" />
          <path
             d="m 96.600669,145.60466 c 3.268289,0 5.656651,-1.63414 6.410871,-4.06441 l -2.38836,-0.67041 c -0.628519,1.67604 -2.084584,2.51406 -4.022511,2.51406 -2.901654,0 -4.902433,-1.87507 -5.017661,-5.32144 h 11.679942 v -1.04753 c 0,-5.99186 -3.561597,-8.04502 -6.913688,-8.04502 -4.357718,0 -7.248896,3.4359 -7.248896,8.38023 0,4.94433 2.849277,8.25452 7.500303,8.25452 z m -5.017661,-9.67916 c 0.167604,-2.50359 1.937927,-4.73483 4.766254,-4.73483 2.681673,0 4.399618,2.01126 4.399618,4.73483 z"
             id="path1360" />
          <path
             d="m 109.50621,135.59029 c 0,-2.80737 1.73889,-4.39962 4.10631,-4.39962 2.29408,0 3.6873,1.49797 3.6873,4.02251 v 10.05627 h 2.47216 v -10.22387 c 0,-4.10631 -2.18933,-6.07567 -5.44714,-6.07567 -2.43027,0 -3.93871,1.08943 -4.69293,2.72358 h -0.20951 v -2.51407 h -2.38836 v 16.09003 h 2.47217 z"
             id="path1362" />
        </g>
      </g>
    </g>
  </g>
</svg>
