<?xml version="1.0" standalone="no"?>
<!DOCTYPE svg PUBLIC "-//W3C//DTD SVG 1.1//EN" "http://www.w3.org/Graphics/SVG/1.1/DTD/svg11.dtd">
<svg version="1.1" xmlns="http://www.w3.org/2000/svg" viewBox="0 0 500.04973911152206 408.6539724865209" width="500.04973911152206" height="408.6539724865209"><!-- svg-source:excalidraw --><metadata></metadata><defs><style class="style-fonts">
      </style></defs><g stroke-linecap="round"><g transform="translate(75.08593595359412 338.21700771384167) rotate(0 181.12289646981571 -133.56611500973145)" fill-rule="evenodd"><path d="M-1.94 -2.63 L194.97 53.83 L359.73 -25.03 L358.49 -280.01 L170.2 -320.48 L-0.33 -258.19 L-1.85 -2.48" stroke="none" stroke-width="0" fill="#fff" fill-rule="evenodd"></path><path d="M-0.31 -2.32 C76.03 21.12, 144 41.28, 196.03 55.07 M-0.33 -0.42 C78.52 20.49, 155.21 42.55, 196.23 57.34 M192.45 56.79 C235.78 38.67, 277.82 17.86, 358.99 -21.4 M196.19 58.1 C251.75 29.41, 304.87 1.07, 361.12 -24.03 M356.3 -21.93 C362.45 -108.77, 361.64 -195.55, 362.58 -281.24 M357.84 -21.45 C358.87 -105.64, 357.85 -187.94, 360.42 -281.35 M357.77 -285.64 C307.29 -291.63, 261.48 -303.47, 167.63 -325.23 M361.93 -282.38 C303.97 -296.29, 246.34 -307.75, 164.78 -320.66 M164.54 -319.69 C126.5 -309.81, 87.04 -290.82, 0.95 -262.28 M167.97 -319.96 C104.2 -300.71, 39.59 -275.48, 5.03 -262.7 M0.7 -260.68 C2.71 -161.57, -0.21 -57.27, 1.17 -1.49 M2.92 -261.47 C3.59 -178.31, 2.59 -94.84, -0.31 0.03 M0 0 C0 0, 0 0, 0 0 M0 0 C0 0, 0 0, 0 0" stroke="#000000" stroke-width="1" fill="none"></path></g></g><mask></mask><g stroke-linecap="round"><g transform="translate(74.29211166925938 76.41132772964284) rotate(0 99.56848733532695 160.63607075686082)" fill-rule="evenodd"><path d="M0 0 C0 0, 0 0, 0 0 M0 0 C0 0, 0 0, 0 0 M0.48 7.05 C1.57 6.62, 2.38 3.89, 3.64 1.03 M0.39 6.73 C1.36 5.1, 1.46 3.8, 3.87 0.86 M-1.31 13.89 C4.41 10.62, 1.28 9.98, 7.46 0.61 M-0.85 12.21 C2.08 9.43, 6.51 6.72, 8.02 2 M-1.7 20.71 C1.12 11.85, 4.89 10.11, 12.26 5.86 M-1.77 19.35 C4.21 14.51, 9.35 8.18, 13.5 2.29 M1.67 22.34 C2.03 20.63, 4.2 17.85, 14.63 2.21 M0.84 23.79 C4.99 18.66, 7.66 13.09, 14.86 4.58 M-1.65 33.47 C7.23 22.12, 13.64 18.67, 21.92 3.83 M0.14 28.87 C7.58 23.36, 12.52 14.3, 22.12 6.22 M0.77 33.8 C6.93 28.84, 16.17 13.66, 28 8.52 M0.82 37.35 C8.1 27.67, 18.3 17.31, 26.84 8.64 M3.16 45.59 C4.36 35.06, 17.24 28.8, 32.98 12.15 M1.71 42.68 C8.36 32.04, 17.05 22.95, 29.47 7.03 M-2.62 50.14 C10.38 34.58, 28.56 20.36, 36.3 11.61 M-1.07 48.09 C11.17 39.15, 21.33 24.15, 35.89 8.02 M3.25 56.77 C18.83 37.9, 27.12 18.45, 38.5 7.09 M-0.38 54.23 C9.81 42.37, 17.13 32.84, 38.48 10.51 M1.06 63.11 C6.34 47.19, 17.3 35.13, 42.94 12.3 M1.83 62.06 C11.47 45.15, 22.98 32.06, 41.27 10.6 M1.88 68.08 C8.45 56.09, 18.19 47.96, 48.92 17.52 M0.21 68.43 C18.29 44.27, 38.77 23.78, 44.41 15.16 M-0.61 76.35 C20.04 47.8, 41.1 27.83, 48.04 12.78 M1.19 73.24 C17.88 51.16, 34.51 30.97, 51.89 15.72 M1.63 78.94 C16.56 56.59, 39.48 35.27, 54.02 18.69 M-1.88 78.57 C12.59 62.4, 29.1 47.34, 56.78 17.88 M-2.66 82.11 C23.4 53.81, 48.45 27.05, 59.07 13.61 M0.98 84.29 C13.22 67.69, 25.37 54.26, 60.94 15.14 M0.5 91.68 C22.89 68.72, 44.16 40.86, 66.98 16.73 M0.3 90.94 C24.97 62.17, 47.7 36.82, 63.49 18.54 M0.61 94.01 C17.17 72.2, 40.38 48.35, 70.9 18.23 M0.83 99.35 C20.53 72.18, 40.55 49.93, 69.94 17.56 M2.52 100.48 C25.29 80.97, 42.61 57.13, 71.02 21.63 M0.71 101.74 C18.45 83.17, 37.58 59.69, 73.36 20.94 M2.21 112.05 C22.29 83.22, 52.7 48.29, 75.77 22.71 M-1.36 108.93 C24.32 80.17, 49.31 49.97, 74.75 22.37 M1.1 116.17 C17.77 87.37, 42.1 64.62, 82.08 24.79 M-0.42 113.85 C28.99 81.03, 59.02 50.34, 78.9 22.31 M2.58 119.11 C16.7 102.09, 33.05 84.62, 81.29 21.49 M-1.34 122.53 C34.36 84.7, 66.32 45.55, 83.49 25.39 M2.35 126.92 C24.08 105.2, 48.16 76.34, 87.44 27.95 M-1.16 129.62 C18.92 107.86, 39.44 84.1, 90.89 26.31 M-3.8 133.94 C24.46 103.36, 51 74.23, 90.44 27.87 M2.11 133.57 C32.03 97.22, 60.78 61.63, 92.62 27.4 M3.76 143.31 C18.89 119.24, 43.6 94.66, 97.77 31.73 M0.66 139.78 C40.12 97.48, 77.24 53.19, 98.46 27.56 M2.89 147.92 C33.34 101.3, 72.55 57.23, 103.6 31.8 M-1.47 144.16 C25.09 115.06, 49.66 84.77, 100.93 27.85 M-1.82 154.76 C24.22 116.8, 60.5 87.28, 109.15 33.39 M-0.43 152.05 C31.34 117.25, 60.63 82.78, 107.05 29.35 M3.23 157.81 C30.51 130.28, 55.9 92.45, 112.49 29.6 M1.1 157.84 C29.43 119.92, 63.98 82.73, 111.49 30.61 M0.52 166.61 C31.22 130.9, 58.1 99.27, 112.97 32.56 M1.09 164.08 C36.49 124.6, 69.58 88.16, 112.37 33.42 M-2.88 170.73 C40.6 127.09, 87.45 74, 120.23 36.44 M1.3 172.6 C26.55 140.93, 54.64 106.46, 119.7 32.53 M-0.93 176.78 C41.46 129.99, 85.4 73.31, 124.04 35.73 M1.02 176.18 C42.05 129.02, 83.59 82.49, 124.49 36.44 M-0.14 184.67 C45.36 127.66, 85.22 83.85, 127.98 35.41 M0.93 181.36 C37.88 145.64, 70.56 103.95, 127.93 36.36 M2.51 192.26 C49.59 128.9, 104.69 75.67, 134.2 38.07 M0.73 188.24 C32.19 148.7, 66.44 110.61, 129.91 39.62 M-2.82 193.68 C56.28 130.38, 107.91 70.55, 133.79 42.55 M-1.06 193.19 C34.02 157.69, 68.76 118.75, 136.13 40.22 M-3.43 203.44 C51.84 141.29, 108.86 78.75, 140 37.42 M-1.52 200.26 C32.53 162.14, 63.42 127.74, 140.77 39.36 M-1.12 204.2 C34.87 164.63, 72.94 122.14, 142.54 41.81 M1.73 205.25 C34.29 168.37, 66.6 127.11, 144.77 42.84 M-1.12 211.15 C59.15 147.45, 119.87 74.39, 150.99 44.63 M-0.46 213.29 C57.94 146.84, 114.27 83.15, 148.81 41.64 M0.71 219.4 C54.59 157.69, 106.77 97.36, 154.43 42.11 M0.96 220.3 C52.09 159.08, 103.39 99.48, 154.29 44.03 M-3.04 222.68 C39.9 172.65, 86 125.24, 157.59 45.97 M1.21 226.49 C57.03 162.85, 111.18 100.46, 157.55 45.18 M1.82 230.67 C35.12 193.89, 70.96 149.85, 160.87 45.43 M1.23 232.47 C48.87 172.78, 98.1 116.21, 160.35 45.91 M3.48 238.65 C55.12 170.85, 108.72 112.04, 164.62 46.59 M-0.31 238.03 C54.87 173.8, 111 110.58, 166.52 46.86 M0.71 242.5 C57.96 173.93, 112.83 110.85, 166.75 51.85 M-1.35 242.35 C52.61 182.45, 107.52 120.44, 169.25 50.34 M1.67 248.1 C36.83 209.96, 72.71 165.27, 173.1 52.64 M-0.93 249.13 C41.65 200.64, 85.02 148.39, 174.24 51.74 M-2.25 255.66 C44.69 205.79, 93.75 146.73, 178.89 51.5 M-0.02 256.61 C67.81 181.68, 132.64 105.27, 177.23 50.7 M2.41 262.71 C46.38 205.47, 101.4 143.97, 183.14 50.6 M1.86 259.31 C63.03 186.99, 124.76 114.37, 180.93 51.58 M5.62 262.19 C58.64 202.33, 112.2 135.17, 183.63 53.62 M4.56 260.47 C64.5 192.31, 122.34 120.92, 186.32 54.62 M9.71 260.72 C51.98 215.49, 89.92 168.47, 189.81 55.96 M8.23 264.58 C45.86 218.18, 83.32 172.01, 189.92 54.57 M11.52 266.89 C61.01 209.33, 104.94 152.06, 196.02 55.83 M13.65 264.5 C62.76 207.74, 114.25 149.86, 193.42 56.79 M15.03 264.08 C56.31 223.34, 90.75 181.49, 196.73 61.25 M18.97 265.96 C82.99 189.14, 152.04 109.13, 196.85 58.48 M23.06 264.94 C75.5 207.46, 123.33 154.05, 201.64 65.54 M23.2 266.59 C71.07 208.79, 126.69 147.26, 197.7 63.28 M25.44 270.69 C90.38 195.72, 155.06 120.23, 200.12 72.47 M26.4 266.65 C78.91 211.23, 126.53 154.45, 198.37 71.44 M30.97 273.16 C91.34 195.41, 153.15 124.47, 199.53 74.36 M29.98 270.65 C92.43 194.66, 152.66 123.21, 197.23 75.35 M33.68 272.5 C81.32 211.65, 135.36 156.69, 200.53 80.8 M33.91 272.15 C91.6 202.73, 148.81 137.27, 197.8 84.01 M35.61 271.02 C91.7 215.88, 135.99 160.46, 196.85 88.86 M40.03 271.73 C82.47 222.29, 127.15 169.72, 199.02 88.83 M44.94 272.1 C102.75 201.78, 165.43 132.69, 197.7 97.14 M42.51 275.03 C86.65 221.14, 129.1 173.97, 197.04 92.93 M49.96 276.12 C99.06 212.13, 155.54 144.69, 201.75 101.49 M47.98 274.18 C79.19 233.88, 112.93 198.44, 198.28 99.6 M53.05 276.12 C84.9 239.92, 124.7 195.78, 199.39 109.96 M52.54 276.02 C97.78 219.15, 145.44 166.06, 198.46 105.55 M54.87 277.06 C102.49 224.14, 146.91 170.37, 200.05 111.4 M55.22 276.34 C92.97 235.7, 128.33 192.67, 198.68 112.41 M58.74 275.12 C94.44 239.25, 131.25 199.15, 201.31 117.69 M58.59 278.67 C101.21 231.67, 142.71 184.14, 197.9 119.98 M60.96 277.31 C102.71 239.71, 143.01 191.58, 202.3 125.33 M65.6 278.21 C101.56 234.84, 136.42 193.52, 199.18 124.19 M65.21 283.64 C104.9 238.42, 144.34 201.51, 200.03 129.88 M69.18 280.87 C109.53 229.82, 151.44 181.56, 198.22 131.2 M71.05 280.6 C104.72 240.21, 136.29 202.63, 203.47 136.74 M73.69 283.7 C97.62 256.39, 122.35 223.74, 200.89 137.82 M74.85 287.74 C121.51 226.61, 168.66 175.96, 200.16 139.25 M77.22 282.63 C111.98 242.82, 144.19 206.59, 199.5 141.43 M77.53 285.49 C110.53 253.61, 137.96 225.07, 201.75 146.16 M79.73 286.86 C130.65 233.22, 176.65 179.98, 199.16 147.1 M88.47 286.02 C104.98 255.75, 130.19 232.48, 200.85 158.03 M86.97 284.47 C122.29 246.31, 161.85 203.61, 197.63 154.45 M86.67 288.31 C126.84 240.19, 166.88 195.41, 202.03 163.42 M90.99 288.11 C113.93 258.59, 140.54 230.04, 199.66 160.49 M94.45 288.4 C120.49 255.81, 145.19 226.2, 202.33 163.22 M95.21 287.83 C117.14 259.34, 139.09 233.83, 200.94 166.55 M98.55 290.34 C124.44 255.05, 155.59 215.42, 198.23 174.83 M98.93 288.75 C129.57 250.7, 164.75 212.09, 198.4 173.11 M102.52 289.47 C120.63 266.37, 144.68 240.5, 198.18 176.46 M101.05 292.87 C125.99 265.15, 146.33 238.5, 198.11 178.72 M108.55 295.18 C134.27 261.83, 157.65 230.37, 197.6 183.34 M105.26 292.5 C141.23 251.72, 175.7 210.91, 201.68 182.81 M113.8 290.14 C129.43 269.11, 149.78 251.14, 199.37 192 M111.84 292.14 C141.1 253.66, 173.8 217.55, 198.1 192.63 M111.5 297.33 C144.22 264.44, 170.55 227.81, 196.82 200.5 M114.05 294.05 C133.26 268.73, 154.48 245.47, 202.13 198.09 M116.1 295 C149.15 261.1, 177.96 231.49, 202.25 200.71 M118.66 295.93 C148.16 265.51, 174.29 235.59, 198.19 202.64 M119.58 295.94 C151.24 270.97, 174.45 242.77, 197.91 206.51 M121.67 296.75 C143.48 273.59, 162.62 250.9, 198.7 210.15 M129.29 298.23 C153.27 268.56, 188.93 233.93, 196.53 214.1 M125.51 298.17 C144.22 281.64, 158.26 262.39, 199.98 215.8 M132.32 300.49 C158.33 275.93, 177.77 248.99, 200.28 222.18 M130.78 298.39 C156.15 271.58, 185.62 239.79, 200.62 220.9 M136.6 304.89 C157.11 280.62, 179.2 259.42, 197.3 224.29 M136.73 301.77 C150.91 284.89, 161.78 267.51, 201.37 227.83 M140 304.12 C156.92 283.46, 168.17 263.84, 200.7 228.95 M137.73 304.47 C154.15 288.56, 169.32 270.57, 199.47 230.89 M142.66 304.68 C158.12 285.33, 168.77 272.4, 197.03 236.03 M142.99 304.3 C160.02 285.16, 175.28 266.67, 200.58 239.16 M144.89 301.58 C155.98 291.45, 169.94 278.2, 201.32 240.89 M149.79 306.14 C160.31 292.44, 169.95 280.85, 201.12 243.4 M151.44 309.65 C159.69 291.59, 172.34 279.75, 197.56 250.7 M151.21 307.77 C164.03 291.37, 178.35 274.4, 200.15 250.9 M156.68 310.49 C171.46 288.68, 182.1 273.61, 201.69 256.67 M156.59 305.52 C175.5 285.91, 189.85 267.4, 201.75 256.38 M161.65 311.5 C170.34 298.25, 183.53 288.19, 202.76 265.55 M160.02 307.88 C169.41 298.52, 176.86 289.37, 199.57 264.09 M162.44 313.11 C171.46 302.35, 184.63 284.66, 198.69 267.63 M164.08 309.4 C176.64 298.31, 187.12 285.33, 199.88 270.47 M172.01 307.54 C179.54 294.49, 195.96 283.91, 199.92 276.72 M169 312.03 C174.83 304.17, 181.88 295.46, 200.7 274.72 M176.57 310.06 C183.16 301.24, 188.49 296.06, 202.62 281.69 M172.46 311.02 C178.05 304.29, 186.16 300.27, 200.31 280.99 M176.64 313.96 C184.77 304, 195.08 296.39, 203.66 282.7 M178.04 312.54 C184.96 303.54, 195.15 294.27, 199.65 285.21 M180.21 317.6 C187.04 306.71, 198.38 298.35, 205.12 291.43 M179.65 315.3 C190.08 307.16, 196.01 299.96, 202.17 293.97 M183.05 315.59 C190.17 314.89, 193.57 305.68, 205.31 295.36 M185.36 316.43 C192.8 310.53, 195.04 303.34, 200.22 299.41 M190.49 321.02 C192.89 316.09, 196.86 309.76, 202.95 305.86 M190.46 316.98 C195.17 313.7, 195.62 308.39, 202.67 305.92 M196.48 319.25 C197.97 316.14, 197.68 314.71, 203.87 308.71 M193.95 319.01 C196.29 316.9, 199.65 312.81, 202.16 310.17 M199.12 320.53 C200.32 319.31, 200.98 318.42, 201.07 317.41 M199.14 320.2 C199.28 319.08, 200.64 317.98, 201.65 316.9" stroke="#fab005" stroke-width="0.5" fill="none"></path><path d="M2.29 -0.14 C55.91 18.05, 116.56 34.07, 200.31 55.05 M0.69 -0.97 C65.36 18.36, 132.65 39.5, 195.87 58.52 M196.98 56.24 C194.77 116, 193.86 179.02, 201.25 320.39 M196.97 57.82 C195.9 149.65, 200.02 241.54, 200.61 319.72 M202.16 322.24 C126.94 302.1, 53.52 277.95, 0.51 261.99 M201.62 318.87 C148.05 305.52, 94.81 293.03, -0.63 259.85 M-1.7 258.44 C5.8 156.58, 4.02 55.86, -0.32 0.01 M-0.3 259.22 C-3.86 189.47, -3.85 121.55, -0.71 0.72 M0 0 C0 0, 0 0, 0 0 M0 0 C0 0, 0 0, 0 0" stroke="#000000" stroke-width="1" fill="none"></path></g></g><mask></mask><g stroke-linecap="round"><g transform="translate(239.47522721788414 15.485045231878757) rotate(0 -79.74938490981458 51.921752652153344)" fill-rule="evenodd"><path d="M-162.34 62.94 C-162.34 62.94, -162.34 62.94, -162.34 62.94 M-162.34 62.94 C-162.34 62.94, -162.34 62.94, -162.34 62.94 M-157.11 64.49 C-157.47 63.09, -155.06 62.57, -154.56 59.49 M-157.79 63.93 C-157.2 62.72, -156.01 62.15, -154.59 59.99 M-152.71 68.23 C-150.74 62.68, -150.91 60.29, -148.49 55.85 M-153.32 65.61 C-152.85 62.77, -150.95 60.42, -147.45 57 M-146.61 67.89 C-150.46 66.44, -145.71 57.95, -137.93 52.52 M-151 67.65 C-144.42 63.61, -142.96 57.81, -138.48 54.64 M-147.94 65.63 C-144.32 64.05, -139.38 62.58, -130.27 49.22 M-145.21 68.77 C-137.97 60.21, -133.6 54, -131.35 49.42 M-143.44 69.96 C-140.29 66.05, -133.76 55.19, -123.1 49.69 M-140.65 68.62 C-137.73 62.68, -133.85 57.85, -122.02 46.13 M-135.81 69.03 C-126.84 62.53, -119.35 48.53, -113.18 42.96 M-135.87 70.87 C-128.91 59.83, -118.99 51.18, -112.55 41.37 M-134.78 73.91 C-124.13 57.34, -109.52 49.24, -104.24 37.47 M-132.91 71.56 C-124.14 62.33, -117.22 56.11, -106.41 39.96 M-131.02 72.97 C-117.27 64.63, -108.87 56.52, -97.81 39.95 M-128.28 71.99 C-119.85 62.53, -111.25 50.5, -96.12 36.58 M-126.34 74.13 C-108.58 60.76, -97.84 48.57, -88.88 30.65 M-123.86 75.67 C-115.48 63.45, -104.98 53.08, -87.43 33.75 M-116.63 75.84 C-113.01 60.56, -99.13 46.49, -84.08 34.13 M-118.43 73.88 C-103.66 56.25, -88.66 39.52, -82.19 31.12 M-119.48 74.32 C-107.78 60.64, -93.57 50.85, -73.26 30.48 M-115.87 75.55 C-101.36 57.49, -86.06 37.85, -74.55 27.41 M-112.37 78.37 C-95.22 60.88, -74.34 40.76, -60.48 22.32 M-112.04 76.68 C-93.36 57.47, -79.78 39.51, -62.54 22 M-108.26 76.54 C-92.33 61.87, -80.52 42.37, -54.18 21.08 M-106.98 78.19 C-89.42 56.09, -68.27 35.41, -54.9 19.81 M-106.55 80.2 C-88.42 63.89, -72.91 46.49, -50.14 17.97 M-104.49 79.53 C-85.1 62.88, -67.87 45.28, -46.63 16.93 M-99.29 77.74 C-74.84 53.65, -54.31 28.31, -43.08 15.22 M-98.93 79.56 C-82.83 61.48, -61.5 38.17, -39.27 14.5 M-93.46 84.83 C-78.14 63.54, -58.08 42.6, -28.85 8.87 M-94.17 81.45 C-73.84 58.93, -50.82 32.39, -31.66 12.05 M-93.18 82.71 C-72.34 62.47, -48.06 38.26, -24.06 4 M-90.45 81.54 C-67.21 53.65, -40.9 25.41, -24.21 5.44 M-82.65 85.15 C-68.16 64.51, -52.29 45.73, -16.98 1.72 M-87.85 86.95 C-65.99 61.03, -41.47 36.02, -14.46 4.43 M-85.78 89.67 C-64.83 63.65, -46.63 43.84, -5.81 1.44 M-82.63 85.46 C-62.51 62.8, -43.01 42.07, -7.9 1.57 M-80.36 84.38 C-51.83 56.14, -24.58 29.11, 1.8 -3.4 M-77.99 86.92 C-44.91 54.73, -17.33 17.29, -2.22 -1.4 M-73.65 87.16 C-58.85 71.25, -44.44 48.18, 5.8 1.71 M-72.3 89.09 C-52.17 64.44, -32.88 42.44, 1.22 0.05 M-69.38 92.68 C-48.94 67.28, -31.05 45.81, -1.27 6.27 M-70.7 91.25 C-51.44 68.86, -30.67 48.38, 1.69 9.84 M-65.91 90.63 C-48.59 73.85, -32.96 53.86, 3.52 13.58 M-63.92 91.12 C-42.52 62.51, -16.66 33.92, 0.28 12.68 M-62.52 92.03 C-45.52 73.81, -34.62 63.79, 5.35 17.74 M-59.16 93.71 C-37.14 66.52, -13.99 38.93, 3.17 21.72 M-57.65 91.4 C-34.77 64.55, -12.77 46.39, 0.62 29.62 M-54.99 92.2 C-36.91 71.8, -18.75 50.24, 1.88 27.14 M-55.83 93.82 C-29.43 75.69, -10.86 53.75, 1.42 29.16 M-52.85 93.55 C-38.48 76.76, -21.28 59.77, 1.25 31.05 M-47.26 98.15 C-40.96 81.37, -25.91 70.2, 1.91 42.32 M-49.34 96.4 C-31.75 78.31, -13.13 55.84, 1.08 39.09 M-42.03 95.79 C-35.9 87.43, -26.62 74.81, 2.09 41.6 M-43 96.43 C-30.11 82.83, -17.88 65.14, 3.31 43.58 M-41.75 101.94 C-25.59 84.95, -15.71 75.9, -0.45 54.56 M-38.55 100.24 C-28.71 85.25, -17.21 70.81, 3.21 50.64 M-38.44 102.58 C-29.67 86.61, -15.69 79.01, 3.88 56.76 M-34.47 98.97 C-24.51 88.52, -13.44 77.15, 3.05 55.79 M-28.77 96.72 C-18.35 86.52, -3.87 69.11, 1.1 60.09 M-29.83 101.17 C-25.71 92.44, -16.85 85.31, 3.98 62.85 M-28.33 98.68 C-18.65 97.78, -10.49 86.15, 0.05 69.7 M-27.17 101.7 C-15.7 89.89, -5.95 78.13, 3.79 67.55 M-21.9 100.31 C-15.96 93.69, -7.59 88.36, 0.15 72.54 M-23.42 102.58 C-15.84 95.93, -9.13 90.73, 4.03 76.68 M-18.28 105.98 C-10.06 100.28, -7.71 89.52, -0.81 81.85 M-17.36 102.62 C-12.06 98.5, -3.86 88.72, 1.18 83.19 M-14.02 107.88 C-7.39 102.19, -4.13 93.03, -0.33 86.16 M-13.93 107.3 C-9.58 97.55, -1.58 93.76, 4.35 85.81 M-11.33 108.54 C-6.27 99.6, -0.17 101.32, 4.98 89.91 M-10.87 106.21 C-6.69 102.66, -0.94 96.26, 3.07 92.1 M-6.09 106.34 C-5.87 105.85, -1.34 103.46, 2.67 100.17 M-4.43 107.2 C-2.49 104.41, 0.04 102.88, 1.68 100.6 M-1.74 108.31 C-0.39 108.58, 0.9 107.47, 2.78 105.21 M-0.71 108.71 C-0.48 108.33, 0.43 107.53, 1.86 105.25 M-162.33 63.27 C-162.33 63.27, -162.33 63.27, -162.33 63.27 M-162.33 63.27 C-162.33 63.27, -162.33 63.27, -162.33 63.27 M-154.38 66.4 C-155.04 63.89, -157.82 62.91, -158.33 61.05 M-153.95 65.14 C-154.87 64.96, -156.5 63.56, -158.45 62.13 M-146.1 67.03 C-147.57 63.59, -148.27 63.27, -154.74 59.57 M-144.76 68.8 C-147.47 66.36, -147.29 63.57, -153.36 59.22 M-132.28 67.6 C-137.65 65.51, -142.85 59.83, -148.58 58.02 M-134.81 69.25 C-140.61 68.03, -140.94 63.4, -148.71 57.59 M-122.57 76.36 C-133.75 70.87, -134.69 68.86, -145.54 55.03 M-124.47 73.06 C-130.15 68, -138.45 63.62, -143.95 55.89 M-114.72 78.19 C-127.4 69.34, -136.54 63.07, -138.33 56.93 M-117.03 75.71 C-124.89 67.24, -134.74 61.9, -140.15 53.77 M-105.23 77.77 C-119.4 67.13, -125.88 64.59, -134.19 55.01 M-106.65 77.33 C-115.83 72.73, -120.15 65.63, -136.95 51.78 M-102.25 80.8 C-112.3 71.93, -119.35 59.72, -129.42 51.17 M-99.26 79.79 C-108.98 74.15, -116.47 66.83, -131.63 52.23 M-88.89 81.6 C-101.27 78.15, -109.78 67.16, -131.02 51.63 M-89.37 85.73 C-103.37 71.18, -113.56 60.45, -130.18 48.36 M-82.7 82.75 C-90.28 76.48, -94.98 73.67, -122.46 44.7 M-80.93 85.66 C-98.9 69.71, -113.43 56.75, -126.44 49.4 M-74.72 92.33 C-87.65 79.62, -101.54 61.95, -117.42 42.54 M-71.75 90.49 C-89.94 71.31, -108.22 58.63, -121.17 45.76 M-61.19 90.85 C-77.99 81.02, -89.56 66.13, -117.52 42.88 M-62.56 89.87 C-75.8 78.88, -91.92 66.61, -117.24 46.08 M-55.31 91.8 C-74.78 77.74, -95.07 63.27, -110.13 46.78 M-54.2 92.13 C-70.09 78.31, -88.71 65.87, -110.73 42.42 M-46.97 100.62 C-61.24 83.8, -82.02 68.18, -106.04 44.4 M-44.7 98.6 C-61.35 82.66, -76.66 69.21, -110.03 39.35 M-38.57 95.22 C-50.68 85.18, -62.04 74.66, -105.28 40.74 M-34.46 99.5 C-62.24 76.55, -85.22 56.3, -103.01 39.09 M-28.67 104.97 C-52.94 78.53, -74.72 56.13, -102.82 41.38 M-27.28 100.35 C-45.28 82.41, -67.67 69.02, -100.11 38.62 M-15.82 103.19 C-51.07 80.73, -75.06 48.92, -94.36 38.22 M-19.58 105.77 C-42.26 81.31, -69.19 58.74, -97.48 34.83 M-6.27 110.18 C-40.97 80.7, -63.42 55.43, -90.05 35.26 M-9.47 105.93 C-37.78 78.9, -72.3 52.24, -92.09 33.61 M-1.75 109.68 C-27.71 89.63, -49.44 65.59, -87.49 35 M2.08 108.39 C-22.43 87.82, -47.56 66.14, -88.12 31.68 M-0.97 103.37 C-21.37 86.11, -44.07 64.28, -80.53 29.56 M0.38 103.95 C-17.31 86.99, -36.09 71.46, -83.12 31.02 M3.47 102.27 C-17.4 87.9, -30.56 69.36, -76.44 30.33 M-1.26 97.41 C-27.92 73.82, -58.4 47.73, -78.55 28 M-2.01 94.89 C-13.16 79.77, -34.11 66, -72.71 27.16 M-2.04 91.14 C-25.42 70.14, -49.07 48.82, -73.96 27.86 M-3.47 85.44 C-20.56 75.24, -37.01 50.75, -70.06 22.75 M1.52 86.66 C-28.35 66.3, -51.78 43.54, -69.39 26.47 M-3.2 82.35 C-18.04 68.39, -38.87 51.53, -70.15 26.34 M-1.57 80.49 C-20.71 63, -44.94 41.76, -68.41 23.47 M-3.4 81.27 C-16.5 68.32, -29.13 58.04, -65.36 23.54 M2.12 78.56 C-14.05 64.67, -32.33 50.22, -61.34 23.39 M-2.04 69.54 C-19.53 53.07, -41.16 33.45, -60.53 18.04 M1.33 72.05 C-20.03 49.37, -44.68 32.91, -56.32 20.79 M-0.5 65.23 C-11.17 58.03, -21.79 41.99, -54.71 17.36 M-1.06 67.82 C-21.74 48.68, -40.56 30.35, -54.43 21.39 M0.59 57.61 C-13.38 50.12, -35.05 30.78, -46.91 18.61 M-1.11 60.2 C-17.07 47.26, -36.74 29.93, -48.86 19.13 M1.67 54.17 C-17.66 40.92, -27.34 30.93, -41.85 18.24 M1.05 57.47 C-14.73 40.01, -32.52 25.08, -43.98 17.4 M1.21 53.75 C-13.36 38.04, -28.18 25.39, -39.72 13.77 M0.8 50.29 C-10.61 41.01, -21.95 32.79, -42.52 14.07 M0.19 42.29 C-14.31 31.4, -28.48 25.02, -33.92 13.58 M0.22 46.86 C-9.81 39.62, -20.58 27.75, -36.64 14.68 M-1.33 44.54 C-10.93 29.19, -23.75 20.71, -32.79 14.61 M-0.84 40 C-12.05 27.71, -22.08 19.15, -35.09 9.52 M0.72 33.2 C-10.54 26.02, -8.92 21.4, -25.4 12.16 M-1.11 35.65 C-8.39 30.22, -13.38 22.57, -30.35 10.79 M-1.27 31.93 C-4.4 27.12, -13.8 20.56, -27.29 9.6 M1 31.3 C-5.95 21.88, -15.33 17.43, -25.7 5.7 M1.6 23.85 C-1.42 18.12, -10.99 14.76, -22.18 4.14 M-1.79 23.81 C-6.55 18.32, -8.27 17.39, -22.39 5.61 M3.03 22.56 C-4.71 10.14, -12.58 4.85, -15.78 4.57 M1.32 19.82 C-3.76 16.32, -6.08 13.79, -18.75 3.14 M1.5 12.75 C-3.14 10.1, -6.83 9.65, -9.98 1.26 M1.72 15.32 C-2.4 10.78, -6.25 7.76, -13.25 1.49 M1.26 10.94 C-1.01 4.48, -7.12 1.72, -7.17 -0.44 M0.04 7.96 C-3.9 6.85, -5.35 3.07, -8.25 1.92 M0.25 1.85 C-1.39 1.86, -3.92 -0.26, -5.54 -1.92 M0.26 3.21 C-1.33 1.83, -2.45 1.07, -4.07 -1.12" stroke="#865d00" stroke-width="0.5" fill="none"></path><path d="M-2.83 -1.3 C0.96 23.37, 5.36 49.3, 1.52 108.64 M-1.09 -1.91 C0.63 30.49, -0.17 62.33, -1.4 107.39 M1.78 107.62 C-47.67 96.67, -93.11 82.24, -160.39 62.66 M-1.92 109.33 C-54.8 93.97, -112.41 78.7, -161.02 61.26 M-161.69 67.09 C-107.94 41.73, -56.66 20.58, -2.67 -5.49 M-162.5 61.2 C-101.55 41.87, -39.38 14.62, 0.48 -3.34 M-0.86 -2.28 C-0.85 -1.86, -0.74 -1, -0.15 0.27 M-1.44 -2.02 C-1.04 -1.17, -0.55 -0.55, -0.09 -0.11" stroke="#000000" stroke-width="1" fill="none"></path></g></g><mask></mask><g stroke-linecap="round"><g transform="translate(261.88490529212254 -13.711025317978056) rotate(332.4805984382883 51.5035632341004 60.3433997377832)" fill-rule="evenodd"><path d="M0 0 C0 0, 0 0, 0 0 M0 0 C0 0, 0 0, 0 0 M-5.7 14.09 C-5.59 10.13, -3.07 4.78, 2.23 5.58 M-8.18 13.92 C-5.09 9.97, -1.71 6.53, 2.15 1.73 M-18.2 31.88 C-9.04 17.38, 0.65 10.15, 7.11 2.22 M-12.62 29.81 C-8.66 20.83, -1.63 15.18, 4.4 4.46 M-24.01 43.37 C-11.11 33.59, 0.28 17.61, 11.36 4.58 M-20 42.02 C-10.78 29.85, -2.07 18.04, 8.02 8.57 M-32.94 60.27 C-20.02 42.51, -8.66 36.19, 10.3 10.88 M-30.23 56.82 C-19.41 43.9, -5.99 30.25, 13.72 8.92 M-35.05 74.75 C-16.52 47.98, 2.44 27.61, 18.08 12.64 M-37.07 71.55 C-24.78 59.13, -13.55 44.16, 17.24 12.88 M-45.17 83.98 C-26.23 71.02, -14.12 51.63, 17.14 17.15 M-41.82 85.87 C-21.71 64.63, -4.33 40.38, 18.18 16.5 M-45.15 100.47 C-17.57 71.41, 5.26 40.21, 21.36 20.76 M-48.29 98.61 C-27.04 72.4, -3.84 48.51, 22.51 16.37 M-42.13 101.68 C-18.94 76.1, 2.31 44.4, 22.45 18.34 M-45.61 100.07 C-25.45 77.08, -7.38 57.86, 24.32 21.73 M-45.23 101.5 C-18.76 71.15, 2.9 49.98, 31.69 21.56 M-41.61 102.1 C-23.85 81.64, -5.31 59.82, 27 23.39 M-41.41 102.78 C-12.17 78.15, 11.84 52.75, 34.39 28.37 M-39.26 105.28 C-15.27 76.33, 9.19 49.47, 32.98 25.8 M-36.31 111.66 C-10.48 85.99, 13.21 55.4, 36.94 28.28 M-34.14 107.86 C-12.49 81.75, 16.14 50.34, 34.23 26.98 M-32.48 111.33 C-7.96 78.48, 23.59 50.6, 40.57 32.08 M-33.34 110.13 C-9.83 86.91, 12.1 60.64, 37.34 30.85 M-30.31 115.26 C-8.93 92.69, 10.72 67.26, 40.4 29.08 M-28.96 114.29 C-8.49 94.71, 9.81 71.46, 42.03 31.14 M-25.58 112.71 C-10.72 95.38, 2.66 81.8, 43.92 36.64 M-28.31 116.59 C-6.37 93.92, 11.47 75.19, 42.89 35.47 M-21.81 116.73 C2.22 89.95, 22.95 65.72, 48.68 38.43 M-22.87 117.94 C-3.16 95.61, 16.16 75.16, 46.54 38.28 M-18.32 117.16 C1.15 100.09, 11.6 82.31, 52.75 41.87 M-17.01 115.56 C10.77 87.25, 33.48 58.41, 49.39 40.91 M-10.67 116.13 C0.29 101.46, 14.7 81.43, 53.79 43.47 M-12.99 117.07 C4.34 100.53, 18.18 84.8, 52.18 43.51 M-6.8 116.56 C16.78 91.11, 40.73 66.15, 54.78 42.47 M-7.83 115.66 C8.44 99.74, 24.91 82.63, 56.99 45.38 M-0.67 115.66 C20.74 97.37, 40.13 72.23, 63.13 46.2 M0.54 118.16 C10.83 101.19, 23.39 87.44, 57.75 48.88 M2.88 118.18 C14.11 99.31, 34.6 86.84, 61.07 47.5 M3.72 116.95 C21.39 95.74, 40.98 70.93, 62.07 51.52 M9.79 118.15 C22.47 101.98, 35.88 80.56, 63.44 51 M7.93 118.34 C32.53 93.84, 51.08 71.14, 64.31 50.87 M12.63 119.39 C28.41 99.72, 48.89 79.6, 72.05 58.63 M13.15 117.66 C28.68 100.24, 42.71 80.88, 67.37 56.65 M22.29 116.02 C39.97 98.95, 62.84 70.04, 74.85 58.87 M20.29 118.44 C33.89 100.08, 48.51 85.51, 73.23 58.64 M25.76 114.19 C44.9 100.3, 58.46 81.75, 75.57 56.45 M24.26 116.72 C34.07 104.51, 44.48 95.59, 75.95 59.04 M33.18 121.35 C51.45 101.15, 64.71 75.45, 76.89 61.69 M28.44 116.98 C44.95 101.78, 56.44 86.27, 76.23 64.32 M32.95 114.96 C50.15 100.6, 60.37 92.07, 82.82 67.89 M35.15 119.47 C48.99 103.15, 58.32 91.6, 79.15 65.39 M38.81 119.81 C53.98 100.23, 70.76 80.14, 84.44 69.7 M40.13 120.15 C50.28 104.77, 65.69 89.46, 83.31 66.45 M47.57 117.71 C60.02 105.61, 68.69 92.63, 86.34 72.51 M45.61 118.98 C62.38 97.17, 79.14 79.73, 86.62 69.09 M46.9 115.99 C64.97 103.95, 77.72 89.79, 89.73 73.79 M51.45 119.1 C63.47 106.51, 74.04 91.71, 92.79 72.25 M55.06 120.05 C69.17 103.3, 80.62 86.56, 90.11 76.76 M54.35 117.96 C64.57 108.56, 74.35 98.91, 92.38 76.48 M62.6 123.06 C78.59 103.42, 87.04 88.34, 100.43 79.71 M60.82 119.65 C68.68 110.43, 80.56 97.31, 97.32 75.9 M63.54 119.25 C73.08 112.94, 81.75 96.77, 97.45 77.45 M65.78 118.84 C74.15 112.4, 81.95 105.44, 98.7 78.3 M74.37 120.6 C83.16 102.19, 91.32 93.35, 103.53 79.58 M70.92 120.07 C79.88 109.62, 85.35 104.29, 103.85 82.01 M77.19 122.17 C81.41 111.58, 87.02 103.06, 109.02 88.01 M75.24 117.73 C83.37 113.28, 90.51 103.89, 106.18 84.02 M81.42 115.78 C91.46 114.01, 98.15 100.5, 111.4 86.16 M80.12 120.32 C90.75 109.02, 99.58 99.47, 107.62 87.87 M82.9 119.32 C96.3 109.65, 103.26 103.96, 112.94 92.76 M87.77 118.42 C96.53 110.61, 102.99 102.14, 111.75 88.03 M90.97 121.43 C98.31 115.28, 104.88 107.85, 111.83 95.07 M91.74 120.02 C100.99 110.34, 107.39 100.03, 114.23 93.73 M95.58 118.83 C103.19 111.49, 108.88 104.76, 120.63 98.4 M95.34 118.41 C104.49 110.76, 112.76 104.64, 120.63 97.14 M104.99 121.99 C107.81 111.33, 116.4 104.97, 119.94 96.32 M100.78 120.52 C110.9 111.62, 116.3 104.56, 123.55 98.24 M105.54 119.69 C109.04 118.44, 117.33 108.74, 124.9 96.22 M108.26 118.09 C111.57 117.5, 113.75 112.83, 124.37 100.88 M109.44 123.51 C115.58 118.98, 117.99 113.15, 128.23 100.53 M111.18 118.81 C117.19 118.02, 119.3 113.23, 127.78 100.76 M120.46 117.55 C122.84 116.08, 128.66 111.5, 129.97 104.44 M117.16 122.61 C121.18 114.22, 126.49 111.39, 130.83 105.71 M124.8 119.84 C128.09 113.88, 133.14 114.12, 136.37 109.04 M122.57 121.56 C123.2 117.26, 127.27 116.85, 133.53 107.6 M127.64 119.1 C128.32 117.38, 134.8 116.41, 138.8 108.38 M127.33 119.86 C129.69 119.35, 130.86 116.61, 136.54 110.4 M132.84 119.32 C134.19 119.92, 134.18 120.07, 140.35 111.39 M132.28 120.11 C135.45 117.6, 137.88 116.25, 140.94 112.08 M137.25 120.74 C141.07 118.52, 141.88 115.68, 145.02 114.78 M139.11 120.79 C139.23 119.69, 140.73 117.26, 143.55 113.85 M142.89 120.85 C144.13 121.12, 146.22 119.97, 146.33 118 M143.61 120.61 C144.43 119.97, 145.74 118.5, 147.51 117.44 M149.19 121.41 C149.49 121.29, 149.42 121.11, 149.79 120.17 M149 121.38 C149.09 120.93, 149.72 120.61, 150.11 119.86 M-49.09 97.63 C-49.09 97.63, -49.09 97.63, -49.09 97.63 M-49.09 97.63 C-49.09 97.63, -49.09 97.63, -49.09 97.63 M-24.75 115.16 C-31.77 111.84, -32.91 107.75, -47.83 95.37 M-22.93 112.3 C-33.55 106.33, -39.45 98.12, -47.76 94.75 M-16.27 116.96 C-27.12 110.22, -30.36 104.68, -46.94 92.61 M-16.99 113.61 C-26.66 105.5, -41.06 93.97, -47.34 89.5 M-13.37 111.6 C-21.56 102.89, -34.24 95.78, -40.73 85.22 M-13.33 114.22 C-19.53 109.01, -27.09 99.76, -42.46 85.82 M-6.5 113.22 C-13.64 103.78, -30.91 98.34, -43.3 86.76 M-4 112.43 C-15.48 107.7, -21.78 100.1, -40.2 83.87 M-2.6 117.8 C-6.72 103.36, -15.33 101.22, -38.73 78.41 M1.69 113.72 C-11.96 102.76, -25.47 91.71, -38.68 79.09 M4.19 115.59 C0.87 108, -11.09 99.17, -34.81 74.69 M9.14 114.5 C-6.1 103.67, -17.66 91.6, -38.28 75.32 M10.03 116.14 C-3.65 98.78, -19.94 87.64, -36.78 69.18 M14.54 114.57 C-3.15 99.54, -20.71 84.68, -36.66 69.91 M19.62 118.12 C6.02 103.94, -3.71 90.28, -37.09 68.31 M21.71 114.26 C2.4 98.57, -18.33 81.87, -35.97 66.86 M24.42 119.02 C8.26 99.62, -9.17 84.78, -29.17 61.1 M27.07 115.52 C4.61 94.94, -17.65 73.71, -33.94 65.94 M36.97 116.92 C14.28 101.76, -1.33 83.56, -29.14 60.89 M32.4 115.11 C17.64 99.37, 0.95 85.05, -30.99 59.81 M36.31 119.56 C20.43 93.73, 0.86 76.79, -25.59 59.14 M37.07 116.99 C19.78 99.24, -0.11 80.6, -29.38 59.15 M45.3 116.78 C21.47 96.45, 0.23 80.88, -25.33 51.1 M45.85 116.12 C25.47 96.05, 5.65 79.89, -28.34 53.79 M48.33 118.24 C24.29 98.44, -2.66 72.67, -27.11 53.64 M53.29 115.65 C20.63 90.63, -5.39 68.18, -23.16 49.83 M60.57 117.86 C43.93 101.09, 20.54 81.25, -19.41 42.96 M59.64 114.64 C39.79 103.45, 25.3 87.08, -24.36 46.74 M65.48 118.91 C43.94 92.47, 16.73 72.78, -18.17 44.33 M62.9 116.54 C43.08 97.37, 20.47 80.75, -20.77 42.55 M73.08 119.73 C42.09 90.96, 24.05 73.19, -16.51 37.88 M71.78 118.34 C39.18 88.28, 8.6 61.81, -18.69 38.91 M74.14 115.49 C56.34 98.03, 35.47 79.26, -14.56 32.29 M78.5 115.67 C47.55 91.13, 19.29 68.46, -16.99 34.24 M82.52 115.97 C51.9 91.11, 27.39 67.85, -17.12 34.63 M83.73 115.9 C43.57 81.93, 3.35 47.47, -14.28 32.87 M88.56 114.6 C56.41 90.93, 29.7 61.45, -15.48 28 M88.64 118.68 C46.72 81.14, 8.7 49.71, -11.95 26.12 M96.45 116.9 C60.62 89.79, 23.31 58.99, -9.12 21.37 M94.86 115.62 C72.67 94.79, 43.43 70.3, -13.39 25.48 M97.87 114.21 C72.48 85.41, 39.32 61.94, -11.49 19.28 M100.8 119.52 C71.6 90.61, 35.95 62.43, -11.06 19.71 M109.32 120.16 C67.97 86.23, 29.08 53.22, -7.75 15.62 M109.53 116.1 C61.38 80.02, 15.04 37.39, -9.62 15.94 M117.58 115.69 C69.16 79, 27.4 41.89, -8.52 11.36 M112.91 116.48 C80.55 86.64, 39.93 51.73, -5.06 12.85 M121.95 114.83 C92.9 94.4, 69 75.76, -7.63 8.31 M120.48 118.28 C70.94 76.18, 18.23 30.99, -3.84 9.75 M128.55 118.45 C81.29 80.75, 36.19 35.13, -3.88 2.84 M128.32 118.79 C91.77 91.88, 57.14 61.27, -1.99 7.72 M136.51 115.99 C85.49 79.17, 45.81 41.48, 0.47 3.03 M131.92 120.06 C81.71 70, 27.81 25.81, -1.02 2.07 M140.28 119.26 C89.75 73.28, 43.6 32.52, -2.27 1.67 M139.07 118.03 C99.84 86.33, 65.31 53.8, 0.77 -1.23 M147.08 115.46 C121.67 97.87, 105.25 82.94, 75.42 59.72 M145.98 119 C121.36 95.96, 96.7 76.76, 75.55 57.29" stroke="#865d00" stroke-width="0.5" fill="none"></path><path d="M-0.44 -2.32 C47.21 34.85, 89.75 72.15, 151 123.01 M-0.22 0.23 C34.97 34.53, 71.9 60.57, 151.75 121.59 M151.63 122.91 C103.87 118.96, 54.8 116.58, -24.09 116.82 M153.77 120.28 C89.26 119.2, 26.44 115.86, -25.43 117.57 M-23.68 118.37 C-33.9 112.25, -44.29 99.59, -45.6 101.28 M-26.37 118.24 C-32.17 111.31, -35.18 105.59, -50.5 96.55 M-47.91 93.81 C-38.83 73.97, -27.39 51.85, 0.96 -0.76 M-50.76 98.39 C-36.05 74.63, -23.65 48.28, 0.87 0.57 M0 0 C0 0, 0 0, 0 0 M0 0 C0 0, 0 0, 0 0" stroke="#000000" stroke-width="1" fill="none"></path></g></g><mask></mask><g stroke-linecap="round"><g transform="translate(271.070197896541 133.30876273411377) rotate(0 81.5990848387454 90.39366402183617)" fill-rule="evenodd"><path d="M0 0 C0 0, 0 0, 0 0 M0 0 C0 0, 0 0, 0 0 M-1.65 6.23 C0.89 1.07, 6.21 0.65, 10.26 -1.8 M-1.18 5.89 C1.19 3.74, 4.11 -0.08, 9.92 -2.85 M-1.71 9.56 C6.78 3.87, 13.51 -4.97, 19.02 -11.31 M-0.85 11.69 C5.6 6.08, 10.43 -3.09, 19.64 -10.23 M-0.86 20.95 C6.4 10.11, 15.58 0.12, 29.24 -12.35 M0.38 17.38 C7.01 7.69, 16.52 -1.49, 26.55 -14.31 M-1.78 21.08 C11.26 13.32, 21.94 -2.02, 36.42 -16.82 M-1.54 23.44 C10.15 12.72, 21.34 1.08, 38.5 -17.58 M0.92 27.98 C11.99 15.7, 26.34 2.17, 42.7 -20.08 M1.13 30.37 C15.93 12.04, 31.49 -2.75, 44.39 -23.4 M2.41 37.95 C21 12.45, 38.34 -5.9, 55.8 -26.98 M1.25 38.07 C14.06 18.27, 31.47 0.41, 56.39 -27.85 M3.45 46.11 C18.5 21.8, 38.24 -0.72, 64.75 -31.31 M-0.05 40.99 C18.74 21.9, 35.38 1.3, 65.04 -32.6 M2.18 50.86 C21.64 19.38, 41.71 -5.66, 71.7 -35.31 M1.77 47.26 C31.07 16.03, 57.98 -16.09, 74.46 -33.76 M0.45 50.86 C23.62 30.38, 55.68 -3.63, 81.62 -35.95 M0.43 54.29 C15.9 36.41, 33.85 15.91, 83.36 -41.52 M0.3 61.36 C22.97 40.39, 48.48 15.05, 94.06 -44.42 M-1.37 59.66 C20.99 36.09, 46.54 11.06, 92.22 -45.05 M2.34 71.1 C35.77 27.95, 65.92 -6.42, 102.92 -49.59 M-2.17 68.74 C24.42 37.88, 46.79 10.73, 102.46 -49.33 M-2.48 70.9 C28.49 43.24, 55.99 13.88, 110.83 -53.07 M1.38 73.84 C31.25 40.09, 58.73 7.92, 110.13 -55.56 M-1.09 82.08 C35.02 37.1, 72.7 -8.7, 117.64 -60.9 M1.68 81.28 C33.56 40.21, 65.79 1.62, 117.82 -58.26 M0.02 81.54 C24.13 56.83, 54.66 25.5, 126.71 -62.61 M1.89 83.06 C31.88 52.45, 58.26 19.87, 128.33 -61.68 M2.96 90.11 C53.05 32.04, 102.21 -23.58, 136.91 -66.73 M-0.13 91.71 C37.68 49.82, 72.92 7.94, 136.1 -68.44 M2.26 96.88 C42.29 47, 86.25 3.75, 149.31 -71.95 M1.44 96.3 C30.31 62.79, 60.38 30.29, 145.42 -69.63 M-0.93 104.46 C44.52 49.04, 92.56 -1.65, 153.38 -78.66 M1.02 103.88 C62.98 35.05, 121.16 -33.53, 157.2 -77.72 M-0.29 110.19 C63.58 39.52, 123.61 -35.25, 161.69 -79.06 M-1.13 109.91 C42.61 65.49, 85.22 17.08, 163.51 -79.14 M1.73 116.62 C37.85 73.34, 75.41 32.13, 160.25 -72.14 M-0.89 114.59 C40.43 63.34, 84.9 13.46, 161.83 -71.77 M-2.73 119.4 C46.98 71.73, 85.99 20.02, 164.38 -64.29 M-0.93 122.6 C52.56 60.21, 105.94 1.87, 162.81 -66.15 M-1.51 130.17 C57.62 56.22, 119.65 -13.94, 165.24 -62.36 M1.32 128.83 C62.62 58.19, 123.31 -15.42, 163.11 -60.11 M-2.21 134.84 C50.68 77.2, 100.06 25.46, 162.22 -51.94 M-0.42 134.46 C51.83 73.84, 103.12 17.64, 164.06 -54.09 M0 143.48 C49.88 82.71, 98.69 29.31, 162.31 -45.6 M0.56 140.07 C63.1 67.73, 126.4 -5.25, 164.04 -48.23 M2.16 147.66 C39.94 103.31, 83.78 49.07, 159.97 -39.46 M-0.03 144.42 C42.05 100.86, 84.85 51.13, 163.96 -42.59 M2.89 154.44 C41.11 96.77, 85.11 47.49, 162.82 -36.34 M1.17 151.14 C38.69 110, 75.51 69.13, 162.98 -35.21 M1.82 156.83 C59.11 97.6, 118 30.62, 161.57 -31.28 M1 157.65 C51.04 97.57, 101.88 37.77, 164.01 -28.45 M-0.95 163.98 C44.31 111.54, 87.88 65.61, 162.27 -21.59 M-1.43 164.69 C43.93 112.24, 85.17 62.48, 162.82 -23.71 M1.2 172.64 C60.02 101.1, 124.74 26.7, 166.15 -15.76 M0.76 169.44 C65.22 95.72, 128.21 20.54, 163.38 -18.48 M1.17 176.79 C66.28 107.34, 125.89 37.19, 162.5 -9.77 M1.54 177.37 C45.15 122.92, 91.49 71.24, 163.73 -9.9 M0.58 182.01 C33.31 141.22, 64.61 106.32, 160.91 -3.61 M0.54 182.79 C58.16 121.43, 109.78 60.08, 164.75 -5.85 M2.7 189.03 C33.89 144.5, 75.25 103.28, 161.24 0.03 M-1.2 190.45 C50.9 130.13, 99.27 73.04, 162.56 1.41 M-1.24 197.78 C39.06 148.43, 77.67 103.3, 159.68 5.48 M0.91 195.62 C49.1 142.64, 94.12 84.95, 163.86 7.78 M0.24 198.38 C49.96 137.98, 107.36 71.99, 161.28 15.03 M0.95 200.19 C32.76 163.89, 66.93 123.95, 161.96 13.4 M-1.06 207.08 C55.06 138.31, 116.86 75.35, 159.77 19.96 M1.05 208.06 C65.3 137.48, 124.95 66.92, 161.94 19.05 M2.61 215.11 C59.32 147.75, 114.88 84.63, 163.26 23.31 M0.52 212.26 C46.14 161.78, 86.94 113.49, 163.22 24.9 M1.51 218.02 C40.64 178.52, 76.67 137.52, 164.19 34.63 M1.37 219.88 C35.2 179.92, 72.57 133.43, 161.8 30.69 M0.78 226.33 C39.21 182.02, 70.79 142.41, 165.02 40.41 M0.74 225.55 C36.37 182.26, 73.51 140.76, 162.31 37.71 M0.13 230.34 C58.13 165.57, 116.54 104.21, 164.59 40.81 M-0.38 230.82 C39.37 193.07, 77.01 151.76, 163.87 45.25 M-0.05 236.02 C38.39 191.02, 74.86 145.14, 164.19 47.36 M1.86 236.28 C43.9 189.27, 86.07 142.95, 162.32 50.28 M-2.56 246.61 C39.46 200.25, 76.01 155.28, 160.36 53.22 M-0.01 245.08 C40.35 198.39, 83.39 149.52, 162.29 56.01 M-0.78 252.72 C63.85 176.61, 128.54 101.26, 160.86 60.75 M0.41 251.79 C57.04 189.41, 112.83 123.06, 163.02 62.24 M1.14 256.03 C63.86 185.24, 123.73 111.64, 164.41 71.51 M-0.59 255.2 C63.14 182.91, 125.65 109.99, 163.91 67.39 M2.13 258.78 C60.85 195.54, 120.97 125.23, 160.18 77.26 M-0.23 259.82 C53.8 201, 105.45 139.41, 163.43 74.69 M6.87 256.64 C68.69 195.6, 126.05 125.26, 159.93 83.81 M9.81 257.73 C67.7 193.3, 124.74 127.66, 161.35 82.17 M19.17 252.25 C47.62 222.33, 80.64 181.81, 165.26 87.56 M19.3 250.69 C60.47 210.73, 100.75 163.32, 164.54 87.72 M30.25 246.65 C73.19 196.13, 120.2 147.12, 162.3 90.29 M27.25 247.77 C68.88 197.13, 114.09 144.93, 162.05 92.65 M35.54 246.97 C74.56 210.9, 99.17 175.33, 162.83 95.89 M35.69 243.4 C73.9 203.54, 111.42 164.56, 161.51 101.13 M50.9 240.28 C71.58 211.38, 94.65 179.54, 161.99 101.49 M45.88 237.4 C82.4 197.49, 116.38 155.63, 164.83 104.25 M58.19 236.75 C92 192.77, 126.26 152.05, 159.11 114.64 M55.99 235.46 C91.62 195.5, 123.73 159.66, 164.92 110.28 M65.87 227.9 C95.12 203.27, 122.12 170.21, 164.82 119.99 M63 229.13 C95.08 199.15, 122.4 164.58, 164.2 116.53 M76.98 223.06 C95.62 203.08, 117.9 174.82, 165.48 127.2 M73.64 226.98 C98.33 194.1, 121.86 164.34, 162.37 124.22 M80.94 221.84 C102.44 199.77, 123.18 182.32, 161.49 128 M83.56 221.8 C114.01 190.22, 140.94 156.38, 162.1 130.12 M91.88 219.15 C107.86 194.39, 129.6 175.63, 167.11 132.63 M91.09 214.13 C113.45 194.76, 131.04 175.43, 164.21 133.69 M105.12 213.42 C120.16 190.48, 146.95 165.3, 162.17 142.4 M101.04 211.19 C112.15 195.72, 124.92 183.6, 162.85 140.15 M111.57 211.65 C129.47 189.44, 147.76 169.35, 162.52 146.62 M110.48 206.51 C124.59 192.26, 136.24 177.36, 163.15 148.15 M121.44 201.84 C129.15 191.18, 143.26 178.62, 160.42 154.93 M119.87 203 C136.44 182.64, 152.29 164.04, 161.15 152.65 M132.08 197.56 C138.85 190.62, 146.01 174.53, 162.96 162.23 M128.22 200.16 C139.61 185.74, 150.24 171.68, 161.52 160.51 M142.3 194.89 C146.8 185.88, 157.41 175.95, 159.82 169.22 M138.8 193.62 C144.41 187.82, 148.25 179.65, 164.67 165.61 M148.86 188.75 C152.79 186.95, 154.43 181.79, 163.03 170.9 M147.05 190.07 C150.62 186.96, 154.09 182.09, 161.95 172.06 M158.64 185.56 C156.43 184.31, 157.73 183.98, 163.63 178.45 M157.48 186.05 C159.82 183.58, 161.25 180.19, 163.64 178.53" stroke="#fab005" stroke-width="0.5" fill="none"></path><path d="M3.96 -2.09 C45.07 -19.93, 85.99 -38.71, 159.89 -80.92 M-1.02 1.8 C31.93 -18.46, 66.31 -32.45, 161.64 -77.86 M163.33 -78.35 C163.45 -12.5, 163.29 54.87, 163.89 178.19 M162.68 -79.03 C167.07 -2.84, 166.35 77.02, 163.08 181.58 M162.65 183.5 C96.89 210.71, 37.14 249.41, -2.56 260 M161.36 181.09 C130.53 198.87, 94.42 215.3, -0.97 261.71 M-0.32 260.01 C-2.29 207.25, -0.48 150.01, -1.57 -2.66 M-0.71 260.72 C2.78 197.55, 4.13 137.07, -0.95 1.32 M0 0 C0 0, 0 0, 0 0 M0 0 C0 0, 0 0, 0 0" stroke="#000000" stroke-width="1" fill="none"></path></g></g><mask></mask><g stroke-linecap="round"><g transform="translate(79.04097082494195 75.74902783468679) rotate(0 60.59630734459313 68.62501617521048)" fill-rule="evenodd"><path d="M-1.87 0.7 L190.72 59.31 L132.74 136.77 L-69.53 77.08 L-3.57 1.41" stroke="none" stroke-width="0" fill="#fff" fill-rule="evenodd"></path><path d="M1.52 -0.74 C45.7 17.13, 89.97 27, 184.31 55.8 M-1.4 -1.99 C57.81 14.25, 116.13 32.52, 187.25 56.1 M190.23 55.78 C172.6 83.98, 154.88 106.79, 134.28 140.55 M189.6 54.38 C176.35 76.73, 164.07 95.37, 136.36 138.04 M133.12 133.68 C67.23 121.08, -8.24 96.8, -69.04 76.23 M135.91 135.57 C54.67 111.98, -23.82 90.78, -67.21 77.41 M-66.93 79.31 C-51.06 60.36, -40.54 42.05, -2.51 -3.3 M-66.44 75.93 C-41.87 50.84, -21.72 25.91, 0.63 -1.31 M0 0 C0 0, 0 0, 0 0 M0 0 C0 0, 0 0, 0 0" stroke="#000000" stroke-width="1" fill="none"></path></g></g><mask></mask><g stroke-linecap="round"><g transform="translate(79.75525653922773 78.60617069182899) rotate(0 61.36585033753988 69.17210262627484)" fill-rule="evenodd"><path d="M0 0 C0 0, 0 0, 0 0 M0 0 C0 0, 0 0, 0 0 M-64.23 82.54 C-40.15 59.94, -23.22 31.95, 2.39 -1.52 M-64.33 77.74 C-42.73 60.11, -25.88 35.8, 5.95 0.19 M-57.84 76.93 C-42.43 59.6, -25.5 46.68, 10.99 0.27 M-60.55 79.18 C-38.45 55.99, -21.77 34.06, 8.68 1.86 M-52.28 77.79 C-28.35 54.33, -4.64 29.03, 9.7 5.12 M-55.62 81.78 C-37.81 61.4, -20.05 41.58, 13.45 3.08 M-53.34 84.09 C-35.73 65.79, -21.23 44.98, 14.22 1.6 M-49.92 82.12 C-31.01 63.04, -15.06 42.44, 17.67 5.67 M-44.24 84.34 C-33.83 67.96, -13.58 46.57, 18.61 8.58 M-45.08 84.58 C-28.86 61.35, -6.2 38.69, 19.65 7.66 M-43.87 87.34 C-19.54 60.09, 1.72 38.6, 23.7 10.45 M-42.83 86.69 C-15.4 55.77, 7.55 30.78, 26.38 9.1 M-38.34 89.44 C-11.14 55.17, 13.66 24.99, 30.13 8.18 M-37.19 85.05 C-23.28 68.13, -8.58 53.54, 30.01 9.71 M-35.94 85.51 C-12.05 61.91, 16.82 34.34, 31.48 14.22 M-34.07 88.9 C-19.34 72.53, -5.79 52.54, 32.28 10.52 M-26.04 87.97 C-15.33 75.68, -4.09 57.26, 34.63 11.86 M-30.73 89.8 C-8.54 64.74, 8.53 42.88, 36.31 11.69 M-22.69 94.03 C-2.21 65.36, 14.21 39.87, 41.59 9.9 M-24.1 91.46 C-7.91 71.44, 7.87 53.22, 43.77 13.95 M-18.82 92.43 C5.96 60.57, 28.14 33.77, 45.83 9.93 M-21.54 91.13 C3.91 63.34, 26 35.18, 46.62 12.46 M-13.88 94.72 C-0.5 73.77, 14.26 52.45, 49.45 17.36 M-17.11 93.5 C4.96 64.46, 28.36 39.33, 51.61 14.4 M-12.74 90.21 C11.19 62.07, 36.6 37.83, 56.85 19.59 M-11.11 92.27 C11.07 63.13, 37.45 33.32, 53.36 15.88 M-8.57 97.02 C5.03 78.2, 17.66 58.79, 59.88 21.11 M-9.6 95.85 C4.01 80.08, 18.76 63.91, 58.86 19.54 M-2.49 97.3 C10.93 77.27, 27.98 54.05, 66.18 18.65 M-4.64 97.15 C14.55 69.62, 37.44 45.83, 63.22 20.44 M2.23 99.99 C21.28 76.9, 32.94 55.88, 65.03 24.02 M-1.12 99.02 C12.83 84.49, 28.5 66.77, 66.86 19.46 M4.59 100.07 C23.44 71.03, 52.53 45.78, 71.68 23.3 M2.98 100.11 C26.25 71.44, 48.7 48.08, 71.23 21.11 M6.89 97.57 C26.89 74.4, 47.87 49.26, 72.47 19.85 M9.09 100.47 C29.67 74.43, 48.19 52.48, 75.31 23.21 M15.89 100.54 C30.5 76.02, 55.24 53.83, 81.92 21.35 M10.52 103.22 C28.63 82.78, 45.73 63.5, 80.06 22.52 M15.15 100.33 C31.28 87.84, 46.09 67.93, 83.12 22.98 M16.15 104.35 C39.49 77.51, 64.75 51.55, 84.19 24.54 M18.83 102.32 C48.67 73.72, 73.22 47.33, 89.51 30.24 M19.7 102.19 C43.27 76.67, 65.59 50.52, 89.34 24.99 M28.1 109.2 C45.89 81.5, 69.32 51.67, 93.27 26.16 M23.42 107.21 C50.4 79.31, 71.3 56.05, 91.81 27.61 M32.21 107.92 C53.67 78.9, 85.06 47.18, 98.44 30.29 M30.58 107.7 C48.54 82.62, 65.84 62.06, 95.05 29.8 M33.59 104.76 C53.78 81.84, 79.41 51.88, 97.95 29.75 M33.96 107.34 C48.4 89.87, 60.41 77.6, 102.12 32.28 M36.22 108.48 C61.49 81.27, 83.9 51.86, 102.08 34.44 M35.55 111.11 C52.68 93.25, 69.3 74.39, 103.45 32.9 M43.45 113.18 C56.02 87.99, 74.82 71.91, 112.19 35.77 M39.78 110.68 C58.99 93.16, 72.78 73.74, 110.03 32.09 M46.38 113.48 C64.74 91.7, 83.3 67.99, 117.15 29.99 M45.26 110.22 C66.49 86.42, 89.67 64.32, 113.13 34.67 M48.94 115.53 C78.89 85.44, 103.27 57.09, 118.42 37.1 M49.23 112.11 C64.1 94.4, 80.04 77.47, 116.8 35.52 M52.99 116.05 C74 91.3, 94.85 67.18, 123.78 39.14 M56.05 114.51 C78.64 88.14, 100.04 58.97, 122.98 36.44 M54.69 117.52 C74.27 97.1, 97.1 71.18, 124.45 39.23 M56.95 117.23 C78.53 91.78, 95.31 70.76, 127.98 39.76 M66.31 118.95 C80.92 92.29, 103.13 71.23, 131.46 36.72 M63.21 115.15 C85.65 89.1, 110.24 59.03, 130.22 38.24 M64.64 115.18 C90.17 85.84, 119.89 58.53, 133.44 42.04 M65.9 116.04 C90.08 90.05, 112.74 64.82, 135.43 40.41 M72.04 115.81 C84.3 104.48, 96.95 85.13, 141.03 43.89 M72.36 118.24 C86.08 99.74, 104.37 82.15, 140.36 40.49 M78.19 123.48 C93.39 97, 120.99 70.86, 139.95 44.28 M75.34 119.49 C97.71 91.44, 124.74 63.84, 141.32 44 M81.22 120.88 C101.91 93.21, 124.56 65.79, 148.09 45.48 M77.44 122.59 C94.11 104.16, 108.57 84.98, 146.58 45.37 M84.07 125.97 C101.14 107.07, 113.8 87.25, 147.91 49.33 M82.88 121.23 C103.14 96.7, 124.03 73.67, 152.17 45.79 M84.28 126.77 C112.04 101.52, 128.72 72.79, 156.22 47.93 M86.67 125.42 C109.49 99.7, 132.06 75.57, 155.02 46.67 M94.38 128.58 C111.23 102.41, 123.81 82.96, 156.6 46.94 M94.39 127.33 C108.98 107.57, 123.3 88.7, 160.75 47.43 M95.01 125 C114.93 103.15, 128.96 84.34, 164.43 52.55 M98.62 126.92 C110.88 109.25, 125.79 90.36, 164.13 47.17 M99.97 124.9 C122.5 95.52, 150.63 70.16, 164.05 50.5 M99.44 129.56 C125.69 98.52, 154.2 67.58, 169.53 50.29 M104.61 127.7 C128.13 97.87, 157.95 67.67, 169.09 53.29 M104.16 127.93 C131.87 97.83, 160.49 68.65, 170.7 52.34 M107.66 130.1 C130.39 110.25, 152.49 82.26, 180.3 50.99 M108.52 131.37 C128.14 107.63, 145.75 90.36, 175.93 53.41 M115.6 133.36 C125.09 115.49, 146 93.27, 181.91 50.45 M112.44 131.75 C129.95 112.26, 147.57 92.56, 179.8 52.03 M119.72 130.25 C133.94 111.9, 160.82 82.28, 182.77 54.3 M116.48 133.14 C141.73 105.57, 166.72 74.99, 183.68 54.77 M121.26 132.11 C146.22 110.1, 164.3 80.71, 185.37 55.98 M122.32 133.37 C139.72 116.11, 155.42 94.6, 188.18 57.86 M127.75 136.04 C137.81 118.82, 152.71 111.03, 168.63 79.84 M124.48 133.96 C139.98 119.44, 154.61 101.03, 171.22 81.96 M126.87 139.7 C139.07 122.39, 147.93 112.86, 150.62 105.24 M131.57 137.46 C136.21 130.72, 143.54 122.07, 154.22 110.87 M-65.55 76.94 C-65.55 76.94, -65.55 76.94, -65.55 76.94 M-65.55 76.94 C-65.55 76.94, -65.55 76.94, -65.55 76.94 M-56.31 78.06 C-56.58 78, -61.79 77.71, -63 75.01 M-55.93 80.68 C-59.04 77.43, -61.6 75.38, -62.74 73.43 M-47.27 83.98 C-49.14 77.96, -60.33 75.77, -63.9 69.19 M-47.21 83.43 C-51.44 77.89, -53.61 75.92, -59.23 69.95 M-39.65 87.27 C-41.21 78.77, -48.52 74.2, -59.57 71.53 M-40.04 84.16 C-42.88 77.97, -51.77 73.36, -58.96 68.31 M-25.89 86.43 C-37.42 84.39, -42.11 72.41, -54.93 66.49 M-27.62 87.03 C-38.87 77.59, -48.17 69.19, -55.66 66.4 M-20.91 94.54 C-30.66 81.57, -40.34 78.25, -56.42 57.96 M-17.81 91.64 C-32.87 81.57, -43.71 68.43, -50.87 62.61 M-8.8 92.75 C-18.07 82.79, -24.25 80.41, -51.74 57.41 M-8.74 93.43 C-20.26 86.02, -26.5 75.29, -49.49 60.78 M2.67 95.59 C-16.86 81.02, -33.75 73.56, -48.08 53.36 M-0.79 96.22 C-14.4 82.23, -29.83 68.53, -46.72 55.32 M8.26 96.64 C-3.4 91.37, -20.1 77.54, -45.84 53.17 M8.37 97.37 C-5.17 86.3, -17.75 74.72, -43.23 52.24 M15.49 102.33 C1.56 86.54, -18.28 72.86, -44.36 52.81 M16.61 100.88 C1.98 88.87, -13.44 71.56, -40.29 50.36 M30.2 101.02 C11.38 85.42, -13.03 73.54, -39.73 46.55 M25.43 105.87 C7.78 85.85, -10.06 72.35, -38.85 46.35 M37.78 107.38 C10.37 82.01, -16.33 63.76, -38.46 44.78 M35.93 106.3 C16.37 88.35, -4.33 72.11, -34.7 43.94 M48.87 112.18 C28.96 96.88, 10 77, -32.04 43.04 M45.08 112.2 C14.02 81.9, -16.79 56.71, -34.36 38.32 M56.68 110.71 C31.55 90.11, 5.11 73.94, -31.67 34.45 M53.67 113.4 C39.01 94.02, 21.42 78.09, -31.14 35.93 M62.45 119.81 C32.07 88.02, -5.29 56.07, -30.51 31.49 M66.4 115.99 C42.28 98.02, 22.68 82.91, -28.83 35.65 M77.69 115.69 C38.32 91.35, 9.43 63.24, -30.44 30.37 M72.75 119.47 C34.72 85.64, -2.9 54.2, -25.81 32.51 M86.49 123.62 C58.03 96.91, 37.39 75.75, -24.53 28.14 M83.89 121.84 C55.59 99.97, 26.52 76.64, -22.91 26.19 M95.69 123.72 C67.65 100.55, 37.47 82.09, -18.82 24.45 M93.51 124.76 C56.3 97, 22.16 64.95, -22.53 26.15 M104.43 124.05 C59.82 94.87, 21.7 61.15, -22.07 23.28 M102 126 C73.45 106.04, 48.77 82.55, -19.8 20.75 M109.42 132.94 C83.7 103.51, 47.65 77.31, -19.5 18.68 M112.27 131.18 C75.58 97.56, 37.26 65.52, -17.66 18.35 M118.61 132.87 C72.01 89.7, 20.63 45.11, -10.53 12.55 M122.14 130.99 C93.06 110.69, 66.94 88.43, -14.02 16.46 M132.52 132.8 C76.46 91.26, 27.01 48.72, -14.54 16.38 M128.24 136.91 C85.77 93.65, 38.88 51.27, -12.87 14.87 M133.92 133.99 C98.52 104.79, 65.74 75.21, -4.64 12.99 M134.35 134.42 C87.63 92.98, 37.95 50.95, -7.4 8.76 M138.42 130.99 C96.12 93.5, 47.75 53.94, -9.38 6.28 M136.55 131.31 C91.98 88.47, 42.76 47.5, -7.14 5.82 M137.65 126.73 C104.5 91.48, 66.34 59.8, -6.53 7 M141.1 128.22 C83.48 80.3, 30.58 30.43, -5.08 3.39 M139.29 124.33 C115.47 100.93, 82.07 71.55, -0.83 2.47 M143.08 125.78 C98.55 83.36, 49.16 41.63, -0.78 1.6 M143.04 118.86 C85.66 76.58, 35.91 26.37, 2.3 -1.64 M144.92 123.75 C102.55 83.12, 60.46 46.07, 0.49 -3.57 M148.9 120.37 C120.11 90.42, 84.34 62.16, 13.73 2.33 M147.41 119.41 C110.46 89.86, 71.2 57.65, 11.4 -1.17 M145.41 118.35 C120.53 89, 93.63 59.62, 18.56 0.04 M148.45 115.45 C115.14 84.61, 80.56 57.98, 19.12 2.05 M149.89 112.77 C118.5 85.21, 83.29 55.02, 30.72 6.68 M150.02 110.33 C125.46 90.05, 102.25 68.01, 30.48 4.55 M156.7 110.54 C131.89 86.41, 105.02 67.64, 39.67 6.1 M153 110.13 C123.01 84, 96.24 60.85, 37.39 8.48 M153.5 108.55 C123.44 82.82, 96.15 53.36, 47.67 11.19 M156.08 106.98 C123.37 73.57, 88.3 44.72, 48.68 11.53 M157.47 98.14 C120.81 65.34, 74.86 33.82, 59.51 13.75 M158.59 102.87 C130.64 77.23, 105.5 55.42, 58.44 16.04 M159.61 96.12 C142.09 78.85, 120.89 63.07, 63.78 20.77 M159.45 100.1 C131.46 78.35, 106.74 52.51, 65.95 16.76 M160.93 93.25 C140.48 76.41, 116.01 52.81, 74.33 23.61 M163.94 93.08 C132.96 67.81, 105.32 42.75, 75.78 21.37 M164.73 93.26 C145.28 76.38, 128.16 60.07, 84.6 23.72 M166.67 90.77 C140.24 68.17, 113.22 48.66, 86.68 23.55 M164.86 85.34 C148.54 70.54, 137.26 62.6, 93.01 25.7 M166.41 88.49 C141.78 65.21, 118.08 44.48, 95.66 23.46 M169.98 83.13 C140.5 65.68, 117.61 46.1, 100.32 25.72 M168.99 86.35 C145.29 64.76, 124.63 44.62, 105.94 27.51 M167.73 81.24 C154.56 64.47, 132.31 48.23, 115.3 33.34 M170.11 81.11 C153.85 67.56, 136.3 50.86, 115.25 29.54 M172.35 77.59 C161.57 63.45, 140.24 46.64, 120.01 35.82 M173.55 79.88 C162.73 68.64, 153.24 57.38, 123.76 34.56 M176.59 73.18 C167.33 64.51, 147.95 49.72, 135.32 39.28 M177.78 75.3 C165.78 63.88, 151.96 54.37, 134.16 35.22 M175.74 71.86 C162.05 63.07, 152.1 47.73, 143.12 38.44 M178.5 72.68 C171.07 62.96, 162.13 54.83, 140.58 40.95 M183.13 70.74 C168.96 60.53, 166.78 50.57, 151.83 41.66 M178.88 67.72 C170.32 58.22, 158.77 51.66, 148.68 42.4 M178.39 64.58 C170.06 56.8, 162.6 49.1, 161.69 43.39 M184.35 66.4 C172.97 59.04, 168.19 50.57, 159.55 43.24 M187.67 60.89 C181.07 55.64, 175.55 50, 170.45 45.93 M185.55 63.33 C179.38 57.73, 175.2 54.56, 170.05 49.28 M185.25 59.25 C183.41 56.99, 181.34 54.41, 178.63 49.1 M185.9 57.76 C185.83 56.51, 183.14 54.82, 177.56 51.54" stroke="#fab005" stroke-width="0.5" fill="none"></path><path d="M-0.93 1.55 C44.86 12.45, 89.83 28.12, 188.58 54.2 M-0.18 0.13 C72.17 26.57, 145.11 47.48, 188.85 57.04 M190.04 56.72 C174.47 77.46, 155.32 110.15, 132.03 138.4 M188.7 57.47 C175.41 78.41, 160.95 101.93, 135.38 137.17 M137.48 140.12 C61.26 112.31, -11.11 90.3, -62.29 75.61 M133.14 135.93 C74.28 118.29, 15.24 99.82, -67.31 76.7 M-64.66 76.11 C-47.38 49.67, -28.22 26.61, 1.54 -1.78 M-64.76 77.45 C-43.54 52.62, -19.06 23.12, -0.43 1.66 M0 0 C0 0, 0 0, 0 0 M0 0 C0 0, 0 0, 0 0" stroke="#000000" stroke-width="1" fill="none"></path></g></g><mask></mask><g stroke-linecap="round"><g transform="translate(267.67734075368367 138.3980484483991) rotate(0 110.09806985594332 1.6924159154295637)" fill-rule="evenodd"><path d="M-1.64 -0.1 L159.22 -76.67 L217.68 2.03 L60.46 80.71 L-3.25 2.72" stroke="none" stroke-width="0" fill="#fff" fill-rule="evenodd"></path><path d="M-2.18 -2.18 C42.47 -23.36, 92.66 -46.6, 166.73 -79.68 M-0.43 0.89 C31.98 -15.78, 66.3 -30.26, 163.37 -75.82 M165.41 -80.71 C180.53 -50.99, 195.03 -30.8, 220.54 3.58 M164.39 -76.47 C177.57 -60.4, 188.61 -45.25, 222.37 -0.08 M218.69 0.62 C185.23 19.61, 159.3 35.69, 60.91 84.09 M220.28 2.34 C182.1 17.64, 145.75 34.97, 61.26 79.97 M59.29 77.3 C36.26 48, 18.2 20.44, 1.81 -1.63 M60.06 82.28 C45.7 59.3, 29.17 41.89, -0.9 -0.5 M0 0 C0 0, 0 0, 0 0 M0 0 C0 0, 0 0, 0 0" stroke="#000000" stroke-width="1" fill="none"></path></g></g><mask></mask><g stroke-linecap="round"><g transform="translate(269.820197896541 132.68376273411377) rotate(0 107.81996334530413 1.9388880338519527)" fill-rule="evenodd"><path d="M0 0 C0 0, 0 0, 0 0 M0 0 C0 0, 0 0, 0 0 M1.84 2.51 C3.9 -1.01, 6.71 -4.31, 9.14 -5.25 M2.6 2.4 C4.67 0.95, 4.84 -0.36, 8.67 -3.9 M6.1 10.11 C9.96 1.56, 9.86 -0.51, 20.48 -11.6 M3.46 5.64 C7.99 2.6, 12.65 -1.14, 17.44 -7.19 M8.33 13.69 C8.53 6.14, 13.34 -2.66, 25.54 -14.57 M7.44 8.3 C14.99 1.74, 18.97 -5.55, 28.3 -13.72 M8.82 10.81 C16.15 -0.7, 25.73 -7.48, 34.7 -14.69 M9.43 13.6 C17.29 5.45, 21.66 -2.52, 35.57 -15.51 M13.45 15.48 C20.54 6.68, 32.58 -5.24, 40.94 -17.85 M13.68 15.33 C22.16 5.77, 34.52 -7.17, 43.45 -21.65 M14.96 22.98 C26.7 6.86, 44.42 -14.5, 53.86 -26.18 M15.01 21.15 C29.74 4.97, 45.02 -13.56, 54.95 -25.22 M15.96 23.15 C34.97 2.48, 48.82 -14.35, 62.01 -28.49 M17.4 24.53 C28.13 12.03, 39.67 -1.5, 61.58 -31.11 M23.45 25.83 C31.45 14.75, 43.24 -0.67, 72.09 -35.07 M19.68 24.85 C37.49 2.78, 56.36 -21.48, 73.95 -32.17 M18.49 31.19 C34.9 10.69, 53.16 -10.22, 82.58 -39.91 M20.73 28.3 C39.09 8.67, 59.91 -13.91, 82.76 -36.82 M22.62 31.16 C49.1 0.22, 72.29 -29.92, 90.92 -39.48 M25.21 31.96 C49.39 7.41, 72.43 -18.3, 89.31 -41.22 M25.02 38.73 C49.04 5.49, 75.42 -13.45, 95.85 -47.19 M26.11 35.75 C46.33 11.55, 65.08 -9.28, 99.32 -45.09 M28.17 37.67 C55.75 9.58, 86.15 -21.99, 107.22 -51.16 M29.74 38.71 C57.65 9.07, 84.87 -22.1, 108.01 -50.85 M30.98 43.78 C52.61 26.64, 72.43 6.29, 115.71 -51.99 M30.31 42.94 C51.01 20.48, 70.07 -2.86, 117.27 -54.77 M31.17 42.41 C66.96 14.08, 92.37 -22.29, 126.58 -60.48 M35.67 45.71 C62.92 14.31, 90.43 -18.5, 124.72 -58.06 M35.09 46.71 C71.23 13.31, 99.39 -20.97, 137.44 -63.39 M36.41 48.34 C70.55 16.04, 101.17 -21.7, 132.92 -62.04 M36.06 51.08 C72.35 13.98, 107.73 -33.04, 139.97 -69.2 M39.71 52.3 C78.34 6.39, 116.64 -36.55, 142.41 -67.19 M45.5 52.52 C80.51 17.33, 117.59 -24.27, 153.7 -73.82 M43.78 55.12 C79.79 11.75, 119.88 -32.83, 152.9 -72.38 M42.66 56.25 C69.99 24.89, 101.32 -5.9, 163.73 -74.42 M42.94 58.74 C80.8 17.95, 119.58 -24.94, 160.36 -73.88 M45.72 65.09 C82.69 23.43, 109.46 -13.64, 165.27 -77.06 M46.14 61.4 C92.16 10.97, 133.22 -34.95, 164.9 -74.55 M50.18 64.85 C75.06 30.05, 105.14 -1.05, 164.43 -71.83 M50.7 65.74 C93.71 14.91, 137.98 -35.72, 167 -72.25 M54.63 66.67 C81.15 39.82, 111.38 1.03, 173.58 -70.02 M51.48 67.71 C76.5 40.51, 99.9 15.12, 170.19 -66.4 M55.16 68.44 C102.75 14.95, 150.35 -41.61, 170.34 -67.86 M54.64 72.68 C98.59 18.77, 148.19 -33.48, 171.43 -63.13 M60.47 76.13 C99.14 28.96, 136.94 -16.22, 177.98 -58.81 M56.13 75.3 C96.85 27.18, 142.93 -24.44, 176.92 -60.9 M57.58 77.47 C84.19 47.23, 108.11 18.21, 179.89 -56.03 M58.77 79.89 C89.16 47.39, 118.93 10.82, 175.85 -58.37 M58.91 79.24 C92.01 47.14, 124.63 4.96, 177.28 -58.13 M62.74 80.33 C106.49 29.71, 152.51 -24.05, 181.6 -53.54 M71.97 76.45 C116.05 34.19, 151.1 -17.17, 182.94 -54.95 M70.59 75.85 C104.87 35.51, 138.15 -3.31, 180.78 -50.86 M79.38 71.51 C120.94 25.4, 154.22 -10.15, 183.66 -50.04 M82.68 72.81 C104.45 45.98, 130.13 16.3, 187.08 -49.12 M93.69 68.33 C124.41 27.12, 156.75 -14.13, 187.34 -47.38 M91.37 65.49 C114.76 39.34, 142.47 9.27, 187.72 -45.56 M98.49 63.81 C131.6 30, 162.78 -6.72, 188.71 -37.7 M97.46 62.15 C125.87 31.16, 151.47 -0.49, 188.55 -43.5 M110.25 54.7 C137.61 25.03, 167.7 -5.55, 192.39 -41.18 M107.46 58.51 C140.67 24.15, 169.88 -14.59, 192.52 -36.47 M118 53.5 C147.13 20.48, 175.98 -4.44, 191.36 -33.95 M116.64 52.31 C134.96 33.43, 153.4 14.16, 193.48 -36.09 M127.11 48.52 C143.85 32.81, 162.86 16.08, 200.7 -33.86 M128.12 49.98 C141.5 32.28, 153.2 14.28, 197.3 -31.18 M133.03 42.59 C153.57 29.83, 162.42 9.98, 203.29 -26.22 M138.1 43.98 C155.69 24.16, 170.55 5.05, 198.99 -26.89 M149.74 36.34 C165.57 16.18, 192.71 -5.97, 199.61 -25.54 M147.54 38.68 C160.09 23.85, 177.82 7, 199.84 -23.83 M154.12 31.95 C169.99 20.98, 179.54 6.59, 202.15 -26.06 M154.05 32.75 C171.35 17.33, 186.82 -1.54, 205.19 -21.95 M162.36 32.37 C176.92 14.87, 196.19 -7.55, 210.51 -20.47 M163.58 29.04 C175.3 20.67, 183.59 11.52, 206.91 -20.63 M171.78 24.09 C187.33 11.08, 199.75 -7.87, 209.06 -18.16 M175.65 23.93 C186.76 10.69, 198.95 -3.66, 208.5 -14.37 M180.53 17.16 C190.68 7.97, 202.4 -2.57, 214.16 -8.01 M182.41 21.98 C195.34 6.89, 204.92 -5.04, 211.58 -12.84 M191.31 13.14 C198.64 13.38, 201.21 4.61, 212.45 -4.84 M191.76 14.51 C199.94 6.21, 208.56 0.32, 213.66 -8.82 M201.18 11.89 C202.06 7.34, 211.98 0.97, 218.69 -7.17 M204.5 9.04 C209.48 4.57, 214.41 -1.76, 217.25 -5.29 M212.58 4.88 C211.87 5.26, 217.57 1.47, 220.31 -2.49 M212.67 7.25 C212.41 4.95, 214.96 3.59, 218.97 -2.23 M61.16 80.55 C61.16 80.55, 61.16 80.55, 61.16 80.55 M61.16 80.55 C61.16 80.55, 61.16 80.55, 61.16 80.55 M65.24 79.77 C58.26 73.78, 58.64 76.26, 47.51 65.15 M64.87 77.66 C58.38 74.82, 56.07 72.2, 50.43 63.77 M66.09 73.93 C60.93 73.99, 52.33 66.84, 35.21 50.2 M68.32 74.85 C61.65 70.82, 54.06 67.04, 37.65 48.28 M69.37 71.15 C55.01 57.86, 38.05 49.27, 27.82 31.45 M71.74 73.96 C55.99 59.7, 37.39 44.43, 27.02 34.21 M80.93 70.02 C57.04 58.82, 38.89 41.14, 11.02 14.26 M75.01 72.61 C60.87 61.05, 48.34 47.41, 11.94 19.34 M78.4 66.97 C54.23 50.16, 33.44 27.04, 4.81 3.54 M82.06 70.57 C62.7 54.75, 42.67 39.81, 0 3.72 M87.72 67.99 C61.26 48.14, 44.96 30.83, 2.05 -3.26 M84.01 68.83 C55.11 44, 23.12 15.64, 2.13 -2.06 M84.85 70.43 C70.72 55.35, 57.11 37.82, 10.23 -2.64 M87.5 66.83 C57.44 37.58, 26.23 11.93, 9.07 -3.87 M88.29 66.71 C59.8 39.21, 37.01 21.57, 10.46 -6.35 M93.85 65.51 C65.96 38.99, 38.31 17.46, 12.87 -6.07 M99.59 64.1 C63.9 41.5, 37.1 9.81, 11.87 -10.95 M94.17 62.43 C73.07 44.19, 52.72 25.02, 16.03 -5.6 M101.08 58.43 C79.32 45.42, 61.25 27.88, 18.14 -7.3 M101.73 60.96 C78.07 43.65, 56.92 22.4, 20.57 -10.19 M100.37 61.92 C68.61 26.76, 43.05 3.28, 24.75 -8.21 M103.11 57.34 C78.31 36.33, 47.07 12.15, 23.98 -10.54 M110.89 58.81 C83.05 34.93, 59.79 14.19, 24.71 -10.63 M109.29 55.83 C85.61 39.74, 62.3 18.32, 27.49 -11.22 M109.57 59.21 C88.82 32.84, 67.96 15.73, 29.83 -15.26 M112.06 53.85 C88.62 34.26, 64.09 14.44, 32.02 -14.85 M113.41 54.84 C94.85 38.87, 75.52 20.3, 31.44 -18.13 M115.11 53.08 C101.19 38.39, 83.76 26.13, 33.53 -18.3 M119.94 54.69 C91.86 33.83, 69.07 9.43, 37.67 -22.2 M121.19 50.58 C102.09 37.27, 81.3 21.65, 38.9 -16.98 M120.98 50.89 C104.67 33.48, 87.25 19.4, 39.19 -23.58 M124.45 51.94 C94.29 22.85, 64.62 -1.65, 42.31 -19.61 M123.11 46.41 C101.56 26.17, 77.97 5.85, 46.45 -23.12 M125.6 46.43 C109.25 29.15, 85.63 12.09, 45.09 -20.48 M128.26 42.75 C105.8 25.41, 78.21 0.47, 50.46 -26.01 M131.01 46.02 C99.5 15.01, 66.42 -12.97, 51.11 -23.64 M130.58 45.15 C116.25 23.12, 93.11 5.25, 52 -29.38 M136.34 41.97 C109.83 19.19, 85.53 -2.97, 54.7 -27.18 M140.82 45.54 C105.04 13.33, 70.92 -9.54, 59.39 -24.47 M137.43 43.19 C116.52 21.93, 92.47 -1.6, 56.94 -25.97 M143.23 43.72 C122.93 25.38, 111.62 14.58, 61.75 -32.31 M141.9 40.74 C117.91 18.52, 89.03 -6.1, 61.59 -27.99 M148.11 35.09 C119.02 13.08, 90.14 -11.55, 70.48 -30.57 M144.29 38.97 C123.87 15.43, 97.05 -2.07, 67.2 -29.8 M148.31 38.34 C130.21 15.58, 105.24 -0.89, 72.76 -32.51 M149.2 34.6 C125.9 16.69, 103.09 -3.66, 71.24 -32.12 M156.95 37.29 C132.89 20.46, 114.27 6.95, 76.84 -34.57 M155.62 33.88 C133.37 15.72, 112.51 0.21, 74 -36.05 M155.94 32.58 C123.28 5.84, 95.8 -21.63, 77.73 -34.58 M156.09 31.72 C127.15 5.98, 100.58 -17.06, 78.89 -37.87 M164.5 29.41 C139.67 5.96, 108.34 -9.82, 86.5 -35.37 M163.84 30.76 C143.97 15.24, 128.28 0.17, 84.39 -37.33 M164.88 27.36 C144.99 14.91, 130.94 -7.97, 82.97 -44.36 M165.12 26.57 C134.97 5.24, 106.04 -20.35, 87.4 -41.81 M170.86 24.08 C151.91 9.7, 128.4 -14.17, 93.06 -45.14 M170.36 26.73 C149.25 6.32, 127.84 -11.71, 91.1 -42.58 M176.26 27.03 C147.25 5.66, 130.51 -13.52, 90.42 -47.7 M173.28 25.95 C151.12 6.29, 131 -11.03, 93.36 -45.61 M176.7 19.28 C153.93 6.8, 140.56 -16.75, 97.79 -44.03 M179.26 23.23 C154.39 3.58, 131.63 -15.22, 98.57 -47.81 M182.07 19.27 C157.97 4.04, 137.85 -20.06, 99.65 -47.69 M180.48 20.97 C155.05 0.11, 131.84 -20.81, 101.03 -49.23 M189.08 20.44 C168.07 5.19, 149.87 -12.16, 103.55 -49.45 M187.04 20.04 C151.72 -9.52, 119.96 -34.36, 104.88 -49.31 M186.95 13.14 C163.36 -5.28, 132.81 -29.09, 113.83 -51.43 M187.34 17.02 C162.54 -7.44, 134.72 -30.21, 108.37 -53.7 M193.95 12.29 C160.9 -14.31, 131.34 -33.97, 112.86 -54.8 M191.16 15.24 C165.77 -9.53, 142.05 -28.48, 115.84 -54.48 M197.89 13.12 C171.41 -8.4, 141.89 -30.72, 117.8 -59.27 M196.89 11.87 C181.27 -4.1, 162.29 -15.56, 117.01 -54.37 M201.87 12.96 C172.45 -15.88, 141.15 -34.82, 121.84 -58.76 M199.77 11.18 C170.04 -16.15, 140.33 -41.27, 122.93 -58.99 M204.77 7 C174.58 -16.66, 145.83 -43.05, 123.98 -59.55 M203.12 7.55 C174.67 -18.37, 146.36 -43.17, 126.29 -59.65 M205.78 7.98 C192.52 -8.82, 172.63 -20.72, 126.24 -59.97 M209.43 8.6 C181.23 -15.46, 150.46 -43.1, 129.33 -61.6 M210.11 3.99 C190.75 -8.34, 174.59 -24.13, 134.44 -65.87 M212.72 4.39 C182.99 -19.11, 154.48 -45.85, 135.2 -64.24 M217.5 2.22 C193.23 -10.49, 177.34 -35.31, 139.44 -62.34 M217.66 2.49 C199.81 -11.07, 182.89 -24.34, 135.88 -65.35 M218.76 0.66 C193.2 -20.4, 169.24 -43.46, 138.88 -63.82 M218.77 3.09 C201.8 -15.06, 180.61 -32.13, 140.47 -67.93 M217.16 -5.29 C199.45 -22.13, 186.88 -36.91, 142.44 -69.78 M216.37 -7.05 C195.73 -28.49, 174.66 -44.4, 147.14 -68.39 M203.08 -19.38 C187.79 -36.92, 179.88 -42.82, 148.6 -72.25 M205.93 -23.72 C186.94 -40.88, 166.57 -58.41, 150.47 -72.81 M193.99 -36.71 C183.03 -45.78, 169.2 -55.36, 149.86 -75.45 M192.6 -38.17 C184.1 -48.3, 171.57 -58.2, 153.35 -73.14 M179.32 -57.05 C171.33 -57.71, 163.4 -63.41, 154.54 -74 M182.79 -54.99 C172.8 -60.97, 162.12 -71.13, 159.3 -74.04 M168.76 -70.46 C169.94 -68.74, 165.03 -72.96, 160.58 -73.92 M170.12 -68.01 C168.71 -71.71, 165.34 -73.75, 160.85 -76.68" stroke="#fab005" stroke-width="0.5" fill="none"></path><path d="M-3.82 -0.45 C56.56 -26.31, 114.99 -53.12, 159.15 -77.23 M-0.88 -0.15 C51.05 -24.22, 100.57 -47.52, 162.89 -75.92 M163.03 -73.2 C179.79 -50.07, 199.55 -24.48, 217.52 1.78 M165.11 -75.71 C186.09 -48.85, 207.18 -21.88, 219.44 2.38 M217.39 -0.11 C161.33 30.53, 94.55 66.76, 58.31 77.84 M219.46 1.23 C179.08 22.91, 141.49 42.2, 62.47 81.11 M58.74 77.32 C46.37 55.18, 29.43 32.68, -1.89 1.74 M61.88 79.32 C41.65 56.8, 21.05 28.13, 1.54 1.47 M0 0 C0 0, 0 0, 0 0 M0 0 C0 0, 0 0, 0 0" stroke="#000000" stroke-width="1" fill="none"></path></g></g><mask></mask></svg>