<?xml version="1.0" standalone="no"?>
<!DOCTYPE svg PUBLIC "-//W3C//DTD SVG 1.1//EN" "http://www.w3.org/Graphics/SVG/1.1/DTD/svg11.dtd">
<svg version="1.1" xmlns="http://www.w3.org/2000/svg" viewBox="0 0 155.77952595826537 155.53222795451558" width="155.77952595826537" height="155.53222795451558"><!-- svg-source:excalidraw --><metadata></metadata><defs><style class="style-fonts">
      </style></defs><g stroke-linecap="round"><g transform="translate(77.31326356754357 10.003091670598916) rotate(0 -16.849017173838433 50.54438120387557)" fill-rule="evenodd"><path d="M-60.24 41.71 C-60.24 41.71, -60.24 41.71, -60.24 41.71 M-60.24 41.71 C-60.24 41.71, -60.24 41.71, -60.24 41.71 M-65.75 54.15 C-61.65 48.73, -58.52 46.28, -50 36.04 M-65.75 54.15 C-60.91 49.69, -56.92 44.08, -50 36.04 M-31.63 14.9 C-26 9.34, -22.08 4.73, -21.13 2.83 M-31.63 14.9 C-27.87 9.33, -23.12 4.7, -21.13 2.83 M-66.66 61.3 C-63.54 53.47, -55.63 50.04, -43.7 34.89 M-66.66 61.3 C-60.2 54.36, -54.3 46.31, -43.7 34.89 M-31.89 21.3 C-26.8 13.06, -18.83 5.94, -14.84 1.68 M-31.89 21.3 C-25.45 14.18, -20.17 6.77, -14.84 1.68 M-66.93 67.7 C-58.52 58.02, -49.08 43.94, -38.72 35.25 M-66.93 67.7 C-59.12 58.75, -49.54 49.13, -38.72 35.25 M-32.15 27.7 C-21.22 18.89, -12.99 6.26, -8.54 0.53 M-32.15 27.7 C-27.65 21.29, -21.07 15.12, -8.54 0.53 M-66.53 73.34 C-56.83 64.1, -48.12 53.76, -33.07 34.85 M-66.53 73.34 C-54.01 57.48, -40.62 42.32, -33.07 34.85 M-29.14 30.32 C-21.24 20.82, -11.86 7.4, -2.89 0.13 M-29.14 30.32 C-21.02 20.73, -12.19 10.87, -2.89 0.13 M-66.14 78.98 C-52.4 62.04, -38.29 47.41, -28.09 35.21 M-66.14 78.98 C-50.06 61.03, -35.87 44.53, -28.09 35.21 M-24.15 30.68 C-12.35 18.49, -5.58 8.88, 2.09 0.49 M-24.15 30.68 C-19.13 24.77, -13.55 16.57, 2.09 0.49 M-65.09 83.87 C-53.68 69.17, -41.88 57.85, -22.44 34.82 M-65.09 83.87 C-52.12 68.05, -37.18 51.62, -22.44 34.82 M-18.51 30.29 C-7.74 21.18, 1.97 10.72, 7.74 0.1 M-18.51 30.29 C-11.7 24.08, -7.44 18.1, 7.74 0.1 M-63.38 88.01 C-47.65 72.03, -34.21 53.74, -17.46 35.18 M-63.38 88.01 C-48.84 71.52, -35.24 56.12, -17.46 35.18 M-13.52 30.65 C-6.15 22.93, -2.86 17.76, 12.07 1.21 M-13.52 30.65 C-7.34 22.92, -1 16.79, 12.07 1.21 M-61.67 92.14 C-45.17 76.47, -33.93 57.9, -11.81 34.78 M-61.67 92.14 C-51.04 78.02, -37.43 65.71, -11.81 34.78 M-7.88 30.25 C-0.27 21.78, 9.24 8.45, 17.05 1.58 M-7.88 30.25 C-2.25 23.68, 3.17 17.69, 17.05 1.58 M-59.31 95.52 C-47.21 79.2, -30.2 62.45, -6.83 35.14 M-59.31 95.52 C-40.27 74.16, -21.72 51.93, -6.83 35.14 M-2.89 30.61 C4.81 20.28, 11.19 12.61, 20.73 3.44 M-2.89 30.61 C4.81 21.06, 11.87 13.68, 20.73 3.44 M-56.29 98.14 C-34.86 76.78, -17.84 52.47, -1.18 34.75 M-56.29 98.14 C-39.79 79.49, -23 60.96, -1.18 34.75 M0.79 32.48 C9.11 22.63, 19.7 12.65, 25.06 4.56 M0.79 32.48 C7.75 25.63, 13.55 17.68, 25.06 4.56 M-52.62 100.01 C-44.3 93.64, -38.72 85.47, -35.56 80.39 M-52.62 100.01 C-45.7 94.03, -40.58 85.69, -35.56 80.39 M-23.75 66.81 C-7.32 49.23, 9.19 29.71, 28.08 7.18 M-23.75 66.81 C-6.97 45.58, 11.25 24.95, 28.08 7.18 M-48.29 101.13 C-44.56 97.18, -41.33 95.76, -36.48 87.54 M-48.29 101.13 C-44.47 97.39, -42.2 94.93, -36.48 87.54 M-17.45 65.66 C0.41 43.64, 19.45 21.76, 31.1 9.81 M-17.45 65.66 C-0.17 45.07, 19.17 24.59, 31.1 9.81 M-42.64 100.73 C-41.87 98.13, -38.93 96.56, -36.74 93.94 M-42.64 100.73 C-41.28 99.23, -39.17 97.21, -36.74 93.94 M-11.81 65.26 C2.19 48.31, 16.96 30.9, 32.8 13.94 M-11.81 65.26 C-1.35 52.59, 9.5 40.83, 32.8 13.94 M-37.66 101.09 C-37.42 100.71, -36.82 100.2, -36.34 99.58 M-37.66 101.09 C-37.2 100.58, -36.61 100.02, -36.34 99.58 M-6.82 65.62 C9.37 49.55, 25.32 28.99, 33.2 19.58 M-6.82 65.62 C6.46 51.01, 17.62 37.72, 33.2 19.58 M-1.83 65.98 C5.81 56.47, 15.15 45.57, 32.94 25.98 M-1.83 65.98 C8.77 54.1, 20.21 40.33, 32.94 25.98 M3.81 65.59 C12.56 54.88, 25.06 43.2, 33.33 31.63 M3.81 65.59 C13.24 54.79, 21.17 44.34, 33.33 31.63 M8.8 65.95 C17.08 57.13, 23.45 48.13, 33.07 38.02 M8.8 65.95 C13.64 58.47, 20.95 52.06, 33.07 38.02 M14.44 65.55 C18.93 57.33, 24.51 51.96, 33.47 43.67 M14.44 65.55 C18.6 60.43, 21.51 57.11, 33.47 43.67 M20.08 65.16 C24.87 58.82, 27.91 56.4, 33.2 50.06 M20.08 65.16 C24.96 60.15, 28.95 53.94, 33.2 50.06 M-57.73 96.9 C-57.73 96.9, -57.73 96.9, -57.73 96.9 M-57.73 96.9 C-57.73 96.9, -57.73 96.9, -57.73 96.9 M-47.56 100.44 C-51.16 96.17, -55.56 94.1, -63.41 86.66 M-47.56 100.44 C-53.25 95.63, -57.59 92.05, -63.41 86.66 M-41.92 100.04 C-51.62 92.2, -59.66 84.42, -66.07 79.05 M-41.92 100.04 C-52.19 91.44, -60.44 83.34, -66.07 79.05 M-36.27 99.65 C-45.96 91.15, -52.83 85.92, -66.46 73.41 M-36.27 99.65 C-42.88 93.85, -47.75 89.51, -66.46 73.41 M-35.91 94.66 C-46.67 86.34, -58 73.85, -66.86 67.76 M-35.91 94.66 C-45.72 85.61, -57.09 77.42, -66.86 67.76 M-36.31 89.02 C-44.22 83.72, -50.38 78.27, -66.5 62.78 M-36.31 89.02 C-44.37 81.55, -55.23 73.97, -66.5 62.78 M-36.7 83.38 C-42.85 76.37, -51.14 70.28, -66.14 57.79 M-36.7 83.38 C-47.53 73.8, -57.54 66.04, -66.14 57.79 M-35.59 79.04 C-43.33 70.57, -54.63 65.83, -65.78 52.8 M-35.59 79.04 C-43.82 71.04, -50.95 65.39, -65.78 52.8 M-34.47 74.71 C-44.56 67.29, -56.41 56.39, -63.91 49.13 M-34.47 74.71 C-43.56 66.93, -50.53 61.1, -63.91 49.13 M-31.85 71.69 C-43.95 63.36, -55.11 51.01, -62.04 45.45 M-31.85 71.69 C-44.07 60.25, -55.18 51.64, -62.04 45.45 M-29.22 68.68 C-39.57 60.81, -48.44 48.88, -60.17 41.78 M-29.22 68.68 C-36.76 62.77, -41.61 56.64, -60.17 41.78 M-25.84 66.31 C-35.87 55.34, -47.54 46.95, -57.54 38.76 M-25.84 66.31 C-34.56 59.26, -41.17 52.69, -57.54 38.76 M-20.96 65.26 C-26.6 58.63, -36.04 52.3, -54.16 36.4 M-20.96 65.26 C-29.09 58.29, -36.17 50.46, -54.16 36.4 M-15.31 64.87 C-25.59 55.57, -32.83 47.82, -50.03 34.69 M-15.31 64.87 C-25.08 57.72, -33.65 49.17, -50.03 34.69 M-9.67 64.47 C-16.36 56.79, -25.72 50.7, -43.63 34.95 M-9.67 64.47 C-20 57.65, -28.39 48.27, -43.63 34.95 M-3.27 64.73 C-15.8 56.16, -28.76 45.96, -37.23 35.21 M-3.27 64.73 C-15.88 52.88, -28.75 41.36, -37.23 35.21 M3.13 65 C-7.24 58.18, -14.15 49.39, -31.59 34.82 M3.13 65 C-6.27 57.33, -15.1 50.13, -31.59 34.82 M8.77 64.6 C-5.54 52.96, -17.67 44.75, -25.19 35.08 M8.77 64.6 C-3.99 53.62, -15.91 43.1, -25.19 35.08 M-30.48 30.49 C-30.75 30.27, -31.29 29.89, -31.99 29.17 M-30.48 30.49 C-31 30.06, -31.56 29.66, -31.99 29.17 M15.92 65.52 C7 58.86, -3.36 49.28, -19.55 34.68 M15.92 65.52 C4.81 56.55, -5.89 45.74, -19.55 34.68 M-24.83 30.09 C-27.63 28.91, -28.91 27.66, -32.38 23.53 M-24.83 30.09 C-27.08 27.87, -30.04 25.69, -32.38 23.53 M20.81 64.47 C8.35 56.11, -2.55 43.77, -13.15 34.95 M20.81 64.47 C10.02 55.86, 0.21 45.41, -13.15 34.95 M-18.44 30.35 C-21.42 28.87, -24.2 26.09, -32.02 18.54 M-18.44 30.35 C-21.72 26.55, -26.27 23.54, -32.02 18.54 M24.94 62.76 C15.44 52.64, 4.61 43.98, -6.76 35.21 M24.94 62.76 C17.86 56.28, 10.6 49.51, -6.76 35.21 M-12.04 30.61 C-16.8 26.01, -23.56 18, -31.66 13.56 M-12.04 30.61 C-19.12 24.94, -24.46 20.08, -31.66 13.56 M28.32 60.4 C23.57 55.98, 15.57 51.34, -1.11 34.81 M28.32 60.4 C19.53 51.95, 10.77 45.85, -1.11 34.81 M-6.39 30.22 C-15.02 24.61, -21.94 16.2, -30.55 9.23 M-6.39 30.22 C-16.08 22.05, -24.83 13.46, -30.55 9.23 M30.95 57.38 C22.77 50.29, 13.75 42.87, 0.76 31.14 M30.95 57.38 C20.09 49.83, 12.14 40.21, 0.76 31.14 M0 30.48 C-10.74 22.23, -20.92 12.88, -27.92 6.21 M0 30.48 C-9.15 21.71, -19.39 13.61, -27.92 6.21 M32.82 53.71 C13.36 37.73, -6.13 19.08, -24.54 3.84 M32.82 53.71 C15.09 38.88, -1 25.5, -24.54 3.84 M33.18 48.72 C15.54 35.96, -0.77 20.6, -20.41 2.14 M33.18 48.72 C17.3 34.82, 0.61 20.42, -20.41 2.14 M33.54 43.73 C19.82 29.46, 6.95 20.59, -15.52 1.09 M33.54 43.73 C16.4 30.37, -0.35 14.93, -15.52 1.09 M33.14 38.09 C22.26 25.56, 6.59 15.93, -10.63 0.04 M33.14 38.09 C15.98 23.91, -1.25 7.51, -10.63 0.04 M33.5 33.1 C23.83 25.19, 13.46 16.11, -4.23 0.3 M33.5 33.1 C25.74 26.97, 15.99 19.48, -4.23 0.3 M33.11 27.46 C23.88 21.98, 15.63 13.91, 0.65 -0.75 M33.11 27.46 C21.99 18.76, 11.6 8.77, 0.65 -0.75 M33.47 22.47 C26.95 16.97, 24.81 13.43, 7.81 0.17 M33.47 22.47 C28.75 17.89, 22.33 12.05, 7.81 0.17 M33.07 16.83 C28.13 14.38, 26.05 8.89, 14.2 0.43 M33.07 16.83 C26.55 10.35, 19.83 5.53, 14.2 0.43 M30.41 9.22 C29.25 8.43, 28.11 7.35, 26.64 5.94 M30.41 9.22 C29.57 8.3, 28.51 7.72, 26.64 5.94" stroke="#366d9a" stroke-width="0.5" fill="none"></path><path d="M0 0 C0 0, 0 0, 0 0 M0 0 C0 0, 0 0, 0 0 M0 0 C-0.87 0.14, -2.14 0.25, -3.12 0.04 M0 0 C-1.05 0.12, -2.23 -0.03, -3.12 0.04 M-3.12 0.04 C-3.82 0.26, -4.45 -0.21, -6.03 0.17 M-3.12 0.04 C-4.14 0.22, -5.13 0.04, -6.03 0.17 M-6.03 0.17 C-6.83 0.48, -7.25 0.22, -8.74 0.37 M-6.03 0.17 C-7.1 0.25, -8.17 0.37, -8.74 0.37 M-8.74 0.37 C-9.57 0.43, -10.83 0.51, -11.26 0.64 M-8.74 0.37 C-9.77 0.48, -10.51 0.54, -11.26 0.64 M-11.26 0.64 C-12.26 0.78, -12.77 0.68, -13.59 0.98 M-11.26 0.64 C-12 0.7, -12.65 0.79, -13.59 0.98 M-13.59 0.98 C-14.25 1.17, -15.39 1.14, -15.75 1.38 M-13.59 0.98 C-13.98 1.07, -14.64 1.2, -15.75 1.38 M-15.75 1.38 C-16.33 1.67, -17.1 1.58, -17.73 1.83 M-15.75 1.38 C-16.3 1.45, -16.98 1.69, -17.73 1.83 M-17.73 1.83 C-18.35 2.14, -18.87 2.23, -19.55 2.33 M-17.73 1.83 C-18.16 1.97, -18.77 2.16, -19.55 2.33 M-19.55 2.33 C-19.94 2.53, -20.79 2.57, -21.21 2.88 M-19.55 2.33 C-20.23 2.61, -20.71 2.74, -21.21 2.88 M-21.21 2.88 C-21.53 2.88, -21.98 3.05, -22.72 3.46 M-21.21 2.88 C-21.69 3.05, -22.33 3.26, -22.72 3.46 M-22.72 3.46 C-23.2 3.63, -23.39 3.66, -24.09 4.08 M-22.72 3.46 C-23.17 3.68, -23.64 3.8, -24.09 4.08 M-24.09 4.08 C-24.5 4.35, -25.05 4.52, -25.32 4.72 M-24.09 4.08 C-24.33 4.19, -24.61 4.28, -25.32 4.72 M-25.32 4.72 C-25.76 4.81, -25.94 5.14, -26.42 5.38 M-25.32 4.72 C-25.67 4.95, -26.11 5.12, -26.42 5.38 M-26.42 5.38 C-26.78 5.53, -27.11 5.71, -27.4 6.07 M-26.42 5.38 C-26.84 5.7, -27.19 5.94, -27.4 6.07 M-27.4 6.07 C-27.69 6.3, -28.04 6.58, -28.26 6.76 M-27.4 6.07 C-27.7 6.34, -28 6.55, -28.26 6.76 M-28.26 6.76 C-28.51 7.01, -28.82 7.27, -29.02 7.46 M-28.26 6.76 C-28.5 6.99, -28.83 7.27, -29.02 7.46 M-29.02 7.46 C-29.28 7.81, -29.85 8.33, -30.24 8.85 M-29.02 7.46 C-29.55 8.01, -29.91 8.61, -30.24 8.85 M-30.24 8.85 C-30.34 9.11, -30.62 9.53, -31.11 10.2 M-30.24 8.85 C-30.5 9.21, -30.62 9.54, -31.11 10.2 M-31.11 10.2 C-31.3 10.61, -31.44 10.75, -31.7 11.46 M-31.11 10.2 C-31.3 10.46, -31.29 10.73, -31.7 11.46 M-31.7 11.46 C-31.88 11.92, -32.02 12.38, -32.05 12.58 M-31.7 11.46 C-31.73 11.69, -31.92 12.03, -32.05 12.58 M-32.05 12.58 C-32 12.75, -32.13 13.09, -32.22 13.54 M-32.05 12.58 C-32.06 12.81, -32.15 13.08, -32.22 13.54 M-32.22 13.54 C-32.16 13.78, -32.31 14.01, -32.27 14.27 M-32.22 13.54 C-32.23 13.7, -32.26 13.89, -32.27 14.27 M-32.27 14.27 C-32.26 14.45, -32.24 14.58, -32.26 14.75 M-32.27 14.27 C-32.26 14.36, -32.28 14.46, -32.26 14.75 M-32.26 14.75 C-32.27 14.77, -32.25 14.84, -32.25 14.92 M-32.26 14.75 C-32.26 14.79, -32.25 14.82, -32.25 14.92 M-32.25 14.92 C-30.75 17.57, -32.25 22.46, -32.21 30.37 M-32.25 14.92 C-32.54 19.74, -32.03 24.63, -32.21 30.37 M-32.21 30.37 C-24.09 29.03, -11.62 29.31, 0.61 30.37 M-32.21 30.37 C-20.01 29.59, -7.74 29.57, 0.61 30.37 M0.61 30.37 C0.41 31.86, 0.4 33.35, 0.61 35.01 M0.61 30.37 C0.46 31.83, 0.62 33.07, 0.61 35.01 M0.61 35.01 C-14.28 37.02, -24.75 36.21, -45.25 35.01 M0.61 35.01 C-9.52 33.8, -18.55 35.12, -45.25 35.01 M-45.25 35.01 C-45.25 35.01, -45.25 35.01, -45.25 35.01 M-45.25 35.01 C-45.25 35.01, -45.25 35.01, -45.25 35.01 M-45.25 35.01 C-45.26 35, -45.27 35, -45.31 35 M-45.25 35.01 C-45.26 35.01, -45.28 35.01, -45.31 35 M-45.31 35 C-45.37 34.99, -45.4 35.01, -45.49 34.99 M-45.31 35 C-45.35 35, -45.42 35, -45.49 34.99 M-45.49 34.99 C-45.57 35.01, -45.67 35, -45.79 34.97 M-45.49 34.99 C-45.58 34.98, -45.65 34.98, -45.79 34.97 M-45.79 34.97 C-45.91 34.99, -46.06 35.01, -46.19 34.97 M-45.79 34.97 C-45.89 34.98, -45.97 34.96, -46.19 34.97 M-46.19 34.97 C-46.33 34.98, -46.63 34.9, -47.28 35.01 M-46.19 34.97 C-46.46 34.93, -46.75 35.02, -47.28 35.01 M-47.28 35.01 C-47.77 35.14, -48.27 35.15, -48.68 35.16 M-47.28 35.01 C-47.67 35.07, -48.12 35.05, -48.68 35.16 M-48.68 35.16 C-49.04 35.22, -49.57 35.49, -50.35 35.49 M-48.68 35.16 C-49.12 35.24, -49.51 35.36, -50.35 35.49 M-50.35 35.49 C-50.67 35.58, -51.17 35.65, -52.21 36.05 M-50.35 35.49 C-50.79 35.57, -51.19 35.71, -52.21 36.05 M-52.21 36.05 C-52.79 36.34, -53.77 36.51, -54.2 36.9 M-52.21 36.05 C-52.7 36.31, -53.39 36.59, -54.2 36.9 M-54.2 36.9 C-55.17 37.27, -55.73 37.68, -56.25 38.1 M-54.2 36.9 C-54.78 37.18, -55.53 37.77, -56.25 38.1 M-56.25 38.1 C-56.65 38.24, -56.84 38.7, -57.28 38.85 M-56.25 38.1 C-56.6 38.43, -57.07 38.62, -57.28 38.85 M-57.28 38.85 C-57.48 38.96, -57.79 39.39, -58.3 39.7 M-57.28 38.85 C-57.49 39.11, -57.75 39.29, -58.3 39.7 M-58.3 39.7 C-58.66 39.84, -58.62 40.19, -59.31 40.68 M-58.3 39.7 C-58.56 39.89, -58.78 40.24, -59.31 40.68 M-59.31 40.68 C-59.68 40.79, -59.7 41.3, -60.29 41.77 M-59.31 40.68 C-59.47 40.98, -59.75 41.24, -60.29 41.77 M-60.29 41.77 C-60.66 42.17, -60.9 42.52, -61.24 43 M-60.29 41.77 C-60.62 42.09, -60.85 42.5, -61.24 43 M-61.24 43 C-61.45 43.39, -61.77 43.95, -62.15 44.37 M-61.24 43 C-61.49 43.34, -61.63 43.67, -62.15 44.37 M-62.15 44.37 C-62.45 44.78, -62.71 45.49, -63.01 45.88 M-62.15 44.37 C-62.4 44.81, -62.81 45.4, -63.01 45.88 M-63.01 45.88 C-63.22 46.25, -63.49 46.67, -63.82 47.54 M-63.01 45.88 C-63.3 46.46, -63.48 46.99, -63.82 47.54 M-63.82 47.54 C-64.16 47.76, -64.09 48.28, -64.56 49.37 M-63.82 47.54 C-63.98 48.08, -64.25 48.7, -64.56 49.37 M-64.56 49.37 C-64.87 49.83, -64.83 50.68, -65.22 51.36 M-64.56 49.37 C-64.78 50.14, -65 50.81, -65.22 51.36 M-65.22 51.36 C-65.14 51.85, -65.41 52.05, -65.81 53.52 M-65.22 51.36 C-65.48 52.08, -65.49 52.68, -65.81 53.52 M-65.81 53.52 C-65.85 54.25, -65.99 54.62, -66.31 55.87 M-65.81 53.52 C-65.88 54.12, -66.04 54.74, -66.31 55.87 M-66.31 55.87 C-66.17 56.42, -66.61 57.09, -66.71 58.4 M-66.31 55.87 C-66.37 56.38, -66.59 57.21, -66.71 58.4 M-66.71 58.4 C-66.91 59.36, -67.06 60.31, -67.01 61.13 M-66.71 58.4 C-66.75 59.26, -66.99 59.73, -67.01 61.13 M-67.01 61.13 C-67.16 61.5, -66.86 62.13, -67.19 64.07 M-67.01 61.13 C-67.05 61.72, -67.19 62.51, -67.19 64.07 M-67.19 64.07 C-66.98 65.18, -67.29 65.85, -67.25 67.22 M-67.19 64.07 C-67.33 65.12, -67.09 66.15, -67.25 67.22 M-67.25 67.22 C-67.47 68.38, -67.02 69.67, -67.2 70.36 M-67.25 67.22 C-67.33 67.96, -67.19 68.41, -67.2 70.36 M-67.2 70.36 C-66.87 71.6, -67.25 72.36, -67.04 73.31 M-67.2 70.36 C-67.19 71.39, -67.04 72.57, -67.04 73.31 M-67.04 73.31 C-66.94 74.36, -66.74 74.91, -66.78 76.06 M-67.04 73.31 C-66.88 74.21, -66.93 75.08, -66.78 76.06 M-66.78 76.06 C-66.49 76.97, -66.5 77.79, -66.43 78.62 M-66.78 76.06 C-66.59 76.58, -66.63 77.22, -66.43 78.62 M-66.43 78.62 C-66.3 79.09, -66.23 79.89, -65.99 80.99 M-66.43 78.62 C-66.22 79.36, -66.16 80.12, -65.99 80.99 M-65.99 80.99 C-65.94 81.6, -65.8 82.67, -65.48 83.19 M-65.99 80.99 C-65.97 81.44, -65.84 81.97, -65.48 83.19 M-65.48 83.19 C-65.18 84.11, -65.03 84.66, -64.9 85.22 M-65.48 83.19 C-65.27 83.62, -65.26 84.09, -64.9 85.22 M-64.9 85.22 C-64.65 85.95, -64.43 86.69, -64.25 87.09 M-64.9 85.22 C-64.67 85.71, -64.47 86.35, -64.25 87.09 M-64.25 87.09 C-63.84 87.72, -63.84 88.55, -63.55 88.8 M-64.25 87.09 C-64.02 87.76, -63.62 88.39, -63.55 88.8 M-63.55 88.8 C-63.23 89.12, -63.32 89.7, -62.8 90.36 M-63.55 88.8 C-63.28 89.34, -63.07 89.81, -62.8 90.36 M-62.8 90.36 C-62.56 90.96, -62.37 91.37, -62.01 91.78 M-62.8 90.36 C-62.56 90.65, -62.45 91.11, -62.01 91.78 M-62.01 91.78 C-61.68 92.24, -61.63 92.49, -61.18 93.06 M-62.01 91.78 C-61.81 92.22, -61.57 92.59, -61.18 93.06 M-61.18 93.06 C-60.76 93.57, -60.74 93.89, -60.32 94.21 M-61.18 93.06 C-60.85 93.44, -60.6 93.87, -60.32 94.21 M-60.32 94.21 C-60.12 94.36, -59.86 94.64, -59.44 95.24 M-60.32 94.21 C-60.06 94.53, -59.84 94.67, -59.44 95.24 M-59.44 95.24 C-59.23 95.46, -58.94 95.79, -58.55 96.16 M-59.44 95.24 C-59.05 95.54, -58.83 95.95, -58.55 96.16 M-58.55 96.16 C-58.44 96.35, -58.17 96.42, -57.65 96.97 M-58.55 96.16 C-58.19 96.46, -57.98 96.76, -57.65 96.97 M-57.65 96.97 C-57.09 97.32, -56.18 98.03, -55.86 98.28 M-57.65 96.97 C-57.29 97.28, -56.79 97.5, -55.86 98.28 M-55.86 98.28 C-55.11 98.53, -54.66 98.9, -54.12 99.25 M-55.86 98.28 C-55.45 98.51, -54.87 98.77, -54.12 99.25 M-54.12 99.25 C-53.63 99.39, -52.84 99.84, -52.5 99.92 M-54.12 99.25 C-53.69 99.47, -53.37 99.59, -52.5 99.92 M-52.5 99.92 C-52.18 100.17, -51.71 100.09, -51.05 100.34 M-52.5 99.92 C-52.09 99.94, -51.9 100.15, -51.05 100.34 M-51.05 100.34 C-50.66 100.34, -50.23 100.4, -49.82 100.57 M-51.05 100.34 C-50.55 100.38, -50.12 100.57, -49.82 100.57 M-49.82 100.57 C-49.63 100.61, -49.34 100.69, -48.87 100.67 M-49.82 100.57 C-49.52 100.61, -49.18 100.62, -48.87 100.67 M-48.87 100.67 C-48.68 100.63, -48.46 100.7, -48.26 100.69 M-48.87 100.67 C-48.71 100.69, -48.56 100.67, -48.26 100.69 M-48.26 100.69 C-48.19 100.69, -48.13 100.68, -48.1 100.69 M-48.26 100.69 C-48.21 100.7, -48.16 100.7, -48.1 100.69 M-48.1 100.69 C-48.08 100.69, -48.06 100.7, -48.04 100.69 M-48.1 100.69 C-48.08 100.69, -48.06 100.69, -48.04 100.69 M-48.04 100.69 C-43.54 101.17, -40.54 101.28, -36.58 100.69 M-48.04 100.69 C-44.91 101.13, -40.8 100.87, -36.58 100.69 M-36.58 100.69 C-35.86 96.95, -35.86 90.16, -36.58 84.59 M-36.58 100.69 C-36.06 96.66, -35.86 93.66, -36.58 84.59 M-36.58 84.59 C-36.58 84.59, -36.58 84.59, -36.58 84.59 M-36.58 84.59 C-36.58 84.59, -36.58 84.59, -36.58 84.59 M-36.58 84.59 C-36.58 84.57, -36.58 84.55, -36.58 84.53 M-36.58 84.59 C-36.58 84.57, -36.58 84.56, -36.58 84.53 M-36.58 84.53 C-36.59 84.47, -36.58 84.43, -36.58 84.37 M-36.58 84.53 C-36.58 84.49, -36.58 84.45, -36.58 84.37 M-36.58 84.37 C-36.53 84.29, -36.58 84.12, -36.57 83.76 M-36.58 84.37 C-36.57 84.12, -36.57 83.89, -36.57 83.76 M-36.57 83.76 C-36.57 83.53, -36.59 83.35, -36.51 82.81 M-36.57 83.76 C-36.52 83.5, -36.53 83.36, -36.51 82.81 M-36.51 82.81 C-36.57 82.43, -36.43 82.15, -36.37 81.58 M-36.51 82.81 C-36.49 82.51, -36.5 82.11, -36.37 81.58 M-36.37 81.58 C-36.46 81.32, -36.41 81.05, -36.13 80.13 M-36.37 81.58 C-36.31 81, -36.23 80.54, -36.13 80.13 M-36.13 80.13 C-35.94 79.43, -35.74 78.9, -35.75 78.51 M-36.13 80.13 C-35.94 79.61, -35.95 79.12, -35.75 78.51 M-35.75 78.51 C-35.71 77.93, -35.35 77.41, -35.2 76.77 M-35.75 78.51 C-35.59 77.98, -35.37 77.56, -35.2 76.77 M-35.2 76.77 C-35.12 76.3, -35.1 76.21, -34.45 74.98 M-35.2 76.77 C-34.82 76.1, -34.67 75.49, -34.45 74.98 M-34.45 74.98 C-34.12 74.46, -33.62 73.73, -33.47 73.19 M-34.45 74.98 C-34.22 74.45, -33.85 74.1, -33.47 73.19 M-33.47 73.19 C-33.06 72.72, -32.8 72.6, -32.24 71.45 M-33.47 73.19 C-33.14 72.69, -32.65 72.17, -32.24 71.45 M-32.24 71.45 C-31.51 70.74, -31.22 70.5, -30.71 69.83 M-32.24 71.45 C-31.81 71.02, -31.54 70.73, -30.71 69.83 M-30.71 69.83 C-29.93 69.24, -29.59 68.61, -28.87 68.38 M-30.71 69.83 C-30.39 69.48, -29.91 69.16, -28.87 68.38 M-28.87 68.38 C-28.36 68.24, -28.11 67.78, -27.81 67.73 M-28.87 68.38 C-28.6 68.26, -28.31 67.98, -27.81 67.73 M-27.81 67.73 C-27.5 67.54, -27.08 67.29, -26.67 67.15 M-27.81 67.73 C-27.46 67.63, -27.23 67.38, -26.67 67.15 M-26.67 67.15 C-26.3 67.06, -26.03 66.8, -25.43 66.64 M-26.67 67.15 C-26.23 67.03, -25.79 66.76, -25.43 66.64 M-25.43 66.64 C-25.04 66.44, -24.35 66.22, -24.09 66.2 M-25.43 66.64 C-25.11 66.5, -24.77 66.48, -24.09 66.2 M-24.09 66.2 C-23.67 66.19, -23.37 66.08, -22.65 65.85 M-24.09 66.2 C-23.7 66.07, -23.45 66.03, -22.65 65.85 M-22.65 65.85 C-22.12 65.69, -21.87 65.6, -21.11 65.59 M-22.65 65.85 C-22.14 65.79, -21.61 65.63, -21.11 65.59 M-21.11 65.59 C-20.67 65.39, -20.08 65.5, -19.45 65.43 M-21.11 65.59 C-20.65 65.5, -20.1 65.56, -19.45 65.43 M-19.45 65.43 C-18.77 65.56, -18.59 65.54, -17.68 65.38 M-19.45 65.43 C-18.99 65.51, -18.32 65.45, -17.68 65.38 M-17.68 65.38 C-8.47 65.7, -2.81 64.55, 14.88 65.38 M-17.68 65.38 C-6.91 65.41, 4.99 65.96, 14.88 65.38 M14.88 65.38 C14.88 65.38, 14.88 65.38, 14.88 65.38 M14.88 65.38 C14.88 65.38, 14.88 65.38, 14.88 65.38 M14.88 65.38 C14.9 65.38, 14.92 65.38, 14.93 65.38 M14.88 65.38 C14.89 65.38, 14.9 65.37, 14.93 65.38 M14.93 65.38 C15 65.39, 15.05 65.37, 15.08 65.37 M14.93 65.38 C14.99 65.37, 15.06 65.38, 15.08 65.37 M15.08 65.37 C15.29 65.39, 15.43 65.33, 15.66 65.35 M15.08 65.37 C15.24 65.38, 15.35 65.34, 15.66 65.35 M15.66 65.35 C15.98 65.25, 16.15 65.33, 16.57 65.28 M15.66 65.35 C15.93 65.29, 16.12 65.28, 16.57 65.28 M16.57 65.28 C16.97 65.27, 17.4 65.27, 17.74 65.14 M16.57 65.28 C16.87 65.2, 17.1 65.17, 17.74 65.14 M17.74 65.14 C18.32 65.16, 18.76 65.05, 19.12 64.9 M17.74 65.14 C18.08 65.12, 18.56 64.97, 19.12 64.9 M19.12 64.9 C19.62 64.77, 20.2 64.55, 20.66 64.52 M19.12 64.9 C19.47 64.82, 19.97 64.72, 20.66 64.52 M20.66 64.52 C21.33 64.43, 21.84 64.02, 22.32 63.99 M20.66 64.52 C21.15 64.36, 21.57 64.19, 22.32 63.99 M22.32 63.99 C22.97 63.82, 23.59 63.34, 24.02 63.28 M22.32 63.99 C22.98 63.7, 23.42 63.57, 24.02 63.28 M24.02 63.28 C24.52 62.91, 25.33 62.61, 25.73 62.35 M24.02 63.28 C24.68 63.03, 25.31 62.61, 25.73 62.35 M25.73 62.35 C26.12 62.04, 26.89 61.45, 27.38 61.19 M25.73 62.35 C25.97 62.09, 26.37 61.92, 27.38 61.19 M27.38 61.19 C27.6 60.95, 28.03 60.64, 28.92 59.76 M27.38 61.19 C27.93 60.62, 28.56 60.14, 28.92 59.76 M28.92 59.76 C29.45 59.15, 29.93 58.93, 30.31 58.04 M28.92 59.76 C29.42 59.13, 30.06 58.39, 30.31 58.04 M30.31 58.04 C30.43 57.73, 30.71 57.57, 30.92 57.06 M30.31 58.04 C30.58 57.7, 30.69 57.4, 30.92 57.06 M30.92 57.06 C31.15 56.71, 31.31 56.29, 31.48 56 M30.92 57.06 C31.08 56.7, 31.31 56.3, 31.48 56 M31.48 56 C31.72 55.55, 31.81 55.14, 31.97 54.86 M31.48 56 C31.55 55.75, 31.7 55.48, 31.97 54.86 M31.97 54.86 C32.14 54.42, 32.36 54.12, 32.38 53.62 M31.97 54.86 C32.08 54.55, 32.19 54.29, 32.38 53.62 M32.38 53.62 C32.31 53.35, 32.65 52.99, 32.71 52.29 M32.38 53.62 C32.42 53.16, 32.56 52.72, 32.71 52.29 M32.71 52.29 C32.77 51.96, 32.74 51.71, 32.96 50.86 M32.71 52.29 C32.85 51.7, 32.92 51.18, 32.96 50.86 M32.96 50.86 C33.04 50.53, 32.97 49.92, 33.11 49.33 M32.96 50.86 C32.98 50.58, 32.96 50.24, 33.11 49.33 M33.11 49.33 C33 48.9, 33.02 48.35, 33.17 47.7 M33.11 49.33 C33.05 49.03, 33.07 48.69, 33.17 47.7 M33.17 47.7 C31.01 37.21, 34.87 31.34, 33.17 17.98 M33.17 47.7 C34 36.81, 33.07 24.78, 33.17 17.98 M33.17 17.98 C33.17 17.98, 33.17 17.98, 33.17 17.98 M33.17 17.98 C33.17 17.98, 33.17 17.98, 33.17 17.98 M33.17 17.98 C33.17 17.91, 33.2 17.85, 33.19 17.78 M33.17 17.98 C33.18 17.91, 33.18 17.84, 33.19 17.78 M33.19 17.78 C33.25 17.68, 33.19 17.49, 33.22 17.21 M33.19 17.78 C33.21 17.58, 33.21 17.44, 33.22 17.21 M33.22 17.21 C33.13 16.91, 33.28 16.74, 33.19 16.32 M33.22 17.21 C33.22 16.86, 33.23 16.58, 33.19 16.32 M33.19 16.32 C33.14 15.87, 33.12 15.44, 33.04 15.17 M33.19 16.32 C33.14 15.98, 33.06 15.7, 33.04 15.17 M33.04 15.17 C33.04 14.67, 32.75 14.29, 32.71 13.81 M33.04 15.17 C32.96 14.81, 32.86 14.37, 32.71 13.81 M32.71 13.81 C32.64 13.48, 32.48 13.03, 32.15 12.29 M32.71 13.81 C32.52 13.46, 32.47 13.1, 32.15 12.29 M32.15 12.29 C32.05 11.96, 31.87 11.66, 31.29 10.67 M32.15 12.29 C31.91 11.79, 31.54 11.33, 31.29 10.67 M31.29 10.67 C31.11 10.2, 30.42 9.53, 30.06 8.99 M31.29 10.67 C31.1 10.26, 30.75 10.03, 30.06 8.99 M30.06 8.99 C29.8 8.72, 29.45 8.46, 29.3 8.15 M30.06 8.99 C29.83 8.71, 29.67 8.54, 29.3 8.15 M29.3 8.15 C29.1 7.93, 28.69 7.62, 28.42 7.31 M29.3 8.15 C28.92 7.85, 28.64 7.56, 28.42 7.31 M28.42 7.31 C28.07 6.87, 27.61 6.57, 27.42 6.49 M28.42 7.31 C28.15 7.13, 27.98 6.92, 27.42 6.49 M27.42 6.49 C26.96 6.33, 26.6 5.78, 26.29 5.69 M27.42 6.49 C26.92 6.19, 26.57 5.89, 26.29 5.69 M26.29 5.69 C25.95 5.39, 25.4 5.22, 25.03 4.91 M26.29 5.69 C26.04 5.56, 25.6 5.23, 25.03 4.91 M25.03 4.91 C24.56 4.61, 24.55 4.68, 23.62 4.17 M25.03 4.91 C24.68 4.74, 24.21 4.56, 23.62 4.17 M23.62 4.17 C23.39 3.93, 22.69 3.86, 22.06 3.47 M23.62 4.17 C23.07 3.97, 22.7 3.73, 22.06 3.47 M22.06 3.47 C21.57 3.07, 20.7 3.05, 20.35 2.81 M22.06 3.47 C21.49 3.3, 20.68 2.92, 20.35 2.81 M20.35 2.81 C19.76 2.58, 19.2 2.32, 18.46 2.21 M20.35 2.81 C19.87 2.7, 19.6 2.61, 18.46 2.21 M18.46 2.21 C17.83 2.15, 17.4 2.08, 16.41 1.66 M18.46 2.21 C17.72 1.99, 17.04 1.92, 16.41 1.66 M16.41 1.66 C15.84 1.57, 14.86 1.47, 14.17 1.18 M16.41 1.66 C15.88 1.42, 15.23 1.36, 14.17 1.18 M14.17 1.18 C13.51 1.02, 12.73 1.11, 11.75 0.77 M14.17 1.18 C13.37 1.08, 12.35 0.81, 11.75 0.77 M11.75 0.77 C10.82 0.48, 9.93 0.47, 9.12 0.44 M11.75 0.77 C11 0.65, 10.24 0.52, 9.12 0.44 M9.12 0.44 C8.45 0.34, 8.07 0.55, 6.3 0.2 M9.12 0.44 C8.12 0.42, 7.45 0.24, 6.3 0.2 M6.3 0.2 C5.75 0.45, 5.34 0.31, 3.26 0.05 M6.3 0.2 C5.4 0.27, 4.45 0.11, 3.26 0.05 M3.26 0.05 C2.05 0.14, 1.39 0, 0 0 M3.26 0.05 C2.64 -0.12, 1.72 0.17, 0 0 M0 0 C0 0, 0 0, 0 0 M0 0 C0 0, 0 0, 0 0 M0 0 C0 0, 0 0, 0 0 M0 0 C0 0, 0 0, 0 0" stroke="#366d9a" stroke-width="1" fill="none"></path></g></g><mask></mask><g stroke-linecap="round"><g transform="translate(59.21519028027592 20.39486845830221) rotate(0 -0.000005037453775003087 5.904659373534399)" fill-rule="evenodd"><path d="M-4.15 1.69 C-4.15 1.69, -4.15 1.69, -4.15 1.69 M-4.15 1.69 C-4.15 1.69, -4.15 1.69, -4.15 1.69 M-5.07 8.85 C-3.19 7.62, -2.49 5.55, 2.15 0.55 M-5.07 8.85 C-2.76 6.22, -0.41 3.52, 2.15 0.55 M-2.05 11.47 C0.58 8.5, 2.11 6.49, 5.17 3.17 M-2.05 11.47 C0.95 8.04, 3.91 4.9, 5.17 3.17 M-4.53 9.78 C-4.53 9.78, -4.53 9.78, -4.53 9.78 M-4.53 9.78 C-4.53 9.78, -4.53 9.78, -4.53 9.78 M2.63 10.7 C-0.46 7.42, -3.74 4.86, -5.67 3.48 M2.63 10.7 C0.39 8.93, -1.76 7.03, -5.67 3.48 M5.25 7.68 C3.62 6.18, 1.44 4.35, -3.05 0.46 M5.25 7.68 C2.99 5.77, 1.08 3.93, -3.05 0.46" stroke="#366d9a" stroke-width="0.5" fill="none"></path><path d="M0 0 C0 0, 0 0, 0 0 M0 0 C0 0, 0 0, 0 0 M0 0 C0.43 0.08, 0.87 0.11, 1.19 0.12 M0 0 C0.37 0.02, 0.71 0.07, 1.19 0.12 M1.19 0.12 C1.45 0.13, 1.7 0.21, 2.3 0.46 M1.19 0.12 C1.56 0.21, 1.9 0.36, 2.3 0.46 M2.3 0.46 C2.61 0.63, 3 0.83, 3.3 1.01 M2.3 0.46 C2.68 0.68, 3.08 0.89, 3.3 1.01 M3.3 1.01 C3.6 1.28, 4.04 1.59, 4.18 1.73 M3.3 1.01 C3.6 1.23, 3.86 1.47, 4.18 1.73 M4.18 1.73 C4.4 1.94, 4.59 2.18, 4.9 2.6 M4.18 1.73 C4.46 2.04, 4.74 2.4, 4.9 2.6 M4.9 2.6 C5.06 2.94, 5.26 3.34, 5.44 3.61 M4.9 2.6 C5.07 2.97, 5.31 3.32, 5.44 3.61 M5.44 3.61 C5.51 3.8, 5.6 4.01, 5.79 4.71 M5.44 3.61 C5.57 3.96, 5.67 4.31, 5.79 4.71 M5.79 4.71 C5.84 5.1, 5.85 5.47, 5.9 5.9 M5.79 4.71 C5.81 5.04, 5.86 5.33, 5.9 5.9 M5.9 5.9 C5.83 6.17, 5.89 6.47, 5.79 7.1 M5.9 5.9 C5.88 6.3, 5.8 6.67, 5.79 7.1 M5.79 7.1 C5.68 7.35, 5.64 7.67, 5.44 8.2 M5.79 7.1 C5.69 7.4, 5.58 7.71, 5.44 8.2 M5.44 8.2 C5.33 8.38, 5.21 8.67, 4.9 9.21 M5.44 8.2 C5.3 8.4, 5.23 8.61, 4.9 9.21 M4.9 9.21 C4.65 9.47, 4.41 9.76, 4.18 10.08 M4.9 9.21 C4.7 9.42, 4.5 9.7, 4.18 10.08 M4.18 10.08 C3.96 10.28, 3.71 10.49, 3.3 10.8 M4.18 10.08 C3.95 10.23, 3.76 10.42, 3.3 10.8 M3.3 10.8 C3.05 10.88, 2.93 11.01, 2.3 11.35 M3.3 10.8 C2.93 11.02, 2.6 11.17, 2.3 11.35 M2.3 11.35 C1.84 11.5, 1.46 11.59, 1.19 11.69 M2.3 11.35 C1.95 11.45, 1.59 11.6, 1.19 11.69 M1.19 11.69 C0.76 11.76, 0.42 11.78, 0 11.81 M1.19 11.69 C0.92 11.73, 0.69 11.73, 0 11.81 M0 11.81 C-0.51 11.8, -0.86 11.73, -1.19 11.69 M0 11.81 C-0.35 11.79, -0.75 11.72, -1.19 11.69 M-1.19 11.69 C-1.55 11.54, -2.03 11.43, -2.3 11.35 M-1.19 11.69 C-1.62 11.59, -2.08 11.41, -2.3 11.35 M-2.3 11.35 C-2.72 11.13, -3.14 10.94, -3.3 10.8 M-2.3 11.35 C-2.54 11.2, -2.81 11.04, -3.3 10.8 M-3.3 10.8 C-3.63 10.58, -3.95 10.25, -4.18 10.08 M-3.3 10.8 C-3.54 10.63, -3.76 10.44, -4.18 10.08 M-4.18 10.08 C-4.36 9.9, -4.55 9.59, -4.9 9.21 M-4.18 10.08 C-4.45 9.73, -4.72 9.46, -4.9 9.21 M-4.9 9.21 C-5.12 8.96, -5.24 8.62, -5.44 8.2 M-4.9 9.21 C-5.12 8.8, -5.31 8.43, -5.44 8.2 M-5.44 8.2 C-5.51 7.87, -5.7 7.49, -5.79 7.1 M-5.44 8.2 C-5.53 7.92, -5.62 7.7, -5.79 7.1 M-5.79 7.1 C-5.8 6.74, -5.91 6.29, -5.9 5.9 M-5.79 7.1 C-5.83 6.61, -5.89 6.18, -5.9 5.9 M-5.9 5.9 C-5.87 5.48, -5.81 5.08, -5.79 4.71 M-5.9 5.9 C-5.85 5.44, -5.81 4.99, -5.79 4.71 M-5.79 4.71 C-5.6 4.26, -5.47 3.87, -5.44 3.61 M-5.79 4.71 C-5.68 4.34, -5.56 4.01, -5.44 3.61 M-5.44 3.61 C-5.35 3.4, -5.23 3.19, -4.9 2.6 M-5.44 3.61 C-5.23 3.24, -5.02 2.86, -4.9 2.6 M-4.9 2.6 C-4.64 2.35, -4.48 2.09, -4.18 1.73 M-4.9 2.6 C-4.75 2.44, -4.58 2.28, -4.18 1.73 M-4.18 1.73 C-4 1.59, -3.79 1.38, -3.3 1.01 M-4.18 1.73 C-3.89 1.53, -3.64 1.28, -3.3 1.01 M-3.3 1.01 C-2.96 0.81, -2.71 0.66, -2.3 0.46 M-3.3 1.01 C-2.98 0.84, -2.63 0.61, -2.3 0.46 M-2.3 0.46 C-1.99 0.42, -1.75 0.29, -1.19 0.12 M-2.3 0.46 C-2.02 0.38, -1.71 0.29, -1.19 0.12 M-1.19 0.12 C-0.82 0.12, -0.45 0.09, 0 0 M-1.19 0.12 C-0.95 0.1, -0.68 0.07, 0 0 M0 0 C0 0, 0 0, 0 0 M0 0 C0 0, 0 0, 0 0 M0 0 C0 0, 0 0, 0 0 M0 0 C0 0, 0 0, 0 0" stroke="#366d9a" stroke-width="1" fill="none"></path></g></g><mask></mask><g stroke-linecap="round"><g transform="translate(78.48289033131528 145.450805806333) rotate(0 17.013577902487782 -50.427924312880975)" fill-rule="evenodd"><path d="M-29.01 -59.67 C-29.01 -59.67, -29.01 -59.67, -29.01 -59.67 M-29.01 -59.67 C-29.01 -59.67, -29.01 -59.67, -29.01 -59.67 M-32.55 -49.5 C-30.37 -51.13, -25.28 -54.51, -20.09 -63.84 M-32.55 -49.5 C-27.42 -54.73, -24.11 -58.59, -20.09 -63.84 M-30.84 -45.36 C-24.95 -50.61, -20.98 -55.92, -13.79 -64.98 M-30.84 -45.36 C-28.1 -48.53, -24.02 -54.28, -13.79 -64.98 M-30.45 -39.72 C-26.31 -43.22, -20.73 -49.92, -8.8 -64.62 M-30.45 -39.72 C-21.68 -49.87, -14.96 -59.01, -8.8 -64.62 M-30.71 -33.32 C-23.8 -41.64, -18.44 -46.41, -3.16 -65.02 M-30.71 -33.32 C-22.47 -41.05, -14.46 -51.25, -3.16 -65.02 M-30.97 -26.92 C-17.96 -42.04, -5.89 -57.42, 1.83 -64.66 M-30.97 -26.92 C-19.42 -39.69, -8.48 -51.41, 1.83 -64.66 M-30.58 -21.28 C-17.57 -39.68, 0.87 -56.98, 6.82 -64.3 M-30.58 -21.28 C-21.58 -31.31, -11.06 -42.75, 6.82 -64.3 M37.65 -99.77 C37.65 -99.77, 37.65 -99.77, 37.65 -99.77 M37.65 -99.77 C37.65 -99.77, 37.65 -99.77, 37.65 -99.77 M-32.15 -13.37 C-14.71 -30.9, 0.21 -51.6, 12.46 -64.69 M-32.15 -13.37 C-15.93 -31.2, -0.79 -48.97, 12.46 -64.69 M37.39 -93.37 C39.48 -95.22, 40.28 -95.77, 42.64 -99.41 M37.39 -93.37 C39.03 -94.5, 40.19 -95.98, 42.64 -99.41 M-29.79 -9.99 C-17.78 -26.71, -2.77 -42.63, 18.1 -65.09 M-29.79 -9.99 C-12.02 -30.4, 5.55 -50.08, 18.1 -65.09 M37.79 -87.73 C40.73 -90.19, 41.76 -94.97, 48.94 -100.56 M37.79 -87.73 C41.6 -92.39, 44.23 -94.94, 48.94 -100.56 M-27.43 -6.62 C-10.53 -30.77, 9.45 -49.22, 24.4 -66.24 M-27.43 -6.62 C-10.41 -26.26, 6.62 -44.55, 24.4 -66.24 M36.21 -79.82 C42.81 -88.97, 50.98 -94.39, 53.27 -99.44 M36.21 -79.82 C40.58 -86.01, 46.23 -90.84, 53.27 -99.44 M-24.41 -3.99 C-19.33 -9.57, -9.89 -17.56, 1.18 -33.42 M-24.41 -3.99 C-18.53 -11.11, -11.45 -17.28, 1.18 -33.42 M1.18 -33.42 C21.68 -56.08, 42.35 -84.01, 56.94 -97.57 M1.18 -33.42 C14.36 -48.02, 27.29 -64.41, 56.94 -97.57 M-20.08 -2.88 C-12.9 -12.93, -1.58 -22.76, 2.23 -28.54 M-20.08 -2.88 C-12.93 -11.9, -4.39 -20.98, 2.23 -28.54 M6.17 -33.06 C23.48 -49.89, 37.13 -69.58, 59.96 -94.95 M6.17 -33.06 C23.8 -53.33, 40.35 -72.93, 59.96 -94.95 M-16.4 -1.01 C-10.24 -7.59, -3.88 -13.47, 7.22 -28.18 M-16.4 -1.01 C-10.43 -7.97, -5.09 -12.64, 7.22 -28.18 M11.81 -33.46 C29.69 -55.08, 47.17 -74.32, 62.33 -91.57 M11.81 -33.46 C25.5 -48.16, 38.6 -64.42, 62.33 -91.57 M-11.41 -0.65 C-4.77 -7.99, 4.3 -16.47, 12.2 -27.82 M-11.41 -0.65 C-2.86 -9.09, 3.3 -17.7, 12.2 -27.82 M16.8 -33.1 C34.46 -54.17, 49.46 -70.49, 64.69 -88.19 M16.8 -33.1 C35.09 -53.78, 53.6 -74.44, 64.69 -88.19 M-7.74 1.22 C2.34 -7.5, 11.02 -21.71, 17.85 -28.21 M-7.74 1.22 C-0.63 -7.63, 6.62 -15.57, 17.85 -28.21 M22.44 -33.49 C32.07 -46.16, 42.28 -56.93, 65.74 -83.3 M22.44 -33.49 C35.26 -47.97, 46.16 -61.85, 65.74 -83.3 M-2.1 0.83 C7.11 -7.19, 12.02 -17.88, 22.83 -27.85 M-2.1 0.83 C5.17 -7.3, 13.27 -17.84, 22.83 -27.85 M27.43 -33.13 C34.74 -42.33, 44.32 -53.02, 66.79 -78.42 M27.43 -33.13 C41.39 -48.94, 55.8 -65.8, 66.79 -78.42 M3.55 0.43 C9.81 -8.4, 17.44 -17.18, 28.48 -28.25 M3.55 0.43 C9.33 -5.78, 15.9 -13.5, 28.48 -28.25 M33.07 -33.53 C46.05 -45.87, 57.67 -60.97, 67.19 -72.77 M33.07 -33.53 C45.6 -47.83, 56.35 -61.07, 67.19 -72.77 M9.19 0.04 C18.63 -10.38, 27.86 -19.5, 34.12 -28.64 M9.19 0.04 C15.44 -7.91, 22.05 -15.97, 34.12 -28.64 M38.06 -33.17 C49.18 -46.54, 58.96 -58.71, 67.58 -67.13 M38.06 -33.17 C49.35 -46.4, 60 -58.84, 67.58 -67.13 M14.83 -0.36 C20.95 -6.53, 26.67 -13.45, 33.86 -22.24 M14.83 -0.36 C19.94 -6.06, 24.58 -11.13, 33.86 -22.24 M43.7 -33.56 C49.47 -39.62, 58.26 -50.83, 67.32 -60.73 M43.7 -33.56 C48.74 -40.56, 55.25 -46.49, 67.32 -60.73 M23.1 -3.77 C23.64 -6.05, 26.55 -7.62, 32.29 -14.33 M23.1 -3.77 C25.27 -6.03, 27.25 -8.2, 32.29 -14.33 M50.66 -35.47 C55.54 -38.23, 56.35 -43.23, 66.4 -53.58 M50.66 -35.47 C55.75 -41.31, 62.43 -48.72, 66.4 -53.58 M-28.23 -7.15 C-28.23 -7.15, -28.23 -7.15, -28.23 -7.15 M-28.23 -7.15 C-28.23 -7.15, -28.23 -7.15, -28.23 -7.15 M-15.8 -1.64 C-19.8 -6.47, -26.67 -10.6, -33.16 -16.73 M-15.8 -1.64 C-20.62 -6.2, -26.37 -11.17, -33.16 -16.73 M-8.64 -0.73 C-12.8 -4.84, -22.5 -12.95, -32.8 -21.72 M-8.64 -0.73 C-16.1 -6.23, -21.9 -13.58, -32.8 -21.72 M-2.25 -0.46 C-10.58 -5.96, -15.75 -12.57, -33.19 -27.36 M-2.25 -0.46 C-10.05 -7.52, -18.1 -14.28, -33.19 -27.36 M3.4 -0.86 C-9.24 -11.62, -22.68 -22.72, -32.83 -32.35 M3.4 -0.86 C-7.69 -9.5, -18.15 -19.3, -32.83 -32.35 M9.04 -1.25 C-5.24 -14.33, -20.96 -24.15, -33.22 -37.99 M9.04 -1.25 C-6.36 -14.93, -21.83 -26.79, -33.22 -37.99 M14.68 -1.65 C0.77 -15.07, -15.81 -28.39, -32.86 -42.98 M14.68 -1.65 C3.86 -10.59, -6.61 -20.24, -32.86 -42.98 M19.57 -2.7 C6.56 -14.77, -6.2 -24.85, -32.5 -47.97 M19.57 -2.7 C8.04 -13.26, -3.24 -22.48, -32.5 -47.97 M23.7 -4.41 C2.99 -23.57, -16.39 -42.19, -32.14 -52.95 M23.7 -4.41 C10.86 -15.2, -3.63 -27.45, -32.14 -52.95 M27.84 -6.11 C19.78 -15.22, 6.26 -24.8, -0.09 -30.39 M27.84 -6.11 C22.4 -9.88, 15.46 -15.74, -0.09 -30.39 M-0.09 -30.39 C-13.36 -39.69, -22.81 -52.04, -31.03 -57.28 M-0.09 -30.39 C-8.16 -38.81, -17.69 -44.69, -31.03 -57.28 M30.46 -9.13 C22.41 -13.34, 15.96 -22.06, 5.56 -30.78 M30.46 -9.13 C22.25 -15.86, 14.96 -20.99, 5.56 -30.78 M0.27 -35.37 C-9.02 -44.43, -17.17 -50.49, -28.4 -60.3 M0.27 -35.37 C-9.55 -42.76, -18.26 -52.13, -28.4 -60.3 M32.33 -12.81 C27.09 -15.95, 23.13 -21.65, 11.95 -30.52 M32.33 -12.81 C23.56 -19.96, 15.8 -26.2, 11.95 -30.52 M5.92 -35.77 C-2.03 -41.5, -7.8 -51.06, -25.03 -62.67 M5.92 -35.77 C-5.8 -47.06, -19.08 -57.63, -25.03 -62.67 M32.69 -17.79 C28.53 -22.14, 21.86 -27.01, 17.6 -30.91 M32.69 -17.79 C28.74 -21.31, 26.5 -24.7, 17.6 -30.91 M12.32 -35.51 C0.35 -44.37, -9.31 -55.35, -20.89 -64.37 M12.32 -35.51 C2.71 -43.37, -7.48 -53.97, -20.89 -64.37 M32.3 -23.44 C31.14 -26.02, 29.03 -27.38, 24 -30.65 M32.3 -23.44 C29.85 -25.43, 27.89 -26.99, 24 -30.65 M17.96 -35.9 C6.68 -44.85, -6.95 -56.87, -16 -65.42 M17.96 -35.9 C6.07 -45.61, -4.56 -55.47, -16 -65.42 M32.66 -28.42 C31.93 -29.04, 30.86 -29.82, 30.39 -30.39 M32.66 -28.42 C31.7 -29.17, 30.94 -30.09, 30.39 -30.39 M24.36 -35.64 C13.83 -44.4, 0.32 -53.9, -10.36 -65.82 M24.36 -35.64 C12.95 -44.76, 1.15 -56.06, -10.36 -65.82 M30.75 -35.38 C19.1 -45.64, 6.14 -56.9, -3.96 -65.56 M30.75 -35.38 C16.62 -46.71, 3.8 -58.26, -3.96 -65.56 M36.4 -35.77 C23.02 -44.99, 12.18 -56.55, 2.43 -65.3 M36.4 -35.77 C29.54 -41.73, 20.95 -48.2, 2.43 -65.3 M42.79 -35.51 C31.91 -41.88, 24.28 -50.95, 8.08 -65.69 M42.79 -35.51 C33.6 -44.77, 23.04 -51.43, 8.08 -65.69 M49.19 -35.25 C36.84 -48.1, 23.89 -58.92, 14.48 -65.43 M49.19 -35.25 C37.79 -43.44, 29.23 -52.15, 14.48 -65.43 M53.33 -36.96 C42.3 -45.21, 31.48 -55.57, 20.12 -65.82 M53.33 -36.96 C45.97 -42.32, 38.64 -49.97, 20.12 -65.82 M57.46 -38.66 C48.43 -48.65, 33.43 -58.29, 25.01 -66.87 M57.46 -38.66 C46.21 -48.12, 34.7 -57.35, 25.01 -66.87 M60.08 -41.68 C49.39 -49.14, 37.77 -62.31, 29.14 -68.58 M60.08 -41.68 C48.34 -53.09, 36.55 -63.3, 29.14 -68.58 M62.71 -44.7 C54.76 -53.22, 44.51 -59.27, 31.77 -71.6 M62.71 -44.7 C53.69 -52.04, 43.33 -60.3, 31.77 -71.6 M64.58 -48.38 C53 -56.93, 41.56 -69.54, 34.39 -74.62 M64.58 -48.38 C56.35 -55.94, 48.07 -63.35, 34.39 -74.62 M65.69 -52.71 C54.87 -62.15, 42.38 -70.56, 35.5 -78.95 M65.69 -52.71 C53.77 -62.46, 41.78 -72.47, 35.5 -78.95 M66.81 -57.04 C61.36 -63.68, 55.35 -68.89, 36.62 -83.28 M66.81 -57.04 C54.96 -67.89, 42.08 -76.87, 36.62 -83.28 M67.17 -62.02 C61.25 -67.36, 50.85 -74.99, 36.98 -88.27 M67.17 -62.02 C54.77 -72.25, 44.3 -82.87, 36.98 -88.27 M67.53 -67.01 C57.22 -75.85, 51.37 -81.6, 36.58 -93.91 M67.53 -67.01 C55 -77.52, 43.53 -88.49, 36.58 -93.91 M67.89 -72 C56.75 -83.15, 43.69 -93.23, 36.94 -98.9 M67.89 -72 C54.85 -82.3, 44.03 -93.38, 36.94 -98.9 M66.74 -78.3 C58.42 -85.75, 53.1 -88.16, 40.32 -101.26 M66.74 -78.3 C57.03 -86.26, 48 -94.36, 40.32 -101.26 M64.83 -85.25 C58.61 -91.77, 51.39 -97.54, 45.97 -101.65 M64.83 -85.25 C60.6 -89.53, 56.24 -92.53, 45.97 -101.65 M60.67 -94.18 C58.76 -95.03, 58.28 -96.69, 56.14 -98.11 M60.67 -94.18 C59.52 -95.15, 58.79 -95.71, 56.14 -98.11" stroke="#ffd040" stroke-width="0.5" fill="none"></path><path d="M0 0 C0 0, 0 0, 0 0 M0 0 C0 0, 0 0, 0 0 M0 0 C1.22 0.13, 2.11 0.07, 3.12 -0.04 M0 0 C1.06 -0.02, 2.15 -0.01, 3.12 -0.04 M3.12 -0.04 C4.35 -0.34, 5.38 -0.1, 6.03 -0.17 M3.12 -0.04 C4.11 0, 5.38 -0.23, 6.03 -0.17 M6.03 -0.17 C7.37 -0.13, 8.4 -0.31, 8.74 -0.37 M6.03 -0.17 C6.89 -0.19, 7.7 -0.23, 8.74 -0.37 M8.74 -0.37 C9.62 -0.4, 10.17 -0.69, 11.26 -0.64 M8.74 -0.37 C9.57 -0.43, 10.28 -0.64, 11.26 -0.64 M11.26 -0.64 C12 -0.95, 12.88 -0.87, 13.59 -0.98 M11.26 -0.64 C11.92 -0.66, 12.48 -0.71, 13.59 -0.98 M13.59 -0.98 C14.09 -1.11, 15.08 -1.04, 15.75 -1.38 M13.59 -0.98 C14.26 -1.14, 14.74 -1.17, 15.75 -1.38 M15.75 -1.38 C16.55 -1.68, 17.28 -1.51, 17.73 -1.83 M15.75 -1.38 C16.23 -1.45, 16.66 -1.6, 17.73 -1.83 M17.73 -1.83 C18.38 -1.93, 19.03 -2.06, 19.55 -2.33 M17.73 -1.83 C18.32 -2.03, 18.8 -2.06, 19.55 -2.33 M19.55 -2.33 C20.19 -2.64, 20.66 -2.81, 21.21 -2.88 M19.55 -2.33 C20.14 -2.63, 20.8 -2.73, 21.21 -2.88 M21.21 -2.88 C21.65 -3.01, 21.85 -2.98, 22.72 -3.46 M21.21 -2.88 C21.56 -3.09, 21.91 -3.24, 22.72 -3.46 M22.72 -3.46 C23.19 -3.58, 23.47 -3.89, 24.09 -4.08 M22.72 -3.46 C23.25 -3.73, 23.69 -3.87, 24.09 -4.08 M24.09 -4.08 C24.37 -4.24, 24.88 -4.47, 25.32 -4.72 M24.09 -4.08 C24.42 -4.23, 24.73 -4.46, 25.32 -4.72 M25.32 -4.72 C25.6 -4.82, 25.7 -4.96, 26.42 -5.38 M25.32 -4.72 C25.67 -4.91, 25.95 -5.16, 26.42 -5.38 M26.42 -5.38 C26.77 -5.6, 27 -5.82, 27.4 -6.07 M26.42 -5.38 C26.82 -5.71, 27.24 -5.91, 27.4 -6.07 M27.4 -6.07 C27.72 -6.32, 27.94 -6.45, 28.26 -6.76 M27.4 -6.07 C27.71 -6.25, 28.01 -6.54, 28.26 -6.76 M28.26 -6.76 C28.55 -6.96, 28.64 -7.15, 29.02 -7.46 M28.26 -6.76 C28.47 -6.98, 28.74 -7.14, 29.02 -7.46 M29.02 -7.46 C29.55 -7.81, 29.75 -8.37, 30.24 -8.85 M29.02 -7.46 C29.35 -7.93, 29.79 -8.21, 30.24 -8.85 M30.24 -8.85 C30.32 -9.17, 30.78 -9.6, 31.11 -10.2 M30.24 -8.85 C30.49 -9.38, 30.94 -9.85, 31.11 -10.2 M31.11 -10.2 C31.23 -10.64, 31.53 -11.33, 31.7 -11.46 M31.11 -10.2 C31.33 -10.6, 31.47 -10.94, 31.7 -11.46 M31.7 -11.46 C31.75 -11.93, 31.86 -12.08, 32.05 -12.58 M31.7 -11.46 C31.74 -11.72, 31.83 -11.91, 32.05 -12.58 M32.05 -12.58 C32.07 -12.92, 32.2 -12.97, 32.22 -13.54 M32.05 -12.58 C32.07 -12.73, 32.11 -12.94, 32.22 -13.54 M32.22 -13.54 C32.21 -13.81, 32.33 -14.04, 32.27 -14.27 M32.22 -13.54 C32.24 -13.7, 32.25 -13.87, 32.27 -14.27 M32.27 -14.27 C32.23 -14.48, 32.23 -14.59, 32.26 -14.75 M32.27 -14.27 C32.26 -14.37, 32.28 -14.5, 32.26 -14.75 M32.26 -14.75 C32.25 -14.78, 32.27 -14.83, 32.25 -14.92 M32.26 -14.75 C32.25 -14.8, 32.26 -14.85, 32.25 -14.92 M32.25 -14.92 C32.61 -17.26, 33.54 -22.93, 32.21 -30.37 M32.25 -14.92 C32.12 -19.16, 32.94 -24.01, 32.21 -30.37 M32.21 -30.37 C25.54 -29.6, 16.31 -30.64, -0.61 -30.37 M32.21 -30.37 C24.84 -30.39, 16.29 -31.06, -0.61 -30.37 M-0.61 -30.37 C-0.71 -31.76, -0.2 -33.54, -0.61 -35.01 M-0.61 -30.37 C-0.65 -31.93, -0.57 -34.11, -0.61 -35.01 M-0.61 -35.01 C15.73 -33.43, 33.74 -36.37, 45.24 -35.01 M-0.61 -35.01 C10.5 -34.32, 19.51 -35.09, 45.24 -35.01 M45.24 -35.01 C45.24 -35.01, 45.24 -35.01, 45.24 -35.01 M45.24 -35.01 C45.24 -35.01, 45.24 -35.01, 45.24 -35.01 M45.24 -35.01 C45.26 -35.01, 45.27 -35, 45.31 -35 M45.24 -35.01 C45.27 -35.01, 45.29 -35, 45.31 -35 M45.31 -35 C45.35 -35, 45.39 -34.98, 45.49 -34.99 M45.31 -35 C45.37 -34.99, 45.44 -34.99, 45.49 -34.99 M45.49 -34.99 C45.6 -34.96, 45.7 -35, 45.79 -34.97 M45.49 -34.99 C45.58 -34.98, 45.66 -34.97, 45.79 -34.97 M45.79 -34.97 C45.9 -34.99, 46.06 -34.99, 46.19 -34.97 M45.79 -34.97 C45.9 -34.98, 46.03 -34.95, 46.19 -34.97 M46.19 -34.97 C46.46 -34.87, 46.93 -34.99, 47.28 -35.01 M46.19 -34.97 C46.42 -35.01, 46.67 -35, 47.28 -35.01 M47.28 -35.01 C47.74 -35.15, 48.4 -35.1, 48.68 -35.16 M47.28 -35.01 C47.72 -35.08, 48.1 -35.03, 48.68 -35.16 M48.68 -35.16 C49.05 -35.24, 49.68 -35.43, 50.35 -35.49 M48.68 -35.16 C49.14 -35.22, 49.69 -35.29, 50.35 -35.49 M50.35 -35.49 C50.73 -35.55, 51.55 -35.79, 52.21 -36.05 M50.35 -35.49 C50.86 -35.61, 51.24 -35.65, 52.21 -36.05 M52.21 -36.05 C52.76 -36.15, 53.32 -36.31, 54.2 -36.9 M52.21 -36.05 C52.92 -36.29, 53.54 -36.66, 54.2 -36.9 M54.2 -36.9 C54.77 -37.24, 55.16 -37.3, 56.25 -38.1 M54.2 -36.9 C54.69 -37.06, 55.03 -37.48, 56.25 -38.1 M56.25 -38.1 C56.56 -38.17, 56.61 -38.35, 57.28 -38.85 M56.25 -38.1 C56.63 -38.44, 57.03 -38.63, 57.28 -38.85 M57.28 -38.85 C57.41 -39.09, 57.77 -39.16, 58.3 -39.7 M57.28 -38.85 C57.63 -39.25, 58.05 -39.6, 58.3 -39.7 M58.3 -39.7 C58.5 -39.85, 58.68 -40.19, 59.31 -40.68 M58.3 -39.7 C58.46 -39.93, 58.7 -40.18, 59.31 -40.68 M59.31 -40.68 C59.39 -40.87, 59.77 -41.03, 60.29 -41.77 M59.31 -40.68 C59.67 -41.17, 60.12 -41.56, 60.29 -41.77 M60.29 -41.77 C60.57 -42.31, 60.79 -42.7, 61.24 -43 M60.29 -41.77 C60.6 -42.12, 60.81 -42.42, 61.24 -43 M61.24 -43 C61.33 -43.2, 61.78 -43.79, 62.15 -44.37 M61.24 -43 C61.61 -43.48, 61.83 -43.89, 62.15 -44.37 M62.15 -44.37 C62.39 -44.66, 62.58 -44.9, 63.01 -45.88 M62.15 -44.37 C62.31 -44.68, 62.5 -45.02, 63.01 -45.88 M63.01 -45.88 C63.33 -46.23, 63.41 -46.83, 63.81 -47.54 M63.01 -45.88 C63.15 -46.37, 63.51 -46.95, 63.81 -47.54 M63.81 -47.54 C64 -47.91, 64.09 -48.18, 64.55 -49.37 M63.81 -47.54 C64 -48.09, 64.14 -48.55, 64.55 -49.37 M64.55 -49.37 C64.88 -49.89, 64.85 -50.24, 65.22 -51.36 M64.55 -49.37 C64.65 -50.03, 64.88 -50.48, 65.22 -51.36 M65.22 -51.36 C65.37 -52.21, 65.69 -52.89, 65.81 -53.52 M65.22 -51.36 C65.38 -52.3, 65.57 -53.03, 65.81 -53.52 M65.81 -53.52 C65.93 -54.24, 66.08 -55.13, 66.31 -55.87 M65.81 -53.52 C65.87 -54.17, 66.01 -54.58, 66.31 -55.87 M66.31 -55.87 C66.3 -56.45, 66.41 -57.15, 66.71 -58.4 M66.31 -55.87 C66.47 -56.3, 66.62 -56.98, 66.71 -58.4 M66.71 -58.4 C66.72 -59.15, 67.02 -60.02, 67.01 -61.14 M66.71 -58.4 C66.72 -59.47, 66.89 -60.63, 67.01 -61.14 M67.01 -61.14 C66.86 -61.94, 67.32 -62.41, 67.19 -64.07 M67.01 -61.14 C66.99 -61.63, 67.24 -62.29, 67.19 -64.07 M67.19 -64.07 C67.35 -65.23, 67.29 -66.83, 67.25 -67.22 M67.19 -64.07 C67.26 -65.1, 67.29 -65.97, 67.25 -67.22 M67.25 -67.22 C66.93 -68.46, 67.22 -69.37, 67.2 -70.37 M67.25 -67.22 C67.27 -68.34, 67.11 -69.29, 67.2 -70.37 M67.2 -70.37 C67.4 -71.27, 67.04 -72.79, 67.04 -73.31 M67.2 -70.37 C67.21 -71.17, 67.15 -71.72, 67.04 -73.31 M67.04 -73.31 C67.02 -74.29, 66.71 -75.09, 66.78 -76.06 M67.04 -73.31 C67.03 -74.05, 66.93 -74.84, 66.78 -76.06 M66.78 -76.06 C66.52 -76.84, 66.78 -77.5, 66.43 -78.62 M66.78 -76.06 C66.65 -76.57, 66.53 -77.21, 66.43 -78.62 M66.43 -78.62 C66.33 -79.14, 66.02 -79.6, 65.99 -80.99 M66.43 -78.62 C66.33 -79.35, 66.14 -80.19, 65.99 -80.99 M65.99 -80.99 C65.75 -81.6, 65.7 -82.25, 65.48 -83.19 M65.99 -80.99 C65.98 -81.49, 65.76 -81.95, 65.48 -83.19 M65.48 -83.19 C65.14 -83.91, 65.02 -84.57, 64.9 -85.22 M65.48 -83.19 C65.44 -83.78, 65.25 -84.16, 64.9 -85.22 M64.9 -85.22 C64.65 -85.65, 64.36 -86.3, 64.25 -87.09 M64.9 -85.22 C64.8 -85.66, 64.54 -86.14, 64.25 -87.09 M64.25 -87.09 C64.24 -87.44, 63.88 -88.2, 63.55 -88.8 M64.25 -87.09 C63.99 -87.55, 63.82 -88.02, 63.55 -88.8 M63.55 -88.8 C63.39 -89.25, 63.07 -89.54, 62.8 -90.36 M63.55 -88.8 C63.31 -89.4, 63.08 -89.93, 62.8 -90.36 M62.8 -90.36 C62.41 -90.88, 62.07 -91.34, 62 -91.78 M62.8 -90.36 C62.62 -90.71, 62.49 -90.97, 62 -91.78 M62 -91.78 C61.71 -92.09, 61.49 -92.83, 61.18 -93.06 M62 -91.78 C61.73 -92.25, 61.34 -92.69, 61.18 -93.06 M61.18 -93.06 C60.95 -93.36, 60.53 -93.92, 60.32 -94.21 M61.18 -93.06 C60.9 -93.38, 60.7 -93.61, 60.32 -94.21 M60.32 -94.21 C60.01 -94.49, 59.86 -94.64, 59.44 -95.24 M60.32 -94.21 C59.93 -94.6, 59.62 -95.04, 59.44 -95.24 M59.44 -95.24 C59.27 -95.55, 58.96 -95.65, 58.55 -96.16 M59.44 -95.24 C59.19 -95.39, 58.98 -95.71, 58.55 -96.16 M58.55 -96.16 C58.34 -96.42, 57.95 -96.56, 57.65 -96.97 M58.55 -96.16 C58.3 -96.42, 58.01 -96.71, 57.65 -96.97 M57.65 -96.97 C57.01 -97.08, 56.69 -97.68, 55.86 -98.28 M57.65 -96.97 C57.11 -97.38, 56.43 -97.72, 55.86 -98.28 M55.86 -98.28 C55.34 -98.65, 55 -98.86, 54.12 -99.25 M55.86 -98.28 C55.43 -98.64, 54.93 -98.86, 54.12 -99.25 M54.12 -99.25 C53.63 -99.56, 53.35 -99.51, 52.5 -99.92 M54.12 -99.25 C53.56 -99.55, 52.94 -99.81, 52.5 -99.92 M52.5 -99.92 C51.85 -99.95, 51.56 -100.11, 51.05 -100.34 M52.5 -99.92 C52.21 -99.99, 51.91 -100.1, 51.05 -100.34 M51.05 -100.34 C50.84 -100.52, 50.44 -100.36, 49.82 -100.57 M51.05 -100.34 C50.73 -100.36, 50.54 -100.46, 49.82 -100.57 M49.82 -100.57 C49.57 -100.62, 49.25 -100.73, 48.87 -100.67 M49.82 -100.57 C49.56 -100.61, 49.3 -100.66, 48.87 -100.67 M48.87 -100.67 C48.72 -100.73, 48.56 -100.69, 48.26 -100.69 M48.87 -100.67 C48.69 -100.66, 48.5 -100.67, 48.26 -100.69 M48.26 -100.69 C48.22 -100.7, 48.16 -100.7, 48.1 -100.69 M48.26 -100.69 C48.21 -100.7, 48.15 -100.69, 48.1 -100.69 M48.1 -100.69 C48.09 -100.69, 48.07 -100.69, 48.04 -100.69 M48.1 -100.69 C48.08 -100.69, 48.07 -100.69, 48.04 -100.69 M48.04 -100.69 C44.27 -99.83, 39.23 -101.55, 36.58 -100.69 M48.04 -100.69 C44.07 -100.2, 39.46 -100.37, 36.58 -100.69 M36.58 -100.69 C35.07 -93.6, 36.06 -86.78, 36.58 -84.59 M36.58 -100.69 C37.47 -97.7, 37.39 -93.45, 36.58 -84.59 M36.58 -84.59 C36.58 -84.59, 36.58 -84.59, 36.58 -84.59 M36.58 -84.59 C36.58 -84.59, 36.58 -84.59, 36.58 -84.59 M36.58 -84.59 C36.58 -84.56, 36.58 -84.55, 36.58 -84.53 M36.58 -84.59 C36.58 -84.57, 36.58 -84.55, 36.58 -84.53 M36.58 -84.53 C36.58 -84.49, 36.59 -84.45, 36.58 -84.37 M36.58 -84.53 C36.58 -84.48, 36.58 -84.42, 36.58 -84.37 M36.58 -84.37 C36.62 -84.12, 36.53 -83.86, 36.57 -83.76 M36.58 -84.37 C36.55 -84.24, 36.59 -84.07, 36.57 -83.76 M36.57 -83.76 C36.48 -83.54, 36.59 -83.2, 36.51 -82.81 M36.57 -83.76 C36.56 -83.56, 36.58 -83.38, 36.51 -82.81 M36.51 -82.81 C36.44 -82.35, 36.33 -82.1, 36.37 -81.58 M36.51 -82.81 C36.39 -82.34, 36.42 -81.96, 36.37 -81.58 M36.37 -81.58 C36.36 -81.03, 36.2 -80.67, 36.13 -80.13 M36.37 -81.58 C36.39 -81.31, 36.19 -80.97, 36.13 -80.13 M36.13 -80.13 C36.07 -79.8, 35.97 -79.18, 35.75 -78.51 M36.13 -80.13 C36 -79.72, 35.83 -79.23, 35.75 -78.51 M35.75 -78.51 C35.54 -78.13, 35.36 -77.56, 35.2 -76.77 M35.75 -78.51 C35.54 -78.03, 35.46 -77.73, 35.2 -76.77 M35.2 -76.77 C35.13 -76.52, 34.84 -75.73, 34.45 -74.98 M35.2 -76.77 C35.05 -76.31, 34.72 -75.74, 34.45 -74.98 M34.45 -74.98 C34.01 -74.26, 33.6 -73.66, 33.47 -73.19 M34.45 -74.98 C34.14 -74.53, 34.04 -74.05, 33.47 -73.19 M33.47 -73.19 C33.21 -72.74, 32.75 -72.41, 32.24 -71.45 M33.47 -73.19 C33.09 -72.52, 32.62 -71.86, 32.24 -71.45 M32.24 -71.45 C31.71 -71.07, 31.62 -70.53, 30.71 -69.83 M32.24 -71.45 C31.94 -71.05, 31.55 -70.64, 30.71 -69.83 M30.71 -69.83 C29.98 -69.62, 29.9 -69.21, 28.87 -68.38 M30.71 -69.83 C30.29 -69.49, 29.84 -68.95, 28.87 -68.38 M28.87 -68.38 C28.43 -68.16, 28.05 -67.93, 27.81 -67.73 M28.87 -68.38 C28.44 -68.11, 28.03 -67.88, 27.81 -67.73 M27.81 -67.73 C27.43 -67.64, 27.27 -67.29, 26.67 -67.15 M27.81 -67.73 C27.34 -67.51, 26.97 -67.26, 26.67 -67.15 M26.67 -67.15 C26.32 -66.98, 25.89 -66.78, 25.43 -66.64 M26.67 -67.15 C26.23 -67.01, 25.66 -66.8, 25.43 -66.64 M25.43 -66.64 C24.98 -66.59, 24.75 -66.41, 24.09 -66.2 M25.43 -66.64 C25.07 -66.5, 24.74 -66.39, 24.09 -66.2 M24.09 -66.2 C23.48 -66, 23.19 -65.8, 22.65 -65.85 M24.09 -66.2 C23.71 -66.07, 23.44 -65.96, 22.65 -65.85 M22.65 -65.85 C22.34 -65.78, 22 -65.77, 21.11 -65.59 M22.65 -65.85 C22.13 -65.7, 21.59 -65.73, 21.11 -65.59 M21.11 -65.59 C20.72 -65.44, 20.47 -65.55, 19.45 -65.43 M21.11 -65.59 C20.67 -65.53, 20.26 -65.42, 19.45 -65.43 M19.45 -65.43 C18.76 -65.39, 17.98 -65.51, 17.68 -65.38 M19.45 -65.43 C18.7 -65.44, 18.04 -65.33, 17.68 -65.38 M17.68 -65.38 C8.45 -66.77, -1.95 -66.91, -14.88 -65.38 M17.68 -65.38 C7.92 -65.42, -3.68 -64.27, -14.88 -65.38 M-14.88 -65.38 C-14.88 -65.38, -14.88 -65.38, -14.88 -65.38 M-14.88 -65.38 C-14.88 -65.38, -14.88 -65.38, -14.88 -65.38 M-14.88 -65.38 C-14.9 -65.38, -14.91 -65.38, -14.93 -65.38 M-14.88 -65.38 C-14.89 -65.38, -14.92 -65.38, -14.93 -65.38 M-14.93 -65.38 C-14.97 -65.39, -15.03 -65.38, -15.08 -65.37 M-14.93 -65.38 C-14.96 -65.38, -15 -65.37, -15.08 -65.37 M-15.08 -65.37 C-15.31 -65.37, -15.49 -65.33, -15.66 -65.35 M-15.08 -65.37 C-15.28 -65.38, -15.48 -65.35, -15.66 -65.35 M-15.66 -65.35 C-15.87 -65.35, -16.06 -65.29, -16.57 -65.28 M-15.66 -65.35 C-15.81 -65.32, -16.06 -65.36, -16.57 -65.28 M-16.57 -65.28 C-17.06 -65.3, -17.39 -65.07, -17.74 -65.14 M-16.57 -65.28 C-16.76 -65.32, -16.98 -65.21, -17.74 -65.14 M-17.74 -65.14 C-18.28 -65.12, -18.68 -65.07, -19.12 -64.9 M-17.74 -65.14 C-18.23 -65.08, -18.82 -64.97, -19.12 -64.9 M-19.12 -64.9 C-19.62 -64.77, -19.93 -64.83, -20.66 -64.52 M-19.12 -64.9 C-19.64 -64.69, -20.23 -64.57, -20.66 -64.52 M-20.66 -64.52 C-21.29 -64.28, -21.93 -64.1, -22.32 -63.99 M-20.66 -64.52 C-21.06 -64.4, -21.63 -64.22, -22.32 -63.99 M-22.32 -63.99 C-22.8 -63.58, -23.63 -63.37, -24.02 -63.28 M-22.32 -63.99 C-22.7 -63.87, -23.17 -63.67, -24.02 -63.28 M-24.02 -63.28 C-24.33 -63.05, -24.97 -62.74, -25.73 -62.35 M-24.02 -63.28 C-24.7 -62.91, -25.33 -62.59, -25.73 -62.35 M-25.73 -62.35 C-26.45 -62.04, -26.85 -61.81, -27.38 -61.19 M-25.73 -62.35 C-26.23 -61.99, -26.52 -61.8, -27.38 -61.19 M-27.38 -61.19 C-27.82 -60.52, -28.64 -60.13, -28.93 -59.76 M-27.38 -61.19 C-27.73 -60.82, -28.1 -60.46, -28.93 -59.76 M-28.93 -59.76 C-29.07 -59.27, -29.65 -58.93, -30.31 -58.04 M-28.93 -59.76 C-29.46 -59.26, -29.83 -58.65, -30.31 -58.04 M-30.31 -58.04 C-30.39 -57.85, -30.66 -57.5, -30.92 -57.07 M-30.31 -58.04 C-30.45 -57.72, -30.61 -57.47, -30.92 -57.07 M-30.92 -57.07 C-31.07 -56.82, -31.26 -56.43, -31.48 -56 M-30.92 -57.07 C-31.05 -56.74, -31.23 -56.41, -31.48 -56 M-31.48 -56 C-31.68 -55.69, -31.85 -55.46, -31.97 -54.86 M-31.48 -56 C-31.64 -55.65, -31.86 -55.2, -31.97 -54.86 M-31.97 -54.86 C-32.13 -54.65, -32.21 -54.22, -32.38 -53.62 M-31.97 -54.86 C-32.14 -54.43, -32.23 -54.17, -32.38 -53.62 M-32.38 -53.62 C-32.45 -53.14, -32.45 -52.91, -32.72 -52.29 M-32.38 -53.62 C-32.52 -53.32, -32.55 -52.95, -32.72 -52.29 M-32.72 -52.29 C-32.67 -51.78, -32.86 -51.32, -32.96 -50.86 M-32.72 -52.29 C-32.79 -51.96, -32.79 -51.54, -32.96 -50.86 M-32.96 -50.86 C-33.14 -50.32, -33 -49.77, -33.11 -49.33 M-32.96 -50.86 C-33.07 -50.25, -33.1 -49.74, -33.11 -49.33 M-33.11 -49.33 C-33.3 -48.73, -33.18 -48.51, -33.17 -47.7 M-33.11 -49.33 C-33.14 -48.72, -33.2 -48.29, -33.17 -47.7 M-33.17 -47.7 C-31.47 -42.04, -32.59 -33.18, -33.17 -17.98 M-33.17 -47.7 C-32.37 -37.69, -33.62 -29.04, -33.17 -17.98 M-33.17 -17.98 C-33.17 -17.98, -33.17 -17.98, -33.17 -17.98 M-33.17 -17.98 C-33.17 -17.98, -33.17 -17.98, -33.17 -17.98 M-33.17 -17.98 C-33.16 -17.91, -33.17 -17.85, -33.19 -17.78 M-33.17 -17.98 C-33.18 -17.91, -33.19 -17.83, -33.19 -17.78 M-33.19 -17.78 C-33.19 -17.59, -33.23 -17.34, -33.22 -17.21 M-33.19 -17.78 C-33.2 -17.66, -33.21 -17.54, -33.22 -17.21 M-33.22 -17.21 C-33.15 -17.08, -33.19 -16.75, -33.19 -16.32 M-33.22 -17.21 C-33.18 -17.03, -33.24 -16.82, -33.19 -16.32 M-33.19 -16.32 C-33.16 -16.11, -33.07 -15.73, -33.04 -15.17 M-33.19 -16.32 C-33.15 -16.02, -33.15 -15.65, -33.04 -15.17 M-33.04 -15.17 C-32.95 -14.7, -32.87 -14.42, -32.71 -13.81 M-33.04 -15.17 C-32.96 -14.6, -32.76 -14.1, -32.71 -13.81 M-32.71 -13.81 C-32.63 -13.48, -32.4 -13.02, -32.15 -12.29 M-32.71 -13.81 C-32.59 -13.27, -32.4 -12.79, -32.15 -12.29 M-32.15 -12.29 C-31.83 -11.93, -31.66 -11.21, -31.29 -10.67 M-32.15 -12.29 C-31.9 -11.72, -31.58 -11.18, -31.29 -10.67 M-31.29 -10.67 C-31.12 -10.02, -30.44 -9.47, -30.06 -8.99 M-31.29 -10.67 C-30.98 -10.27, -30.77 -9.9, -30.06 -8.99 M-30.06 -8.99 C-29.86 -8.68, -29.59 -8.5, -29.3 -8.15 M-30.06 -8.99 C-29.85 -8.84, -29.72 -8.56, -29.3 -8.15 M-29.3 -8.15 C-28.89 -7.8, -28.76 -7.64, -28.42 -7.31 M-29.3 -8.15 C-28.96 -7.89, -28.76 -7.59, -28.42 -7.31 M-28.42 -7.31 C-28.3 -7.12, -28.12 -7.03, -27.42 -6.49 M-28.42 -7.31 C-28.05 -7.04, -27.78 -6.8, -27.42 -6.49 M-27.42 -6.49 C-26.86 -6.07, -26.58 -5.98, -26.29 -5.69 M-27.42 -6.49 C-27.06 -6.23, -26.73 -5.98, -26.29 -5.69 M-26.29 -5.69 C-26.04 -5.61, -25.51 -5.15, -25.03 -4.91 M-26.29 -5.69 C-25.88 -5.38, -25.31 -5.17, -25.03 -4.91 M-25.03 -4.91 C-24.75 -4.89, -24.43 -4.51, -23.62 -4.17 M-25.03 -4.91 C-24.58 -4.71, -24.09 -4.33, -23.62 -4.17 M-23.62 -4.17 C-23.19 -3.84, -22.91 -3.91, -22.06 -3.47 M-23.62 -4.17 C-23.04 -3.93, -22.62 -3.64, -22.06 -3.47 M-22.06 -3.47 C-21.54 -3.5, -21.34 -3.04, -20.35 -2.81 M-22.06 -3.47 C-21.35 -3.18, -20.73 -2.91, -20.35 -2.81 M-20.35 -2.81 C-19.97 -2.61, -19.08 -2.61, -18.46 -2.21 M-20.35 -2.81 C-19.83 -2.56, -19.27 -2.52, -18.46 -2.21 M-18.46 -2.21 C-17.65 -2.19, -16.94 -1.88, -16.41 -1.66 M-18.46 -2.21 C-17.87 -2.17, -17.3 -1.85, -16.41 -1.66 M-16.41 -1.66 C-15.71 -1.48, -14.95 -1.14, -14.17 -1.18 M-16.41 -1.66 C-15.89 -1.53, -15.41 -1.38, -14.17 -1.18 M-14.17 -1.18 C-13.32 -1.12, -12.95 -0.83, -11.75 -0.77 M-14.17 -1.18 C-13.23 -1.07, -12.35 -0.86, -11.75 -0.77 M-11.75 -0.77 C-11.18 -0.67, -10.6 -0.6, -9.12 -0.44 M-11.75 -0.77 C-11.11 -0.55, -10.23 -0.59, -9.12 -0.44 M-9.12 -0.44 C-8.28 -0.17, -7.29 -0.53, -6.3 -0.2 M-9.12 -0.44 C-8.36 -0.25, -7.42 -0.24, -6.3 -0.2 M-6.3 -0.2 C-5.09 -0.4, -4.1 -0.09, -3.26 -0.05 M-6.3 -0.2 C-5.08 -0.12, -3.98 -0.17, -3.26 -0.05 M-3.26 -0.05 C-2.37 -0.29, -1.14 0.28, 0 0 M-3.26 -0.05 C-2.49 -0.05, -1.97 -0.04, 0 0 M0 0 C0 0, 0 0, 0 0 M0 0 C0 0, 0 0, 0 0 M0 0 C0 0, 0 0, 0 0 M0 0 C0 0, 0 0, 0 0" stroke="#ffd040" stroke-width="1" fill="none"></path></g></g><mask></mask><g stroke-linecap="round"><g transform="translate(96.38802139282029 134.39246622232577) rotate(0 0.0007598669897106447 -5.905212839369213)" fill-rule="evenodd"><path d="M-4.09 -10.18 C-4.09 -10.18, -4.09 -10.18, -4.09 -10.18 M-4.09 -10.18 C-4.09 -10.18, -4.09 -10.18, -4.09 -10.18 M-5.01 -3.03 C-2.05 -6.46, 0.54 -9.59, 2.21 -11.33 M-5.01 -3.03 C-2.5 -5.65, -0.16 -8.5, 2.21 -11.33 M-1.99 -0.4 C0.24 -2.36, 1 -4, 5.23 -8.71 M-1.99 -0.4 C-0.19 -2.15, 1.36 -4.4, 5.23 -8.71 M-3.96 -1.54 C-3.96 -1.54, -3.96 -1.54, -3.96 -1.54 M-3.96 -1.54 C-3.96 -1.54, -3.96 -1.54, -3.96 -1.54 M2.44 -1.28 C0.58 -2.37, -1.38 -4.19, -5.11 -7.84 M2.44 -1.28 C-0.55 -3.84, -3.52 -6, -5.11 -7.84 M5.82 -3.64 C2.11 -6.19, -0.38 -9.89, -3.24 -11.51 M5.82 -3.64 C3.54 -5.37, 1.28 -7.31, -3.24 -11.51" stroke="#ffd040" stroke-width="0.5" fill="none"></path><path d="M0 0 C0 0, 0 0, 0 0 M0 0 C0 0, 0 0, 0 0 M0 0 C-0.43 -0.02, -0.83 -0.09, -1.19 -0.12 M0 0 C-0.33 -0.03, -0.59 -0.05, -1.19 -0.12 M-1.19 -0.12 C-1.4 -0.19, -1.59 -0.25, -2.3 -0.46 M-1.19 -0.12 C-1.44 -0.22, -1.68 -0.28, -2.3 -0.46 M-2.3 -0.46 C-2.54 -0.61, -2.89 -0.77, -3.3 -1.01 M-2.3 -0.46 C-2.59 -0.62, -2.95 -0.83, -3.3 -1.01 M-3.3 -1.01 C-3.53 -1.24, -3.77 -1.34, -4.18 -1.73 M-3.3 -1.01 C-3.54 -1.23, -3.77 -1.39, -4.18 -1.73 M-4.18 -1.73 C-4.29 -1.93, -4.53 -2.1, -4.9 -2.6 M-4.18 -1.73 C-4.33 -1.91, -4.52 -2.16, -4.9 -2.6 M-4.9 -2.6 C-4.98 -2.79, -5.15 -3.11, -5.44 -3.61 M-4.9 -2.6 C-5.11 -2.92, -5.24 -3.27, -5.44 -3.61 M-5.44 -3.61 C-5.53 -3.84, -5.66 -4.14, -5.79 -4.71 M-5.44 -3.61 C-5.55 -3.96, -5.64 -4.3, -5.79 -4.71 M-5.79 -4.71 C-5.85 -5.06, -5.86 -5.53, -5.9 -5.9 M-5.79 -4.71 C-5.84 -5.11, -5.87 -5.59, -5.9 -5.9 M-5.9 -5.9 C-5.86 -6.23, -5.8 -6.42, -5.79 -7.1 M-5.9 -5.9 C-5.88 -6.26, -5.85 -6.64, -5.79 -7.1 M-5.79 -7.1 C-5.71 -7.31, -5.65 -7.63, -5.44 -8.2 M-5.79 -7.1 C-5.72 -7.4, -5.6 -7.66, -5.44 -8.2 M-5.44 -8.2 C-5.37 -8.46, -5.16 -8.72, -4.9 -9.21 M-5.44 -8.2 C-5.31 -8.44, -5.17 -8.72, -4.9 -9.21 M-4.9 -9.21 C-4.7 -9.45, -4.5 -9.71, -4.18 -10.08 M-4.9 -9.21 C-4.76 -9.41, -4.63 -9.56, -4.18 -10.08 M-4.18 -10.08 C-3.95 -10.29, -3.64 -10.57, -3.3 -10.8 M-4.18 -10.08 C-4 -10.26, -3.78 -10.44, -3.3 -10.8 M-3.3 -10.8 C-3.04 -10.97, -2.78 -11.08, -2.3 -11.35 M-3.3 -10.8 C-2.91 -11, -2.57 -11.21, -2.3 -11.35 M-2.3 -11.35 C-1.92 -11.44, -1.53 -11.55, -1.19 -11.69 M-2.3 -11.35 C-2 -11.44, -1.72 -11.55, -1.19 -11.69 M-1.19 -11.69 C-0.84 -11.71, -0.38 -11.82, 0 -11.81 M-1.19 -11.69 C-0.74 -11.72, -0.34 -11.8, 0 -11.81 M0 -11.81 C0.45 -11.8, 0.87 -11.68, 1.19 -11.69 M0 -11.81 C0.45 -11.74, 0.84 -11.7, 1.19 -11.69 M1.19 -11.69 C1.53 -11.65, 1.8 -11.5, 2.3 -11.35 M1.19 -11.69 C1.65 -11.56, 2.09 -11.43, 2.3 -11.35 M2.3 -11.35 C2.58 -11.24, 2.89 -10.97, 3.3 -10.8 M2.3 -11.35 C2.6 -11.2, 2.88 -11.05, 3.3 -10.8 M3.3 -10.8 C3.58 -10.49, 3.88 -10.33, 4.18 -10.08 M3.3 -10.8 C3.58 -10.53, 3.88 -10.31, 4.18 -10.08 M4.18 -10.08 C4.49 -9.7, 4.67 -9.42, 4.9 -9.21 M4.18 -10.08 C4.32 -9.88, 4.49 -9.75, 4.9 -9.21 M4.9 -9.21 C5.15 -8.82, 5.26 -8.48, 5.44 -8.2 M4.9 -9.21 C5.04 -8.95, 5.19 -8.69, 5.44 -8.2 M5.44 -8.2 C5.5 -7.85, 5.6 -7.56, 5.79 -7.1 M5.44 -8.2 C5.53 -7.97, 5.57 -7.69, 5.79 -7.1 M5.79 -7.1 C5.88 -6.67, 5.9 -6.16, 5.9 -5.91 M5.79 -7.1 C5.83 -6.77, 5.82 -6.51, 5.9 -5.91 M5.9 -5.91 C5.92 -5.57, 5.82 -5.17, 5.79 -4.71 M5.9 -5.91 C5.9 -5.61, 5.83 -5.25, 5.79 -4.71 M5.79 -4.71 C5.71 -4.43, 5.57 -4.14, 5.44 -3.61 M5.79 -4.71 C5.68 -4.48, 5.63 -4.23, 5.44 -3.61 M5.44 -3.61 C5.32 -3.33, 5.14 -2.97, 4.9 -2.6 M5.44 -3.61 C5.25 -3.26, 5.07 -2.86, 4.9 -2.6 M4.9 -2.6 C4.58 -2.32, 4.34 -1.98, 4.18 -1.73 M4.9 -2.6 C4.63 -2.28, 4.36 -2, 4.18 -1.73 M4.18 -1.73 C3.86 -1.46, 3.54 -1.17, 3.3 -1.01 M4.18 -1.73 C3.83 -1.44, 3.45 -1.14, 3.3 -1.01 M3.3 -1.01 C3.09 -0.86, 2.86 -0.78, 2.3 -0.46 M3.3 -1.01 C2.91 -0.82, 2.52 -0.59, 2.3 -0.46 M2.3 -0.46 C1.86 -0.29, 1.49 -0.24, 1.19 -0.12 M2.3 -0.46 C1.91 -0.33, 1.54 -0.22, 1.19 -0.12 M1.19 -0.12 C0.7 -0.11, 0.3 -0.05, 0 0 M1.19 -0.12 C0.8 -0.07, 0.46 -0.04, 0 0 M0 0 C0 0, 0 0, 0 0 M0 0 C0 0, 0 0, 0 0 M0 0 C0 0, 0 0, 0 0 M0 0 C0 0, 0 0, 0 0" stroke="#ffd040" stroke-width="1" fill="none"></path></g></g><mask></mask></svg>