<?xml version="1.0" standalone="no"?>
<!DOCTYPE svg PUBLIC "-//W3C//DTD SVG 1.1//EN" "http://www.w3.org/Graphics/SVG/1.1/DTD/svg11.dtd">
<svg version="1.1" xmlns="http://www.w3.org/2000/svg" viewBox="0 0 189.30372965729612 141.2728183995032" width="189.30372965729612" height="141.2728183995032"><!-- svg-source:excalidraw --><metadata></metadata><defs><style class="style-fonts">
      </style></defs><g stroke-linecap="round" transform="translate(11.485701557787706 29.89237485643332) rotate(0 83.83848135482981 50.69022177153493)"><path d="M0 0 C0 0, 0 0, 0 0 M0 0 C0 0, 0 0, 0 0 M0.11 9.51 C1.14 8.86, 7.04 9.32, 7.95 2.61 M-0.77 11.34 C4.85 6.04, 8.24 2.69, 11.27 -1.21 M-3.17 24.65 C5.3 12.74, 18.42 2.79, 20.41 -2.29 M-1.59 25.03 C8.44 16.44, 15.25 7.9, 22.38 1.6 M-2.57 36.55 C11.34 19.8, 19.93 7.94, 34.65 3.63 M-0.61 35.57 C5 29.94, 14.56 19.96, 33.72 -1.7 M-2.41 48.39 C14.34 38.9, 25.07 21.67, 46.2 -2.57 M-0.79 50.01 C8.41 36.97, 20.89 25.2, 43.13 -0.42 M-1.72 58.42 C14.7 43.6, 38 18.4, 54.91 -2.67 M1.96 59.8 C17.88 38.86, 34.89 19.8, 51.9 0.66 M-2.26 72.93 C14.33 59.49, 30.81 40.09, 65.59 -4.03 M-0.53 72.34 C18.94 49.73, 42.8 25.54, 65.25 1.59 M0.2 87.69 C21.59 61.88, 37.28 45.09, 77.47 1.1 M-0.99 84.4 C16.58 61.57, 37.53 36.95, 74.59 -1.99 M-3.37 97.27 C26.45 70.78, 54.31 34.48, 85.48 0.12 M0.88 97.58 C21.23 69.21, 45.7 44.76, 85.88 -2.21 M7.9 104.37 C36.97 68.81, 61.62 35.6, 93.7 0.77 M8.62 99.64 C40.7 61.78, 75.48 21.49, 93.92 -0.26 M19.91 98.09 C35.19 79.28, 54.74 59.14, 108.69 -4.29 M16.97 100.88 C48.98 69.01, 80.5 32.19, 106.67 -1.69 M31.33 97.97 C52.59 66.28, 86.99 36.81, 120.24 3.95 M26.67 102.21 C57.07 67.59, 88.12 32.54, 114.91 -1.02 M37.03 104.35 C63.36 73.42, 85.15 45.53, 129.34 0.41 M40.7 99.58 C58.73 76.52, 78.82 54.05, 127.16 0.01 M50.08 98.76 C81.15 69.65, 115.94 35.36, 133.65 1.08 M49.31 100.44 C80.14 67.33, 111.04 32.17, 136.06 -0.44 M59.2 100.53 C82.84 75.26, 96.59 59, 147.45 0.66 M60.36 102.43 C77.47 78.32, 94.29 57.48, 149.36 1.45 M70.1 99.45 C90.69 79.93, 108.47 60.95, 158.43 -2.1 M71.61 102.04 C106.03 63.62, 137.36 29.6, 159.47 -1.46 M78.86 104.37 C105.98 68.26, 135.82 39.03, 167.69 1.76 M81.06 101.34 C110 66.16, 141.98 29.48, 166.56 2.95 M88.63 100.58 C107.46 86.31, 124.46 59.84, 165.89 14.06 M90.56 101.41 C116.63 74, 141.47 45.96, 167.57 14.78 M101.69 103.43 C123.16 85.34, 142.06 61.7, 165.61 23.69 M102.78 101.98 C125.17 77.68, 146.91 51.8, 167.51 28.39 M108.82 103.48 C131.4 84.43, 146.8 64.95, 167.06 42.41 M113.6 102.69 C124.52 85.64, 142.1 68.22, 166.14 38.25 M121.32 104.08 C136.68 83.04, 156.23 67.34, 164.74 47.45 M125.01 102.71 C132.61 90.69, 145.97 78.85, 167.52 49.6 M131.77 102.8 C143.56 90.47, 159.18 76.59, 171.41 59.07 M132.79 102.23 C142.69 94.57, 146.33 84.04, 168.99 62.1 M143.33 100.01 C149.57 93.5, 160.19 89.35, 170.86 74.01 M144.8 101.12 C151.12 94.18, 159.49 83.3, 168.78 75.29 M155.19 103.43 C162.84 98.81, 168.73 87.93, 170.42 90.63 M153.42 103.52 C160.47 99.28, 162.67 91.68, 167.69 87.99 M166.2 102.32 C166.49 101.24, 166.81 100.31, 167.54 100.13 M165.82 101.69 C166.33 101.4, 166.91 100.79, 167.89 99.63" stroke="#33383d" stroke-width="1" fill="none"></path><path d="M3.31 -0.2 C39.41 2.98, 71.67 3.44, 171.22 -2.71 M0.12 0.61 C40.99 -2.63, 79.67 -2.36, 167.02 1.7 M163.78 -3.99 C167.4 25.8, 169.4 59.72, 163.85 104.42 M168.22 -1.34 C166.56 31.46, 168.12 64.98, 166.88 103.02 M169.39 102.82 C103.01 101.96, 43.45 98.4, 2.81 104.39 M165.95 103.32 C121.68 100.75, 77.33 100.54, -0.26 101.84 M-1.2 104.24 C3.1 64.9, 0.23 30.64, -3.8 -0.08 M-0.39 100.55 C1.95 70.36, 2.73 36.02, -1.97 0.58" stroke="#d3d3d3" stroke-width="2" fill="none"></path></g><g stroke-linecap="round" transform="translate(14.81693248093461 13.506481485399632) rotate(0 37.44738226270488 34.800044185178976)"><path d="M44.42 1.43 C51.23 2.31, 59.18 6.02, 64.05 10.9 C68.91 15.78, 72.69 23.94, 73.6 30.73 C74.52 37.51, 72.87 45.75, 69.52 51.62 C66.16 57.5, 59.84 62.93, 53.46 65.97 C47.08 69, 38.34 70.97, 31.25 69.82 C24.16 68.68, 15.98 64.25, 10.92 59.09 C5.86 53.92, 1.79 45.72, 0.9 38.82 C0 31.93, 2.15 23.48, 5.56 17.72 C8.97 11.95, 14.16 6.75, 21.35 4.23 C28.55 1.71, 43.45 2.47, 48.73 2.61 C54.01 2.74, 53.17 4.51, 53.02 5.06 M27.11 -0.03 C34.17 -2.19, 45.73 -0.24, 52.5 2.25 C59.27 4.73, 63.91 8.98, 67.73 14.88 C71.54 20.79, 75.68 30.42, 75.4 37.67 C75.11 44.92, 70.71 53.23, 66.02 58.39 C61.33 63.56, 54.15 67.38, 47.25 68.67 C40.36 69.97, 31.49 68.6, 24.65 66.16 C17.82 63.72, 10.5 59.89, 6.22 54.03 C1.95 48.18, -1.28 38.15, -0.99 31.03 C-0.7 23.91, 2.95 16.54, 7.97 11.31 C12.98 6.08, 25.55 1.43, 29.1 -0.36 C32.64 -2.16, 29.17 -0.34, 29.22 0.54" stroke="none" stroke-width="0" fill="#121212"></path><path d="M48.32 1.75 C55.26 3.41, 64.26 8.58, 68.71 14.13 C73.16 19.68, 75.14 28.28, 75.01 35.08 C74.87 41.88, 72.33 49.4, 67.89 54.94 C63.46 60.47, 55.32 66.12, 48.41 68.27 C41.5 70.43, 33.42 70.16, 26.43 67.85 C19.44 65.54, 10.91 59.78, 6.47 54.41 C2.03 49.04, -0.18 42.32, -0.21 35.64 C-0.24 28.96, 1.77 19.88, 6.29 14.31 C10.81 8.75, 18.04 3.61, 26.9 2.24 C35.76 0.87, 52.78 4.06, 59.46 6.1 C66.14 8.13, 67.47 14.07, 66.97 14.45 M19.4 4.2 C25.29 0.76, 36.2 -1.58, 43.52 -0.58 C50.84 0.42, 58.41 5.01, 63.33 10.21 C68.25 15.41, 71.62 24.08, 73.05 30.61 C74.49 37.14, 74.91 43.56, 71.95 49.39 C68.98 55.22, 61.97 62.16, 55.28 65.58 C48.58 69.01, 39.21 70.89, 31.77 69.94 C24.34 68.99, 15.74 64.98, 10.67 59.89 C5.59 54.8, 2.65 46.32, 1.31 39.37 C-0.02 32.42, -0.4 24.33, 2.65 18.17 C5.69 12.02, 16.44 4.58, 19.59 2.44 C22.74 0.3, 21.22 4.76, 21.54 5.35" stroke="#d3d3d3" stroke-width="1" fill="none"></path></g><g stroke-linecap="round" transform="translate(52.16445657688291 47.92774594817769) rotate(0 1.5856092640171937 1.2684874112138118)"><path d="M1.18 0.12 C1.49 0, 2.19 -0.13, 2.47 0.04 C2.76 0.2, 2.77 0.77, 2.9 1.11 C3.04 1.45, 3.4 1.86, 3.26 2.07 C3.12 2.28, 2.41 2.29, 2.07 2.38 C1.73 2.46, 1.5 2.59, 1.25 2.58 C1 2.57, 0.82 2.55, 0.58 2.31 C0.34 2.06, -0.16 1.46, -0.18 1.12 C-0.2 0.79, 0.2 0.46, 0.46 0.28 C0.73 0.1, 1.18 0.11, 1.4 0.03 C1.63 -0.05, 1.83 -0.25, 1.81 -0.19 M1.59 -0.04 C1.79 -0.11, 1.97 0.03, 2.17 0.21 C2.37 0.39, 2.6 0.84, 2.76 1.04 C2.92 1.23, 3.24 1.14, 3.12 1.38 C2.99 1.62, 2.37 2.27, 1.99 2.47 C1.62 2.67, 1.2 2.64, 0.89 2.56 C0.58 2.49, 0.22 2.31, 0.14 2.02 C0.06 1.72, 0.3 1.07, 0.43 0.8 C0.56 0.52, 0.67 0.5, 0.9 0.36 C1.13 0.21, 1.64 -0.03, 1.81 -0.07 C1.99 -0.11, 2.06 0.02, 1.94 0.13" stroke="none" stroke-width="0" fill="#121212"></path><path d="M1.76 -0.24 C2.08 -0.23, 2.05 0.17, 2.23 0.36 C2.42 0.55, 2.77 0.62, 2.87 0.91 C2.97 1.2, 2.99 1.86, 2.86 2.11 C2.73 2.36, 2.32 2.36, 2.08 2.41 C1.84 2.47, 1.79 2.46, 1.43 2.43 C1.08 2.4, 0.15 2.5, -0.03 2.23 C-0.22 1.97, 0.22 1.22, 0.3 0.86 C0.38 0.5, 0.27 0.16, 0.45 0.07 C0.64 -0.02, 1.24 0.29, 1.41 0.33 C1.58 0.37, 1.42 0.4, 1.46 0.31 M2.22 0.1 C2.52 0.1, 2.28 0, 2.4 0.2 C2.52 0.41, 2.84 1.01, 2.93 1.32 C3.01 1.63, 3.06 1.8, 2.9 2.04 C2.75 2.28, 2.3 2.7, 2.01 2.76 C1.72 2.82, 1.57 2.61, 1.18 2.37 C0.8 2.13, -0.05 1.54, -0.29 1.33 C-0.53 1.12, -0.38 1.32, -0.27 1.11 C-0.17 0.9, 0.07 0.29, 0.35 0.06 C0.63 -0.17, 1.16 -0.3, 1.42 -0.27 C1.68 -0.24, 1.91 0.26, 1.92 0.25" stroke="#d3d3d3" stroke-width="1" fill="none"></path></g><g stroke-linecap="round"><g transform="translate(43.5754974502986 19.4349826139553) rotate(0 8.403729099291581 10.267489193220086)" fill-rule="evenodd"><path d="M0 0 C0 0, 0 0, 0 0 M0 0 C0 0, 0 0, 0 0 M1.05 4.89 C3.09 2.55, 5.12 0.2, 8.27 -3.41 M1.05 4.89 C3.82 1.7, 6.59 -1.48, 8.27 -3.41 M2.76 9.02 C6.05 5.24, 9.33 1.46, 12.6 -2.3 M2.76 9.02 C6.61 4.59, 10.46 0.16, 12.6 -2.3 M3.81 13.91 C7.18 10.03, 10.55 6.16, 16.27 -0.43 M3.81 13.91 C6.97 10.28, 10.12 6.64, 16.27 -0.43 M5.51 18.04 C8.98 14.06, 12.44 10.08, 15.36 6.72 M5.51 18.04 C7.93 15.27, 10.34 12.49, 15.36 6.72 M6.57 22.93 C8.36 20.87, 10.15 18.81, 13.78 14.63 M6.57 22.93 C9.14 19.98, 11.71 17.02, 13.78 14.63 M7.19 23.73 C7.19 23.73, 7.19 23.73, 7.19 23.73 M7.19 23.73 C7.19 23.73, 7.19 23.73, 7.19 23.73 M11.33 22.03 C8.71 19.75, 6.1 17.48, 4.54 16.12 M11.33 22.03 C8.65 19.69, 5.96 17.36, 4.54 16.12 M12.44 17.7 C9.35 15, 6.25 12.31, 2.63 9.17 M12.44 17.7 C9.32 14.98, 6.2 12.27, 2.63 9.17 M13.56 13.36 C9.71 10.02, 5.87 6.68, 0.73 2.21 M13.56 13.36 C8.48 8.95, 3.4 4.53, 0.73 2.21 M14.67 9.03 C10.48 5.39, 6.28 1.74, 1.84 -2.12 M14.67 9.03 C9.99 4.96, 5.3 0.88, 1.84 -2.12 M15.79 4.7 C12.48 1.83, 9.18 -1.04, 6.73 -3.17 M15.79 4.7 C13.89 3.06, 12 1.41, 6.73 -3.17 M16.9 0.37 C15.37 -0.96, 13.85 -2.29, 12.37 -3.56 M16.9 0.37 C15.42 -0.92, 13.94 -2.2, 12.37 -3.56" stroke="#6e757c" stroke-width="0.5" fill="none"></path><path d="M0 0 C1.11 -0.81, 2.21 -1.62, 3.42 -2.5 M0 0 C0.7 -0.51, 1.41 -1.03, 3.42 -2.5 M3.42 -2.5 C4.75 -2.68, 6.09 -2.86, 8.55 -3.19 M3.42 -2.5 C4.94 -2.7, 6.47 -2.91, 8.55 -3.19 M8.55 -3.19 C9.8 -3.12, 11.06 -3.04, 13.2 -2.91 M8.55 -3.19 C9.63 -3.13, 10.71 -3.06, 13.2 -2.91 M13.2 -2.91 C14.08 -2.27, 14.96 -1.63, 16.81 -0.28 M13.2 -2.91 C14.26 -2.14, 15.33 -1.36, 16.81 -0.28 M16.81 -0.28 C14.61 8.83, 12.41 17.94, 11.02 23.73 M16.81 -0.28 C15.43 5.42, 14.06 11.11, 11.02 23.73 M11.02 23.73 C9.98 23.69, 8.95 23.65, 7.03 23.59 M11.02 23.73 C9.62 23.68, 8.23 23.63, 7.03 23.59 M7.03 23.59 C5.44 18.26, 3.85 12.93, 0 0 M7.03 23.59 C5.4 18.14, 3.78 12.69, 0 0 M0 0 C0 0, 0 0, 0 0 M0 0 C0 0, 0 0, 0 0" stroke="#d3d3d3" stroke-width="1" fill="none"></path></g></g><mask></mask><g stroke-linecap="round"><g transform="translate(26.891447716586754 47.259672185326565) rotate(247.3096764828164 8.403729099291581 10.267489193220086)" fill-rule="evenodd"><path d="M0 0 C0 0, 0 0, 0 0 M0 0 C0 0, 0 0, 0 0 M1.05 4.89 C2.62 2.64, 4.51 0.81, 8.27 -3.41 M1.05 4.89 C3.38 2.45, 5.49 -0.08, 8.27 -3.41 M2.76 9.02 C5.85 4.88, 9.29 0.87, 12.6 -2.3 M2.76 9.02 C5.45 6.05, 8.85 2.19, 12.6 -2.3 M3.81 13.91 C6.89 8.9, 11.77 5.91, 16.27 -0.43 M3.81 13.91 C6.67 10.36, 9.84 6.58, 16.27 -0.43 M5.51 18.04 C8.76 14.5, 11.81 11.06, 15.36 6.72 M5.51 18.04 C7.73 15.51, 9.88 12.72, 15.36 6.72 M6.57 22.93 C8.9 20.3, 11.77 17.24, 13.78 14.63 M6.57 22.93 C8.63 21.07, 10.14 18.81, 13.78 14.63 M7.19 23.73 C7.19 23.73, 7.19 23.73, 7.19 23.73 M7.19 23.73 C7.19 23.73, 7.19 23.73, 7.19 23.73 M11.33 22.03 C9.62 21.05, 8.09 19.5, 4.54 16.12 M11.33 22.03 C9 20.03, 6.59 17.88, 4.54 16.12 M12.44 17.7 C10.32 16.41, 8.86 13.77, 2.63 9.17 M12.44 17.7 C9.79 15.44, 6.52 12.75, 2.63 9.17 M13.56 13.36 C8.78 10.3, 5.12 5.12, 0.73 2.21 M13.56 13.36 C10.05 9.96, 6.77 7.01, 0.73 2.21 M14.67 9.03 C10.01 5.4, 6.27 2.83, 1.84 -2.12 M14.67 9.03 C11.11 5.77, 7.73 2.98, 1.84 -2.12 M15.79 4.7 C12.25 2.21, 9.66 -0.66, 6.73 -3.17 M15.79 4.7 C13.7 3.17, 12.31 1.68, 6.73 -3.17 M16.9 0.37 C15.61 -0.56, 14.88 -1.57, 12.37 -3.56 M16.9 0.37 C15.38 -0.9, 13.91 -2.23, 12.37 -3.56" stroke="#6e757c" stroke-width="0.5" fill="none"></path><path d="M0 0 C1.42 -0.95, 2.59 -1.87, 3.42 -2.5 M0 0 C0.81 -0.71, 1.71 -1.43, 3.42 -2.5 M3.42 -2.5 C5.37 -3, 7.07 -2.94, 8.55 -3.19 M3.42 -2.5 C4.54 -2.65, 5.76 -2.71, 8.55 -3.19 M8.55 -3.19 C10.18 -2.9, 11.45 -2.94, 13.2 -2.91 M8.55 -3.19 C10.18 -3.19, 11.75 -2.92, 13.2 -2.91 M13.2 -2.91 C13.98 -1.98, 15.11 -1.52, 16.81 -0.28 M13.2 -2.91 C14.45 -1.97, 15.68 -1.09, 16.81 -0.28 M16.81 -0.28 C14.86 6.4, 13.39 11.76, 11.02 23.73 M16.81 -0.28 C15.14 6.75, 13.16 14.07, 11.02 23.73 M11.02 23.73 C9.48 23.72, 8.31 23.73, 7.03 23.59 M11.02 23.73 C10.26 23.64, 9.45 23.75, 7.03 23.59 M7.03 23.59 C5.17 17.23, 4.3 11.04, 0 0 M7.03 23.59 C4.15 14.31, 1.54 4.99, 0 0 M0 0 C0 0, 0 0, 0 0 M0 0 C0 0, 0 0, 0 0" stroke="#d3d3d3" stroke-width="1" fill="none"></path></g></g><mask></mask><g stroke-linecap="round"><g transform="translate(61.40386864685388 48.50545624710716) rotate(119.12900226187013 8.403729099291581 10.2674891932201)" fill-rule="evenodd"><path d="M0 0 C0 0, 0 0, 0 0 M0 0 C0 0, 0 0, 0 0 M1.05 4.89 C3.39 2.2, 5.73 -0.5, 8.27 -3.41 M1.05 4.89 C2.68 3.01, 4.31 1.14, 8.27 -3.41 M2.76 9.02 C5.74 5.6, 8.71 2.17, 12.6 -2.3 M2.76 9.02 C5.95 5.35, 9.13 1.69, 12.6 -2.3 M3.81 13.91 C8.76 8.22, 13.7 2.53, 16.27 -0.43 M3.81 13.91 C8.63 8.36, 13.46 2.81, 16.27 -0.43 M5.51 18.04 C8.22 14.93, 10.93 11.82, 15.36 6.72 M5.51 18.04 C7.73 15.5, 9.94 12.96, 15.36 6.72 M6.57 22.93 C8.61 20.58, 10.65 18.24, 13.78 14.63 M6.57 22.93 C9.39 19.68, 12.21 16.44, 13.78 14.63 M7.19 23.73 C7.19 23.73, 7.19 23.73, 7.19 23.73 M7.19 23.73 C7.19 23.73, 7.19 23.73, 7.19 23.73 M11.33 22.03 C9.77 20.67, 8.2 19.31, 4.54 16.12 M11.33 22.03 C8.7 19.74, 6.08 17.46, 4.54 16.12 M12.44 17.7 C8.96 14.66, 5.47 11.63, 2.63 9.17 M12.44 17.7 C9.53 15.16, 6.61 12.63, 2.63 9.17 M13.56 13.36 C10.5 10.71, 7.44 8.05, 0.73 2.21 M13.56 13.36 C9.14 9.52, 4.72 5.68, 0.73 2.21 M14.67 9.03 C10.98 5.82, 7.29 2.61, 1.84 -2.12 M14.67 9.03 C9.71 4.72, 4.74 0.4, 1.84 -2.12 M15.79 4.7 C12.53 1.87, 9.28 -0.96, 6.73 -3.17 M15.79 4.7 C12.52 1.87, 9.26 -0.97, 6.73 -3.17 M16.9 0.37 C15.39 -0.94, 13.88 -2.26, 12.37 -3.56 M16.9 0.37 C15.78 -0.6, 14.66 -1.58, 12.37 -3.56" stroke="#6e757c" stroke-width="0.5" fill="none"></path><path d="M0 0 C1.24 -0.91, 2.49 -1.82, 3.42 -2.5 M0 0 C0.75 -0.55, 1.5 -1.09, 3.42 -2.5 M3.42 -2.5 C4.98 -2.71, 6.54 -2.92, 8.55 -3.19 M3.42 -2.5 C4.79 -2.68, 6.15 -2.87, 8.55 -3.19 M8.55 -3.19 C10.32 -3.09, 12.1 -2.98, 13.2 -2.91 M8.55 -3.19 C9.81 -3.12, 11.07 -3.04, 13.2 -2.91 M13.2 -2.91 C14.19 -2.19, 15.19 -1.46, 16.81 -0.28 M13.2 -2.91 C14.53 -1.94, 15.87 -0.97, 16.81 -0.28 M16.81 -0.28 C15.42 5.49, 14.02 11.26, 11.02 23.73 M16.81 -0.28 C14.51 9.23, 12.22 18.75, 11.02 23.73 M11.02 23.73 C9.49 23.67, 7.96 23.62, 7.03 23.59 M11.02 23.73 C9.59 23.68, 8.17 23.63, 7.03 23.59 M7.03 23.59 C5.32 17.86, 3.61 12.13, 0 0 M7.03 23.59 C4.23 14.19, 1.42 4.78, 0 0 M0 0 C0 0, 0 0, 0 0 M0 0 C0 0, 0 0, 0 0" stroke="#d3d3d3" stroke-width="1" fill="none"></path></g></g><mask></mask><g stroke-linecap="round" transform="translate(100.79177561344977 12.618367023733441) rotate(83.886993505507 37.44738226270488 34.800044185178976)"><path d="M50.19 2.8 C56.95 4.86, 65.11 10.19, 69.36 15.94 C73.61 21.69, 76.18 30.36, 75.69 37.31 C75.21 44.26, 71.37 52.41, 66.46 57.66 C61.55 62.91, 53.28 67.33, 46.25 68.8 C39.21 70.27, 31.13 69.1, 24.24 66.48 C17.36 63.85, 9.1 58.59, 4.94 53.05 C0.77 47.52, -1.17 39.9, -0.73 33.26 C-0.29 26.62, 2.91 18.53, 7.57 13.2 C12.23 7.87, 19.64 2.99, 27.23 1.26 C34.81 -0.47, 48.67 2.42, 53.07 2.81 C57.47 3.2, 53.86 2.88, 53.63 3.59 M52.01 2.53 C58.67 4.53, 66.36 11.56, 70 17.51 C73.65 23.45, 74.63 31.16, 73.87 38.21 C73.11 45.25, 70.26 54.45, 65.45 59.79 C60.63 65.14, 52.28 68.96, 44.98 70.28 C37.68 71.59, 28.14 70.49, 21.65 67.66 C15.16 64.82, 9.52 59.42, 6.05 53.25 C2.58 47.08, 0.4 37.79, 0.84 30.61 C1.28 23.43, 3.56 15.37, 8.68 10.19 C13.79 5.02, 24.22 0.55, 31.54 -0.41 C38.85 -1.37, 49.2 3.83, 52.56 4.44 C55.93 5.06, 51.65 2.85, 51.71 3.27" stroke="none" stroke-width="0" fill="#121212"></path><path d="M39.75 -0.86 C46.99 -0.73, 56.58 4.13, 62.1 8.72 C67.62 13.31, 71.21 20.17, 72.89 26.67 C74.56 33.17, 74.6 41.49, 72.13 47.71 C69.66 53.93, 64.17 60.24, 58.07 63.97 C51.96 67.7, 42.98 70.65, 35.48 70.1 C27.97 69.56, 18.85 65.21, 13.05 60.68 C7.24 56.14, 2.54 49.27, 0.65 42.91 C-1.24 36.55, -1.17 28.84, 1.72 22.52 C4.6 16.2, 11.06 8.76, 17.98 4.99 C24.89 1.23, 38.22 0.36, 43.23 -0.07 C48.25 -0.5, 48.08 1.88, 48.07 2.4 M35.61 -1.47 C42.41 -2.22, 52.3 0.64, 58.45 4.67 C64.61 8.7, 70.12 15.95, 72.55 22.73 C74.98 29.51, 74.78 38.61, 73.04 45.35 C71.29 52.1, 67.59 59.02, 62.06 63.21 C56.53 67.4, 47.48 70.14, 39.86 70.47 C32.25 70.8, 22.68 69.15, 16.36 65.2 C10.05 61.24, 4.23 53.49, 1.96 46.74 C-0.3 40, 0.52 31.37, 2.75 24.73 C4.98 18.08, 9.6 11.05, 15.34 6.87 C21.08 2.69, 33.55 0.81, 37.16 -0.34 C40.78 -1.49, 37.47 -0.73, 37.03 -0.01" stroke="#d3d3d3" stroke-width="1" fill="none"></path></g><g stroke-linecap="round" transform="translate(135.927117304308 47.721971395434906) rotate(83.886993505507 1.5856092640171937 1.2684874112138118)"><path d="M1.32 -0.31 C1.63 -0.37, 1.81 0.14, 2.13 0.33 C2.44 0.52, 3.01 0.59, 3.22 0.85 C3.42 1.11, 3.48 1.6, 3.34 1.9 C3.19 2.2, 2.73 2.53, 2.35 2.65 C1.96 2.77, 1.34 2.75, 1.03 2.61 C0.72 2.47, 0.71 2.06, 0.49 1.8 C0.26 1.54, -0.26 1.25, -0.32 1.05 C-0.37 0.85, -0.08 0.74, 0.15 0.59 C0.39 0.44, 0.92 0.26, 1.09 0.18 C1.26 0.09, 1.09 0.1, 1.16 0.08 M1.91 0.44 C2.24 0.44, 2.1 0.66, 2.24 0.71 C2.38 0.77, 2.62 0.57, 2.74 0.74 C2.86 0.91, 3.09 1.49, 2.96 1.73 C2.83 1.97, 2.24 1.99, 1.97 2.19 C1.69 2.39, 1.58 2.9, 1.31 2.93 C1.04 2.97, 0.57 2.65, 0.35 2.42 C0.13 2.18, -0.11 1.81, -0.02 1.55 C0.08 1.29, 0.64 1.1, 0.92 0.84 C1.21 0.58, 1.66 0.17, 1.68 -0.02 C1.7 -0.21, 1.01 -0.26, 1.06 -0.29" stroke="none" stroke-width="0" fill="#121212"></path><path d="M1.75 0.26 C2.03 0.31, 2.03 0.31, 2.25 0.43 C2.47 0.56, 2.92 0.79, 3.07 1.01 C3.23 1.23, 3.3 1.5, 3.18 1.76 C3.06 2.03, 2.71 2.55, 2.34 2.62 C1.97 2.69, 1.33 2.31, 0.96 2.17 C0.58 2.03, 0.3 1.93, 0.09 1.78 C-0.12 1.64, -0.39 1.56, -0.29 1.3 C-0.19 1.03, 0.43 0.45, 0.7 0.21 C0.96 -0.04, 1.14 -0.18, 1.31 -0.19 C1.47 -0.2, 1.65 0.15, 1.69 0.15 M1.51 -0.5 C1.79 -0.52, 2.44 -0.34, 2.71 -0.08 C2.99 0.19, 3.14 0.68, 3.16 1.08 C3.17 1.48, 2.9 2.02, 2.8 2.32 C2.7 2.61, 2.82 2.78, 2.57 2.85 C2.33 2.93, 1.73 2.85, 1.31 2.77 C0.9 2.69, 0.31 2.67, 0.07 2.37 C-0.17 2.07, -0.28 1.36, -0.12 0.97 C0.04 0.58, 0.67 0.24, 1.02 0.04 C1.37 -0.16, 1.81 -0.22, 1.97 -0.24 C2.14 -0.26, 2.03 -0.12, 2.03 -0.1" stroke="#d3d3d3" stroke-width="1" fill="none"></path></g><g stroke-linecap="round"><g transform="translate(148.30333721144507 34.8863131128775) rotate(83.886993505507 8.403729099291695 10.2674891932201)" fill-rule="evenodd"><path d="M0 0 C0 0, 0 0, 0 0 M0 0 C0 0, 0 0, 0 0 M1.05 4.89 C2.68 3.02, 4.3 1.15, 8.27 -3.41 M1.05 4.89 C3.68 1.86, 6.31 -1.17, 8.27 -3.41 M2.76 9.02 C6.14 5.13, 9.52 1.24, 12.6 -2.3 M2.76 9.02 C5.26 6.14, 7.77 3.26, 12.6 -2.3 M3.81 13.91 C6.89 10.36, 9.98 6.81, 16.27 -0.43 M3.81 13.91 C7.27 9.93, 10.73 5.95, 16.27 -0.43 M5.51 18.04 C9.12 13.9, 12.72 9.76, 15.36 6.72 M5.51 18.04 C7.69 15.55, 9.86 13.05, 15.36 6.72 M6.57 22.93 C8.76 20.41, 10.95 17.89, 13.78 14.63 M6.57 22.93 C9.23 19.87, 11.89 16.81, 13.78 14.63 M7.19 23.73 C7.19 23.73, 7.19 23.73, 7.19 23.73 M7.19 23.73 C7.19 23.73, 7.19 23.73, 7.19 23.73 M11.33 22.03 C9.31 20.27, 7.29 18.51, 4.54 16.12 M11.33 22.03 C9.67 20.59, 8.01 19.14, 4.54 16.12 M12.44 17.7 C10.08 15.64, 7.71 13.59, 2.63 9.17 M12.44 17.7 C8.72 14.46, 4.99 11.22, 2.63 9.17 M13.56 13.36 C10.55 10.75, 7.55 8.14, 0.73 2.21 M13.56 13.36 C8.66 9.11, 3.77 4.85, 0.73 2.21 M14.67 9.03 C10.45 5.36, 6.23 1.69, 1.84 -2.12 M14.67 9.03 C10.76 5.63, 6.85 2.24, 1.84 -2.12 M15.79 4.7 C12.88 2.17, 9.97 -0.35, 6.73 -3.17 M15.79 4.7 C13.67 2.86, 11.55 1.02, 6.73 -3.17 M16.9 0.37 C15.87 -0.52, 14.84 -1.42, 12.37 -3.56 M16.9 0.37 C15.3 -1.02, 13.69 -2.42, 12.37 -3.56" stroke="#6e757c" stroke-width="0.5" fill="none"></path><path d="M0 0 C1.07 -0.78, 2.14 -1.56, 3.42 -2.5 M0 0 C0.74 -0.54, 1.49 -1.09, 3.42 -2.5 M3.42 -2.5 C5.25 -2.75, 7.08 -2.99, 8.55 -3.19 M3.42 -2.5 C5.28 -2.75, 7.14 -3, 8.55 -3.19 M8.55 -3.19 C9.54 -3.13, 10.53 -3.07, 13.2 -2.91 M8.55 -3.19 C9.6 -3.13, 10.66 -3.07, 13.2 -2.91 M13.2 -2.91 C14.46 -1.99, 15.72 -1.07, 16.81 -0.28 M13.2 -2.91 C14.09 -2.27, 14.97 -1.62, 16.81 -0.28 M16.81 -0.28 C15.61 4.68, 14.41 9.64, 11.02 23.73 M16.81 -0.28 C15.61 4.69, 14.41 9.65, 11.02 23.73 M11.02 23.73 C9.51 23.67, 8.01 23.62, 7.03 23.59 M11.02 23.73 C10.14 23.7, 9.26 23.67, 7.03 23.59 M7.03 23.59 C5.08 17.05, 3.13 10.51, 0 0 M7.03 23.59 C4.26 14.31, 1.5 5.03, 0 0 M0 0 C0 0, 0 0, 0 0 M0 0 C0 0, 0 0, 0 0" stroke="#d3d3d3" stroke-width="1" fill="none"></path></g></g><mask></mask><g stroke-linecap="round"><g transform="translate(118.86018356062186 21.260177624261132) rotate(331.19666998832344 8.403729099291468 10.267489193220086)" fill-rule="evenodd"><path d="M0 0 C0 0, 0 0, 0 0 M0 0 C0 0, 0 0, 0 0 M1.05 4.89 C2.54 3.17, 4.04 1.45, 8.27 -3.41 M1.05 4.89 C2.78 2.9, 4.51 0.91, 8.27 -3.41 M2.76 9.02 C6.39 4.84, 10.03 0.66, 12.6 -2.3 M2.76 9.02 C5.88 5.43, 8.99 1.85, 12.6 -2.3 M3.81 13.91 C7.93 9.17, 12.04 4.44, 16.27 -0.43 M3.81 13.91 C8.52 8.49, 13.24 3.06, 16.27 -0.43 M5.51 18.04 C7.51 15.75, 9.5 13.46, 15.36 6.72 M5.51 18.04 C8.63 14.46, 11.74 10.88, 15.36 6.72 M6.57 22.93 C8.52 20.68, 10.47 18.44, 13.78 14.63 M6.57 22.93 C9.27 19.82, 11.98 16.71, 13.78 14.63 M7.19 23.73 C7.19 23.73, 7.19 23.73, 7.19 23.73 M7.19 23.73 C7.19 23.73, 7.19 23.73, 7.19 23.73 M11.33 22.03 C8.87 19.89, 6.4 17.74, 4.54 16.12 M11.33 22.03 C9.17 20.15, 7.02 18.28, 4.54 16.12 M12.44 17.7 C9.32 14.98, 6.19 12.26, 2.63 9.17 M12.44 17.7 C9.57 15.2, 6.7 12.71, 2.63 9.17 M13.56 13.36 C8.54 9, 3.52 4.64, 0.73 2.21 M13.56 13.36 C10.79 10.96, 8.03 8.56, 0.73 2.21 M14.67 9.03 C9.57 4.6, 4.47 0.17, 1.84 -2.12 M14.67 9.03 C11.27 6.07, 7.86 3.11, 1.84 -2.12 M15.79 4.7 C13.12 2.39, 10.46 0.07, 6.73 -3.17 M15.79 4.7 C13.03 2.31, 10.28 -0.09, 6.73 -3.17 M16.9 0.37 C15.28 -1.04, 13.66 -2.44, 12.37 -3.56 M16.9 0.37 C15.78 -0.61, 14.65 -1.58, 12.37 -3.56" stroke="#6e757c" stroke-width="0.5" fill="none"></path><path d="M0 0 C0.89 -0.65, 1.77 -1.29, 3.42 -2.5 M0 0 C0.97 -0.71, 1.94 -1.42, 3.42 -2.5 M3.42 -2.5 C4.46 -2.64, 5.51 -2.78, 8.55 -3.19 M3.42 -2.5 C4.66 -2.67, 5.9 -2.83, 8.55 -3.19 M8.55 -3.19 C10.32 -3.09, 12.08 -2.98, 13.2 -2.91 M8.55 -3.19 C9.99 -3.11, 11.43 -3.02, 13.2 -2.91 M13.2 -2.91 C14.17 -2.2, 15.15 -1.49, 16.81 -0.28 M13.2 -2.91 C14.11 -2.25, 15.02 -1.58, 16.81 -0.28 M16.81 -0.28 C15.52 5.04, 14.24 10.36, 11.02 23.73 M16.81 -0.28 C14.86 7.78, 12.92 15.84, 11.02 23.73 M11.02 23.73 C9.69 23.68, 8.37 23.63, 7.03 23.59 M11.02 23.73 C10.2 23.7, 9.38 23.67, 7.03 23.59 M7.03 23.59 C5.46 18.34, 3.9 13.1, 0 0 M7.03 23.59 C5.24 17.59, 3.45 11.59, 0 0 M0 0 C0 0, 0 0, 0 0 M0 0 C0 0, 0 0, 0 0" stroke="#d3d3d3" stroke-width="1" fill="none"></path></g></g><mask></mask><g stroke-linecap="round"><g transform="translate(121.29670371877182 55.709017168075945) rotate(203.0159957673771 8.403729099291695 10.267489193220094)" fill-rule="evenodd"><path d="M0 0 C0 0, 0 0, 0 0 M0 0 C0 0, 0 0, 0 0 M1.05 4.89 C2.89 2.78, 4.72 0.66, 8.27 -3.41 M1.05 4.89 C3.55 2.02, 6.04 -0.86, 8.27 -3.41 M2.76 9.02 C5.83 5.49, 8.9 1.95, 12.6 -2.3 M2.76 9.02 C5.33 6.06, 7.91 3.09, 12.6 -2.3 M3.81 13.91 C8.74 8.24, 13.67 2.56, 16.27 -0.43 M3.81 13.91 C6.89 10.36, 9.98 6.81, 16.27 -0.43 M5.51 18.04 C7.77 15.45, 10.03 12.85, 15.36 6.72 M5.51 18.04 C8.69 14.39, 11.86 10.74, 15.36 6.72 M6.57 22.93 C8.05 21.22, 9.54 19.51, 13.78 14.63 M6.57 22.93 C8.09 21.18, 9.62 19.42, 13.78 14.63 M7.19 23.73 C7.19 23.73, 7.19 23.73, 7.19 23.73 M7.19 23.73 C7.19 23.73, 7.19 23.73, 7.19 23.73 M11.33 22.03 C9.46 20.4, 7.59 18.77, 4.54 16.12 M11.33 22.03 C8.73 19.77, 6.13 17.51, 4.54 16.12 M12.44 17.7 C9.48 15.12, 6.52 12.55, 2.63 9.17 M12.44 17.7 C8.69 14.43, 4.93 11.17, 2.63 9.17 M13.56 13.36 C8.49 8.96, 3.43 4.56, 0.73 2.21 M13.56 13.36 C10 10.27, 6.43 7.17, 0.73 2.21 M14.67 9.03 C11.28 6.09, 7.89 3.14, 1.84 -2.12 M14.67 9.03 C9.64 4.65, 4.6 0.28, 1.84 -2.12 M15.79 4.7 C13.46 2.68, 11.13 0.66, 6.73 -3.17 M15.79 4.7 C13.17 2.43, 10.56 0.16, 6.73 -3.17 M16.9 0.37 C15.84 -0.56, 14.77 -1.48, 12.37 -3.56 M16.9 0.37 C15.84 -0.55, 14.77 -1.48, 12.37 -3.56" stroke="#6e757c" stroke-width="0.5" fill="none"></path><path d="M0 0 C0.71 -0.52, 1.42 -1.04, 3.42 -2.5 M0 0 C1.2 -0.88, 2.4 -1.76, 3.42 -2.5 M3.42 -2.5 C4.66 -2.67, 5.9 -2.83, 8.55 -3.19 M3.42 -2.5 C5.21 -2.74, 7 -2.98, 8.55 -3.19 M8.55 -3.19 C9.89 -3.11, 11.24 -3.03, 13.2 -2.91 M8.55 -3.19 C10.34 -3.08, 12.14 -2.98, 13.2 -2.91 M13.2 -2.91 C14.18 -2.2, 15.16 -1.48, 16.81 -0.28 M13.2 -2.91 C14.19 -2.19, 15.18 -1.46, 16.81 -0.28 M16.81 -0.28 C14.64 8.72, 12.47 17.71, 11.02 23.73 M16.81 -0.28 C14.57 9, 12.33 18.27, 11.02 23.73 M11.02 23.73 C10.1 23.69, 9.19 23.66, 7.03 23.59 M11.02 23.73 C10.14 23.7, 9.26 23.67, 7.03 23.59 M7.03 23.59 C4.33 14.53, 1.63 5.47, 0 0 M7.03 23.59 C5.07 17.01, 3.11 10.44, 0 0 M0 0 C0 0, 0 0, 0 0 M0 0 C0 0, 0 0, 0 0" stroke="#d3d3d3" stroke-width="1" fill="none"></path></g></g><mask></mask><g stroke-linecap="round" transform="translate(26.00318750667543 96.9147683204676) rotate(0 2.29860194190735 1.8146857436110508)"><path d="M2.3 -0.12 C2.77 -0.23, 3.41 -0.17, 3.83 0.14 C4.25 0.44, 4.75 1.33, 4.82 1.7 C4.89 2.08, 4.53 2.04, 4.25 2.37 C3.97 2.7, 3.57 3.49, 3.13 3.68 C2.69 3.87, 2.09 3.63, 1.61 3.5 C1.12 3.37, 0.48 3.19, 0.24 2.91 C0 2.64, 0.04 2.29, 0.18 1.85 C0.31 1.4, 0.72 0.53, 1.03 0.25 C1.34 -0.03, 1.86 0.23, 2.04 0.15 C2.22 0.06, 2.03 -0.23, 2.11 -0.26 M1.95 0.33 C2.56 0.41, 3.65 0.48, 4.09 0.66 C4.52 0.83, 4.55 1.02, 4.55 1.38 C4.56 1.74, 4.35 2.43, 4.1 2.81 C3.84 3.19, 3.52 3.61, 3.02 3.66 C2.52 3.71, 1.63 3.18, 1.12 3.11 C0.6 3.04, 0.05 3.46, -0.09 3.25 C-0.23 3.04, 0.15 2.31, 0.28 1.85 C0.41 1.38, 0.39 0.78, 0.69 0.45 C0.99 0.13, 1.86 -0.03, 2.09 -0.1 C2.32 -0.18, 2.03 -0.13, 2.06 0" stroke="none" stroke-width="0" fill="#121212"></path><path d="M2.38 -0.03 C2.81 -0.07, 3.36 0.21, 3.7 0.43 C4.04 0.65, 4.35 0.96, 4.4 1.3 C4.46 1.64, 4.23 2.15, 4.04 2.47 C3.84 2.8, 3.65 3.06, 3.21 3.25 C2.77 3.44, 1.9 3.76, 1.37 3.61 C0.85 3.46, 0.22 2.72, 0.06 2.35 C-0.11 1.98, 0.23 1.73, 0.38 1.4 C0.52 1.06, 0.61 0.49, 0.94 0.31 C1.27 0.13, 2.06 0.32, 2.35 0.32 C2.64 0.33, 2.6 0.4, 2.66 0.33 M2.83 -0.37 C3.4 -0.25, 4.01 0.67, 4.27 0.97 C4.53 1.28, 4.45 1.14, 4.4 1.49 C4.35 1.84, 4.25 2.71, 3.97 3.07 C3.69 3.43, 3.17 3.63, 2.73 3.66 C2.28 3.7, 1.69 3.49, 1.31 3.28 C0.92 3.08, 0.56 2.85, 0.43 2.44 C0.31 2.04, 0.44 1.18, 0.55 0.87 C0.66 0.56, 0.78 0.66, 1.09 0.58 C1.39 0.49, 2.07 0.4, 2.4 0.36 C2.73 0.32, 3.1 0.44, 3.07 0.33" stroke="#d3d3d3" stroke-width="1" fill="none"></path></g><g stroke-linecap="round" transform="translate(39.63255899389742 87.55812038861654) rotate(0 2.29860194190735 1.8146857436110508)"><path d="M2.8 -0.11 C3.25 0, 3.46 0.6, 3.73 0.9 C4.01 1.2, 4.42 1.4, 4.43 1.69 C4.44 1.98, 4.08 2.29, 3.78 2.65 C3.47 3, 2.97 3.66, 2.58 3.81 C2.19 3.97, 1.85 3.82, 1.45 3.59 C1.05 3.36, 0.41 2.82, 0.16 2.45 C-0.08 2.07, -0.18 1.68, -0.04 1.33 C0.1 0.99, 0.6 0.64, 1 0.37 C1.4 0.11, 2.14 -0.26, 2.39 -0.26 C2.63 -0.26, 2.4 0.27, 2.47 0.38 M2.15 -0.14 C2.62 -0.14, 3.23 0.26, 3.7 0.46 C4.18 0.67, 4.85 0.79, 5 1.1 C5.15 1.42, 4.94 2.02, 4.59 2.35 C4.24 2.69, 3.43 2.86, 2.91 3.12 C2.39 3.37, 1.89 4, 1.48 3.88 C1.07 3.75, 0.62 2.76, 0.46 2.37 C0.3 1.99, 0.54 1.97, 0.53 1.57 C0.51 1.17, 0.14 0.18, 0.38 -0.01 C0.62 -0.21, 1.72 0.45, 1.97 0.41 C2.22 0.37, 1.86 -0.26, 1.89 -0.24" stroke="none" stroke-width="0" fill="#121212"></path><path d="M2.7 0.25 C3.23 0.3, 3.87 0.53, 4.13 0.79 C4.39 1.05, 4.28 1.5, 4.27 1.81 C4.25 2.11, 4.2 2.4, 4.02 2.65 C3.84 2.89, 3.57 3.1, 3.17 3.29 C2.78 3.47, 2.14 3.89, 1.63 3.76 C1.13 3.63, 0.42 2.88, 0.14 2.51 C-0.14 2.14, -0.17 1.89, -0.06 1.55 C0.05 1.2, 0.4 0.71, 0.82 0.44 C1.24 0.16, 2.16 -0.02, 2.47 -0.1 C2.77 -0.17, 2.6 -0.01, 2.65 -0.01 M2.68 0.5 C3.15 0.46, 3.85 -0.1, 4.08 0.12 C4.31 0.35, 4.1 1.46, 4.07 1.87 C4.04 2.28, 4.04 2.25, 3.91 2.58 C3.79 2.91, 3.69 3.72, 3.32 3.85 C2.95 3.98, 2.15 3.58, 1.68 3.33 C1.21 3.09, 0.73 2.59, 0.52 2.36 C0.32 2.13, 0.44 2.32, 0.46 1.93 C0.49 1.54, 0.41 0.29, 0.7 0.02 C0.99 -0.26, 1.96 0.3, 2.22 0.29 C2.49 0.28, 2.31 -0.05, 2.29 -0.04" stroke="#d3d3d3" stroke-width="1" fill="none"></path></g><g stroke-linecap="round" transform="translate(138.91509757956055 88.60567072013541) rotate(0 2.2986019419072363 1.8146857436110508)"><path d="M2.15 -0.22 C2.71 -0.32, 3.67 -0.14, 4.04 0.17 C4.41 0.47, 4.34 1.17, 4.37 1.6 C4.39 2.02, 4.34 2.39, 4.19 2.71 C4.04 3.03, 3.96 3.36, 3.48 3.5 C2.99 3.65, 1.75 3.73, 1.26 3.59 C0.78 3.46, 0.74 3.08, 0.56 2.71 C0.38 2.34, 0.1 1.76, 0.17 1.37 C0.23 0.98, 0.65 0.62, 0.95 0.36 C1.24 0.1, 1.75 -0.17, 1.94 -0.2 C2.14 -0.22, 2.1 0.14, 2.12 0.21 M2.75 -0.34 C3.24 -0.41, 3.21 -0.01, 3.51 0.34 C3.81 0.69, 4.47 1.34, 4.55 1.75 C4.63 2.16, 4.18 2.56, 4.01 2.8 C3.83 3.03, 3.91 2.99, 3.49 3.18 C3.06 3.36, 2.04 4.06, 1.46 3.92 C0.88 3.78, 0.26 2.77, 0 2.33 C-0.25 1.88, -0.16 1.52, -0.08 1.23 C0 0.94, 0.16 0.89, 0.48 0.6 C0.8 0.32, 1.46 -0.43, 1.83 -0.46 C2.19 -0.5, 2.6 0.22, 2.66 0.4" stroke="none" stroke-width="0" fill="#121212"></path><path d="M2.75 -0.16 C3.23 -0.16, 3.56 -0.07, 3.81 0.2 C4.07 0.47, 4.18 0.98, 4.28 1.46 C4.38 1.95, 4.61 2.74, 4.42 3.09 C4.22 3.45, 3.63 3.53, 3.11 3.57 C2.6 3.6, 1.79 3.49, 1.33 3.31 C0.87 3.13, 0.52 2.88, 0.33 2.5 C0.14 2.12, 0.13 1.45, 0.18 1.04 C0.24 0.63, 0.23 0.18, 0.66 0.04 C1.1 -0.1, 2.46 0.18, 2.8 0.18 C3.14 0.17, 2.76 0.02, 2.7 0.01 M2.28 0.45 C2.71 0.47, 3.03 0.54, 3.35 0.67 C3.67 0.8, 4.11 0.9, 4.21 1.22 C4.3 1.54, 4.05 2.19, 3.94 2.59 C3.82 3, 3.96 3.39, 3.51 3.63 C3.05 3.87, 1.73 4.25, 1.21 4.04 C0.69 3.83, 0.66 2.83, 0.39 2.37 C0.11 1.91, -0.57 1.65, -0.44 1.27 C-0.31 0.9, 0.77 0.33, 1.17 0.1 C1.57 -0.13, 1.71 -0.01, 1.95 -0.09 C2.19 -0.17, 2.64 -0.34, 2.61 -0.38" stroke="#d3d3d3" stroke-width="1" fill="none"></path></g><g stroke-linecap="round" transform="translate(154.72209195911546 95.46021543120963) rotate(0 2.2986019419074637 1.8146857436110508)"><path d="M2.06 -0.03 C2.42 -0.08, 2.92 -0.21, 3.33 0.02 C3.73 0.26, 4.34 0.98, 4.52 1.38 C4.7 1.78, 4.55 2.05, 4.38 2.42 C4.21 2.78, 3.91 3.34, 3.51 3.57 C3.11 3.81, 2.49 3.97, 1.96 3.83 C1.44 3.7, 0.72 3.06, 0.37 2.74 C0.02 2.42, -0.15 2.25, -0.11 1.93 C-0.08 1.61, 0.16 1.16, 0.57 0.82 C0.98 0.48, 2.08 0.03, 2.34 -0.13 C2.6 -0.3, 2.12 -0.21, 2.14 -0.15 M2.77 0.16 C3.21 0.15, 3.78 -0.13, 4.13 0.19 C4.48 0.51, 4.84 1.64, 4.85 2.07 C4.86 2.49, 4.57 2.5, 4.2 2.73 C3.83 2.97, 3.09 3.32, 2.66 3.45 C2.22 3.58, 2 3.69, 1.6 3.52 C1.2 3.36, 0.5 2.81, 0.26 2.45 C0.03 2.09, 0.02 1.8, 0.18 1.36 C0.33 0.91, 0.85 0.03, 1.2 -0.21 C1.54 -0.45, 2.04 -0.07, 2.24 -0.07 C2.44 -0.07, 2.27 -0.19, 2.39 -0.19" stroke="none" stroke-width="0" fill="#121212"></path><path d="M2.12 0 C2.51 -0.01, 2.88 0.25, 3.33 0.44 C3.78 0.63, 4.68 0.77, 4.82 1.12 C4.97 1.46, 4.47 2.11, 4.21 2.53 C3.95 2.95, 3.72 3.45, 3.27 3.63 C2.82 3.81, 1.95 3.79, 1.51 3.62 C1.08 3.46, 0.94 2.91, 0.68 2.63 C0.42 2.35, 0 2.32, -0.03 1.92 C-0.07 1.53, 0.12 0.61, 0.46 0.26 C0.81 -0.09, 1.8 -0.16, 2.05 -0.18 C2.29 -0.2, 1.97 0.15, 1.93 0.16 M3.02 -0.4 C3.34 -0.29, 3.29 0.54, 3.49 0.95 C3.7 1.37, 4.14 1.85, 4.22 2.11 C4.3 2.36, 4.12 2.28, 3.96 2.46 C3.8 2.63, 3.73 2.93, 3.26 3.16 C2.78 3.39, 1.67 3.9, 1.12 3.83 C0.58 3.77, 0.16 3.18, 0 2.75 C-0.15 2.31, 0.05 1.61, 0.19 1.23 C0.34 0.84, 0.43 0.71, 0.88 0.46 C1.33 0.21, 2.58 -0.31, 2.88 -0.29 C3.19 -0.28, 2.75 0.43, 2.73 0.54" stroke="#d3d3d3" stroke-width="1" fill="none"></path></g><g stroke-linecap="round" transform="translate(54.07032700785908 90.38189964346788) rotate(0 37.745463467109744 17.662941237814096)"><path d="M-0.77 1.75 L77.19 0.2 L76.52 35.89 L1.47 35.52" stroke="none" stroke-width="0" fill="#121212"></path><path d="M0 0 C20.08 -1.87, 36.75 -1.51, 75.49 0 M0 0 C21.02 -0.82, 40.99 0.47, 75.49 0 M75.49 0 C75.55 8, 76.28 16.46, 75.49 35.33 M75.49 0 C75.39 11.26, 75.08 21.42, 75.49 35.33 M75.49 35.33 C55.56 35.19, 36.31 35.11, 0 35.33 M75.49 35.33 C46.91 35.15, 19.13 35.62, 0 35.33 M0 35.33 C-0.46 28.39, 1.39 17.55, 0 0 M0 35.33 C-0.85 23.59, 0.74 11.49, 0 0" stroke="#d3d3d3" stroke-width="2" fill="none"></path></g><g stroke-linecap="round"><g transform="translate(15.11507304500924 54.81405906869156) rotate(0 5.686015329981274 22.98601941907313)"><path d="M0 0 C4.41 13.86, 7.28 27.79, 11.37 45.97 M0 0 C3.09 12.17, 5.41 23.48, 11.37 45.97" stroke="#d3d3d3" stroke-width="1" fill="none"></path></g></g><mask></mask><g stroke-linecap="round"><g transform="translate(30.358433291341953 99.09239121280086) rotate(0 4.597203883814586 -5.686015329981245)"><path d="M0 0 C1.49 -2.01, 3.79 -4.67, 9.19 -11.37 M0 0 C2.98 -3.12, 5.15 -6.76, 9.19 -11.37" stroke="#d3d3d3" stroke-width="1" fill="none"></path></g></g><mask></mask><g stroke-linecap="round"><g transform="translate(42.698296347896985 87.9623186519865) rotate(0 4.960141032536853 3.9923086359442834)"><path d="M0 0 C2.27 1.76, 5.29 4.33, 9.92 7.98 M0 0 C2.21 1.96, 4.84 3.69, 9.92 7.98" stroke="#d3d3d3" stroke-width="1" fill="none"></path></g></g><mask></mask><g stroke-linecap="round"><g transform="translate(172.62979559044697 55.78189146528413) rotate(0 -7.016784875295798 21.292312725036155)"><path d="M0 0 C-3.03 11.32, -6.33 20.58, -14.03 42.58 M0 0 C-4.22 11.39, -8.1 23.84, -14.03 42.58" stroke="#d3d3d3" stroke-width="1" fill="none"></path></g></g><mask></mask><g stroke-linecap="round"><g transform="translate(156.90251914581813 98.85043311365274) rotate(0 -7.621680123166243 -5.323078181259049)"><path d="M0 0 C-3.3 -2.62, -8.68 -5.61, -15.24 -10.65 M0 0 C-5.14 -3.7, -10.35 -7.78, -15.24 -10.65" stroke="#d3d3d3" stroke-width="1" fill="none"></path></g></g><mask></mask><g stroke-linecap="round"><g transform="translate(138.75566170970797 88.44623485028276) rotate(0 -4.355245784666522 3.266434338499863)"><path d="M0 0 C-2.92 1.98, -5.09 3.83, -8.71 6.53 M0 0 C-2.79 2.16, -5.9 4.2, -8.71 6.53" stroke="#d3d3d3" stroke-width="1" fill="none"></path></g></g><mask></mask><g stroke-linecap="round" transform="translate(58.425572792526054 112.88400286424474) rotate(0 12.097904957406854 4.597203883814615)"><path d="M-0.82 -1.93 L24.97 -0.92 L22.58 10.45 L0.68 8" stroke="none" stroke-width="0" fill="#121212"></path><path d="M-1.26 1.88 C7.34 -0.11, 13.71 -1.23, 24.21 0.92 M0.64 -0.66 C7.42 -0.52, 13.09 0.67, 24.5 -0.83 M24.74 -0.16 C24.73 1.13, 24.93 4.78, 24.95 8.99 M24.01 -0.46 C23.73 2.06, 24.43 3.95, 24.33 9.11 M22.85 8.85 C15.65 8.83, 5.93 7.96, -1.99 8.44 M25.05 10.11 C15.69 9.37, 6.91 8.28, 0.09 8.65 M0.81 10.09 C-0.38 6.11, 0.08 4.59, -0.85 0.3 M0.03 8.93 C0.51 5.67, 0.19 3.09, -0.42 0" stroke="#d3d3d3" stroke-width="1" fill="none"></path></g><g stroke-linecap="round" transform="translate(87.70250278945059 112.88400286424474) rotate(0 4.5972038838147 4.234266735092405)"><path d="M-1.08 0.84 L9.65 -0.79 L8.26 9.72 L0.28 7.46" stroke="none" stroke-width="0" fill="#121212"></path><path d="M-0.61 -0.35 C3.63 0.28, 7.18 0.04, 9.26 0.39 M-0.28 0.21 C2.24 -0.22, 4.04 0.12, 9.43 0.18 M9.63 0.51 C9.69 2.26, 8.79 4.72, 9.48 8.24 M9.34 -0.1 C9.22 1.65, 9.36 3.47, 9.3 8.28 M9.21 8.06 C5.98 8.22, 4.23 8.6, -0.05 8.99 M8.92 8.19 C5.62 8.31, 1.93 8.63, 0.01 8.74 M0.08 8.78 C-0.5 5.29, 0.26 1.22, 0.22 0.04 M0.06 8.58 C-0.31 6.42, -0.17 4.09, 0.11 -0.13" stroke="#d3d3d3" stroke-width="1" fill="none"></path></g><g stroke-linecap="round" transform="translate(101.73607254004264 112.64204476509661) rotate(0 5.323078181259007 4.355245784666465)"><path d="M5.94 -0.38 C6.8 -0.12, 7.52 1.14, 8.22 1.75 C8.93 2.36, 9.84 2.36, 10.18 3.29 C10.51 4.21, 10.93 6.52, 10.23 7.29 C9.53 8.06, 7.02 7.7, 5.96 7.89 C4.91 8.08, 4.93 8.69, 3.88 8.46 C2.83 8.23, 0.42 7.39, -0.32 6.5 C-1.05 5.6, -0.94 4.01, -0.54 3.09 C-0.13 2.17, 1.1 1.59, 2.12 0.98 C3.14 0.37, 4.93 -0.56, 5.59 -0.55 C6.25 -0.55, 5.89 0.7, 6.08 1.02 M7.35 0.05 C8.38 -0.21, 7.66 -0.08, 8.12 0.41 C8.59 0.91, 9.71 1.92, 10.14 3.01 C10.58 4.1, 11.26 5.91, 10.73 6.93 C10.2 7.96, 8.4 8.96, 6.96 9.14 C5.52 9.32, 3.05 8.69, 2.12 8.02 C1.19 7.35, 1.77 6.12, 1.36 5.13 C0.95 4.15, -0.39 2.7, -0.33 2.09 C-0.27 1.47, 0.39 1.79, 1.7 1.44 C3.02 1.1, 6.77 0.19, 7.58 0.03 C8.4 -0.14, 7.01 0.56, 6.58 0.43" stroke="none" stroke-width="0" fill="#121212"></path><path d="M3.78 0.23 C4.47 -0.38, 4.76 -0.18, 5.82 0.01 C6.87 0.2, 9.48 0.77, 10.11 1.37 C10.75 1.98, 9.8 2.57, 9.64 3.66 C9.49 4.74, 9.88 7.01, 9.19 7.89 C8.51 8.78, 6.73 8.82, 5.56 8.97 C4.39 9.11, 3.04 9.26, 2.18 8.76 C1.33 8.26, 0.84 7.02, 0.44 5.96 C0.04 4.91, -0.85 3.44, -0.22 2.43 C0.4 1.43, 3.33 0.43, 4.18 -0.06 C5.03 -0.56, 5.06 -0.6, 4.87 -0.56 M7.63 1.45 C8.57 1.63, 8.73 1.64, 9.01 1.91 C9.29 2.19, 9.24 2.35, 9.31 3.1 C9.39 3.85, 10.05 5.36, 9.46 6.41 C8.88 7.46, 6.95 8.91, 5.81 9.41 C4.68 9.91, 3.32 10.11, 2.64 9.41 C1.96 8.71, 2.27 6.29, 1.75 5.22 C1.22 4.15, -0.81 4.01, -0.5 3 C-0.2 1.98, 2.35 -0.46, 3.58 -0.85 C4.8 -1.23, 6.61 0.44, 6.84 0.71 C7.07 0.97, 5.05 0.92, 4.96 0.75" stroke="#d3d3d3" stroke-width="1" fill="none"></path></g><g stroke-linecap="round" transform="translate(115.04376799319016 112.40008666594844) rotate(0 5.202099131685145 4.960141032536825)"><path d="M3.88 -0.41 C5.02 -0.4, 7.6 0.62, 8.79 1.33 C9.99 2.04, 10.95 2.8, 11.03 3.84 C11.12 4.88, 9.76 6.66, 9.3 7.57 C8.84 8.49, 9.3 9.09, 8.28 9.33 C7.27 9.57, 4.45 9.38, 3.2 9 C1.94 8.61, 1.13 7.77, 0.75 7.04 C0.38 6.3, 0.75 5.42, 0.94 4.57 C1.13 3.72, 1.27 2.71, 1.9 1.95 C2.53 1.18, 4 0.34, 4.72 -0.04 C5.44 -0.41, 6.26 -0.32, 6.24 -0.31 M3.35 0.54 C4.22 -0.28, 6.38 -1.53, 7.23 -0.98 C8.08 -0.44, 8.13 2.6, 8.42 3.83 C8.72 5.05, 8.83 5.59, 8.98 6.37 C9.14 7.16, 10.19 8.07, 9.37 8.56 C8.55 9.04, 5.27 9.48, 4.04 9.29 C2.82 9.11, 2.59 8.02, 2.02 7.46 C1.45 6.9, 1.01 6.91, 0.61 5.95 C0.21 4.99, -0.68 2.55, -0.37 1.71 C-0.06 0.87, 1.79 1.26, 2.46 0.91 C3.12 0.56, 3.64 -0.22, 3.61 -0.41" stroke="none" stroke-width="0" fill="#121212"></path><path d="M3.26 0.3 C4.16 -0.31, 5.37 -1.11, 6.38 -0.67 C7.4 -0.24, 8.67 1.84, 9.36 2.92 C10.06 4.01, 10.56 4.68, 10.55 5.81 C10.55 6.94, 10.3 9, 9.35 9.71 C8.39 10.43, 6.23 10.43, 4.83 10.11 C3.42 9.8, 1.7 8.64, 0.92 7.82 C0.14 7.01, 0.22 6.03, 0.15 5.22 C0.09 4.4, -0.22 3.64, 0.51 2.93 C1.24 2.21, 3.53 1.46, 4.52 0.93 C5.51 0.4, 6.55 -0.21, 6.46 -0.25 M7.24 -1.18 C8.6 -1.03, 9.7 0.94, 10.08 2.28 C10.46 3.61, 9.93 5.74, 9.52 6.83 C9.1 7.93, 8.13 8.57, 7.58 8.86 C7.02 9.14, 7.07 8.62, 6.17 8.54 C5.27 8.46, 3.42 8.67, 2.17 8.37 C0.93 8.08, -0.89 7.89, -1.29 6.76 C-1.68 5.63, -1.05 2.57, -0.17 1.6 C0.71 0.63, 3.03 1.36, 4.01 0.95 C4.99 0.54, 5.06 -0.81, 5.72 -0.87 C6.38 -0.93, 8.05 0.24, 7.99 0.59" stroke="#d3d3d3" stroke-width="1" fill="none"></path></g><g stroke-linecap="round" transform="translate(75.60459783204374 96.18889402302318) rotate(0 17.300004089091885 4.355245784666494)"><path d="M0 0 C0 0, 0 0, 0 0 M0 0 C0 0, 0 0, 0 0 M-0.85 6.26 C1.96 4.71, 3.29 1.03, 4.67 0.06 M-0.27 6.62 C1.1 4.44, 2.81 3.03, 5.38 0.05 M1.38 11.26 C4.74 6.8, 7.18 6.45, 9.68 -0.9 M1.66 10.92 C4.33 7.11, 7.36 3.53, 11.22 -0.19 M5.79 10.61 C8.2 9.25, 11.92 4.78, 16.61 0.58 M6.65 10.21 C8.85 8.39, 11.23 5.26, 16.15 0.83 M12.58 10.05 C15.93 7.17, 18.31 3.09, 22.31 -0.46 M12.75 10.35 C14.12 8.35, 16.23 5.47, 21.42 0.22 M18.65 11.26 C19.84 7.19, 22.7 2.57, 26.22 0.46 M17.45 10.19 C19.79 8.33, 20.79 5.23, 26.44 0.21 M23.9 11.43 C25.06 7.88, 30.32 2.24, 30.93 -1.12 M22.12 11.1 C25.95 7.09, 27.86 4.43, 32.04 -0.3 M28.34 9.12 C29.56 7.91, 32.61 7.13, 35.21 2 M28.01 9.8 C31.66 6.04, 34.48 3, 36.46 0.57 M0.22 8.9 C0.22 8.9, 0.22 8.9, 0.22 8.9 M0.22 8.9 C0.22 8.9, 0.22 8.9, 0.22 8.9 M5.79 8.42 C3.6 6.44, 2.4 6.38, 0.57 2.55 M5.6 8.19 C4.26 7.16, 2.02 5.72, -0.5 3.12 M12.06 9.91 C10.05 6.76, 5.18 4.36, 0.02 -2.01 M12.66 8.15 C9.02 6.09, 5.64 3.16, 0.83 -0.85 M17.7 8.26 C15.5 6.75, 9.47 2.41, 6.4 -0.51 M18.22 9.03 C15.25 6.84, 12.83 4.1, 7.65 -1.21 M24.27 8.25 C21.98 5.18, 17.7 2.66, 11.54 -0.88 M24.05 7.97 C21.13 6.29, 17.55 3.34, 13.65 -1.62 M31.69 10.01 C26.53 6.19, 24.78 4.29, 19.88 -1.47 M30.46 8.22 C26.21 4.77, 21.03 1.18, 18.72 -0.84 M35.39 7.25 C34.59 5.48, 30.35 3.84, 25.16 -1.75 M35.49 7.74 C31.27 4.89, 28.13 1.43, 24.34 -1.22 M35.54 2.47 C33.78 1, 32.46 -0.14, 31.55 -0.63 M34.95 2.14 C34 1.13, 32.71 -0.13, 31.42 -1.32" stroke="#6e757c" stroke-width="0.5" fill="none"></path><path d="M-1.85 0.65 C9.23 -2.01, 17.56 -0.05, 33.45 1.84 M-0.91 0.01 C7.07 -1.1, 15.35 -0.59, 33.79 0.63 M35.42 0.18 C33.89 3.27, 33.89 5.8, 34.37 8.93 M34.95 0.25 C34.93 2.21, 34.23 4.41, 34.89 8.7 M32.68 10.59 C26.95 9.69, 20.72 8, -0.08 10.14 M33.9 9.31 C26.48 8.51, 16.88 8.73, -0.85 7.86 M0.47 8.6 C-0.6 4.95, 0.16 1.15, 0.31 0.07 M0.18 8.76 C-0.19 6.33, -0.24 4.74, 0.16 -0.21" stroke="#d3d3d3" stroke-width="1" fill="none"></path></g><g stroke-linecap="round"><g transform="translate(11.969617756083608 116.27141625231857) rotate(0 20.796769723754778 -0.00410282725882638)"><path d="M-1.97 0.58 C13.79 1.22, 26.23 -1.66, 43.56 0.42 M-0.52 -0.68 C8.75 -0.7, 18.46 -0.05, 41.02 -0.06" stroke="#d3d3d3" stroke-width="1" fill="none"></path></g></g><mask></mask><g stroke-linecap="round"><g transform="translate(130.2871282395231 117.48120674805932) rotate(0 23.66922187926275 0.45727745490148664)"><path d="M-1.68 1.65 C15.47 -1.63, 28.66 -0.95, 48 1.48 M0.4 -0.74 C11.91 0.23, 22.81 -0.5, 49.02 0.34" stroke="#d3d3d3" stroke-width="1" fill="none"></path></g></g><mask></mask><g stroke-linecap="round"><g transform="translate(77.05634642693258 20.697967088804035) rotate(0 19.961543179721502 -0.6110968485284758)"><path d="M0 0 C10.02 0.76, 18.38 -0.55, 39.92 -1.45 M0 0 C7.81 0.05, 15.98 -0.28, 39.92 -1.45" stroke="#d3d3d3" stroke-width="1" fill="none"></path></g></g><mask></mask><g stroke-linecap="round"><g transform="translate(70.28151965078473 87.72036055283832) rotate(0 23.881598477375405 -8.318656618117274)" fill-rule="evenodd"><path d="M0 0 C1.46 -0.97, 6.26 -3.78, 8.78 -5.81 C11.3 -7.83, 13.61 -10.22, 15.14 -12.16 C16.67 -14.1, 15.69 -16.54, 17.96 -17.42 C20.24 -18.3, 26.49 -18.32, 28.79 -17.42 C31.09 -16.52, 30.5 -14.03, 31.76 -12.03 C33.02 -10.02, 33.95 -7.61, 36.36 -5.4 C38.77 -3.2, 52.27 0.31, 46.21 1.21 C40.15 2.11, 7.7 0.2, 0 0" stroke="none" stroke-width="0" fill="#121212" fill-rule="evenodd"></path><path d="M0 0 C1.46 -0.97, 6.26 -3.78, 8.78 -5.81 C11.3 -7.83, 13.61 -10.22, 15.14 -12.16 C16.67 -14.1, 15.69 -16.54, 17.96 -17.42 C20.24 -18.3, 26.49 -18.32, 28.79 -17.42 C31.09 -16.52, 30.5 -14.03, 31.76 -12.03 C33.02 -10.02, 33.95 -7.61, 36.36 -5.4 C38.77 -3.2, 52.27 0.31, 46.21 1.21 C40.15 2.11, 7.7 0.2, 0 0 M0 0 C1.46 -0.97, 6.26 -3.78, 8.78 -5.81 C11.3 -7.83, 13.61 -10.22, 15.14 -12.16 C16.67 -14.1, 15.69 -16.54, 17.96 -17.42 C20.24 -18.3, 26.49 -18.32, 28.79 -17.42 C31.09 -16.52, 30.5 -14.03, 31.76 -12.03 C33.02 -10.02, 33.95 -7.61, 36.36 -5.4 C38.77 -3.2, 52.27 0.31, 46.21 1.21 C40.15 2.11, 7.7 0.2, 0 0" stroke="#d3d3d3" stroke-width="1" fill="none"></path></g></g><mask></mask></svg>
