<?xml version="1.0" standalone="no"?>
<!DOCTYPE svg PUBLIC "-//W3C//DTD SVG 1.1//EN" "http://www.w3.org/Graphics/SVG/1.1/DTD/svg11.dtd">
<svg version="1.1" xmlns="http://www.w3.org/2000/svg" viewBox="0 0 329.7535326342654 369.5806261359434" width="329.7535326342654" height="369.5806261359434"><!-- svg-source:excalidraw --><metadata></metadata><defs><style class="style-fonts">
      </style></defs><g stroke-linecap="round" transform="translate(26.094684432097665 92.52022861506074) rotate(5.8031451922512876 78.98891949847587 3.0702943900604254)"><path d="M1.2 -0.52 C53.97 -1.09, 104.89 -1.2, 156.27 1.23 M-0.64 0.62 C44.67 1.65, 88.83 1.03, 158.86 0.76 M158.06 -0.49 C158.42 1.22, 157.97 3.23, 158.31 5.96 M158.24 -0.2 C157.94 1.48, 158.12 3.03, 158.24 6.39 M158.36 4.31 C100.52 6.13, 47.05 9.12, 1.33 6.2 M158.3 5.16 C97.89 5.23, 36.21 4.56, 0.58 6.74 M-0.48 6.75 C-0.03 4.21, 0.28 3.51, 0.23 -0.61 M0.13 6.05 C-0.15 4.19, 0 1.51, 0.21 -0.23" stroke="#d3d3d3" stroke-width="2" fill="none"></path></g><g stroke-linecap="round" transform="translate(55.51937338653988 130.70263235953541) rotate(5.8031451922512876 12.920822224837593 12.920822224837593)"><path d="M12.96 -0.02 C15.61 -0.11, 19.15 1.33, 21.32 3.19 C23.49 5.05, 25.6 8.41, 25.98 11.14 C26.37 13.87, 25.09 17.33, 23.63 19.58 C22.16 21.84, 19.79 23.75, 17.19 24.67 C14.59 25.59, 10.66 26.03, 8 25.11 C5.35 24.2, 2.51 21.55, 1.28 19.18 C0.05 16.81, 0.07 13.66, 0.63 10.89 C1.19 8.12, 2.51 4.35, 4.64 2.54 C6.77 0.74, 11.85 0.46, 13.42 0.07 C15 -0.32, 14.13 0.03, 14.11 0.18 M14.68 -0.1 C17.39 -0.02, 20.76 1.48, 22.58 3.48 C24.39 5.48, 25.41 9.04, 25.57 11.89 C25.72 14.75, 25.01 18.24, 23.49 20.61 C21.97 22.98, 19.21 25.55, 16.44 26.12 C13.67 26.69, 9.38 25.45, 6.85 24.01 C4.31 22.57, 2.3 20.01, 1.24 17.48 C0.18 14.94, -0.38 11.31, 0.47 8.8 C1.32 6.29, 3.9 3.77, 6.32 2.42 C8.75 1.07, 13.76 1.09, 15.04 0.7 C16.33 0.32, 14.15 0.06, 14.04 0.12" stroke="#d3d3d3" stroke-width="1" fill="none"></path></g><g stroke-linecap="round" transform="translate(60.43241288074546 135.0548385400639) rotate(5.8031451922512876 8.059522773908611 8.05952277390864)"><path d="M7.23 0.04 C8.94 -0.17, 11.58 0.67, 12.96 1.66 C14.33 2.64, 15.06 4.38, 15.48 5.93 C15.9 7.48, 16.17 9.37, 15.46 10.96 C14.75 12.56, 12.86 14.67, 11.23 15.49 C9.6 16.31, 7.23 16.25, 5.67 15.87 C4.11 15.48, 2.83 14.63, 1.87 13.17 C0.9 11.7, -0.19 8.86, -0.14 7.07 C-0.09 5.28, 0.86 3.63, 2.16 2.43 C3.46 1.24, 6.77 0.33, 7.67 -0.11 C8.58 -0.55, 7.55 -0.32, 7.59 -0.19 M7.87 -0.67 C9.44 -0.88, 11.31 0.11, 12.71 1.25 C14.1 2.39, 15.69 4.32, 16.22 6.18 C16.75 8.03, 16.76 10.89, 15.89 12.38 C15.02 13.87, 12.66 14.63, 10.99 15.12 C9.33 15.61, 7.51 15.82, 5.87 15.31 C4.23 14.81, 2.05 13.43, 1.15 12.11 C0.25 10.79, 0.13 8.94, 0.45 7.38 C0.78 5.81, 1.97 3.98, 3.1 2.72 C4.23 1.45, 6.45 0.24, 7.22 -0.24 C8 -0.72, 7.54 -0.36, 7.74 -0.17" stroke="#d3d3d3" stroke-width="1" fill="none"></path></g><g stroke-linecap="round"><g transform="translate(98.89964144035389 116.90249394575619) rotate(5.8031451922512876 24.18124138387236 0.26782645307490327)"><path d="M1 0.25 C14.96 -1.34, 27.4 1.82, 48.55 0.96 M-0.19 -0.57 C9.57 0.7, 20.53 0.49, 46.46 -0.1" stroke="#d3d3d3" stroke-width="2" fill="none"></path></g></g><mask></mask><g stroke-linecap="round"><g transform="translate(100.08097488366343 123.74270694356517) rotate(5.8031451922512876 22.024765979920744 -0.592080649482611)"><path d="M-1.5 -1.35 C17.68 1.07, 33.08 -2.34, 44.86 -0.15 M0.9 0.13 C13.56 -0.54, 25.77 0.7, 45.55 -0.14" stroke="#d3d3d3" stroke-width="2" fill="none"></path></g></g><mask></mask><g stroke-linecap="round"><g transform="translate(100.38169691866665 136.815934671648) rotate(5.8031451922512876 18.184659527826966 11.016258733953947)"><path d="M-1.37 0.96 C3.91 9.69, 5.83 16.83, 4.11 24.82 M0.04 0.04 C1.31 6.27, 3.77 12.11, 6.09 24.4 M6.53 24.41 C11.07 23.95, 19.45 22.85, 32.37 22.44 M5 24.47 C11.99 22.82, 18.49 21.61, 30.42 21.96 M30.2 22.19 C32.49 14.8, 36.17 7.53, 38.18 -2.79 M29.92 21.67 C32.5 14.41, 35.06 6.32, 37.05 -0.79 M36.99 -2.21 C25.86 0.92, 14.56 -2.26, -2.47 1.08 M38.84 -1.07 C21.64 -0.24, 6.13 -0.48, -2.34 -1.07" stroke="#d3d3d3" stroke-width="2" fill="none"></path></g></g><mask></mask><g stroke-linecap="round" transform="translate(108.3127107546261 140.83236825963482) rotate(5.8031451922512876 2.1747918596261115 1.5351471950302198)"><path d="M2.23 -0.32 C2.68 -0.23, 3.37 0.39, 3.76 0.66 C4.15 0.93, 4.48 1.06, 4.57 1.32 C4.66 1.58, 4.65 2, 4.32 2.23 C3.99 2.46, 3.14 2.57, 2.58 2.67 C2.03 2.78, 1.4 2.91, 0.98 2.86 C0.57 2.81, 0.26 2.6, 0.07 2.37 C-0.11 2.15, -0.25 1.89, -0.12 1.51 C0 1.13, 0.36 0.35, 0.81 0.08 C1.26 -0.2, 2.27 -0.19, 2.57 -0.15 C2.87 -0.12, 2.67 0.28, 2.58 0.29 M2.41 0.41 C2.77 0.46, 3.3 0.67, 3.64 0.9 C3.97 1.13, 4.29 1.55, 4.41 1.77 C4.53 1.99, 4.67 2.04, 4.36 2.21 C4.04 2.38, 2.96 2.66, 2.53 2.78 C2.09 2.9, 2.11 3.08, 1.74 2.91 C1.38 2.74, 0.58 2, 0.35 1.77 C0.12 1.53, 0.22 1.83, 0.36 1.52 C0.51 1.22, 0.91 0.13, 1.22 -0.04 C1.54 -0.21, 2.04 0.43, 2.25 0.49 C2.47 0.55, 2.5 0.31, 2.5 0.31" stroke="#d3d3d3" stroke-width="2" fill="none"></path></g><g stroke-linecap="round"><g transform="translate(32.14601036312774 101.59549838484435) rotate(5.8031451922512876 67.77490608257733 31.864281098642195)"><path d="M-2.54 3.96 C47.81 -1.41, 102.76 -1.58, 138.86 -4.82 M-0.83 0.18 C42.7 0.93, 86.7 0.18, 137.48 -2.9 M137.81 -3.47 C131.12 13.02, 128.8 31.39, 115.53 64.94 M136.35 -0.97 C127.7 23.51, 123.41 49.03, 118.82 63.18 M118.43 61.39 C79.35 63.04, 45.86 67.51, 9.17 68.55 M116.14 63.68 C87.86 65.85, 58.54 65.62, 12.89 64.27 M15.22 68.11 C7.53 37.3, 6.44 13.79, -3.31 -2.96 M14.72 65.29 C7.99 42.27, 3.13 17.16, 0.1 0.18" stroke="#d3d3d3" stroke-width="2" fill="none"></path></g></g><mask></mask><g stroke-linecap="round"><g transform="translate(39.26005733680722 133.58852063863534) rotate(5.8031451922512876 -0.06769733993678528 11.527901180965955)"><path d="M0.1 0.2 C-0.68 0.36, -1.94 0.27, -3.74 0.26 M-0.05 0.14 C-0.98 0.28, -1.93 0.19, -3.54 0.42 M-4.68 2.16 C-3.12 7.59, -1.52 17.98, 0.26 20.9 M-3.95 1.48 C-3.31 8.72, -2.38 15.46, -1.26 22.25 M-0.79 22.92 C1.6 21.03, 3.25 20.28, 4.03 19.63 M-0.74 22.72 C0.53 21.87, 1.79 21.2, 4.16 19.24 M2.73 20.23 C2.17 10.9, 0.69 6.95, 0.29 0.73 M4.55 18.66 C2.74 11.99, 2.18 5.43, 1.88 0.73" stroke="#d3d3d3" stroke-width="2" fill="none"></path></g></g><mask></mask><g stroke-linecap="round"><g transform="translate(26.974104795827316 134.30177987912057) rotate(5.8031451922512876 4.39857446240751 3.81647905867662)"><path d="M0.45 0.19 C0.81 2.24, 1.04 5.54, 1.34 7.63 M0.2 0 C0.43 1.71, 0.59 3.13, 1.66 7.15 M1.65 7.17 C3.99 6.58, 5.72 6.6, 8.6 5.85 M1.81 7.12 C3.76 6.88, 5.66 6.46, 8.26 5.87 M8.36 5.95 C8.47 4.97, 8.15 4.22, 8.34 2.26 M8.2 5.9 C8.27 5.18, 8.38 4.33, 8.33 2.4 M8.14 2.93 C5.55 2.28, 3.31 1.5, 0.96 0.64 M8.08 2.26 C5.91 2.15, 3.33 1.46, 0.8 1.04" stroke="#d3d3d3" stroke-width="2" fill="none"></path></g></g><mask></mask><g stroke-linecap="round"><g transform="translate(152.49439762269503 161.6185983611437) rotate(5.8031451922512876 6.389078457561254 -13.459389299249267)"><path d="M0.11 -0.46 C2.66 -0.8, 6.53 -0.72, 8.47 -0.78 M-0.33 -0.22 C2.86 -0.28, 6.01 -0.81, 7.78 -1.08 M7.44 -0.97 C9.87 -5.94, 9.49 -10.4, 13.18 -27.62 M8.21 -0.98 C9.26 -9.27, 11.82 -18.13, 12.65 -27.43 M11.76 -26.84 C10.63 -26.64, 9.65 -25.78, 6.77 -25.05 M12.28 -26.6 C10.42 -25.77, 8.46 -25.26, 7.03 -24.68 M5.61 -26.14 C4.1 -17.22, 3.38 -10.79, -0.07 0.68 M7.08 -24.41 C6.31 -19.29, 3.99 -14.46, -0.4 0.7" stroke="#d3d3d3" stroke-width="2" fill="none"></path></g></g><mask></mask><g stroke-linecap="round"><g transform="translate(164.92971077050515 139.00947775107986) rotate(5.8031451922512876 13.171146378294452 11.12981716396908)"><path d="M0 0 C9.86 -3.73, 18.12 -10.39, 30.19 -15.35 M0 0 C10.89 -6.48, 23.03 -11.4, 30.19 -15.35 M30.19 -15.35 C30.54 -1.41, 27.96 17.48, 26.35 37.61 M30.19 -15.35 C28.24 1.73, 27.3 21.76, 26.35 37.61 M26.35 37.61 C16.77 33.26, 3.85 27.87, -3.84 22.26 M26.35 37.61 C17.7 33.41, 10 29.7, -3.84 22.26 M-3.84 22.26 C-4.13 13.65, -2.97 6.59, 0 0 M-3.84 22.26 C-2.7 14.19, -1.93 6.22, 0 0" stroke="#d3d3d3" stroke-width="2" fill="none"></path></g></g><mask></mask><g stroke-linecap="round" transform="translate(10 36.401426527945716) rotate(5.8031451922512876 35.05252761985662 35.05252761985662)"><path d="M30.45 0.02 C36.74 -1.43, 44.74 0.96, 50.69 4.4 C56.64 7.84, 62.98 14.43, 66.17 20.66 C69.35 26.89, 70.78 35.23, 69.78 41.78 C68.78 48.34, 65.03 55.31, 60.16 60 C55.29 64.69, 47.43 68.87, 40.58 69.91 C33.72 70.95, 25.15 69.37, 19.05 66.25 C12.95 63.13, 7.05 57.44, 3.97 51.21 C0.9 44.98, -0.62 35.92, 0.6 28.87 C1.82 21.82, 5.61 13.71, 11.32 8.91 C17.04 4.11, 30.31 1.27, 34.88 0.07 C39.46 -1.12, 38.86 1.03, 38.76 1.75 M45.8 1.01 C52.13 2.4, 59.24 7.63, 63.08 13.12 C66.92 18.62, 68.54 26.85, 68.84 33.97 C69.14 41.09, 68.65 50.18, 64.87 55.84 C61.1 61.51, 52.98 65.98, 46.18 67.99 C39.37 69.99, 30.56 69.54, 24.04 67.87 C17.52 66.2, 10.91 63.26, 7.03 57.99 C3.15 52.72, 0.82 43.24, 0.78 36.25 C0.74 29.26, 2.88 21.83, 6.81 16.05 C10.75 10.28, 18.23 4.16, 24.41 1.58 C30.59 -1, 40.81 0.61, 43.89 0.57 C46.97 0.52, 42.96 0.71, 42.9 1.3" stroke="none" stroke-width="0" fill="#121212"></path><path d="M22.06 3.56 C27.66 0.85, 35.69 0.23, 42.41 1.6 C49.13 2.96, 57.89 6.83, 62.37 11.75 C66.85 16.68, 68.92 24.27, 69.28 31.13 C69.64 37.98, 67.86 46.88, 64.52 52.9 C61.19 58.91, 55.47 64.49, 49.27 67.22 C43.07 69.95, 34 70.94, 27.32 69.28 C20.64 67.63, 13.65 62.56, 9.19 57.32 C4.73 52.08, 1.42 44.73, 0.57 37.85 C-0.28 30.98, -0.19 22, 4.09 16.05 C8.36 10.1, 21.67 4.78, 26.24 2.17 C30.8 -0.43, 31.49 0.06, 31.49 0.4 M43 1.62 C49.26 2.16, 54.72 5.45, 59.2 10.29 C63.68 15.12, 68.66 23.7, 69.87 30.63 C71.09 37.55, 69.53 45.74, 66.48 51.82 C63.42 57.89, 57.78 64.03, 51.53 67.08 C45.29 70.13, 36.02 71.63, 29.01 70.11 C22 68.6, 14.16 63.03, 9.48 58.01 C4.8 53, 1.77 46.56, 0.93 40.01 C0.09 33.47, 1.46 24.64, 4.44 18.76 C7.42 12.88, 12.45 7.54, 18.79 4.75 C25.14 1.96, 38.65 2.54, 42.5 2.01 C46.35 1.48, 42.23 1.27, 41.9 1.55" stroke="#d3d3d3" stroke-width="2" fill="none"></path></g><g stroke-linecap="round" transform="translate(40.949114395998095 44.054241965860854) rotate(5.8031451922512876 7.419878109312776 7.419878109312691)"><path d="M8.91 0.49 C10.32 0.63, 11.92 1.11, 12.83 2.19 C13.74 3.28, 14.32 5.32, 14.36 7.01 C14.4 8.71, 13.98 11.08, 13.05 12.38 C12.12 13.68, 10.31 14.51, 8.78 14.82 C7.25 15.13, 5.32 14.99, 3.88 14.24 C2.45 13.49, 0.76 11.93, 0.16 10.31 C-0.43 8.7, -0.18 6.06, 0.32 4.53 C0.81 3.01, 1.67 1.85, 3.15 1.16 C4.63 0.48, 8.32 0.61, 9.22 0.41 C10.12 0.21, 8.7 -0.16, 8.57 -0.06 M7.99 -0.67 C9.4 -0.87, 10.76 0.61, 11.89 1.8 C13.02 3, 14.46 4.83, 14.77 6.52 C15.09 8.2, 14.58 10.56, 13.8 11.91 C13.02 13.26, 11.53 14.22, 10.08 14.62 C8.64 15.02, 6.74 14.86, 5.13 14.32 C3.52 13.79, 1.2 12.76, 0.41 11.4 C-0.39 10.03, -0.07 7.87, 0.35 6.15 C0.78 4.43, 1.65 2.02, 2.95 1.08 C4.25 0.14, 7.29 0.6, 8.16 0.49 C9.04 0.38, 8.28 0.39, 8.18 0.41" stroke="#d3d3d3" stroke-width="2" fill="none"></path></g><g stroke-linecap="round" transform="translate(58.411992384379346 57.16641657679952) rotate(5.8031451922512876 7.419878109312776 7.419878109312691)"><path d="M7.08 0.28 C8.6 0.2, 10.95 1.03, 12.3 2.01 C13.65 2.99, 14.87 4.59, 15.19 6.17 C15.51 7.75, 15.08 10.16, 14.25 11.5 C13.41 12.83, 11.69 13.73, 10.18 14.19 C8.67 14.65, 6.71 14.79, 5.19 14.25 C3.68 13.71, 2.02 12.32, 1.11 10.96 C0.2 9.61, -0.59 7.6, -0.28 6.12 C0.03 4.65, 1.63 3.12, 2.96 2.11 C4.29 1.09, 6.85 0.41, 7.7 0.04 C8.54 -0.32, 8 -0.26, 8.02 -0.07 M8.59 0.8 C10.06 0.76, 11.59 1.12, 12.57 2.04 C13.55 2.96, 14.39 4.68, 14.46 6.32 C14.52 7.96, 13.93 10.39, 12.98 11.86 C12.03 13.33, 10.33 14.75, 8.76 15.14 C7.19 15.53, 5.05 14.93, 3.57 14.18 C2.08 13.43, 0.32 12.02, -0.14 10.64 C-0.61 9.25, 0.12 7.37, 0.78 5.87 C1.43 4.36, 2.62 2.65, 3.8 1.6 C4.98 0.54, 7.1 -0.16, 7.86 -0.45 C8.61 -0.74, 8.33 -0.24, 8.34 -0.14" stroke="#d3d3d3" stroke-width="2" fill="none"></path></g><g stroke-linecap="round" transform="translate(54.55394875610932 77.62721495905711) rotate(5.8031451922512876 7.419878109312776 7.419878109312691)"><path d="M8.42 0.51 C9.99 0.65, 12.02 1.67, 13.14 2.8 C14.26 3.92, 15.08 5.71, 15.13 7.25 C15.19 8.8, 14.61 10.85, 13.47 12.06 C12.33 13.28, 10.01 14.27, 8.3 14.54 C6.59 14.8, 4.5 14.48, 3.2 13.64 C1.89 12.81, 0.87 11, 0.48 9.53 C0.1 8.05, 0.29 6.28, 0.9 4.8 C1.51 3.32, 2.75 1.39, 4.14 0.65 C5.53 -0.08, 8.37 0.37, 9.26 0.37 C10.14 0.37, 9.42 0.48, 9.44 0.65 M8.93 0.47 C10.41 0.52, 11.96 1.76, 12.87 2.85 C13.78 3.94, 14.28 5.5, 14.38 7 C14.49 8.5, 14.31 10.65, 13.49 11.87 C12.67 13.09, 11.14 13.9, 9.47 14.31 C7.79 14.72, 4.82 15.04, 3.45 14.32 C2.09 13.61, 1.8 11.64, 1.27 10.03 C0.73 8.41, 0 6.05, 0.26 4.66 C0.52 3.28, 1.4 2.42, 2.82 1.71 C4.23 1, 7.94 0.59, 8.75 0.38 C9.56 0.18, 7.78 0.47, 7.69 0.49" stroke="#d3d3d3" stroke-width="2" fill="none"></path></g><g stroke-linecap="round" transform="translate(33.91244152936656 86.09524641859906) rotate(5.8031451922512876 7.419878109312776 7.419878109312691)"><path d="M9.53 0.38 C10.94 0.69, 12.32 1.65, 13.14 2.88 C13.96 4.11, 14.61 6.09, 14.47 7.75 C14.32 9.41, 13.34 11.67, 12.28 12.86 C11.22 14.05, 9.61 14.77, 8.12 14.89 C6.62 15.01, 4.66 14.57, 3.3 13.59 C1.93 12.61, 0.42 10.52, -0.08 9.02 C-0.58 7.52, -0.43 5.95, 0.28 4.59 C0.99 3.23, 2.61 1.67, 4.18 0.88 C5.74 0.09, 8.86 0, 9.68 -0.14 C10.49 -0.28, 9.17 -0.18, 9.06 0.02 M9.16 0.49 C10.76 0.67, 12.75 1.09, 13.81 2.34 C14.88 3.58, 15.65 6.22, 15.55 7.97 C15.44 9.73, 14.3 11.75, 13.19 12.86 C12.08 13.97, 10.61 14.54, 8.88 14.63 C7.16 14.72, 4.28 14.3, 2.83 13.38 C1.38 12.46, 0.56 10.47, 0.21 9.13 C-0.14 7.79, 0.04 6.78, 0.74 5.36 C1.44 3.93, 2.92 1.47, 4.39 0.58 C5.86 -0.32, 8.9 0.07, 9.57 -0.02 C10.23 -0.11, 8.46 -0.12, 8.39 0.04" stroke="#d3d3d3" stroke-width="2" fill="none"></path></g><g stroke-linecap="round" transform="translate(17.255866169495448 70.53656766394707) rotate(5.8031451922512876 7.419878109312776 7.419878109312691)"><path d="M6.39 0.27 C7.89 0.02, 10.59 0.33, 11.95 1.26 C13.32 2.19, 14.29 4.29, 14.59 5.85 C14.89 7.4, 14.39 9.25, 13.76 10.59 C13.14 11.92, 12.18 13.22, 10.83 13.87 C9.49 14.51, 7.29 14.89, 5.71 14.47 C4.13 14.05, 2.24 12.73, 1.35 11.36 C0.47 10, 0.2 7.83, 0.4 6.27 C0.6 4.71, 1.42 3.08, 2.55 2.02 C3.68 0.96, 6.5 0.32, 7.21 -0.07 C7.91 -0.46, 6.76 -0.39, 6.79 -0.31 M7.08 -0.27 C8.4 -0.69, 9.89 -0.38, 11.09 0.64 C12.3 1.66, 13.77 4.22, 14.31 5.86 C14.86 7.49, 14.88 9.03, 14.37 10.44 C13.85 11.84, 12.69 13.7, 11.24 14.28 C9.79 14.87, 7.19 14.44, 5.68 13.92 C4.16 13.41, 3.05 12.34, 2.13 11.19 C1.21 10.04, 0.23 8.43, 0.15 7.01 C0.07 5.59, 0.66 3.85, 1.66 2.65 C2.65 1.46, 5.26 0.19, 6.14 -0.17 C7.01 -0.53, 6.71 0.33, 6.91 0.49" stroke="#d3d3d3" stroke-width="2" fill="none"></path></g><g stroke-linecap="round" transform="translate(21.07896245575921 48.31529497866052) rotate(5.8031451922512876 7.419878109312776 7.419878109312691)"><path d="M5.69 0.4 C7.09 -0.02, 9.19 0.02, 10.65 0.78 C12.12 1.53, 13.8 3.43, 14.5 4.94 C15.2 6.44, 15.39 8.4, 14.84 9.82 C14.29 11.23, 12.66 12.61, 11.19 13.43 C9.71 14.25, 7.62 14.84, 5.99 14.74 C4.37 14.63, 2.38 13.97, 1.43 12.8 C0.48 11.63, 0.27 9.45, 0.27 7.73 C0.27 6, 0.34 3.67, 1.42 2.44 C2.5 1.2, 5.96 0.73, 6.74 0.32 C7.53 -0.09, 6.18 -0.07, 6.13 -0.02 M7.7 0.21 C9.38 0.2, 11.76 1.44, 12.95 2.56 C14.13 3.67, 14.66 5.37, 14.83 6.9 C14.99 8.42, 14.92 10.39, 13.93 11.73 C12.95 13.07, 10.55 14.43, 8.9 14.96 C7.25 15.48, 5.42 15.69, 4.02 14.89 C2.61 14.09, 1.12 11.72, 0.48 10.17 C-0.17 8.62, -0.26 7.02, 0.16 5.6 C0.58 4.18, 1.56 2.45, 3 1.63 C4.43 0.82, 7.89 0.88, 8.77 0.71 C9.65 0.54, 8.3 0.56, 8.26 0.62" stroke="#d3d3d3" stroke-width="2" fill="none"></path></g><g stroke-linecap="round" transform="translate(41.686259100862344 69.17513653093846) rotate(5.8031451922512876 3.5820101217371985 2.686507591302899)"><path d="M4.16 0.09 C4.89 0.19, 5.54 0.76, 6.01 1.2 C6.49 1.64, 6.89 2.2, 6.99 2.74 C7.09 3.27, 7.11 3.99, 6.62 4.41 C6.13 4.84, 4.81 5.23, 4.05 5.31 C3.28 5.39, 2.65 5.18, 2.04 4.89 C1.42 4.6, 0.68 4.06, 0.35 3.56 C0.02 3.07, -0.17 2.5, 0.07 1.92 C0.3 1.34, 1.04 0.41, 1.75 0.11 C2.45 -0.2, 3.9 0.08, 4.32 0.08 C4.73 0.08, 4.29 0.04, 4.21 0.1 M3.79 -0.42 C4.49 -0.45, 5.36 0.19, 5.97 0.67 C6.59 1.15, 7.3 1.96, 7.49 2.48 C7.67 2.99, 7.47 3.24, 7.08 3.76 C6.68 4.28, 5.78 5.38, 5.1 5.6 C4.41 5.82, 3.69 5.3, 2.96 5.08 C2.23 4.87, 1.2 4.71, 0.7 4.31 C0.2 3.92, -0.17 3.34, -0.03 2.71 C0.1 2.09, 0.91 1.04, 1.53 0.56 C2.15 0.08, 3.42 -0.09, 3.67 -0.15 C3.92 -0.2, 3.04 0.1, 3.05 0.25" stroke="#d3d3d3" stroke-width="2" fill="none"></path></g><g stroke-linecap="round" transform="translate(104.92028809016301 10) rotate(32.208332565429195 43.239979326684534 43.239979326684534)"><path d="M27.51 2.51 C34.1 -0.99, 43.64 -1.21, 51.29 0.26 C58.95 1.74, 67.91 6.06, 73.44 11.37 C78.97 16.67, 82.83 24.37, 84.48 32.09 C86.12 39.8, 85.55 50.28, 83.32 57.68 C81.08 65.07, 76.88 71.87, 71.06 76.48 C65.24 81.09, 56.12 84.48, 48.41 85.33 C40.71 86.17, 31.93 84.96, 24.83 81.55 C17.73 78.14, 9.79 71.64, 5.8 64.87 C1.82 58.1, 0.61 48.64, 0.92 40.94 C1.23 33.23, 2.98 24.96, 7.66 18.64 C12.34 12.31, 25.17 5.54, 28.99 2.99 C32.82 0.43, 30.4 2.61, 30.59 3.33 M46.43 -0.84 C54.13 -0.81, 64.35 3.44, 70.59 8.3 C76.82 13.15, 81.44 20.87, 83.85 28.3 C86.25 35.72, 86.47 45.22, 85 52.84 C83.53 60.46, 80.4 68.56, 75.01 73.99 C69.61 79.42, 60.43 83.77, 52.62 85.42 C44.81 87.07, 35.62 86.76, 28.14 83.89 C20.66 81.01, 12.44 74.29, 7.73 68.18 C3.02 62.06, 0.18 55.01, -0.12 47.21 C-0.42 39.42, 2.23 28.17, 5.95 21.4 C9.68 14.63, 15.24 10.23, 22.25 6.58 C29.25 2.92, 44 0.49, 48 -0.54 C51.99 -1.56, 46.68 -0.44, 46.21 0.44" stroke="#d3d3d3" stroke-width="2" fill="none"></path></g><g stroke-linecap="round" transform="translate(153.63234222426763 23.831067867285014) rotate(32.208332565429195 9.152988324626676 9.15298832462662)"><path d="M9.74 -0.2 C11.6 -0.19, 14.34 0.97, 15.7 2.29 C17.06 3.61, 17.78 5.7, 17.9 7.73 C18.01 9.75, 17.34 12.8, 16.4 14.46 C15.46 16.12, 14 17.22, 12.25 17.67 C10.51 18.12, 7.72 17.91, 5.93 17.16 C4.13 16.42, 2.48 14.91, 1.5 13.21 C0.53 11.51, -0.34 8.91, 0.08 6.96 C0.5 5.01, 2.39 2.66, 4.02 1.51 C5.64 0.36, 8.76 0.23, 9.84 0.05 C10.91 -0.13, 10.45 0.23, 10.45 0.42 M9.58 -0.43 C11.37 -0.53, 13.9 0.66, 15.45 2.06 C17 3.46, 18.68 5.91, 18.9 7.94 C19.12 9.97, 18.01 12.56, 16.78 14.24 C15.54 15.93, 13.26 17.51, 11.48 18.06 C9.71 18.61, 7.85 18.37, 6.12 17.55 C4.39 16.74, 2.08 14.89, 1.12 13.14 C0.16 11.4, -0.02 9.04, 0.35 7.07 C0.72 5.11, 1.8 2.44, 3.35 1.35 C4.9 0.26, 8.53 0.82, 9.65 0.55 C10.76 0.28, 10.06 -0.46, 10.03 -0.28" stroke="#d3d3d3" stroke-width="2" fill="none"></path></g><g stroke-linecap="round" transform="translate(165.73348819520288 47.89842831992263) rotate(32.208332565429195 9.152988324626676 9.15298832462662)"><path d="M7.73 0.07 C9.44 -0.41, 11.63 -0.12, 13.21 0.9 C14.79 1.92, 16.37 4.39, 17.2 6.22 C18.02 8.05, 18.66 10.15, 18.16 11.87 C17.66 13.59, 15.83 15.49, 14.18 16.52 C12.53 17.54, 10.25 18.28, 8.24 18.02 C6.24 17.76, 3.45 16.48, 2.15 14.97 C0.85 13.47, 0.48 10.9, 0.45 8.98 C0.42 7.06, 0.69 4.91, 1.98 3.46 C3.27 2, 7.1 0.77, 8.2 0.26 C9.3 -0.24, 8.58 0.28, 8.57 0.45 M9.46 -0.48 C11.46 -0.48, 14.48 0.75, 15.94 2.15 C17.41 3.55, 18.11 5.91, 18.24 7.91 C18.36 9.9, 17.61 12.48, 16.67 14.14 C15.74 15.81, 14.41 17.32, 12.62 17.89 C10.82 18.46, 7.79 18.3, 5.88 17.58 C3.97 16.85, 2.16 15.32, 1.15 13.53 C0.14 11.73, -0.57 8.65, -0.19 6.81 C0.19 4.96, 1.77 3.67, 3.43 2.46 C5.09 1.24, 8.81 -0.21, 9.79 -0.48 C10.76 -0.74, 9.21 0.7, 9.28 0.88" stroke="#d3d3d3" stroke-width="2" fill="none"></path></g><g stroke-linecap="round" transform="translate(150.24619286073812 68.38865348078647) rotate(32.208332565429195 9.152988324626676 9.15298832462662)"><path d="M7.86 -0.17 C9.56 -0.4, 12.05 0.87, 13.79 1.96 C15.53 3.06, 17.62 4.68, 18.29 6.42 C18.95 8.16, 18.56 10.63, 17.78 12.42 C17 14.22, 15.46 16.3, 13.63 17.2 C11.8 18.09, 8.72 18.32, 6.81 17.81 C4.91 17.3, 3.33 15.69, 2.2 14.15 C1.06 12.6, -0.11 10.4, 0 8.54 C0.11 6.68, 1.43 4.36, 2.86 2.98 C4.29 1.6, 7.57 0.68, 8.59 0.26 C9.6 -0.15, 8.93 0.39, 8.94 0.48 M8.42 -0.11 C10.26 -0.43, 12.4 0.26, 13.93 1.34 C15.46 2.41, 16.86 4.48, 17.6 6.35 C18.33 8.21, 18.98 10.71, 18.34 12.51 C17.69 14.31, 15.54 16.18, 13.72 17.13 C11.9 18.08, 9.46 18.67, 7.44 18.22 C5.42 17.78, 2.86 15.91, 1.61 14.45 C0.35 12.99, -0.27 11.44, -0.11 9.47 C0.05 7.5, 1.29 4.07, 2.57 2.62 C3.85 1.18, 6.57 1.24, 7.57 0.79 C8.56 0.35, 8.51 -0.04, 8.55 -0.04" stroke="#d3d3d3" stroke-width="2" fill="none"></path></g><g stroke-linecap="round" transform="translate(122.79432488644034 66.42104976272813) rotate(32.208332565429195 9.152988324626676 9.15298832462662)"><path d="M8.19 0.41 C10.16 0.2, 13.31 0.6, 15 1.63 C16.69 2.67, 17.87 4.73, 18.33 6.64 C18.8 8.56, 18.73 11.34, 17.77 13.12 C16.82 14.91, 14.41 16.62, 12.6 17.35 C10.79 18.08, 8.78 18.05, 6.93 17.52 C5.07 16.98, 2.55 15.71, 1.45 14.16 C0.36 12.61, 0.11 10.13, 0.36 8.22 C0.62 6.31, 1.52 4.02, 3 2.7 C4.47 1.38, 8.13 0.73, 9.22 0.29 C10.32 -0.14, 9.65 -0.02, 9.58 0.08 M7.7 0.12 C9.38 -0.24, 11.82 0.4, 13.61 1.41 C15.4 2.42, 17.74 4.34, 18.45 6.16 C19.17 7.99, 18.68 10.5, 17.89 12.35 C17.1 14.19, 15.52 16.34, 13.71 17.24 C11.9 18.14, 9 18.02, 7.04 17.73 C5.09 17.43, 3.08 17, 1.95 15.47 C0.83 13.94, 0.28 10.48, 0.29 8.55 C0.3 6.61, 0.65 5.32, 2.01 3.86 C3.37 2.4, 7.5 0.43, 8.43 -0.21 C9.37 -0.85, 7.79 -0.2, 7.6 0.03" stroke="#d3d3d3" stroke-width="2" fill="none"></path></g><g stroke-linecap="round" transform="translate(112.9261777510892 40.092928029403026) rotate(32.208332565429195 9.152988324626676 9.15298832462662)"><path d="M8.48 -0.15 C10.45 -0.62, 12.84 -0.01, 14.49 1.09 C16.15 2.18, 17.92 4.48, 18.4 6.4 C18.89 8.32, 18.19 10.84, 17.4 12.61 C16.61 14.37, 15.4 16.06, 13.66 16.97 C11.92 17.88, 8.89 18.43, 6.96 18.07 C5.03 17.7, 3.21 16.3, 2.07 14.75 C0.93 13.21, 0.01 10.74, 0.11 8.8 C0.21 6.86, 1.28 4.6, 2.67 3.12 C4.06 1.64, 7.5 0.41, 8.44 -0.08 C9.38 -0.57, 8.35 -0.07, 8.3 0.18 M8.26 0.14 C10.22 -0.1, 13.52 0.64, 15.17 1.76 C16.83 2.88, 17.82 4.95, 18.21 6.86 C18.59 8.78, 18.43 11.54, 17.48 13.24 C16.53 14.95, 14.32 16.21, 12.5 17.09 C10.68 17.96, 8.31 19.04, 6.54 18.49 C4.77 17.94, 2.99 15.4, 1.87 13.81 C0.75 12.21, -0.44 10.83, -0.16 8.91 C0.11 6.98, 2.1 3.78, 3.53 2.26 C4.95 0.73, 7.63 0.07, 8.38 -0.25 C9.12 -0.57, 7.98 0.09, 8 0.34" stroke="#d3d3d3" stroke-width="2" fill="none"></path></g><g stroke-linecap="round" transform="translate(129.3406419107323 17.63841918355206) rotate(32.208332565429195 9.152988324626676 9.15298832462662)"><path d="M11.24 -0.27 C13.11 -0.01, 15.62 1.7, 16.78 3.27 C17.93 4.84, 18.23 7.24, 18.17 9.16 C18.12 11.09, 17.74 13.32, 16.46 14.83 C15.18 16.34, 12.45 17.84, 10.49 18.22 C8.52 18.61, 6.32 18.13, 4.67 17.14 C3.02 16.15, 1.21 14.14, 0.56 12.3 C-0.09 10.46, 0.05 7.98, 0.77 6.09 C1.48 4.21, 3.18 1.98, 4.86 1 C6.54 0.01, 9.82 0.22, 10.84 0.19 C11.85 0.17, 10.94 0.71, 10.93 0.86 M9.81 0.02 C11.75 -0.12, 13.81 0.82, 15.22 2.09 C16.63 3.36, 18.01 5.79, 18.26 7.67 C18.5 9.54, 17.7 11.54, 16.68 13.31 C15.67 15.08, 13.9 17.63, 12.17 18.29 C10.44 18.95, 8.17 17.92, 6.31 17.27 C4.45 16.62, 1.92 16.09, 1.01 14.41 C0.11 12.74, 0.53 9.32, 0.89 7.23 C1.25 5.14, 1.86 3.05, 3.16 1.86 C4.45 0.68, 7.67 0.36, 8.66 0.14 C9.64 -0.08, 8.95 0.34, 9.09 0.55" stroke="#d3d3d3" stroke-width="2" fill="none"></path></g><g stroke-linecap="round" transform="translate(143.75629656207093 50.49476861657263) rotate(32.208332565429195 4.41868401878537 3.314013014088985)"><path d="M4.42 -0.11 C5.27 -0.18, 6.17 0.09, 6.93 0.48 C7.69 0.88, 8.76 1.54, 9.01 2.25 C9.25 2.97, 8.81 4.08, 8.37 4.78 C7.94 5.48, 7.26 6.15, 6.41 6.46 C5.56 6.77, 4.19 6.84, 3.26 6.66 C2.33 6.47, 1.37 5.99, 0.84 5.36 C0.31 4.73, 0.02 3.63, 0.07 2.89 C0.13 2.15, 0.49 1.35, 1.15 0.91 C1.81 0.48, 3.51 0.43, 4.04 0.29 C4.56 0.15, 4.26 0.08, 4.3 0.07 M4.66 -0.03 C5.49 -0.05, 6.76 0.47, 7.41 0.9 C8.05 1.33, 8.41 1.8, 8.52 2.55 C8.64 3.3, 8.53 4.8, 8.11 5.4 C7.69 6, 6.92 5.89, 6.01 6.14 C5.1 6.38, 3.49 7.1, 2.66 6.85 C1.83 6.61, 1.47 5.41, 1.03 4.67 C0.59 3.94, -0.04 3.11, 0.01 2.47 C0.06 1.83, 0.59 1.18, 1.33 0.81 C2.08 0.44, 3.92 0.32, 4.49 0.24 C5.06 0.17, 4.74 0.27, 4.75 0.36" stroke="#d3d3d3" stroke-width="2" fill="none"></path></g><g stroke-linecap="round" transform="translate(69.52453984433964 116.52107991417353) rotate(0 5.8847309142825 5.500944115524945)"><path d="M6.76 -0.12 C7.84 -0.06, 9.31 1.14, 10.09 2 C10.86 2.85, 11.3 3.88, 11.4 5.02 C11.51 6.16, 11.41 7.79, 10.71 8.84 C10.01 9.89, 8.41 11.08, 7.19 11.31 C5.97 11.54, 4.52 10.85, 3.39 10.22 C2.27 9.58, 0.89 8.64, 0.44 7.51 C-0.02 6.37, 0.23 4.56, 0.67 3.4 C1.1 2.23, 2 1.02, 3.03 0.51 C4.06 0.01, 6.18 0.35, 6.84 0.37 C7.51 0.39, 6.94 0.49, 7.02 0.62 M5.44 -0.19 C6.68 -0.4, 8.65 0.78, 9.66 1.45 C10.68 2.13, 11.14 2.87, 11.53 3.86 C11.91 4.85, 12.61 6.22, 11.98 7.39 C11.35 8.56, 9.01 10.17, 7.76 10.87 C6.52 11.57, 5.56 11.91, 4.53 11.57 C3.5 11.24, 2.4 9.96, 1.6 8.84 C0.81 7.72, -0.37 6.13, -0.24 4.85 C-0.1 3.57, 1.37 1.94, 2.41 1.16 C3.44 0.37, 5.41 0.27, 5.97 0.13 C6.54 -0.01, 5.9 0.26, 5.79 0.34" stroke="#d3d3d3" stroke-width="1" fill="none"></path></g><g stroke-linecap="round"><g transform="translate(49.2801159236235 165.9017047094382) rotate(4.432734369570226 46.8536419679067 5.244783234062723)"><path d="M0 0 C-0.25 1.97, -1.81 6.31, -2.02 8.44 M0 0 C-0.47 2.54, -0.79 4.67, -2.02 8.44 M-2.02 8.44 C24.64 9.99, 54.47 10.18, 95.72 10.49 M-2.02 8.44 C27.8 10.65, 57.25 10.37, 95.72 10.49 M95.72 10.49 C94.13 6.16, 93.88 3.13, 93.37 1.79 M95.72 10.49 C95.37 8.25, 95 7, 93.37 1.79 M93.37 1.79 C61.34 0.4, 33.16 0.16, 0 0 M93.37 1.79 C70.14 1.44, 46.78 -0.02, 0 0" stroke="#d3d3d3" stroke-width="2" fill="none"></path></g></g><mask></mask><g stroke-linecap="round"><g transform="translate(62.73520650523983 174.62235869178699) rotate(0 31.89065730401046 5.325208130905267)"><path d="M0 0 C0.08 2.72, 1.6 6.06, 2.46 8.47 M0 0 C0.25 2.1, 1.57 4.59, 2.46 8.47 M2.46 8.47 C16.35 8.74, 30.65 10.65, 59.76 10.52 M2.46 8.47 C21.93 9.96, 42.5 11.04, 59.76 10.52 M59.76 10.52 C61.71 8.62, 61.62 6.14, 63.78 1.8 M59.76 10.52 C61.67 7.22, 63.15 4.25, 63.78 1.8 M63.78 1.8 C40.68 0.02, 16.08 0.05, 0 0 M63.78 1.8 C46.77 2.85, 32.3 0.54, 0 0" stroke="#d3d3d3" stroke-width="2" fill="none"></path></g></g><mask></mask><g stroke-linecap="round"><g transform="translate(86.52317636377052 185.09098795885654) rotate(0 0.2717694246591691 86.97546919303068)"><path d="M0 0 C-4.11 13.27, -8.43 25.48, -18.48 48.88 M0 0 C-6.59 17.46, -12.27 33.38, -18.48 48.88 M-18.48 48.88 C-29.52 79.58, -41.08 112.82, -54.35 157.15 M-18.48 48.88 C-28.33 75.88, -36.63 105.31, -54.35 157.15 M-54.35 157.15 C-52.63 158.35, -50.6 159.16, -48.01 160.28 M-54.35 157.15 C-52.11 158, -50.03 159.5, -48.01 160.28 M-48.01 160.28 C-36.88 121.93, -19.87 81.57, 3.08 18.47 M-48.01 160.28 C-31.22 118.49, -16.87 75.09, 3.08 18.47 M3.08 18.47 C1.94 66.63, -3.1 116.43, -3.26 173.92 M3.08 18.47 C2.28 54.9, -0.36 88.83, -3.26 173.92 M-3.26 173.92 C-1.74 174.2, 0.03 174.11, 3.44 174.49 M-3.26 173.92 C-0.54 174.02, 1.48 174.33, 3.44 174.49 M3.44 174.49 C6.79 133.64, 8.41 96.95, 11.96 19.61 M3.44 174.49 C6.36 131.13, 9.5 89.6, 11.96 19.61 M11.96 19.61 C19.44 58.95, 29.92 100.23, 48.74 169.37 M11.96 19.61 C19.08 56.7, 28.07 95.01, 48.74 169.37 M48.74 169.37 C50.87 169.13, 52.05 167.54, 54.9 166.53 M48.74 169.37 C50.91 168.02, 53.33 167, 54.9 166.53 M54.9 166.53 C41.66 100.73, 28.32 35.78, 20.11 1.14 M54.9 166.53 C46.57 129.03, 39.81 90.94, 20.11 1.14 M20.11 1.14 C13.63 -0.25, 6.52 -1.18, 0 0 M20.11 1.14 C13.81 0.13, 6.3 1.3, 0 0" stroke="#d3d3d3" stroke-width="2" fill="none"></path></g></g><mask></mask><g stroke-linecap="round"><g transform="translate(197.4534727635246 126.24367881603149) rotate(0 61.15002993537041 -23.28306579129162)"><path d="M0 0 C46.77 -17.67, 94.98 -37.77, 122.3 -46.57" stroke="#d3d3d3" stroke-width="1.5" fill="none" stroke-dasharray="1.5 7"></path></g></g><mask></mask><g stroke-linecap="round"><g transform="translate(191.84614294738412 179.4836581427159) rotate(0 51.93914676518898 26.865075913028804)"><path d="M0 0 C35.55 18.49, 72.95 37.55, 103.88 53.73" stroke="#d3d3d3" stroke-width="1.5" fill="none" stroke-dasharray="1.5 7"></path></g></g><mask></mask><g stroke-linecap="round"><g transform="translate(171.86768617968755 141.08343503465693) rotate(0 8.187451706827915 -2.430649725464505)"><path d="M0 0 C4.93 -1.46, 9.86 -2.93, 16.37 -4.86 M0 0 C4.06 -1.2, 8.12 -2.41, 16.37 -4.86" stroke="#d3d3d3" stroke-width="1" fill="none"></path></g></g><mask></mask><g stroke-linecap="round"><g transform="translate(179.28756428900033 135.71041985205116) rotate(0 5.8847309142825 -1.40721826211103)"><path d="M0 0 C3.58 -0.85, 7.15 -1.71, 11.77 -2.81 M0 0 C3.55 -0.85, 7.11 -1.7, 11.77 -2.81" stroke="#d3d3d3" stroke-width="1" fill="none"></path></g></g><mask></mask></svg>