<?xml version="1.0" standalone="no"?>
<!DOCTYPE svg PUBLIC "-//W3C//DTD SVG 1.1//EN" "http://www.w3.org/Graphics/SVG/1.1/DTD/svg11.dtd">
<svg version="1.1" xmlns="http://www.w3.org/2000/svg" viewBox="0 0 590.7456331829039 745.7050715939774" width="590.7456331829039" height="745.7050715939774"><!-- svg-source:excalidraw --><metadata></metadata><defs><style class="style-fonts">
      </style></defs><g stroke-linecap="round" transform="translate(408.49075911964474 196.54427566554557) rotate(300.2587888774563 21.68560471450337 20.041671900551876)"><path d="M22.81 0.25 C27.28 0.18, 33.24 2.45, 36.68 5.44 C40.13 8.42, 43.02 13.8, 43.48 18.17 C43.95 22.54, 42.08 28.13, 39.49 31.68 C36.89 35.22, 32.3 38.32, 27.91 39.42 C23.52 40.52, 17.35 40.01, 13.13 38.27 C8.92 36.54, 4.69 32.83, 2.6 29 C0.51 25.18, -0.54 19.57, 0.59 15.31 C1.72 11.05, 5.48 5.89, 9.39 3.44 C13.3 0.99, 21.47 1.05, 24.06 0.59 C26.64 0.13, 24.82 0.34, 24.88 0.67 M22.9 -0.65 C27.32 -0.63, 32.37 2.81, 35.65 5.72 C38.94 8.62, 41.92 12.56, 42.59 16.79 C43.26 21.03, 41.99 27.43, 39.67 31.14 C37.35 34.85, 33.09 37.73, 28.68 39.05 C24.26 40.38, 17.57 40.57, 13.19 39.07 C8.81 37.58, 4.61 33.97, 2.39 30.1 C0.17 26.22, -0.99 20, -0.1 15.83 C0.78 11.65, 3.97 7.74, 7.71 5.06 C11.44 2.37, 19.78 0.49, 22.31 -0.27 C24.85 -1.02, 22.93 0.16, 22.93 0.54" stroke="#d3d3d3" stroke-width="2" fill="none"></path></g><g stroke-linecap="round"><g transform="translate(446.61585364303437 211.85017837693147) rotate(300.2587888774563 -8.129483185975005 2.7399646045820987)"><path d="M0.15 -0.38 C-0.65 0.49, -1.92 5.1, -4.64 5.37 C-7.36 5.64, -14.18 1.87, -16.18 1.24 M-0.43 0.61 C-1.28 1.53, -2.18 5.66, -4.85 5.85 C-7.51 6.05, -14.45 2.69, -16.41 1.8" stroke="#d3d3d3" stroke-width="2" fill="none"></path></g></g><mask></mask><g stroke-linecap="round"><g transform="translate(432.17566727771055 204.8089260402361) rotate(300.2587888774563 -1.9700447633297244 -0.9027473199095652)"><path d="M0.29 -0.28 C-0.11 -0.59, -1.58 -2.25, -2.28 -2.15 C-2.99 -2.05, -3.71 -0.06, -3.93 0.3 M0 0.35 C-0.44 0.11, -1.78 -1.61, -2.49 -1.72 C-3.19 -1.83, -4.06 -0.64, -4.23 -0.3" stroke="#d3d3d3" stroke-width="2" fill="none"></path></g></g><mask></mask><g stroke-linecap="round"><g transform="translate(425.8948717956491 215.31163533169092) rotate(300.2587888774563 -1.8192643973825398 -1.0736039176545091)"><path d="M0.15 -0.05 C-0.33 -0.32, -1.94 -1.95, -2.57 -1.94 C-3.2 -1.93, -3.48 -0.36, -3.64 0.01 M-0.21 -0.38 C-0.77 -0.74, -2.32 -2.59, -2.91 -2.47 C-3.51 -2.36, -3.72 -0.02, -3.78 0.33" stroke="#d3d3d3" stroke-width="2" fill="none"></path></g></g><mask></mask><g stroke-linecap="round"><g transform="translate(286.39485410197085 512.7708195903951) rotate(32.9312054570197 122.32399417344004 -272.08906552474394)" fill-rule="evenodd"><path d="M118.22 -538.54 C118.22 -538.54, 118.22 -538.54, 118.22 -538.54 M118.22 -538.54 C118.22 -538.54, 118.22 -538.54, 118.22 -538.54 M95.33 -503.07 C112.53 -522.95, 129.12 -536.33, 140.23 -547.14 M98.07 -502.83 C110.29 -518.22, 118.85 -529.19, 136.78 -550.37 M80.75 -470.26 C102.74 -492.8, 124.8 -519.39, 142.46 -541.79 M80.82 -471.54 C94.94 -486.72, 111.59 -505.25, 145.48 -544.56 M80.95 -455.9 C107.37 -484.43, 125.54 -513.37, 150.83 -537.31 M78.99 -455.77 C91.43 -472.12, 107.05 -489.95, 149.64 -537.64 M64.5 -435.28 C88.3 -455.85, 112.3 -485.07, 155.69 -531.32 M67.27 -431.72 C98.75 -464.69, 127.95 -497.9, 154.49 -532.25 M52.98 -403.21 C85.95 -448.48, 127.41 -486.48, 162 -523.56 M49.95 -398.84 C87.65 -446.33, 126.97 -491.61, 157.88 -523.38 M46.65 -378.43 C91.11 -430.69, 137.74 -484.89, 163.3 -515.74 M46.63 -381.26 C84.55 -432.25, 125.76 -480.71, 162.29 -517.16 M41.82 -361.24 C84.7 -413.02, 118.88 -453.41, 170.46 -510.46 M39.43 -360.34 C63.43 -394.85, 93.52 -423.28, 167.45 -510.68 M33.55 -344.06 C83.93 -394.65, 131.15 -452.38, 171.04 -504.25 M31.87 -342.36 C70.87 -385.97, 106.28 -428.23, 171.59 -500.52 M22.53 -318.22 C70.22 -374.98, 119.22 -431.34, 173 -494.48 M24.31 -322.43 C80.51 -383.05, 136.84 -447.73, 175.1 -495.85 M24.11 -309.74 C77.6 -373.09, 134.79 -432.06, 178.43 -485.93 M22.91 -307.54 C58.27 -346.37, 93.77 -388.86, 180.8 -486.05 M22.29 -288.24 C57.95 -336.82, 91.12 -379.24, 182.1 -481.61 M17.97 -291.85 C74.92 -360.46, 131.49 -424.44, 183.52 -478.08 M15.97 -278.57 C59.18 -328.62, 99.43 -378.18, 190.54 -471.32 M15.91 -275.01 C83.99 -353.53, 150.65 -433.07, 188.01 -472.33 M13.48 -257.39 C50.97 -302.15, 89.18 -347.84, 192.17 -462.25 M13.3 -260.07 C54.85 -309.33, 97.25 -357.17, 191.65 -465.13 M7.95 -246.88 C57.46 -297.66, 105.23 -348.9, 194.83 -459.06 M10.88 -244.58 C55.85 -294.19, 98.2 -342.71, 194.79 -454.79 M6.52 -231.09 C53.45 -282.21, 98.66 -333.74, 198.84 -447.16 M9.31 -228.36 C82.94 -311.05, 153.26 -394.07, 199.48 -449.05 M10.62 -219.67 C87.43 -311.51, 166.03 -399.86, 204.74 -437.56 M8.41 -217.96 C57.17 -270.79, 106.73 -324.39, 202.94 -441.7 M8.91 -202.59 C75.54 -286.61, 149.15 -372.11, 208.35 -433.06 M6.82 -202.79 C70.06 -274.36, 130.14 -345.3, 204.7 -432.06 M7.23 -191.22 C73.25 -267.59, 133.2 -342.16, 209.8 -421.11 M5.31 -190.7 C58.37 -254.18, 113.97 -315.74, 207.82 -424.85 M5.64 -176.97 C59.9 -242.46, 115.03 -304.53, 210.49 -413.61 M3.25 -177.54 C47.01 -227.78, 91.95 -279.51, 213.02 -415.1 M3.15 -161.95 C56.25 -227.69, 114.61 -292.44, 218.73 -407.64 M2.92 -163.94 C77.65 -246.51, 149.48 -329.59, 217.7 -406.56 M-0.07 -143.98 C70.89 -229.96, 143.85 -315.27, 220.99 -397.63 M-0.84 -145.47 C59.23 -216.75, 121.63 -286.27, 220.66 -398 M-2.65 -131.91 C47.76 -194.22, 104.4 -252.16, 221.22 -388.28 M-1.27 -131.45 C53.86 -194.88, 108.25 -254.45, 223.28 -390.25 M-4.15 -119.02 C70.14 -203.79, 144.31 -291.11, 225.91 -381.15 M-2.37 -119.87 C77.06 -208.8, 155.67 -300.33, 223.76 -379.34 M-3.53 -105.25 C63.35 -188.51, 132.12 -267.23, 226.74 -369.71 M-3.76 -107.15 C82.71 -201.36, 165.61 -296.58, 227.25 -371.71 M-3.14 -93.64 C71.46 -182.86, 147.69 -269.7, 228.03 -361.56 M-3.74 -94.6 C50.87 -158.95, 105.8 -222.16, 228.27 -359.63 M-1.41 -82.56 C65.79 -155.75, 133.61 -232.01, 226.56 -351.06 M-2.32 -81.07 C50.4 -142.86, 102.31 -203.82, 228.77 -348.26 M-3.55 -72.61 C42.63 -129.18, 88.65 -184.4, 232.48 -339.84 M-2.92 -71.81 C57.42 -138.32, 116.21 -206.45, 230.28 -337.47 M-2.68 -60.48 C52.24 -128.6, 113.16 -197.6, 229.05 -329.48 M-1.26 -59.94 C88.69 -161.18, 177.6 -262.83, 231 -327.05 M-1.45 -45.08 C76.08 -142.53, 155.45 -237.34, 235.22 -318.5 M-0.52 -47.47 C55.81 -115.6, 113.89 -183.51, 231.79 -316.68 M0.38 -35.16 C44.14 -94.72, 93.4 -146.75, 233.37 -308.22 M-1.58 -35.48 C67.81 -114.99, 134.78 -192.66, 234.42 -306.16 M0.55 -25.51 C73.78 -113.03, 150.55 -202.94, 238 -296.14 M0.4 -25.29 C88.8 -128, 176.87 -229.07, 236.03 -296.86 M1.35 -9.86 C55.13 -72.71, 113.37 -139.57, 239.9 -287.57 M0.2 -11.41 C58.8 -80.03, 116.75 -146.72, 238.3 -285.06 M-1.36 -1.97 C58.44 -61.62, 114.95 -126.8, 241.27 -275.88 M0.61 0.37 C81.68 -90.97, 159.91 -183.82, 239.27 -275.57 M7.38 7.56 C84.1 -83.29, 165.13 -173.64, 238.95 -262.98 M5.19 5.43 C66.22 -58.22, 123.47 -123.41, 240.64 -263.76 M18.69 4.25 C96.71 -87.05, 177.67 -177.61, 244.22 -254.76 M16.71 4.28 C90.15 -78.08, 162.71 -161.82, 242.2 -254.14 M24.84 3.16 C72.56 -47.02, 112.74 -99.43, 242.8 -242.91 M27.4 5.12 C100.82 -82.63, 176.32 -167.89, 243.92 -244.43 M35.73 6.18 C94.1 -58.93, 148.94 -119.39, 245.69 -236.04 M37.7 6.38 C101.85 -64.93, 163.84 -137.35, 244.93 -233.35 M44.96 7.68 C92.36 -45.7, 141.7 -104.69, 247.1 -224.38 M46.84 5.27 C104.09 -61.48, 164.09 -129.06, 244.8 -222.57 M56.25 3.64 C125.71 -72.44, 192.04 -146.92, 248.92 -210.82 M56.32 5.8 C110.01 -57.3, 166.77 -120.21, 247.03 -209.99 M69.7 6.86 C125.53 -64.13, 189.94 -139.47, 244.52 -197.26 M67.23 6.07 C119.49 -48.64, 171.09 -106.07, 246.7 -200.43 M79.95 9.96 C133.23 -55.17, 184.93 -112.75, 245.07 -188.04 M77.18 6.47 C134.39 -57.91, 190.28 -121.91, 247.08 -188.67 M86.25 9.82 C140.56 -50.83, 193.6 -113.71, 250.9 -173.94 M87.47 7.36 C123.42 -31.76, 154.21 -68.58, 247.69 -176.93 M102 4.51 C131.57 -27.49, 164.3 -73.58, 249.63 -165.43 M100.24 9.53 C139.33 -38.58, 179.94 -84.52, 246.95 -161.17 M112.35 7.77 C150.29 -35.48, 192.29 -77.61, 245.39 -151.79 M109.33 6.47 C138.43 -23.53, 165.23 -56.54, 246.76 -152.05 M122.82 12.47 C158.99 -34.33, 198.8 -79.41, 245.65 -141.6 M120.91 6.61 C164.43 -48.52, 214.39 -106.39, 248.24 -137.99 M132.53 11.58 C154.28 -22.18, 181.18 -50.31, 249.34 -123.16 M129.81 9.16 C169.37 -37.27, 207.34 -82.7, 247.23 -126.12 M136.81 6.13 C176 -34.42, 214.65 -74.74, 248.22 -111.08 M141.75 10.68 C181.36 -38.98, 224.63 -85.62, 247.02 -114.33 M150.6 9.27 C171.64 -14.46, 192.42 -41.77, 248.02 -102.79 M150.42 9.95 C175.76 -21, 204.44 -54.36, 248.08 -101.83 M163.55 10.17 C194.46 -31.89, 226.05 -66.71, 250.2 -87.09 M162.08 8.71 C197.11 -28.96, 227.5 -66.56, 245.91 -90.67 M169.35 6.35 C196.06 -24.25, 225.74 -50.35, 249.98 -76.02 M172.88 11.09 C188.5 -11.43, 203.89 -30.21, 247.04 -76.56 M183.11 8.12 C210.78 -19.51, 229.08 -43.87, 250.38 -65.28 M180.11 9.09 C205.26 -16.58, 228.46 -44.25, 246.98 -66.21 M192.11 14.39 C204.91 -1.92, 220.84 -22.74, 249.61 -55.01 M192.94 9.47 C214.45 -12.96, 233.62 -38.84, 247.59 -53.08 M200.46 13.34 C215.9 -6.97, 229.93 -21.31, 247.77 -43.03 M203.01 11.46 C213.92 -1.05, 227.78 -15.26, 247.64 -43.5 M211.17 15.03 C222.91 -0.95, 241.6 -21.17, 248.94 -28.09 M214.42 10.45 C221.95 -3.62, 235.37 -16.35, 246.95 -26.9 M222.85 12 C230.44 -0.08, 237.24 -7.41, 243.08 -11.36 M222.36 11.67 C231.07 3.5, 237.48 -4.36, 244.1 -14.28 M234.92 11.21 C235.28 9.79, 235.21 7.93, 238.82 4.52 M234.67 11.98 C234.95 9.95, 235.72 8.77, 239 5.89" stroke="#202325" stroke-width="1" fill="none"></path><path d="M-1.74 0.64 C34.27 1.26, 174.77 5.13, 215.27 5.56 C255.76 5.99, 236.32 6.51, 241.24 3.23 C246.16 -0.05, 244.27 -8, 244.79 -14.1 C245.32 -20.2, 244.32 -21.51, 244.42 -33.37 C244.51 -45.23, 245.24 -59.3, 245.36 -85.25 C245.47 -111.21, 247.07 -152.13, 245.1 -189.1 C243.14 -226.07, 238.94 -270.33, 233.56 -307.08 C228.19 -343.83, 224.22 -375.11, 212.86 -409.58 C201.5 -444.05, 178.47 -489.93, 165.41 -513.89 C152.35 -537.84, 145.78 -554.49, 134.52 -553.3 C123.26 -552.12, 111.78 -531.53, 97.86 -506.79 C83.94 -482.04, 64.96 -440.44, 51.02 -404.83 C37.08 -369.21, 23.17 -336.39, 14.2 -293.11 C5.24 -249.82, -0.68 -194.14, -2.79 -145.1 C-4.89 -96.05, 1.25 -23.45, 1.6 1.17 M2.52 -1.48 C38.24 -0.68, 173.48 7.12, 213.18 8.41 C252.87 9.7, 235.13 9.64, 240.69 6.23 C246.26 2.83, 245.23 -5.52, 246.57 -12 C247.91 -18.48, 248.48 -20.1, 248.72 -32.65 C248.97 -45.2, 248.57 -62.04, 248.05 -87.3 C247.53 -112.57, 247.19 -148.68, 245.63 -184.23 C244.06 -219.78, 244.71 -262.73, 238.64 -300.58 C232.58 -338.43, 220.98 -375.57, 209.22 -411.34 C197.46 -447.12, 180.36 -491.73, 168.07 -515.23 C155.78 -538.72, 146.48 -553.75, 135.47 -552.32 C124.46 -550.9, 115.8 -532.22, 102 -506.68 C88.19 -481.15, 66.38 -434.63, 52.65 -399.12 C38.93 -363.61, 28.76 -335.82, 19.66 -293.62 C10.57 -251.42, 2.01 -194.21, -1.89 -145.92 C-5.79 -97.63, -3.38 -27.73, -3.73 -3.88" stroke="#d3d3d3" stroke-width="2" fill="none"></path></g></g><mask></mask><g stroke-linecap="round"><g transform="translate(129.83299866386824 466.33759154325435) rotate(32.9312054570197 119.73900378366761 19.677647178604047)" fill-rule="evenodd"><path d="M0 0 C0 0, 0 0, 0 0 M0 0 C0 0, 0 0, 0 0 M2.55 8.39 C6.55 4.66, 9.89 0.78, 11.21 1.48 M4.41 8.3 C5.01 5.78, 6.16 4.22, 9.69 -0.94 M9.97 13.31 C8.42 12.35, 19.07 4.37, 17.41 0.85 M5.03 16.3 C11.27 13.81, 13.02 5.76, 21.88 1.79 M11.96 26.73 C20.86 20.05, 22.03 8.97, 31.99 -0.75 M10.47 25.57 C18 18.24, 24.24 8.22, 29.26 -0.19 M14.66 33.26 C21.43 19.66, 32.75 11.99, 39.19 2.45 M14.97 30.32 C21.88 24.54, 27.55 18.14, 41.35 0.57 M18.04 42.3 C25.21 25.37, 35.32 18.01, 52.94 -2.73 M18.9 37.52 C28.59 24.24, 38.87 12, 51.94 -0.12 M29.23 36.31 C37.35 26.5, 42.5 22.83, 62.65 1.73 M28.61 39.01 C42.81 25.97, 56.52 7.95, 62.7 0 M43.33 42 C51.59 28.11, 64.22 18.15, 74.45 1.39 M40.29 40.62 C46.52 32.25, 56.42 21.58, 73.46 1.93 M53.05 39.82 C55.94 29.74, 62.76 24.1, 85.88 1.25 M50.76 39.65 C59.28 26.86, 70.16 14.46, 84.03 -0.76 M57.54 38.71 C72.11 33.66, 81.43 19.94, 94.48 2.88 M61.25 41.47 C69.8 26.58, 80.18 15.37, 91.77 3.14 M71.57 36.37 C78.59 26.45, 91.54 13.29, 102.39 1.51 M71.74 39.83 C81.75 27.4, 88.76 19.48, 103.3 1.5 M78.92 44.2 C91.99 24.7, 107.49 11.25, 111.03 1.96 M81.35 39.67 C91.62 26.73, 103.19 15.18, 114.26 2.71 M89.58 39.67 C99.53 25.42, 116.08 12.68, 125.71 -0.29 M90.61 41.4 C101.2 28.32, 113.06 15.28, 124.91 2.74 M106.44 42.16 C114.08 28.4, 122.41 16.41, 132.21 6.05 M103.27 38.79 C113.91 24.53, 127.12 10.24, 133.85 2.15 M110.55 41.38 C121.73 31.19, 129.06 26.56, 143.46 3.96 M112.54 39.21 C120.3 30.6, 128.53 22.03, 147.72 3.96 M126.47 38.22 C128.97 36.15, 140.67 25.12, 160.82 4.49 M121.52 42.48 C130.85 32.34, 136.47 24.71, 155.53 1.95 M135.42 37.12 C140.96 32.72, 156.77 17.28, 167.34 -0.4 M133.51 41.17 C146.76 26.9, 156.04 15.17, 165.07 3.47 M146.09 41.94 C156.36 31.34, 168.55 13.3, 177.08 2.57 M145.73 42.4 C154.37 30.64, 166.31 19.01, 177.16 1.7 M155.79 40.39 C166.66 22.79, 178.19 6.74, 185.73 3.86 M155.64 40.19 C166.1 27.05, 178.89 13.13, 187.44 1.56 M167.82 44.83 C178.21 26.7, 187.93 17.75, 195.26 4.26 M165.33 42.24 C173.92 31.69, 183.52 23.13, 200.01 4.71 M176.69 44.69 C189.35 26.36, 195.48 14.35, 210.47 3.95 M175.85 42.25 C183.62 29.64, 195.81 18.49, 207.11 4.61 M182.85 42.32 C197 25.04, 211.35 11.01, 217.69 2.46 M184.89 41.73 C200.03 28.2, 209.86 14.54, 220.84 2.35 M193.87 45.41 C205.92 31.35, 214.49 24.12, 230.05 2.98 M197.18 42.32 C203.64 33.03, 212.85 24.78, 229.49 4.98 M209.82 43.8 C216.77 33.86, 230.47 19.78, 236.78 1.28 M208.79 40.62 C220.98 30.63, 231.27 16.25, 239.9 6.28 M216.49 41.9 C220.6 33.92, 228.51 32.4, 232.04 24.9 M217.5 40.45 C224.74 34.45, 231.59 27.11, 233.4 23.96 M16.02 36.45 C16.02 36.45, 16.02 36.45, 16.02 36.45 M16.02 36.45 C16.02 36.45, 16.02 36.45, 16.02 36.45 M29.39 37.85 C21.07 34.4, 12.23 24.01, 6.14 22.11 M27.6 36.63 C23.46 33.01, 19 30.36, 9.43 20.49 M43.91 37.46 C32.75 24.12, 19.97 18.74, 0.57 4.68 M41.81 36.91 C31.02 26.33, 20.85 17.54, 0.45 1.21 M49.38 36.11 C38.94 24.56, 26.02 13.01, 11.67 1.89 M54.15 36.49 C36.44 23.89, 22.89 8.65, 9.9 -0.04 M63.88 37.74 C48.91 27.21, 40.55 10.81, 25.82 -2.34 M66.66 35.81 C53.41 27.88, 45.73 20.21, 22.04 -1.15 M79.55 39.04 C61.97 28.46, 54.62 17.09, 39.43 4.15 M77.75 37.58 C64.79 28.38, 52.33 16.12, 36.92 1.27 M91.97 41.35 C73.02 25.32, 63.11 12.07, 48.97 3.71 M89.51 35.76 C76.22 27.15, 65.32 16.75, 48.33 1 M105.52 39.98 C88.42 20.42, 74.27 12.28, 58.84 4.98 M101.04 35.93 C84.35 21.07, 67.58 7.6, 61.65 3.29 M114.75 36.15 C101.77 27.85, 89.1 17.08, 71.02 -0.51 M115.76 36.27 C101.3 25.24, 85.22 13.71, 71.35 0.55 M125.8 34.32 C121.17 28.68, 108.39 24.94, 86.65 2.23 M126.7 36.01 C110.99 25.81, 96.22 12.22, 84.64 2.03 M137.72 38.06 C130.24 27.59, 120.43 18.96, 96.2 1.71 M139.86 40.31 C124.78 27.27, 109.77 12.46, 99.44 2.85 M155.87 39.49 C135.54 22.68, 128.55 13.74, 108.81 3.8 M151.45 36.78 C139.63 25.09, 126.87 16.04, 111.76 0.97 M165.31 39.06 C156.25 29.11, 143.93 16.23, 125.67 5.13 M163.28 40.32 C151.36 29.97, 140.01 19.97, 120.96 1.67 M176.14 35.02 C164.26 27.17, 152.68 21.06, 137.44 4.97 M176.02 37.66 C165.64 26.24, 150.62 13.49, 137.13 2.4 M188.92 35.2 C182.73 33.34, 169.95 17.06, 145.54 2.58 M188.53 40.21 C176.03 27.25, 162.73 15.31, 146.32 1.3 M199.97 38.47 C189.91 31.49, 179.54 20.36, 159.6 1.11 M203.18 40.55 C190.25 30.03, 182.68 19.84, 161.92 2.07 M214.84 38.57 C201.41 25.22, 186.84 16.53, 170.82 4.95 M213.15 41.35 C203.29 27.94, 191.22 17.2, 173.93 2.46 M225.85 34.21 C210.07 29.29, 196.4 13.47, 181.31 -0.37 M223.96 36.52 C210.66 27.78, 200.96 19.18, 184.31 3.18 M222.75 29.55 C217.86 26.91, 210.71 22.25, 194.25 5.83 M226.11 28.77 C218.58 22.2, 211.3 16.14, 197.01 5.02 M230.44 22.76 C223.42 13.86, 216.86 14.08, 207.49 0.01 M228.64 21.23 C223.96 17.99, 219.35 10.65, 209.54 2.45 M232.11 16.68 C228.43 10.21, 227.6 4.36, 220.14 6.27 M235.25 14.02 C230.78 10.06, 226.21 8.45, 222.63 3.57 M238.64 7.13 C238.14 6.55, 237.29 5.35, 235.69 4.55 M238.68 7.16 C237.97 5.87, 236.42 4.97, 235.15 4.1" stroke="#33383d" stroke-width="1" fill="none"></path><path d="M-2.72 1.02 C8.26 10.75, 10.39 18.5, 14.7 35.56 M-0.06 -0.73 C5.03 10.38, 10.73 21.15, 15.01 36.62 M13.28 38.86 C71.05 38.33, 132.73 42.51, 223.98 38.17 M17.16 37.5 C96.81 39.7, 177.14 39.84, 222.11 40.47 M223.07 36.25 C223.09 31.33, 225.96 31.85, 226.29 20.74 M221.2 40.96 C222.7 32.71, 228.15 29.79, 230.67 20.98 M231.69 19.65 C231.48 19.11, 231.9 10.79, 237.98 5.29 M228.76 20.49 C231.43 14.86, 234.24 11, 242.2 6.21 M238.72 6.95 C173.87 2.49, 110.13 1.28, 3.3 -1.6 M240.73 4.62 C157.75 5.17, 72.94 4.74, 0.26 1.33 M0 0 C0 0, 0 0, 0 0 M0 0 C0 0, 0 0, 0 0" stroke="#d3d3d3" stroke-width="2" fill="none"></path></g></g><mask></mask><g stroke-linecap="round"><g transform="translate(176.9436905456132 209.6820882671226) rotate(32.9312054570197 -49.86382399104946 142.70520936438083)" fill-rule="evenodd"><path d="M0 0 C0 0, 0 0, 0 0 M0 0 C0 0, 0 0, 0 0 M-70.72 93.55 C-52.06 71.16, -35.1 49.98, 0.13 12.04 M-70.72 93.55 C-52.58 73.19, -35.21 52.46, 0.13 12.04 M-90.93 128.99 C-70.12 104.98, -49.88 77.55, 0.27 24.08 M-90.93 128.99 C-70.23 105.18, -49.65 82.52, 0.27 24.08 M-95.39 146.31 C-62.29 108.26, -30.71 74.5, 0.4 36.12 M-95.39 146.31 C-66.72 115.78, -40.03 83.17, 0.4 36.12 M-90.66 153.07 C-65 124.7, -41.93 94.57, 0.53 48.16 M-90.66 153.07 C-60.19 117.06, -30.11 81.7, 0.53 48.16 M-97.09 172.66 C-61.47 132.47, -27.84 91.09, 0.67 60.2 M-97.09 172.66 C-72.46 144.88, -48.8 118.07, 0.67 60.2 M-97.61 185.45 C-70.73 156.26, -44.04 123.72, 0.8 72.25 M-97.61 185.45 C-76.03 159.01, -51.91 132.23, 0.8 72.25 M-98.13 198.25 C-61.37 153.47, -21.92 112.07, 0.93 84.29 M-98.13 198.25 C-71.38 166.74, -44.41 137.58, 0.93 84.29 M-98.66 211.04 C-59.71 168.05, -22.9 126.52, 1.07 96.33 M-98.66 211.04 C-60.29 168.29, -23.42 125.37, 1.07 96.33 M-97.21 221.57 C-74.79 197.2, -51.5 171.57, 1.2 108.37 M-97.21 221.57 C-70.63 193.68, -46.12 163.6, 1.2 108.37 M-96.42 232.86 C-58.83 189.86, -22.68 149.11, 1.33 120.41 M-96.42 232.86 C-69.43 201.9, -44.13 171.89, 1.33 120.41 M-95.63 244.15 C-67.51 209.47, -34.1 173.65, 1.46 132.45 M-95.63 244.15 C-61.46 204.91, -26.84 164.72, 1.46 132.45 M-98.78 259.96 C-69.74 226.98, -41.36 193.14, 1.6 144.49 M-98.78 259.96 C-72.67 231.01, -46.6 200.84, 1.6 144.49 M-97.33 270.49 C-85.77 257.7, -73.73 247.03, -48.79 214.64 M-97.33 270.49 C-85.64 256.79, -74.18 243.19, -48.79 214.64 M-33.04 196.53 C-18.66 180.96, -9.77 169.05, 1.73 156.53 M-33.04 196.53 C-21.16 182.32, -8.99 167.21, 1.73 156.53 M-95.89 281.02 C-82.86 266.62, -73.24 255.27, -59.15 238.76 M-95.89 281.02 C-85.46 270.22, -76.05 257.71, -59.15 238.76 M1.86 168.57 C1.98 168.32, 2.09 168.24, 2.52 167.82 M1.86 168.57 C2 168.42, 2.16 168.27, 2.52 167.82 M-94.48 287.03 C-94.48 287.03, -94.48 287.03, -94.48 287.03 M-94.48 287.03 C-94.48 287.03, -94.48 287.03, -94.48 287.03 M-88.48 281.64 C-90.3 278.81, -92.46 277.96, -98.29 273.12 M-88.48 281.64 C-91.01 279.17, -93.68 277.96, -98.29 273.12 M-84.74 274.3 C-91.52 269.45, -95.89 266.74, -99.08 261.83 M-84.74 274.3 C-90.54 269.84, -95.81 265.04, -99.08 261.83 M-81 266.95 C-87.52 261.37, -91.84 257.21, -99.87 250.54 M-81 266.95 C-86.37 261.54, -92 258.3, -99.87 250.54 M-77.26 259.6 C-83.54 256.62, -88.8 249.83, -100.66 239.26 M-77.26 259.6 C-83.16 253.5, -88.96 248.73, -100.66 239.26 M-73.52 252.25 C-80.42 248.17, -86.78 240.4, -101.45 227.97 M-73.52 252.25 C-79.48 245.7, -86.86 241.46, -101.45 227.97 M-69.78 244.9 C-81.2 234.06, -93 226.41, -101.48 217.34 M-69.78 244.9 C-78.91 237.11, -85.87 230.6, -101.48 217.34 M-66.04 237.55 C-74.42 231.7, -81.96 225.76, -100.76 207.37 M-66.04 237.55 C-79.22 227.32, -90.77 216.7, -100.76 207.37 M-62.31 230.2 C-73.79 220.7, -86.73 209.99, -100.04 197.39 M-62.31 230.2 C-73 220.5, -82.6 212.62, -100.04 197.39 M-57.06 224.16 C-66.47 216.31, -78.38 207.44, -100.08 186.76 M-57.06 224.16 C-66.64 215.48, -74.71 208.01, -100.08 186.76 M-52.56 217.46 C-69 204.46, -84.51 189.93, -99.36 176.79 M-52.56 217.46 C-65.4 204.55, -79.65 193.71, -99.36 176.79 M-47.31 211.43 C-57.55 203.73, -68.57 195.35, -98.63 166.82 M-47.31 211.43 C-61.49 197.15, -77.6 183.47, -98.63 166.82 M-42.07 205.39 C-55.95 192.08, -70.35 178.07, -97.91 156.84 M-42.07 205.39 C-54.02 195.29, -65.83 185.1, -97.91 156.84 M-36.82 199.35 C-49.92 186.21, -63.13 176.1, -96.44 147.52 M-36.82 199.35 C-50.05 186.66, -62.93 176.58, -96.44 147.52 M-31.57 193.31 C-47.61 179.32, -67.44 163.86, -94.21 138.86 M-31.57 193.31 C-54.27 173.34, -77.42 153.35, -94.21 138.86 M-25.57 187.93 C-43.35 170.86, -60.1 158.3, -91.98 130.2 M-25.57 187.93 C-50.7 165.86, -74.54 146.14, -91.98 130.2 M-19.56 182.55 C-38.07 164.25, -60.55 147.45, -89 122.19 M-19.56 182.55 C-43.02 161.27, -67.6 141.06, -89 122.19 M-12.8 177.83 C-26.79 165.53, -43.07 148.38, -85.26 114.84 M-12.8 177.83 C-38.81 156.06, -64.82 132.41, -85.26 114.84 M-6.8 172.44 C-31.64 148.44, -58.4 129.39, -81.52 107.49 M-6.8 172.44 C-31.04 152.19, -52.99 130.48, -81.52 107.49 M2.22 169.69 C2.22 169.69, 2.22 169.69, 2.22 169.69 M2.22 169.69 C2.22 169.69, 2.22 169.69, 2.22 169.69 M-0.04 167.72 C-21.45 147.86, -44.49 126.72, -77.78 100.14 M-0.04 167.72 C-31.91 141.06, -61.93 114.51, -77.78 100.14 M2.19 159.06 C-15.48 143.53, -35.3 127.3, -73.29 93.45 M2.19 159.06 C-20.76 140.47, -42.89 120.39, -73.29 93.45 M2.15 148.43 C-15.51 134.2, -34.76 115.32, -68.79 86.76 M2.15 148.43 C-17.23 131.72, -36.22 115.52, -68.79 86.76 M2.12 137.8 C-23.79 113.7, -48.37 92.49, -64.3 80.06 M2.12 137.8 C-11.78 123.99, -27.56 111.87, -64.3 80.06 M2.08 127.17 C-21.81 107.96, -44.29 86.98, -59.05 74.03 M2.08 127.17 C-12.18 114.17, -27.64 101.53, -59.05 74.03 M2.05 116.54 C-17.7 98, -38.34 81.52, -54.56 67.33 M2.05 116.54 C-19.31 98.7, -38.57 79.49, -54.56 67.33 M1.26 105.25 C-14.25 90.73, -29.97 76.38, -50.06 60.64 M1.26 105.25 C-16.96 89.23, -34.3 73.69, -50.06 60.64 M1.22 94.62 C-13.06 84.86, -23.26 74.22, -44.81 54.6 M1.22 94.62 C-11.33 83.38, -23.4 72.56, -44.81 54.6 M1.19 83.99 C-11.31 73.21, -20.57 62.99, -40.32 47.91 M1.19 83.99 C-9.49 76.17, -19.59 66.63, -40.32 47.91 M1.16 73.36 C-6.58 65.11, -19.76 56.15, -35.07 41.87 M1.16 73.36 C-10.62 63.89, -20.96 54.55, -35.07 41.87 M1.12 62.73 C-4.81 56.31, -12.33 49.94, -29.82 35.83 M1.12 62.73 C-9.08 55.19, -18.09 45.96, -29.82 35.83 M1.09 52.1 C-7.75 45.48, -13.58 41.34, -24.57 29.79 M1.09 52.1 C-5.99 44.5, -14.02 38.06, -24.57 29.79 M1.05 41.47 C-2.07 37.56, -9.26 31.63, -19.33 23.76 M1.05 41.47 C-6.06 35.98, -13.62 29.87, -19.33 23.76 M0.26 30.18 C-3.5 25.51, -9.71 21.32, -14.08 17.72 M0.26 30.18 C-4.11 26.01, -8.3 21.95, -14.08 17.72 M0.23 19.55 C-3.28 16.05, -6.61 14.19, -9.58 11.02 M0.23 19.55 C-3.48 16.77, -5.75 14.53, -9.58 11.02 M0.19 8.92 C-0.84 7.01, -2.18 6.11, -4.33 4.99 M0.19 8.92 C-1.52 7.83, -2.98 6.02, -4.33 4.99" stroke="#202325" stroke-width="1" fill="none"></path><path d="M0.19 0.65 C-15.24 22.29, -75.84 82.14, -91.97 129.15 C-108.1 176.16, -100.93 265.07, -96.6 282.72 C-92.26 300.36, -76.21 249.61, -65.98 235 C-55.76 220.39, -45.89 206.33, -35.26 195.06 C-24.63 183.79, -8.28 173.97, -2.21 167.36 C3.86 160.75, 0.89 183.43, 1.16 155.39 C1.43 127.35, -0.44 24.87, -0.6 -0.88 M-1.17 -0.06 C-16.25 21.3, -73.57 80.13, -89.6 127.41 C-105.63 174.68, -101.26 266, -97.36 283.59 C-93.47 301.17, -76.89 247.71, -66.24 232.95 C-55.6 218.18, -44.35 205.56, -33.47 195 C-22.6 184.45, -6.8 176.47, -0.99 169.62 C4.83 162.77, 0.96 182.45, 1.42 153.9 C1.87 125.35, 2.18 23.98, 1.71 -1.69" stroke="#d3d3d3" stroke-width="2" fill="none"></path></g></g><mask></mask><g stroke-linecap="round"><g transform="translate(372.1753555645296 395.22640947294985) rotate(32.9312054570197 48.95225928138734 145.73591713998974)" fill-rule="evenodd"><path d="M0 0 C0 0, 0 0, 0 0 M0 0 C0 0, 0 0, 0 0 M0.13 12.04 C1.73 9.56, 3.08 7.89, 5.38 6 M0.13 12.04 C1.18 10.41, 2.26 9.63, 5.38 6 M-0.39 24.84 C0.76 20.54, 3.93 17.69, 10.11 12.76 M-0.39 24.84 C1.52 22.59, 4.81 19.79, 10.11 12.76 M-0.26 36.88 C4.9 33.89, 7.69 25.6, 15.49 18.76 M-0.26 36.88 C3.42 31.56, 7.64 27.26, 15.49 18.76 M-0.78 49.67 C5.34 40.17, 13.15 35.39, 20.21 25.52 M-0.78 49.67 C4.99 41.97, 12.08 36.56, 20.21 25.52 M-0.65 61.71 C6.77 52.41, 15.61 40.39, 25.6 31.53 M-0.65 61.71 C8.84 51.5, 17.38 41.31, 25.6 31.53 M-0.51 73.75 C7.24 64.53, 11.1 60.69, 30.98 37.53 M-0.51 73.75 C7.08 65.46, 16.18 55.12, 30.98 37.53 M-1.04 86.55 C11.59 73.53, 22.48 57.96, 35.7 44.29 M-1.04 86.55 C13.47 71.26, 28.21 53.05, 35.7 44.29 M-0.9 98.59 C7.9 88.88, 17.46 78.09, 41.08 50.29 M-0.9 98.59 C11.54 84.1, 23.17 69.52, 41.08 50.29 M-1.43 111.39 C8.31 101.5, 18.04 86.59, 45.81 57.05 M-1.43 111.39 C10.48 96.45, 23.07 83.26, 45.81 57.05 M-1.29 123.43 C7.92 112.97, 19.9 96.82, 51.19 63.05 M-1.29 123.43 C18.79 99.37, 40.41 76.1, 51.19 63.05 M-1.82 136.22 C14.83 118.22, 29.04 101.8, 56.57 69.05 M-1.82 136.22 C19.1 111.82, 38.8 90.3, 56.57 69.05 M-1.68 148.26 C13.25 130.59, 28.22 110.74, 61.3 75.81 M-1.68 148.26 C20.86 122.31, 40.77 98.59, 61.3 75.81 M-1.55 160.3 C17.84 141.49, 32.73 120.32, 65.37 83.32 M-1.55 160.3 C14.79 141.03, 32.38 121.53, 65.37 83.32 M-2.07 173.1 C-1.92 172.89, -1.53 172.48, -1.42 172.35 M-2.07 173.1 C-1.92 172.84, -1.69 172.71, -1.42 172.35 M1.21 169.33 C25.68 141.55, 50.34 110.88, 70.09 90.08 M1.21 169.33 C17.39 149.27, 34.55 128.76, 70.09 90.08 M7.25 174.58 C31.57 145.89, 56.36 115.55, 74.82 96.84 M7.25 174.58 C22.94 157.3, 37.98 139.11, 74.82 96.84 M13.28 179.82 C30.42 163.45, 44.7 147.29, 78.89 104.35 M13.28 179.82 C27.61 162.98, 44.11 145.19, 78.89 104.35 M19.32 185.07 C33.66 167.45, 51.77 146.49, 83.61 111.11 M19.32 185.07 C38.11 162.36, 58.81 141.36, 83.61 111.11 M25.36 190.32 C37.59 175, 52.65 162.41, 87.03 119.38 M25.36 190.32 C48.85 164.7, 71.28 138.52, 87.03 119.38 M31.4 195.57 C50.77 172.29, 71.05 149.47, 90.44 127.65 M31.4 195.57 C49.59 174.07, 69.28 152.62, 90.44 127.65 M37.43 200.82 C53.34 183.58, 65.21 167.8, 93.2 136.67 M37.43 200.82 C50.34 185.51, 64.54 168.45, 93.2 136.67 M42.16 207.58 C63.81 182.05, 82.28 157.61, 95.3 146.44 M42.16 207.58 C62.68 182.61, 85.01 159.3, 95.3 146.44 M47.54 213.58 C64.14 192.21, 84.04 171.61, 96.75 156.98 M47.54 213.58 C64.79 194.76, 82.44 174.03, 96.75 156.98 M52.27 220.34 C67.55 203.69, 83.02 188.1, 98.19 167.51 M52.27 220.34 C69 202.34, 85.08 183.91, 98.19 167.51 M57.65 226.34 C71.95 208.99, 84.99 193.84, 99.64 178.04 M57.65 226.34 C71.68 209.61, 87.05 192.43, 99.64 178.04 M62.37 233.1 C70.52 223.08, 78.34 213.36, 99.77 190.08 M62.37 233.1 C73.34 220.25, 84.98 207.35, 99.77 190.08 M66.44 240.61 C73.27 230.8, 79.37 224.03, 100.56 201.37 M66.44 240.61 C74.05 232.17, 82.97 221.88, 100.56 201.37 M70.51 248.12 C80.32 236.94, 90.27 226.64, 100.69 213.41 M70.51 248.12 C78.02 238.94, 85.33 229.75, 100.69 213.41 M73.93 256.39 C81.4 249.8, 87.47 238.29, 100.82 225.45 M73.93 256.39 C83.53 245.31, 92.73 234.2, 100.82 225.45 M78 263.9 C83.02 256.79, 90.95 247.57, 100.3 238.24 M78 263.9 C84.78 256.12, 93.89 246.28, 100.3 238.24 M81.41 272.17 C89.07 262.77, 95.58 256.96, 99.78 251.04 M81.41 272.17 C88.73 263.55, 95.55 255.1, 99.78 251.04 M85.48 279.68 C88.34 274.89, 95.32 270.65, 98.6 264.59 M85.48 279.68 C89.26 274.18, 94.82 269.65, 98.6 264.59 M89.55 287.2 C90.63 283.87, 92.84 283.09, 96.76 278.89 M89.55 287.2 C91.01 285.68, 93.36 282.83, 96.76 278.89 M89.85 288.37 C89.85 288.37, 89.85 288.37, 89.85 288.37 M89.85 288.37 C89.85 288.37, 89.85 288.37, 89.85 288.37 M95.86 282.99 C91.19 280.87, 88.06 274.52, 80.01 269.21 M95.86 282.99 C91.72 277.72, 85.37 273.9, 80.01 269.21 M97.33 273.67 C90.7 264.91, 80.26 258.66, 70.92 250.71 M97.33 273.67 C87.63 265.69, 77.74 256.33, 70.92 250.71 M98.81 264.35 C89.93 255.2, 84.07 251.25, 61.83 232.2 M98.81 264.35 C85.37 251.96, 70.66 239.57, 61.83 232.2 M99.53 254.38 C75.95 234.8, 51.15 212.23, 36.89 199.92 M99.53 254.38 C80.61 238.88, 61.49 221.9, 36.89 199.92 M-0.09 167.78 C-0.53 167.37, -0.84 167.19, -1.6 166.46 M-0.09 167.78 C-0.49 167.49, -0.86 167.1, -1.6 166.46 M100.25 244.4 C68.17 213.68, 32.08 184.21, -1.64 155.83 M100.25 244.4 C71.79 219.78, 45.46 195.21, -1.64 155.83 M100.21 233.77 C73.15 211.33, 43.47 185.76, -1.67 145.2 M100.21 233.77 C63.28 201.99, 26.46 169.77, -1.67 145.2 M100.93 223.8 C65.98 192.28, 35.35 163.76, -1.71 134.57 M100.93 223.8 C80 204.58, 57.11 186.59, -1.71 134.57 M100.9 213.17 C69.68 184.08, 36.56 156.76, -1.74 123.94 M100.9 213.17 C80.45 195.37, 58.17 176.8, -1.74 123.94 M100.11 201.88 C73.58 179.63, 44.5 154.68, -1.02 113.97 M100.11 201.88 C77.84 181.29, 56.16 163.85, -1.02 113.97 M99.32 190.6 C65.46 157.86, 26.85 128.18, -1.06 103.34 M99.32 190.6 C59.45 156.53, 19.42 122.09, -1.06 103.34 M99.29 179.96 C70.55 156.84, 46.33 135.64, -1.09 92.71 M99.29 179.96 C62.61 147.79, 23.65 115.26, -1.09 92.71 M98.5 168.68 C62.83 135.98, 28.93 109.15, -1.12 82.08 M98.5 168.68 C60.67 135.54, 21.75 102.48, -1.12 82.08 M96.95 156.74 C70.08 134.42, 44.27 110.19, -1.16 71.45 M96.95 156.74 C66.24 128.71, 34.53 103.72, -1.16 71.45 M94.65 144.14 C65.19 118.14, 39.51 96.55, -0.44 61.47 M94.65 144.14 C56.61 112.73, 19.65 78.78, -0.44 61.47 M91.6 130.88 C64.23 107.49, 35.89 83.72, -0.47 50.84 M91.6 130.88 C65.42 106.78, 39.85 84.84, -0.47 50.84 M85.53 115.01 C57.18 90.99, 28.14 65.77, -0.51 40.21 M85.53 115.01 C57.53 90.18, 28.02 63.32, -0.51 40.21 M71.16 91.91 C56.56 76.59, 39.45 64.85, -0.54 29.58 M71.16 91.91 C51.3 74.36, 31.58 57.4, -0.54 29.58 M55.27 67.5 C41.31 54.97, 25.77 38.79, -0.58 18.95 M55.27 67.5 C39.45 52.66, 21.35 39.51, -0.58 18.95 M25.8 31.29 C16.27 25.28, 9.26 17.44, 0.14 8.98 M25.8 31.29 C18.42 24.77, 10.37 17.55, 0.14 8.98" stroke="#202325" stroke-width="1" fill="none"></path><path d="M-0.65 0.72 C14.37 21.83, 74.41 79.44, 90.28 127.3 C106.14 175.15, 99.03 269.83, 94.54 287.84 C90.06 305.86, 73.54 250.6, 63.36 235.38 C53.18 220.16, 43.9 207.68, 33.44 196.52 C22.99 185.36, 6.53 174.2, 0.62 168.41 C-5.29 162.62, -1.96 189.73, -2.03 161.8 C-2.1 133.88, -0.24 27.97, 0.21 0.86 M1.22 0.06 C16.05 21.24, 73.37 80.73, 89.33 128.38 C105.28 176.04, 101.28 268.06, 96.93 286 C92.58 303.94, 73.45 250.95, 63.2 236.04 C52.96 221.14, 45.7 208.02, 35.44 196.56 C25.19 185.09, 7.84 172.71, 1.64 167.23 C-4.55 161.75, -1.31 191.36, -1.7 163.65 C-2.09 135.94, -0.88 28.09, -0.71 0.97" stroke="#d3d3d3" stroke-width="2" fill="none"></path></g></g><mask></mask><g stroke-linecap="round" transform="translate(385.5898835585176 166.37469117978446) rotate(32.9312054570197 43.33498072420366 44.988987622074035)"><path d="M8.42 15.32 C12.22 8.64, 21.38 3.99, 28.74 1.78 C36.1 -0.44, 45.07 -0.1, 52.6 2.03 C60.12 4.17, 68.01 8.41, 73.88 14.58 C79.74 20.76, 86.45 30.9, 87.79 39.1 C89.13 47.3, 85.17 56.35, 81.91 63.8 C78.65 71.25, 74.58 79.48, 68.22 83.79 C61.86 88.11, 51.79 90.05, 43.75 89.69 C35.72 89.34, 26.37 85.91, 19.99 81.67 C13.61 77.44, 9.08 70.92, 5.46 64.3 C1.85 57.68, -3.45 51.28, -1.71 41.97 C0.04 32.65, 11.69 14.58, 15.94 8.41 C20.19 2.25, 23.39 4.26, 23.79 4.98 M62.23 8.46 C68.97 12.19, 80.15 17.98, 83.87 24.72 C87.58 31.45, 85.99 40.4, 84.52 48.85 C83.06 57.31, 79.75 69.2, 75.09 75.46 C70.44 81.72, 63.89 83.88, 56.57 86.41 C49.26 88.94, 39.04 92.38, 31.2 90.65 C23.37 88.93, 14.41 82.34, 9.58 76.06 C4.76 69.78, 3.41 61.1, 2.28 52.96 C1.14 44.83, 0.41 35.16, 2.79 27.26 C5.17 19.35, 10.31 9.58, 16.55 5.53 C22.8 1.48, 32.44 2.76, 40.26 2.93 C48.08 3.11, 59.71 5.49, 63.5 6.58 C67.28 7.68, 63.3 9.35, 62.97 9.48" stroke="#d3d3d3" stroke-width="2" fill="none"></path></g><g stroke-opacity="0.5" fill-opacity="0.5" stroke-linecap="round" transform="translate(396.47650960767714 176.1321141592283) rotate(84.00149347288287 32.403444932864886 35.56252222874434)"><path d="M9.25 10.69 C9.25 10.69, 9.25 10.69, 9.25 10.69 M9.25 10.69 C9.25 10.69, 9.25 10.69, 9.25 10.69 M0.2 33.3 C6.28 26.31, 12.36 19.31, 29.07 0.09 M0.2 33.3 C6.28 26.31, 12.35 19.32, 29.07 0.09 M1.64 43.83 C12.14 31.75, 22.64 19.68, 39.04 0.81 M1.64 43.83 C14.47 29.07, 27.3 14.31, 39.04 0.81 M4.4 52.85 C17.94 37.28, 31.47 21.72, 47.05 3.8 M4.4 52.85 C14.63 41.08, 24.86 29.31, 47.05 3.8 M9.13 59.61 C23.86 42.66, 38.59 25.72, 53.74 8.29 M9.13 59.61 C23.84 42.69, 38.55 25.76, 53.74 8.29 M14.51 65.61 C27.54 50.62, 40.57 35.63, 58.47 15.05 M14.51 65.61 C26.49 51.83, 38.47 38.05, 58.47 15.05 M21.86 69.35 C37.67 51.16, 53.48 32.98, 62.53 22.56 M21.86 69.35 C33.3 56.2, 44.73 43.04, 62.53 22.56 M30.52 71.58 C41.05 59.47, 51.58 47.35, 65.29 31.58 M30.52 71.58 C42.47 57.84, 54.41 44.1, 65.29 31.58 M42.46 70.04 C48.67 62.89, 54.88 55.75, 64.11 45.13 M42.46 70.04 C49.92 61.46, 57.37 52.89, 64.11 45.13" stroke="#6e757c" stroke-width="1" fill="none"></path><path d="M64.81 35.56 C64.81 37.42, 64.67 39.29, 64.41 41.13 C64.14 42.96, 63.74 44.79, 63.22 46.55 C62.7 48.32, 62.04 50.06, 61.28 51.71 C60.51 53.36, 59.61 54.97, 58.62 56.47 C57.63 57.97, 56.51 59.4, 55.32 60.71 C54.12 62.02, 52.82 63.24, 51.45 64.33 C50.08 65.42, 48.62 66.41, 47.11 67.25 C45.61 68.09, 44.02 68.81, 42.42 69.38 C40.81 69.96, 39.14 70.4, 37.47 70.69 C35.8 70.98, 34.09 71.13, 32.4 71.13 C30.71 71.13, 29 70.98, 27.33 70.69 C25.67 70.4, 24 69.96, 22.39 69.38 C20.78 68.81, 19.2 68.09, 17.69 67.25 C16.19 66.41, 14.72 65.42, 13.36 64.33 C11.99 63.24, 10.69 62.02, 9.49 60.71 C8.3 59.4, 7.18 57.97, 6.19 56.47 C5.2 54.97, 4.3 53.36, 3.53 51.71 C2.76 50.06, 2.11 48.32, 1.59 46.55 C1.06 44.79, 0.66 42.96, 0.4 41.13 C0.13 39.29, 0 37.42, 0 35.56 C0 33.71, 0.13 31.83, 0.4 30 C0.66 28.17, 1.06 26.34, 1.59 24.57 C2.11 22.81, 2.76 21.07, 3.53 19.42 C4.3 17.77, 5.2 16.16, 6.19 14.66 C7.18 13.16, 8.3 11.73, 9.49 10.42 C10.69 9.1, 11.99 7.88, 13.36 6.79 C14.72 5.7, 16.19 4.72, 17.69 3.88 C19.2 3.03, 20.78 2.31, 22.39 1.74 C24 1.17, 25.67 0.73, 27.33 0.44 C29 0.15, 30.71 0, 32.4 0 C34.09 0, 35.8 0.15, 37.47 0.44 C39.14 0.73, 40.81 1.17, 42.42 1.74 C44.02 2.31, 45.61 3.03, 47.11 3.88 C48.62 4.72, 50.08 5.7, 51.45 6.79 C52.82 7.88, 54.12 9.1, 55.32 10.42 C56.51 11.73, 57.63 13.16, 58.62 14.66 C59.61 16.16, 60.51 17.77, 61.28 19.42 C62.04 21.07, 62.7 22.81, 63.22 24.57 C63.74 26.34, 64.14 28.17, 64.41 30 C64.67 31.83, 64.74 34.64, 64.81 35.56 C64.87 36.49, 64.87 34.64, 64.81 35.56" stroke="#d3d3d3" stroke-width="2" fill="none"></path></g><g stroke-linecap="round"><g transform="translate(120.62976500629202 489.3516945632589) rotate(32.9312054570197 65.96347544033279 104.35236408210608)" fill-rule="evenodd"><path d="M0 0 C0 0, 0 0, 0 0 M0 0 C0 0, 0 0, 0 0 M4.83 9.31 C4.91 6.68, 8.42 2.76, 10.59 0.31 M3.16 9.91 C5.05 6.85, 8.44 3.79, 10.49 1.02 M2.45 17.71 C13.19 16.05, 12.51 8.51, 23.02 -0.03 M4.14 19.31 C9.9 14.87, 14.08 10.06, 20.22 1.17 M11.76 24.55 C13.26 17.44, 21.28 11.88, 30.32 -2.05 M7.13 26.17 C14.03 19.4, 18.66 15.21, 30.37 1.77 M12.82 36.12 C25.14 27.53, 30.98 8.88, 45.14 1.44 M11.3 33.56 C21.97 23.87, 31.97 8.2, 42.08 -0.54 M17.58 41.52 C26.45 28.05, 46.25 11.89, 51.04 1.07 M13.5 42.98 C25.63 28.87, 39.44 16.92, 53.74 1.24 M15.16 55.3 C26.96 35.96, 39.06 28.62, 65.08 -1.44 M15.55 55.21 C30.08 37.19, 44.95 25.38, 64.59 0.5 M19.24 64.06 C37.12 42.72, 46.84 27.35, 76.44 -1.96 M20.65 60.93 C32.92 47.25, 46.51 33.4, 76.36 -1.71 M23.24 73.1 C45.94 46.58, 74.78 17.57, 85.06 1.46 M23.65 69.24 C38.92 54.14, 53.5 37.82, 85.05 -1.32 M28.38 80.77 C50.83 45.89, 76.03 21.77, 96.27 -0.07 M24.18 78.03 C44.8 55.11, 70.12 31.16, 94.53 -1.94 M26.24 89.36 C52.48 57.96, 81.35 34.29, 103.39 1.14 M28.22 90.71 C51.1 64.91, 71.83 44.31, 108.26 0.44 M34.73 95.44 C65.74 62.17, 97.49 30.79, 114.37 -3.27 M33.19 98.59 C57.73 66.99, 84.77 37.67, 115 -1.25 M37.41 104.56 C56.35 80.69, 74.33 56.28, 126.41 -2.4 M34.3 105.42 C53.93 84.71, 72.81 61.67, 128.46 -1.78 M37.4 119.3 C67.73 81.66, 101.56 44.81, 123.49 16.47 M35.56 115.45 C53.02 93.76, 74.54 71.47, 123.89 12.69 M37.41 129.17 C61.33 101.69, 85.46 69.99, 114.43 34.98 M36.79 125.25 C65.83 94.87, 92.63 64.45, 113.25 39.77 M38.91 137.25 C61.45 109.46, 91.67 84.67, 103.84 61.16 M41.97 138.24 C60.84 112.74, 81.6 87.99, 103.16 64.24 M41.56 147.3 C48.57 130.54, 60.24 121.83, 95.53 89.69 M41.64 145.8 C55.26 131.72, 73.68 112.23, 91.42 86.18 M43.78 156.88 C56.03 144.62, 71.3 127.58, 84.93 109.38 M42.55 156.33 C56.72 143.69, 72.24 124.16, 86.49 106.45 M47.33 170.51 C62.32 154.85, 70.44 140.4, 76.63 129.66 M47.33 166.25 C56.34 155.44, 69.17 139.43, 78.02 129.12 M43.99 175.48 C55.18 172.21, 62.57 160.35, 74.11 143.11 M46.24 175.89 C53.02 171.83, 59.71 164.46, 73.78 145.89 M52.18 187.06 C52.79 179.31, 57.06 172.99, 66.45 165.39 M48.8 188.53 C53.8 180.25, 59.76 175.06, 67.28 163.98 M53.11 194.22 C54.4 190.31, 57.33 189.95, 63.26 185.65 M49.85 195.73 C53.76 192.49, 58.46 189.29, 60.56 186.34 M53.89 207.06 C53.44 205.81, 54.6 205.26, 56.26 203.13 M53.44 206.55 C54.18 206.04, 54.67 205.38, 56.09 203.49 M53.67 209.58 C53.67 209.58, 53.67 209.58, 53.67 209.58 M53.67 209.58 C53.67 209.58, 53.67 209.58, 53.67 209.58 M55.55 202.25 C54.01 198.55, 50.81 197.26, 51.25 195.95 M55.44 200.63 C54.57 199.45, 51.45 197.02, 50.63 196.72 M56.52 194.4 C53.9 189.38, 54.08 188.48, 49.66 183.54 M59.16 193 C55.72 190.81, 53.93 188.19, 47.71 182.96 M59.77 183.87 C59.71 183.06, 54.23 180.24, 43.71 167.2 M59.76 185.24 C56.53 182.39, 53.49 175.82, 47.64 172.4 M61.74 179.9 C60.08 173.3, 47.25 165, 42.43 160.74 M65.36 176 C55.79 171.44, 48.04 165.74, 41.72 156.66 M67.36 168.67 C58.51 165.7, 54.73 156.38, 41.26 145.5 M67.86 165.82 C60.34 161.79, 50.53 153.22, 41.43 146.29 M71.91 160.5 C59.99 153.48, 58.78 147.33, 35.75 132.62 M70.79 159.36 C59.52 149.23, 47.12 140.75, 41.06 132.92 M69.35 151.84 C61.45 143.42, 52.35 135.36, 33.52 117.65 M72.73 151.88 C62.22 142.17, 53.48 135.12, 36.79 122.55 M77.7 141.12 C64.11 135.24, 49.83 118.95, 37.59 111.13 M72.67 144.16 C65.75 135.4, 56.85 125.31, 35.98 107.3 M76.39 138.16 C60.9 126.93, 54.17 111.57, 37.59 96.51 M77.26 132.96 C64.58 121.8, 52.14 111.57, 36.28 98.34 M79.7 124.06 C65.44 113.5, 50.62 101.18, 31.75 85.69 M78.16 125.92 C65.03 111.78, 47.29 95.65, 29.53 82.49 M82.04 116.51 C72.86 110.83, 53.9 93.11, 27.7 67.22 M83.35 116.06 C69.22 107.12, 54.15 92.81, 26.6 69.53 M83.43 105.72 C69.33 91.61, 43.91 78.87, 19.95 57.91 M86.44 108.63 C62.49 92.96, 41.33 74, 20.73 56.79 M91.55 104.44 C61.69 82.68, 35.06 57.71, 14.6 38.04 M86.71 100.3 C69.68 83.91, 50.75 71.19, 16.16 39.51 M88.14 97.21 C72.23 75.38, 49.4 54.51, 15.67 24.61 M91.47 95.4 C61.69 68.91, 34.56 43.87, 12.46 25.09 M92.37 86.95 C63.13 58.17, 27.21 25.1, 7.97 14.04 M93.32 85.63 C71.12 62.16, 44.34 39.73, 7.31 10.89 M97.22 79.03 C63.55 45.32, 32.46 13.36, -0.47 -0.59 M98.49 77.15 C79.39 61.27, 58.29 42.42, 4.85 -5.51 M98.12 68.42 C64.76 44.65, 39.28 16.07, 16.75 -5.16 M101.41 70.8 C73.94 44.71, 41.98 19.38, 14.82 -2.79 M106.27 61.11 C84.89 42.03, 60.44 23.25, 30.05 -1.14 M106.01 62.61 C78.04 41.57, 53.01 20.38, 28.04 -3.55 M106.11 53.96 C86.73 38.82, 71.29 19.77, 38.99 -7.69 M109.04 56.68 C83.98 31.55, 57.76 12.02, 37.6 -5.28 M108.58 48.09 C91.57 29.83, 64.73 8.99, 55.04 -5.48 M109.35 45.65 C92.58 32.72, 77.5 16.01, 51.5 -3.17 M116.6 36.74 C100.87 28.23, 80.96 12.8, 65.79 -5.37 M115.27 39.62 C104.21 29.14, 91.97 21.32, 64.77 -3.67 M114.36 34.66 C104.17 19.11, 89.24 7.65, 79.19 -4.47 M117.83 30.6 C104.65 19.11, 92.49 7.96, 77.71 -3.53 M120.77 25.98 C113.39 18.76, 98.54 4.6, 91.56 -3.51 M122.19 25.43 C110.1 14.74, 98.9 4.59, 87.8 -4.09 M122.77 17.59 C116.66 9.27, 112.21 6.59, 99.86 -2.88 M124.83 18.25 C118.53 8.33, 108.03 4.28, 99.93 -2.28 M128.76 10.99 C119.59 5.28, 118.16 -2.2, 113.9 -7.36 M128.95 11.4 C123 5.21, 115.28 -0.14, 110.48 -4.24 M132.46 0.65 C130.14 -1.72, 128.78 -2.7, 124.09 -4.01 M130.57 0.73 C129.59 0.19, 127.78 -1.53, 124.56 -5" stroke="#202325" stroke-width="1" fill="none"></path><path d="M2.8 1.57 C12.02 22.92, 19.48 54.07, 31.48 104.62 M0.34 -0.59 C9.47 36.13, 22.49 67.89, 34.28 100.73 M35.44 105.2 C34.08 137.61, 41.71 168.99, 53.23 209.55 M31.71 103.91 C41.15 125.6, 43.72 149.86, 52.41 208.2 M53.35 211.84 C60.48 178.08, 71.43 144.25, 85.47 99.47 M53.57 209.92 C67.09 171.07, 79.93 130.7, 87.04 104.71 M88.1 98.89 C108.07 64.98, 120.59 26.29, 133.26 0.8 M88.59 103.81 C101.99 68.27, 115.39 37.18, 132.54 -0.95 M133.66 -1.66 C104.9 0.18, 74.41 -1.65, -1.73 -3.14 M130.44 -2.18 C91.63 -0.32, 50.76 -2.34, -0.13 -0.22 M0 0 C0 0, 0 0, 0 0 M0 0 C0 0, 0 0, 0 0" stroke="#d3d3d3" stroke-width="2" fill="none"></path></g></g><mask></mask><g stroke-linecap="round"><g transform="translate(191.83557626976335 503.2333066975948) rotate(32.9312054570197 32.06889714136787 37.218585896650325)" fill-rule="evenodd"><path d="M0 0 C0 0, 0 0, 0 0 M0 0 C0 0, 0 0, 0 0 M1.26 3.85 C1.73 2.73, 4.16 2.79, 5.65 -0.61 M1.34 3.72 C3.06 3.35, 3.58 1.83, 5.37 0.25 M3.49 7.72 C6.63 4.56, 7.65 2.64, 9.69 0.67 M1.75 9.81 C5.98 6.54, 8.63 1.7, 9.65 -0.76 M2.78 14.86 C7.41 6.17, 8.08 6.03, 18.52 2.73 M4.4 14.59 C9.49 10.05, 11.2 4.49, 15.02 -1.23 M3.56 14.19 C5.4 10.72, 13.65 8.62, 19.2 0 M6.18 16.99 C9.81 13.99, 10.66 8.32, 22.8 -1.75 M7.11 20.86 C15.19 12.98, 21.23 9.22, 27.3 2.01 M8.09 22.23 C12.35 15.8, 19.64 9.77, 24.74 1.15 M10.13 23.63 C16.87 19.85, 20.56 15.53, 33.1 1.69 M7.82 25.23 C18.7 14.72, 28.7 6.56, 33.36 1.63 M11.99 26.92 C22.46 17.8, 29.31 6.95, 39.73 -0.9 M11.46 32.22 C20.7 20.3, 31.99 6.91, 36.26 -1.22 M9.06 34.95 C24.08 21.95, 29.71 15.96, 39.59 3.22 M13.21 32.83 C18.77 24.12, 26.99 15.45, 42.94 -0.4 M15.37 40.87 C23.6 28.3, 36.45 11.79, 47.69 1.37 M15.06 39.12 C25.65 27.99, 36.71 12.92, 47.24 0.36 M15.14 43.87 C28.48 31.95, 41.64 15.34, 53.56 0.52 M16.42 42.64 C26.5 32.67, 38.15 21.13, 54.28 -2.12 M17.53 45.11 C34.2 32.82, 45.98 13.07, 54.6 -3.26 M15.9 48.28 C31.04 30.13, 44.73 11.98, 58.9 -1.13 M17.18 48.8 C24.19 42.58, 36.89 35.16, 63.3 1.24 M16.94 51.28 C34.25 35.11, 48.69 17.64, 63.92 -0.02 M22.86 59.31 C23.89 48.31, 36.36 34.16, 58.8 13.15 M19.5 56.34 C34.35 42.75, 44.53 23.72, 56.79 16.44 M20.09 57.08 C26.81 52.12, 39.44 44.89, 51.55 31.1 M19.75 61.39 C30.82 48.59, 42.86 37.86, 49.27 31.62 M24.44 67 C25.32 58.37, 30.82 55.8, 45.17 42.87 M22.46 63.95 C27.77 61.03, 31.42 53.73, 40.4 42.6 M23.13 67.92 C27.05 67.82, 27.94 63.36, 33.19 60.73 M23.49 69.9 C28.24 66.61, 32.17 60.22, 32.5 58.28" stroke="#6e757c" stroke-width="0.5" fill="none"></path><path d="M-0.19 -0.87 C3.61 22.28, 12.47 38.04, 25.3 74.54 M1.57 1.3 C5.36 22.13, 12.54 44.44, 24.64 73.06 M28.51 76.44 C37.8 47.7, 47.82 29.7, 66.26 2.69 M27.17 72.55 C41.74 44.13, 58.27 15.95, 62.86 0.25 M62.48 -0.22 C44.31 0.57, 18.41 1.22, -2.12 1.71 M64.13 -2.01 C39.8 0.77, 18.08 1.3, -1.9 -0.47 M0 0 C0 0, 0 0, 0 0 M0 0 C0 0, 0 0, 0 0" stroke="#d3d3d3" stroke-width="1" fill="none"></path></g></g><mask></mask><g stroke-linecap="round"><g transform="translate(123.31814122523019 470.7475815424259) rotate(32.9312054570197 -3.969616554888944 31.426131059536942)"><path d="M0 0 C-1.41 21.78, -5.53 43.08, -7.94 62.85 M0 0 C-2.43 19.78, -5.51 38.89, -7.94 62.85" stroke="#d3d3d3" stroke-width="2" fill="none"></path></g></g><mask></mask><g stroke-linecap="round"><g transform="translate(95.67335989755065 519.1106682341117) rotate(32.9312054570197 -8.32657972520451 67.121640917445)"><path d="M0 0 C-4.2 36.44, -7.91 70.27, -16.65 134.24 M0 0 C-5 40.6, -8.93 81.64, -16.65 134.24" stroke="#d3d3d3" stroke-width="2" fill="none"></path></g></g><mask></mask><g stroke-linecap="round"><g transform="translate(198.93838244265908 609.2852181137002) rotate(32.9312054570197 12.822123558996282 64.9419826273637)"><path d="M0 0 C8.53 42.61, 16.97 87.47, 25.64 129.88 M0 0 C8.55 41.06, 16.44 82.74, 25.64 129.88" stroke="#d3d3d3" stroke-width="2" fill="none"></path></g></g><mask></mask><g stroke-linecap="round"><g transform="translate(270.08298106273924 568.0112473556655) rotate(32.9312054570197 3.9696165548887166 37.7113572714444)"><path d="M0 0 C2.92 26.57, 5.89 51.34, 7.94 75.42 M0 0 C3.36 20.6, 5.61 39.49, 7.94 75.42" stroke="#d3d3d3" stroke-width="2" fill="none"></path></g></g><mask></mask><g stroke-linecap="round"><g transform="translate(443.7016011186711 98.8156789328882) rotate(32.9312054570197 63.51158820019282 7.78421822013496)"><path d="M1.35 1.29 C12.42 3.68, 47.85 16, 69.02 16.05 C90.19 16.1, 118.2 3.95, 128.39 1.59 M-1.37 -0.48 C8.99 1.05, 44.71 11.65, 66.1 12.51 C87.49 13.38, 117.43 5.98, 126.99 4.68" stroke="#d3d3d3" stroke-width="2" fill="none"></path></g></g><mask></mask><g stroke-linecap="round"><g transform="translate(83.16882036752668 437.0302602140298) rotate(32.9312054570197 19.498679383758827 -37.39971764872428)"><path d="M-0.43 -0.37 C-0.93 -4.5, -11.37 -9.94, -4.94 -22.11 C1.48 -34.29, 29.41 -67.68, 38.12 -73.4 C46.83 -79.12, 46.15 -59.29, 47.32 -56.43 M-4.1 -3.03 C-4.71 -6.69, -13.49 -14.26, -6.63 -25.64 C0.23 -37.02, 27.9 -66.35, 37.05 -71.3 C46.19 -76.25, 46.16 -57.76, 48.23 -55.33" stroke="#d3d3d3" stroke-width="1" fill="none"></path></g></g><mask></mask><g stroke-linecap="round"><g transform="translate(409.2087483369464 620.8396616261359) rotate(32.9312054570197 -17.667203307476257 -34.9088598060257)"><path d="M-2.53 2.69 C-2.02 -1.24, 10.09 -12.31, 4.13 -24.72 C-1.84 -37.14, -29.82 -67.11, -38.32 -71.81 C-46.82 -76.5, -45.5 -56.17, -46.84 -52.9 M1.3 1.68 C2.61 -1.65, 16.58 -9.27, 9.54 -21.03 C2.49 -32.78, -31.66 -64.03, -40.97 -68.84 C-50.28 -73.64, -44.88 -52.95, -46.33 -49.87" stroke="#d3d3d3" stroke-width="1" fill="none"></path></g></g><mask></mask><g stroke-linecap="round" transform="translate(337.5599384474017 506.88727085922596) rotate(32.9312054570197 13.415975743915851 2.7226626646687464)"><path d="M1.43 -0.08 C1.43 -0.08, 1.43 -0.08, 1.43 -0.08 M1.43 -0.08 C1.43 -0.08, 1.43 -0.08, 1.43 -0.08 M1.83 5.56 C2.69 4.96, 4.31 2.75, 6.42 0.28 M1.83 5.56 C3.34 3.32, 5.24 1.76, 6.42 0.28 M6.81 5.92 C8.82 4.96, 8.62 3.08, 12.06 -0.12 M6.81 5.92 C7.84 4.37, 9.48 2.67, 12.06 -0.12 M12.46 5.53 C13.29 4.62, 15.66 2.72, 17.05 0.24 M12.46 5.53 C13.96 3.92, 15.18 2.48, 17.05 0.24 M17.44 5.89 C18.97 4.43, 20.37 1.43, 22.69 -0.15 M17.44 5.89 C18.98 4.9, 19.45 3.39, 22.69 -0.15 M23.09 5.49 C23.99 4.52, 24.56 3.9, 26.37 1.72 M23.09 5.49 C23.93 4.58, 24.75 3.51, 26.37 1.72 M1.66 5.71 C1.66 5.71, 1.66 5.71, 1.66 5.71 M1.66 5.71 C1.66 5.71, 1.66 5.71, 1.66 5.71 M7.31 5.31 C4.83 2.64, 2.58 2.01, 1.27 0.06 M7.31 5.31 C5.05 3.42, 3.07 1.43, 1.27 0.06 M13.7 5.57 C12.13 5.27, 10.76 3.85, 6.16 -0.99 M13.7 5.57 C10.89 2.91, 7.88 1.04, 6.16 -0.99 M19.35 5.18 C17.56 3.17, 15.36 2.38, 12.55 -0.72 M19.35 5.18 C17.99 3.46, 16.45 2.44, 12.55 -0.72 M25.75 5.44 C23.5 3.11, 22.36 2.14, 18.95 -0.46 M25.75 5.44 C24.67 4.72, 22.97 2.67, 18.95 -0.46" stroke="#33383d" stroke-width="0.5" fill="none"></path><path d="M1.36 0 C11.83 -1.76, 20.69 0.45, 25.47 0 M1.36 0 C8.09 -0.53, 14.64 1.02, 25.47 0 M25.47 0 C25.02 -0.39, 26.66 1.46, 26.83 1.36 M25.47 0 C25.62 1.09, 28.44 -1.43, 26.83 1.36 M26.83 1.36 C26.78 1.95, 26.82 3.14, 26.83 4.08 M26.83 1.36 C26.68 2.27, 26.71 3.04, 26.83 4.08 M26.83 4.08 C26.96 6.31, 26.42 7.23, 25.47 5.45 M26.83 4.08 C29.11 5.6, 24.83 6.08, 25.47 5.45 M25.47 5.45 C17.64 3.7, 9.26 7.07, 1.36 5.45 M25.47 5.45 C19.81 5.17, 11.45 5.34, 1.36 5.45 M1.36 5.45 C-0.43 6.79, 0.99 5.92, 0 4.08 M1.36 5.45 C1.78 4.82, -1.99 6.84, 0 4.08 M0 4.08 C-0.16 3.14, -0.18 2.44, 0 1.36 M0 4.08 C0.14 3.15, -0.09 2.04, 0 1.36 M0 1.36 C0.14 -1.24, -0.93 -0.55, 1.36 0 M0 1.36 C-2.22 0.86, -1.27 -1.25, 1.36 0" stroke="#d3d3d3" stroke-width="1" fill="none"></path></g><g stroke-linecap="round" transform="translate(181.13440692473205 404.8403146223161) rotate(32.9312054570197 13.415975743915851 2.7226626646687464)"><path d="M1.43 -0.08 C1.43 -0.08, 1.43 -0.08, 1.43 -0.08 M1.43 -0.08 C1.43 -0.08, 1.43 -0.08, 1.43 -0.08 M1.83 5.56 C2.39 4.61, 3.55 2.68, 6.42 0.28 M1.83 5.56 C2.82 3.99, 4.05 2.63, 6.42 0.28 M6.81 5.92 C8.53 5.15, 9.6 3.53, 12.06 -0.12 M6.81 5.92 C8.57 3.83, 10.02 1.96, 12.06 -0.12 M12.46 5.53 C14.08 4.14, 14.63 2.46, 17.05 0.24 M12.46 5.53 C13.61 4.45, 14.63 2.84, 17.05 0.24 M17.44 5.89 C18.56 4.72, 20.45 1.36, 22.69 -0.15 M17.44 5.89 C19.24 3.98, 21.23 2.29, 22.69 -0.15 M23.09 5.49 C23.83 4.75, 25.48 2.92, 26.37 1.72 M23.09 5.49 C24.37 4.41, 25.27 2.91, 26.37 1.72 M1.66 5.71 C1.66 5.71, 1.66 5.71, 1.66 5.71 M1.66 5.71 C1.66 5.71, 1.66 5.71, 1.66 5.71 M7.31 5.31 C5.5 3.8, 4.1 2.15, 2.78 1.38 M7.31 5.31 C5.74 4.07, 4.24 2.64, 2.78 1.38 M13.7 5.57 C9.86 3.35, 5.49 -1.47, 3.89 -2.95 M13.7 5.57 C12.07 3.99, 9.41 1.93, 3.89 -2.95 M19.35 5.18 C16.24 4.04, 14.12 2.04, 10.29 -2.69 M19.35 5.18 C15.54 2.82, 12.61 -0.59, 10.29 -2.69 M25.75 5.44 C23.47 4.25, 19.52 1.35, 15.93 -3.09 M25.75 5.44 C22.76 2.49, 20.4 0.56, 15.93 -3.09" stroke="#33383d" stroke-width="0.5" fill="none"></path><path d="M1.36 0 C6.44 -1.13, 15.08 1.13, 25.47 0 M1.36 0 C9.19 0.44, 16.92 1.01, 25.47 0 M25.47 0 C26.19 -1.44, 26.66 -0.34, 26.83 1.36 M25.47 0 C28.51 -0.86, 25.15 -1.4, 26.83 1.36 M26.83 1.36 C26.96 1.89, 26.97 3.03, 26.83 4.08 M26.83 1.36 C26.91 2.34, 26.75 3.45, 26.83 4.08 M26.83 4.08 C26.84 6.97, 27.6 3.77, 25.47 5.45 M26.83 4.08 C27.02 4.33, 28.41 6.12, 25.47 5.45 M25.47 5.45 C20.49 5.35, 15.14 4.15, 1.36 5.45 M25.47 5.45 C20.55 5.75, 15.42 4.75, 1.36 5.45 M1.36 5.45 C1.01 5.55, -0.74 6.41, 0 4.08 M1.36 5.45 C0.94 5.22, 0.96 4.53, 0 4.08 M0 4.08 C-0.21 3.06, 0.06 2.38, 0 1.36 M0 4.08 C-0.02 2.91, 0.05 2, 0 1.36 M0 1.36 C0.23 -0.92, 2.27 -0.25, 1.36 0 M0 1.36 C0.9 -0.67, -0.31 1.45, 1.36 0" stroke="#d3d3d3" stroke-width="1" fill="none"></path></g><g stroke-linecap="round" transform="translate(241.71517204850807 290.7125392074332) rotate(32.9312054570197 13.415975743915851 24.179791400082365)"><path d="M1.79 1.55 C1.79 1.55, 1.79 1.55, 1.79 1.55 M1.79 1.55 C1.79 1.55, 1.79 1.55, 1.79 1.55 M1.52 7.95 C3.45 4.33, 4.4 2.69, 7.43 1.16 M1.52 7.95 C2.71 6.64, 5.75 3.51, 7.43 1.16 M1.26 14.35 C7.55 8.42, 4.06 9.2, 13.07 0.76 M1.26 14.35 C6.04 11.63, 6.66 6.58, 13.07 0.76 M1.66 19.99 C5.77 12.72, 16.22 6.53, 18.06 1.12 M1.66 19.99 C7.26 16.93, 11.32 11.71, 18.06 1.12 M1.4 26.39 C8.37 19.95, 15.88 7.6, 23.7 0.73 M1.4 26.39 C9.05 18.06, 19.95 7.3, 23.7 0.73 M1.79 32.03 C10.02 25.18, 12.44 20.94, 26.72 3.35 M1.79 32.03 C10.71 22.25, 18.09 13.7, 26.72 3.35 M1.53 38.43 C5.79 32.76, 10.86 25.56, 29.08 6.73 M1.53 38.43 C10.09 29.35, 16.37 20.94, 29.08 6.73 M1.27 44.83 C8.79 32.79, 26.24 17.59, 29.48 12.37 M1.27 44.83 C6.56 35.77, 14.95 29.18, 29.48 12.37 M3.63 48.21 C7.4 35.94, 19.88 34.45, 29.22 18.77 M3.63 48.21 C9.02 40.93, 16.15 33.62, 29.22 18.77 M9.27 47.81 C14.24 39.14, 25.27 30.54, 29.61 24.42 M9.27 47.81 C13.02 43.42, 19.79 35.53, 29.61 24.42 M14.26 48.17 C15.25 41.06, 24 43.5, 29.35 30.81 M14.26 48.17 C19.46 41.06, 26.86 35.75, 29.35 30.81 M19.9 47.78 C23.45 42.17, 27.39 41.49, 29.74 36.46 M19.9 47.78 C23.46 44.28, 25.39 41.26, 29.74 36.46 M3.55 47.74 C3.55 47.74, 3.55 47.74, 3.55 47.74 M3.55 47.74 C3.55 47.74, 3.55 47.74, 3.55 47.74 M9.95 48.01 C6.16 45.98, 7.43 44.8, 3.15 42.1 M9.95 48.01 C7.78 46.25, 6.7 45.97, 3.15 42.1 M16.34 48.27 C10.82 48.95, 7.81 45.44, 2.76 36.46 M16.34 48.27 C11.16 45.61, 10 42.19, 2.76 36.46 M21.99 47.87 C20.95 44.34, 15.93 36.96, 2.36 30.81 M21.99 47.87 C15.92 43.58, 10.22 39.43, 2.36 30.81 M25.36 45.51 C18.88 41.69, 19.19 34.59, 2.72 25.83 M25.36 45.51 C17.22 39.9, 11.44 31.22, 2.72 25.83 M27.23 41.83 C21.2 36.56, 17.06 30.9, 2.33 20.18 M27.23 41.83 C20.9 35.66, 17.26 31.92, 2.33 20.18 M26.84 36.19 C17.33 27.07, 10.94 19.34, 2.69 15.2 M26.84 36.19 C18.97 32.18, 12.24 25.42, 2.69 15.2 M26.45 30.55 C17.83 25.54, 13.95 15.56, 2.29 9.55 M26.45 30.55 C21.91 26.79, 14.65 22.63, 2.29 9.55 M26.81 25.56 C17.57 19.66, 7.45 13.31, 1.9 3.91 M26.81 25.56 C17.56 17.47, 11.39 13, 1.9 3.91 M26.41 19.92 C24.88 17.98, 17.07 10.39, 3.01 -0.42 M26.41 19.92 C19.25 13.58, 14.11 7.94, 3.01 -0.42 M26.77 14.93 C18.76 10.53, 17.41 7.93, 7.9 -1.47 M26.77 14.93 C20.42 9.71, 13.71 1.82, 7.9 -1.47 M26.38 9.29 C23.57 7.7, 19.82 3.35, 14.3 -1.21 M26.38 9.29 C24.67 6.05, 20.31 3.47, 14.3 -1.21 M26.74 4.3 C25.5 1.46, 21.24 1.91, 20.7 -0.95 M26.74 4.3 C23.74 2.2, 22.43 0.38, 20.7 -0.95" stroke="#33383d" stroke-width="0.5" fill="none"></path><path d="M6.71 0 C9.42 1.7, 14.6 1.33, 20.12 0 M6.71 0 C11.91 -1.46, 13.46 0.6, 20.12 0 M20.12 0 C26.98 -0.1, 27.61 -0.49, 26.83 6.71 M20.12 0 C23.24 -4.38, 24.14 2.31, 26.83 6.71 M26.83 6.71 C28.35 22.37, 25.6 29.06, 26.83 41.65 M26.83 6.71 C26.1 15.46, 27.13 23.47, 26.83 41.65 M26.83 41.65 C30.17 42.23, 23.11 51.57, 20.12 48.36 M26.83 41.65 C28.51 48.4, 22.83 45.97, 20.12 48.36 M20.12 48.36 C15.34 47.57, 14.05 48.19, 6.71 48.36 M20.12 48.36 C17.42 47.87, 12.55 47.77, 6.71 48.36 M6.71 48.36 C-0.35 50.09, -1.12 45.5, 0 41.65 M6.71 48.36 C0.86 45.31, -0.64 48.83, 0 41.65 M0 41.65 C2.57 38.01, -1.57 30.43, 0 6.71 M0 41.65 C1.63 33.02, -1.06 21.34, 0 6.71 M0 6.71 C-0.84 2.65, 0.69 1.09, 6.71 0 M0 6.71 C1.2 1.85, -2.31 -0.96, 6.71 0" stroke="#d3d3d3" stroke-width="1" fill="none"></path></g><g stroke-linecap="round" transform="translate(393.9906911318476 383.28315296115693) rotate(32.9312054570197 13.415975743915851 24.17979140008231)"><path d="M1.79 1.55 C1.79 1.55, 1.79 1.55, 1.79 1.55 M1.79 1.55 C1.79 1.55, 1.79 1.55, 1.79 1.55 M1.52 7.95 C2.75 6.51, 3.71 4.59, 7.43 1.16 M1.52 7.95 C3.25 5.99, 5.17 3.25, 7.43 1.16 M1.26 14.35 C3.74 9.44, 8.73 4.23, 13.07 0.76 M1.26 14.35 C4.34 10.27, 8.01 7.38, 13.07 0.76 M1.66 19.99 C7 13.21, 13.74 4.1, 18.06 1.12 M1.66 19.99 C5.58 14.26, 10.45 10.06, 18.06 1.12 M1.4 26.39 C9.33 19.64, 12.14 12.81, 23.7 0.73 M1.4 26.39 C9.66 17.08, 18.85 7.52, 23.7 0.73 M1.79 32.03 C6.7 25.06, 13.99 19.17, 26.72 3.35 M1.79 32.03 C12.2 19.88, 20.81 8.72, 26.72 3.35 M1.53 38.43 C10.76 29.8, 16.17 20.08, 29.08 6.73 M1.53 38.43 C10.4 27.8, 18.32 19.2, 29.08 6.73 M1.27 44.83 C6.1 35.59, 15.74 30.18, 29.48 12.37 M1.27 44.83 C7.5 36.94, 15.84 29.28, 29.48 12.37 M3.63 48.21 C11.24 36.58, 23.68 26.46, 29.22 18.77 M3.63 48.21 C11.99 39.26, 20.25 30.28, 29.22 18.77 M9.27 47.81 C13.75 38.64, 21.81 32.8, 29.61 24.42 M9.27 47.81 C14.71 41.29, 20.21 34.67, 29.61 24.42 M14.26 48.17 C20.05 41.53, 24.2 34.14, 29.35 30.81 M14.26 48.17 C17.91 42.99, 22.29 38.72, 29.35 30.81 M19.9 47.78 C24.77 43.44, 26.59 37.9, 29.74 36.46 M19.9 47.78 C21.82 44.51, 24.61 42.31, 29.74 36.46 M3.55 47.74 C3.55 47.74, 3.55 47.74, 3.55 47.74 M3.55 47.74 C3.55 47.74, 3.55 47.74, 3.55 47.74 M9.95 48.01 C8.35 45.07, 5.18 43.66, 0.89 40.13 M9.95 48.01 C6.54 45.31, 4.9 43.52, 0.89 40.13 M16.34 48.27 C10.6 41.16, 2.62 37.87, 0.49 34.49 M16.34 48.27 C11.73 43.87, 8.42 41.34, 0.49 34.49 M21.99 47.87 C17.61 43.26, 9.21 39.77, 0.85 29.5 M21.99 47.87 C14.41 42.34, 9.49 35.76, 0.85 29.5 M25.36 45.51 C16.14 36.87, 9.06 32.66, 0.46 23.86 M25.36 45.51 C17.74 38.12, 9.29 31.81, 0.46 23.86 M27.23 41.83 C16.93 35.25, 8.96 24.9, 0.82 18.87 M27.23 41.83 C22.06 36.26, 15.55 32.28, 0.82 18.87 M26.84 36.19 C21.82 32.29, 16.76 28.3, 0.42 13.23 M26.84 36.19 C20.35 30.24, 11.62 23.49, 0.42 13.23 M26.45 30.55 C18.38 20.47, 6.63 12.76, 0.79 8.24 M26.45 30.55 C19.83 24.25, 13.82 19.73, 0.79 8.24 M26.81 25.56 C16.86 18.86, 11.23 12.07, 1.15 3.26 M26.81 25.56 C20.33 20.35, 14.42 14.28, 1.15 3.26 M26.41 19.92 C18.12 11.85, 7.72 3.07, 4.52 0.89 M26.41 19.92 C22.44 14.87, 16.41 10.89, 4.52 0.89 M26.77 14.93 C20.01 8.27, 13.47 1.32, 8.66 -0.81 M26.77 14.93 C20.26 8.46, 13.69 3.98, 8.66 -0.81 M26.38 9.29 C23.19 4.54, 19.31 2, 15.06 -0.55 M26.38 9.29 C23.01 6.12, 21.06 3.59, 15.06 -0.55 M26.74 4.3 C25.54 2.97, 24.93 1.62, 21.45 -0.29 M26.74 4.3 C24.71 2.86, 22.61 1.21, 21.45 -0.29" stroke="#33383d" stroke-width="0.5" fill="none"></path><path d="M6.71 0 C9.6 0.52, 13.74 0.4, 20.12 0 M6.71 0 C11.07 0.2, 16.82 0, 20.12 0 M20.12 0 C25.6 -0.5, 27.88 3.05, 26.83 6.71 M20.12 0 C23.77 -1.17, 26.63 2.32, 26.83 6.71 M26.83 6.71 C28.35 17.2, 26.78 23.6, 26.83 41.65 M26.83 6.71 C26.62 17.38, 26.8 27, 26.83 41.65 M26.83 41.65 C26.74 44.37, 23.12 49.3, 20.12 48.36 M26.83 41.65 C27.01 44.69, 25.79 48.64, 20.12 48.36 M20.12 48.36 C17.11 47.69, 14.75 49.4, 6.71 48.36 M20.12 48.36 C15.91 48.63, 11.72 48.52, 6.71 48.36 M6.71 48.36 C1.36 49.18, -0.6 45.74, 0 41.65 M6.71 48.36 C2.21 47.07, -1.54 45.21, 0 41.65 M0 41.65 C0.28 31.55, 1.22 19.77, 0 6.71 M0 41.65 C-0.43 27.49, -0.29 15.53, 0 6.71 M0 6.71 C-1.05 2.46, 0.29 -0.38, 6.71 0 M0 6.71 C1.17 1.21, 0.67 -1.31, 6.71 0" stroke="#d3d3d3" stroke-width="1" fill="none"></path></g><g stroke-linecap="round" transform="translate(226.05358892058257 434.31689055248967) rotate(32.9312054570197 13.415975743915851 2.7226626646687464)"><path d="M1.43 -0.08 C1.43 -0.08, 1.43 -0.08, 1.43 -0.08 M1.43 -0.08 C1.43 -0.08, 1.43 -0.08, 1.43 -0.08 M1.83 5.56 C3.43 3.95, 5.36 2.76, 6.42 0.28 M1.83 5.56 C3.03 4.27, 4.86 2.24, 6.42 0.28 M6.81 5.92 C9.08 4.59, 10.11 1.93, 12.06 -0.12 M6.81 5.92 C8.76 3.48, 10.3 1.76, 12.06 -0.12 M12.46 5.53 C14.96 2.95, 15.62 2.06, 17.05 0.24 M12.46 5.53 C14.01 3.5, 15.98 1.69, 17.05 0.24 M17.44 5.89 C18.97 4.15, 20.85 2.53, 22.69 -0.15 M17.44 5.89 C18.78 3.9, 21.07 1.77, 22.69 -0.15 M23.09 5.49 C24.11 4.96, 25.04 3.64, 26.37 1.72 M23.09 5.49 C24.2 4.07, 25.39 2.85, 26.37 1.72 M1.66 5.71 C1.66 5.71, 1.66 5.71, 1.66 5.71 M1.66 5.71 C1.66 5.71, 1.66 5.71, 1.66 5.71 M7.31 5.31 C5.87 3.74, 5.05 3.13, 2.78 1.38 M7.31 5.31 C6.54 4.62, 4.98 3.66, 2.78 1.38 M13.7 5.57 C9.84 1.53, 5.2 -0.1, 3.89 -2.95 M13.7 5.57 C9.99 2.94, 6.77 -1.42, 3.89 -2.95 M19.35 5.18 C15.07 3.52, 12.16 0.25, 10.29 -2.69 M19.35 5.18 C16.18 2.23, 11.89 -0.58, 10.29 -2.69 M25.75 5.44 C21.97 1.62, 19.23 -0.56, 15.93 -3.09 M25.75 5.44 C22.86 2.66, 20.31 0.52, 15.93 -3.09" stroke="#33383d" stroke-width="0.5" fill="none"></path><path d="M1.36 0 C10.44 1.49, 16.74 0.49, 25.47 0 M1.36 0 C10.37 -0.43, 19.99 0.15, 25.47 0 M25.47 0 C26.18 0.83, 26.43 1.73, 26.83 1.36 M25.47 0 C25.07 -1.61, 24.91 0.21, 26.83 1.36 M26.83 1.36 C26.67 2.3, 26.78 2.81, 26.83 4.08 M26.83 1.36 C26.74 2.36, 26.81 3.17, 26.83 4.08 M26.83 4.08 C25.85 4.33, 27.64 3.82, 25.47 5.45 M26.83 4.08 C28.39 4.45, 25.36 6.91, 25.47 5.45 M25.47 5.45 C16.61 6.43, 10.25 3.47, 1.36 5.45 M25.47 5.45 C18.61 5.13, 14.29 4.97, 1.36 5.45 M1.36 5.45 C1 4.8, -1.82 4.37, 0 4.08 M1.36 5.45 C2.16 6.4, -1.33 4.09, 0 4.08 M0 4.08 C-0.18 3.15, 0.1 3.02, 0 1.36 M0 4.08 C0.09 3.37, 0.04 2.41, 0 1.36 M0 1.36 C-0.04 -0.42, -0.54 1.28, 1.36 0 M0 1.36 C-1.37 2.13, 0.15 -0.3, 1.36 0" stroke="#d3d3d3" stroke-width="1" fill="none"></path></g><g stroke-linecap="round" transform="translate(292.659369321987 477.8399166789402) rotate(32.9312054570197 13.415975743915851 2.7226626646687464)"><path d="M1.43 -0.08 C1.43 -0.08, 1.43 -0.08, 1.43 -0.08 M1.43 -0.08 C1.43 -0.08, 1.43 -0.08, 1.43 -0.08 M1.83 5.56 C3.83 4.27, 4.75 1.15, 6.42 0.28 M1.83 5.56 C3.42 3.25, 5.44 1.33, 6.42 0.28 M6.81 5.92 C9.08 3.73, 10.66 1.9, 12.06 -0.12 M6.81 5.92 C8.76 3.6, 10.25 2.21, 12.06 -0.12 M12.46 5.53 C13.61 4.49, 15.32 3.34, 17.05 0.24 M12.46 5.53 C13.61 3.9, 15.07 2.39, 17.05 0.24 M17.44 5.89 C19.12 4.18, 18.86 3.88, 22.69 -0.15 M17.44 5.89 C18.7 4.73, 20.05 3.29, 22.69 -0.15 M23.09 5.49 C23.39 4.97, 24.57 3.22, 27.02 0.97 M23.09 5.49 C24.67 4.11, 26.27 2.35, 27.02 0.97 M1.66 5.71 C1.66 5.71, 1.66 5.71, 1.66 5.71 M1.66 5.71 C1.66 5.71, 1.66 5.71, 1.66 5.71 M7.31 5.31 C6.56 3.36, 5.1 2.23, 1.27 0.06 M7.31 5.31 C5 3.79, 3.5 1.57, 1.27 0.06 M13.7 5.57 C10.35 3.13, 7.84 1.62, 6.16 -0.99 M13.7 5.57 C10.68 3.19, 8.06 0.99, 6.16 -0.99 M19.35 5.18 C18.12 3.82, 15.92 1.37, 12.55 -0.72 M19.35 5.18 C17.74 3.49, 15.89 1.74, 12.55 -0.72 M25.75 5.44 C24.21 3.54, 22.25 1.64, 18.95 -0.46 M25.75 5.44 C23.87 3.89, 22.38 2.17, 18.95 -0.46" stroke="#33383d" stroke-width="0.5" fill="none"></path><path d="M1.36 0 C7.8 0.18, 13.04 1.77, 25.47 0 M1.36 0 C7.96 0.75, 14.41 0.79, 25.47 0 M25.47 0 C25.91 -0.89, 28.1 0.75, 26.83 1.36 M25.47 0 C27.43 -0.6, 25.36 1.66, 26.83 1.36 M26.83 1.36 C26.99 2.32, 26.56 2.86, 26.83 4.08 M26.83 1.36 C26.77 2.25, 26.77 3.49, 26.83 4.08 M26.83 4.08 C27.66 3.83, 25.6 4.3, 25.47 5.45 M26.83 4.08 C26.37 4.18, 24.81 3.16, 25.47 5.45 M25.47 5.45 C19.26 5.65, 10.94 6.79, 1.36 5.45 M25.47 5.45 C16.73 4.95, 9.5 4.84, 1.36 5.45 M1.36 5.45 C1.91 5.18, -0.26 3.7, 0 4.08 M1.36 5.45 C-1.28 5.56, -1.88 5.81, 0 4.08 M0 4.08 C0.04 3.11, -0.07 2.15, 0 1.36 M0 4.08 C0.06 3, -0.12 1.95, 0 1.36 M0 1.36 C0.34 1.73, 2.45 -0.22, 1.36 0 M0 1.36 C-2.12 0.56, -0.66 1.58, 1.36 0" stroke="#d3d3d3" stroke-width="1" fill="none"></path></g><g stroke-linecap="round"><g transform="translate(162.6307855320174 421.65569943562014) rotate(32.9312054570197 3.6220775488866366 8.99877574448874)"><path d="M1.1 -0.46 C2.36 2.75, 5.96 15.38, 7.03 18.84 M0.21 -1.75 C1.38 1.61, 5.03 15.84, 6.18 19.75" stroke="#d3d3d3" stroke-width="1" fill="none"></path></g></g><mask></mask><g stroke-linecap="round"><g transform="translate(171.74770923830738 424.8501549959701) rotate(32.9312054570197 2.645030140228073 10.299504763598293)"><path d="M-0.01 0.6 C0.58 3.81, 3.76 16.47, 4.67 19.64 M-1.47 -0.13 C-0.64 3.17, 5.76 17.3, 6.76 20.73" stroke="#d3d3d3" stroke-width="1" fill="none"></path></g></g><mask></mask><g stroke-linecap="round"><g transform="translate(178.25469829781514 429.54395475482215) rotate(32.9312054570197 4.008044123453374 11.229714351351163)"><path d="M0.61 -1.17 C1.78 2.64, 5.28 18.28, 6.35 22.05 M-0.53 0.83 C1.07 4.93, 7.44 20.02, 8.55 23.63" stroke="#d3d3d3" stroke-width="1" fill="none"></path></g></g><mask></mask><g stroke-linecap="round"><g transform="translate(189.63292593212145 434.7222183178087) rotate(32.9312054570197 2.139805690420644 12.180465604022174)"><path d="M0.67 -0.7 C1.47 3.35, 4.14 21.04, 4.72 25.06 M-0.44 1.55 C0.24 5.18, 3.33 19.5, 3.94 23.28" stroke="#d3d3d3" stroke-width="1" fill="none"></path></g></g><mask></mask><g stroke-linecap="round"><g transform="translate(199.32124484366477 441.2426758859549) rotate(32.9312054570197 1.0598309352465094 11.038750749118662)"><path d="M-0.04 0.33 C0.14 3.73, 1.01 17.56, 1.45 21.22 M-1.52 -0.54 C-1.01 2.97, 3.08 19.14, 3.64 22.62" stroke="#d3d3d3" stroke-width="1" fill="none"></path></g></g><mask></mask><g stroke-linecap="round"><g transform="translate(207.38027886460395 447.7587813855803) rotate(32.9312054570197 2.1012968152949725 11.247720076944688)"><path d="M0.88 1.05 C1.3 4.59, 1.71 17.19, 2.23 20.77 M-0.11 0.56 C0.67 4.28, 3.71 18.57, 4.32 21.94" stroke="#d3d3d3" stroke-width="1" fill="none"></path></g></g><mask></mask><g stroke-linecap="round"><g transform="translate(216.341567289855 454.58971936988655) rotate(32.9312054570197 0.8400300433806933 11.762503099707828)"><path d="M-0.4 -0.55 C-0.24 3.5, 1.65 20.11, 2.08 24.07 M1.6 1.78 C1.51 5.53, 1.2 18.72, 1.19 22.54" stroke="#d3d3d3" stroke-width="1" fill="none"></path></g></g><mask></mask><g stroke-linecap="round"><g transform="translate(225.8972508600482 461.4145829117847) rotate(32.9312054570197 0.3413366998256606 10.692964532489782)"><path d="M-0.63 0.45 C-0.33 3.96, 0.8 17.12, 1.07 20.31 M1.24 -0.36 C1.55 3.4, 0.76 18.28, 0.69 21.75" stroke="#d3d3d3" stroke-width="1" fill="none"></path></g></g><mask></mask><g stroke-linecap="round"><g transform="translate(237.2217474758604 468.3361417891754) rotate(32.9312054570197 0.3790502097826902 11.444785160861557)"><path d="M0.84 1.06 C0.96 4.67, 0.98 17.71, 0.85 20.85 M-0.18 0.58 C-0.2 4.45, 0.22 18.96, 0.09 22.31" stroke="#d3d3d3" stroke-width="1" fill="none"></path></g></g><mask></mask><g stroke-linecap="round"><g transform="translate(260.9443472605917 487.3951367751531) rotate(32.9312054570197 0.575632570074049 8.805047083674935)"><path d="M1.17 -0.95 C1.15 1.91, 0.9 14.23, 0.46 17.22 M0.32 1.16 C0.18 4.19, -0.09 15.77, 0.01 18.56" stroke="#d3d3d3" stroke-width="1" fill="none"></path></g></g><mask></mask><g stroke-linecap="round"><g transform="translate(268.9771157055616 490.53615962456547) rotate(32.9312054570197 0.538497544366237 10.31469108671888)"><path d="M0.94 -0.71 C1.21 2.55, 0.94 16.63, 1.1 20.38 M-0.02 1.53 C0.14 4.83, -0.05 17.71, 0.21 21.34" stroke="#d3d3d3" stroke-width="1" fill="none"></path></g></g><mask></mask><g stroke-linecap="round"><g transform="translate(276.8919714323133 497.4562497442869) rotate(32.9312054570197 0.683606179543176 10.077347701641429)"><path d="M1.03 -0.96 C1.2 2.18, 1.43 16.35, 1.45 19.9 M0.11 1.15 C0.04 4.95, -0.35 17.72, 0.23 21.12" stroke="#d3d3d3" stroke-width="1" fill="none"></path></g></g><mask></mask><g stroke-linecap="round"><g transform="translate(286.986459869805 503.5000439358348) rotate(32.9312054570197 -0.24218453267235418 10.626941617272223)"><path d="M0.52 -0.03 C0.25 3.32, -0.15 17.43, -0.54 20.87 M-0.66 -1.09 C-1.1 2.39, -0.65 18.54, -1.01 22.35" stroke="#d3d3d3" stroke-width="1" fill="none"></path></g></g><mask></mask><g stroke-linecap="round"><g transform="translate(297.6543063422773 509.8016675245219) rotate(32.9312054570197 -1.2625975881387603 10.903604444172174)"><path d="M-1.04 0.99 C-1.36 4.45, -1.87 17.15, -1.94 20.39 M0.61 0.46 C0.1 4.06, -2.67 17.91, -3.14 21.35" stroke="#d3d3d3" stroke-width="1" fill="none"></path></g></g><mask></mask><g stroke-linecap="round"><g transform="translate(307.98814670536876 517.772546813447) rotate(32.9312054570197 -1.769927939565605 10.178337381504548)"><path d="M-1.2 -0.82 C-1.6 2.57, -2.89 16.43, -3.46 19.77 M0.38 1.36 C-0.01 4.99, -2.94 18.05, -3.92 21.18" stroke="#d3d3d3" stroke-width="1" fill="none"></path></g></g><mask></mask><g stroke-linecap="round"><g transform="translate(316.859514780102 523.8640292399675) rotate(32.9312054570197 -2.0970776039100656 10.05132600289096)"><path d="M-1.09 0.29 C-1.71 3.51, -3.27 16.4, -3.49 19.63 M0.53 -0.61 C-0.32 2.71, -4.16 17.18, -4.73 20.71" stroke="#d3d3d3" stroke-width="1" fill="none"></path></g></g><mask></mask><g stroke-linecap="round"><g transform="translate(326.7878793030245 528.2643186746561) rotate(32.9312054570197 -1.684049089389191 10.202356931607028)"><path d="M-1 -0.64 C-1.55 2.75, -2.99 17.63, -3.71 21.05 M0.67 1.64 C0.11 4.62, -2.87 16.01, -4.04 19.21" stroke="#d3d3d3" stroke-width="1" fill="none"></path></g></g><mask></mask><g stroke-linecap="round"><g transform="translate(335.5422127111656 535.2382014407399) rotate(32.9312054570197 -2.111791695945385 9.3439060917201)"><path d="M-0.29 -0.72 C-1.25 2.41, -4.58 14.74, -5.49 18.1 M1.76 1.52 C0.69 4.86, -4.66 16.72, -5.98 19.41" stroke="#d3d3d3" stroke-width="1" fill="none"></path></g></g><mask></mask><g stroke-linecap="round" transform="translate(268.28720949152785 299.2618021683568) rotate(32.9312054570197 4.962020693611294 152.83023736322184)"><path d="M1.57 1.95 L8.45 1.87 L7.92 304.89 L-0.07 306.88" stroke="none" stroke-width="0" fill="#121212"></path><path d="M0.17 -0.66 C3.72 0.19, 7.2 0.7, 10.81 -0.18 M0.25 -0.15 C2.47 -0.13, 3.62 -0.22, 10.3 -0.39 M10.93 -0.15 C8.83 66.89, 8.41 130.65, 9.87 306.78 M9.99 0.69 C9.26 92.45, 8.26 185.62, 9.49 306.37 M9.44 304.83 C7.33 305.23, 3.85 305.03, -0.82 305.05 M9.83 305.41 C5.84 305.22, 3.03 305.45, -0.47 305.92 M-0.51 305.26 C-0.06 193.68, -0.29 83.08, -0.89 -0.84 M-0.43 305.9 C-0.8 223.63, -1.65 141.21, 0.14 0.29" stroke="#d3d3d3" stroke-width="2" fill="none"></path></g><g stroke-linecap="round"><g transform="translate(318.9058833884819 195.86978837476602) rotate(32.9312054570197 -2.6347014292148287 20.57803709232968)"><path d="M0.18 -0.4 C-0.5 2.74, -3.1 12.33, -4.03 19.21 C-4.95 26.09, -5.11 37.36, -5.36 40.9 M-0.39 0.58 C-1.15 3.76, -3.68 12.96, -4.52 19.79 C-5.37 26.62, -5.33 38.06, -5.45 41.56" stroke="#d3d3d3" stroke-width="1" fill="none"></path></g></g><mask></mask><g stroke-linecap="round"><g transform="translate(325.5430600451041 197.04244896335115) rotate(32.9312054570197 -2.868297771271955 20.711154351937807)"><path d="M0.23 0.53 C-0.54 3.7, -3.38 12.36, -4.36 19.04 C-5.35 25.71, -5.49 36.99, -5.7 40.6 M-0.32 0.32 C-0.94 3.55, -2.43 12.73, -3.37 19.53 C-4.31 26.32, -5.62 37.5, -5.96 41.1" stroke="#d3d3d3" stroke-width="1" fill="none"></path></g></g><mask></mask><g stroke-linecap="round"><g transform="translate(475.77261595352184 287.3178244118751) rotate(37.6475178265782 2.9259569165883477 20.518953761845125)"><path d="M-0.18 0.22 C0.53 3.3, 3.18 12.13, 4.21 18.96 C5.25 25.79, 5.68 37.62, 6.03 41.19 M0.73 -0.15 C1.4 2.95, 3.1 12.66, 3.94 19.41 C4.78 26.16, 5.31 36.8, 5.76 40.33" stroke="#d3d3d3" stroke-width="1" fill="none"></path></g></g><mask></mask><g stroke-linecap="round"><g transform="translate(472.7480020165808 281.8492059371724) rotate(37.6475178265782 3.065097909242013 20.114825418419457)"><path d="M0.31 -0.48 C1.02 2.79, 3.06 13.05, 4.07 19.85 C5.07 26.65, 6.04 36.79, 6.33 40.34 M-0.2 0.46 C0.47 3.56, 2.65 12.38, 3.72 19.09 C4.79 25.8, 5.86 37.2, 6.22 40.71" stroke="#d3d3d3" stroke-width="1" fill="none"></path></g></g><mask></mask><g stroke-linecap="round"><g transform="translate(449.2575405577413 221.38999458281398) rotate(0 4.114902368047979 1.1238571946719276)"><path d="M-0.07 -0.31 C1.34 0.02, 7.26 1.8, 8.77 2.19 M-0.54 0.3 C0.79 0.65, 6.89 2.23, 8.44 2.55" stroke="#d3d3d3" stroke-width="2" fill="none"></path></g></g><mask></mask><g stroke-linecap="round" transform="translate(249.57911233327786 331.7928376515423) rotate(0 2.1244277653001973 2.13310681431534)"><path d="M2.06 0 C2.48 0.01, 3.06 0.54, 3.43 0.8 C3.8 1.05, 4.17 1.12, 4.28 1.54 C4.39 1.95, 4.38 2.88, 4.11 3.3 C3.83 3.72, 3.08 3.92, 2.64 4.08 C2.2 4.23, 1.82 4.43, 1.46 4.24 C1.11 4.05, 0.74 3.32, 0.49 2.92 C0.24 2.51, -0.11 2.21, -0.05 1.81 C0 1.42, 0.5 0.82, 0.82 0.52 C1.15 0.22, 1.64 0.08, 1.88 0.01 C2.12 -0.06, 2.19 0.02, 2.24 0.08 M2.34 0.02 C2.84 0.02, 3.67 0.08, 3.98 0.36 C4.3 0.63, 4.2 1.15, 4.23 1.66 C4.26 2.17, 4.47 2.96, 4.16 3.42 C3.84 3.88, 2.86 4.4, 2.34 4.44 C1.82 4.49, 1.31 3.86, 1.03 3.71 C0.75 3.56, 0.88 3.98, 0.67 3.55 C0.46 3.13, -0.2 1.7, -0.25 1.18 C-0.3 0.67, -0.06 0.64, 0.38 0.47 C0.82 0.3, 2.12 0.22, 2.4 0.16 C2.67 0.1, 2.08 0.03, 2.01 0.11" stroke="#d3d3d3" stroke-width="1" fill="none"></path></g><g stroke-linecap="round" transform="translate(237.71071884854518 324.12990445233504) rotate(0 2.1244277653001973 2.13310681431534)"><path d="M2.08 -0.26 C2.56 -0.18, 3.52 0.41, 3.85 0.74 C4.18 1.08, 4.08 1.37, 4.07 1.76 C4.06 2.15, 4.07 2.7, 3.79 3.1 C3.51 3.49, 2.77 4.02, 2.38 4.14 C1.98 4.26, 1.78 3.97, 1.4 3.83 C1.02 3.69, 0.27 3.71, 0.09 3.3 C-0.09 2.89, 0.21 1.91, 0.33 1.39 C0.44 0.87, 0.46 0.38, 0.78 0.2 C1.11 0.01, 2.04 0.26, 2.27 0.27 C2.5 0.29, 2.2 0.29, 2.17 0.27 M1.88 0.14 C2.25 0.26, 2.84 0.55, 3.29 0.77 C3.75 1, 4.49 1.02, 4.62 1.49 C4.75 1.96, 4.33 3.21, 4.08 3.61 C3.83 4.01, 3.62 3.85, 3.1 3.87 C2.57 3.9, 1.33 3.88, 0.92 3.78 C0.51 3.67, 0.7 3.6, 0.64 3.26 C0.58 2.91, 0.46 2.21, 0.55 1.71 C0.65 1.2, 0.95 0.46, 1.21 0.23 C1.47 0.01, 2.02 0.45, 2.12 0.37 C2.23 0.29, 1.75 -0.21, 1.83 -0.23" stroke="#d3d3d3" stroke-width="1" fill="none"></path></g><g stroke-linecap="round" transform="translate(255.70109339104374 293.33693968273747) rotate(0 2.1244277653001973 2.13310681431534)"><path d="M1.86 0.18 C2.26 0.09, 3.05 -0.19, 3.38 0.06 C3.72 0.3, 3.81 1.15, 3.89 1.66 C3.96 2.17, 3.93 2.77, 3.83 3.12 C3.73 3.47, 3.63 3.55, 3.28 3.76 C2.93 3.96, 2.16 4.47, 1.73 4.37 C1.29 4.26, 0.99 3.59, 0.67 3.15 C0.35 2.72, -0.24 2.16, -0.2 1.76 C-0.16 1.37, 0.49 1.06, 0.91 0.78 C1.32 0.5, 2.08 0.23, 2.3 0.09 C2.52 -0.05, 2.31 -0.12, 2.24 -0.06 M1.82 -0.23 C2.29 -0.46, 2.84 -0.45, 3.21 -0.13 C3.59 0.18, 3.88 1.08, 4.08 1.65 C4.28 2.22, 4.64 2.83, 4.43 3.28 C4.23 3.73, 3.26 4.25, 2.87 4.33 C2.48 4.42, 2.45 3.93, 2.08 3.81 C1.7 3.7, 0.94 3.87, 0.63 3.64 C0.32 3.4, 0.27 2.94, 0.22 2.43 C0.18 1.92, 0.1 1.04, 0.37 0.58 C0.64 0.13, 1.67 -0.25, 1.84 -0.31 C2.01 -0.36, 1.31 0.17, 1.38 0.27" stroke="#d3d3d3" stroke-width="1" fill="none"></path></g><g stroke-linecap="round" transform="translate(269.48600764801677 301.6547555685273) rotate(0 2.1244277653001973 2.13310681431534)"><path d="M2.63 -0.26 C3.11 -0.25, 3.5 0.37, 3.79 0.79 C4.09 1.21, 4.41 1.83, 4.39 2.25 C4.38 2.68, 4.01 3.03, 3.71 3.32 C3.41 3.61, 3.1 3.85, 2.62 3.99 C2.15 4.13, 1.23 4.33, 0.87 4.16 C0.51 3.99, 0.6 3.4, 0.47 2.97 C0.33 2.55, -0.04 2.07, 0.05 1.6 C0.14 1.13, 0.65 0.38, 1.01 0.15 C1.37 -0.08, 1.99 0.16, 2.23 0.2 C2.48 0.24, 2.4 0.33, 2.47 0.37 M2.69 0.49 C3.1 0.6, 2.96 0.7, 3.25 0.99 C3.55 1.28, 4.38 1.83, 4.47 2.22 C4.57 2.62, 4.16 3.07, 3.83 3.36 C3.51 3.64, 2.97 3.79, 2.53 3.94 C2.08 4.09, 1.46 4.41, 1.14 4.25 C0.82 4.08, 0.86 3.47, 0.61 2.96 C0.36 2.45, -0.38 1.56, -0.36 1.18 C-0.35 0.81, 0.18 0.95, 0.71 0.7 C1.23 0.46, 2.5 -0.08, 2.78 -0.27 C3.05 -0.46, 2.45 -0.59, 2.37 -0.45" stroke="#d3d3d3" stroke-width="1" fill="none"></path></g><g stroke-linecap="round" transform="translate(390.08961315733814 416.370716678113) rotate(0 2.1244277653001973 2.133106814315397)"><path d="M1.88 -0.22 C2.33 -0.27, 3.19 0.06, 3.62 0.43 C4.06 0.79, 4.41 1.46, 4.5 1.94 C4.58 2.42, 4.44 2.97, 4.15 3.3 C3.86 3.64, 3.14 3.75, 2.74 3.95 C2.33 4.15, 2.16 4.55, 1.72 4.48 C1.28 4.4, 0.33 3.91, 0.08 3.5 C-0.18 3.09, 0.08 2.51, 0.18 2.02 C0.28 1.53, 0.38 0.91, 0.68 0.55 C0.99 0.19, 1.77 -0.1, 2.01 -0.16 C2.24 -0.23, 2.04 0.1, 2.1 0.16 M2.12 0.52 C2.57 0.47, 2.72 0.25, 2.97 0.42 C3.22 0.58, 3.4 1.11, 3.65 1.5 C3.89 1.89, 4.61 2.36, 4.45 2.77 C4.29 3.18, 3.15 3.74, 2.68 3.95 C2.21 4.16, 1.92 4.15, 1.63 4.05 C1.34 3.94, 1.16 3.56, 0.92 3.31 C0.69 3.05, 0.29 2.97, 0.2 2.51 C0.1 2.04, 0.13 0.9, 0.33 0.52 C0.53 0.14, 1.15 0.36, 1.4 0.24 C1.66 0.11, 1.82 -0.29, 1.86 -0.24" stroke="#d3d3d3" stroke-width="1" fill="none"></path></g><g stroke-linecap="round" transform="translate(403.03343535720614 423.42689447824523) rotate(0 2.1244277653001973 2.133106814315397)"><path d="M2.43 -0.1 C2.87 -0.13, 2.95 0.2, 3.24 0.5 C3.53 0.8, 4.02 1.27, 4.19 1.71 C4.35 2.16, 4.45 2.7, 4.24 3.16 C4.03 3.62, 3.43 4.32, 2.92 4.45 C2.41 4.59, 1.69 4.18, 1.2 3.98 C0.71 3.79, 0.16 3.7, -0.03 3.28 C-0.22 2.87, -0.05 1.93, 0.07 1.5 C0.18 1.06, 0.29 0.93, 0.68 0.66 C1.06 0.39, 2.07 -0.02, 2.37 -0.12 C2.66 -0.22, 2.45 -0.04, 2.46 0.05 M1.77 -0.41 C2.17 -0.4, 3.08 0.25, 3.43 0.66 C3.78 1.08, 3.74 1.74, 3.88 2.07 C4.01 2.4, 4.44 2.34, 4.26 2.64 C4.08 2.95, 3.18 3.7, 2.8 3.93 C2.43 4.15, 2.45 4.03, 2.01 3.99 C1.58 3.96, 0.46 4, 0.17 3.71 C-0.12 3.42, 0.21 2.71, 0.25 2.26 C0.3 1.81, 0.1 1.43, 0.42 0.99 C0.73 0.55, 1.93 -0.15, 2.15 -0.38 C2.36 -0.61, 1.82 -0.44, 1.72 -0.4" stroke="#d3d3d3" stroke-width="1" fill="none"></path></g><g stroke-linecap="round" transform="translate(408.82797507168107 385.90519325180685) rotate(0 2.1244277653001973 2.133106814315397)"><path d="M2.51 -0.1 C2.88 -0.1, 3.23 -0.01, 3.53 0.37 C3.83 0.75, 4.28 1.61, 4.3 2.16 C4.32 2.72, 3.9 3.41, 3.64 3.71 C3.39 4, 3.21 3.9, 2.78 3.94 C2.35 3.98, 1.44 4.14, 1.05 3.96 C0.67 3.78, 0.67 3.23, 0.48 2.87 C0.3 2.51, -0.16 2.17, -0.06 1.79 C0.04 1.4, 0.71 0.83, 1.1 0.58 C1.48 0.32, 2.01 0.39, 2.25 0.26 C2.5 0.14, 2.58 -0.14, 2.57 -0.19 M2.07 -0.36 C2.61 -0.47, 3.18 -0.13, 3.55 0.24 C3.92 0.61, 4.18 1.43, 4.29 1.87 C4.4 2.3, 4.48 2.5, 4.22 2.86 C3.96 3.23, 3.06 3.89, 2.72 4.07 C2.37 4.24, 2.49 3.93, 2.13 3.88 C1.78 3.83, 0.92 4.08, 0.59 3.77 C0.27 3.46, 0.16 2.5, 0.18 2 C0.19 1.5, 0.38 1, 0.69 0.75 C1.01 0.51, 1.84 0.68, 2.08 0.52 C2.31 0.37, 2.12 -0.05, 2.1 -0.17" stroke="#d3d3d3" stroke-width="1" fill="none"></path></g><g stroke-linecap="round" transform="translate(420.51015918589155 395.90519325180685) rotate(0 2.1244277653001973 2.133106814315397)"><path d="M2.38 -0.23 C2.87 -0.23, 3.22 0.36, 3.55 0.68 C3.87 1, 4.24 1.26, 4.33 1.68 C4.42 2.09, 4.3 2.73, 4.09 3.19 C3.88 3.65, 3.47 4.33, 3.06 4.46 C2.65 4.59, 2.07 4.24, 1.62 3.99 C1.17 3.73, 0.66 3.28, 0.38 2.93 C0.09 2.58, -0.16 2.28, -0.09 1.89 C-0.02 1.5, 0.39 0.85, 0.8 0.59 C1.21 0.33, 2.13 0.46, 2.38 0.32 C2.62 0.18, 2.3 -0.24, 2.28 -0.24 M2.4 0.2 C2.76 0.16, 3.03 -0.01, 3.32 0.25 C3.62 0.52, 4.09 1.25, 4.17 1.8 C4.25 2.34, 4.02 3.1, 3.8 3.55 C3.59 3.99, 3.25 4.38, 2.89 4.46 C2.54 4.55, 2.17 4.28, 1.65 4.06 C1.14 3.84, 0.08 3.52, -0.2 3.14 C-0.49 2.76, -0.19 2.2, -0.04 1.8 C0.11 1.4, 0.33 1.05, 0.69 0.75 C1.06 0.44, 1.91 0.18, 2.15 -0.01 C2.39 -0.21, 2.18 -0.47, 2.12 -0.4" stroke="#d3d3d3" stroke-width="1" fill="none"></path></g></svg>
