<?xml version="1.0" standalone="no"?>
<!DOCTYPE svg PUBLIC "-//W3C//DTD SVG 1.1//EN" "http://www.w3.org/Graphics/SVG/1.1/DTD/svg11.dtd">
<svg version="1.1" xmlns="http://www.w3.org/2000/svg" viewBox="0 0 226.38095509260893 212.62222216983633" width="226.38095509260893" height="212.62222216983633"><!-- svg-source:excalidraw --><metadata></metadata><defs><style class="style-fonts">
      </style></defs><g stroke-linecap="round"><g transform="translate(197.806657712551 10) rotate(0 -84.61618016624652 96.31111108491801)" fill-rule="evenodd"><path d="M0 0 L-169.23 0 L-169.23 0 L-176.47 1.44 L-182.39 5.42 L-186.37 11.33 L-187.81 18.57 L-187.81 130.02 L-187.81 130.02 L-186.37 137.26 L-182.39 143.17 L-176.47 147.15 L-169.23 148.59 L-105.25 148.59 L-105.25 171.98 L-125.89 171.98 L-125.89 192.62 L-43.34 192.62 L-43.34 171.98 L-63.98 171.98 L-63.98 148.59 L0 148.59 L0 148.59 L7.24 147.15 L13.15 143.17 L17.13 137.26 L18.57 130.02 L18.57 18.57 L18.57 18.57 L17.13 11.33 L13.15 5.42 L7.24 1.44 L0 0 L0 0" stroke="none" stroke-width="0" fill="#aecbfa" fill-rule="evenodd"></path><path d="M0 0 C-54.8 0, -109.59 0, -169.23 0 M0 0 C-67.3 0, -134.61 0, -169.23 0 M-169.23 0 C-169.23 0, -169.23 0, -169.23 0 M-169.23 0 C-169.23 0, -169.23 0, -169.23 0 M-169.23 0 C-171.61 0.47, -173.98 0.95, -176.47 1.44 M-169.23 0 C-171.76 0.5, -174.28 1.01, -176.47 1.44 M-176.47 1.44 C-178.44 2.76, -180.4 4.09, -182.39 5.42 M-176.47 1.44 C-178.41 2.74, -180.34 4.04, -182.39 5.42 M-182.39 5.42 C-183.55 7.15, -184.72 8.89, -186.37 11.33 M-182.39 5.42 C-183.85 7.59, -185.31 9.76, -186.37 11.33 M-186.37 11.33 C-186.7 13, -187.03 14.67, -187.81 18.57 M-186.37 11.33 C-186.93 14.17, -187.5 17.01, -187.81 18.57 M-187.81 18.57 C-187.81 43.64, -187.81 68.71, -187.81 130.02 M-187.81 18.57 C-187.81 46.35, -187.81 74.12, -187.81 130.02 M-187.81 130.02 C-187.81 130.02, -187.81 130.02, -187.81 130.02 M-187.81 130.02 C-187.81 130.02, -187.81 130.02, -187.81 130.02 M-187.81 130.02 C-187.38 132.15, -186.96 134.28, -186.37 137.26 M-187.81 130.02 C-187.26 132.75, -186.72 135.48, -186.37 137.26 M-186.37 137.26 C-184.92 139.4, -183.48 141.55, -182.39 143.17 M-186.37 137.26 C-185.05 139.21, -183.74 141.16, -182.39 143.17 M-182.39 143.17 C-180.99 144.12, -179.58 145.06, -176.47 147.15 M-182.39 143.17 C-180.52 144.43, -178.65 145.69, -176.47 147.15 M-176.47 147.15 C-174.17 147.61, -171.86 148.07, -169.23 148.59 M-176.47 147.15 C-174.42 147.56, -172.36 147.97, -169.23 148.59 M-169.23 148.59 C-146.44 148.59, -123.65 148.59, -105.25 148.59 M-169.23 148.59 C-155.35 148.59, -141.46 148.59, -105.25 148.59 M-105.25 148.59 C-105.25 156.24, -105.25 163.9, -105.25 171.98 M-105.25 148.59 C-105.25 156.91, -105.25 165.24, -105.25 171.98 M-105.25 171.98 C-111.85 171.98, -118.44 171.98, -125.89 171.98 M-105.25 171.98 C-109.67 171.98, -114.08 171.98, -125.89 171.98 M-125.89 171.98 C-125.89 176.38, -125.89 180.77, -125.89 192.62 M-125.89 171.98 C-125.89 180.19, -125.89 188.39, -125.89 192.62 M-125.89 192.62 C-96.17 192.62, -66.46 192.62, -43.34 192.62 M-125.89 192.62 C-107.29 192.62, -88.69 192.62, -43.34 192.62 M-43.34 192.62 C-43.34 187.1, -43.34 181.58, -43.34 171.98 M-43.34 192.62 C-43.34 185.49, -43.34 178.37, -43.34 171.98 M-43.34 171.98 C-49.06 171.98, -54.78 171.98, -63.98 171.98 M-43.34 171.98 C-50.67 171.98, -58 171.98, -63.98 171.98 M-63.98 171.98 C-63.98 166.19, -63.98 160.4, -63.98 148.59 M-63.98 171.98 C-63.98 166.85, -63.98 161.71, -63.98 148.59 M-63.98 148.59 C-48.92 148.59, -33.86 148.59, 0 148.59 M-63.98 148.59 C-45.38 148.59, -26.78 148.59, 0 148.59 M0 148.59 C0 148.59, 0 148.59, 0 148.59 M0 148.59 C0 148.59, 0 148.59, 0 148.59 M0 148.59 C2.64 148.07, 5.29 147.54, 7.24 147.15 M0 148.59 C2.2 148.16, 4.41 147.72, 7.24 147.15 M7.24 147.15 C9.26 145.8, 11.27 144.44, 13.15 143.17 M7.24 147.15 C8.73 146.15, 10.21 145.15, 13.15 143.17 M13.15 143.17 C14.6 141.03, 16.04 138.89, 17.13 137.26 M13.15 143.17 C14.16 141.69, 15.16 140.2, 17.13 137.26 M17.13 137.26 C17.56 135.12, 17.98 132.99, 18.57 130.02 M17.13 137.26 C17.52 135.3, 17.92 133.33, 18.57 130.02 M18.57 130.02 C18.57 97.85, 18.57 65.68, 18.57 18.57 M18.57 130.02 C18.57 88.28, 18.57 46.54, 18.57 18.57 M18.57 18.57 C18.57 18.57, 18.57 18.57, 18.57 18.57 M18.57 18.57 C18.57 18.57, 18.57 18.57, 18.57 18.57 M18.57 18.57 C18.04 15.89, 17.5 13.2, 17.13 11.33 M18.57 18.57 C18.15 16.42, 17.72 14.27, 17.13 11.33 M17.13 11.33 C15.87 9.45, 14.6 7.58, 13.15 5.42 M17.13 11.33 C15.9 9.5, 14.67 7.67, 13.15 5.42 M13.15 5.42 C11.96 4.61, 10.76 3.81, 7.24 1.44 M13.15 5.42 C11.79 4.51, 10.44 3.59, 7.24 1.44 M7.24 1.44 C5.64 1.12, 4.04 0.8, 0 0 M7.24 1.44 C5.09 1.01, 2.93 0.58, 0 0 M0 0 C0 0, 0 0, 0 0 M0 0 C0 0, 0 0, 0 0 M0 0 C0 0, 0 0, 0 0 M0 0 C0 0, 0 0, 0 0" stroke="#000000" stroke-width="1" fill="none"></path></g></g><mask></mask><g stroke-linecap="round"><g transform="translate(161.3460381630357 133.82856862711014) rotate(0 -20.638097538969305 -10.31904507910568)" fill-rule="evenodd"><path d="M0 0 L-41.28 0 L-41.28 -20.64 L0 -20.64 L0 0" stroke="none" stroke-width="0" fill="#FFFFFF" fill-rule="evenodd"></path><path d="M0 0 C-15.93 0, -31.86 0, -41.28 0 M0 0 C-16.14 0, -32.28 0, -41.28 0 M-41.28 0 C-41.28 -5.99, -41.28 -11.98, -41.28 -20.64 M-41.28 0 C-41.28 -6.12, -41.28 -12.25, -41.28 -20.64 M-41.28 -20.64 C-30.67 -20.64, -20.06 -20.64, 0 -20.64 M-41.28 -20.64 C-25.12 -20.64, -8.96 -20.64, 0 -20.64 M0 -20.64 C0 -15.63, 0 -10.62, 0 0 M0 -20.64 C0 -15.82, 0 -10.99, 0 0 M0 0 C0 0, 0 0, 0 0 M0 0 C0 0, 0 0, 0 0" stroke="#000000" stroke-width="1" fill="none"></path></g></g><mask></mask><g stroke-linecap="round"><g transform="translate(161.3460381630357 87.04888923697285) rotate(0 -46.77968677089598 -9.28714315446041)" fill-rule="evenodd"><path d="M0 0 L-93.56 39.21 L-93.56 19.95 L-26.14 -8.94 L-93.56 -38.52 L-93.56 -57.79 L0 -19.26 L0 0" stroke="none" stroke-width="0" fill="#FFFFFF" fill-rule="evenodd"></path><path d="M0 0 C-27.34 11.46, -54.68 22.92, -93.56 39.21 M0 0 C-20.35 8.53, -40.71 17.06, -93.56 39.21 M-93.56 39.21 C-93.56 34.96, -93.56 30.71, -93.56 19.95 M-93.56 39.21 C-93.56 32.65, -93.56 26.08, -93.56 19.95 M-93.56 19.95 C-70.64 10.13, -47.72 0.31, -26.14 -8.94 M-93.56 19.95 C-78.47 13.48, -63.38 7.02, -26.14 -8.94 M-26.14 -8.94 C-39.67 -14.88, -53.19 -20.81, -93.56 -38.52 M-26.14 -8.94 C-51.16 -19.92, -76.19 -30.9, -93.56 -38.52 M-93.56 -38.52 C-93.56 -46.01, -93.56 -53.49, -93.56 -57.79 M-93.56 -38.52 C-93.56 -43.08, -93.56 -47.64, -93.56 -57.79 M-93.56 -57.79 C-74.33 -49.87, -55.11 -41.95, 0 -19.26 M-93.56 -57.79 C-70.99 -48.49, -48.42 -39.2, 0 -19.26 M0 -19.26 C0 -12.48, 0 -5.69, 0 0 M0 -19.26 C0 -11.69, 0 -4.11, 0 0 M0 0 C0 0, 0 0, 0 0 M0 0 C0 0, 0 0, 0 0" stroke="#000000" stroke-width="1" fill="none"></path></g></g><mask></mask><g stroke-linecap="round"><g transform="translate(92.5523772395527 158.59428862617665) rotate(0 20.638093848590415 11.694921692724009)" fill-rule="evenodd"><path d="M0 0 L41.28 0 L41.28 23.39 L0 23.39 L0 0 L0 0" stroke="none" stroke-width="0" fill="#4285f4" fill-rule="evenodd"></path><path d="M0 0 C10.12 0, 20.25 0, 41.28 0 M0 0 C10.71 0, 21.41 0, 41.28 0 M41.28 0 C41.28 6.57, 41.28 13.14, 41.28 23.39 M41.28 0 C41.28 8.74, 41.28 17.48, 41.28 23.39 M41.28 23.39 C31.24 23.39, 21.21 23.39, 0 23.39 M41.28 23.39 C31.14 23.39, 21.01 23.39, 0 23.39 M0 23.39 C0 17.36, 0 11.34, 0 0 M0 23.39 C0 17.67, 0 11.95, 0 0 M0 0 C0 0, 0 0, 0 0 M0 0 C0 0, 0 0, 0 0 M0 0 C0 0, 0 0, 0 0 M0 0 C0 0, 0 0, 0 0" stroke="#000000" stroke-width="1" fill="none"></path></g></g><mask></mask><g stroke-linecap="round"><g transform="translate(71.91428708134026 181.98413201162498) rotate(0 41.27619138755972 10.319045079105678)" fill-rule="evenodd"><path d="M0 0 L82.55 0 L82.55 20.64 L0 20.64 L0 0" stroke="none" stroke-width="0" fill="#669df6" fill-rule="evenodd"></path><path d="M0 0 C22.85 0, 45.7 0, 82.55 0 M0 0 C29.23 0, 58.46 0, 82.55 0 M82.55 0 C82.55 4.78, 82.55 9.56, 82.55 20.64 M82.55 0 C82.55 6.08, 82.55 12.17, 82.55 20.64 M82.55 20.64 C64.05 20.64, 45.54 20.64, 0 20.64 M82.55 20.64 C53.72 20.64, 24.88 20.64, 0 20.64 M0 20.64 C0 13.67, 0 6.7, 0 0 M0 20.64 C0 15.05, 0 9.46, 0 0 M0 0 C0 0, 0 0, 0 0 M0 0 C0 0, 0 0, 0 0" stroke="#000000" stroke-width="1" fill="none"></path></g></g><mask></mask></svg>
