<?xml version="1.0" standalone="no"?>
<!DOCTYPE svg PUBLIC "-//W3C//DTD SVG 1.1//EN" "http://www.w3.org/Graphics/SVG/1.1/DTD/svg11.dtd">
<svg version="1.1" xmlns="http://www.w3.org/2000/svg" viewBox="0 0 344.5609451363441 449.82989863663056" width="344.5609451363441" height="449.82989863663056"><!-- svg-source:excalidraw --><metadata></metadata><defs><style class="style-fonts">
      </style></defs><g stroke-linecap="round"><g transform="translate(73.158271724433 417.8860349472375) rotate(0 33.02894421395888 -197.50598467757646)" fill-rule="evenodd"><path d="M21.63 -397.25 C21.63 -397.25, 21.63 -397.25, 21.63 -397.25 M21.63 -397.25 C21.63 -397.25, 21.63 -397.25, 21.63 -397.25 M19.27 -391.21 C25.5 -392.71, 27.91 -392.39, 30.29 -404.14 M19.98 -391.54 C22.39 -392.3, 25.18 -395.1, 30.53 -402.11 M23.55 -381.82 C26.48 -392.49, 28.25 -398.89, 39.81 -405.62 M20.43 -385.8 C25.38 -388.6, 29.8 -391.26, 36.28 -401.42 M19.26 -381.21 C25.91 -385.69, 38.82 -398.12, 41.54 -403.34 M22.52 -377.07 C28.81 -383.91, 33.52 -391.78, 41.87 -401.35 M19.1 -373.3 C25.22 -381.04, 30.88 -381.77, 44.81 -399.44 M18.78 -371.89 C28.34 -379.24, 37.43 -389.89, 45.94 -400.24 M16.45 -367.99 C34.11 -377.57, 40.47 -388.23, 51.1 -397.3 M18.41 -366.32 C31.21 -377.37, 43.93 -389.59, 51.06 -399.86 M18.73 -359.62 C30.31 -367.46, 36.1 -381.61, 56.85 -393.74 M19.52 -357.18 C32.22 -372.83, 44.61 -388.87, 53.25 -397.37 M17.01 -348.42 C24.84 -362.25, 37.94 -370.68, 53.06 -390.22 M17.33 -352.13 C33.24 -366.61, 43.69 -380.83, 56.25 -393.1 M22.86 -341.81 C30.06 -356.52, 38.05 -369.13, 54.18 -386.12 M19.74 -343.57 C33.98 -359.01, 44.36 -376.74, 54.96 -388.54 M18.65 -340.1 C28.53 -351.42, 40.93 -370.82, 53.68 -378.49 M20.2 -339.01 C35.32 -357.49, 46.83 -373.08, 53.71 -382.63 M18.48 -329.78 C30.96 -340.7, 34.06 -352.45, 56.29 -374.04 M17.23 -330.91 C32.95 -348.9, 46.98 -363.73, 57.09 -376.45 M21.71 -329 C28.96 -342.33, 44.25 -356.32, 54.34 -369.17 M18.65 -326.88 C26.67 -338.49, 38.47 -349.07, 56.9 -369.78 M15.25 -321.82 C30.98 -332.19, 43.24 -351.31, 55.92 -366.39 M18.46 -320.48 C30.71 -337.71, 46.05 -352.48, 54.98 -362.25 M15.15 -311.71 C28.69 -326.81, 34.08 -336.46, 57.16 -358.92 M17.02 -313.38 C29.64 -325.49, 42.59 -344.25, 58.07 -358.51 M15.46 -306.83 C23.89 -316.79, 30.39 -321.59, 55.82 -347.62 M16.6 -305.24 C32.06 -323.59, 43.85 -337.98, 54.06 -349.75 M18.55 -297.72 C32.72 -312.86, 41.13 -330.54, 58.86 -345.28 M18.28 -300.07 C26.14 -308.4, 35.14 -319.42, 58.15 -346.72 M15.98 -290.59 C30.25 -313.07, 47.01 -332.65, 56.03 -337.59 M17.48 -292.11 C28.21 -305.51, 39.05 -317.98, 57.1 -341.21 M14.12 -288.85 C32.62 -306.39, 44.49 -316.02, 56.14 -331.65 M16.14 -287.95 C31.64 -301.06, 43.82 -318.95, 56.09 -335.26 M12.35 -283.28 C30.63 -297.42, 46.54 -315.88, 59.24 -324.5 M15.64 -281.42 C31.92 -295.5, 42.84 -311.62, 57.57 -326.29 M13.36 -274.34 C24.24 -288.39, 36.61 -295.27, 54.96 -320.83 M13.65 -272.45 C28.43 -290.04, 41.83 -305.35, 58.19 -321.42 M16.72 -269.65 C30.54 -282.72, 45.09 -304.79, 58.72 -317.47 M16.33 -265.2 C29.27 -283.01, 42.76 -300.27, 55.62 -314.63 M15.75 -261.26 C30.72 -279.41, 47 -298.08, 59.95 -311.96 M13.88 -261.94 C21.39 -270.54, 30.99 -282.77, 59.45 -311.9 M11.85 -251.38 C23.46 -269.68, 43.22 -284.01, 59.73 -303.46 M13.42 -253.42 C30.24 -271.98, 44.05 -290.73, 55.42 -304.79 M11.35 -245.62 C27.74 -260.63, 41.59 -278.55, 54.33 -297.08 M14.56 -248.74 C22.35 -262.86, 35.74 -272.95, 59.56 -299.36 M11.14 -242.5 C22.73 -258.08, 35.78 -268.09, 56.81 -288.82 M13.53 -241.49 C22.22 -251.69, 32.15 -264.86, 58.48 -293.77 M16.88 -231.74 C24.5 -249.77, 38.94 -265.86, 61.29 -290.1 M12.15 -236.6 C28.86 -254.72, 48.42 -273.52, 56.21 -287.4 M13.28 -232.42 C22.66 -240.64, 35.42 -261.42, 55.14 -280.26 M14.61 -229.25 C25.98 -246.9, 42.44 -264.52, 57.04 -282.01 M13.69 -218.58 C25.04 -235.12, 28.82 -242.4, 56.65 -271.55 M11.78 -222.95 C20.56 -234.66, 32.37 -245.84, 57.8 -275.3 M8.94 -216.42 C23.85 -225.93, 34.38 -240.6, 58.51 -265.38 M12.65 -215.47 C23.06 -225.74, 33.92 -239.36, 57.98 -269.87 M13.71 -210.02 C20.75 -224.94, 31.28 -231.67, 57.49 -261.34 M13.26 -209.17 C25.45 -228.84, 42.26 -246.02, 60.05 -262.77 M7.37 -198.65 C28.04 -216.13, 40.05 -231.29, 58.66 -257.66 M12.27 -200.89 C22.87 -215.14, 31.35 -225.09, 60.23 -254.67 M7.55 -194.25 C20.36 -211.45, 34.37 -220.67, 55.58 -251.75 M11.1 -196.07 C28.9 -216.57, 48.06 -239.19, 59.42 -250.97 M8.46 -187.66 C27.77 -213.37, 47.81 -231.32, 60.64 -241.94 M10.85 -187.65 C26.23 -206.57, 41.81 -227.79, 60.06 -244.17 M7.08 -186.89 C25.46 -199.14, 30.83 -206.79, 61.26 -235.95 M9.15 -182.9 C19.04 -195.22, 29.31 -208.15, 57.02 -238.99 M12.76 -174.6 C22.5 -197.51, 39.1 -210.01, 56.13 -235.43 M8.42 -177.59 C27.82 -196.21, 45.24 -218.42, 60.43 -233.54 M12.14 -173.38 C24.35 -189.24, 41.19 -208.83, 60.84 -228.96 M7.31 -169.84 C23.22 -185.5, 37.45 -200.88, 59.98 -228.87 M7.39 -159.5 C25.66 -182.98, 42.4 -207.53, 59.41 -220.25 M9.69 -162.5 C21.22 -176.62, 32.07 -189.31, 59 -221.91 M5.17 -160.1 C17.92 -166.48, 32.95 -185.44, 57.92 -213.19 M8.12 -157.02 C29.03 -180.02, 49.23 -201.39, 58.79 -215.07 M10.14 -146.77 C25.37 -173.75, 47.44 -189.48, 56.74 -212.34 M8.08 -151.59 C25.13 -165.78, 37.57 -181.25, 61.44 -209.34 M11.27 -145.75 C23.4 -163.21, 44.74 -177.72, 62.75 -207.43 M8.85 -144 C25.03 -163.08, 43.02 -185.23, 60.66 -205.48 M7.41 -139.44 C28.17 -157.3, 46.13 -178.55, 62.99 -198.32 M7.7 -137.77 C22.2 -154.77, 37.6 -172.29, 58.1 -197.58 M4.17 -131.67 C17.96 -144.24, 29.68 -156.67, 56.18 -191.33 M7.44 -132.03 C24.79 -151.62, 39.23 -169.65, 61.44 -189.97 M4.21 -125.43 C17.26 -138.9, 31.42 -148.64, 58.33 -184.16 M5.31 -123.88 C22.67 -137.7, 31.83 -153.34, 60.68 -186.83 M4.17 -116.1 C21.04 -134.74, 32.67 -152.88, 59.01 -182.43 M4.51 -118.29 C23.31 -139.37, 42.43 -161.2, 59.01 -181.31 M4.19 -113.01 C27.29 -138.63, 48.29 -159.7, 57.56 -176.18 M6.4 -110.21 C26 -132.42, 42.94 -154.56, 59.62 -172.69 M2.24 -105.63 C18.61 -122.82, 34.74 -140.29, 61.35 -165.63 M7.39 -103.42 C21.91 -121.01, 37.65 -140.88, 62.63 -168.71 M4.3 -101.85 C23.53 -117.71, 46.14 -137.31, 58.09 -161.63 M3.79 -97.46 C26.75 -121.38, 46.41 -149.4, 59.97 -162.73 M1.99 -93.47 C22.99 -118.72, 51.56 -143.5, 59.95 -154.22 M4.08 -89.71 C24.4 -114.53, 46.98 -138.07, 62.22 -154.84 M1.43 -81.47 C21.62 -102.61, 41.66 -127.96, 61.3 -153.59 M4.35 -85.29 C20.52 -101.79, 33.16 -116.46, 62.86 -149.46 M5.59 -77.73 C17.01 -90.42, 28.19 -106.18, 62.16 -146.36 M5.26 -79.43 C18.65 -94.55, 31.68 -109.86, 60.41 -144.28 M3.11 -74.29 C27.45 -93.19, 44.71 -121.1, 57.86 -136.55 M3.57 -71.31 C23.68 -98.43, 46.95 -119.19, 62.73 -139.81 M1.91 -64.87 C21.56 -86.54, 36.92 -109.73, 59.28 -130.08 M4.32 -66.25 C25.6 -90.41, 49 -117.12, 61.84 -132.56 M-0.53 -59.09 C25.56 -80.22, 46.46 -106.31, 65.07 -127.33 M1.71 -58.54 C25.27 -82.59, 46.24 -106.9, 60.76 -128.15 M1.05 -56.74 C20.15 -75.82, 35.27 -94.94, 59.26 -124.04 M4 -54.31 C22.46 -78.39, 43.74 -99.32, 61.83 -118.9 M5.3 -45.27 C24.48 -71.78, 44.4 -89.19, 58.84 -115.66 M1.68 -45.68 C23.94 -70.03, 45.14 -95.06, 60.77 -112.79 M1.13 -41.05 C21.68 -63.29, 41.25 -86.65, 63.32 -106.27 M3.05 -40.65 C24.29 -64.45, 50.1 -91.4, 63.04 -106.97 M-2.01 -35.12 C24.25 -58.38, 52.57 -92.77, 59.04 -101.13 M3.06 -33.41 C15.47 -49.88, 29.15 -65, 62.62 -100.98 M-1.18 -26.42 C14.02 -42.85, 26.99 -61.29, 63.34 -99.18 M2.89 -26.29 C14.92 -43.66, 31.2 -61.09, 60.88 -97.84 M1.57 -19.31 C29 -48.16, 47.99 -73.42, 66.19 -93.98 M2.14 -19.82 C21.13 -41.82, 37.04 -64.26, 62.86 -89.66 M1.48 -13.8 C18.34 -37.68, 39.54 -57.2, 61.78 -86.05 M-0.32 -15.65 C16.56 -31.02, 35.05 -51.44, 63.39 -86.56 M1.34 -3.85 C22.77 -30.29, 45.56 -60.6, 62.07 -75.79 M2.56 -7.42 C21.06 -28.86, 37.21 -53.13, 63.38 -78.22 M-2.93 1.21 C19.13 -23.75, 32.37 -40.52, 61.08 -72.04 M-1.77 1.14 C14.61 -20.11, 33.16 -35.91, 64.64 -71.08 M3.19 2.06 C26.9 -24.63, 45.68 -46.7, 63.1 -68.54 M2.6 1.02 C26.73 -24.9, 46.6 -47.56, 64.78 -65.44 M5.35 -0.44 C30.43 -19.26, 49.82 -47.23, 64.98 -61.69 M7.21 3.44 C23.84 -16.66, 40.74 -36.92, 62.06 -61.82 M10.99 1.63 C30.68 -18.98, 44.7 -34.84, 60.99 -51.82 M12.56 2.09 C25.25 -12.97, 39.04 -26.71, 62.98 -54.84 M14.35 6.99 C35.99 -10.36, 52.51 -30.79, 60.49 -48.65 M15.65 4.33 C29.78 -10.94, 42.02 -25.91, 62.44 -51.36 M22.69 6.98 C41.78 -17.05, 59.41 -32.25, 66.74 -46.35 M22.91 4.25 C36.91 -10.24, 51.36 -27.08, 65.29 -46.11 M26.57 3.27 C36.16 -2.84, 50.71 -17.72, 68.59 -42.71 M27.08 7.87 C39.9 -8.75, 52.29 -21.24, 64.58 -41.5 M34.09 9.6 C45.69 -9.91, 60.41 -22.48, 62.65 -33.98 M32.04 6.21 C43.28 -8.83, 57.2 -22.52, 66.37 -35.1 M33.79 4.8 C45.57 -5.63, 56.14 -15.5, 68.91 -26.03 M34.39 7.68 C46.74 -1.49, 55.22 -15.97, 67.98 -27.44 M44.26 7.29 C48.38 -1.2, 56.15 -5.01, 69.64 -25.42 M39.65 7.98 C47.92 1.12, 53.14 -6.85, 67.54 -21.64 M49.74 7.84 C52.03 -0.52, 59.07 -7.64, 67.67 -13.63 M48.48 6.19 C52.98 1.51, 57.83 -3.41, 68.83 -18.34 M56.3 4.54 C56.54 2.23, 64.64 -8.15, 64.59 -9.28 M51.53 7.17 C55.35 0.8, 61.88 -2.59, 66.18 -10.48 M57.67 3.04 C64.49 3.6, 66.03 -1.83, 70.84 -4.15 M60.58 4.51 C62.89 0.72, 67.38 -5.81, 69.63 -6.86 M0 0 C0 0, 0 0, 0 0 M0 0 C0 0, 0 0, 0 0 M7.11 3 C8.17 1.58, 5.42 -1.45, -0.49 -6.86 M8.3 1.43 C6.84 0.62, 3.62 -0.53, -0.01 -5.24 M14.86 1.14 C10.79 0.38, 8.67 -5.37, 3.74 -7.63 M18.16 5.4 C13.26 0.67, 5.96 -5.83, -1 -10.55 M22.29 2.98 C13.65 0.42, 8.76 -6.19, 3.84 -18 M25.78 7.37 C16.48 -1.58, 6.75 -7.44, 0.04 -15.36 M33.47 8.95 C24.63 -3.86, 11.61 -12.26, 2.25 -19.28 M32.44 7.93 C21.85 -0.25, 9.17 -11.49, 3.34 -21.4 M38.6 5.2 C21.03 -8.24, 8.45 -20.54, 0.44 -26.64 M38.63 9.09 C28.31 -4.2, 15.83 -11.44, 0.18 -27.57 M45.72 5.81 C37.31 0.49, 25.33 -8.46, 2.97 -29.73 M44.11 5.78 C36.18 -1.19, 24.98 -9.43, 0.76 -30.63 M49.7 6.42 C28.73 -12.52, 11.52 -26.09, -1.28 -34.38 M48.3 6.12 C35.18 -3.49, 25.32 -15.53, 2.78 -36.28 M58 2.44 C35.29 -11.67, 22.38 -27.4, 5.67 -41.73 M55.38 4.27 C39.5 -8.16, 24.32 -20, 3.58 -39.62 M58.14 5.37 C35.9 -15.82, 10.74 -32.78, -0.12 -46.63 M57.14 3.33 C35.66 -14.72, 14.28 -35.35, 0.54 -44.98 M62.5 -0.37 C42.48 -14.49, 21.22 -39.8, 5.26 -51.37 M61.18 2.86 C45.29 -14.97, 30.32 -29.59, 4.18 -49.01 M64.3 2.83 C48.77 -11.7, 32.69 -32.93, -0.72 -55.49 M66.24 -2.3 C48.36 -17.05, 31.57 -29.78, 3.26 -55.81 M71.83 -2.59 C50.84 -15.84, 35.04 -30.25, 2.76 -61.46 M67.82 -3.69 C51.35 -19.19, 29.83 -38.55, 1.98 -60.08 M67.45 -6.48 C46.54 -31.89, 27.92 -45.24, 1.62 -64.48 M68.54 -9.79 C45.5 -27.33, 25.88 -46.42, 5.03 -66.22 M68.4 -14.13 C49.73 -30.4, 41.99 -35.89, 3.84 -74.84 M66.33 -14.49 C51.16 -32.04, 34.06 -45.51, 2 -72.11 M67.99 -23.94 C43.9 -41.77, 20.56 -60.37, 4.25 -73.11 M67.03 -20.18 C48.73 -39.62, 26.68 -55.67, 3.5 -77.63 M67.87 -26.49 C51.07 -36.03, 36.72 -56.93, 5.77 -83.77 M67.95 -26.18 C47.13 -44.47, 22.34 -63.28, 5.79 -79.71 M66.75 -31.66 C54.09 -46.99, 36.26 -58.16, 8.14 -82.34 M66.07 -33.22 C43.56 -52.16, 20.34 -72.26, 2.9 -84.82 M69.44 -35.06 C53.85 -48.35, 36.65 -64.64, 8.95 -89.82 M66.38 -39.25 C41.93 -57.01, 21.75 -78, 2.99 -92.77 M64.6 -39.74 C52.87 -54.94, 37.7 -64.8, 5.37 -98.43 M67.02 -42.54 C44.38 -61.53, 25.71 -79.98, 5.51 -95.82 M65.71 -46.63 C44.62 -72.71, 15.56 -88.74, 3.92 -101.32 M63.64 -49.49 C42.88 -69.73, 23.15 -86.34, 6.28 -101.83 M67.84 -57.65 C47.85 -68.99, 28.53 -90.19, 6.18 -106.38 M65.57 -55.1 C41.29 -74.96, 19.03 -96.97, 6.67 -105.35 M60.9 -61.39 C47.68 -71.68, 36.89 -77.45, 2.58 -109.95 M64.35 -62.05 C41.89 -81.96, 21.47 -100.41, 6.66 -110.77 M66.38 -68.26 C49.73 -76.5, 32.84 -94.51, 6.13 -118.57 M61.97 -65.19 C49.55 -79.08, 34.47 -91.44, 6.03 -115.42 M67.11 -68.2 C42.93 -87.86, 26.58 -103.62, 5.45 -123.42 M63.91 -70.69 C44.73 -91, 21.47 -107.59, 4.69 -121.4 M61.99 -79.12 C46.64 -93.55, 24.41 -107.28, 9.46 -127.4 M65.3 -77.75 C41.17 -94.64, 19.02 -116.24, 6.82 -128.01 M64.28 -84.64 C50.77 -97.12, 35.06 -113.7, 4.69 -130.86 M64.54 -81.81 C49.85 -94.31, 37.74 -106.21, 5.51 -130.89 M61.07 -89.84 C53.34 -101.14, 33.83 -113.26, 8 -134.68 M62.17 -87.65 C43.81 -101.78, 27.63 -117.8, 6.83 -138.46 M60.78 -97 C46.17 -110.11, 20.83 -129.95, 11.59 -138.73 M63.76 -94.48 C41.86 -111.87, 19 -129.69, 6.29 -139.72 M59.4 -99.37 C44.16 -117.59, 27.86 -129.29, 8.73 -147.57 M61.52 -99.11 C48.11 -111.76, 36.96 -122.91, 9.9 -147.37 M64.05 -104.94 C47.86 -122.07, 26.25 -130.74, 11.54 -152.23 M61.18 -105.06 C52.94 -115.14, 42.27 -125.41, 7.3 -152.97 M60.4 -112.1 C42.15 -128.18, 23.35 -140.6, 12.73 -159.94 M60.85 -111.66 C43.93 -128.3, 21.67 -143.05, 8.92 -158.02 M59.71 -118.84 C51.7 -127.72, 32.93 -137.46, 11.33 -159.91 M61.44 -116.57 C43.13 -130.58, 22.24 -149.01, 11.09 -161.09 M62.58 -117.73 C38.08 -139.82, 23.99 -158.82, 5.72 -169.69 M61.73 -120.15 C45.21 -136.84, 30.94 -149.8, 8.38 -165.63 M65.95 -129.1 C40.68 -141.3, 23.83 -160.06, 6.36 -174.36 M60.77 -128.01 C44.34 -142.23, 26.94 -156.49, 9.78 -172.45 M62.6 -128.71 C46.41 -147.2, 28.82 -163.62, 9.04 -176.14 M60.78 -132.06 C42.17 -146.74, 21.13 -166.61, 11.3 -178.79 M64.63 -135.52 C52.71 -148.56, 37.08 -152.47, 7.65 -181.58 M61.96 -135.68 C51.14 -146.06, 38.53 -159.84, 8.08 -182.8 M61.73 -141.49 C47.66 -157.8, 26.95 -169.91, 11.16 -183.93 M60.19 -140.84 C50.69 -153.22, 39.11 -162.48, 10.78 -187.35 M60.71 -151.28 C52.66 -154.52, 41.36 -166.01, 13.37 -192.91 M61.84 -149.21 C39.61 -163.97, 18.97 -181.2, 10.73 -191.14 M60.9 -149.96 C43.18 -167.66, 33.86 -184.88, 10.68 -200.45 M62.71 -151.28 C48.63 -163.79, 36.83 -170.57, 12.99 -195.84 M60.52 -160.89 C48.01 -174.83, 30.01 -187.95, 11.8 -202.42 M61.58 -157.52 C50.54 -168.6, 38.96 -175.85, 9.54 -201.16 M64.12 -165.33 C47.23 -178.87, 25.69 -193.95, 15.55 -204.43 M63.15 -163.48 C42.9 -177.32, 26.53 -195.41, 12.37 -208.07 M58.05 -166.28 C53.47 -176.94, 36.68 -190, 11.82 -212.19 M60.89 -170.88 C44.67 -182.04, 31.17 -198.24, 9.88 -214.5 M56.79 -174.2 C45.68 -184.2, 35.04 -193.59, 10.36 -218.66 M62.65 -174.81 C50.85 -182.57, 37.43 -194.53, 10.98 -215.86 M62.39 -182.75 C48.1 -189.71, 36.71 -199.4, 13.98 -221.73 M61.56 -180.82 C45.82 -192.74, 27.55 -207.48, 13.71 -224.13 M63.96 -184.55 C48.83 -196.98, 28.54 -215.17, 15.35 -227.33 M58.88 -186.02 C49.97 -197.01, 36.41 -207.92, 13.4 -228.34 M59.98 -188.94 C49.76 -196.05, 41.66 -204.41, 13.94 -231.87 M61.67 -190.22 C40.2 -206.55, 22.08 -221.57, 11.01 -234.34 M57.76 -197.73 C41.58 -207.29, 30.04 -221.31, 9.84 -235.96 M61.61 -197.11 C43.09 -212.9, 28.97 -228.06, 14.29 -235.93 M56.94 -204.91 C51.33 -214.5, 40.5 -223.16, 13.46 -242.18 M61.89 -203.28 C40.97 -218.88, 25.05 -231.6, 14.86 -242.03 M63.74 -206.46 C45.96 -221.02, 36.12 -228.13, 15.31 -244.8 M58.88 -209.43 C49.6 -214.67, 39.6 -226.83, 13.37 -247.72 M58.47 -216.07 C45.79 -224.2, 32.72 -233.88, 11.71 -251.59 M60.95 -213.48 C48.94 -224.03, 39.42 -230.47, 12.62 -253.44 M59.04 -216.87 C39.74 -235.73, 24.62 -248.57, 13.84 -258.14 M59.34 -219.64 C51.13 -228.41, 41.51 -238.65, 13.92 -256.75 M63.93 -226.55 C50.65 -232, 41.53 -243.67, 12.46 -267.06 M58.61 -224.96 C43.55 -239.28, 24.41 -253.73, 13.23 -264.79 M55.95 -228.41 C45.69 -243.87, 26.73 -261.75, 15.16 -265.65 M59.67 -227.7 C45.61 -239.38, 33.51 -250.84, 13.79 -269.41 M57.26 -236.48 C47.45 -240.61, 36.46 -255.5, 11.12 -276.98 M58.22 -233.84 C48.58 -245.08, 38.89 -250.72, 14.21 -271.61 M56.86 -239.27 C42.59 -257.78, 21.47 -272.32, 12.1 -278.36 M59.61 -238.22 C44.37 -250.55, 31.86 -264.68, 16.89 -277.37 M58.07 -247.45 C45.07 -261.51, 29.43 -274.38, 14.21 -287.05 M57.7 -245.57 C47.62 -256.16, 38.84 -265.4, 17.11 -284.74 M60.81 -247.68 C47.09 -260.5, 30.47 -267.93, 15.63 -286.03 M60.48 -249.77 C48.39 -260.61, 34.54 -272.29, 16.18 -286.98 M61.08 -258.34 C43.63 -265.76, 24.83 -281.44, 18.4 -293.72 M61.01 -254.88 C46.88 -268.19, 31.69 -281.36, 14.55 -291.66 M58.46 -265.25 C41.33 -273.82, 26.19 -287.27, 14.1 -297.78 M60.17 -260.28 C46.5 -274.02, 31.03 -287.07, 16.95 -299.85 M62.37 -263.45 C45.16 -278.14, 43.43 -280.3, 17.7 -300.79 M60.42 -267.82 C42.65 -279.8, 27.17 -292.64, 17.48 -301.17 M59.58 -272.95 C50.06 -279.92, 37.9 -295.66, 20.47 -310.75 M60.6 -270.96 C47.33 -284.63, 32.52 -295.5, 16.03 -309.62 M61.67 -274.45 C43.89 -290.35, 31.89 -304.95, 18.78 -312.11 M58.8 -275.79 C45.65 -290.8, 28.7 -302.92, 18.39 -312.04 M55.32 -283.12 C47.65 -294.62, 30.46 -301.67, 19.33 -315.52 M58.03 -284.31 C48.45 -292.61, 35.99 -300.85, 16.85 -319.22 M57.8 -284.37 C50.6 -300.34, 35.73 -310.31, 19.91 -320.92 M57.05 -287.45 C44.59 -300.05, 31.84 -308.78, 18.36 -322.37 M60.47 -297.51 C44.56 -304.42, 39.97 -308.39, 18.4 -331.98 M57.27 -294.21 C46.7 -303.98, 36.89 -312.1, 16.87 -328.9 M59 -297.62 C43.46 -312.77, 33.4 -320.42, 14.5 -329.82 M56.38 -298.8 C47.66 -308.64, 39.26 -313, 18.5 -333.56 M60.93 -303.22 C43.34 -311.13, 34.52 -320.23, 19.52 -334.77 M59.2 -305.78 C47.54 -314.82, 37.09 -324.09, 18.62 -337.55 M61.1 -312.01 C44.3 -322.67, 30.54 -327.76, 18.08 -340.11 M56.57 -311.15 C45.5 -323.88, 28.91 -334.7, 19 -343.66 M56.73 -318.05 C46.18 -325.95, 40.97 -325.84, 17.91 -349.87 M59.75 -316.84 C47.46 -321.47, 41.69 -330.93, 20.94 -347.37 M59.07 -322.7 C49.89 -334.47, 31.2 -343.16, 18.8 -353.14 M59.49 -319.13 C48.82 -328.27, 38.94 -339.89, 17.62 -352.67 M60.51 -327.84 C48.76 -334.1, 35.43 -346, 17.4 -359.31 M56.43 -327.15 C44.15 -335.55, 33.96 -344.41, 18.24 -360.54 M58.01 -327.55 C42.63 -345.29, 25.41 -360.25, 20.44 -367.66 M56.02 -331.99 C50.7 -336.66, 39.87 -344.76, 20.66 -363.97 M60.58 -339.84 C47.73 -346.75, 29.87 -362.52, 17.48 -370.54 M55.3 -335.81 C43.91 -350.29, 30 -359.02, 19.5 -368.56 M55.61 -344.47 C45.31 -357.45, 33.64 -366.18, 21.91 -375.76 M56.63 -342.98 C48.05 -351.03, 41.82 -354.73, 22.52 -376.2 M56.32 -346.65 C46.9 -358.01, 46.36 -361.05, 24.72 -380.33 M58.49 -349.22 C50.51 -355.18, 43.39 -361.76, 19.74 -380.25 M53.24 -352.77 C47.93 -363.77, 42.65 -369.86, 20.23 -384.24 M58.37 -354.67 C49.29 -362.01, 38.87 -367.11, 20.61 -384.65 M52.51 -356.23 C45.28 -367.68, 28.17 -380.05, 23.85 -388.18 M54.43 -359.08 C48.2 -365.13, 42.84 -371.9, 23.06 -391.05 M59.36 -361.11 C43.56 -377.01, 28.35 -388.71, 25.81 -391.3 M56.33 -362.92 C44.34 -375.52, 31.91 -385.21, 22.7 -393.93 M53.57 -365.95 C41.44 -380.62, 37.1 -388.65, 25.71 -396.3 M56.12 -368.44 C49.07 -377.49, 43.79 -382.44, 22.63 -399.07 M59.8 -373.52 C43.44 -381.56, 30.89 -393.15, 26.96 -398.55 M57.9 -374.9 C45.44 -385.83, 33.76 -395.99, 27.37 -402.02 M59.02 -382.54 C45.31 -388.92, 36.07 -394.03, 31.8 -405.7 M56.64 -379.63 C49.19 -386.74, 44.73 -392.07, 33.19 -401.15 M52.04 -387.42 C47.05 -389.19, 43.72 -397.97, 36.83 -402.94 M57.07 -387.14 C51.12 -392.61, 43.97 -394.66, 39.01 -404.18 M57.31 -388.78 C50.22 -391.92, 51.67 -394.88, 43.86 -404.12 M55.39 -392.16 C51.53 -393.97, 48.98 -396.16, 44.51 -401.46" stroke="#b7bcc1" stroke-width="0.5" fill="none"></path><path d="M-2.14 2.56 C3.43 3.75, 24.43 6.98, 35.47 6.98 C46.52 6.97, 58.77 5.6, 64.14 2.54 C69.51 -0.51, 68.11 -0.04, 67.69 -11.36 C67.26 -22.69, 63.11 -12.71, 61.61 -65.4 C60.12 -118.1, 59.5 -274.09, 58.74 -327.54 C57.98 -380.98, 58.3 -374.51, 57.05 -386.08 C55.81 -397.64, 54.63 -394.32, 51.26 -396.94 C47.9 -399.57, 41.12 -401.46, 36.87 -401.82 C32.62 -402.18, 28.49 -401.14, 25.78 -399.11 C23.06 -397.08, 21.47 -401.46, 20.6 -389.65 C19.72 -377.84, 23.57 -382.28, 20.53 -328.23 C17.49 -274.19, 5.53 -118.18, 2.38 -65.37 C-0.78 -12.56, 2.34 -22.11, 1.58 -11.39 C0.82 -0.67, -2.01 -3.17, -2.2 -1.07 M1.9 1.49 C7.13 3.06, 24.61 10.58, 34.56 9.93 C44.51 9.29, 55.94 0.8, 61.59 -2.37 C67.24 -5.54, 67.73 1.23, 68.47 -9.09 C69.22 -19.4, 68.32 -10.86, 66.04 -64.24 C63.76 -117.63, 57.31 -275.26, 54.8 -329.39 C52.29 -383.53, 50.75 -377.68, 50.99 -389.07 C51.23 -400.46, 58.02 -395.09, 56.24 -397.73 C54.46 -400.38, 46.34 -404.56, 40.3 -404.94 C34.25 -405.33, 23.22 -402.9, 19.99 -400.04 C16.75 -397.17, 21.16 -399.81, 20.88 -387.77 C20.6 -375.73, 21.39 -381.31, 18.31 -327.79 C15.24 -274.27, 5.41 -119.24, 2.43 -66.65 C-0.55 -14.06, 1.27 -22.86, 0.43 -12.25 C-0.41 -1.63, -3.06 -4.38, -2.62 -2.97" stroke="#ededed" stroke-width="1" fill="none"></path></g></g><mask></mask><g stroke-linecap="round"><g transform="translate(12.726251206546976 25.414269859959404) rotate(0 115.45833424859757 30.102307936554666)" fill-rule="evenodd"><path d="M0 0 C0 0, 0 0, 0 0 M0 0 C0 0, 0 0, 0 0 M1.3 7.99 C1 3.1, 1.58 2.85, 4.08 -1.23 M-0.53 6.72 C1.14 4.42, 2.83 3.73, 5.34 0.85 M-2.34 10.18 C6.84 4.67, 5.47 2.39, 12.17 -1.12 M1.51 13.03 C2.56 9.54, 6.51 4.88, 9.43 -0.67 M1.19 16.71 C4.02 12.44, 7.73 14.03, 14.73 3.67 M0.18 19.35 C5.69 11.99, 8.94 7.14, 16.33 -0.42 M-0.69 27.61 C4.56 19.59, 11.2 11.4, 22.47 -3.68 M0.98 24.42 C6.29 17.45, 13.32 11.98, 19.81 -2.01 M-0.05 31.02 C7.39 24.75, 15.23 13.41, 27.94 -3.53 M0.47 32.4 C8.64 21.33, 13 15.98, 26.46 -0.37 M-2.8 35.87 C12.56 28.96, 20.62 12.63, 33.71 -1.2 M-0.91 35.48 C12.75 21.75, 23.63 9.23, 31.85 -1.17 M0.92 44.7 C12.21 29.89, 30.71 8.41, 33.78 -3.37 M-1.73 42.74 C10.51 31.72, 19.81 18.62, 35.83 2.24 M-3 49.6 C14.98 31.18, 34.93 9.3, 45.04 1.58 M-0.63 47.51 C14.76 28.31, 32.92 8.91, 40.68 -0.12 M-2.38 50.01 C13.25 41.1, 31.19 23.4, 48.32 3.38 M0.53 52.53 C12.45 36.76, 26.27 22.03, 46.7 0.28 M0.89 57.49 C20.46 37.95, 40.97 11.38, 51.18 -1.68 M2.95 58.07 C22.91 35.64, 40.54 13.19, 53.74 2.39 M6.31 59.38 C14.67 49.98, 26.73 33.27, 56.24 1.29 M4.98 61.03 C19.4 47.62, 33.21 30.17, 60.03 -1.11 M10.37 59.12 C22.44 43.68, 38.89 29.74, 61.44 1.79 M8.34 62.56 C23.68 48.39, 37.9 31.16, 61.14 -0.34 M11.67 61.02 C32.64 41.94, 50.43 21.05, 66.86 0.35 M13.85 60.26 C31.27 44.35, 41.52 30.42, 67.44 -0.45 M18.92 64.21 C35.53 48.65, 52.94 27.98, 71.78 0.39 M20.1 61.46 C36.08 43.13, 57.04 20.39, 75.71 1.59 M23.33 63.16 C45.53 40.49, 58.7 16.39, 82.13 3.89 M26.38 63.15 C41.63 43.09, 57.18 26.58, 79.28 0.04 M30.07 59.39 C50.15 42.5, 69.71 15.12, 83.48 3.16 M30.88 63.08 C50.09 38.61, 70.11 15.8, 83.63 -0.4 M36.01 65.06 C48.22 50.04, 64.18 29.57, 88.59 0.62 M34.97 62.64 C48.05 44.55, 64.03 30.39, 88.55 -1.55 M39.85 63.62 C56.37 51.25, 67.98 29.75, 94.39 0.51 M39.94 63 C54.71 47.73, 67.03 30.42, 95.75 -0.55 M46.44 66.39 C60.42 46.25, 79.41 24.19, 97.45 -3.36 M46.05 60.98 C68.4 40.33, 90.03 13.94, 98.96 1.19 M50.3 60.24 C66.19 45.91, 79.35 35.36, 107.02 4.2 M50.56 64.14 C71.25 38.59, 95.27 11.75, 107.61 1.2 M56.61 63.41 C74.68 43.35, 84 28.05, 111.86 0.17 M55.43 61.98 C72.56 46.17, 83.63 34.68, 112.24 -0.26 M64.73 65.21 C86.09 39.53, 106 16.28, 112.5 -0.6 M61.38 60.97 C78.55 40.73, 99.44 19.46, 115.45 -0.77 M65.16 65.8 C83.71 40.88, 104.46 20.7, 121.57 2.55 M67.59 63.77 C84.29 46.9, 95.42 31.31, 122.78 -0.39 M70.42 64.64 C87.11 50.38, 99.23 28.55, 130.59 0.63 M73.08 61.02 C89.34 42.85, 105.33 24.13, 128.2 2.22 M75.33 64.57 C103.22 34.64, 123.41 15.13, 130.99 -1.26 M79.7 62.79 C89.16 48.05, 102.15 36.52, 133.69 0.91 M81.26 59.73 C91.94 49.66, 107.48 38.48, 137.65 3.8 M82.97 61.88 C97.58 45.22, 111.45 29.95, 139.45 1.18 M87 64.12 C106.35 42.79, 124.26 18.1, 145.82 0.34 M89.62 61.78 C101.48 48.07, 112.52 34.13, 143.42 -0.71 M93.77 63.33 C108.3 48.85, 120.08 26.12, 146.69 2.19 M93.12 63.72 C108.98 43.18, 123.54 28.54, 147.5 1.42 M96.67 66.25 C113 48.51, 129.73 33.52, 156.36 4.31 M99.89 61.82 C116.03 46.48, 129.2 28.23, 153.11 -1.27 M105.76 64.9 C124.75 37.2, 141.63 12.26, 158.68 3.21 M104.9 62.24 C125.08 42.84, 141.55 19.77, 158.69 -0.68 M113.48 62.11 C125.14 41.48, 150.53 23.04, 161.55 0.99 M109.76 62.27 C126.55 44.15, 143.27 27.51, 162.59 -0.49 M115.69 63.29 C134.57 46.41, 152.58 26.33, 163.22 3.64 M114.39 61.48 C136.03 40.11, 153.96 14.99, 168.03 1.57 M119.17 64.21 C131.81 54.71, 135.62 38.12, 171.72 4.15 M119.13 60.83 C134.79 45.13, 152.38 28.52, 169.12 8.25 M122.61 66.72 C138.56 43.64, 159.8 26.93, 168.56 7.9 M124.36 61.8 C136.9 51.01, 145.82 37.72, 173.24 11.45 M132.11 58.47 C141.98 50.69, 147.36 39.88, 175.63 9.58 M132.62 61.5 C144.27 46.66, 156.77 36.43, 174.51 12.59 M134.21 60.76 C151.71 45.77, 164.37 27.52, 177.48 19 M136.26 63.84 C148.52 46.91, 160.66 33.49, 174.67 15.74 M143.32 60.17 C148.15 55.24, 161.46 46.97, 174.12 19.76 M143.53 62.59 C150.6 51.51, 162.88 39.16, 178.62 21.73 M150.8 64.4 C157.16 45.1, 172.25 29.32, 179.42 23.58 M146.23 64.57 C156.21 53.17, 162.7 44.53, 179.34 25.81 M156.42 65.96 C163.15 49.76, 169.1 45.38, 185.92 29.01 M153.83 60.72 C162.11 49.76, 172 42.43, 181.37 27.72 M157.34 65.98 C167.24 53.55, 170.23 45.03, 183.78 30.43 M157.1 61.28 C163.38 54.3, 170.51 46.75, 186.35 28.09 M163.65 61.87 C166.42 54.34, 178.5 49.59, 191.07 32.3 M162.21 62.84 C169.8 57.42, 172.45 49.76, 189.98 30.12 M171.37 63.2 C172.71 56.92, 179.23 43.77, 195.96 30.44 M166.38 63.56 C175.57 52.28, 183.01 45.74, 194.79 32.09 M169.9 63.31 C180.28 50.28, 191.32 44.35, 196.99 31.98 M172.01 62.2 C179.17 53.43, 188.31 49.25, 197.11 34.86 M179.09 63.17 C181.12 54.26, 191.19 48.31, 199.97 38.15 M178.27 61.32 C185.09 55.13, 192.97 45.91, 198.5 35.89 M184.02 59.8 C189.91 59.28, 195.02 48.61, 200.29 42.51 M182.62 63.11 C193.02 53.56, 199.8 44.07, 202.74 38.92 M191.32 66.34 C190.83 58.11, 201.3 57.23, 203.77 37.72 M187.67 60.77 C194.88 54.13, 203.71 46.64, 207.28 40.09 M197.44 60 C197.72 60.36, 205.15 50.8, 212.26 42 M196.1 61.94 C202.08 56.93, 207.49 48.55, 211.51 41.81 M203.49 58.57 C206.43 51.63, 210.18 48.08, 218.59 44.17 M200.15 64.46 C206.05 57.8, 207.03 54.25, 214.28 45.14 M204.25 64.19 C210.37 55.26, 211.66 52.15, 222.13 48.39 M205.21 63.63 C207.62 58.54, 212.95 53.79, 220.11 45.89 M211.67 59.06 C209.76 60.66, 218.87 51.75, 227.66 46.66 M211.97 63.23 C216.37 56.36, 220.08 51.65, 224.72 46.54 M212.03 61.34 C217.64 60.17, 227.03 53.43, 227.12 49.73 M216.03 62.7 C219.48 58.47, 223.78 53.93, 227.29 46.67 M222.77 61.48 C227.95 56.54, 229.99 54.06, 234.19 48.17 M223.77 61.36 C225.34 55.66, 228.88 53.99, 232.66 49.73 M228.27 59.43 C228.99 57.77, 231.04 58.94, 233.87 55.8 M229.23 60.16 C229.86 59.2, 230.85 58.06, 233.08 55.77 M2.7 62.44 C2.7 62.44, 2.7 62.44, 2.7 62.44 M2.7 62.44 C2.7 62.44, 2.7 62.44, 2.7 62.44 M8.38 61.82 C6.82 61, 2.67 57.42, 1.73 54.3 M7.43 61.7 C6.75 60.99, 4.89 59.59, -0.05 54.99 M10.09 58.24 C10.27 55.51, 7.34 55.2, 2.02 48.33 M13.84 61.47 C10.2 55.71, 4.36 55.02, -1.55 49.24 M15.59 61.44 C11.17 54.08, 8.69 51, 2.83 44.7 M19.84 58.99 C13.83 58.8, 9.63 54.83, 0.18 44.62 M26.29 64.17 C11.76 52.39, 8.03 42.26, 2.21 39.86 M22.99 60.83 C15.96 52.35, 4.54 41.92, 0.63 39.18 M32.1 58.96 C22.84 53.03, 20.08 46.63, -2.58 29.75 M30.94 60.57 C19.79 53.94, 14.91 45.88, 0.29 35.32 M32.58 59.12 C27.26 49.99, 11.62 41.69, 4.07 28.42 M34.81 60.43 C23.49 47.4, 10.56 37.8, -1.02 29.28 M43.4 58 C27.48 43.7, 9.79 34.15, -3.16 25.59 M43.35 61.56 C34.45 52.79, 23.8 41.61, -0.52 23.51 M47.31 59.89 C29.98 47.14, 14.16 30.84, -2.73 18.14 M49.34 61.56 C32.42 46.1, 12.74 26.83, -1.25 16.71 M54.64 61.63 C37.22 45.15, 20.05 27.4, -1.79 15.77 M53.45 58.71 C42.36 49.1, 32.28 37.26, -0.23 12.2 M59.32 56.86 C43.16 38.05, 16.84 24.37, -0.16 5.21 M59.61 58.84 C43.12 44.95, 21.37 26.47, -1.11 8.68 M66.86 56.22 C43.72 39.24, 21 19.47, -2.29 2.46 M66.42 58.17 C44.17 42.92, 24.1 22.29, 1.25 3.13 M74.84 61.02 C45.66 38.26, 17.51 11.69, 6.2 -2.94 M70.97 59.57 C47.33 38.91, 23.71 19.88, 3.65 -2.3 M80.7 62.74 C54.54 44.22, 34.46 23.49, 12.27 2.32 M80.01 58.73 C54.41 41.21, 31.47 20.96, 11.64 0.57 M86.2 56.67 C62.01 43.22, 38 19.61, 19.93 -2.97 M85.81 60.38 C64.49 43.85, 43.96 25.29, 15.4 -1.75 M93.44 62.14 C74.65 43.11, 52.81 26.6, 20.31 -1.13 M89.53 61.21 C63.71 35.6, 35.93 14.72, 23.13 -0.32 M100.87 62.74 C72.8 38.15, 54.48 24.78, 24.62 2.02 M96.62 60.64 C72.87 37.62, 45.51 15.7, 29.44 0.41 M99.75 59.97 C86.5 39.93, 63.23 28.42, 37.4 -0.5 M104.62 61.14 C76.24 38.89, 52.73 15.95, 35.97 -0.4 M105.94 56.76 C92.15 43.03, 73.87 26.64, 36.54 3.36 M110.41 58.35 C95.18 47.48, 80.3 32.15, 38.73 -1.21 M116.39 63.09 C91.84 41.64, 59.32 18.81, 49.25 0.91 M113.97 61.37 C96.33 42.74, 77.88 29.7, 47.51 0.81 M121.13 60.24 C99.55 44.3, 80.41 20.07, 52.6 0.37 M121.79 59.57 C95.53 38.24, 69.76 16.85, 53.75 -1.97 M131.28 61 C102.05 37.29, 78.45 17.99, 61.22 -1.62 M126.31 61.48 C111.36 46.05, 96.74 31.58, 57.66 -1.53 M135.53 59.31 C122.16 49.3, 105.95 34.19, 67.84 1.64 M133.67 59.03 C107.09 38.99, 85.67 20.78, 64.08 -1.89 M139.94 61.78 C129.48 44.8, 115.11 33.27, 71.26 -0.84 M138.96 61.7 C116.12 39.12, 95.52 17.63, 69.88 -0.27 M148.37 61.36 C123.19 40.43, 101.91 21.48, 80.39 -1.57 M146.02 60.8 C125.99 40.84, 103.7 23.79, 75.34 -0.26 M150.53 57.51 C135.3 43.01, 117.99 32.21, 79.47 -0.22 M150.81 60.3 C123.79 33.29, 95.85 11.43, 84.72 1.11 M157.97 60.47 C139.06 43.87, 113.45 24.37, 88.06 0.58 M156.85 59.68 C137.74 43.28, 119.94 27.43, 89.71 0.27 M160.57 56.88 C139.07 39.74, 116.44 22.12, 93.06 -0.55 M163.04 58.22 C142.21 38.88, 117.78 20.64, 96.76 1.85 M174.31 57.3 C157.55 43.54, 136.78 31.48, 101.98 2.57 M170.78 61.12 C152.57 44.3, 134 26.97, 103.71 -0.26 M173.73 61.85 C150.69 38.08, 133.13 16.75, 106.88 -4.08 M175.9 59.77 C156.34 44.33, 139.85 25.54, 107.16 -0.16 M183.97 56.46 C166.92 44.62, 146.08 29.47, 112.44 -2.49 M183.96 58.61 C158.21 37.92, 130.29 13.37, 113.89 -1.07 M188.77 57.06 C158.92 38.29, 135.4 18.65, 116.4 -1.03 M189.7 61.96 C174.69 47, 159.13 33.68, 120.64 0.99 M190.93 59.22 C172.8 39.69, 151.35 17.97, 125.34 -2.87 M192.85 58.32 C173.06 43.79, 155.62 27.58, 125.37 -0.74 M204.11 61.72 C173.63 37.91, 151.96 18.3, 135.2 -0.38 M201.32 58.46 C184.72 42.89, 163.71 28.62, 130.99 0.57 M209.28 64.11 C185.92 35.67, 160.99 19.6, 135.22 -2.88 M207 59.75 C181.91 37.49, 161.18 18.2, 136.85 0.17 M214.77 63.02 C197.53 49.56, 182.57 31.78, 144 -0.43 M213.2 60.97 C188.21 37.46, 164.23 17.16, 146.05 0.57 M220.23 56.31 C200.28 40.38, 179.74 23.83, 150.72 2.45 M217.99 61.16 C197.76 42.84, 172.19 22.75, 150.08 0.46 M221.15 56.78 C218.22 54.01, 207.71 41.16, 195.37 30.58 M226.09 59.89 C214.95 53.7, 207.38 45.94, 192.44 33.11 M175.66 15.39 C171.5 11.35, 163.31 5.98, 153.23 0.49 M175.02 15.2 C168.52 10.53, 165.05 6.56, 156.47 -0.61 M229.9 62.51 C222.49 49.86, 216.81 46.36, 208.26 44.81 M231.9 59.36 C223.54 53.27, 218.6 45.45, 210.13 42.77 M165.67 3.99 C164.65 2.13, 164.14 0.5, 162.42 -0.25 M166.36 3.41 C165.56 2.19, 164.23 1.76, 162.49 0.67 M232.15 52.59 C229.21 52.55, 229.3 47.85, 222.13 47.7 M232.05 53.9 C228.93 52.49, 223.81 49.75, 222.4 44.73" stroke="#b7bcc1" stroke-width="0.5" fill="none"></path><path d="M2.44 -1.24 C2.55 7.89, -2.25 47.04, -1.45 57.33 C-0.64 67.61, 3.52 59.92, 7.26 60.48 C10.99 61.05, 11.18 60.57, 20.98 60.72 C30.78 60.87, 39.02 61.4, 66.08 61.39 C93.14 61.37, 157.53 60.8, 183.33 60.62 C209.14 60.44, 213.42 60.65, 220.9 60.31 C228.38 59.97, 226.24 60.34, 228.24 58.57 C230.24 56.8, 234.56 51.9, 232.91 49.71 C231.25 47.51, 226.82 49.03, 218.32 45.39 C209.82 41.76, 190.65 34.65, 181.88 27.89 C173.12 21.12, 169 9.53, 165.75 4.83 C162.49 0.12, 165.25 0.6, 162.36 -0.34 C159.46 -1.27, 162.99 -1.04, 148.36 -0.78 C133.73 -0.52, 99.76 0.91, 74.58 1.23 C49.39 1.54, 9.48 1.38, -2.73 1.13 M0.32 4.26 C1.57 13.74, 3.32 43.09, 4.21 52.93 C5.1 62.76, 2.89 61.49, 5.65 63.27 C8.42 65.04, 11.1 63.62, 20.82 63.56 C30.54 63.5, 37.59 63.78, 63.97 62.91 C90.35 62.04, 152.88 59.32, 179.09 58.36 C205.29 57.39, 212.16 57.22, 221.18 57.15 C230.2 57.07, 231.72 59.67, 233.19 57.91 C234.66 56.15, 232.25 48.92, 230 46.58 C227.74 44.25, 227.36 47.81, 219.66 43.88 C211.95 39.95, 191.94 29.58, 183.76 23.02 C175.58 16.45, 173.95 8.78, 170.56 4.5 C167.17 0.21, 166.15 -1.63, 163.41 -2.69 C160.68 -3.74, 168.78 -2.36, 154.14 -1.82 C139.5 -1.27, 101.56 0.93, 75.57 0.57 C49.59 0.22, 10.99 -4.07, -1.76 -3.94" stroke="#ededed" stroke-width="1" fill="none"></path></g></g><mask></mask><g stroke-linecap="round"><g transform="translate(303.37126810442965 12.057826927155247) rotate(0 1.1614681997841672 116.55131230932378)" fill-rule="evenodd"><path d="M-11.24 2.16 C-11.24 2.16, -11.24 2.16, -11.24 2.16 M-11.24 2.16 C-11.24 2.16, -11.24 2.16, -11.24 2.16 M-11.34 11.65 C-9.98 5.72, -9.32 2.35, -2.77 -1.28 M-13.21 9.26 C-10.53 7.9, -8.14 6.61, -4.89 1.24 M-15.31 14.06 C-11.14 12.21, -0.59 2.48, 1.06 -1.28 M-12.06 18.2 C-7.5 13.48, -4.64 7.75, 1.39 0.71 M-16.13 22.73 C-10.95 16.2, -6.3 16.64, 4.98 1.87 M-16.45 24.14 C-8.33 18.45, -0.65 9.42, 6.11 1.07 M-19.44 28.79 C-2.89 20.53, 2.29 11.22, 11.93 3.25 M-17.47 30.46 C-6.02 20.92, 5.41 10.18, 11.89 0.69 M-18.46 38.67 C-7.26 31.27, -1.84 17.55, 18.33 6.06 M-17.68 41.11 C-5.49 26.05, 6.4 10.56, 14.74 2.44 M-17.56 46.85 C-11.13 34.69, 0.53 27.93, 12.58 11.84 M-17.24 43.15 C-3.48 30.96, 4.9 19.12, 15.77 8.97 M-9.09 50.45 C-4.3 38.32, 1.38 28.37, 14.36 15.19 M-12.21 48.68 C-0.78 36.51, 6.84 21.95, 15.14 12.78 M-11.33 49.89 C-4.57 41.85, 4.85 25.87, 15.17 21.32 M-9.78 50.99 C1.93 36.42, 10.06 24.72, 15.2 17.17 M-8.88 57.19 C0.96 49.14, 1.5 40.33, 17.78 25.76 M-10.13 56.06 C1.25 42.71, 11.18 32.59, 18.58 23.35 M-3.03 54.95 C0.05 46.32, 11.41 36.86, 16.48 29.88 M-6.08 57.07 C-1.41 49.05, 7.16 42.18, 19.04 29.27 M-6.86 59.11 C4.18 54.25, 11.89 40.35, 19.38 31.15 M-3.65 60.45 C3 49.4, 12.86 40.93, 18.44 35.29 M-3.68 65.45 C5.28 55.33, 6.04 51, 20.62 38.62 M-1.81 63.78 C4.67 58.32, 11.71 46.37, 21.53 39.03 M-3.01 70.53 C-0.55 67.63, 0.24 68.59, 6.88 63.11 M-2.21 71.64 C2.17 66.09, 3.93 63.48, 5.64 61.61 M-1.03 78.73 C2.44 75.86, 2.13 71.01, 7.69 67.92 M-1.21 77.19 C0.04 76.28, 2.19 73.37, 7.22 66.99 M-2.14 84.84 C0.27 78.21, 4.21 73.49, 5.99 74.9 M-1.16 83.85 C0.73 80.68, 2.9 78.19, 6.68 72.54 M-3.44 88.21 C2.24 83.65, 3.9 84.37, 5.96 80.99 M-2.12 88.8 C1.54 87.23, 3.29 82.69, 5.93 78.65 M-4.03 93.32 C0.71 92.11, 3.87 88.36, 8.12 87.62 M-1.88 94.53 C2.19 92.38, 3.15 88.96, 7.03 86.46 M-3.46 101.37 C-1.03 97.84, 2.26 98.84, 4.82 92.73 M-3.27 102.6 C0.29 97.59, 3.14 94.37, 6.92 92.35 M-0.83 106.03 C0.92 105.36, 3.43 98.74, 7.91 96.33 M-1.1 109.15 C0.94 105.26, 3.05 101.6, 5.74 98.32 M-1.01 113.1 C1.11 110.16, 4.33 106.48, 8.11 102.71 M-2.22 112.66 C-1.43 111.99, 0.64 108.84, 7.79 102.75 M-3.74 121.9 C-2.02 117.25, 5.02 115.03, 8.66 109.75 M-2.63 120.48 C1.54 115.87, 3.57 111.54, 5.64 108.82 M-4.16 127.86 C-0.24 125.59, 2.15 121.45, 4.34 116.67 M-1.92 125.67 C-1.66 122.25, 2.12 121.62, 8 115.07 M-3.73 131.2 C-1.75 127.46, 1.45 127.28, 6.19 124.14 M-2.06 131.91 C-0.51 130.28, 2.01 126.16, 7.36 120.67 M0.21 140.66 C-1.66 136.28, 1.53 132.98, 9.25 125.17 M-3.11 137.25 C0.29 134.08, 5.64 130.52, 5.7 127.05 M-2.37 141.91 C-1.67 143.84, 1.25 135.91, 4.91 133.77 M-1.37 144.29 C-0.6 140.33, 3.69 136.38, 6.34 132.46 M-1.07 152.42 C2.27 146.68, 0.22 146.99, 6.04 141.76 M-2.4 149.36 C-1.06 147.25, 2.24 145.13, 6.85 139.14 M-4.61 155.79 C0.35 155.75, 2.27 151.62, 7.47 147.94 M-1.83 156.5 C-0.36 155.46, 1.83 152.09, 7.08 144.57 M-0.55 161.5 C-1.08 157.73, 0.35 159.85, 6.21 153.05 M-0.87 162.09 C0.22 157.77, 4.11 154.82, 8 152.05 M-5.26 171.56 C2.67 166.85, 4.37 163.88, 7.62 156.74 M-1.59 169.88 C0.92 165.23, 2.09 163.73, 8.8 158.98 M-5.19 176.46 C-0.75 170.28, 4.05 169.93, 4.75 163.33 M-2.53 175.09 C0.78 171.31, 4.83 166.21, 7.63 163.92 M-3.92 182.25 C0.8 174.37, 5.64 172.64, 8.65 172.1 M-2.13 182.26 C1.03 177.94, 3.72 172.36, 8.21 170.43 M-5.02 184.43 C2.69 182.37, 0.81 183.43, 9.05 178.2 M-3.46 187.42 C-1.79 184.76, 0.48 181.3, 5.86 175.91 M-0.17 194.75 C-1.88 187.6, 1.67 188.79, 5.14 179.89 M-3.64 192.35 C0.87 189.45, 3.99 184.13, 8.58 181.4 M-1.74 198.12 C-1.45 195.86, 3.77 189.65, 9.03 186.15 M-6.08 201.31 C-0.94 197.45, 3.22 193.54, 8.26 186.23 M-6.11 211.44 C-0.87 204.14, 2.19 195.6, 7.78 194.6 M-3.93 208.59 C-1.05 204.91, 1.09 202.26, 7.39 193.02 M-9.07 211.78 C-4.58 215.07, 1.74 206.12, 5.63 202.46 M-6.11 214.86 C0.68 208.16, 6.07 203.83, 6.51 200.59 M-4.1 225.11 C-1.66 213.15, 7.57 212.2, 5.11 202.56 M-6.15 220.29 C-0.41 217.96, 1.57 214.54, 9.81 205.56 M-2.96 226.13 C-2.74 222.2, 6.52 221.6, 10.46 208.22 M-5.39 227.88 C-1.45 223.65, 4.16 215.75, 8.37 210.17 M-6.17 231.68 C0.68 229.89, 4.24 225.21, 11.36 216.58 M-5.88 233.36 C-2.73 228.45, 1.72 223.52, 6.47 217.31 M-3.32 233.79 C0.55 231.8, 2.84 229.9, 5.07 224.26 M-1.03 233.54 C2.67 230.38, 3.73 228.17, 8.75 225.21 M4.32 233.17 C5.59 232.18, 7.06 232.12, 7.68 230.19 M4.59 233.56 C6.29 233.02, 6.14 231.9, 8.27 229.52 M-7.81 233.05 C-7.81 233.05, -7.81 233.05, -7.81 233.05 M-7.81 233.05 C-7.81 233.05, -7.81 233.05, -7.81 233.05 M-1.46 234.21 C-4.33 231.97, -5.23 228.35, -8.5 228.72 M-0.2 234.37 C-2.47 232.28, -4.66 230.54, -6.92 227.73 M3.63 231.89 C-1.16 229.63, -5.55 226.36, -5.15 222.88 M5.28 232.4 C2.49 229.67, -1.42 229.12, -7.46 223.71 M3.19 227.69 C4.67 228.19, 3.44 221.66, -6.57 221.36 M6.92 229.63 C2.15 223.13, -5.39 219.48, -7.51 219.48 M3.95 220.42 C0.41 223.29, -2.59 217.26, -4.81 214.73 M6.96 222.76 C2.68 222.49, -0.71 219.53, -5.3 213.11 M7.87 218.26 C3.06 217.25, -4.92 211.8, -8.87 206.67 M5 219.23 C2.06 215.18, 0.02 213.69, -5.77 207.02 M6.23 213.73 C2.97 208.64, -2.09 205.99, -7.32 201.28 M4.96 213.56 C2.42 210.3, -0.7 206.53, -5.75 203.73 M3.73 209.7 C3.72 205.56, -2.81 199.73, -3.93 199.58 M5.81 206.17 C1.47 206.21, 0.97 204, -6.21 198.35 M6.21 201.67 C3.3 197.26, -0.96 196.06, -3.52 195.62 M5.24 201.93 C3.1 200, -0.67 197.29, -5.25 194.11 M5.38 196.59 C5.05 193.74, 1.52 194.28, -5.93 189.17 M5.77 197.27 C3.25 194.34, -0.02 190.28, -6.51 187.47 M2.91 191.83 C0.34 187.02, -2.68 183.71, -7.75 183.81 M4.61 191.77 C0.61 189.16, -1.73 185.08, -4.16 182.92 M5.53 188.3 C-0.57 185.56, -0.6 177.76, -6.23 178.42 M5.24 186.23 C2.85 183.58, -0.59 179.98, -4.22 177.69 M3.7 179.84 C1.41 175.3, -1.29 174.63, -3.37 173.85 M3.96 179.61 C2.9 179.75, 0 176.93, -3.83 173.16 M3.64 175.02 C3.48 174.52, -5.12 166.43, -4.53 164.4 M4.84 175.71 C1.05 172.25, -1.93 169.38, -4.42 165.08 M4.86 169.23 C1.79 166.5, -3.12 165.33, -6.62 160.06 M4.94 168.53 C2.16 166.56, -0.62 163.63, -5.76 162.4 M5.72 166.98 C2.54 161.67, 1.5 163.44, -7.98 155.83 M5.37 166.03 C1.12 160.98, -3.1 159.03, -4.96 156 M4.71 156.69 C1.47 155.41, 1.62 154.7, -5.95 150 M3.5 158.74 C2.46 156.58, -1.56 153.53, -6.28 151.21 M7.55 155.27 C2.4 152.87, -5.41 146.81, -3.19 145.04 M5.05 155.23 C2.48 150.84, -2.51 149.16, -4.88 144.69 M5.62 150.41 C-0.57 144.27, -2.03 140.91, -4.71 138.7 M5.57 147.63 C1.26 147.03, 0.15 145.07, -4.08 140.63 M5.81 145.27 C0.07 141.22, -2.15 137.79, -5.74 136.56 M5.13 144.53 C1.34 140.88, -0.55 139.19, -3.72 136.22 M3.07 138.14 C3.61 133.94, -1.34 133.53, -5.35 129.42 M5.59 136.96 C1.76 134.6, -1.74 131.99, -5.43 129.57 M3.37 133.97 C-1.6 129.56, -3.53 124.25, -2.44 122.89 M3.65 132.45 C0.66 131.04, -1.9 126.93, -4.25 124.71 M6.41 128.87 C4.32 127.65, 0.53 121.06, -4.25 118.01 M4.68 127.64 C0.75 123.97, -2.98 119.62, -6.01 119.95 M5.21 123.62 C-0.19 121.36, -0.32 117.41, -5.51 114.01 M3.57 122.31 C1.91 121.09, -0.87 118.05, -5.36 113.42 M2.51 116.39 C3.96 116.15, -0.62 113.19, -7.27 108.55 M5.5 117.12 C1.77 115.17, 0.95 112.19, -6.48 108.96 M5.4 112.08 C0.94 111.41, 0.46 105.52, -4.89 104.74 M3.37 110.94 C0.8 109.18, -0.95 106.62, -5.57 103.78 M2.51 105.28 C1.78 102.8, 1.37 103.39, -3.79 97.69 M4.39 107.2 C2.93 103.93, -2 102.05, -4.71 96.84 M4.46 100.76 C1.11 99.27, 0.43 97.22, -6.56 90.38 M4.87 101.11 C1.67 98.3, -2.26 95.5, -4.3 91.7 M4.63 94.7 C0.7 94.33, -2.43 91.32, -3.27 85.26 M3.64 95.49 C1.34 93.2, -1.19 90.78, -6.09 86.86 M3.7 89.08 C2.53 89.06, -3.48 83.15, -3.68 81.04 M5.28 88.79 C0.77 87.35, -1.94 82.85, -4.41 81.92 M2.89 85.83 C2.84 82.09, -1.92 80.32, -2.76 78.99 M4.04 83.68 C2.48 82.83, -1.24 81.59, -4.89 75.81 M5.29 79.2 C2.14 77.67, -0.9 75.41, -5.38 72.77 M4.39 79.96 C1.52 77.32, -1.63 73.78, -4.96 71.19 M2.17 74.24 C3.22 72.81, 0.48 69.79, -5.44 64.37 M3.35 72.66 C1.89 71.86, -1.33 70.7, -4.96 66 M2.35 66.15 C-0.17 65.93, -1.31 62.2, -4.38 60.93 M4.66 69.14 C1.59 66.12, -3.15 61.89, -7.7 58.89 M0.74 59.78 C-5.24 59.49, -7.6 55.07, -10.17 45.36 M4.23 64.17 C-2.35 57.62, -9.3 54.18, -13.97 48.01 M5.88 60.5 C0.6 50.98, -8.72 45.81, -15.53 40.8 M4.85 59.49 C-2.06 54.27, -11.13 46.16, -14.44 38.69 M7.99 54.12 C-4.36 45.39, -11.79 37.56, -16.58 34.09 M8.02 58.02 C1.7 48.31, -6.97 44.39, -16.84 33.17 M12.85 52.77 C7.92 50.3, -0.53 44.41, -13.3 31.66 M11.24 52.74 C6.62 48.8, -1.19 43.51, -15.51 30.76 M14.56 51.41 C0.43 38.14, -10.11 30.36, -17.55 27.01 M13.17 51.12 C4.65 45.49, -0.88 37.2, -13.49 25.11 M20.6 45.47 C5.56 37.41, -0.06 28.02, -9.85 20.32 M17.97 47.3 C8.5 40.31, -0.41 33.92, -11.93 22.43 M16.97 45.11 C4.99 32.32, -9.96 24.24, -15.63 15.42 M15.97 43.08 C4.32 33.81, -7.04 21.89, -14.97 17.07 M18.31 36.75 C8.41 31.76, -2.45 15.49, -10.26 10.68 M16.99 39.98 C9.13 29.41, 2.27 21.82, -11.34 13.04 M15.58 36.01 C9.01 29.4, 2.04 16.08, -15.48 7.22 M17.52 30.89 C9.47 24.77, 2.01 20.17, -11.5 6.9 M19.33 27.31 C6.92 21.44, 0.09 14.83, -12 1.25 M15.32 26.21 C9.39 20.47, -1.02 10.77, -12.78 2.63 M14.2 22.76 C8.12 10.06, 3.85 9.18, -8.61 2.17 M15.29 19.46 C6.89 13.51, 1.31 6.62, -5.2 0.42 M15.15 15.11 C7.02 8.37, 9.51 11.77, -1.11 -3.61 M13.09 14.76 C10.44 8.73, 5.83 6.12, -2.95 -0.88 M14.5 6.33 C10.9 5.47, 7.66 3.75, 4.46 1.66 M13.87 8.78 C11.99 5.05, 7.83 3.46, 3.97 -1.27" stroke="#b7bcc1" stroke-width="0.5" fill="none"></path><path d="M-2.33 0.27 C0.1 0.37, 9.86 -0.37, 12.29 0.65 C14.72 1.66, 10.86 -1.03, 12.24 6.37 C13.63 13.77, 21.96 36.08, 20.61 45.06 C19.27 54.04, 6.85 53.97, 4.18 60.26 C1.51 66.55, 4.9 59.48, 4.59 82.8 C4.29 106.11, 2.18 175.54, 2.35 200.15 C2.53 224.76, 5.78 224.65, 5.63 230.46 C5.48 236.27, 3.31 234.5, 1.46 235.01 C-0.4 235.53, -4.36 234.61, -5.5 233.54 C-6.64 232.47, -5.09 234.13, -5.4 228.59 C-5.71 223.05, -7.24 224.12, -7.34 200.29 C-7.45 176.46, -6.37 108.82, -6.03 85.59 C-5.7 62.36, -3.13 68.29, -5.33 60.89 C-7.53 53.49, -18.28 50.02, -19.23 41.21 C-20.18 32.4, -12.85 15.01, -11.02 8.02 C-9.19 1.04, -9.63 0.81, -8.23 -0.7 C-6.83 -2.2, -3.89 -1.3, -2.61 -1.02 M1.6 -2.06 C4.03 -1.45, 9.7 2.57, 11.1 4.42 C12.49 6.26, 8.09 3.03, 9.96 9.04 C11.83 15.05, 22.5 31.67, 22.32 40.47 C22.13 49.28, 12.61 55.28, 8.86 61.86 C5.11 68.43, 0.83 56.07, -0.2 79.94 C-1.23 103.8, 2.07 179.97, 2.68 205.03 C3.28 230.09, 3.1 225.77, 3.44 230.32 C3.77 234.88, 5.74 232.03, 4.67 232.36 C3.6 232.69, -1.55 232.61, -2.97 232.32 C-4.4 232.03, -3.85 236.18, -3.87 230.63 C-3.9 225.07, -2.8 223.32, -3.15 198.99 C-3.49 174.67, -5.36 107.61, -5.96 84.68 C-6.56 61.76, -4.46 68.99, -6.73 61.46 C-8.99 53.93, -17.9 47.93, -19.53 39.49 C-21.17 31.04, -18.07 17.33, -16.51 10.8 C-14.96 4.27, -13.21 2.22, -10.19 0.3 C-7.18 -1.61, 0.57 -1.01, 1.58 -0.7" stroke="#ededed" stroke-width="1" fill="none"></path></g></g><mask></mask><g stroke-linecap="round"><g transform="translate(303.06932802007736 245.77246011329385) rotate(0 0.7752266779540378 95.51160647313739)" fill-rule="evenodd"><path d="M-23.16 -1.59 C-23.16 -1.59, -23.16 -1.59, -23.16 -1.59 M-23.16 -1.59 C-23.16 -1.59, -23.16 -1.59, -23.16 -1.59 M-25.84 6.68 C-25.31 3.22, -18.58 -0.78, -19.92 -1.91 M-25.61 7.8 C-22.21 5.53, -20.46 1.86, -17 -2.38 M-29.8 15.61 C-21.92 9.31, -19.93 5.75, -12.61 2.84 M-24.31 15.65 C-22.61 10.82, -18.59 5.81, -14.76 0.71 M-23.08 13.25 C-17.96 13.42, -13.53 5.97, -7.88 -1.35 M-22.68 17.5 C-16.2 10.23, -12.39 5.26, -7 1.31 M-14.32 16.45 C-14.59 14.01, -9.2 10.69, 0.45 -3.32 M-19.25 18.35 C-12.34 13.35, -5.78 4.09, -3.47 0.56 M-17.48 25.92 C-14.63 15.41, -1.79 12, 4.78 -2.87 M-19.3 24.1 C-12.06 13.79, -4 6.33, 0.69 1.14 M-20.97 28.9 C-8.79 21.48, -4.78 14.28, 9.45 -2.22 M-17.17 28.37 C-13.15 22.27, -5.23 16.37, 7.3 -1.15 M-17.83 35.74 C-13.72 26.25, -4.65 18.24, 15.04 -1.98 M-15.82 36.43 C-7.4 20.07, 3.65 7.64, 14.05 -1.95 M-22.22 43.64 C-14.76 30.14, -4.57 26.78, 23.2 -2.45 M-16.7 40.37 C-8.25 27.54, 3.34 12.59, 17.95 -2.3 M-15.2 49.86 C-9.83 34.87, 3.36 24.28, 25.71 -3.81 M-18.94 47.6 C-6.88 35, 5.36 21.05, 23.04 -1.42 M-20.46 52.25 C-1.59 33.72, 9.89 19.59, 22.57 2.58 M-20.37 52.87 C-7.1 40.61, 3.45 29.75, 25.03 3.35 M-18.72 63.27 C-3.67 41.94, 9.55 25.99, 19.77 18.22 M-21.37 59.54 C-11.42 50.94, -2.04 41.36, 15.83 19.96 M21.02 14.25 C20.38 13.97, 22.42 13.05, 24.89 10.06 M20.27 15.76 C21.19 13.56, 23.06 12.75, 23.9 11.12 M-19.89 65.75 C-12.6 60.45, -2.51 51.84, 19.14 25.88 M-18.14 65.84 C-11.02 56.51, -3.25 47.8, 17.6 25.51 M-17.48 77.68 C-7.6 57.38, 11.6 40.09, 13.86 29.47 M-19.75 76.46 C-6.03 59.18, 8.27 41.77, 19.16 31.45 M-22.4 79.62 C-9.83 64.35, 1.49 56.59, 17.34 33.98 M-20.38 81.63 C-10.32 68.85, 0.59 54.54, 19.21 34.54 M-18.84 83.71 C-9.84 78.22, -0.19 65.93, 20.59 39.07 M-19.98 89.31 C-11.35 75.74, -0.63 62.17, 20.66 41.65 M-22.55 95.14 C-12.84 85.24, 0.02 76.99, 20.63 43.71 M-19.8 94.86 C-11.17 81.7, 2.3 69.56, 18.3 47.7 M-23.2 98.72 C-7.08 88.1, 4.21 70.06, 20.1 50.99 M-22.17 98.92 C-11.97 87.51, -1.88 79.84, 21.05 51.73 M-22.23 108.58 C-14.9 94.72, -2.53 84.84, 22.86 60.3 M-21.62 108.5 C-9.92 91.44, 4.17 74.65, 22.18 56.58 M-23.15 114.69 C-6 94.69, 14.21 72.28, 17.58 64.14 M-24.69 114.89 C-9.61 97.11, 8.31 79.62, 21.5 64.95 M-26.73 121.6 C-3.39 103.12, 13.86 81.22, 23.93 69.33 M-22.39 119.78 C-14.81 108.12, -6.33 98.11, 22.24 68.08 M-24.68 130.71 C-13.4 115.92, -2.65 100.59, 20.22 77.8 M-25.29 124.87 C-9.83 112.26, 5.93 94.13, 21.24 73.86 M-26.74 130.98 C-7.58 114.88, 10.78 97.01, 18.95 78.78 M-24.01 134.02 C-4.86 110.19, 13.26 90.13, 23.19 78.43 M-27.13 141.48 C-10.5 120.91, 13.04 95.39, 26.46 85.61 M-24.99 139.09 C-8.69 125.38, 1.3 109.06, 22.83 86.35 M-26.94 149.87 C-7.85 122.6, 9.91 104.49, 25.06 92.98 M-26.3 145.85 C-11.23 129, 2.48 111.86, 21.79 91.17 M-21.23 151.12 C-7.86 131.54, 12.1 110.35, 20.74 97.63 M-26.11 152.07 C-5.31 131.38, 12.54 109.53, 22.86 95.6 M-24.76 161.8 C-7.09 140.17, 10.53 123, 22.63 98.65 M-25.77 161.19 C-13.23 145.18, 0.37 127.9, 24.12 103.12 M-27.09 162.83 C-15.33 154.23, -0.16 136.48, 26.74 110.23 M-26.32 164.41 C-6.73 143.04, 13.58 121.62, 25.25 106.11 M-22.33 173.18 C-7.44 155.06, 6.65 134.46, 22.04 110.88 M-23.58 169.81 C-9.29 151.7, 8.03 135.85, 24.32 114.46 M-24.87 173.94 C-3.6 157.07, 6.46 137.4, 30.16 120.21 M-25.28 177.76 C-12.69 162.66, 0.66 148.51, 28 119.71 M-23.84 178.26 C-9.8 167.49, 2.92 156.65, 28.26 127.89 M-22.86 182.26 C-13.35 166.94, -1.4 157.41, 25.18 123.4 M-17.45 182.41 C-4.17 167.67, 17.4 148.46, 23.94 126.71 M-23.27 185.33 C-4.32 163.11, 13.15 144.1, 28.4 129.5 M-21.5 185.46 C-8.41 175.67, 5.28 153.67, 30.88 133.27 M-18.73 188.15 C-8.58 175.7, 4.29 164.39, 28.18 132.47 M-15.72 188.33 C2.11 167.59, 19.73 150.26, 27.02 137.28 M-14.56 189.39 C2.46 172.01, 16.88 153.86, 29.8 141.93 M-11.56 193.3 C0.51 173.81, 15.73 161.62, 26.16 146.25 M-10.26 192.17 C2.51 176.61, 15.91 158.94, 27.54 146.77 M-8.6 196.19 C4.77 180.59, 10.71 174.52, 33.58 153.8 M-5.36 191.56 C2.65 184.58, 7.44 176.32, 30.88 150.76 M-2.95 191.19 C12.15 182.52, 16.29 165.16, 29.6 152.4 M-1.15 194.84 C6.19 185.78, 17.77 173.38, 30.76 156.7 M1.62 193.56 C13.08 190.1, 19.02 174.49, 31.81 162.57 M2.79 195.5 C14.44 180.4, 24.53 167.77, 32.37 163.04 M9.98 195.66 C13.43 191.37, 22.24 180.77, 30.7 165.7 M7.54 192.71 C13.13 186.55, 17.31 181.36, 29.42 167.99 M13.89 192.67 C19.98 187.16, 20.83 181.71, 32.51 176.98 M15.67 192.41 C18.63 187.76, 26.65 182.16, 29.66 173.91 M20.2 190.46 C26.41 189.16, 25.1 186.38, 29.26 176.53 M21.84 193.9 C22.84 188.61, 28.45 182.49, 31.13 180.94 M-20.84 187.07 C-20.84 187.07, -20.84 187.07, -20.84 187.07 M-20.84 187.07 C-20.84 187.07, -20.84 187.07, -20.84 187.07 M-12.71 191.61 C-13.04 184.94, -19.67 186.2, -26.92 177.72 M-10.16 190.79 C-16.06 186.3, -18.25 182.51, -24.32 176.25 M-5.15 192.47 C-10.58 188.26, -9.51 183.59, -26.94 168.72 M-1.38 191.07 C-11.37 186.28, -20.42 178.2, -26.73 171.16 M6.05 195.04 C0.56 183.17, -11.02 182.73, -21.96 162.88 M5.46 191.39 C-3.92 187.03, -9.23 184.05, -26.85 166.39 M7.09 195.78 C-0.45 184, -3.37 180.44, -26.73 164.02 M9.78 194.44 C-0.5 185.54, -7.19 176.64, -23.55 163.27 M17.5 195.79 C2.32 185.16, -6.28 175.21, -23.96 161.03 M15.9 192.45 C6.22 184.94, -6.84 171.54, -21.75 156.72 M21.92 189.86 C6.55 179.19, -11.31 163.38, -23.25 155.9 M20.16 190.81 C5.74 176.91, -10.23 165.44, -23.91 153.89 M25.8 189.93 C7.89 174.53, 0.28 169.1, -26.12 152.13 M22.05 190.23 C11.2 177.76, -3.93 165.62, -23.77 149.18 M28.7 183.41 C13.37 173.59, 4.12 168.05, -22.74 142.21 M28.82 187.61 C11.39 172.75, -5.6 159.17, -23.63 142.39 M33.23 182.79 C21.37 177.64, 8.13 167.69, -22.2 141.97 M31.85 184.34 C20.21 173.21, 5.68 164.56, -21.3 139.62 M28.88 177.14 C17.56 165.6, 1.89 158.41, -18.77 136.76 M29.82 180.35 C14.78 163.84, -3.14 148.5, -20.94 134.14 M27.68 177.08 C13.11 154.23, -9.85 142.54, -22.12 131.7 M31.77 173.79 C16.99 160.21, 4.05 150.3, -19.94 127.27 M31.3 165.65 C18.48 156.51, 4.53 145.79, -24.34 121.33 M31.57 170.47 C12.67 152.41, -3.78 137.5, -20.55 124.58 M35.45 167.97 C18.11 151.4, 11.78 142.21, -19.17 118.41 M31.68 164.16 C13.43 147.92, -5.47 128.68, -21.72 119.4 M31.7 157.47 C16.1 148.47, 4.59 135.06, -20.77 112.29 M32.33 157.44 C13.01 138.93, -8.66 125.26, -22.56 113.78 M31.2 151.41 C16.86 143.74, -4.64 126.1, -18.98 105.78 M30.67 151.85 C11.65 138.82, -4.18 123.07, -22.11 105.94 M28.42 143.86 C16.32 131.07, -2.81 117.18, -18.29 100.69 M31.86 147.49 C19.88 136.69, 5.29 126.44, -19.04 102.53 M31.45 143.9 C9.32 126.75, 0.8 114.08, -20.11 100.16 M30.7 139.86 C8.5 125.07, -8.53 107.25, -18.5 99.51 M27.18 133.94 C18.91 124.48, 6.92 114.24, -21 94.83 M28.27 136.78 C19.08 127.06, 8.57 116.65, -18.99 90.98 M26.12 130.57 C14.11 118.67, 0.48 109.46, -18.95 89.18 M28.02 129.89 C18.89 122.65, 8.87 113.46, -19.25 86.1 M30.58 121.52 C17.6 115.87, 7.19 105.45, -19.62 79.67 M27.45 122.23 C14.58 111.54, 4.5 103.62, -17.1 81.95 M23.48 118.53 C14.7 105.25, 8.15 95.48, -18.55 81.08 M26.2 119.72 C13.54 105.37, 2.12 95.28, -20.38 76.38 M29.57 115.67 C15.9 99.74, 7.03 93.37, -15.49 72.75 M26.65 112.09 C16.14 101.54, 5.18 96.34, -17.74 72.95 M24.19 110.18 C13.78 95.75, -4.3 82, -20.56 64.76 M26.1 108.41 C8.76 92.41, -7.1 77.48, -17.61 69.72 M29.5 103.46 C13.76 90.73, -5.05 76.41, -21.33 59.61 M24.37 100.64 C9.94 85.39, -8.96 73.98, -19.73 63.54 M23.28 97.89 C8.29 76.45, -9.71 67.71, -18.01 57.05 M23.92 95.12 C8.91 79.83, -9.72 65.88, -19.1 57.5 M24.1 87.19 C16.34 81.16, 4.92 69.31, -18.24 52.39 M26.48 89.5 C12.04 81.33, 3.22 69.16, -17.31 53.91 M23.4 84.62 C11.71 72.23, -9.62 52.86, -16.32 49.39 M24.42 83.63 C13.59 76.12, 6.76 66.66, -18.44 45.77 M21.44 79.19 C4.82 64.46, -3.14 48.7, -16.2 45.86 M24.13 78.34 C9.83 65.97, -7.92 51.54, -16.67 40.99 M24.58 73.98 C4.62 55.16, -4.41 44.17, -13.75 35.88 M22.64 72.42 C14.76 61.94, 6.5 56.44, -15.16 35.29 M26 67.02 C14.26 61.48, 8.22 54.73, -19.03 36.08 M23.78 66.13 C6.07 54.24, -6.72 38.79, -16.93 33.04 M21.98 60.21 C7.56 48.61, -5.62 39.49, -14.48 23.89 M21.73 60.71 C9.82 49.68, -1.89 39.84, -15.72 28.17 M24.62 56.23 C10.58 42.74, -8.27 26.2, -17.98 19.1 M21.22 53.93 C5.84 42.83, -6.69 29.18, -15.65 20.35 M-25.17 13.71 C-25.17 13.71, -25.17 13.71, -25.17 13.71 M-25.17 13.71 C-25.17 13.71, -25.17 13.71, -25.17 13.71 M16.91 49.3 C9.33 38.84, 0.4 23.7, -22.8 6 M19.94 47.73 C4.92 37.51, -9.61 22.68, -24.01 6.35 M23.06 41.61 C9.79 33.36, -3.48 22.28, -23.26 4.27 M20.69 44.17 C2.23 27.81, -13.17 10.35, -24.38 3.02 M15.67 33.75 C8.25 25.47, 0.03 18.73, -24.11 2.45 M19.56 34.68 C9.19 30.03, 1.06 20.13, -25.09 -0.92 M21.03 32.08 C3.03 18.12, -9.56 5.81, -25.29 -5.35 M19.48 30.86 C5.75 20.4, -4.29 11.15, -20.4 -3.21 M15.27 21.28 C3.61 12.88, -6.72 7.43, -17.14 0.07 M16.19 26.14 C9.32 16.96, 3.61 10.9, -13.64 -1.38 M17.09 17.23 C11.72 8.13, 2.07 1.41, -8.45 -1.81 M18.27 19.28 C9.96 13.53, 3.36 6.49, -5.95 -2.9 M17.55 13.27 C8.16 10.11, 1.91 1.41, 4.37 -2.6 M16.36 15.23 C12.44 9.46, 6.56 6.13, 2 -1.98 M23.29 15.72 C19.15 5.15, 15.64 3.71, 5.7 -1.84 M21.76 11.33 C19.63 7.96, 15.38 7.01, 5.75 -1.72 M25.33 14.11 C22.04 4.46, 14.17 3.58, 11.08 1.54 M26.47 10.33 C23.94 9.6, 20.11 4.73, 10.85 -2.81 M24.48 6.1 C20.74 2.55, 19.11 -0.83, 16.78 -5 M27.03 6.62 C22.92 2.5, 20.22 1.2, 17.36 -1.84" stroke="#b7bcc1" stroke-width="0.5" fill="none"></path><path d="M1.91 0.26 C5.66 -0.25, 15.95 -4.07, 20.12 -2.76 C24.29 -1.45, 26.44 5.2, 26.92 8.12 C27.4 11.04, 24.54 13.8, 23.02 14.76 C21.49 15.73, 19.29 13.1, 17.76 13.9 C16.23 14.69, 13.46 11.61, 13.82 19.54 C14.18 27.47, 18.16 42.27, 19.93 61.5 C21.7 80.73, 22.94 113.79, 24.44 134.91 C25.93 156.03, 36.19 179.61, 28.9 188.23 C21.6 196.84, -10.11 195.58, -19.34 186.61 C-28.58 177.63, -26.42 155.38, -26.49 134.37 C-26.56 113.36, -21.19 79.22, -19.78 60.53 C-18.36 41.84, -17.66 29.78, -18 22.22 C-18.34 14.65, -20.51 16.35, -21.84 15.15 C-23.16 13.95, -25.46 16.53, -25.94 15 C-26.42 13.48, -24.7 8.88, -24.7 5.98 C-24.7 3.08, -29.97 -1.57, -25.95 -2.41 C-21.92 -3.24, -5.14 1.06, -0.55 0.99 M-0.49 -2.07 C3.01 -2.19, 12.95 -0.59, 17.41 0.42 C21.86 1.44, 25.28 2.54, 26.23 4.04 C27.18 5.53, 25.02 7.67, 23.11 9.4 C21.21 11.13, 16 13.23, 14.8 14.41 C13.61 15.6, 14.82 9.07, 15.96 16.5 C17.11 23.93, 19.47 39.29, 21.67 58.99 C23.87 78.69, 28.51 113.75, 29.18 134.71 C29.84 155.68, 33.32 176.39, 25.66 184.81 C18.01 193.23, -8.01 193.31, -16.76 185.25 C-25.52 177.18, -27.15 157.18, -26.84 136.4 C-26.54 115.62, -16.55 79.76, -14.94 60.57 C-13.33 41.39, -17.02 29.01, -17.19 21.29 C-17.36 13.58, -14.72 15.59, -15.94 14.29 C-17.15 13, -22.13 14.53, -24.46 13.51 C-26.79 12.49, -30.36 10.62, -29.9 8.17 C-29.44 5.72, -26.02 -0.23, -21.68 -1.19 C-17.35 -2.15, -7.37 2.82, -3.88 2.4" stroke="#ededed" stroke-width="1" fill="none"></path></g></g><mask></mask></svg>
