<?xml version="1.0" encoding="UTF-8" standalone="no"?>
<!DOCTYPE svg PUBLIC "-//W3C//DTD SVG 1.1//EN"
 "http://www.w3.org/Graphics/SVG/1.1/DTD/svg11.dtd">
<!-- Generated by graphviz version 2.43.0 (0)
 -->
<!-- Title: sen::DurationType Pages: 1 -->
<svg width="159pt" height="732pt"
 viewBox="0.00 0.00 159.00 732.00" xmlns="http://www.w3.org/2000/svg" xmlns:xlink="http://www.w3.org/1999/xlink">
<g id="graph0" class="graph" transform="scale(1 1) rotate(0) translate(4 728)">
<title>sen::DurationType</title>
<!-- Node1 -->
<g id="Node000001" class="node">
<title>Node1</title>
<g id="a_Node000001"><a xlink:title="Represents a sen::Duration (a time duration).">
<polygon fill="#999999" stroke="transparent" points="126.5,-94 24.5,-94 24.5,0 126.5,0 126.5,-94"/>
<text text-anchor="start" x="31.5" y="-82" font-family="Helvetica,sans-Serif" font-size="10.00">sen::DurationType</text>
<text text-anchor="start" x="73.5" y="-67" font-family="Helvetica,sans-Serif" font-size="10.00"> </text>
<text text-anchor="start" x="28.5" y="-52" font-family="Helvetica,sans-Serif" font-size="10.00">+</text>
<text text-anchor="start" x="41.5" y="-52" font-family="Helvetica,sans-Serif" font-size="10.00">DurationType()</text>
<text text-anchor="start" x="28.5" y="-37" font-family="Helvetica,sans-Serif" font-size="10.00">+</text>
<text text-anchor="start" x="41.5" y="-37" font-family="Helvetica,sans-Serif" font-size="10.00">~DurationType()</text>
<text text-anchor="start" x="28.5" y="-22" font-family="Helvetica,sans-Serif" font-size="10.00">+</text>
<text text-anchor="start" x="41.5" y="-22" font-family="Helvetica,sans-Serif" font-size="10.00">equals()</text>
<text text-anchor="start" x="28.5" y="-7" font-family="Helvetica,sans-Serif" font-size="10.00">+</text>
<text text-anchor="start" x="41.5" y="-7" font-family="Helvetica,sans-Serif" font-size="10.00">get()</text>
<polygon fill="#666666" stroke="#666666" points="24.5,-77 24.5,-77 126.5,-77 126.5,-77 24.5,-77"/>
<polygon fill="#666666" stroke="#666666" points="24.5,-62 24.5,-62 126.5,-62 126.5,-62 24.5,-62"/>
<polygon fill="none" stroke="#666666" points="24.5,0 24.5,-94 126.5,-94 126.5,0 24.5,0"/>
</a>
</g>
</g>
<!-- Node2 -->
<g id="Node000002" class="node">
<title>Node2</title>
<g id="a_Node000002"><a xlink:href="classsen_1_1_quantity_type.html" target="_top" xlink:title="Represents a quantity.">
<polygon fill="white" stroke="transparent" points="134.5,-389 16.5,-389 16.5,-130 134.5,-130 134.5,-389"/>
<text text-anchor="start" x="31.5" y="-376.5" font-family="Helvetica,sans-Serif" font-size="10.00">sen::QuantityType</text>
<text text-anchor="start" x="73.5" y="-361.5" font-family="Helvetica,sans-Serif" font-size="10.00"> </text>
<text text-anchor="start" x="20.5" y="-346.5" font-family="Helvetica,sans-Serif" font-size="10.00">+</text>
<text text-anchor="start" x="33.5" y="-346.5" font-family="Helvetica,sans-Serif" font-size="10.00">QuantityType()</text>
<text text-anchor="start" x="20.5" y="-331.5" font-family="Helvetica,sans-Serif" font-size="10.00">+</text>
<text text-anchor="start" x="33.5" y="-331.5" font-family="Helvetica,sans-Serif" font-size="10.00">~QuantityType()</text>
<text text-anchor="start" x="20.5" y="-316.5" font-family="Helvetica,sans-Serif" font-size="10.00">+</text>
<text text-anchor="start" x="33.5" y="-316.5" font-family="Helvetica,sans-Serif" font-size="10.00">getElementType()</text>
<text text-anchor="start" x="20.5" y="-301.5" font-family="Helvetica,sans-Serif" font-size="10.00">+</text>
<text text-anchor="start" x="33.5" y="-301.5" font-family="Helvetica,sans-Serif" font-size="10.00">getUnit()</text>
<text text-anchor="start" x="20.5" y="-286.5" font-family="Helvetica,sans-Serif" font-size="10.00">+</text>
<text text-anchor="start" x="33.5" y="-286.5" font-family="Helvetica,sans-Serif" font-size="10.00">getUnit()</text>
<text text-anchor="start" x="20.5" y="-271.5" font-family="Helvetica,sans-Serif" font-size="10.00">+</text>
<text text-anchor="start" x="33.5" y="-271.5" font-family="Helvetica,sans-Serif" font-size="10.00">getMaxValue()</text>
<text text-anchor="start" x="20.5" y="-256.5" font-family="Helvetica,sans-Serif" font-size="10.00">+</text>
<text text-anchor="start" x="33.5" y="-256.5" font-family="Helvetica,sans-Serif" font-size="10.00">getMinValue()</text>
<text text-anchor="start" x="20.5" y="-241.5" font-family="Helvetica,sans-Serif" font-size="10.00">+</text>
<text text-anchor="start" x="33.5" y="-241.5" font-family="Helvetica,sans-Serif" font-size="10.00">getQualifiedName()</text>
<text text-anchor="start" x="20.5" y="-226.5" font-family="Helvetica,sans-Serif" font-size="10.00">+</text>
<text text-anchor="start" x="33.5" y="-226.5" font-family="Helvetica,sans-Serif" font-size="10.00">getName()</text>
<text text-anchor="start" x="20.5" y="-211.5" font-family="Helvetica,sans-Serif" font-size="10.00">+</text>
<text text-anchor="start" x="33.5" y="-211.5" font-family="Helvetica,sans-Serif" font-size="10.00">getDescription()</text>
<text text-anchor="start" x="20.5" y="-196.5" font-family="Helvetica,sans-Serif" font-size="10.00">+</text>
<text text-anchor="start" x="33.5" y="-196.5" font-family="Helvetica,sans-Serif" font-size="10.00">equals()</text>
<text text-anchor="start" x="20.5" y="-181.5" font-family="Helvetica,sans-Serif" font-size="10.00">+</text>
<text text-anchor="start" x="33.5" y="-181.5" font-family="Helvetica,sans-Serif" font-size="10.00">isBounded()</text>
<text text-anchor="start" x="20.5" y="-166.5" font-family="Helvetica,sans-Serif" font-size="10.00">+</text>
<text text-anchor="start" x="33.5" y="-166.5" font-family="Helvetica,sans-Serif" font-size="10.00">make()</text>
<text text-anchor="start" x="20.5" y="-151.5" font-family="Helvetica,sans-Serif" font-size="10.00">#</text>
<text text-anchor="start" x="33.5" y="-151.5" font-family="Helvetica,sans-Serif" font-size="10.00">getSpec()</text>
<text text-anchor="start" x="20.5" y="-136.5" font-family="Helvetica,sans-Serif" font-size="10.00">#</text>
<text text-anchor="start" x="33.5" y="-136.5" font-family="Helvetica,sans-Serif" font-size="10.00">QuantityType()</text>
<polygon fill="#666666" stroke="#666666" points="16.5,-371.5 16.5,-371.5 134.5,-371.5 134.5,-371.5 16.5,-371.5"/>
<polygon fill="#666666" stroke="#666666" points="16.5,-356.5 16.5,-356.5 134.5,-356.5 134.5,-356.5 16.5,-356.5"/>
<polygon fill="none" stroke="#666666" points="16.5,-130 16.5,-389 134.5,-389 134.5,-130 16.5,-130"/>
</a>
</g>
</g>
<!-- Node2&#45;&gt;Node1 -->
<g id="edge1_Node000001_Node000002" class="edge">
<title>Node2&#45;&gt;Node1</title>
<g id="a_edge1_Node000001_Node000002"><a xlink:title=" ">
<path fill="none" stroke="#63b8ff" d="M75.5,-119.72C75.5,-110.74 75.5,-102.13 75.5,-94.19"/>
<polygon fill="none" stroke="#63b8ff" points="72,-119.99 75.5,-129.99 79,-119.99 72,-119.99"/>
</a>
</g>
</g>
<!-- Node3 -->
<g id="Node000003" class="node">
<title>Node3</title>
<g id="a_Node000003"><a xlink:href="classsen_1_1_custom_type.html" target="_top" xlink:title="Represents a user&#45;defined type.">
<polygon fill="white" stroke="transparent" points="134.5,-504 16.5,-504 16.5,-425 134.5,-425 134.5,-504"/>
<text text-anchor="start" x="33.5" y="-491.5" font-family="Helvetica,sans-Serif" font-size="10.00">sen::CustomType</text>
<text text-anchor="start" x="73.5" y="-476.5" font-family="Helvetica,sans-Serif" font-size="10.00"> </text>
<text text-anchor="start" x="20.5" y="-461.5" font-family="Helvetica,sans-Serif" font-size="10.00">+</text>
<text text-anchor="start" x="33.5" y="-461.5" font-family="Helvetica,sans-Serif" font-size="10.00">getQualifiedName()</text>
<text text-anchor="start" x="20.5" y="-446.5" font-family="Helvetica,sans-Serif" font-size="10.00">#</text>
<text text-anchor="start" x="33.5" y="-446.5" font-family="Helvetica,sans-Serif" font-size="10.00">CustomType()</text>
<text text-anchor="start" x="20.5" y="-431.5" font-family="Helvetica,sans-Serif" font-size="10.00">#</text>
<text text-anchor="start" x="33.5" y="-431.5" font-family="Helvetica,sans-Serif" font-size="10.00">~CustomType()</text>
<polygon fill="#666666" stroke="#666666" points="16.5,-486.5 16.5,-486.5 134.5,-486.5 134.5,-486.5 16.5,-486.5"/>
<polygon fill="#666666" stroke="#666666" points="16.5,-471.5 16.5,-471.5 134.5,-471.5 134.5,-471.5 16.5,-471.5"/>
<polygon fill="none" stroke="#666666" points="16.5,-425 16.5,-504 134.5,-504 134.5,-425 16.5,-425"/>
</a>
</g>
</g>
<!-- Node3&#45;&gt;Node2 -->
<g id="edge2_Node000002_Node000003" class="edge">
<title>Node3&#45;&gt;Node2</title>
<g id="a_edge2_Node000002_Node000003"><a xlink:title=" ">
<path fill="none" stroke="#63b8ff" d="M75.5,-414.66C75.5,-406.63 75.5,-397.99 75.5,-389.05"/>
<polygon fill="none" stroke="#63b8ff" points="72,-414.84 75.5,-424.84 79,-414.84 72,-414.84"/>
</a>
</g>
</g>
<!-- Node4 -->
<g id="Node000004" class="node">
<title>Node4</title>
<g id="a_Node000004"><a xlink:href="classsen_1_1_type.html" target="_top" xlink:title="Represents a type that can be used to define variables and arguments for methods or functions....">
<polygon fill="white" stroke="transparent" points="151,-724 0,-724 0,-540 151,-540 151,-724"/>
<text text-anchor="start" x="53" y="-712" font-family="Helvetica,sans-Serif" font-size="10.00">sen::Type</text>
<text text-anchor="start" x="74" y="-697" font-family="Helvetica,sans-Serif" font-size="10.00"> </text>
<text text-anchor="start" x="4.5" y="-682" font-family="Helvetica,sans-Serif" font-size="10.00">+</text>
<text text-anchor="start" x="17.5" y="-682" font-family="Helvetica,sans-Serif" font-size="10.00">~Type()</text>
<text text-anchor="start" x="4.5" y="-667" font-family="Helvetica,sans-Serif" font-size="10.00">+</text>
<text text-anchor="start" x="17.5" y="-667" font-family="Helvetica,sans-Serif" font-size="10.00">getName()</text>
<text text-anchor="start" x="4.5" y="-652" font-family="Helvetica,sans-Serif" font-size="10.00">+</text>
<text text-anchor="start" x="17.5" y="-652" font-family="Helvetica,sans-Serif" font-size="10.00">getDescription()</text>
<text text-anchor="start" x="4.5" y="-637" font-family="Helvetica,sans-Serif" font-size="10.00">+</text>
<text text-anchor="start" x="17.5" y="-637" font-family="Helvetica,sans-Serif" font-size="10.00">accept()</text>
<text text-anchor="start" x="4.5" y="-622" font-family="Helvetica,sans-Serif" font-size="10.00">+</text>
<text text-anchor="start" x="17.5" y="-622" font-family="Helvetica,sans-Serif" font-size="10.00">isBounded()</text>
<text text-anchor="start" x="4.5" y="-607" font-family="Helvetica,sans-Serif" font-size="10.00">+</text>
<text text-anchor="start" x="17.5" y="-607" font-family="Helvetica,sans-Serif" font-size="10.00">getHash()</text>
<text text-anchor="start" x="4.5" y="-592" font-family="Helvetica,sans-Serif" font-size="10.00">+</text>
<text text-anchor="start" x="17.5" y="-592" font-family="Helvetica,sans-Serif" font-size="10.00">equals()</text>
<text text-anchor="start" x="4.5" y="-577" font-family="Helvetica,sans-Serif" font-size="10.00">+</text>
<text text-anchor="start" x="17.5" y="-577" font-family="Helvetica,sans-Serif" font-size="10.00">validateLowerCaseName()</text>
<text text-anchor="start" x="4.5" y="-562" font-family="Helvetica,sans-Serif" font-size="10.00">+</text>
<text text-anchor="start" x="17.5" y="-562" font-family="Helvetica,sans-Serif" font-size="10.00">validateTypeName()</text>
<text text-anchor="start" x="4.5" y="-547" font-family="Helvetica,sans-Serif" font-size="10.00">#</text>
<text text-anchor="start" x="17.5" y="-547" font-family="Helvetica,sans-Serif" font-size="10.00">Type()</text>
<polygon fill="#666666" stroke="#666666" points="0.5,-707 0.5,-707 151.5,-707 151.5,-707 0.5,-707"/>
<polygon fill="#666666" stroke="#666666" points="0.5,-692 0.5,-692 151.5,-692 151.5,-692 0.5,-692"/>
<polygon fill="none" stroke="#666666" points="0,-540 0,-724 151,-724 151,-540 0,-540"/>
</a>
</g>
</g>
<!-- Node4&#45;&gt;Node3 -->
<g id="edge3_Node000003_Node000004" class="edge">
<title>Node4&#45;&gt;Node3</title>
<g id="a_edge3_Node000003_Node000004"><a xlink:title=" ">
<path fill="none" stroke="#63b8ff" d="M75.5,-529.44C75.5,-520.59 75.5,-512.04 75.5,-504.23"/>
<polygon fill="none" stroke="#63b8ff" points="72,-529.54 75.5,-539.54 79,-529.54 72,-529.54"/>
</a>
</g>
</g>
</g>
</svg>
