<?xml version="1.0" encoding="UTF-8" standalone="no"?>
<!DOCTYPE svg PUBLIC "-//W3C//DTD SVG 1.1//EN"
 "http://www.w3.org/Graphics/SVG/1.1/DTD/svg11.dtd">
<!-- Generated by graphviz version 2.43.0 (0)
 -->
<!-- Title: sen::kernel::InitApi Pages: 1 -->
<svg width="298pt" height="337pt"
 viewBox="0.00 0.00 297.50 337.00" xmlns="http://www.w3.org/2000/svg" xmlns:xlink="http://www.w3.org/1999/xlink">
<g id="graph0" class="graph" transform="scale(1 1) rotate(0) translate(4 333)">
<title>sen::kernel::InitApi</title>
<!-- Node1 -->
<g id="Node000001" class="node">
<title>Node1</title>
<g id="a_Node000001"><a xlink:title="What can be done when initializing a component.">
<polygon fill="#999999" stroke="transparent" points="193,-64 92,-64 92,0 193,0 193,-64"/>
<text text-anchor="start" x="97.5" y="-52" font-family="Helvetica,sans-Serif" font-size="10.00">sen::kernel::InitApi</text>
<text text-anchor="start" x="141" y="-37" font-family="Helvetica,sans-Serif" font-size="10.00"> </text>
<text text-anchor="start" x="104.5" y="-22" font-family="Helvetica,sans-Serif" font-size="10.00">+</text>
<text text-anchor="start" x="125.5" y="-22" font-family="Helvetica,sans-Serif" font-size="10.00">InitApi()</text>
<text text-anchor="start" x="104.5" y="-7" font-family="Helvetica,sans-Serif" font-size="10.00">+</text>
<text text-anchor="start" x="125.5" y="-7" font-family="Helvetica,sans-Serif" font-size="10.00">~InitApi()</text>
<polygon fill="#666666" stroke="#666666" points="92.5,-47 92.5,-47 193.5,-47 193.5,-47 92.5,-47"/>
<polygon fill="#666666" stroke="#666666" points="92.5,-32 92.5,-32 193.5,-32 193.5,-32 92.5,-32"/>
<polygon fill="none" stroke="#666666" points="92,0 92,-64 193,-64 193,0 92,0"/>
</a>
</g>
</g>
<!-- Node2 -->
<g id="Node000002" class="node">
<title>Node2</title>
<g id="a_Node000002"><a xlink:href="classsen_1_1kernel_1_1_config_getter.html" target="_top" xlink:title="Allows for fetching configuration parameters.">
<polygon fill="white" stroke="transparent" points="131,-246.5 0,-246.5 0,-182.5 131,-182.5 131,-246.5"/>
<text text-anchor="start" x="5.5" y="-234.5" font-family="Helvetica,sans-Serif" font-size="10.00">sen::kernel::ConfigGetter</text>
<text text-anchor="start" x="64" y="-219.5" font-family="Helvetica,sans-Serif" font-size="10.00"> </text>
<text text-anchor="start" x="14.5" y="-204.5" font-family="Helvetica,sans-Serif" font-size="10.00">+</text>
<text text-anchor="start" x="37.5" y="-204.5" font-family="Helvetica,sans-Serif" font-size="10.00">ConfigGetter()</text>
<text text-anchor="start" x="14.5" y="-189.5" font-family="Helvetica,sans-Serif" font-size="10.00">+</text>
<text text-anchor="start" x="37.5" y="-189.5" font-family="Helvetica,sans-Serif" font-size="10.00">getConfig()</text>
<polygon fill="#666666" stroke="#666666" points="0.5,-229.5 0.5,-229.5 131.5,-229.5 131.5,-229.5 0.5,-229.5"/>
<polygon fill="#666666" stroke="#666666" points="0.5,-214.5 0.5,-214.5 131.5,-214.5 131.5,-214.5 0.5,-214.5"/>
<polygon fill="none" stroke="#666666" points="0,-182.5 0,-246.5 131,-246.5 131,-182.5 0,-182.5"/>
</a>
</g>
</g>
<!-- Node2&#45;&gt;Node1 -->
<g id="edge1_Node000001_Node000002" class="edge">
<title>Node2&#45;&gt;Node1</title>
<g id="a_edge1_Node000001_Node000002"><a xlink:title=" ">
<path fill="none" stroke="#63b8ff" d="M82.72,-173.13C96.76,-140.21 116.31,-94.39 129.18,-64.23"/>
<polygon fill="none" stroke="#63b8ff" points="79.44,-171.9 78.74,-182.47 85.88,-174.65 79.44,-171.9"/>
</a>
</g>
</g>
<!-- Node3 -->
<g id="Node000003" class="node">
<title>Node3</title>
<g id="a_Node000003"><a xlink:href="classsen_1_1kernel_1_1_kernel_api.html" target="_top" xlink:title="User&#45;facing kernel functions.">
<polygon fill="white" stroke="transparent" points="289.5,-329 149.5,-329 149.5,-100 289.5,-100 289.5,-329"/>
<text text-anchor="start" x="166.5" y="-316.5" font-family="Helvetica,sans-Serif" font-size="10.00">sen::kernel::KernelApi</text>
<text text-anchor="start" x="217.5" y="-301.5" font-family="Helvetica,sans-Serif" font-size="10.00"> </text>
<text text-anchor="start" x="153.5" y="-286.5" font-family="Helvetica,sans-Serif" font-size="10.00">+</text>
<text text-anchor="start" x="166.5" y="-286.5" font-family="Helvetica,sans-Serif" font-size="10.00">KernelApi()</text>
<text text-anchor="start" x="153.5" y="-271.5" font-family="Helvetica,sans-Serif" font-size="10.00">+</text>
<text text-anchor="start" x="166.5" y="-271.5" font-family="Helvetica,sans-Serif" font-size="10.00">getTypes()</text>
<text text-anchor="start" x="153.5" y="-256.5" font-family="Helvetica,sans-Serif" font-size="10.00">+</text>
<text text-anchor="start" x="166.5" y="-256.5" font-family="Helvetica,sans-Serif" font-size="10.00">requestKernelStop()</text>
<text text-anchor="start" x="153.5" y="-241.5" font-family="Helvetica,sans-Serif" font-size="10.00">+</text>
<text text-anchor="start" x="166.5" y="-241.5" font-family="Helvetica,sans-Serif" font-size="10.00">getSource()</text>
<text text-anchor="start" x="153.5" y="-226.5" font-family="Helvetica,sans-Serif" font-size="10.00">+</text>
<text text-anchor="start" x="166.5" y="-226.5" font-family="Helvetica,sans-Serif" font-size="10.00">getSource()</text>
<text text-anchor="start" x="153.5" y="-211.5" font-family="Helvetica,sans-Serif" font-size="10.00">+</text>
<text text-anchor="start" x="166.5" y="-211.5" font-family="Helvetica,sans-Serif" font-size="10.00">getSessionsDiscoverer()</text>
<text text-anchor="start" x="153.5" y="-196.5" font-family="Helvetica,sans-Serif" font-size="10.00">+</text>
<text text-anchor="start" x="166.5" y="-196.5" font-family="Helvetica,sans-Serif" font-size="10.00">fetchOwnerInfo()</text>
<text text-anchor="start" x="153.5" y="-181.5" font-family="Helvetica,sans-Serif" font-size="10.00">+</text>
<text text-anchor="start" x="166.5" y="-181.5" font-family="Helvetica,sans-Serif" font-size="10.00">getAppName()</text>
<text text-anchor="start" x="153.5" y="-166.5" font-family="Helvetica,sans-Serif" font-size="10.00">+</text>
<text text-anchor="start" x="166.5" y="-166.5" font-family="Helvetica,sans-Serif" font-size="10.00">getWorkQueue()</text>
<text text-anchor="start" x="153.5" y="-151.5" font-family="Helvetica,sans-Serif" font-size="10.00">+</text>
<text text-anchor="start" x="166.5" y="-151.5" font-family="Helvetica,sans-Serif" font-size="10.00">selectAllFrom()</text>
<text text-anchor="start" x="153.5" y="-136.5" font-family="Helvetica,sans-Serif" font-size="10.00">+</text>
<text text-anchor="start" x="166.5" y="-136.5" font-family="Helvetica,sans-Serif" font-size="10.00">selectAllFrom()</text>
<text text-anchor="start" x="153.5" y="-121.5" font-family="Helvetica,sans-Serif" font-size="10.00">+</text>
<text text-anchor="start" x="166.5" y="-121.5" font-family="Helvetica,sans-Serif" font-size="10.00">selectFrom()</text>
<text text-anchor="start" x="153.5" y="-106.5" font-family="Helvetica,sans-Serif" font-size="10.00">+</text>
<text text-anchor="start" x="166.5" y="-106.5" font-family="Helvetica,sans-Serif" font-size="10.00">getConfigFilePath()</text>
<polygon fill="#666666" stroke="#666666" points="149.5,-311.5 149.5,-311.5 289.5,-311.5 289.5,-311.5 149.5,-311.5"/>
<polygon fill="#666666" stroke="#666666" points="149.5,-296.5 149.5,-296.5 289.5,-296.5 289.5,-296.5 149.5,-296.5"/>
<polygon fill="none" stroke="#666666" points="149.5,-100 149.5,-329 289.5,-329 289.5,-100 149.5,-100"/>
</a>
</g>
</g>
<!-- Node3&#45;&gt;Node1 -->
<g id="edge2_Node000001_Node000003" class="edge">
<title>Node3&#45;&gt;Node1</title>
<g id="a_edge2_Node000001_Node000003"><a xlink:title=" ">
<path fill="none" stroke="#63b8ff" d="M167.09,-90.65C163.02,-81.11 159.19,-72.13 155.82,-64.23"/>
<polygon fill="none" stroke="#63b8ff" points="163.92,-92.13 171.06,-99.96 170.36,-89.38 163.92,-92.13"/>
</a>
</g>
</g>
</g>
</svg>
