<?xml version="1.0" encoding="UTF-8" standalone="no"?>
<!DOCTYPE svg PUBLIC "-//W3C//DTD SVG 1.1//EN"
 "http://www.w3.org/Graphics/SVG/1.1/DTD/svg11.dtd">
<!-- Generated by graphviz version 2.43.0 (0)
 -->
<!-- Title: sen::Writer Pages: 1 -->
<svg width="394pt" height="292pt"
 viewBox="0.00 0.00 393.50 292.00" xmlns="http://www.w3.org/2000/svg" xmlns:xlink="http://www.w3.org/1999/xlink">
<g id="graph0" class="graph" transform="scale(1 1) rotate(0) translate(4 288)">
<title>sen::Writer</title>
<!-- Node1 -->
<g id="Node000001" class="node">
<title>Node1</title>
<g id="a_Node000001"><a xlink:title="Interface for writing to a device.">
<polygon fill="#999999" stroke="transparent" points="222.5,-284 152.5,-284 152.5,-190 222.5,-190 222.5,-284"/>
<text text-anchor="start" x="160.5" y="-272" font-family="Helvetica,sans-Serif" font-size="10.00">sen::Writer</text>
<text text-anchor="start" x="185.5" y="-257" font-family="Helvetica,sans-Serif" font-size="10.00"> </text>
<text text-anchor="start" x="156.5" y="-242" font-family="Helvetica,sans-Serif" font-size="10.00">+</text>
<text text-anchor="start" x="169.5" y="-242" font-family="Helvetica,sans-Serif" font-size="10.00">Writer()</text>
<text text-anchor="start" x="156.5" y="-227" font-family="Helvetica,sans-Serif" font-size="10.00">+</text>
<text text-anchor="start" x="169.5" y="-227" font-family="Helvetica,sans-Serif" font-size="10.00">~Writer()</text>
<text text-anchor="start" x="156.5" y="-212" font-family="Helvetica,sans-Serif" font-size="10.00">+</text>
<text text-anchor="start" x="169.5" y="-212" font-family="Helvetica,sans-Serif" font-size="10.00">advance()</text>
<text text-anchor="start" x="156.5" y="-197" font-family="Helvetica,sans-Serif" font-size="10.00">+</text>
<text text-anchor="start" x="169.5" y="-197" font-family="Helvetica,sans-Serif" font-size="10.00">reverse()</text>
<polygon fill="#666666" stroke="#666666" points="152.5,-267 152.5,-267 222.5,-267 222.5,-267 152.5,-267"/>
<polygon fill="#666666" stroke="#666666" points="152.5,-252 152.5,-252 222.5,-252 222.5,-252 152.5,-252"/>
<polygon fill="none" stroke="#666666" points="152.5,-190 152.5,-284 222.5,-284 222.5,-190 152.5,-190"/>
</a>
</g>
</g>
<!-- Node2 -->
<g id="Node000002" class="node">
<title>Node2</title>
<g id="a_Node000002"><a xlink:href="classsen_1_1_buffer_writer.html" target="_top" xlink:title="A writer that owns a fixed size buffer.">
<polygon fill="white" stroke="transparent" points="97,-124 0,-124 0,-30 97,-30 97,-124"/>
<text text-anchor="start" x="7.5" y="-112" font-family="Helvetica,sans-Serif" font-size="10.00">sen::BufferWriter</text>
<text text-anchor="start" x="47" y="-97" font-family="Helvetica,sans-Serif" font-size="10.00"> </text>
<text text-anchor="start" x="4.5" y="-82" font-family="Helvetica,sans-Serif" font-size="10.00">+</text>
<text text-anchor="start" x="17.5" y="-82" font-family="Helvetica,sans-Serif" font-size="10.00">BufferWriter()</text>
<text text-anchor="start" x="4.5" y="-67" font-family="Helvetica,sans-Serif" font-size="10.00">+</text>
<text text-anchor="start" x="17.5" y="-67" font-family="Helvetica,sans-Serif" font-size="10.00">~BufferWriter()</text>
<text text-anchor="start" x="4.5" y="-52" font-family="Helvetica,sans-Serif" font-size="10.00">+</text>
<text text-anchor="start" x="17.5" y="-52" font-family="Helvetica,sans-Serif" font-size="10.00">advance()</text>
<text text-anchor="start" x="4.5" y="-37" font-family="Helvetica,sans-Serif" font-size="10.00">+</text>
<text text-anchor="start" x="17.5" y="-37" font-family="Helvetica,sans-Serif" font-size="10.00">reverse()</text>
<polygon fill="#666666" stroke="#666666" points="0.5,-107 0.5,-107 97.5,-107 97.5,-107 0.5,-107"/>
<polygon fill="#666666" stroke="#666666" points="0.5,-92 0.5,-92 97.5,-92 97.5,-92 0.5,-92"/>
<polygon fill="none" stroke="#666666" points="0,-30 0,-124 97,-124 97,-30 0,-30"/>
</a>
</g>
</g>
<!-- Node1&#45;&gt;Node2 -->
<g id="edge1_Node000001_Node000002" class="edge">
<title>Node1&#45;&gt;Node2</title>
<g id="a_edge1_Node000001_Node000002"><a xlink:title=" ">
<path fill="none" stroke="#63b8ff" d="M144.87,-194.89C132.17,-182.11 118.46,-167.76 106.5,-154 98.33,-144.6 89.97,-134.19 82.23,-124.16"/>
<polygon fill="none" stroke="#63b8ff" points="142.65,-197.63 152.2,-202.22 147.6,-192.68 142.65,-197.63"/>
</a>
</g>
</g>
<!-- Node3 -->
<g id="Node000003" class="node">
<title>Node3</title>
<g id="a_Node000003"><a xlink:href="classsen_1_1_resizable_buffer_writer.html" target="_top" xlink:title="A writer that owns a buffer that gets resized on demand.">
<polygon fill="white" stroke="transparent" points="259.5,-129.5 115.5,-129.5 115.5,-24.5 259.5,-24.5 259.5,-129.5"/>
<text text-anchor="start" x="122.5" y="-117" font-family="Helvetica,sans-Serif" font-size="10.00">sen::ResizableBufferWriter</text>
<text text-anchor="start" x="152.5" y="-106" font-family="Helvetica,sans-Serif" font-size="10.00">&lt; Container &gt;</text>
<text text-anchor="start" x="185.5" y="-91" font-family="Helvetica,sans-Serif" font-size="10.00"> </text>
<text text-anchor="start" x="119.5" y="-76" font-family="Helvetica,sans-Serif" font-size="10.00">+</text>
<text text-anchor="start" x="132.5" y="-76" font-family="Helvetica,sans-Serif" font-size="10.00">ResizableBufferWriter()</text>
<text text-anchor="start" x="119.5" y="-61" font-family="Helvetica,sans-Serif" font-size="10.00">+</text>
<text text-anchor="start" x="132.5" y="-61" font-family="Helvetica,sans-Serif" font-size="10.00">~ResizableBufferWriter()</text>
<text text-anchor="start" x="119.5" y="-46" font-family="Helvetica,sans-Serif" font-size="10.00">+</text>
<text text-anchor="start" x="132.5" y="-46" font-family="Helvetica,sans-Serif" font-size="10.00">advance()</text>
<text text-anchor="start" x="119.5" y="-31" font-family="Helvetica,sans-Serif" font-size="10.00">+</text>
<text text-anchor="start" x="132.5" y="-31" font-family="Helvetica,sans-Serif" font-size="10.00">reverse()</text>
<polygon fill="#666666" stroke="#666666" points="115.5,-101 115.5,-101 259.5,-101 259.5,-101 115.5,-101"/>
<polygon fill="#666666" stroke="#666666" points="115.5,-86 115.5,-86 259.5,-86 259.5,-86 115.5,-86"/>
<polygon fill="none" stroke="#666666" points="115.5,-24.5 115.5,-129.5 259.5,-129.5 259.5,-24.5 115.5,-24.5"/>
</a>
</g>
</g>
<!-- Node1&#45;&gt;Node3 -->
<g id="edge2_Node000001_Node000003" class="edge">
<title>Node1&#45;&gt;Node3</title>
<g id="a_edge2_Node000001_Node000003"><a xlink:title=" ">
<path fill="none" stroke="#63b8ff" d="M187.5,-179.45C187.5,-163.23 187.5,-145.64 187.5,-129.73"/>
<polygon fill="none" stroke="#63b8ff" points="184,-179.88 187.5,-189.88 191,-179.88 184,-179.88"/>
</a>
</g>
</g>
<!-- Node4 -->
<g id="Node000004" class="node">
<title>Node4</title>
<g id="a_Node000004"><a xlink:href="classsen_1_1test_1_1_test_writer.html" target="_top" xlink:title=" ">
<polygon fill="white" stroke="transparent" points="385.5,-154 277.5,-154 277.5,0 385.5,0 385.5,-154"/>
<text text-anchor="start" x="282.5" y="-142" font-family="Helvetica,sans-Serif" font-size="10.00">sen::test::TestWriter</text>
<text text-anchor="start" x="329.5" y="-127" font-family="Helvetica,sans-Serif" font-size="10.00"> </text>
<text text-anchor="start" x="283.5" y="-112" font-family="Helvetica,sans-Serif" font-size="10.00">+</text>
<text text-anchor="start" x="298.5" y="-112" font-family="Helvetica,sans-Serif" font-size="10.00">TestWriter()</text>
<text text-anchor="start" x="283.5" y="-97" font-family="Helvetica,sans-Serif" font-size="10.00">+</text>
<text text-anchor="start" x="298.5" y="-97" font-family="Helvetica,sans-Serif" font-size="10.00">~TestWriter()</text>
<text text-anchor="start" x="283.5" y="-82" font-family="Helvetica,sans-Serif" font-size="10.00">+</text>
<text text-anchor="start" x="298.5" y="-82" font-family="Helvetica,sans-Serif" font-size="10.00">loanBuffer()</text>
<text text-anchor="start" x="283.5" y="-67" font-family="Helvetica,sans-Serif" font-size="10.00">+</text>
<text text-anchor="start" x="298.5" y="-67" font-family="Helvetica,sans-Serif" font-size="10.00">returnBuffer()</text>
<text text-anchor="start" x="283.5" y="-52" font-family="Helvetica,sans-Serif" font-size="10.00">+</text>
<text text-anchor="start" x="298.5" y="-52" font-family="Helvetica,sans-Serif" font-size="10.00">getBuffer()</text>
<text text-anchor="start" x="283.5" y="-37" font-family="Helvetica,sans-Serif" font-size="10.00">+</text>
<text text-anchor="start" x="298.5" y="-37" font-family="Helvetica,sans-Serif" font-size="10.00">getWriteCount()</text>
<text text-anchor="start" x="283.5" y="-22" font-family="Helvetica,sans-Serif" font-size="10.00">+</text>
<text text-anchor="start" x="298.5" y="-22" font-family="Helvetica,sans-Serif" font-size="10.00">advance()</text>
<text text-anchor="start" x="283.5" y="-7" font-family="Helvetica,sans-Serif" font-size="10.00">+</text>
<text text-anchor="start" x="298.5" y="-7" font-family="Helvetica,sans-Serif" font-size="10.00">reverse()</text>
<polygon fill="#666666" stroke="#666666" points="277.5,-137 277.5,-137 385.5,-137 385.5,-137 277.5,-137"/>
<polygon fill="#666666" stroke="#666666" points="277.5,-122 277.5,-122 385.5,-122 385.5,-122 277.5,-122"/>
<polygon fill="none" stroke="#666666" points="277.5,0 277.5,-154 385.5,-154 385.5,0 277.5,0"/>
</a>
</g>
</g>
<!-- Node1&#45;&gt;Node4 -->
<g id="edge3_Node000001_Node000004" class="edge">
<title>Node1&#45;&gt;Node4</title>
<g id="a_edge3_Node000001_Node000004"><a xlink:title=" ">
<path fill="none" stroke="#63b8ff" d="M230.14,-194.24C242.73,-181.54 256.38,-167.39 268.5,-154 271.38,-150.82 274.29,-147.54 277.21,-144.21"/>
<polygon fill="none" stroke="#63b8ff" points="227.45,-191.98 222.87,-201.53 232.41,-196.92 227.45,-191.98"/>
</a>
</g>
</g>
</g>
</svg>
