<?xml version="1.0" encoding="UTF-8" standalone="no"?>
<!DOCTYPE svg PUBLIC "-//W3C//DTD SVG 1.1//EN"
 "http://www.w3.org/Graphics/SVG/1.1/DTD/svg11.dtd">
<!-- Generated by graphviz version 2.43.0 (0)
 -->
<!-- Title: sen::Type Pages: 1 -->
<svg width="1128pt" height="822pt"
 viewBox="0.00 0.00 1127.50 822.00" xmlns="http://www.w3.org/2000/svg" xmlns:xlink="http://www.w3.org/1999/xlink">
<g id="graph0" class="graph" transform="scale(1 1) rotate(0) translate(4 818)">
<title>sen::Type</title>
<!-- Node1 -->
<g id="Node000001" class="node">
<title>Node1</title>
<g id="a_Node000001"><a xlink:title="Represents a type that can be used to define variables and arguments for methods or functions....">
<polygon fill="#999999" stroke="transparent" points="917.5,-814 766.5,-814 766.5,-630 917.5,-630 917.5,-814"/>
<text text-anchor="start" x="819.5" y="-802" font-family="Helvetica,sans-Serif" font-size="10.00">sen::Type</text>
<text text-anchor="start" x="840.5" y="-787" font-family="Helvetica,sans-Serif" font-size="10.00"> </text>
<text text-anchor="start" x="771" y="-772" font-family="Helvetica,sans-Serif" font-size="10.00">+</text>
<text text-anchor="start" x="784" y="-772" font-family="Helvetica,sans-Serif" font-size="10.00">~Type()</text>
<text text-anchor="start" x="771" y="-757" font-family="Helvetica,sans-Serif" font-size="10.00">+</text>
<text text-anchor="start" x="784" y="-757" font-family="Helvetica,sans-Serif" font-size="10.00">getName()</text>
<text text-anchor="start" x="771" y="-742" font-family="Helvetica,sans-Serif" font-size="10.00">+</text>
<text text-anchor="start" x="784" y="-742" font-family="Helvetica,sans-Serif" font-size="10.00">getDescription()</text>
<text text-anchor="start" x="771" y="-727" font-family="Helvetica,sans-Serif" font-size="10.00">+</text>
<text text-anchor="start" x="784" y="-727" font-family="Helvetica,sans-Serif" font-size="10.00">accept()</text>
<text text-anchor="start" x="771" y="-712" font-family="Helvetica,sans-Serif" font-size="10.00">+</text>
<text text-anchor="start" x="784" y="-712" font-family="Helvetica,sans-Serif" font-size="10.00">isBounded()</text>
<text text-anchor="start" x="771" y="-697" font-family="Helvetica,sans-Serif" font-size="10.00">+</text>
<text text-anchor="start" x="784" y="-697" font-family="Helvetica,sans-Serif" font-size="10.00">getHash()</text>
<text text-anchor="start" x="771" y="-682" font-family="Helvetica,sans-Serif" font-size="10.00">+</text>
<text text-anchor="start" x="784" y="-682" font-family="Helvetica,sans-Serif" font-size="10.00">equals()</text>
<text text-anchor="start" x="771" y="-667" font-family="Helvetica,sans-Serif" font-size="10.00">+</text>
<text text-anchor="start" x="784" y="-667" font-family="Helvetica,sans-Serif" font-size="10.00">validateLowerCaseName()</text>
<text text-anchor="start" x="771" y="-652" font-family="Helvetica,sans-Serif" font-size="10.00">+</text>
<text text-anchor="start" x="784" y="-652" font-family="Helvetica,sans-Serif" font-size="10.00">validateTypeName()</text>
<text text-anchor="start" x="771" y="-637" font-family="Helvetica,sans-Serif" font-size="10.00">#</text>
<text text-anchor="start" x="784" y="-637" font-family="Helvetica,sans-Serif" font-size="10.00">Type()</text>
<polygon fill="#666666" stroke="#666666" points="767,-797 767,-797 918,-797 918,-797 767,-797"/>
<polygon fill="#666666" stroke="#666666" points="767,-782 767,-782 918,-782 918,-782 767,-782"/>
<polygon fill="none" stroke="#666666" points="766.5,-630 766.5,-814 917.5,-814 917.5,-630 766.5,-630"/>
</a>
</g>
</g>
<!-- Node2 -->
<g id="Node000002" class="node">
<title>Node2</title>
<g id="a_Node000002"><a xlink:href="classsen_1_1_custom_type.html" target="_top" xlink:title="Represents a user&#45;defined type.">
<polygon fill="white" stroke="transparent" points="604,-556.5 486,-556.5 486,-477.5 604,-477.5 604,-556.5"/>
<text text-anchor="start" x="503" y="-544" font-family="Helvetica,sans-Serif" font-size="10.00">sen::CustomType</text>
<text text-anchor="start" x="543" y="-529" font-family="Helvetica,sans-Serif" font-size="10.00"> </text>
<text text-anchor="start" x="490" y="-514" font-family="Helvetica,sans-Serif" font-size="10.00">+</text>
<text text-anchor="start" x="503" y="-514" font-family="Helvetica,sans-Serif" font-size="10.00">getQualifiedName()</text>
<text text-anchor="start" x="490" y="-499" font-family="Helvetica,sans-Serif" font-size="10.00">#</text>
<text text-anchor="start" x="503" y="-499" font-family="Helvetica,sans-Serif" font-size="10.00">CustomType()</text>
<text text-anchor="start" x="490" y="-484" font-family="Helvetica,sans-Serif" font-size="10.00">#</text>
<text text-anchor="start" x="503" y="-484" font-family="Helvetica,sans-Serif" font-size="10.00">~CustomType()</text>
<polygon fill="#666666" stroke="#666666" points="486,-539 486,-539 604,-539 604,-539 486,-539"/>
<polygon fill="#666666" stroke="#666666" points="486,-524 486,-524 604,-524 604,-524 486,-524"/>
<polygon fill="none" stroke="#666666" points="486,-477.5 486,-556.5 604,-556.5 604,-477.5 486,-477.5"/>
</a>
</g>
</g>
<!-- Node1&#45;&gt;Node2 -->
<g id="edge1_Node000001_Node000002" class="edge">
<title>Node1&#45;&gt;Node2</title>
<g id="a_edge1_Node000001_Node000002"><a xlink:title=" ">
<path fill="none" stroke="#63b8ff" d="M757.72,-663.4C707.65,-629.17 645.51,-586.7 601.35,-556.51"/>
<polygon fill="none" stroke="#63b8ff" points="756.06,-666.5 766.29,-669.25 760.01,-660.72 756.06,-666.5"/>
</a>
</g>
</g>
<!-- Node12 -->
<g id="Node000012" class="node">
<title>Node12</title>
<g id="a_Node000012"><a xlink:href="classsen_1_1_native_type.html" target="_top" xlink:title="Represents a native (built&#45;in) type that can be created on the stack or sent in a message.">
<polygon fill="white" stroke="transparent" points="888,-549 796,-549 796,-485 888,-485 888,-549"/>
<text text-anchor="start" x="802.5" y="-537" font-family="Helvetica,sans-Serif" font-size="10.00">sen::NativeType</text>
<text text-anchor="start" x="840" y="-522" font-family="Helvetica,sans-Serif" font-size="10.00"> </text>
<text text-anchor="start" x="800" y="-507" font-family="Helvetica,sans-Serif" font-size="10.00">#</text>
<text text-anchor="start" x="813" y="-507" font-family="Helvetica,sans-Serif" font-size="10.00">NativeType()</text>
<text text-anchor="start" x="800" y="-492" font-family="Helvetica,sans-Serif" font-size="10.00">#</text>
<text text-anchor="start" x="813" y="-492" font-family="Helvetica,sans-Serif" font-size="10.00">~NativeType()</text>
<polygon fill="#666666" stroke="#666666" points="796,-532 796,-532 888,-532 888,-532 796,-532"/>
<polygon fill="#666666" stroke="#666666" points="796,-517 796,-517 888,-517 888,-517 796,-517"/>
<polygon fill="none" stroke="#666666" points="796,-485 796,-549 888,-549 888,-485 796,-485"/>
</a>
</g>
</g>
<!-- Node1&#45;&gt;Node12 -->
<g id="edge11_Node000001_Node000012" class="edge">
<title>Node1&#45;&gt;Node12</title>
<g id="a_edge11_Node000001_Node000012"><a xlink:title=" ">
<path fill="none" stroke="#63b8ff" d="M842,-619.71C842,-594.09 842,-568.46 842,-549.33"/>
<polygon fill="none" stroke="#63b8ff" points="838.5,-619.89 842,-629.89 845.5,-619.89 838.5,-619.89"/>
</a>
</g>
</g>
<!-- Node16 -->
<g id="Node000016" class="node">
<title>Node16</title>
<g id="a_Node000016"><a xlink:href="classsen_1_1_void_type.html" target="_top" xlink:title="Used for indicating that no result value is provided.">
<polygon fill="white" stroke="transparent" points="1006,-594 906,-594 906,-440 1006,-440 1006,-594"/>
<text text-anchor="start" x="922.5" y="-582" font-family="Helvetica,sans-Serif" font-size="10.00">sen::VoidType</text>
<text text-anchor="start" x="954" y="-567" font-family="Helvetica,sans-Serif" font-size="10.00"> </text>
<text text-anchor="start" x="910" y="-552" font-family="Helvetica,sans-Serif" font-size="10.00">+</text>
<text text-anchor="start" x="923" y="-552" font-family="Helvetica,sans-Serif" font-size="10.00">VoidType()</text>
<text text-anchor="start" x="910" y="-537" font-family="Helvetica,sans-Serif" font-size="10.00">+</text>
<text text-anchor="start" x="923" y="-537" font-family="Helvetica,sans-Serif" font-size="10.00">accept()</text>
<text text-anchor="start" x="910" y="-522" font-family="Helvetica,sans-Serif" font-size="10.00">+</text>
<text text-anchor="start" x="923" y="-522" font-family="Helvetica,sans-Serif" font-size="10.00">asVoidType()</text>
<text text-anchor="start" x="910" y="-507" font-family="Helvetica,sans-Serif" font-size="10.00">+</text>
<text text-anchor="start" x="923" y="-507" font-family="Helvetica,sans-Serif" font-size="10.00">getName()</text>
<text text-anchor="start" x="910" y="-492" font-family="Helvetica,sans-Serif" font-size="10.00">+</text>
<text text-anchor="start" x="923" y="-492" font-family="Helvetica,sans-Serif" font-size="10.00">getDescription()</text>
<text text-anchor="start" x="910" y="-477" font-family="Helvetica,sans-Serif" font-size="10.00">+</text>
<text text-anchor="start" x="923" y="-477" font-family="Helvetica,sans-Serif" font-size="10.00">equals()</text>
<text text-anchor="start" x="910" y="-462" font-family="Helvetica,sans-Serif" font-size="10.00">+</text>
<text text-anchor="start" x="923" y="-462" font-family="Helvetica,sans-Serif" font-size="10.00">isBounded()</text>
<text text-anchor="start" x="910" y="-447" font-family="Helvetica,sans-Serif" font-size="10.00">+</text>
<text text-anchor="start" x="923" y="-447" font-family="Helvetica,sans-Serif" font-size="10.00">get()</text>
<polygon fill="#666666" stroke="#666666" points="906,-577 906,-577 1006,-577 1006,-577 906,-577"/>
<polygon fill="#666666" stroke="#666666" points="906,-562 906,-562 1006,-562 1006,-562 906,-562"/>
<polygon fill="none" stroke="#666666" points="906,-440 906,-594 1006,-594 1006,-440 906,-440"/>
</a>
</g>
</g>
<!-- Node1&#45;&gt;Node16 -->
<g id="edge15_Node000001_Node000016" class="edge">
<title>Node1&#45;&gt;Node16</title>
<g id="a_edge15_Node000001_Node000016"><a xlink:title=" ">
<path fill="none" stroke="#63b8ff" d="M898.2,-620.93C903.23,-611.96 908.28,-602.97 913.18,-594.25"/>
<polygon fill="none" stroke="#63b8ff" points="895.01,-619.46 893.16,-629.89 901.11,-622.89 895.01,-619.46"/>
</a>
</g>
</g>
<!-- Node3 -->
<g id="Node000003" class="node">
<title>Node3</title>
<g id="a_Node000003"><a xlink:href="classsen_1_1_alias_type.html" target="_top" xlink:title="Represents an aliased type.">
<polygon fill="white" stroke="transparent" points="118,-359 0,-359 0,-190 118,-190 118,-359"/>
<text text-anchor="start" x="24" y="-346.5" font-family="Helvetica,sans-Serif" font-size="10.00">sen::AliasType</text>
<text text-anchor="start" x="57" y="-331.5" font-family="Helvetica,sans-Serif" font-size="10.00"> </text>
<text text-anchor="start" x="4" y="-316.5" font-family="Helvetica,sans-Serif" font-size="10.00">+</text>
<text text-anchor="start" x="17" y="-316.5" font-family="Helvetica,sans-Serif" font-size="10.00">AliasType()</text>
<text text-anchor="start" x="4" y="-301.5" font-family="Helvetica,sans-Serif" font-size="10.00">+</text>
<text text-anchor="start" x="17" y="-301.5" font-family="Helvetica,sans-Serif" font-size="10.00">~AliasType()</text>
<text text-anchor="start" x="4" y="-286.5" font-family="Helvetica,sans-Serif" font-size="10.00">+</text>
<text text-anchor="start" x="17" y="-286.5" font-family="Helvetica,sans-Serif" font-size="10.00">getAliasedType()</text>
<text text-anchor="start" x="4" y="-271.5" font-family="Helvetica,sans-Serif" font-size="10.00">+</text>
<text text-anchor="start" x="17" y="-271.5" font-family="Helvetica,sans-Serif" font-size="10.00">getQualifiedName()</text>
<text text-anchor="start" x="4" y="-256.5" font-family="Helvetica,sans-Serif" font-size="10.00">+</text>
<text text-anchor="start" x="17" y="-256.5" font-family="Helvetica,sans-Serif" font-size="10.00">getName()</text>
<text text-anchor="start" x="4" y="-241.5" font-family="Helvetica,sans-Serif" font-size="10.00">+</text>
<text text-anchor="start" x="17" y="-241.5" font-family="Helvetica,sans-Serif" font-size="10.00">getDescription()</text>
<text text-anchor="start" x="4" y="-226.5" font-family="Helvetica,sans-Serif" font-size="10.00">+</text>
<text text-anchor="start" x="17" y="-226.5" font-family="Helvetica,sans-Serif" font-size="10.00">equals()</text>
<text text-anchor="start" x="4" y="-211.5" font-family="Helvetica,sans-Serif" font-size="10.00">+</text>
<text text-anchor="start" x="17" y="-211.5" font-family="Helvetica,sans-Serif" font-size="10.00">isBounded()</text>
<text text-anchor="start" x="4" y="-196.5" font-family="Helvetica,sans-Serif" font-size="10.00">+</text>
<text text-anchor="start" x="17" y="-196.5" font-family="Helvetica,sans-Serif" font-size="10.00">make()</text>
<polygon fill="#666666" stroke="#666666" points="0,-341.5 0,-341.5 118,-341.5 118,-341.5 0,-341.5"/>
<polygon fill="#666666" stroke="#666666" points="0,-326.5 0,-326.5 118,-326.5 118,-326.5 0,-326.5"/>
<polygon fill="none" stroke="#666666" points="0,-190 0,-359 118,-359 118,-190 0,-190"/>
</a>
</g>
</g>
<!-- Node2&#45;&gt;Node3 -->
<g id="edge2_Node000002_Node000003" class="edge">
<title>Node2&#45;&gt;Node3</title>
<g id="a_edge2_Node000002_Node000003"><a xlink:title=" ">
<path fill="none" stroke="#63b8ff" d="M475.72,-514C386.1,-508.01 229.39,-485.61 127,-404 112,-392.04 99.91,-375.86 90.33,-359.02"/>
<polygon fill="none" stroke="#63b8ff" points="475.57,-517.49 485.77,-514.62 476.01,-510.51 475.57,-517.49"/>
</a>
</g>
</g>
<!-- Node4 -->
<g id="Node000004" class="node">
<title>Node4</title>
<g id="a_Node000004"><a xlink:href="classsen_1_1_enum_type.html" target="_top" xlink:title="Represents an enumeration.">
<polygon fill="white" stroke="transparent" points="263.5,-381.5 136.5,-381.5 136.5,-167.5 263.5,-167.5 263.5,-381.5"/>
<text text-anchor="start" x="163.5" y="-369.5" font-family="Helvetica,sans-Serif" font-size="10.00">sen::EnumType</text>
<text text-anchor="start" x="198.5" y="-354.5" font-family="Helvetica,sans-Serif" font-size="10.00"> </text>
<text text-anchor="start" x="141" y="-339.5" font-family="Helvetica,sans-Serif" font-size="10.00">+</text>
<text text-anchor="start" x="154" y="-339.5" font-family="Helvetica,sans-Serif" font-size="10.00">EnumType()</text>
<text text-anchor="start" x="141" y="-324.5" font-family="Helvetica,sans-Serif" font-size="10.00">+</text>
<text text-anchor="start" x="154" y="-324.5" font-family="Helvetica,sans-Serif" font-size="10.00">~EnumType()</text>
<text text-anchor="start" x="141" y="-309.5" font-family="Helvetica,sans-Serif" font-size="10.00">+</text>
<text text-anchor="start" x="154" y="-309.5" font-family="Helvetica,sans-Serif" font-size="10.00">getStorageType()</text>
<text text-anchor="start" x="141" y="-294.5" font-family="Helvetica,sans-Serif" font-size="10.00">+</text>
<text text-anchor="start" x="154" y="-294.5" font-family="Helvetica,sans-Serif" font-size="10.00">getEnumFromKey()</text>
<text text-anchor="start" x="141" y="-279.5" font-family="Helvetica,sans-Serif" font-size="10.00">+</text>
<text text-anchor="start" x="154" y="-279.5" font-family="Helvetica,sans-Serif" font-size="10.00">getEnumFromName()</text>
<text text-anchor="start" x="141" y="-264.5" font-family="Helvetica,sans-Serif" font-size="10.00">+</text>
<text text-anchor="start" x="154" y="-264.5" font-family="Helvetica,sans-Serif" font-size="10.00">getEnums()</text>
<text text-anchor="start" x="141" y="-249.5" font-family="Helvetica,sans-Serif" font-size="10.00">+</text>
<text text-anchor="start" x="154" y="-249.5" font-family="Helvetica,sans-Serif" font-size="10.00">getQualifiedName()</text>
<text text-anchor="start" x="141" y="-234.5" font-family="Helvetica,sans-Serif" font-size="10.00">+</text>
<text text-anchor="start" x="154" y="-234.5" font-family="Helvetica,sans-Serif" font-size="10.00">getName()</text>
<text text-anchor="start" x="141" y="-219.5" font-family="Helvetica,sans-Serif" font-size="10.00">+</text>
<text text-anchor="start" x="154" y="-219.5" font-family="Helvetica,sans-Serif" font-size="10.00">getDescription()</text>
<text text-anchor="start" x="141" y="-204.5" font-family="Helvetica,sans-Serif" font-size="10.00">+</text>
<text text-anchor="start" x="154" y="-204.5" font-family="Helvetica,sans-Serif" font-size="10.00">equals()</text>
<text text-anchor="start" x="141" y="-189.5" font-family="Helvetica,sans-Serif" font-size="10.00">+</text>
<text text-anchor="start" x="154" y="-189.5" font-family="Helvetica,sans-Serif" font-size="10.00">isBounded()</text>
<text text-anchor="start" x="141" y="-174.5" font-family="Helvetica,sans-Serif" font-size="10.00">+</text>
<text text-anchor="start" x="154" y="-174.5" font-family="Helvetica,sans-Serif" font-size="10.00">make()</text>
<polygon fill="#666666" stroke="#666666" points="137,-364.5 137,-364.5 264,-364.5 264,-364.5 137,-364.5"/>
<polygon fill="#666666" stroke="#666666" points="137,-349.5 137,-349.5 264,-349.5 264,-349.5 137,-349.5"/>
<polygon fill="none" stroke="#666666" points="136.5,-167.5 136.5,-381.5 263.5,-381.5 263.5,-167.5 136.5,-167.5"/>
</a>
</g>
</g>
<!-- Node2&#45;&gt;Node4 -->
<g id="edge3_Node000002_Node000004" class="edge">
<title>Node2&#45;&gt;Node4</title>
<g id="a_edge3_Node000002_Node000004"><a xlink:title=" ">
<path fill="none" stroke="#63b8ff" d="M475.86,-501.04C416.43,-485.26 331.31,-455.39 273,-404 265.49,-397.38 258.58,-389.8 252.25,-381.7"/>
<polygon fill="none" stroke="#63b8ff" points="475.35,-504.52 485.91,-503.64 477.11,-497.74 475.35,-504.52"/>
</a>
</g>
</g>
<!-- Node5 -->
<g id="Node000005" class="node">
<title>Node5</title>
<g id="a_Node000005"><a xlink:href="classsen_1_1_optional_type.html" target="_top" xlink:title="Represents an optional type.">
<polygon fill="white" stroke="transparent" points="400,-359 282,-359 282,-190 400,-190 400,-359"/>
<text text-anchor="start" x="297" y="-346.5" font-family="Helvetica,sans-Serif" font-size="10.00">sen::OptionalType</text>
<text text-anchor="start" x="339" y="-331.5" font-family="Helvetica,sans-Serif" font-size="10.00"> </text>
<text text-anchor="start" x="286" y="-316.5" font-family="Helvetica,sans-Serif" font-size="10.00">+</text>
<text text-anchor="start" x="299" y="-316.5" font-family="Helvetica,sans-Serif" font-size="10.00">OptionalType()</text>
<text text-anchor="start" x="286" y="-301.5" font-family="Helvetica,sans-Serif" font-size="10.00">+</text>
<text text-anchor="start" x="299" y="-301.5" font-family="Helvetica,sans-Serif" font-size="10.00">~OptionalType()</text>
<text text-anchor="start" x="286" y="-286.5" font-family="Helvetica,sans-Serif" font-size="10.00">+</text>
<text text-anchor="start" x="299" y="-286.5" font-family="Helvetica,sans-Serif" font-size="10.00">getType()</text>
<text text-anchor="start" x="286" y="-271.5" font-family="Helvetica,sans-Serif" font-size="10.00">+</text>
<text text-anchor="start" x="299" y="-271.5" font-family="Helvetica,sans-Serif" font-size="10.00">getQualifiedName()</text>
<text text-anchor="start" x="286" y="-256.5" font-family="Helvetica,sans-Serif" font-size="10.00">+</text>
<text text-anchor="start" x="299" y="-256.5" font-family="Helvetica,sans-Serif" font-size="10.00">getName()</text>
<text text-anchor="start" x="286" y="-241.5" font-family="Helvetica,sans-Serif" font-size="10.00">+</text>
<text text-anchor="start" x="299" y="-241.5" font-family="Helvetica,sans-Serif" font-size="10.00">getDescription()</text>
<text text-anchor="start" x="286" y="-226.5" font-family="Helvetica,sans-Serif" font-size="10.00">+</text>
<text text-anchor="start" x="299" y="-226.5" font-family="Helvetica,sans-Serif" font-size="10.00">equals()</text>
<text text-anchor="start" x="286" y="-211.5" font-family="Helvetica,sans-Serif" font-size="10.00">+</text>
<text text-anchor="start" x="299" y="-211.5" font-family="Helvetica,sans-Serif" font-size="10.00">isBounded()</text>
<text text-anchor="start" x="286" y="-196.5" font-family="Helvetica,sans-Serif" font-size="10.00">+</text>
<text text-anchor="start" x="299" y="-196.5" font-family="Helvetica,sans-Serif" font-size="10.00">make()</text>
<polygon fill="#666666" stroke="#666666" points="282,-341.5 282,-341.5 400,-341.5 400,-341.5 282,-341.5"/>
<polygon fill="#666666" stroke="#666666" points="282,-326.5 282,-326.5 400,-326.5 400,-326.5 282,-326.5"/>
<polygon fill="none" stroke="#666666" points="282,-190 282,-359 400,-359 400,-190 282,-190"/>
</a>
</g>
</g>
<!-- Node2&#45;&gt;Node5 -->
<g id="edge4_Node000002_Node000005" class="edge">
<title>Node2&#45;&gt;Node5</title>
<g id="a_edge4_Node000002_Node000005"><a xlink:title=" ">
<path fill="none" stroke="#63b8ff" d="M480.14,-471.11C455.89,-452.25 429.32,-428.91 409,-404 397.91,-390.41 387.83,-374.72 379.03,-359.09"/>
<polygon fill="none" stroke="#63b8ff" points="478.2,-474.03 488.26,-477.32 482.45,-468.47 478.2,-474.03"/>
</a>
</g>
</g>
<!-- Node6 -->
<g id="Node000006" class="node">
<title>Node6</title>
<g id="a_Node000006"><a xlink:href="classsen_1_1_quantity_type.html" target="_top" xlink:title="Represents a quantity.">
<polygon fill="white" stroke="transparent" points="536,-404 418,-404 418,-145 536,-145 536,-404"/>
<text text-anchor="start" x="433" y="-391.5" font-family="Helvetica,sans-Serif" font-size="10.00">sen::QuantityType</text>
<text text-anchor="start" x="475" y="-376.5" font-family="Helvetica,sans-Serif" font-size="10.00"> </text>
<text text-anchor="start" x="422" y="-361.5" font-family="Helvetica,sans-Serif" font-size="10.00">+</text>
<text text-anchor="start" x="435" y="-361.5" font-family="Helvetica,sans-Serif" font-size="10.00">QuantityType()</text>
<text text-anchor="start" x="422" y="-346.5" font-family="Helvetica,sans-Serif" font-size="10.00">+</text>
<text text-anchor="start" x="435" y="-346.5" font-family="Helvetica,sans-Serif" font-size="10.00">~QuantityType()</text>
<text text-anchor="start" x="422" y="-331.5" font-family="Helvetica,sans-Serif" font-size="10.00">+</text>
<text text-anchor="start" x="435" y="-331.5" font-family="Helvetica,sans-Serif" font-size="10.00">getElementType()</text>
<text text-anchor="start" x="422" y="-316.5" font-family="Helvetica,sans-Serif" font-size="10.00">+</text>
<text text-anchor="start" x="435" y="-316.5" font-family="Helvetica,sans-Serif" font-size="10.00">getUnit()</text>
<text text-anchor="start" x="422" y="-301.5" font-family="Helvetica,sans-Serif" font-size="10.00">+</text>
<text text-anchor="start" x="435" y="-301.5" font-family="Helvetica,sans-Serif" font-size="10.00">getUnit()</text>
<text text-anchor="start" x="422" y="-286.5" font-family="Helvetica,sans-Serif" font-size="10.00">+</text>
<text text-anchor="start" x="435" y="-286.5" font-family="Helvetica,sans-Serif" font-size="10.00">getMaxValue()</text>
<text text-anchor="start" x="422" y="-271.5" font-family="Helvetica,sans-Serif" font-size="10.00">+</text>
<text text-anchor="start" x="435" y="-271.5" font-family="Helvetica,sans-Serif" font-size="10.00">getMinValue()</text>
<text text-anchor="start" x="422" y="-256.5" font-family="Helvetica,sans-Serif" font-size="10.00">+</text>
<text text-anchor="start" x="435" y="-256.5" font-family="Helvetica,sans-Serif" font-size="10.00">getQualifiedName()</text>
<text text-anchor="start" x="422" y="-241.5" font-family="Helvetica,sans-Serif" font-size="10.00">+</text>
<text text-anchor="start" x="435" y="-241.5" font-family="Helvetica,sans-Serif" font-size="10.00">getName()</text>
<text text-anchor="start" x="422" y="-226.5" font-family="Helvetica,sans-Serif" font-size="10.00">+</text>
<text text-anchor="start" x="435" y="-226.5" font-family="Helvetica,sans-Serif" font-size="10.00">getDescription()</text>
<text text-anchor="start" x="422" y="-211.5" font-family="Helvetica,sans-Serif" font-size="10.00">+</text>
<text text-anchor="start" x="435" y="-211.5" font-family="Helvetica,sans-Serif" font-size="10.00">equals()</text>
<text text-anchor="start" x="422" y="-196.5" font-family="Helvetica,sans-Serif" font-size="10.00">+</text>
<text text-anchor="start" x="435" y="-196.5" font-family="Helvetica,sans-Serif" font-size="10.00">isBounded()</text>
<text text-anchor="start" x="422" y="-181.5" font-family="Helvetica,sans-Serif" font-size="10.00">+</text>
<text text-anchor="start" x="435" y="-181.5" font-family="Helvetica,sans-Serif" font-size="10.00">make()</text>
<text text-anchor="start" x="422" y="-166.5" font-family="Helvetica,sans-Serif" font-size="10.00">#</text>
<text text-anchor="start" x="435" y="-166.5" font-family="Helvetica,sans-Serif" font-size="10.00">getSpec()</text>
<text text-anchor="start" x="422" y="-151.5" font-family="Helvetica,sans-Serif" font-size="10.00">#</text>
<text text-anchor="start" x="435" y="-151.5" font-family="Helvetica,sans-Serif" font-size="10.00">QuantityType()</text>
<polygon fill="#666666" stroke="#666666" points="418,-386.5 418,-386.5 536,-386.5 536,-386.5 418,-386.5"/>
<polygon fill="#666666" stroke="#666666" points="418,-371.5 418,-371.5 536,-371.5 536,-371.5 418,-371.5"/>
<polygon fill="none" stroke="#666666" points="418,-145 418,-404 536,-404 536,-145 418,-145"/>
</a>
</g>
</g>
<!-- Node2&#45;&gt;Node6 -->
<g id="edge5_Node000002_Node000006" class="edge">
<title>Node2&#45;&gt;Node6</title>
<g id="a_edge5_Node000002_Node000006"><a xlink:title=" ">
<path fill="none" stroke="#63b8ff" d="M531.34,-467.68C526.07,-449.05 519.77,-426.77 513.36,-404.09"/>
<polygon fill="none" stroke="#63b8ff" points="527.99,-468.69 534.07,-477.36 534.72,-466.78 527.99,-468.69"/>
</a>
</g>
</g>
<!-- Node9 -->
<g id="Node000009" class="node">
<title>Node9</title>
<g id="a_Node000009"><a xlink:href="classsen_1_1_sequence_type.html" target="_top" xlink:title="Represents a sequence type.">
<polygon fill="white" stroke="transparent" points="672,-374 554,-374 554,-175 672,-175 672,-374"/>
<text text-anchor="start" x="566" y="-361.5" font-family="Helvetica,sans-Serif" font-size="10.00">sen::SequenceType</text>
<text text-anchor="start" x="611" y="-346.5" font-family="Helvetica,sans-Serif" font-size="10.00"> </text>
<text text-anchor="start" x="558" y="-331.5" font-family="Helvetica,sans-Serif" font-size="10.00">+</text>
<text text-anchor="start" x="571" y="-331.5" font-family="Helvetica,sans-Serif" font-size="10.00">SequenceType()</text>
<text text-anchor="start" x="558" y="-316.5" font-family="Helvetica,sans-Serif" font-size="10.00">+</text>
<text text-anchor="start" x="571" y="-316.5" font-family="Helvetica,sans-Serif" font-size="10.00">~SequenceType()</text>
<text text-anchor="start" x="558" y="-301.5" font-family="Helvetica,sans-Serif" font-size="10.00">+</text>
<text text-anchor="start" x="571" y="-301.5" font-family="Helvetica,sans-Serif" font-size="10.00">getElementType()</text>
<text text-anchor="start" x="558" y="-286.5" font-family="Helvetica,sans-Serif" font-size="10.00">+</text>
<text text-anchor="start" x="571" y="-286.5" font-family="Helvetica,sans-Serif" font-size="10.00">getMaxSize()</text>
<text text-anchor="start" x="558" y="-271.5" font-family="Helvetica,sans-Serif" font-size="10.00">+</text>
<text text-anchor="start" x="571" y="-271.5" font-family="Helvetica,sans-Serif" font-size="10.00">hasFixedSize()</text>
<text text-anchor="start" x="558" y="-256.5" font-family="Helvetica,sans-Serif" font-size="10.00">+</text>
<text text-anchor="start" x="571" y="-256.5" font-family="Helvetica,sans-Serif" font-size="10.00">getQualifiedName()</text>
<text text-anchor="start" x="558" y="-241.5" font-family="Helvetica,sans-Serif" font-size="10.00">+</text>
<text text-anchor="start" x="571" y="-241.5" font-family="Helvetica,sans-Serif" font-size="10.00">getName()</text>
<text text-anchor="start" x="558" y="-226.5" font-family="Helvetica,sans-Serif" font-size="10.00">+</text>
<text text-anchor="start" x="571" y="-226.5" font-family="Helvetica,sans-Serif" font-size="10.00">getDescription()</text>
<text text-anchor="start" x="558" y="-211.5" font-family="Helvetica,sans-Serif" font-size="10.00">+</text>
<text text-anchor="start" x="571" y="-211.5" font-family="Helvetica,sans-Serif" font-size="10.00">equals()</text>
<text text-anchor="start" x="558" y="-196.5" font-family="Helvetica,sans-Serif" font-size="10.00">+</text>
<text text-anchor="start" x="571" y="-196.5" font-family="Helvetica,sans-Serif" font-size="10.00">isBounded()</text>
<text text-anchor="start" x="558" y="-181.5" font-family="Helvetica,sans-Serif" font-size="10.00">+</text>
<text text-anchor="start" x="571" y="-181.5" font-family="Helvetica,sans-Serif" font-size="10.00">make()</text>
<polygon fill="#666666" stroke="#666666" points="554,-356.5 554,-356.5 672,-356.5 672,-356.5 554,-356.5"/>
<polygon fill="#666666" stroke="#666666" points="554,-341.5 554,-341.5 672,-341.5 672,-341.5 554,-341.5"/>
<polygon fill="none" stroke="#666666" points="554,-175 554,-374 672,-374 672,-175 554,-175"/>
</a>
</g>
</g>
<!-- Node2&#45;&gt;Node9 -->
<g id="edge8_Node000002_Node000009" class="edge">
<title>Node2&#45;&gt;Node9</title>
<g id="a_edge8_Node000002_Node000009"><a xlink:title=" ">
<path fill="none" stroke="#63b8ff" d="M558.72,-467.48C566.3,-440.68 575.99,-406.4 585.08,-374.24"/>
<polygon fill="none" stroke="#63b8ff" points="555.28,-466.78 555.93,-477.36 562.01,-468.69 555.28,-466.78"/>
</a>
</g>
</g>
<!-- Node10 -->
<g id="Node000010" class="node">
<title>Node10</title>
<g id="a_Node000010"><a xlink:href="classsen_1_1_struct_type.html" target="_top" xlink:title="Represents a structure type.">
<polygon fill="white" stroke="transparent" points="812,-381.5 690,-381.5 690,-167.5 812,-167.5 812,-381.5"/>
<text text-anchor="start" x="713.5" y="-369.5" font-family="Helvetica,sans-Serif" font-size="10.00">sen::StructType</text>
<text text-anchor="start" x="749" y="-354.5" font-family="Helvetica,sans-Serif" font-size="10.00"> </text>
<text text-anchor="start" x="694" y="-339.5" font-family="Helvetica,sans-Serif" font-size="10.00">+</text>
<text text-anchor="start" x="707" y="-339.5" font-family="Helvetica,sans-Serif" font-size="10.00">StructType()</text>
<text text-anchor="start" x="694" y="-324.5" font-family="Helvetica,sans-Serif" font-size="10.00">+</text>
<text text-anchor="start" x="707" y="-324.5" font-family="Helvetica,sans-Serif" font-size="10.00">~StructType()</text>
<text text-anchor="start" x="694" y="-309.5" font-family="Helvetica,sans-Serif" font-size="10.00">+</text>
<text text-anchor="start" x="707" y="-309.5" font-family="Helvetica,sans-Serif" font-size="10.00">getFieldFromName()</text>
<text text-anchor="start" x="694" y="-294.5" font-family="Helvetica,sans-Serif" font-size="10.00">+</text>
<text text-anchor="start" x="707" y="-294.5" font-family="Helvetica,sans-Serif" font-size="10.00">getFields()</text>
<text text-anchor="start" x="694" y="-279.5" font-family="Helvetica,sans-Serif" font-size="10.00">+</text>
<text text-anchor="start" x="707" y="-279.5" font-family="Helvetica,sans-Serif" font-size="10.00">getAllFields()</text>
<text text-anchor="start" x="694" y="-264.5" font-family="Helvetica,sans-Serif" font-size="10.00">+</text>
<text text-anchor="start" x="707" y="-264.5" font-family="Helvetica,sans-Serif" font-size="10.00">getParent()</text>
<text text-anchor="start" x="694" y="-249.5" font-family="Helvetica,sans-Serif" font-size="10.00">+</text>
<text text-anchor="start" x="707" y="-249.5" font-family="Helvetica,sans-Serif" font-size="10.00">getQualifiedName()</text>
<text text-anchor="start" x="694" y="-234.5" font-family="Helvetica,sans-Serif" font-size="10.00">+</text>
<text text-anchor="start" x="707" y="-234.5" font-family="Helvetica,sans-Serif" font-size="10.00">getName()</text>
<text text-anchor="start" x="694" y="-219.5" font-family="Helvetica,sans-Serif" font-size="10.00">+</text>
<text text-anchor="start" x="707" y="-219.5" font-family="Helvetica,sans-Serif" font-size="10.00">getDescription()</text>
<text text-anchor="start" x="694" y="-204.5" font-family="Helvetica,sans-Serif" font-size="10.00">+</text>
<text text-anchor="start" x="707" y="-204.5" font-family="Helvetica,sans-Serif" font-size="10.00">equals()</text>
<text text-anchor="start" x="694" y="-189.5" font-family="Helvetica,sans-Serif" font-size="10.00">+</text>
<text text-anchor="start" x="707" y="-189.5" font-family="Helvetica,sans-Serif" font-size="10.00">isBounded()</text>
<text text-anchor="start" x="694" y="-174.5" font-family="Helvetica,sans-Serif" font-size="10.00">+</text>
<text text-anchor="start" x="707" y="-174.5" font-family="Helvetica,sans-Serif" font-size="10.00">make()</text>
<polygon fill="#666666" stroke="#666666" points="690,-364.5 690,-364.5 812,-364.5 812,-364.5 690,-364.5"/>
<polygon fill="#666666" stroke="#666666" points="690,-349.5 690,-349.5 812,-349.5 812,-349.5 690,-349.5"/>
<polygon fill="none" stroke="#666666" points="690,-167.5 690,-381.5 812,-381.5 812,-167.5 690,-167.5"/>
</a>
</g>
</g>
<!-- Node2&#45;&gt;Node10 -->
<g id="edge9_Node000002_Node000010" class="edge">
<title>Node2&#45;&gt;Node10</title>
<g id="a_edge9_Node000002_Node000010"><a xlink:title=" ">
<path fill="none" stroke="#63b8ff" d="M609.39,-471.22C633.71,-452.31 660.44,-428.9 681,-404 686.74,-397.05 692.24,-389.55 697.45,-381.8"/>
<polygon fill="none" stroke="#63b8ff" points="607.06,-468.6 601.25,-477.46 611.32,-474.15 607.06,-468.6"/>
</a>
</g>
</g>
<!-- Node11 -->
<g id="Node000011" class="node">
<title>Node11</title>
<g id="a_Node000011"><a xlink:href="classsen_1_1_variant_type.html" target="_top" xlink:title="Represents a variant type.">
<polygon fill="white" stroke="transparent" points="948,-366.5 830,-366.5 830,-182.5 948,-182.5 948,-366.5"/>
<text text-anchor="start" x="848.5" y="-354.5" font-family="Helvetica,sans-Serif" font-size="10.00">sen::VariantType</text>
<text text-anchor="start" x="887" y="-339.5" font-family="Helvetica,sans-Serif" font-size="10.00"> </text>
<text text-anchor="start" x="834" y="-324.5" font-family="Helvetica,sans-Serif" font-size="10.00">+</text>
<text text-anchor="start" x="847" y="-324.5" font-family="Helvetica,sans-Serif" font-size="10.00">VariantType()</text>
<text text-anchor="start" x="834" y="-309.5" font-family="Helvetica,sans-Serif" font-size="10.00">+</text>
<text text-anchor="start" x="847" y="-309.5" font-family="Helvetica,sans-Serif" font-size="10.00">~VariantType()</text>
<text text-anchor="start" x="834" y="-294.5" font-family="Helvetica,sans-Serif" font-size="10.00">+</text>
<text text-anchor="start" x="847" y="-294.5" font-family="Helvetica,sans-Serif" font-size="10.00">getFieldFromKey()</text>
<text text-anchor="start" x="834" y="-279.5" font-family="Helvetica,sans-Serif" font-size="10.00">+</text>
<text text-anchor="start" x="847" y="-279.5" font-family="Helvetica,sans-Serif" font-size="10.00">getFields()</text>
<text text-anchor="start" x="834" y="-264.5" font-family="Helvetica,sans-Serif" font-size="10.00">+</text>
<text text-anchor="start" x="847" y="-264.5" font-family="Helvetica,sans-Serif" font-size="10.00">getQualifiedName()</text>
<text text-anchor="start" x="834" y="-249.5" font-family="Helvetica,sans-Serif" font-size="10.00">+</text>
<text text-anchor="start" x="847" y="-249.5" font-family="Helvetica,sans-Serif" font-size="10.00">getName()</text>
<text text-anchor="start" x="834" y="-234.5" font-family="Helvetica,sans-Serif" font-size="10.00">+</text>
<text text-anchor="start" x="847" y="-234.5" font-family="Helvetica,sans-Serif" font-size="10.00">getDescription()</text>
<text text-anchor="start" x="834" y="-219.5" font-family="Helvetica,sans-Serif" font-size="10.00">+</text>
<text text-anchor="start" x="847" y="-219.5" font-family="Helvetica,sans-Serif" font-size="10.00">equals()</text>
<text text-anchor="start" x="834" y="-204.5" font-family="Helvetica,sans-Serif" font-size="10.00">+</text>
<text text-anchor="start" x="847" y="-204.5" font-family="Helvetica,sans-Serif" font-size="10.00">isBounded()</text>
<text text-anchor="start" x="834" y="-189.5" font-family="Helvetica,sans-Serif" font-size="10.00">+</text>
<text text-anchor="start" x="847" y="-189.5" font-family="Helvetica,sans-Serif" font-size="10.00">make()</text>
<polygon fill="#666666" stroke="#666666" points="830,-349.5 830,-349.5 948,-349.5 948,-349.5 830,-349.5"/>
<polygon fill="#666666" stroke="#666666" points="830,-334.5 830,-334.5 948,-334.5 948,-334.5 830,-334.5"/>
<polygon fill="none" stroke="#666666" points="830,-182.5 830,-366.5 948,-366.5 948,-182.5 830,-182.5"/>
</a>
</g>
</g>
<!-- Node2&#45;&gt;Node11 -->
<g id="edge10_Node000002_Node000011" class="edge">
<title>Node2&#45;&gt;Node11</title>
<g id="a_edge10_Node000002_Node000011"><a xlink:title=" ">
<path fill="none" stroke="#63b8ff" d="M614.03,-502.09C674.66,-486.87 762.12,-457.2 821,-404 832.7,-393.42 842.75,-380.35 851.24,-366.64"/>
<polygon fill="none" stroke="#63b8ff" points="613.05,-498.73 604.17,-504.5 614.71,-505.53 613.05,-498.73"/>
</a>
</g>
</g>
<!-- Node7 -->
<g id="Node000007" class="node">
<title>Node7</title>
<g id="a_Node000007"><a xlink:href="classsen_1_1_duration_type.html" target="_top" xlink:title="Represents a sen::Duration (a time duration).">
<polygon fill="white" stroke="transparent" points="464,-101.5 362,-101.5 362,-7.5 464,-7.5 464,-101.5"/>
<text text-anchor="start" x="369" y="-89.5" font-family="Helvetica,sans-Serif" font-size="10.00">sen::DurationType</text>
<text text-anchor="start" x="411" y="-74.5" font-family="Helvetica,sans-Serif" font-size="10.00"> </text>
<text text-anchor="start" x="366" y="-59.5" font-family="Helvetica,sans-Serif" font-size="10.00">+</text>
<text text-anchor="start" x="379" y="-59.5" font-family="Helvetica,sans-Serif" font-size="10.00">DurationType()</text>
<text text-anchor="start" x="366" y="-44.5" font-family="Helvetica,sans-Serif" font-size="10.00">+</text>
<text text-anchor="start" x="379" y="-44.5" font-family="Helvetica,sans-Serif" font-size="10.00">~DurationType()</text>
<text text-anchor="start" x="366" y="-29.5" font-family="Helvetica,sans-Serif" font-size="10.00">+</text>
<text text-anchor="start" x="379" y="-29.5" font-family="Helvetica,sans-Serif" font-size="10.00">equals()</text>
<text text-anchor="start" x="366" y="-14.5" font-family="Helvetica,sans-Serif" font-size="10.00">+</text>
<text text-anchor="start" x="379" y="-14.5" font-family="Helvetica,sans-Serif" font-size="10.00">get()</text>
<polygon fill="#666666" stroke="#666666" points="362,-84.5 362,-84.5 464,-84.5 464,-84.5 362,-84.5"/>
<polygon fill="#666666" stroke="#666666" points="362,-69.5 362,-69.5 464,-69.5 464,-69.5 362,-69.5"/>
<polygon fill="none" stroke="#666666" points="362,-7.5 362,-101.5 464,-101.5 464,-7.5 362,-7.5"/>
</a>
</g>
</g>
<!-- Node6&#45;&gt;Node7 -->
<g id="edge6_Node000006_Node000007" class="edge">
<title>Node6&#45;&gt;Node7</title>
<g id="a_edge6_Node000006_Node000007"><a xlink:title=" ">
<path fill="none" stroke="#63b8ff" d="M436.4,-135.2C432.92,-123.35 429.59,-111.99 426.58,-101.76"/>
<polygon fill="none" stroke="#63b8ff" points="433.04,-136.19 439.22,-144.8 439.76,-134.22 433.04,-136.19"/>
</a>
</g>
</g>
<!-- Node8 -->
<g id="Node000008" class="node">
<title>Node8</title>
<g id="a_Node000008"><a xlink:href="classsen_1_1_timestamp_type.html" target="_top" xlink:title="Represents a sen::TimeStamp (a point in time).">
<polygon fill="white" stroke="transparent" points="597.5,-101.5 482.5,-101.5 482.5,-7.5 597.5,-7.5 597.5,-101.5"/>
<text text-anchor="start" x="489.5" y="-89.5" font-family="Helvetica,sans-Serif" font-size="10.00">sen::TimestampType</text>
<text text-anchor="start" x="538.5" y="-74.5" font-family="Helvetica,sans-Serif" font-size="10.00"> </text>
<text text-anchor="start" x="487" y="-59.5" font-family="Helvetica,sans-Serif" font-size="10.00">+</text>
<text text-anchor="start" x="500" y="-59.5" font-family="Helvetica,sans-Serif" font-size="10.00">TimestampType()</text>
<text text-anchor="start" x="487" y="-44.5" font-family="Helvetica,sans-Serif" font-size="10.00">+</text>
<text text-anchor="start" x="500" y="-44.5" font-family="Helvetica,sans-Serif" font-size="10.00">~TimestampType()</text>
<text text-anchor="start" x="487" y="-29.5" font-family="Helvetica,sans-Serif" font-size="10.00">+</text>
<text text-anchor="start" x="500" y="-29.5" font-family="Helvetica,sans-Serif" font-size="10.00">equals()</text>
<text text-anchor="start" x="487" y="-14.5" font-family="Helvetica,sans-Serif" font-size="10.00">+</text>
<text text-anchor="start" x="500" y="-14.5" font-family="Helvetica,sans-Serif" font-size="10.00">get()</text>
<polygon fill="#666666" stroke="#666666" points="483,-84.5 483,-84.5 598,-84.5 598,-84.5 483,-84.5"/>
<polygon fill="#666666" stroke="#666666" points="483,-69.5 483,-69.5 598,-69.5 598,-69.5 483,-69.5"/>
<polygon fill="none" stroke="#666666" points="482.5,-7.5 482.5,-101.5 597.5,-101.5 597.5,-7.5 482.5,-7.5"/>
</a>
</g>
</g>
<!-- Node6&#45;&gt;Node8 -->
<g id="edge7_Node000006_Node000008" class="edge">
<title>Node6&#45;&gt;Node8</title>
<g id="a_edge7_Node000006_Node000008"><a xlink:title=" ">
<path fill="none" stroke="#63b8ff" d="M517.07,-134.85C520.46,-123.12 523.7,-111.89 526.63,-101.76"/>
<polygon fill="none" stroke="#63b8ff" points="513.61,-134.22 514.19,-144.8 520.33,-136.16 513.61,-134.22"/>
</a>
</g>
</g>
<!-- Node13 -->
<g id="Node000013" class="node">
<title>Node13</title>
<g id="a_Node000013"><a xlink:href="classsen_1_1_numeric_type.html" target="_top" xlink:title="Represents a numeric native type.">
<polygon fill="white" stroke="transparent" points="1067.5,-344 966.5,-344 966.5,-205 1067.5,-205 1067.5,-344"/>
<text text-anchor="start" x="973.5" y="-331.5" font-family="Helvetica,sans-Serif" font-size="10.00">sen::NumericType</text>
<text text-anchor="start" x="1015.5" y="-316.5" font-family="Helvetica,sans-Serif" font-size="10.00"> </text>
<text text-anchor="start" x="971" y="-301.5" font-family="Helvetica,sans-Serif" font-size="10.00">+</text>
<text text-anchor="start" x="984" y="-301.5" font-family="Helvetica,sans-Serif" font-size="10.00">isSigned()</text>
<text text-anchor="start" x="971" y="-286.5" font-family="Helvetica,sans-Serif" font-size="10.00">+</text>
<text text-anchor="start" x="984" y="-286.5" font-family="Helvetica,sans-Serif" font-size="10.00">hasInfinity()</text>
<text text-anchor="start" x="971" y="-271.5" font-family="Helvetica,sans-Serif" font-size="10.00">+</text>
<text text-anchor="start" x="984" y="-271.5" font-family="Helvetica,sans-Serif" font-size="10.00">isIEC559()</text>
<text text-anchor="start" x="971" y="-256.5" font-family="Helvetica,sans-Serif" font-size="10.00">+</text>
<text text-anchor="start" x="984" y="-256.5" font-family="Helvetica,sans-Serif" font-size="10.00">getByteSize()</text>
<text text-anchor="start" x="971" y="-241.5" font-family="Helvetica,sans-Serif" font-size="10.00">+</text>
<text text-anchor="start" x="984" y="-241.5" font-family="Helvetica,sans-Serif" font-size="10.00">isBounded()</text>
<text text-anchor="start" x="971" y="-226.5" font-family="Helvetica,sans-Serif" font-size="10.00">#</text>
<text text-anchor="start" x="984" y="-226.5" font-family="Helvetica,sans-Serif" font-size="10.00">NumericType()</text>
<text text-anchor="start" x="971" y="-211.5" font-family="Helvetica,sans-Serif" font-size="10.00">#</text>
<text text-anchor="start" x="984" y="-211.5" font-family="Helvetica,sans-Serif" font-size="10.00">~NumericType()</text>
<polygon fill="#666666" stroke="#666666" points="967,-326.5 967,-326.5 1068,-326.5 1068,-326.5 967,-326.5"/>
<polygon fill="#666666" stroke="#666666" points="967,-311.5 967,-311.5 1068,-311.5 1068,-311.5 967,-311.5"/>
<polygon fill="none" stroke="#666666" points="966.5,-205 966.5,-344 1067.5,-344 1067.5,-205 966.5,-205"/>
</a>
</g>
</g>
<!-- Node12&#45;&gt;Node13 -->
<g id="edge12_Node000012_Node000013" class="edge">
<title>Node12&#45;&gt;Node13</title>
<g id="a_edge12_Node000012_Node000013"><a xlink:title=" ">
<path fill="none" stroke="#63b8ff" d="M866.13,-476.39C874.89,-463.87 885.49,-450.56 897,-440 919.92,-418.98 936.18,-427.1 957,-404 972.5,-386.81 984.7,-364.92 993.94,-344.1"/>
<polygon fill="none" stroke="#63b8ff" points="863.08,-474.64 860.37,-484.88 868.88,-478.57 863.08,-474.64"/>
</a>
</g>
</g>
<!-- Node14 -->
<g id="Node000014" class="node">
<title>Node14</title>
<g id="a_Node000014"><a xlink:href="classsen_1_1_integral_type.html" target="_top" xlink:title="Represents an integral numeric type.">
<polygon fill="white" stroke="transparent" points="1008.5,-86.5 911.5,-86.5 911.5,-22.5 1008.5,-22.5 1008.5,-86.5"/>
<text text-anchor="start" x="918.5" y="-74.5" font-family="Helvetica,sans-Serif" font-size="10.00">sen::IntegralType</text>
<text text-anchor="start" x="958.5" y="-59.5" font-family="Helvetica,sans-Serif" font-size="10.00"> </text>
<text text-anchor="start" x="916" y="-44.5" font-family="Helvetica,sans-Serif" font-size="10.00">+</text>
<text text-anchor="start" x="929" y="-44.5" font-family="Helvetica,sans-Serif" font-size="10.00">IntegralType()</text>
<text text-anchor="start" x="916" y="-29.5" font-family="Helvetica,sans-Serif" font-size="10.00">+</text>
<text text-anchor="start" x="929" y="-29.5" font-family="Helvetica,sans-Serif" font-size="10.00">~IntegralType()</text>
<polygon fill="#666666" stroke="#666666" points="912,-69.5 912,-69.5 1009,-69.5 1009,-69.5 912,-69.5"/>
<polygon fill="#666666" stroke="#666666" points="912,-54.5 912,-54.5 1009,-54.5 1009,-54.5 912,-54.5"/>
<polygon fill="none" stroke="#666666" points="911.5,-22.5 911.5,-86.5 1008.5,-86.5 1008.5,-22.5 911.5,-22.5"/>
</a>
</g>
</g>
<!-- Node13&#45;&gt;Node14 -->
<g id="edge13_Node000013_Node000014" class="edge">
<title>Node13&#45;&gt;Node14</title>
<g id="a_edge13_Node000013_Node000014"><a xlink:title=" ">
<path fill="none" stroke="#63b8ff" d="M996.46,-194.93C986.68,-157.53 975.54,-114.93 968.17,-86.76"/>
<polygon fill="none" stroke="#63b8ff" points="993.13,-196.03 999.04,-204.82 999.9,-194.26 993.13,-196.03"/>
</a>
</g>
</g>
<!-- Node15 -->
<g id="Node000015" class="node">
<title>Node15</title>
<g id="a_Node000015"><a xlink:href="classsen_1_1_real_type.html" target="_top" xlink:title="Represents a floating point numeric type.">
<polygon fill="white" stroke="transparent" points="1119.5,-109 1026.5,-109 1026.5,0 1119.5,0 1119.5,-109"/>
<text text-anchor="start" x="1039.5" y="-96.5" font-family="Helvetica,sans-Serif" font-size="10.00">sen::RealType</text>
<text text-anchor="start" x="1071.5" y="-81.5" font-family="Helvetica,sans-Serif" font-size="10.00"> </text>
<text text-anchor="start" x="1031" y="-66.5" font-family="Helvetica,sans-Serif" font-size="10.00">+</text>
<text text-anchor="start" x="1044" y="-66.5" font-family="Helvetica,sans-Serif" font-size="10.00">RealType()</text>
<text text-anchor="start" x="1031" y="-51.5" font-family="Helvetica,sans-Serif" font-size="10.00">+</text>
<text text-anchor="start" x="1044" y="-51.5" font-family="Helvetica,sans-Serif" font-size="10.00">~RealType()</text>
<text text-anchor="start" x="1031" y="-36.5" font-family="Helvetica,sans-Serif" font-size="10.00">+</text>
<text text-anchor="start" x="1044" y="-36.5" font-family="Helvetica,sans-Serif" font-size="10.00">getMaxValue()</text>
<text text-anchor="start" x="1031" y="-21.5" font-family="Helvetica,sans-Serif" font-size="10.00">+</text>
<text text-anchor="start" x="1044" y="-21.5" font-family="Helvetica,sans-Serif" font-size="10.00">getMinValue()</text>
<text text-anchor="start" x="1031" y="-6.5" font-family="Helvetica,sans-Serif" font-size="10.00">+</text>
<text text-anchor="start" x="1044" y="-6.5" font-family="Helvetica,sans-Serif" font-size="10.00">getEpsilon()</text>
<polygon fill="#666666" stroke="#666666" points="1027,-91.5 1027,-91.5 1120,-91.5 1120,-91.5 1027,-91.5"/>
<polygon fill="#666666" stroke="#666666" points="1027,-76.5 1027,-76.5 1120,-76.5 1120,-76.5 1027,-76.5"/>
<polygon fill="none" stroke="#666666" points="1026.5,0 1026.5,-109 1119.5,-109 1119.5,0 1026.5,0"/>
</a>
</g>
</g>
<!-- Node13&#45;&gt;Node15 -->
<g id="edge14_Node000013_Node000015" class="edge">
<title>Node13&#45;&gt;Node15</title>
<g id="a_edge14_Node000013_Node000015"><a xlink:title=" ">
<path fill="none" stroke="#63b8ff" d="M1037.19,-194.92C1044.48,-166.51 1052.55,-135.12 1059.17,-109.32"/>
<polygon fill="none" stroke="#63b8ff" points="1033.74,-194.27 1034.64,-204.82 1040.52,-196.01 1033.74,-194.27"/>
</a>
</g>
</g>
</g>
</svg>
