<?xml version="1.0" encoding="UTF-8" standalone="no"?>
<!DOCTYPE svg PUBLIC "-//W3C//DTD SVG 1.1//EN"
 "http://www.w3.org/Graphics/SVG/1.1/DTD/svg11.dtd">
<!-- Generated by graphviz version 2.43.0 (0)
 -->
<!-- Title: sen::ObjectProviderListener Pages: 1 -->
<svg width="1000pt" height="569pt"
 viewBox="0.00 0.00 1000.00 569.00" xmlns="http://www.w3.org/2000/svg" xmlns:xlink="http://www.w3.org/1999/xlink">
<g id="graph0" class="graph" transform="scale(1 1) rotate(0) translate(4 565)">
<title>sen::ObjectProviderListener</title>
<!-- Node1 -->
<g id="Node000001" class="node">
<title>Node1</title>
<g id="a_Node000001"><a xlink:title="Allows reacting to objects being added or removed to an object provider. It automatically unregisters...">
<polygon fill="#999999" stroke="transparent" points="568,-561 420,-561 420,-437 568,-437 568,-561"/>
<text text-anchor="start" x="426.5" y="-549" font-family="Helvetica,sans-Serif" font-size="10.00">sen::ObjectProviderListener</text>
<text text-anchor="start" x="492" y="-534" font-family="Helvetica,sans-Serif" font-size="10.00"> </text>
<text text-anchor="start" x="424" y="-519" font-family="Helvetica,sans-Serif" font-size="10.00">+</text>
<text text-anchor="start" x="437" y="-519" font-family="Helvetica,sans-Serif" font-size="10.00">ObjectProviderListener()</text>
<text text-anchor="start" x="424" y="-504" font-family="Helvetica,sans-Serif" font-size="10.00">+</text>
<text text-anchor="start" x="437" y="-504" font-family="Helvetica,sans-Serif" font-size="10.00">~ObjectProviderListener()</text>
<text text-anchor="start" x="424" y="-489" font-family="Helvetica,sans-Serif" font-size="10.00">+</text>
<text text-anchor="start" x="437" y="-489" font-family="Helvetica,sans-Serif" font-size="10.00">isRemoteParticipant()</text>
<text text-anchor="start" x="424" y="-474" font-family="Helvetica,sans-Serif" font-size="10.00">+</text>
<text text-anchor="start" x="437" y="-474" font-family="Helvetica,sans-Serif" font-size="10.00">isLocalParticipant()</text>
<text text-anchor="start" x="424" y="-459" font-family="Helvetica,sans-Serif" font-size="10.00">#</text>
<text text-anchor="start" x="437" y="-459" font-family="Helvetica,sans-Serif" font-size="10.00">onObjectsAdded()</text>
<text text-anchor="start" x="424" y="-444" font-family="Helvetica,sans-Serif" font-size="10.00">#</text>
<text text-anchor="start" x="437" y="-444" font-family="Helvetica,sans-Serif" font-size="10.00">onObjectsRemoved()</text>
<polygon fill="#666666" stroke="#666666" points="420,-544 420,-544 568,-544 568,-544 420,-544"/>
<polygon fill="#666666" stroke="#666666" points="420,-529 420,-529 568,-529 568,-529 420,-529"/>
<polygon fill="none" stroke="#666666" points="420,-437 420,-561 568,-561 568,-437 420,-437"/>
</a>
</g>
</g>
<!-- Node2 -->
<g id="Node000002" class="node">
<title>Node2</title>
<g id="a_Node000002"><a xlink:href="classsen_1_1_object_list.html" target="_top" xlink:title=" ">
<polygon fill="white" stroke="transparent" points="140,-298 0,-298 0,-103 140,-103 140,-298"/>
<text text-anchor="start" x="5" y="-285.5" font-family="Helvetica,sans-Serif" font-size="10.00">sen::ObjectList&lt; TestClass</text>
<text text-anchor="start" x="42.5" y="-274.5" font-family="Helvetica,sans-Serif" font-size="10.00">Interface &gt;</text>
<text text-anchor="start" x="7" y="-259.5" font-family="Helvetica,sans-Serif" font-size="10.00">+</text>
<text text-anchor="start" x="23" y="-259.5" font-family="Helvetica,sans-Serif" font-size="10.00">defaultListSizeHint</text>
<text text-anchor="start" x="7" y="-244.5" font-family="Helvetica,sans-Serif" font-size="10.00">+</text>
<text text-anchor="start" x="23" y="-244.5" font-family="Helvetica,sans-Serif" font-size="10.00">ObjectList()</text>
<text text-anchor="start" x="7" y="-229.5" font-family="Helvetica,sans-Serif" font-size="10.00">+</text>
<text text-anchor="start" x="23" y="-229.5" font-family="Helvetica,sans-Serif" font-size="10.00">~ObjectList()</text>
<text text-anchor="start" x="7" y="-214.5" font-family="Helvetica,sans-Serif" font-size="10.00">+</text>
<text text-anchor="start" x="23" y="-214.5" font-family="Helvetica,sans-Serif" font-size="10.00">onAdded()</text>
<text text-anchor="start" x="7" y="-199.5" font-family="Helvetica,sans-Serif" font-size="10.00">+</text>
<text text-anchor="start" x="23" y="-199.5" font-family="Helvetica,sans-Serif" font-size="10.00">onRemoved()</text>
<text text-anchor="start" x="7" y="-184.5" font-family="Helvetica,sans-Serif" font-size="10.00">+</text>
<text text-anchor="start" x="23" y="-184.5" font-family="Helvetica,sans-Serif" font-size="10.00">getObjects()</text>
<text text-anchor="start" x="7" y="-169.5" font-family="Helvetica,sans-Serif" font-size="10.00">+</text>
<text text-anchor="start" x="23" y="-169.5" font-family="Helvetica,sans-Serif" font-size="10.00">getUntypedObjects()</text>
<text text-anchor="start" x="7" y="-154.5" font-family="Helvetica,sans-Serif" font-size="10.00">+</text>
<text text-anchor="start" x="23" y="-154.5" font-family="Helvetica,sans-Serif" font-size="10.00">isRemoteParticipant()</text>
<text text-anchor="start" x="7" y="-139.5" font-family="Helvetica,sans-Serif" font-size="10.00">+</text>
<text text-anchor="start" x="23" y="-139.5" font-family="Helvetica,sans-Serif" font-size="10.00">isLocalParticipant()</text>
<text text-anchor="start" x="7" y="-124.5" font-family="Helvetica,sans-Serif" font-size="10.00">#</text>
<text text-anchor="start" x="23" y="-124.5" font-family="Helvetica,sans-Serif" font-size="10.00">onObjectsAdded()</text>
<text text-anchor="start" x="7" y="-109.5" font-family="Helvetica,sans-Serif" font-size="10.00">#</text>
<text text-anchor="start" x="23" y="-109.5" font-family="Helvetica,sans-Serif" font-size="10.00">onObjectsRemoved()</text>
<polygon fill="#666666" stroke="#666666" points="0,-269.5 0,-269.5 140,-269.5 140,-269.5 0,-269.5"/>
<polygon fill="#666666" stroke="#666666" points="0,-254.5 0,-254.5 21,-254.5 21,-254.5 0,-254.5"/>
<polygon fill="#666666" stroke="#666666" points="21,-254.5 21,-254.5 140,-254.5 140,-254.5 21,-254.5"/>
<polygon fill="none" stroke="#666666" points="0,-103 0,-298 140,-298 140,-103 0,-103"/>
</a>
</g>
</g>
<!-- Node1&#45;&gt;Node2 -->
<g id="edge1_Node000001_Node000002" class="edge">
<title>Node1&#45;&gt;Node2</title>
<g id="a_edge1_Node000001_Node000002"><a xlink:title=" ">
<path fill="none" stroke="#63b8ff" d="M409.83,-494.89C333.07,-487.74 220.96,-465.91 149,-401 119.33,-374.24 100.66,-334.89 88.97,-298.19"/>
<polygon fill="none" stroke="#63b8ff" points="409.69,-498.39 419.95,-495.76 410.29,-491.41 409.69,-498.39"/>
</a>
</g>
</g>
<!-- Node3 -->
<g id="Node000003" class="node">
<title>Node3</title>
<g id="a_Node000003"><a xlink:href="classsen_1_1_object_list.html" target="_top" xlink:title=" ">
<polygon fill="white" stroke="transparent" points="312,-298 158,-298 158,-103 312,-103 312,-298"/>
<text text-anchor="start" x="163" y="-285.5" font-family="Helvetica,sans-Serif" font-size="10.00">sen::ObjectList&lt; sen</text>
<text text-anchor="start" x="163" y="-274.5" font-family="Helvetica,sans-Serif" font-size="10.00">::kernel::KernelApiInterface &gt;</text>
<text text-anchor="start" x="168.5" y="-259.5" font-family="Helvetica,sans-Serif" font-size="10.00">+</text>
<text text-anchor="start" x="188" y="-259.5" font-family="Helvetica,sans-Serif" font-size="10.00">defaultListSizeHint</text>
<text text-anchor="start" x="168.5" y="-244.5" font-family="Helvetica,sans-Serif" font-size="10.00">+</text>
<text text-anchor="start" x="188" y="-244.5" font-family="Helvetica,sans-Serif" font-size="10.00">ObjectList()</text>
<text text-anchor="start" x="168.5" y="-229.5" font-family="Helvetica,sans-Serif" font-size="10.00">+</text>
<text text-anchor="start" x="188" y="-229.5" font-family="Helvetica,sans-Serif" font-size="10.00">~ObjectList()</text>
<text text-anchor="start" x="168.5" y="-214.5" font-family="Helvetica,sans-Serif" font-size="10.00">+</text>
<text text-anchor="start" x="188" y="-214.5" font-family="Helvetica,sans-Serif" font-size="10.00">onAdded()</text>
<text text-anchor="start" x="168.5" y="-199.5" font-family="Helvetica,sans-Serif" font-size="10.00">+</text>
<text text-anchor="start" x="188" y="-199.5" font-family="Helvetica,sans-Serif" font-size="10.00">onRemoved()</text>
<text text-anchor="start" x="168.5" y="-184.5" font-family="Helvetica,sans-Serif" font-size="10.00">+</text>
<text text-anchor="start" x="188" y="-184.5" font-family="Helvetica,sans-Serif" font-size="10.00">getObjects()</text>
<text text-anchor="start" x="168.5" y="-169.5" font-family="Helvetica,sans-Serif" font-size="10.00">+</text>
<text text-anchor="start" x="188" y="-169.5" font-family="Helvetica,sans-Serif" font-size="10.00">getUntypedObjects()</text>
<text text-anchor="start" x="168.5" y="-154.5" font-family="Helvetica,sans-Serif" font-size="10.00">+</text>
<text text-anchor="start" x="188" y="-154.5" font-family="Helvetica,sans-Serif" font-size="10.00">isRemoteParticipant()</text>
<text text-anchor="start" x="168.5" y="-139.5" font-family="Helvetica,sans-Serif" font-size="10.00">+</text>
<text text-anchor="start" x="188" y="-139.5" font-family="Helvetica,sans-Serif" font-size="10.00">isLocalParticipant()</text>
<text text-anchor="start" x="168.5" y="-124.5" font-family="Helvetica,sans-Serif" font-size="10.00">#</text>
<text text-anchor="start" x="188" y="-124.5" font-family="Helvetica,sans-Serif" font-size="10.00">onObjectsAdded()</text>
<text text-anchor="start" x="168.5" y="-109.5" font-family="Helvetica,sans-Serif" font-size="10.00">#</text>
<text text-anchor="start" x="188" y="-109.5" font-family="Helvetica,sans-Serif" font-size="10.00">onObjectsRemoved()</text>
<polygon fill="#666666" stroke="#666666" points="158,-269.5 158,-269.5 312,-269.5 312,-269.5 158,-269.5"/>
<polygon fill="#666666" stroke="#666666" points="158,-254.5 158,-254.5 186,-254.5 186,-254.5 158,-254.5"/>
<polygon fill="#666666" stroke="#666666" points="186,-254.5 186,-254.5 312,-254.5 312,-254.5 186,-254.5"/>
<polygon fill="none" stroke="#666666" points="158,-103 158,-298 312,-298 312,-103 158,-103"/>
</a>
</g>
</g>
<!-- Node1&#45;&gt;Node3 -->
<g id="edge2_Node000001_Node000003" class="edge">
<title>Node1&#45;&gt;Node3</title>
<g id="a_edge2_Node000001_Node000003"><a xlink:title=" ">
<path fill="none" stroke="#63b8ff" d="M410.61,-465.06C379.31,-449.42 345.44,-428.12 321,-401 294.74,-371.86 275.63,-333.47 262.18,-298.16"/>
<polygon fill="none" stroke="#63b8ff" points="409.27,-468.3 419.8,-469.53 412.33,-462.01 409.27,-468.3"/>
</a>
</g>
</g>
<!-- Node4 -->
<g id="Node000004" class="node">
<title>Node4</title>
<g id="a_Node000004"><a xlink:href="classsen_1_1_muxed_provider_listener.html" target="_top" xlink:title="An extended ObjectProviderListener that works together with ObjectMux and notifies when objects provi...">
<polygon fill="white" stroke="transparent" points="495.5,-247.5 330.5,-247.5 330.5,-153.5 495.5,-153.5 495.5,-247.5"/>
<text text-anchor="start" x="345.5" y="-235.5" font-family="Helvetica,sans-Serif" font-size="10.00">sen::MuxedProviderListener</text>
<text text-anchor="start" x="411.5" y="-220.5" font-family="Helvetica,sans-Serif" font-size="10.00"> </text>
<text text-anchor="start" x="335" y="-205.5" font-family="Helvetica,sans-Serif" font-size="10.00">+</text>
<text text-anchor="start" x="348" y="-205.5" font-family="Helvetica,sans-Serif" font-size="10.00">MuxedProviderListener()</text>
<text text-anchor="start" x="335" y="-190.5" font-family="Helvetica,sans-Serif" font-size="10.00">+</text>
<text text-anchor="start" x="348" y="-190.5" font-family="Helvetica,sans-Serif" font-size="10.00">~MuxedProviderListener()</text>
<text text-anchor="start" x="335" y="-175.5" font-family="Helvetica,sans-Serif" font-size="10.00">+</text>
<text text-anchor="start" x="348" y="-175.5" font-family="Helvetica,sans-Serif" font-size="10.00">onExistingObjectsReadded()</text>
<text text-anchor="start" x="335" y="-160.5" font-family="Helvetica,sans-Serif" font-size="10.00">+</text>
<text text-anchor="start" x="348" y="-160.5" font-family="Helvetica,sans-Serif" font-size="10.00">onObjectsRefCountReduced()</text>
<polygon fill="#666666" stroke="#666666" points="331,-230.5 331,-230.5 496,-230.5 496,-230.5 331,-230.5"/>
<polygon fill="#666666" stroke="#666666" points="331,-215.5 331,-215.5 496,-215.5 496,-215.5 331,-215.5"/>
<polygon fill="none" stroke="#666666" points="330.5,-153.5 330.5,-247.5 495.5,-247.5 495.5,-153.5 330.5,-153.5"/>
</a>
</g>
</g>
<!-- Node1&#45;&gt;Node4 -->
<g id="edge3_Node000001_Node000004" class="edge">
<title>Node1&#45;&gt;Node4</title>
<g id="a_edge3_Node000001_Node000004"><a xlink:title=" ">
<path fill="none" stroke="#63b8ff" d="M474.65,-427.15C459.48,-371.63 438.81,-295.97 425.68,-247.93"/>
<polygon fill="none" stroke="#63b8ff" points="471.3,-428.2 477.31,-436.92 478.06,-426.36 471.3,-428.2"/>
</a>
</g>
</g>
<!-- Node5 -->
<g id="Node000005" class="node">
<title>Node5</title>
<g id="a_Node000005"><a xlink:href="classsen_1_1_object_list.html" target="_top" xlink:title="A list of objects that is managed by some source based on user&#45;expressed interests.">
<polygon fill="white" stroke="transparent" points="638,-285 514,-285 514,-116 638,-116 638,-285"/>
<text text-anchor="start" x="525.5" y="-272.5" font-family="Helvetica,sans-Serif" font-size="10.00">sen::ObjectList&lt; T &gt;</text>
<text text-anchor="start" x="518" y="-257.5" font-family="Helvetica,sans-Serif" font-size="10.00">+</text>
<text text-anchor="start" x="531" y="-257.5" font-family="Helvetica,sans-Serif" font-size="10.00">defaultListSizeHint</text>
<text text-anchor="start" x="518" y="-242.5" font-family="Helvetica,sans-Serif" font-size="10.00">+</text>
<text text-anchor="start" x="531" y="-242.5" font-family="Helvetica,sans-Serif" font-size="10.00">ObjectList()</text>
<text text-anchor="start" x="518" y="-227.5" font-family="Helvetica,sans-Serif" font-size="10.00">+</text>
<text text-anchor="start" x="531" y="-227.5" font-family="Helvetica,sans-Serif" font-size="10.00">ObjectList()</text>
<text text-anchor="start" x="518" y="-212.5" font-family="Helvetica,sans-Serif" font-size="10.00">+</text>
<text text-anchor="start" x="531" y="-212.5" font-family="Helvetica,sans-Serif" font-size="10.00">~ObjectList()</text>
<text text-anchor="start" x="518" y="-197.5" font-family="Helvetica,sans-Serif" font-size="10.00">+</text>
<text text-anchor="start" x="531" y="-197.5" font-family="Helvetica,sans-Serif" font-size="10.00">onAdded()</text>
<text text-anchor="start" x="518" y="-182.5" font-family="Helvetica,sans-Serif" font-size="10.00">+</text>
<text text-anchor="start" x="531" y="-182.5" font-family="Helvetica,sans-Serif" font-size="10.00">onRemoved()</text>
<text text-anchor="start" x="518" y="-167.5" font-family="Helvetica,sans-Serif" font-size="10.00">+</text>
<text text-anchor="start" x="531" y="-167.5" font-family="Helvetica,sans-Serif" font-size="10.00">getObjects()</text>
<text text-anchor="start" x="518" y="-152.5" font-family="Helvetica,sans-Serif" font-size="10.00">+</text>
<text text-anchor="start" x="531" y="-152.5" font-family="Helvetica,sans-Serif" font-size="10.00">getUntypedObjects()</text>
<text text-anchor="start" x="518" y="-137.5" font-family="Helvetica,sans-Serif" font-size="10.00">#</text>
<text text-anchor="start" x="531" y="-137.5" font-family="Helvetica,sans-Serif" font-size="10.00">onObjectsAdded()</text>
<text text-anchor="start" x="518" y="-122.5" font-family="Helvetica,sans-Serif" font-size="10.00">#</text>
<text text-anchor="start" x="531" y="-122.5" font-family="Helvetica,sans-Serif" font-size="10.00">onObjectsRemoved()</text>
<polygon fill="#666666" stroke="#666666" points="514,-267.5 514,-267.5 638,-267.5 638,-267.5 514,-267.5"/>
<polygon fill="#666666" stroke="#666666" points="514,-252.5 514,-252.5 529,-252.5 529,-252.5 514,-252.5"/>
<polygon fill="#666666" stroke="#666666" points="529,-252.5 529,-252.5 638,-252.5 638,-252.5 529,-252.5"/>
<polygon fill="none" stroke="#666666" points="514,-116 514,-285 638,-285 638,-116 514,-116"/>
</a>
</g>
</g>
<!-- Node1&#45;&gt;Node5 -->
<g id="edge4_Node000001_Node000005" class="edge">
<title>Node1&#45;&gt;Node5</title>
<g id="a_edge4_Node000001_Node000005"><a xlink:title=" ">
<path fill="none" stroke="#63b8ff" d="M513.58,-427.19C525.38,-384.55 540.45,-330.03 552.84,-285.26"/>
<polygon fill="none" stroke="#63b8ff" points="510.18,-426.35 510.89,-436.92 516.93,-428.22 510.18,-426.35"/>
</a>
</g>
</g>
<!-- Node6 -->
<g id="Node000006" class="node">
<title>Node6</title>
<g id="a_Node000006"><a xlink:href="classsen_1_1_object_mux.html" target="_top" xlink:title="Converts multiple object providers into one. Providers might reside in different threads....">
<polygon fill="white" stroke="transparent" points="849.5,-401 656.5,-401 656.5,0 849.5,0 849.5,-401"/>
<text text-anchor="start" x="715.5" y="-388.5" font-family="Helvetica,sans-Serif" font-size="10.00">sen::ObjectMux</text>
<text text-anchor="start" x="751.5" y="-373.5" font-family="Helvetica,sans-Serif" font-size="10.00"> </text>
<text text-anchor="start" x="661" y="-358.5" font-family="Helvetica,sans-Serif" font-size="10.00">+</text>
<text text-anchor="start" x="674" y="-358.5" font-family="Helvetica,sans-Serif" font-size="10.00">ObjectMux()</text>
<text text-anchor="start" x="661" y="-343.5" font-family="Helvetica,sans-Serif" font-size="10.00">+</text>
<text text-anchor="start" x="674" y="-343.5" font-family="Helvetica,sans-Serif" font-size="10.00">~ObjectMux()</text>
<text text-anchor="start" x="661" y="-328.5" font-family="Helvetica,sans-Serif" font-size="10.00">+</text>
<text text-anchor="start" x="674" y="-328.5" font-family="Helvetica,sans-Serif" font-size="10.00">addListener()</text>
<text text-anchor="start" x="661" y="-313.5" font-family="Helvetica,sans-Serif" font-size="10.00">+</text>
<text text-anchor="start" x="674" y="-313.5" font-family="Helvetica,sans-Serif" font-size="10.00">removeListener()</text>
<text text-anchor="start" x="661" y="-298.5" font-family="Helvetica,sans-Serif" font-size="10.00">+</text>
<text text-anchor="start" x="674" y="-298.5" font-family="Helvetica,sans-Serif" font-size="10.00">hasListener()</text>
<text text-anchor="start" x="661" y="-283.5" font-family="Helvetica,sans-Serif" font-size="10.00">+</text>
<text text-anchor="start" x="674" y="-283.5" font-family="Helvetica,sans-Serif" font-size="10.00">hasListeners()</text>
<text text-anchor="start" x="661" y="-268.5" font-family="Helvetica,sans-Serif" font-size="10.00">+</text>
<text text-anchor="start" x="674" y="-268.5" font-family="Helvetica,sans-Serif" font-size="10.00">addMuxedListener()</text>
<text text-anchor="start" x="661" y="-253.5" font-family="Helvetica,sans-Serif" font-size="10.00">+</text>
<text text-anchor="start" x="674" y="-253.5" font-family="Helvetica,sans-Serif" font-size="10.00">removeMuxedListener()</text>
<text text-anchor="start" x="661" y="-238.5" font-family="Helvetica,sans-Serif" font-size="10.00">+</text>
<text text-anchor="start" x="674" y="-238.5" font-family="Helvetica,sans-Serif" font-size="10.00">hasMuxedListener()</text>
<text text-anchor="start" x="661" y="-223.5" font-family="Helvetica,sans-Serif" font-size="10.00">#</text>
<text text-anchor="start" x="674" y="-223.5" font-family="Helvetica,sans-Serif" font-size="10.00">notifyAddedOnExistingObjects()</text>
<text text-anchor="start" x="661" y="-208.5" font-family="Helvetica,sans-Serif" font-size="10.00">#</text>
<text text-anchor="start" x="674" y="-208.5" font-family="Helvetica,sans-Serif" font-size="10.00">notifyRemovedOnExistingObjects()</text>
<text text-anchor="start" x="661" y="-193.5" font-family="Helvetica,sans-Serif" font-size="10.00">#</text>
<text text-anchor="start" x="674" y="-193.5" font-family="Helvetica,sans-Serif" font-size="10.00">notifyObjectsAdded()</text>
<text text-anchor="start" x="661" y="-178.5" font-family="Helvetica,sans-Serif" font-size="10.00">#</text>
<text text-anchor="start" x="674" y="-178.5" font-family="Helvetica,sans-Serif" font-size="10.00">notifyObjectsRemoved()</text>
<text text-anchor="start" x="661" y="-163.5" font-family="Helvetica,sans-Serif" font-size="10.00">#</text>
<text text-anchor="start" x="674" y="-163.5" font-family="Helvetica,sans-Serif" font-size="10.00">notifyMuxedAddedOnExisting</text>
<text text-anchor="start" x="674" y="-152.5" font-family="Helvetica,sans-Serif" font-size="10.00">Objects()</text>
<text text-anchor="start" x="661" y="-137.5" font-family="Helvetica,sans-Serif" font-size="10.00">#</text>
<text text-anchor="start" x="674" y="-137.5" font-family="Helvetica,sans-Serif" font-size="10.00">notifyMuxedRemovedOnExisting</text>
<text text-anchor="start" x="674" y="-126.5" font-family="Helvetica,sans-Serif" font-size="10.00">Objects()</text>
<text text-anchor="start" x="661" y="-111.5" font-family="Helvetica,sans-Serif" font-size="10.00">#</text>
<text text-anchor="start" x="674" y="-111.5" font-family="Helvetica,sans-Serif" font-size="10.00">notifyExistingObjectsReadded()</text>
<text text-anchor="start" x="661" y="-96.5" font-family="Helvetica,sans-Serif" font-size="10.00">#</text>
<text text-anchor="start" x="674" y="-96.5" font-family="Helvetica,sans-Serif" font-size="10.00">notifyObjectsRefCountReduced()</text>
<text text-anchor="start" x="661" y="-81.5" font-family="Helvetica,sans-Serif" font-size="10.00">#</text>
<text text-anchor="start" x="674" y="-81.5" font-family="Helvetica,sans-Serif" font-size="10.00">muxedListenerAdded()</text>
<text text-anchor="start" x="661" y="-66.5" font-family="Helvetica,sans-Serif" font-size="10.00">#</text>
<text text-anchor="start" x="674" y="-66.5" font-family="Helvetica,sans-Serif" font-size="10.00">muxedListenerRemoved()</text>
<text text-anchor="start" x="661" y="-51.5" font-family="Helvetica,sans-Serif" font-size="10.00">#</text>
<text text-anchor="start" x="674" y="-51.5" font-family="Helvetica,sans-Serif" font-size="10.00">callOnExistingObjectsReadded()</text>
<text text-anchor="start" x="661" y="-36.5" font-family="Helvetica,sans-Serif" font-size="10.00">#</text>
<text text-anchor="start" x="674" y="-36.5" font-family="Helvetica,sans-Serif" font-size="10.00">callOnObjectsRefCountReduced()</text>
<text text-anchor="start" x="661" y="-21.5" font-family="Helvetica,sans-Serif" font-size="10.00">#</text>
<text text-anchor="start" x="674" y="-21.5" font-family="Helvetica,sans-Serif" font-size="10.00">onObjectsAdded()</text>
<text text-anchor="start" x="661" y="-6.5" font-family="Helvetica,sans-Serif" font-size="10.00">#</text>
<text text-anchor="start" x="674" y="-6.5" font-family="Helvetica,sans-Serif" font-size="10.00">onObjectsRemoved()</text>
<polygon fill="#666666" stroke="#666666" points="657,-383.5 657,-383.5 850,-383.5 850,-383.5 657,-383.5"/>
<polygon fill="#666666" stroke="#666666" points="657,-368.5 657,-368.5 850,-368.5 850,-368.5 657,-368.5"/>
<polygon fill="none" stroke="#666666" points="656.5,0 656.5,-401 849.5,-401 849.5,0 656.5,0"/>
</a>
</g>
</g>
<!-- Node1&#45;&gt;Node6 -->
<g id="edge5_Node000001_Node000006" class="edge">
<title>Node1&#45;&gt;Node6</title>
<g id="a_edge5_Node000001_Node000006"><a xlink:title=" ">
<path fill="none" stroke="#63b8ff" d="M576.9,-456.22C601.48,-441.14 627.12,-422.47 647,-401 650.2,-397.55 653.33,-393.98 656.39,-390.32"/>
<polygon fill="none" stroke="#63b8ff" points="575.03,-453.26 568.26,-461.4 578.63,-459.26 575.03,-453.26"/>
</a>
</g>
</g>
<!-- Node7 -->
<g id="Node000007" class="node">
<title>Node7</title>
<g id="a_Node000007"><a xlink:href="classsen_1_1_object_ref.html" target="_top" xlink:title="Object references may or may not hold an object instance. Their value is set by a provider based on s...">
<polygon fill="white" stroke="transparent" points="992,-307.5 868,-307.5 868,-93.5 992,-93.5 992,-307.5"/>
<text text-anchor="start" x="880" y="-295.5" font-family="Helvetica,sans-Serif" font-size="10.00">sen::ObjectRef&lt; T &gt;</text>
<text text-anchor="start" x="928" y="-280.5" font-family="Helvetica,sans-Serif" font-size="10.00"> </text>
<text text-anchor="start" x="872" y="-265.5" font-family="Helvetica,sans-Serif" font-size="10.00">+</text>
<text text-anchor="start" x="885" y="-265.5" font-family="Helvetica,sans-Serif" font-size="10.00">ObjectRef()</text>
<text text-anchor="start" x="872" y="-250.5" font-family="Helvetica,sans-Serif" font-size="10.00">+</text>
<text text-anchor="start" x="885" y="-250.5" font-family="Helvetica,sans-Serif" font-size="10.00">~ObjectRef()</text>
<text text-anchor="start" x="872" y="-235.5" font-family="Helvetica,sans-Serif" font-size="10.00">+</text>
<text text-anchor="start" x="885" y="-235.5" font-family="Helvetica,sans-Serif" font-size="10.00">valid()</text>
<text text-anchor="start" x="872" y="-220.5" font-family="Helvetica,sans-Serif" font-size="10.00">+</text>
<text text-anchor="start" x="885" y="-220.5" font-family="Helvetica,sans-Serif" font-size="10.00">operator bool()</text>
<text text-anchor="start" x="872" y="-205.5" font-family="Helvetica,sans-Serif" font-size="10.00">+</text>
<text text-anchor="start" x="885" y="-205.5" font-family="Helvetica,sans-Serif" font-size="10.00">operator&#45;&gt;()</text>
<text text-anchor="start" x="872" y="-190.5" font-family="Helvetica,sans-Serif" font-size="10.00">+</text>
<text text-anchor="start" x="885" y="-190.5" font-family="Helvetica,sans-Serif" font-size="10.00">operator&#45;&gt;()</text>
<text text-anchor="start" x="872" y="-175.5" font-family="Helvetica,sans-Serif" font-size="10.00">+</text>
<text text-anchor="start" x="885" y="-175.5" font-family="Helvetica,sans-Serif" font-size="10.00">get()</text>
<text text-anchor="start" x="872" y="-160.5" font-family="Helvetica,sans-Serif" font-size="10.00">+</text>
<text text-anchor="start" x="885" y="-160.5" font-family="Helvetica,sans-Serif" font-size="10.00">get()</text>
<text text-anchor="start" x="872" y="-145.5" font-family="Helvetica,sans-Serif" font-size="10.00">+</text>
<text text-anchor="start" x="885" y="-145.5" font-family="Helvetica,sans-Serif" font-size="10.00">onAdded()</text>
<text text-anchor="start" x="872" y="-130.5" font-family="Helvetica,sans-Serif" font-size="10.00">+</text>
<text text-anchor="start" x="885" y="-130.5" font-family="Helvetica,sans-Serif" font-size="10.00">onRemoved()</text>
<text text-anchor="start" x="872" y="-115.5" font-family="Helvetica,sans-Serif" font-size="10.00">#</text>
<text text-anchor="start" x="885" y="-115.5" font-family="Helvetica,sans-Serif" font-size="10.00">onObjectsAdded()</text>
<text text-anchor="start" x="872" y="-100.5" font-family="Helvetica,sans-Serif" font-size="10.00">#</text>
<text text-anchor="start" x="885" y="-100.5" font-family="Helvetica,sans-Serif" font-size="10.00">onObjectsRemoved()</text>
<polygon fill="#666666" stroke="#666666" points="868,-290.5 868,-290.5 992,-290.5 992,-290.5 868,-290.5"/>
<polygon fill="#666666" stroke="#666666" points="868,-275.5 868,-275.5 992,-275.5 992,-275.5 868,-275.5"/>
<polygon fill="none" stroke="#666666" points="868,-93.5 868,-307.5 992,-307.5 992,-93.5 868,-93.5"/>
</a>
</g>
</g>
<!-- Node1&#45;&gt;Node7 -->
<g id="edge6_Node000001_Node000007" class="edge">
<title>Node1&#45;&gt;Node7</title>
<g id="a_edge6_Node000001_Node000007"><a xlink:title=" ">
<path fill="none" stroke="#63b8ff" d="M578.54,-497.19C660.16,-491.93 782.34,-471.61 859,-401 885.57,-376.53 902.2,-341.46 912.61,-307.52"/>
<polygon fill="none" stroke="#63b8ff" points="578.08,-493.71 568.3,-497.79 578.49,-500.7 578.08,-493.71"/>
</a>
</g>
</g>
</g>
</svg>
