<?xml version="1.0" encoding="UTF-8" standalone="no"?>
<!DOCTYPE svg PUBLIC "-//W3C//DTD SVG 1.1//EN"
 "http://www.w3.org/Graphics/SVG/1.1/DTD/svg11.dtd">
<!-- Generated by graphviz version 2.43.0 (0)
 -->
<!-- Title: sen::CustomType Pages: 1 -->
<svg width="956pt" height="732pt"
 viewBox="0.00 0.00 956.00 732.00" xmlns="http://www.w3.org/2000/svg" xmlns:xlink="http://www.w3.org/1999/xlink">
<g id="graph0" class="graph" transform="scale(1 1) rotate(0) translate(4 728)">
<title>sen::CustomType</title>
<!-- Node1 -->
<g id="Node000001" class="node">
<title>Node1</title>
<g id="a_Node000001"><a xlink:title="Represents a user&#45;defined type.">
<polygon fill="#999999" stroke="transparent" points="536,-504 418,-504 418,-425 536,-425 536,-504"/>
<text text-anchor="start" x="435" y="-491.5" font-family="Helvetica,sans-Serif" font-size="10.00">sen::CustomType</text>
<text text-anchor="start" x="475" y="-476.5" font-family="Helvetica,sans-Serif" font-size="10.00"> </text>
<text text-anchor="start" x="422" y="-461.5" font-family="Helvetica,sans-Serif" font-size="10.00">+</text>
<text text-anchor="start" x="435" y="-461.5" font-family="Helvetica,sans-Serif" font-size="10.00">getQualifiedName()</text>
<text text-anchor="start" x="422" y="-446.5" font-family="Helvetica,sans-Serif" font-size="10.00">#</text>
<text text-anchor="start" x="435" y="-446.5" font-family="Helvetica,sans-Serif" font-size="10.00">CustomType()</text>
<text text-anchor="start" x="422" y="-431.5" font-family="Helvetica,sans-Serif" font-size="10.00">#</text>
<text text-anchor="start" x="435" y="-431.5" font-family="Helvetica,sans-Serif" font-size="10.00">~CustomType()</text>
<polygon fill="#666666" stroke="#666666" points="418,-486.5 418,-486.5 536,-486.5 536,-486.5 418,-486.5"/>
<polygon fill="#666666" stroke="#666666" points="418,-471.5 418,-471.5 536,-471.5 536,-471.5 418,-471.5"/>
<polygon fill="none" stroke="#666666" points="418,-425 418,-504 536,-504 536,-425 418,-425"/>
</a>
</g>
</g>
<!-- Node3 -->
<g id="Node000003" class="node">
<title>Node3</title>
<g id="a_Node000003"><a xlink:href="classsen_1_1_alias_type.html" target="_top" xlink:title="Represents an aliased type.">
<polygon fill="white" stroke="transparent" points="118,-344 0,-344 0,-175 118,-175 118,-344"/>
<text text-anchor="start" x="24" y="-331.5" font-family="Helvetica,sans-Serif" font-size="10.00">sen::AliasType</text>
<text text-anchor="start" x="57" y="-316.5" font-family="Helvetica,sans-Serif" font-size="10.00"> </text>
<text text-anchor="start" x="4" y="-301.5" font-family="Helvetica,sans-Serif" font-size="10.00">+</text>
<text text-anchor="start" x="17" y="-301.5" font-family="Helvetica,sans-Serif" font-size="10.00">AliasType()</text>
<text text-anchor="start" x="4" y="-286.5" font-family="Helvetica,sans-Serif" font-size="10.00">+</text>
<text text-anchor="start" x="17" y="-286.5" font-family="Helvetica,sans-Serif" font-size="10.00">~AliasType()</text>
<text text-anchor="start" x="4" y="-271.5" font-family="Helvetica,sans-Serif" font-size="10.00">+</text>
<text text-anchor="start" x="17" y="-271.5" font-family="Helvetica,sans-Serif" font-size="10.00">getAliasedType()</text>
<text text-anchor="start" x="4" y="-256.5" font-family="Helvetica,sans-Serif" font-size="10.00">+</text>
<text text-anchor="start" x="17" y="-256.5" font-family="Helvetica,sans-Serif" font-size="10.00">getQualifiedName()</text>
<text text-anchor="start" x="4" y="-241.5" font-family="Helvetica,sans-Serif" font-size="10.00">+</text>
<text text-anchor="start" x="17" y="-241.5" font-family="Helvetica,sans-Serif" font-size="10.00">getName()</text>
<text text-anchor="start" x="4" y="-226.5" font-family="Helvetica,sans-Serif" font-size="10.00">+</text>
<text text-anchor="start" x="17" y="-226.5" font-family="Helvetica,sans-Serif" font-size="10.00">getDescription()</text>
<text text-anchor="start" x="4" y="-211.5" font-family="Helvetica,sans-Serif" font-size="10.00">+</text>
<text text-anchor="start" x="17" y="-211.5" font-family="Helvetica,sans-Serif" font-size="10.00">equals()</text>
<text text-anchor="start" x="4" y="-196.5" font-family="Helvetica,sans-Serif" font-size="10.00">+</text>
<text text-anchor="start" x="17" y="-196.5" font-family="Helvetica,sans-Serif" font-size="10.00">isBounded()</text>
<text text-anchor="start" x="4" y="-181.5" font-family="Helvetica,sans-Serif" font-size="10.00">+</text>
<text text-anchor="start" x="17" y="-181.5" font-family="Helvetica,sans-Serif" font-size="10.00">make()</text>
<polygon fill="#666666" stroke="#666666" points="0,-326.5 0,-326.5 118,-326.5 118,-326.5 0,-326.5"/>
<polygon fill="#666666" stroke="#666666" points="0,-311.5 0,-311.5 118,-311.5 118,-311.5 0,-311.5"/>
<polygon fill="none" stroke="#666666" points="0,-175 0,-344 118,-344 118,-175 0,-175"/>
</a>
</g>
</g>
<!-- Node1&#45;&gt;Node3 -->
<g id="edge2_Node000001_Node000003" class="edge">
<title>Node1&#45;&gt;Node3</title>
<g id="a_edge2_Node000001_Node000003"><a xlink:title=" ">
<path fill="none" stroke="#63b8ff" d="M407.82,-455.78C318.83,-444.67 170.5,-421.85 127,-389 111.59,-377.36 99.32,-361.21 89.69,-344.27"/>
<polygon fill="none" stroke="#63b8ff" points="407.49,-459.26 417.84,-457.01 408.34,-452.31 407.49,-459.26"/>
</a>
</g>
</g>
<!-- Node4 -->
<g id="Node000004" class="node">
<title>Node4</title>
<g id="a_Node000004"><a xlink:href="classsen_1_1_enum_type.html" target="_top" xlink:title="Represents an enumeration.">
<polygon fill="white" stroke="transparent" points="263.5,-366.5 136.5,-366.5 136.5,-152.5 263.5,-152.5 263.5,-366.5"/>
<text text-anchor="start" x="163.5" y="-354.5" font-family="Helvetica,sans-Serif" font-size="10.00">sen::EnumType</text>
<text text-anchor="start" x="198.5" y="-339.5" font-family="Helvetica,sans-Serif" font-size="10.00"> </text>
<text text-anchor="start" x="141" y="-324.5" font-family="Helvetica,sans-Serif" font-size="10.00">+</text>
<text text-anchor="start" x="154" y="-324.5" font-family="Helvetica,sans-Serif" font-size="10.00">EnumType()</text>
<text text-anchor="start" x="141" y="-309.5" font-family="Helvetica,sans-Serif" font-size="10.00">+</text>
<text text-anchor="start" x="154" y="-309.5" font-family="Helvetica,sans-Serif" font-size="10.00">~EnumType()</text>
<text text-anchor="start" x="141" y="-294.5" font-family="Helvetica,sans-Serif" font-size="10.00">+</text>
<text text-anchor="start" x="154" y="-294.5" font-family="Helvetica,sans-Serif" font-size="10.00">getStorageType()</text>
<text text-anchor="start" x="141" y="-279.5" font-family="Helvetica,sans-Serif" font-size="10.00">+</text>
<text text-anchor="start" x="154" y="-279.5" font-family="Helvetica,sans-Serif" font-size="10.00">getEnumFromKey()</text>
<text text-anchor="start" x="141" y="-264.5" font-family="Helvetica,sans-Serif" font-size="10.00">+</text>
<text text-anchor="start" x="154" y="-264.5" font-family="Helvetica,sans-Serif" font-size="10.00">getEnumFromName()</text>
<text text-anchor="start" x="141" y="-249.5" font-family="Helvetica,sans-Serif" font-size="10.00">+</text>
<text text-anchor="start" x="154" y="-249.5" font-family="Helvetica,sans-Serif" font-size="10.00">getEnums()</text>
<text text-anchor="start" x="141" y="-234.5" font-family="Helvetica,sans-Serif" font-size="10.00">+</text>
<text text-anchor="start" x="154" y="-234.5" font-family="Helvetica,sans-Serif" font-size="10.00">getQualifiedName()</text>
<text text-anchor="start" x="141" y="-219.5" font-family="Helvetica,sans-Serif" font-size="10.00">+</text>
<text text-anchor="start" x="154" y="-219.5" font-family="Helvetica,sans-Serif" font-size="10.00">getName()</text>
<text text-anchor="start" x="141" y="-204.5" font-family="Helvetica,sans-Serif" font-size="10.00">+</text>
<text text-anchor="start" x="154" y="-204.5" font-family="Helvetica,sans-Serif" font-size="10.00">getDescription()</text>
<text text-anchor="start" x="141" y="-189.5" font-family="Helvetica,sans-Serif" font-size="10.00">+</text>
<text text-anchor="start" x="154" y="-189.5" font-family="Helvetica,sans-Serif" font-size="10.00">equals()</text>
<text text-anchor="start" x="141" y="-174.5" font-family="Helvetica,sans-Serif" font-size="10.00">+</text>
<text text-anchor="start" x="154" y="-174.5" font-family="Helvetica,sans-Serif" font-size="10.00">isBounded()</text>
<text text-anchor="start" x="141" y="-159.5" font-family="Helvetica,sans-Serif" font-size="10.00">+</text>
<text text-anchor="start" x="154" y="-159.5" font-family="Helvetica,sans-Serif" font-size="10.00">make()</text>
<polygon fill="#666666" stroke="#666666" points="137,-349.5 137,-349.5 264,-349.5 264,-349.5 137,-349.5"/>
<polygon fill="#666666" stroke="#666666" points="137,-334.5 137,-334.5 264,-334.5 264,-334.5 137,-334.5"/>
<polygon fill="none" stroke="#666666" points="136.5,-152.5 136.5,-366.5 263.5,-366.5 263.5,-152.5 136.5,-152.5"/>
</a>
</g>
</g>
<!-- Node1&#45;&gt;Node4 -->
<g id="edge3_Node000001_Node000004" class="edge">
<title>Node1&#45;&gt;Node4</title>
<g id="a_edge3_Node000001_Node000004"><a xlink:title=" ">
<path fill="none" stroke="#63b8ff" d="M408.06,-451C365.33,-440.4 311.46,-421.53 273,-389 265.26,-382.45 258.17,-374.87 251.72,-366.72"/>
<polygon fill="none" stroke="#63b8ff" points="407.29,-454.42 417.83,-453.33 408.91,-447.61 407.29,-454.42"/>
</a>
</g>
</g>
<!-- Node5 -->
<g id="Node000005" class="node">
<title>Node5</title>
<g id="a_Node000005"><a xlink:href="classsen_1_1_optional_type.html" target="_top" xlink:title="Represents an optional type.">
<polygon fill="white" stroke="transparent" points="400,-344 282,-344 282,-175 400,-175 400,-344"/>
<text text-anchor="start" x="297" y="-331.5" font-family="Helvetica,sans-Serif" font-size="10.00">sen::OptionalType</text>
<text text-anchor="start" x="339" y="-316.5" font-family="Helvetica,sans-Serif" font-size="10.00"> </text>
<text text-anchor="start" x="286" y="-301.5" font-family="Helvetica,sans-Serif" font-size="10.00">+</text>
<text text-anchor="start" x="299" y="-301.5" font-family="Helvetica,sans-Serif" font-size="10.00">OptionalType()</text>
<text text-anchor="start" x="286" y="-286.5" font-family="Helvetica,sans-Serif" font-size="10.00">+</text>
<text text-anchor="start" x="299" y="-286.5" font-family="Helvetica,sans-Serif" font-size="10.00">~OptionalType()</text>
<text text-anchor="start" x="286" y="-271.5" font-family="Helvetica,sans-Serif" font-size="10.00">+</text>
<text text-anchor="start" x="299" y="-271.5" font-family="Helvetica,sans-Serif" font-size="10.00">getType()</text>
<text text-anchor="start" x="286" y="-256.5" font-family="Helvetica,sans-Serif" font-size="10.00">+</text>
<text text-anchor="start" x="299" y="-256.5" font-family="Helvetica,sans-Serif" font-size="10.00">getQualifiedName()</text>
<text text-anchor="start" x="286" y="-241.5" font-family="Helvetica,sans-Serif" font-size="10.00">+</text>
<text text-anchor="start" x="299" y="-241.5" font-family="Helvetica,sans-Serif" font-size="10.00">getName()</text>
<text text-anchor="start" x="286" y="-226.5" font-family="Helvetica,sans-Serif" font-size="10.00">+</text>
<text text-anchor="start" x="299" y="-226.5" font-family="Helvetica,sans-Serif" font-size="10.00">getDescription()</text>
<text text-anchor="start" x="286" y="-211.5" font-family="Helvetica,sans-Serif" font-size="10.00">+</text>
<text text-anchor="start" x="299" y="-211.5" font-family="Helvetica,sans-Serif" font-size="10.00">equals()</text>
<text text-anchor="start" x="286" y="-196.5" font-family="Helvetica,sans-Serif" font-size="10.00">+</text>
<text text-anchor="start" x="299" y="-196.5" font-family="Helvetica,sans-Serif" font-size="10.00">isBounded()</text>
<text text-anchor="start" x="286" y="-181.5" font-family="Helvetica,sans-Serif" font-size="10.00">+</text>
<text text-anchor="start" x="299" y="-181.5" font-family="Helvetica,sans-Serif" font-size="10.00">make()</text>
<polygon fill="#666666" stroke="#666666" points="282,-326.5 282,-326.5 400,-326.5 400,-326.5 282,-326.5"/>
<polygon fill="#666666" stroke="#666666" points="282,-311.5 282,-311.5 400,-311.5 400,-311.5 282,-311.5"/>
<polygon fill="none" stroke="#666666" points="282,-175 282,-344 400,-344 400,-175 282,-175"/>
</a>
</g>
</g>
<!-- Node1&#45;&gt;Node5 -->
<g id="edge4_Node000001_Node000005" class="edge">
<title>Node1&#45;&gt;Node5</title>
<g id="a_edge4_Node000001_Node000005"><a xlink:title=" ">
<path fill="none" stroke="#63b8ff" d="M431.64,-417.4C423.67,-408.32 415.77,-398.62 409,-389 399.19,-375.07 389.83,-359.55 381.36,-344.25"/>
<polygon fill="none" stroke="#63b8ff" points="429.05,-419.76 438.33,-424.87 434.27,-415.08 429.05,-419.76"/>
</a>
</g>
</g>
<!-- Node6 -->
<g id="Node000006" class="node">
<title>Node6</title>
<g id="a_Node000006"><a xlink:href="classsen_1_1_quantity_type.html" target="_top" xlink:title="Represents a quantity.">
<polygon fill="white" stroke="transparent" points="536,-389 418,-389 418,-130 536,-130 536,-389"/>
<text text-anchor="start" x="433" y="-376.5" font-family="Helvetica,sans-Serif" font-size="10.00">sen::QuantityType</text>
<text text-anchor="start" x="475" y="-361.5" font-family="Helvetica,sans-Serif" font-size="10.00"> </text>
<text text-anchor="start" x="422" y="-346.5" font-family="Helvetica,sans-Serif" font-size="10.00">+</text>
<text text-anchor="start" x="435" y="-346.5" font-family="Helvetica,sans-Serif" font-size="10.00">QuantityType()</text>
<text text-anchor="start" x="422" y="-331.5" font-family="Helvetica,sans-Serif" font-size="10.00">+</text>
<text text-anchor="start" x="435" y="-331.5" font-family="Helvetica,sans-Serif" font-size="10.00">~QuantityType()</text>
<text text-anchor="start" x="422" y="-316.5" font-family="Helvetica,sans-Serif" font-size="10.00">+</text>
<text text-anchor="start" x="435" y="-316.5" font-family="Helvetica,sans-Serif" font-size="10.00">getElementType()</text>
<text text-anchor="start" x="422" y="-301.5" font-family="Helvetica,sans-Serif" font-size="10.00">+</text>
<text text-anchor="start" x="435" y="-301.5" font-family="Helvetica,sans-Serif" font-size="10.00">getUnit()</text>
<text text-anchor="start" x="422" y="-286.5" font-family="Helvetica,sans-Serif" font-size="10.00">+</text>
<text text-anchor="start" x="435" y="-286.5" font-family="Helvetica,sans-Serif" font-size="10.00">getUnit()</text>
<text text-anchor="start" x="422" y="-271.5" font-family="Helvetica,sans-Serif" font-size="10.00">+</text>
<text text-anchor="start" x="435" y="-271.5" font-family="Helvetica,sans-Serif" font-size="10.00">getMaxValue()</text>
<text text-anchor="start" x="422" y="-256.5" font-family="Helvetica,sans-Serif" font-size="10.00">+</text>
<text text-anchor="start" x="435" y="-256.5" font-family="Helvetica,sans-Serif" font-size="10.00">getMinValue()</text>
<text text-anchor="start" x="422" y="-241.5" font-family="Helvetica,sans-Serif" font-size="10.00">+</text>
<text text-anchor="start" x="435" y="-241.5" font-family="Helvetica,sans-Serif" font-size="10.00">getQualifiedName()</text>
<text text-anchor="start" x="422" y="-226.5" font-family="Helvetica,sans-Serif" font-size="10.00">+</text>
<text text-anchor="start" x="435" y="-226.5" font-family="Helvetica,sans-Serif" font-size="10.00">getName()</text>
<text text-anchor="start" x="422" y="-211.5" font-family="Helvetica,sans-Serif" font-size="10.00">+</text>
<text text-anchor="start" x="435" y="-211.5" font-family="Helvetica,sans-Serif" font-size="10.00">getDescription()</text>
<text text-anchor="start" x="422" y="-196.5" font-family="Helvetica,sans-Serif" font-size="10.00">+</text>
<text text-anchor="start" x="435" y="-196.5" font-family="Helvetica,sans-Serif" font-size="10.00">equals()</text>
<text text-anchor="start" x="422" y="-181.5" font-family="Helvetica,sans-Serif" font-size="10.00">+</text>
<text text-anchor="start" x="435" y="-181.5" font-family="Helvetica,sans-Serif" font-size="10.00">isBounded()</text>
<text text-anchor="start" x="422" y="-166.5" font-family="Helvetica,sans-Serif" font-size="10.00">+</text>
<text text-anchor="start" x="435" y="-166.5" font-family="Helvetica,sans-Serif" font-size="10.00">make()</text>
<text text-anchor="start" x="422" y="-151.5" font-family="Helvetica,sans-Serif" font-size="10.00">#</text>
<text text-anchor="start" x="435" y="-151.5" font-family="Helvetica,sans-Serif" font-size="10.00">getSpec()</text>
<text text-anchor="start" x="422" y="-136.5" font-family="Helvetica,sans-Serif" font-size="10.00">#</text>
<text text-anchor="start" x="435" y="-136.5" font-family="Helvetica,sans-Serif" font-size="10.00">QuantityType()</text>
<polygon fill="#666666" stroke="#666666" points="418,-371.5 418,-371.5 536,-371.5 536,-371.5 418,-371.5"/>
<polygon fill="#666666" stroke="#666666" points="418,-356.5 418,-356.5 536,-356.5 536,-356.5 418,-356.5"/>
<polygon fill="none" stroke="#666666" points="418,-130 418,-389 536,-389 536,-130 418,-130"/>
</a>
</g>
</g>
<!-- Node1&#45;&gt;Node6 -->
<g id="edge5_Node000001_Node000006" class="edge">
<title>Node1&#45;&gt;Node6</title>
<g id="a_edge5_Node000001_Node000006"><a xlink:title=" ">
<path fill="none" stroke="#63b8ff" d="M477,-414.66C477,-406.63 477,-397.99 477,-389.05"/>
<polygon fill="none" stroke="#63b8ff" points="473.5,-414.84 477,-424.84 480.5,-414.84 473.5,-414.84"/>
</a>
</g>
</g>
<!-- Node9 -->
<g id="Node000009" class="node">
<title>Node9</title>
<g id="a_Node000009"><a xlink:href="classsen_1_1_sequence_type.html" target="_top" xlink:title="Represents a sequence type.">
<polygon fill="white" stroke="transparent" points="672,-359 554,-359 554,-160 672,-160 672,-359"/>
<text text-anchor="start" x="566" y="-346.5" font-family="Helvetica,sans-Serif" font-size="10.00">sen::SequenceType</text>
<text text-anchor="start" x="611" y="-331.5" font-family="Helvetica,sans-Serif" font-size="10.00"> </text>
<text text-anchor="start" x="558" y="-316.5" font-family="Helvetica,sans-Serif" font-size="10.00">+</text>
<text text-anchor="start" x="571" y="-316.5" font-family="Helvetica,sans-Serif" font-size="10.00">SequenceType()</text>
<text text-anchor="start" x="558" y="-301.5" font-family="Helvetica,sans-Serif" font-size="10.00">+</text>
<text text-anchor="start" x="571" y="-301.5" font-family="Helvetica,sans-Serif" font-size="10.00">~SequenceType()</text>
<text text-anchor="start" x="558" y="-286.5" font-family="Helvetica,sans-Serif" font-size="10.00">+</text>
<text text-anchor="start" x="571" y="-286.5" font-family="Helvetica,sans-Serif" font-size="10.00">getElementType()</text>
<text text-anchor="start" x="558" y="-271.5" font-family="Helvetica,sans-Serif" font-size="10.00">+</text>
<text text-anchor="start" x="571" y="-271.5" font-family="Helvetica,sans-Serif" font-size="10.00">getMaxSize()</text>
<text text-anchor="start" x="558" y="-256.5" font-family="Helvetica,sans-Serif" font-size="10.00">+</text>
<text text-anchor="start" x="571" y="-256.5" font-family="Helvetica,sans-Serif" font-size="10.00">hasFixedSize()</text>
<text text-anchor="start" x="558" y="-241.5" font-family="Helvetica,sans-Serif" font-size="10.00">+</text>
<text text-anchor="start" x="571" y="-241.5" font-family="Helvetica,sans-Serif" font-size="10.00">getQualifiedName()</text>
<text text-anchor="start" x="558" y="-226.5" font-family="Helvetica,sans-Serif" font-size="10.00">+</text>
<text text-anchor="start" x="571" y="-226.5" font-family="Helvetica,sans-Serif" font-size="10.00">getName()</text>
<text text-anchor="start" x="558" y="-211.5" font-family="Helvetica,sans-Serif" font-size="10.00">+</text>
<text text-anchor="start" x="571" y="-211.5" font-family="Helvetica,sans-Serif" font-size="10.00">getDescription()</text>
<text text-anchor="start" x="558" y="-196.5" font-family="Helvetica,sans-Serif" font-size="10.00">+</text>
<text text-anchor="start" x="571" y="-196.5" font-family="Helvetica,sans-Serif" font-size="10.00">equals()</text>
<text text-anchor="start" x="558" y="-181.5" font-family="Helvetica,sans-Serif" font-size="10.00">+</text>
<text text-anchor="start" x="571" y="-181.5" font-family="Helvetica,sans-Serif" font-size="10.00">isBounded()</text>
<text text-anchor="start" x="558" y="-166.5" font-family="Helvetica,sans-Serif" font-size="10.00">+</text>
<text text-anchor="start" x="571" y="-166.5" font-family="Helvetica,sans-Serif" font-size="10.00">make()</text>
<polygon fill="#666666" stroke="#666666" points="554,-341.5 554,-341.5 672,-341.5 672,-341.5 554,-341.5"/>
<polygon fill="#666666" stroke="#666666" points="554,-326.5 554,-326.5 672,-326.5 672,-326.5 554,-326.5"/>
<polygon fill="none" stroke="#666666" points="554,-160 554,-359 672,-359 672,-160 554,-160"/>
</a>
</g>
</g>
<!-- Node1&#45;&gt;Node9 -->
<g id="edge8_Node000001_Node000009" class="edge">
<title>Node1&#45;&gt;Node9</title>
<g id="a_edge8_Node000001_Node000009"><a xlink:title=" ">
<path fill="none" stroke="#63b8ff" d="M522.36,-417.4C530.33,-408.32 538.23,-398.62 545,-389 551.61,-379.61 558.02,-369.5 564.09,-359.22"/>
<polygon fill="none" stroke="#63b8ff" points="519.73,-415.08 515.67,-424.87 524.95,-419.76 519.73,-415.08"/>
</a>
</g>
</g>
<!-- Node10 -->
<g id="Node000010" class="node">
<title>Node10</title>
<g id="a_Node000010"><a xlink:href="classsen_1_1_struct_type.html" target="_top" xlink:title="Represents a structure type.">
<polygon fill="white" stroke="transparent" points="812,-366.5 690,-366.5 690,-152.5 812,-152.5 812,-366.5"/>
<text text-anchor="start" x="713.5" y="-354.5" font-family="Helvetica,sans-Serif" font-size="10.00">sen::StructType</text>
<text text-anchor="start" x="749" y="-339.5" font-family="Helvetica,sans-Serif" font-size="10.00"> </text>
<text text-anchor="start" x="694" y="-324.5" font-family="Helvetica,sans-Serif" font-size="10.00">+</text>
<text text-anchor="start" x="707" y="-324.5" font-family="Helvetica,sans-Serif" font-size="10.00">StructType()</text>
<text text-anchor="start" x="694" y="-309.5" font-family="Helvetica,sans-Serif" font-size="10.00">+</text>
<text text-anchor="start" x="707" y="-309.5" font-family="Helvetica,sans-Serif" font-size="10.00">~StructType()</text>
<text text-anchor="start" x="694" y="-294.5" font-family="Helvetica,sans-Serif" font-size="10.00">+</text>
<text text-anchor="start" x="707" y="-294.5" font-family="Helvetica,sans-Serif" font-size="10.00">getFieldFromName()</text>
<text text-anchor="start" x="694" y="-279.5" font-family="Helvetica,sans-Serif" font-size="10.00">+</text>
<text text-anchor="start" x="707" y="-279.5" font-family="Helvetica,sans-Serif" font-size="10.00">getFields()</text>
<text text-anchor="start" x="694" y="-264.5" font-family="Helvetica,sans-Serif" font-size="10.00">+</text>
<text text-anchor="start" x="707" y="-264.5" font-family="Helvetica,sans-Serif" font-size="10.00">getAllFields()</text>
<text text-anchor="start" x="694" y="-249.5" font-family="Helvetica,sans-Serif" font-size="10.00">+</text>
<text text-anchor="start" x="707" y="-249.5" font-family="Helvetica,sans-Serif" font-size="10.00">getParent()</text>
<text text-anchor="start" x="694" y="-234.5" font-family="Helvetica,sans-Serif" font-size="10.00">+</text>
<text text-anchor="start" x="707" y="-234.5" font-family="Helvetica,sans-Serif" font-size="10.00">getQualifiedName()</text>
<text text-anchor="start" x="694" y="-219.5" font-family="Helvetica,sans-Serif" font-size="10.00">+</text>
<text text-anchor="start" x="707" y="-219.5" font-family="Helvetica,sans-Serif" font-size="10.00">getName()</text>
<text text-anchor="start" x="694" y="-204.5" font-family="Helvetica,sans-Serif" font-size="10.00">+</text>
<text text-anchor="start" x="707" y="-204.5" font-family="Helvetica,sans-Serif" font-size="10.00">getDescription()</text>
<text text-anchor="start" x="694" y="-189.5" font-family="Helvetica,sans-Serif" font-size="10.00">+</text>
<text text-anchor="start" x="707" y="-189.5" font-family="Helvetica,sans-Serif" font-size="10.00">equals()</text>
<text text-anchor="start" x="694" y="-174.5" font-family="Helvetica,sans-Serif" font-size="10.00">+</text>
<text text-anchor="start" x="707" y="-174.5" font-family="Helvetica,sans-Serif" font-size="10.00">isBounded()</text>
<text text-anchor="start" x="694" y="-159.5" font-family="Helvetica,sans-Serif" font-size="10.00">+</text>
<text text-anchor="start" x="707" y="-159.5" font-family="Helvetica,sans-Serif" font-size="10.00">make()</text>
<polygon fill="#666666" stroke="#666666" points="690,-349.5 690,-349.5 812,-349.5 812,-349.5 690,-349.5"/>
<polygon fill="#666666" stroke="#666666" points="690,-334.5 690,-334.5 812,-334.5 812,-334.5 690,-334.5"/>
<polygon fill="none" stroke="#666666" points="690,-152.5 690,-366.5 812,-366.5 812,-152.5 690,-152.5"/>
</a>
</g>
</g>
<!-- Node1&#45;&gt;Node10 -->
<g id="edge9_Node000001_Node000010" class="edge">
<title>Node1&#45;&gt;Node10</title>
<g id="a_edge9_Node000001_Node000010"><a xlink:title=" ">
<path fill="none" stroke="#63b8ff" d="M546.14,-451.24C588.95,-440.73 642.84,-421.87 681,-389 688.6,-382.45 695.53,-374.86 701.8,-366.71"/>
<polygon fill="none" stroke="#63b8ff" points="545.28,-447.84 536.35,-453.55 546.89,-454.66 545.28,-447.84"/>
</a>
</g>
</g>
<!-- Node11 -->
<g id="Node000011" class="node">
<title>Node11</title>
<g id="a_Node000011"><a xlink:href="classsen_1_1_variant_type.html" target="_top" xlink:title="Represents a variant type.">
<polygon fill="white" stroke="transparent" points="948,-351.5 830,-351.5 830,-167.5 948,-167.5 948,-351.5"/>
<text text-anchor="start" x="848.5" y="-339.5" font-family="Helvetica,sans-Serif" font-size="10.00">sen::VariantType</text>
<text text-anchor="start" x="887" y="-324.5" font-family="Helvetica,sans-Serif" font-size="10.00"> </text>
<text text-anchor="start" x="834" y="-309.5" font-family="Helvetica,sans-Serif" font-size="10.00">+</text>
<text text-anchor="start" x="847" y="-309.5" font-family="Helvetica,sans-Serif" font-size="10.00">VariantType()</text>
<text text-anchor="start" x="834" y="-294.5" font-family="Helvetica,sans-Serif" font-size="10.00">+</text>
<text text-anchor="start" x="847" y="-294.5" font-family="Helvetica,sans-Serif" font-size="10.00">~VariantType()</text>
<text text-anchor="start" x="834" y="-279.5" font-family="Helvetica,sans-Serif" font-size="10.00">+</text>
<text text-anchor="start" x="847" y="-279.5" font-family="Helvetica,sans-Serif" font-size="10.00">getFieldFromKey()</text>
<text text-anchor="start" x="834" y="-264.5" font-family="Helvetica,sans-Serif" font-size="10.00">+</text>
<text text-anchor="start" x="847" y="-264.5" font-family="Helvetica,sans-Serif" font-size="10.00">getFields()</text>
<text text-anchor="start" x="834" y="-249.5" font-family="Helvetica,sans-Serif" font-size="10.00">+</text>
<text text-anchor="start" x="847" y="-249.5" font-family="Helvetica,sans-Serif" font-size="10.00">getQualifiedName()</text>
<text text-anchor="start" x="834" y="-234.5" font-family="Helvetica,sans-Serif" font-size="10.00">+</text>
<text text-anchor="start" x="847" y="-234.5" font-family="Helvetica,sans-Serif" font-size="10.00">getName()</text>
<text text-anchor="start" x="834" y="-219.5" font-family="Helvetica,sans-Serif" font-size="10.00">+</text>
<text text-anchor="start" x="847" y="-219.5" font-family="Helvetica,sans-Serif" font-size="10.00">getDescription()</text>
<text text-anchor="start" x="834" y="-204.5" font-family="Helvetica,sans-Serif" font-size="10.00">+</text>
<text text-anchor="start" x="847" y="-204.5" font-family="Helvetica,sans-Serif" font-size="10.00">equals()</text>
<text text-anchor="start" x="834" y="-189.5" font-family="Helvetica,sans-Serif" font-size="10.00">+</text>
<text text-anchor="start" x="847" y="-189.5" font-family="Helvetica,sans-Serif" font-size="10.00">isBounded()</text>
<text text-anchor="start" x="834" y="-174.5" font-family="Helvetica,sans-Serif" font-size="10.00">+</text>
<text text-anchor="start" x="847" y="-174.5" font-family="Helvetica,sans-Serif" font-size="10.00">make()</text>
<polygon fill="#666666" stroke="#666666" points="830,-334.5 830,-334.5 948,-334.5 948,-334.5 830,-334.5"/>
<polygon fill="#666666" stroke="#666666" points="830,-319.5 830,-319.5 948,-319.5 948,-319.5 830,-319.5"/>
<polygon fill="none" stroke="#666666" points="830,-167.5 830,-351.5 948,-351.5 948,-167.5 830,-167.5"/>
</a>
</g>
</g>
<!-- Node1&#45;&gt;Node11 -->
<g id="edge10_Node000001_Node000011" class="edge">
<title>Node1&#45;&gt;Node11</title>
<g id="a_edge10_Node000001_Node000011"><a xlink:title=" ">
<path fill="none" stroke="#63b8ff" d="M546.35,-455.47C633.97,-444.15 778.49,-421.23 821,-389 834.07,-379.09 844.89,-365.93 853.76,-351.8"/>
<polygon fill="none" stroke="#63b8ff" points="545.69,-452.02 536.22,-456.76 546.58,-458.96 545.69,-452.02"/>
</a>
</g>
</g>
<!-- Node2 -->
<g id="Node000002" class="node">
<title>Node2</title>
<g id="a_Node000002"><a xlink:href="classsen_1_1_type.html" target="_top" xlink:title="Represents a type that can be used to define variables and arguments for methods or functions....">
<polygon fill="white" stroke="transparent" points="552.5,-724 401.5,-724 401.5,-540 552.5,-540 552.5,-724"/>
<text text-anchor="start" x="454.5" y="-712" font-family="Helvetica,sans-Serif" font-size="10.00">sen::Type</text>
<text text-anchor="start" x="475.5" y="-697" font-family="Helvetica,sans-Serif" font-size="10.00"> </text>
<text text-anchor="start" x="406" y="-682" font-family="Helvetica,sans-Serif" font-size="10.00">+</text>
<text text-anchor="start" x="419" y="-682" font-family="Helvetica,sans-Serif" font-size="10.00">~Type()</text>
<text text-anchor="start" x="406" y="-667" font-family="Helvetica,sans-Serif" font-size="10.00">+</text>
<text text-anchor="start" x="419" y="-667" font-family="Helvetica,sans-Serif" font-size="10.00">getName()</text>
<text text-anchor="start" x="406" y="-652" font-family="Helvetica,sans-Serif" font-size="10.00">+</text>
<text text-anchor="start" x="419" y="-652" font-family="Helvetica,sans-Serif" font-size="10.00">getDescription()</text>
<text text-anchor="start" x="406" y="-637" font-family="Helvetica,sans-Serif" font-size="10.00">+</text>
<text text-anchor="start" x="419" y="-637" font-family="Helvetica,sans-Serif" font-size="10.00">accept()</text>
<text text-anchor="start" x="406" y="-622" font-family="Helvetica,sans-Serif" font-size="10.00">+</text>
<text text-anchor="start" x="419" y="-622" font-family="Helvetica,sans-Serif" font-size="10.00">isBounded()</text>
<text text-anchor="start" x="406" y="-607" font-family="Helvetica,sans-Serif" font-size="10.00">+</text>
<text text-anchor="start" x="419" y="-607" font-family="Helvetica,sans-Serif" font-size="10.00">getHash()</text>
<text text-anchor="start" x="406" y="-592" font-family="Helvetica,sans-Serif" font-size="10.00">+</text>
<text text-anchor="start" x="419" y="-592" font-family="Helvetica,sans-Serif" font-size="10.00">equals()</text>
<text text-anchor="start" x="406" y="-577" font-family="Helvetica,sans-Serif" font-size="10.00">+</text>
<text text-anchor="start" x="419" y="-577" font-family="Helvetica,sans-Serif" font-size="10.00">validateLowerCaseName()</text>
<text text-anchor="start" x="406" y="-562" font-family="Helvetica,sans-Serif" font-size="10.00">+</text>
<text text-anchor="start" x="419" y="-562" font-family="Helvetica,sans-Serif" font-size="10.00">validateTypeName()</text>
<text text-anchor="start" x="406" y="-547" font-family="Helvetica,sans-Serif" font-size="10.00">#</text>
<text text-anchor="start" x="419" y="-547" font-family="Helvetica,sans-Serif" font-size="10.00">Type()</text>
<polygon fill="#666666" stroke="#666666" points="402,-707 402,-707 553,-707 553,-707 402,-707"/>
<polygon fill="#666666" stroke="#666666" points="402,-692 402,-692 553,-692 553,-692 402,-692"/>
<polygon fill="none" stroke="#666666" points="401.5,-540 401.5,-724 552.5,-724 552.5,-540 401.5,-540"/>
</a>
</g>
</g>
<!-- Node2&#45;&gt;Node1 -->
<g id="edge1_Node000001_Node000002" class="edge">
<title>Node2&#45;&gt;Node1</title>
<g id="a_edge1_Node000001_Node000002"><a xlink:title=" ">
<path fill="none" stroke="#63b8ff" d="M477,-529.44C477,-520.59 477,-512.04 477,-504.23"/>
<polygon fill="none" stroke="#63b8ff" points="473.5,-529.54 477,-539.54 480.5,-529.54 473.5,-529.54"/>
</a>
</g>
</g>
<!-- Node7 -->
<g id="Node000007" class="node">
<title>Node7</title>
<g id="a_Node000007"><a xlink:href="classsen_1_1_duration_type.html" target="_top" xlink:title="Represents a sen::Duration (a time duration).">
<polygon fill="white" stroke="transparent" points="465,-94 363,-94 363,0 465,0 465,-94"/>
<text text-anchor="start" x="370" y="-82" font-family="Helvetica,sans-Serif" font-size="10.00">sen::DurationType</text>
<text text-anchor="start" x="412" y="-67" font-family="Helvetica,sans-Serif" font-size="10.00"> </text>
<text text-anchor="start" x="367" y="-52" font-family="Helvetica,sans-Serif" font-size="10.00">+</text>
<text text-anchor="start" x="380" y="-52" font-family="Helvetica,sans-Serif" font-size="10.00">DurationType()</text>
<text text-anchor="start" x="367" y="-37" font-family="Helvetica,sans-Serif" font-size="10.00">+</text>
<text text-anchor="start" x="380" y="-37" font-family="Helvetica,sans-Serif" font-size="10.00">~DurationType()</text>
<text text-anchor="start" x="367" y="-22" font-family="Helvetica,sans-Serif" font-size="10.00">+</text>
<text text-anchor="start" x="380" y="-22" font-family="Helvetica,sans-Serif" font-size="10.00">equals()</text>
<text text-anchor="start" x="367" y="-7" font-family="Helvetica,sans-Serif" font-size="10.00">+</text>
<text text-anchor="start" x="380" y="-7" font-family="Helvetica,sans-Serif" font-size="10.00">get()</text>
<polygon fill="#666666" stroke="#666666" points="363,-77 363,-77 465,-77 465,-77 363,-77"/>
<polygon fill="#666666" stroke="#666666" points="363,-62 363,-62 465,-62 465,-62 363,-62"/>
<polygon fill="none" stroke="#666666" points="363,0 363,-94 465,-94 465,0 363,0"/>
</a>
</g>
</g>
<!-- Node6&#45;&gt;Node7 -->
<g id="edge6_Node000006_Node000007" class="edge">
<title>Node6&#45;&gt;Node7</title>
<g id="a_edge6_Node000006_Node000007"><a xlink:title=" ">
<path fill="none" stroke="#63b8ff" d="M435.64,-120.3C432.89,-111.11 430.25,-102.3 427.82,-94.19"/>
<polygon fill="none" stroke="#63b8ff" points="432.32,-121.41 438.54,-129.99 439.02,-119.4 432.32,-121.41"/>
</a>
</g>
</g>
<!-- Node8 -->
<g id="Node000008" class="node">
<title>Node8</title>
<g id="a_Node000008"><a xlink:href="classsen_1_1_timestamp_type.html" target="_top" xlink:title="Represents a sen::TimeStamp (a point in time).">
<polygon fill="white" stroke="transparent" points="598.5,-94 483.5,-94 483.5,0 598.5,0 598.5,-94"/>
<text text-anchor="start" x="490.5" y="-82" font-family="Helvetica,sans-Serif" font-size="10.00">sen::TimestampType</text>
<text text-anchor="start" x="539.5" y="-67" font-family="Helvetica,sans-Serif" font-size="10.00"> </text>
<text text-anchor="start" x="488" y="-52" font-family="Helvetica,sans-Serif" font-size="10.00">+</text>
<text text-anchor="start" x="501" y="-52" font-family="Helvetica,sans-Serif" font-size="10.00">TimestampType()</text>
<text text-anchor="start" x="488" y="-37" font-family="Helvetica,sans-Serif" font-size="10.00">+</text>
<text text-anchor="start" x="501" y="-37" font-family="Helvetica,sans-Serif" font-size="10.00">~TimestampType()</text>
<text text-anchor="start" x="488" y="-22" font-family="Helvetica,sans-Serif" font-size="10.00">+</text>
<text text-anchor="start" x="501" y="-22" font-family="Helvetica,sans-Serif" font-size="10.00">equals()</text>
<text text-anchor="start" x="488" y="-7" font-family="Helvetica,sans-Serif" font-size="10.00">+</text>
<text text-anchor="start" x="501" y="-7" font-family="Helvetica,sans-Serif" font-size="10.00">get()</text>
<polygon fill="#666666" stroke="#666666" points="484,-77 484,-77 599,-77 599,-77 484,-77"/>
<polygon fill="#666666" stroke="#666666" points="484,-62 484,-62 599,-62 599,-62 484,-62"/>
<polygon fill="none" stroke="#666666" points="483.5,0 483.5,-94 598.5,-94 598.5,0 483.5,0"/>
</a>
</g>
</g>
<!-- Node6&#45;&gt;Node8 -->
<g id="edge7_Node000006_Node000008" class="edge">
<title>Node6&#45;&gt;Node8</title>
<g id="a_edge7_Node000006_Node000008"><a xlink:title=" ">
<path fill="none" stroke="#63b8ff" d="M519.02,-120.3C521.81,-111.11 524.49,-102.3 526.96,-94.19"/>
<polygon fill="none" stroke="#63b8ff" points="515.63,-119.4 516.07,-129.99 522.33,-121.44 515.63,-119.4"/>
</a>
</g>
</g>
</g>
</svg>
