<?xml version="1.0" encoding="UTF-8" standalone="no"?>
<!DOCTYPE svg PUBLIC "-//W3C//DTD SVG 1.1//EN"
 "http://www.w3.org/Graphics/SVG/1.1/DTD/svg11.dtd">
<!-- Generated by graphviz version 2.43.0 (0)
 -->
<!-- Title: sen::kernel::ConfigGetter Pages: 1 -->
<svg width="840pt" height="322pt"
 viewBox="0.00 0.00 839.50 322.00" xmlns="http://www.w3.org/2000/svg" xmlns:xlink="http://www.w3.org/1999/xlink">
<g id="graph0" class="graph" transform="scale(1 1) rotate(0) translate(4 318)">
<title>sen::kernel::ConfigGetter</title>
<!-- Node1 -->
<g id="Node000001" class="node">
<title>Node1</title>
<g id="a_Node000001"><a xlink:title="Allows for fetching configuration parameters.">
<polygon fill="#999999" stroke="transparent" points="461,-314 330,-314 330,-250 461,-250 461,-314"/>
<text text-anchor="start" x="335.5" y="-302" font-family="Helvetica,sans-Serif" font-size="10.00">sen::kernel::ConfigGetter</text>
<text text-anchor="start" x="394" y="-287" font-family="Helvetica,sans-Serif" font-size="10.00"> </text>
<text text-anchor="start" x="344.5" y="-272" font-family="Helvetica,sans-Serif" font-size="10.00">+</text>
<text text-anchor="start" x="367.5" y="-272" font-family="Helvetica,sans-Serif" font-size="10.00">ConfigGetter()</text>
<text text-anchor="start" x="344.5" y="-257" font-family="Helvetica,sans-Serif" font-size="10.00">+</text>
<text text-anchor="start" x="367.5" y="-257" font-family="Helvetica,sans-Serif" font-size="10.00">getConfig()</text>
<polygon fill="#666666" stroke="#666666" points="330.5,-297 330.5,-297 461.5,-297 461.5,-297 330.5,-297"/>
<polygon fill="#666666" stroke="#666666" points="330.5,-282 330.5,-282 461.5,-282 461.5,-282 330.5,-282"/>
<polygon fill="none" stroke="#666666" points="330,-250 330,-314 461,-314 461,-250 330,-250"/>
</a>
</g>
</g>
<!-- Node2 -->
<g id="Node000002" class="node">
<title>Node2</title>
<g id="a_Node000002"><a xlink:href="classsen_1_1kernel_1_1_init_api.html" target="_top" xlink:title="What can be done when initializing a component.">
<polygon fill="white" stroke="transparent" points="101,-139 0,-139 0,-75 101,-75 101,-139"/>
<text text-anchor="start" x="5.5" y="-127" font-family="Helvetica,sans-Serif" font-size="10.00">sen::kernel::InitApi</text>
<text text-anchor="start" x="49" y="-112" font-family="Helvetica,sans-Serif" font-size="10.00"> </text>
<text text-anchor="start" x="12.5" y="-97" font-family="Helvetica,sans-Serif" font-size="10.00">+</text>
<text text-anchor="start" x="33.5" y="-97" font-family="Helvetica,sans-Serif" font-size="10.00">InitApi()</text>
<text text-anchor="start" x="12.5" y="-82" font-family="Helvetica,sans-Serif" font-size="10.00">+</text>
<text text-anchor="start" x="33.5" y="-82" font-family="Helvetica,sans-Serif" font-size="10.00">~InitApi()</text>
<polygon fill="#666666" stroke="#666666" points="0.5,-122 0.5,-122 101.5,-122 101.5,-122 0.5,-122"/>
<polygon fill="#666666" stroke="#666666" points="0.5,-107 0.5,-107 101.5,-107 101.5,-107 0.5,-107"/>
<polygon fill="none" stroke="#666666" points="0,-75 0,-139 101,-139 101,-75 0,-75"/>
</a>
</g>
</g>
<!-- Node1&#45;&gt;Node2 -->
<g id="edge1_Node000001_Node000002" class="edge">
<title>Node1&#45;&gt;Node2</title>
<g id="a_edge1_Node000001_Node000002"><a xlink:title=" ">
<path fill="none" stroke="#63b8ff" d="M319.7,-279.7C257.59,-275.05 170.33,-259.91 109.5,-214 84.79,-195.35 69,-163.17 60.04,-139.14"/>
<polygon fill="none" stroke="#63b8ff" points="319.62,-283.2 329.83,-280.38 320.09,-276.22 319.62,-283.2"/>
</a>
</g>
</g>
<!-- Node3 -->
<g id="Node000003" class="node">
<title>Node3</title>
<g id="a_Node000003"><a xlink:href="classsen_1_1kernel_1_1_load_api.html" target="_top" xlink:title="What can be done when loading a component.">
<polygon fill="white" stroke="transparent" points="228,-139 119,-139 119,-75 228,-75 228,-139"/>
<text text-anchor="start" x="124.5" y="-127" font-family="Helvetica,sans-Serif" font-size="10.00">sen::kernel::LoadApi</text>
<text text-anchor="start" x="172" y="-112" font-family="Helvetica,sans-Serif" font-size="10.00"> </text>
<text text-anchor="start" x="131.5" y="-97" font-family="Helvetica,sans-Serif" font-size="10.00">+</text>
<text text-anchor="start" x="152.5" y="-97" font-family="Helvetica,sans-Serif" font-size="10.00">LoadApi()</text>
<text text-anchor="start" x="131.5" y="-82" font-family="Helvetica,sans-Serif" font-size="10.00">+</text>
<text text-anchor="start" x="152.5" y="-82" font-family="Helvetica,sans-Serif" font-size="10.00">~LoadApi()</text>
<polygon fill="#666666" stroke="#666666" points="119.5,-122 119.5,-122 228.5,-122 228.5,-122 119.5,-122"/>
<polygon fill="#666666" stroke="#666666" points="119.5,-107 119.5,-107 228.5,-107 228.5,-107 119.5,-107"/>
<polygon fill="none" stroke="#666666" points="119,-75 119,-139 228,-139 228,-75 119,-75"/>
</a>
</g>
</g>
<!-- Node1&#45;&gt;Node3 -->
<g id="edge2_Node000001_Node000003" class="edge">
<title>Node1&#45;&gt;Node3</title>
<g id="a_edge2_Node000001_Node000003"><a xlink:title=" ">
<path fill="none" stroke="#63b8ff" d="M320.38,-260.44C291.83,-249.93 260.44,-234.86 236.5,-214 213.1,-193.61 195.99,-162.31 185.56,-139"/>
<polygon fill="none" stroke="#63b8ff" points="319.34,-263.78 329.94,-263.82 321.68,-257.18 319.34,-263.78"/>
</a>
</g>
</g>
<!-- Node4 -->
<g id="Node000004" class="node">
<title>Node4</title>
<g id="a_Node000004"><a xlink:href="classsen_1_1kernel_1_1_preload_api.html" target="_top" xlink:title="What can be done when preloading a component.">
<polygon fill="white" stroke="transparent" points="385,-154 246,-154 246,-60 385,-60 385,-154"/>
<text text-anchor="start" x="260" y="-142" font-family="Helvetica,sans-Serif" font-size="10.00">sen::kernel::PreloadApi</text>
<text text-anchor="start" x="314" y="-127" font-family="Helvetica,sans-Serif" font-size="10.00"> </text>
<text text-anchor="start" x="250.5" y="-112" font-family="Helvetica,sans-Serif" font-size="10.00">+</text>
<text text-anchor="start" x="263.5" y="-112" font-family="Helvetica,sans-Serif" font-size="10.00">PreloadApi()</text>
<text text-anchor="start" x="250.5" y="-97" font-family="Helvetica,sans-Serif" font-size="10.00">+</text>
<text text-anchor="start" x="263.5" y="-97" font-family="Helvetica,sans-Serif" font-size="10.00">~PreloadApi()</text>
<text text-anchor="start" x="250.5" y="-82" font-family="Helvetica,sans-Serif" font-size="10.00">+</text>
<text text-anchor="start" x="263.5" y="-82" font-family="Helvetica,sans-Serif" font-size="10.00">installTransportFactory()</text>
<text text-anchor="start" x="250.5" y="-67" font-family="Helvetica,sans-Serif" font-size="10.00">+</text>
<text text-anchor="start" x="263.5" y="-67" font-family="Helvetica,sans-Serif" font-size="10.00">installTracerFactory()</text>
<polygon fill="#666666" stroke="#666666" points="246.5,-137 246.5,-137 385.5,-137 385.5,-137 246.5,-137"/>
<polygon fill="#666666" stroke="#666666" points="246.5,-122 246.5,-122 385.5,-122 385.5,-122 246.5,-122"/>
<polygon fill="none" stroke="#666666" points="246,-60 246,-154 385,-154 385,-60 246,-60"/>
</a>
</g>
</g>
<!-- Node1&#45;&gt;Node4 -->
<g id="edge3_Node000001_Node000004" class="edge">
<title>Node1&#45;&gt;Node4</title>
<g id="a_edge3_Node000001_Node000004"><a xlink:title=" ">
<path fill="none" stroke="#63b8ff" d="M376.78,-240.51C364.81,-214.63 349.25,-180.99 336.81,-154.08"/>
<polygon fill="none" stroke="#63b8ff" points="373.64,-242.06 381.01,-249.67 379.99,-239.13 373.64,-242.06"/>
</a>
</g>
</g>
<!-- Node5 -->
<g id="Node000005" class="node">
<title>Node5</title>
<g id="a_Node000005"><a xlink:href="classsen_1_1kernel_1_1_registration_api.html" target="_top" xlink:title="API for objects when registered.">
<polygon fill="white" stroke="transparent" points="548,-139 403,-139 403,-75 548,-75 548,-139"/>
<text text-anchor="start" x="408.5" y="-127" font-family="Helvetica,sans-Serif" font-size="10.00">sen::kernel::RegistrationApi</text>
<text text-anchor="start" x="474" y="-112" font-family="Helvetica,sans-Serif" font-size="10.00"> </text>
<text text-anchor="start" x="415.5" y="-97" font-family="Helvetica,sans-Serif" font-size="10.00">+</text>
<text text-anchor="start" x="436.5" y="-97" font-family="Helvetica,sans-Serif" font-size="10.00">RegistrationApi()</text>
<text text-anchor="start" x="415.5" y="-82" font-family="Helvetica,sans-Serif" font-size="10.00">+</text>
<text text-anchor="start" x="436.5" y="-82" font-family="Helvetica,sans-Serif" font-size="10.00">~RegistrationApi()</text>
<polygon fill="#666666" stroke="#666666" points="403.5,-122 403.5,-122 548.5,-122 548.5,-122 403.5,-122"/>
<polygon fill="#666666" stroke="#666666" points="403.5,-107 403.5,-107 548.5,-107 548.5,-107 403.5,-107"/>
<polygon fill="none" stroke="#666666" points="403,-75 403,-139 548,-139 548,-75 403,-75"/>
</a>
</g>
</g>
<!-- Node1&#45;&gt;Node5 -->
<g id="edge4_Node000001_Node000005" class="edge">
<title>Node1&#45;&gt;Node5</title>
<g id="a_edge4_Node000001_Node000005"><a xlink:title=" ">
<path fill="none" stroke="#63b8ff" d="M414.25,-240.44C428.58,-209.47 448.02,-167.44 461.12,-139.1"/>
<polygon fill="none" stroke="#63b8ff" points="411.01,-239.13 409.99,-249.67 417.36,-242.06 411.01,-239.13"/>
</a>
</g>
</g>
<!-- Node6 -->
<g id="Node000006" class="node">
<title>Node6</title>
<g id="a_Node000006"><a xlink:href="classsen_1_1kernel_1_1_run_api.html" target="_top" xlink:title="What can be done while a component is running.">
<polygon fill="white" stroke="transparent" points="693,-214 566,-214 566,0 693,0 693,-214"/>
<text text-anchor="start" x="583" y="-202" font-family="Helvetica,sans-Serif" font-size="10.00">sen::kernel::RunApi</text>
<text text-anchor="start" x="628" y="-187" font-family="Helvetica,sans-Serif" font-size="10.00"> </text>
<text text-anchor="start" x="570.5" y="-172" font-family="Helvetica,sans-Serif" font-size="10.00">+</text>
<text text-anchor="start" x="583.5" y="-172" font-family="Helvetica,sans-Serif" font-size="10.00">RunApi()</text>
<text text-anchor="start" x="570.5" y="-157" font-family="Helvetica,sans-Serif" font-size="10.00">+</text>
<text text-anchor="start" x="583.5" y="-157" font-family="Helvetica,sans-Serif" font-size="10.00">~RunApi()</text>
<text text-anchor="start" x="570.5" y="-142" font-family="Helvetica,sans-Serif" font-size="10.00">+</text>
<text text-anchor="start" x="583.5" y="-142" font-family="Helvetica,sans-Serif" font-size="10.00">stopRequested()</text>
<text text-anchor="start" x="570.5" y="-127" font-family="Helvetica,sans-Serif" font-size="10.00">+</text>
<text text-anchor="start" x="583.5" y="-127" font-family="Helvetica,sans-Serif" font-size="10.00">drainInputs()</text>
<text text-anchor="start" x="570.5" y="-112" font-family="Helvetica,sans-Serif" font-size="10.00">+</text>
<text text-anchor="start" x="583.5" y="-112" font-family="Helvetica,sans-Serif" font-size="10.00">update()</text>
<text text-anchor="start" x="570.5" y="-97" font-family="Helvetica,sans-Serif" font-size="10.00">+</text>
<text text-anchor="start" x="583.5" y="-97" font-family="Helvetica,sans-Serif" font-size="10.00">commit()</text>
<text text-anchor="start" x="570.5" y="-82" font-family="Helvetica,sans-Serif" font-size="10.00">+</text>
<text text-anchor="start" x="583.5" y="-82" font-family="Helvetica,sans-Serif" font-size="10.00">execLoop()</text>
<text text-anchor="start" x="570.5" y="-67" font-family="Helvetica,sans-Serif" font-size="10.00">+</text>
<text text-anchor="start" x="583.5" y="-67" font-family="Helvetica,sans-Serif" font-size="10.00">getStartTime()</text>
<text text-anchor="start" x="570.5" y="-52" font-family="Helvetica,sans-Serif" font-size="10.00">+</text>
<text text-anchor="start" x="583.5" y="-52" font-family="Helvetica,sans-Serif" font-size="10.00">getTime()</text>
<text text-anchor="start" x="570.5" y="-37" font-family="Helvetica,sans-Serif" font-size="10.00">+</text>
<text text-anchor="start" x="583.5" y="-37" font-family="Helvetica,sans-Serif" font-size="10.00">getTargetCycleTime()</text>
<text text-anchor="start" x="570.5" y="-22" font-family="Helvetica,sans-Serif" font-size="10.00">+</text>
<text text-anchor="start" x="583.5" y="-22" font-family="Helvetica,sans-Serif" font-size="10.00">fetchMonitoringInfo()</text>
<text text-anchor="start" x="570.5" y="-7" font-family="Helvetica,sans-Serif" font-size="10.00">+</text>
<text text-anchor="start" x="583.5" y="-7" font-family="Helvetica,sans-Serif" font-size="10.00">getTracer()</text>
<polygon fill="#666666" stroke="#666666" points="566.5,-197 566.5,-197 693.5,-197 693.5,-197 566.5,-197"/>
<polygon fill="#666666" stroke="#666666" points="566.5,-182 566.5,-182 693.5,-182 693.5,-182 566.5,-182"/>
<polygon fill="none" stroke="#666666" points="566,0 566,-214 693,-214 693,0 566,0"/>
</a>
</g>
</g>
<!-- Node1&#45;&gt;Node6 -->
<g id="edge5_Node000001_Node000006" class="edge">
<title>Node1&#45;&gt;Node6</title>
<g id="a_edge5_Node000001_Node000006"><a xlink:title=" ">
<path fill="none" stroke="#63b8ff" d="M471.02,-260.06C500.12,-249.48 532.37,-234.45 557.5,-214 560.26,-211.75 562.96,-209.37 565.59,-206.89"/>
<polygon fill="none" stroke="#63b8ff" points="469.57,-256.86 461.29,-263.48 471.89,-263.47 469.57,-256.86"/>
</a>
</g>
</g>
<!-- Node7 -->
<g id="Node000007" class="node">
<title>Node7</title>
<g id="a_Node000007"><a xlink:href="classsen_1_1kernel_1_1_unload_api.html" target="_top" xlink:title="What can be done when unloading a component.">
<polygon fill="white" stroke="transparent" points="831.5,-139 711.5,-139 711.5,-75 831.5,-75 831.5,-139"/>
<text text-anchor="start" x="716.5" y="-127" font-family="Helvetica,sans-Serif" font-size="10.00">sen::kernel::UnloadApi</text>
<text text-anchor="start" x="769.5" y="-112" font-family="Helvetica,sans-Serif" font-size="10.00"> </text>
<text text-anchor="start" x="723.5" y="-97" font-family="Helvetica,sans-Serif" font-size="10.00">+</text>
<text text-anchor="start" x="744.5" y="-97" font-family="Helvetica,sans-Serif" font-size="10.00">UnloadApi()</text>
<text text-anchor="start" x="723.5" y="-82" font-family="Helvetica,sans-Serif" font-size="10.00">+</text>
<text text-anchor="start" x="744.5" y="-82" font-family="Helvetica,sans-Serif" font-size="10.00">~UnloadApi()</text>
<polygon fill="#666666" stroke="#666666" points="711.5,-122 711.5,-122 831.5,-122 831.5,-122 711.5,-122"/>
<polygon fill="#666666" stroke="#666666" points="711.5,-107 711.5,-107 831.5,-107 831.5,-107 711.5,-107"/>
<polygon fill="none" stroke="#666666" points="711.5,-75 711.5,-139 831.5,-139 831.5,-75 711.5,-75"/>
</a>
</g>
</g>
<!-- Node1&#45;&gt;Node7 -->
<g id="edge6_Node000001_Node000007" class="edge">
<title>Node1&#45;&gt;Node7</title>
<g id="a_edge6_Node000001_Node000007"><a xlink:title=" ">
<path fill="none" stroke="#63b8ff" d="M471.47,-280.21C537.79,-276.06 633.9,-261.37 702.5,-214 729.06,-195.66 747.87,-163.43 759.07,-139.31"/>
<polygon fill="none" stroke="#63b8ff" points="470.88,-276.73 461.09,-280.79 471.27,-283.72 470.88,-276.73"/>
</a>
</g>
</g>
</g>
</svg>
