<?xml version="1.0" encoding="UTF-8" standalone="no"?>
<!DOCTYPE svg PUBLIC "-//W3C//DTD SVG 1.1//EN"
 "http://www.w3.org/Graphics/SVG/1.1/DTD/svg11.dtd">
<!-- Generated by graphviz version 2.43.0 (0)
 -->
<!-- Title: sen::Object Pages: 1 -->
<svg width="423pt" height="1008pt"
 viewBox="0.00 0.00 423.00 1008.00" xmlns="http://www.w3.org/2000/svg" xmlns:xlink="http://www.w3.org/1999/xlink">
<g id="graph0" class="graph" transform="scale(1 1) rotate(0) translate(4 1004)">
<title>sen::Object</title>
<!-- Node1 -->
<g id="Node000001" class="node">
<title>Node1</title>
<g id="a_Node000001"><a xlink:title="A sen object.">
<polygon fill="#999999" stroke="transparent" points="285,-904 80,-904 80,-522 285,-522 285,-904"/>
<text text-anchor="start" x="155.5" y="-892" font-family="Helvetica,sans-Serif" font-size="10.00">sen::Object</text>
<text text-anchor="start" x="181" y="-877" font-family="Helvetica,sans-Serif" font-size="10.00"> </text>
<text text-anchor="start" x="84.5" y="-862" font-family="Helvetica,sans-Serif" font-size="10.00">+</text>
<text text-anchor="start" x="97.5" y="-862" font-family="Helvetica,sans-Serif" font-size="10.00">Object()</text>
<text text-anchor="start" x="84.5" y="-847" font-family="Helvetica,sans-Serif" font-size="10.00">+</text>
<text text-anchor="start" x="97.5" y="-847" font-family="Helvetica,sans-Serif" font-size="10.00">~Object()</text>
<text text-anchor="start" x="84.5" y="-832" font-family="Helvetica,sans-Serif" font-size="10.00">+</text>
<text text-anchor="start" x="97.5" y="-832" font-family="Helvetica,sans-Serif" font-size="10.00">getName()</text>
<text text-anchor="start" x="84.5" y="-817" font-family="Helvetica,sans-Serif" font-size="10.00">+</text>
<text text-anchor="start" x="97.5" y="-817" font-family="Helvetica,sans-Serif" font-size="10.00">getId()</text>
<text text-anchor="start" x="84.5" y="-802" font-family="Helvetica,sans-Serif" font-size="10.00">+</text>
<text text-anchor="start" x="97.5" y="-802" font-family="Helvetica,sans-Serif" font-size="10.00">getClass()</text>
<text text-anchor="start" x="84.5" y="-787" font-family="Helvetica,sans-Serif" font-size="10.00">+</text>
<text text-anchor="start" x="97.5" y="-787" font-family="Helvetica,sans-Serif" font-size="10.00">asNativeObject()</text>
<text text-anchor="start" x="84.5" y="-772" font-family="Helvetica,sans-Serif" font-size="10.00">+</text>
<text text-anchor="start" x="97.5" y="-772" font-family="Helvetica,sans-Serif" font-size="10.00">asNativeObject()</text>
<text text-anchor="start" x="84.5" y="-757" font-family="Helvetica,sans-Serif" font-size="10.00">+</text>
<text text-anchor="start" x="97.5" y="-757" font-family="Helvetica,sans-Serif" font-size="10.00">asProxyObject()</text>
<text text-anchor="start" x="84.5" y="-742" font-family="Helvetica,sans-Serif" font-size="10.00">+</text>
<text text-anchor="start" x="97.5" y="-742" font-family="Helvetica,sans-Serif" font-size="10.00">asProxyObject()</text>
<text text-anchor="start" x="84.5" y="-727" font-family="Helvetica,sans-Serif" font-size="10.00">+</text>
<text text-anchor="start" x="97.5" y="-727" font-family="Helvetica,sans-Serif" font-size="10.00">getLocalName()</text>
<text text-anchor="start" x="97.5" y="-712" font-family="Helvetica,sans-Serif" font-size="10.00">and 6 more...</text>
<text text-anchor="start" x="84.5" y="-697" font-family="Helvetica,sans-Serif" font-size="10.00">#</text>
<text text-anchor="start" x="97.5" y="-697" font-family="Helvetica,sans-Serif" font-size="10.00">senImplRemoveTypedConnection()</text>
<text text-anchor="start" x="84.5" y="-682" font-family="Helvetica,sans-Serif" font-size="10.00">#</text>
<text text-anchor="start" x="97.5" y="-682" font-family="Helvetica,sans-Serif" font-size="10.00">senImplRemoveUntypedConnection()</text>
<text text-anchor="start" x="84.5" y="-667" font-family="Helvetica,sans-Serif" font-size="10.00">#</text>
<text text-anchor="start" x="97.5" y="-667" font-family="Helvetica,sans-Serif" font-size="10.00">senImplEventEmitted()</text>
<text text-anchor="start" x="84.5" y="-652" font-family="Helvetica,sans-Serif" font-size="10.00">#</text>
<text text-anchor="start" x="97.5" y="-652" font-family="Helvetica,sans-Serif" font-size="10.00">senImplMakeId()</text>
<text text-anchor="start" x="84.5" y="-637" font-family="Helvetica,sans-Serif" font-size="10.00">#</text>
<text text-anchor="start" x="97.5" y="-637" font-family="Helvetica,sans-Serif" font-size="10.00">senImplMakeConnectionGuard()</text>
<text text-anchor="start" x="84.5" y="-622" font-family="Helvetica,sans-Serif" font-size="10.00">#</text>
<text text-anchor="start" x="97.5" y="-622" font-family="Helvetica,sans-Serif" font-size="10.00">senImplWriteAllProperties</text>
<text text-anchor="start" x="97.5" y="-611" font-family="Helvetica,sans-Serif" font-size="10.00">ToStream()</text>
<text text-anchor="start" x="84.5" y="-596" font-family="Helvetica,sans-Serif" font-size="10.00">#</text>
<text text-anchor="start" x="97.5" y="-596" font-family="Helvetica,sans-Serif" font-size="10.00">senImplWriteStaticProperties</text>
<text text-anchor="start" x="97.5" y="-585" font-family="Helvetica,sans-Serif" font-size="10.00">ToStream()</text>
<text text-anchor="start" x="84.5" y="-570" font-family="Helvetica,sans-Serif" font-size="10.00">#</text>
<text text-anchor="start" x="97.5" y="-570" font-family="Helvetica,sans-Serif" font-size="10.00">senImplWriteDynamicProperties</text>
<text text-anchor="start" x="97.5" y="-559" font-family="Helvetica,sans-Serif" font-size="10.00">ToStream()</text>
<text text-anchor="start" x="84.5" y="-544" font-family="Helvetica,sans-Serif" font-size="10.00">#</text>
<text text-anchor="start" x="97.5" y="-544" font-family="Helvetica,sans-Serif" font-size="10.00">senImplValidateName()</text>
<text text-anchor="start" x="84.5" y="-529" font-family="Helvetica,sans-Serif" font-size="10.00">#</text>
<text text-anchor="start" x="97.5" y="-529" font-family="Helvetica,sans-Serif" font-size="10.00">senImplComputeLocalName()</text>
<polygon fill="#666666" stroke="#666666" points="80.5,-887 80.5,-887 285.5,-887 285.5,-887 80.5,-887"/>
<polygon fill="#666666" stroke="#666666" points="80.5,-872 80.5,-872 285.5,-872 285.5,-872 80.5,-872"/>
<polygon fill="none" stroke="#666666" points="80,-522 80,-904 285,-904 285,-522 80,-522"/>
</a>
</g>
</g>
<!-- Node3 -->
<g id="Node000003" class="node">
<title>Node3</title>
<g id="a_Node000003"><a xlink:href="classsen_1_1_native_object.html" target="_top" xlink:title="An object instantiated in this process. This is the base class for all user&#45;implemented objects.">
<polygon fill="white" stroke="transparent" points="191,-486 0,-486 0,-85 191,-85 191,-486"/>
<text text-anchor="start" x="52" y="-473.5" font-family="Helvetica,sans-Serif" font-size="10.00">sen::NativeObject</text>
<text text-anchor="start" x="94" y="-458.5" font-family="Helvetica,sans-Serif" font-size="10.00"> </text>
<text text-anchor="start" x="4.5" y="-443.5" font-family="Helvetica,sans-Serif" font-size="10.00">+</text>
<text text-anchor="start" x="17.5" y="-443.5" font-family="Helvetica,sans-Serif" font-size="10.00">~NativeObject()</text>
<text text-anchor="start" x="4.5" y="-428.5" font-family="Helvetica,sans-Serif" font-size="10.00">+</text>
<text text-anchor="start" x="17.5" y="-428.5" font-family="Helvetica,sans-Serif" font-size="10.00">registered()</text>
<text text-anchor="start" x="4.5" y="-413.5" font-family="Helvetica,sans-Serif" font-size="10.00">+</text>
<text text-anchor="start" x="17.5" y="-413.5" font-family="Helvetica,sans-Serif" font-size="10.00">update()</text>
<text text-anchor="start" x="4.5" y="-398.5" font-family="Helvetica,sans-Serif" font-size="10.00">+</text>
<text text-anchor="start" x="17.5" y="-398.5" font-family="Helvetica,sans-Serif" font-size="10.00">unregistered()</text>
<text text-anchor="start" x="4.5" y="-383.5" font-family="Helvetica,sans-Serif" font-size="10.00">+</text>
<text text-anchor="start" x="17.5" y="-383.5" font-family="Helvetica,sans-Serif" font-size="10.00">needsPreDrainOrPreCommit()</text>
<text text-anchor="start" x="4.5" y="-368.5" font-family="Helvetica,sans-Serif" font-size="10.00">+</text>
<text text-anchor="start" x="17.5" y="-368.5" font-family="Helvetica,sans-Serif" font-size="10.00">preDrain()</text>
<text text-anchor="start" x="4.5" y="-353.5" font-family="Helvetica,sans-Serif" font-size="10.00">+</text>
<text text-anchor="start" x="17.5" y="-353.5" font-family="Helvetica,sans-Serif" font-size="10.00">preCommit()</text>
<text text-anchor="start" x="4.5" y="-338.5" font-family="Helvetica,sans-Serif" font-size="10.00">+</text>
<text text-anchor="start" x="17.5" y="-338.5" font-family="Helvetica,sans-Serif" font-size="10.00">setNextPropertyUntyped()</text>
<text text-anchor="start" x="4.5" y="-323.5" font-family="Helvetica,sans-Serif" font-size="10.00">+</text>
<text text-anchor="start" x="17.5" y="-323.5" font-family="Helvetica,sans-Serif" font-size="10.00">getNextPropertyUntyped()</text>
<text text-anchor="start" x="4.5" y="-308.5" font-family="Helvetica,sans-Serif" font-size="10.00">+</text>
<text text-anchor="start" x="17.5" y="-308.5" font-family="Helvetica,sans-Serif" font-size="10.00">getId()</text>
<text text-anchor="start" x="17.5" y="-293.5" font-family="Helvetica,sans-Serif" font-size="10.00">and 9 more...</text>
<text text-anchor="start" x="4.5" y="-278.5" font-family="Helvetica,sans-Serif" font-size="10.00">#</text>
<text text-anchor="start" x="17.5" y="-278.5" font-family="Helvetica,sans-Serif" font-size="10.00">NativeObject()</text>
<text text-anchor="start" x="4.5" y="-263.5" font-family="Helvetica,sans-Serif" font-size="10.00">#</text>
<text text-anchor="start" x="17.5" y="-263.5" font-family="Helvetica,sans-Serif" font-size="10.00">commit()</text>
<text text-anchor="start" x="4.5" y="-248.5" font-family="Helvetica,sans-Serif" font-size="10.00">#</text>
<text text-anchor="start" x="17.5" y="-248.5" font-family="Helvetica,sans-Serif" font-size="10.00">senImplGetPropertyImpl()</text>
<text text-anchor="start" x="4.5" y="-233.5" font-family="Helvetica,sans-Serif" font-size="10.00">#</text>
<text text-anchor="start" x="17.5" y="-233.5" font-family="Helvetica,sans-Serif" font-size="10.00">senImplSetNextPropertyUntyped()</text>
<text text-anchor="start" x="4.5" y="-218.5" font-family="Helvetica,sans-Serif" font-size="10.00">#</text>
<text text-anchor="start" x="17.5" y="-218.5" font-family="Helvetica,sans-Serif" font-size="10.00">senImplGetNextPropertyUntyped()</text>
<text text-anchor="start" x="4.5" y="-203.5" font-family="Helvetica,sans-Serif" font-size="10.00">#</text>
<text text-anchor="start" x="17.5" y="-203.5" font-family="Helvetica,sans-Serif" font-size="10.00">senImplComputeMaxReliable</text>
<text text-anchor="start" x="17.5" y="-192.5" font-family="Helvetica,sans-Serif" font-size="10.00">SerializedPropertySize()</text>
<text text-anchor="start" x="4.5" y="-177.5" font-family="Helvetica,sans-Serif" font-size="10.00">#</text>
<text text-anchor="start" x="17.5" y="-177.5" font-family="Helvetica,sans-Serif" font-size="10.00">senImplCommitImpl()</text>
<text text-anchor="start" x="4.5" y="-162.5" font-family="Helvetica,sans-Serif" font-size="10.00">#</text>
<text text-anchor="start" x="17.5" y="-162.5" font-family="Helvetica,sans-Serif" font-size="10.00">senImplWriteChangedProperties</text>
<text text-anchor="start" x="17.5" y="-151.5" font-family="Helvetica,sans-Serif" font-size="10.00">ToStream()</text>
<text text-anchor="start" x="4.5" y="-136.5" font-family="Helvetica,sans-Serif" font-size="10.00">#</text>
<text text-anchor="start" x="17.5" y="-136.5" font-family="Helvetica,sans-Serif" font-size="10.00">senImplStreamCall()</text>
<text text-anchor="start" x="4.5" y="-121.5" font-family="Helvetica,sans-Serif" font-size="10.00">#</text>
<text text-anchor="start" x="17.5" y="-121.5" font-family="Helvetica,sans-Serif" font-size="10.00">senImplVariantCall()</text>
<text text-anchor="start" x="17.5" y="-106.5" font-family="Helvetica,sans-Serif" font-size="10.00">and 13 more...</text>
<text text-anchor="start" x="4.5" y="-91.5" font-family="Helvetica,sans-Serif" font-size="10.00">#</text>
<text text-anchor="start" x="17.5" y="-91.5" font-family="Helvetica,sans-Serif" font-size="10.00">tryToGetResult()</text>
<polygon fill="#666666" stroke="#666666" points="0.5,-468.5 0.5,-468.5 191.5,-468.5 191.5,-468.5 0.5,-468.5"/>
<polygon fill="#666666" stroke="#666666" points="0.5,-453.5 0.5,-453.5 191.5,-453.5 191.5,-453.5 0.5,-453.5"/>
<polygon fill="none" stroke="#666666" points="0,-85 0,-486 191,-486 191,-85 0,-85"/>
</a>
</g>
</g>
<!-- Node1&#45;&gt;Node3 -->
<g id="edge2_Node000001_Node000003" class="edge">
<title>Node1&#45;&gt;Node3</title>
<g id="a_edge2_Node000001_Node000003"><a xlink:title=" ">
<path fill="none" stroke="#63b8ff" d="M141.6,-511.95C139.85,-503.4 138.1,-494.83 136.35,-486.28"/>
<polygon fill="none" stroke="#63b8ff" points="138.21,-512.87 143.64,-521.96 145.07,-511.46 138.21,-512.87"/>
</a>
</g>
</g>
<!-- Node4 -->
<g id="Node000004" class="node">
<title>Node4</title>
<g id="a_Node000004"><a xlink:title=" ">
<polygon fill="white" stroke="transparent" points="330,-310 209,-310 209,-261 330,-261 330,-310"/>
<text text-anchor="start" x="214.5" y="-297.5" font-family="Helvetica,sans-Serif" font-size="10.00">sen::impl::ProxyObject</text>
<text text-anchor="start" x="268" y="-282.5" font-family="Helvetica,sans-Serif" font-size="10.00"> </text>
<text text-anchor="start" x="268" y="-267.5" font-family="Helvetica,sans-Serif" font-size="10.00"> </text>
<polygon fill="#666666" stroke="#666666" points="209.5,-292.5 209.5,-292.5 330.5,-292.5 330.5,-292.5 209.5,-292.5"/>
<polygon fill="#666666" stroke="#666666" points="209.5,-277.5 209.5,-277.5 330.5,-277.5 330.5,-277.5 209.5,-277.5"/>
<polygon fill="none" stroke="#666666" points="209,-261 209,-310 330,-310 330,-261 209,-261"/>
</a>
</g>
</g>
<!-- Node1&#45;&gt;Node4 -->
<g id="edge3_Node000001_Node000004" class="edge">
<title>Node1&#45;&gt;Node4</title>
<g id="a_edge3_Node000001_Node000004"><a xlink:title=" ">
<path fill="none" stroke="#63b8ff" d="M223.45,-511.72C239.79,-431.8 256.61,-349.53 264.65,-310.22"/>
<polygon fill="none" stroke="#63b8ff" points="219.93,-511.46 221.36,-521.96 226.79,-512.87 219.93,-511.46"/>
</a>
</g>
</g>
<!-- Node2 -->
<g id="Node000002" class="node">
<title>Node2</title>
<g id="a_Node000002"><a xlink:title=" ">
<polygon fill="white" stroke="transparent" points="240.5,-1000 124.5,-1000 124.5,-940 240.5,-940 240.5,-1000"/>
<text text-anchor="start" x="129.5" y="-988" font-family="Helvetica,sans-Serif" font-size="10.00">std::enable_shared</text>
<text text-anchor="start" x="129.5" y="-977" font-family="Helvetica,sans-Serif" font-size="10.00">_from_this&lt; Object &gt;</text>
<text text-anchor="start" x="180.5" y="-962" font-family="Helvetica,sans-Serif" font-size="10.00"> </text>
<text text-anchor="start" x="180.5" y="-947" font-family="Helvetica,sans-Serif" font-size="10.00"> </text>
<polygon fill="#666666" stroke="#666666" points="124.5,-972 124.5,-972 240.5,-972 240.5,-972 124.5,-972"/>
<polygon fill="#666666" stroke="#666666" points="124.5,-957 124.5,-957 240.5,-957 240.5,-957 124.5,-957"/>
<polygon fill="none" stroke="#666666" points="124.5,-940 124.5,-1000 240.5,-1000 240.5,-940 124.5,-940"/>
</a>
</g>
</g>
<!-- Node2&#45;&gt;Node1 -->
<g id="edge1_Node000001_Node000002" class="edge">
<title>Node2&#45;&gt;Node1</title>
<g id="a_edge1_Node000001_Node000002"><a xlink:title=" ">
<path fill="none" stroke="#63b8ff" d="M182.5,-929.72C182.5,-921.96 182.5,-913.35 182.5,-904.15"/>
<polygon fill="none" stroke="#63b8ff" points="179,-929.75 182.5,-939.75 186,-929.75 179,-929.75"/>
</a>
</g>
</g>
<!-- Node5 -->
<g id="Node000005" class="node">
<title>Node5</title>
<g id="a_Node000005"><a xlink:title=" ">
<polygon fill="white" stroke="transparent" points="266,-49 113,-49 113,0 266,0 266,-49"/>
<text text-anchor="start" x="118.5" y="-36.5" font-family="Helvetica,sans-Serif" font-size="10.00">sen::impl::NativeObjectProxy</text>
<text text-anchor="start" x="188" y="-21.5" font-family="Helvetica,sans-Serif" font-size="10.00"> </text>
<text text-anchor="start" x="188" y="-6.5" font-family="Helvetica,sans-Serif" font-size="10.00"> </text>
<polygon fill="#666666" stroke="#666666" points="113.5,-31.5 113.5,-31.5 266.5,-31.5 266.5,-31.5 113.5,-31.5"/>
<polygon fill="#666666" stroke="#666666" points="113.5,-16.5 113.5,-16.5 266.5,-16.5 266.5,-16.5 113.5,-16.5"/>
<polygon fill="none" stroke="#666666" points="113,0 113,-49 266,-49 266,0 113,0"/>
</a>
</g>
</g>
<!-- Node4&#45;&gt;Node5 -->
<g id="edge4_Node000004_Node000005" class="edge">
<title>Node4&#45;&gt;Node5</title>
<g id="a_edge4_Node000004_Node000005"><a xlink:title=" ">
<path fill="none" stroke="#63b8ff" d="M259.14,-250.97C242.74,-197.85 211.17,-95.65 196.86,-49.34"/>
<polygon fill="none" stroke="#63b8ff" points="255.82,-252.08 262.12,-260.6 262.51,-250.01 255.82,-252.08"/>
</a>
</g>
</g>
<!-- Node6 -->
<g id="Node000006" class="node">
<title>Node6</title>
<g id="a_Node000006"><a xlink:title=" ">
<polygon fill="white" stroke="transparent" points="415,-49 284,-49 284,0 415,0 415,-49"/>
<text text-anchor="start" x="289.5" y="-36.5" font-family="Helvetica,sans-Serif" font-size="10.00">sen::impl::RemoteObject</text>
<text text-anchor="start" x="348" y="-21.5" font-family="Helvetica,sans-Serif" font-size="10.00"> </text>
<text text-anchor="start" x="348" y="-6.5" font-family="Helvetica,sans-Serif" font-size="10.00"> </text>
<polygon fill="#666666" stroke="#666666" points="284.5,-31.5 284.5,-31.5 415.5,-31.5 415.5,-31.5 284.5,-31.5"/>
<polygon fill="#666666" stroke="#666666" points="284.5,-16.5 284.5,-16.5 415.5,-16.5 415.5,-16.5 284.5,-16.5"/>
<polygon fill="none" stroke="#666666" points="284,0 284,-49 415,-49 415,0 284,0"/>
</a>
</g>
</g>
<!-- Node4&#45;&gt;Node6 -->
<g id="edge5_Node000004_Node000006" class="edge">
<title>Node4&#45;&gt;Node6</title>
<g id="a_edge5_Node000004_Node000006"><a xlink:title=" ">
<path fill="none" stroke="#63b8ff" d="M279.86,-250.97C296.26,-197.85 327.83,-95.65 342.14,-49.34"/>
<polygon fill="none" stroke="#63b8ff" points="276.49,-250.01 276.88,-260.6 283.18,-252.08 276.49,-250.01"/>
</a>
</g>
</g>
</g>
</svg>
