<?xml version="1.0" encoding="UTF-8" standalone="no"?>
<!DOCTYPE svg PUBLIC "-//W3C//DTD SVG 1.1//EN"
 "http://www.w3.org/Graphics/SVG/1.1/DTD/svg11.dtd">
<!-- Generated by graphviz version 2.43.0 (0)
 -->
<!-- Title: sen::Duration Pages: 1 -->
<svg width="123pt" height="594pt"
 viewBox="0.00 0.00 123.00 594.00" xmlns="http://www.w3.org/2000/svg" xmlns:xlink="http://www.w3.org/1999/xlink">
<g id="graph0" class="graph" transform="scale(1 1) rotate(0) translate(4 590)">
<title>sen::Duration</title>
<!-- Node1 -->
<g id="Node000001" class="node">
<title>Node1</title>
<g id="a_Node000001"><a xlink:title="A time duration.">
<polygon fill="#999999" stroke="transparent" points="112.5,-154 2.5,-154 2.5,0 112.5,0 112.5,-154"/>
<text text-anchor="start" x="24.5" y="-142" font-family="Helvetica,sans-Serif" font-size="10.00">sen::Duration</text>
<text text-anchor="start" x="55.5" y="-127" font-family="Helvetica,sans-Serif" font-size="10.00"> </text>
<text text-anchor="start" x="6.5" y="-112" font-family="Helvetica,sans-Serif" font-size="10.00">+</text>
<text text-anchor="start" x="19.5" y="-112" font-family="Helvetica,sans-Serif" font-size="10.00">Duration()</text>
<text text-anchor="start" x="6.5" y="-97" font-family="Helvetica,sans-Serif" font-size="10.00">+</text>
<text text-anchor="start" x="19.5" y="-97" font-family="Helvetica,sans-Serif" font-size="10.00">Duration()</text>
<text text-anchor="start" x="6.5" y="-82" font-family="Helvetica,sans-Serif" font-size="10.00">+</text>
<text text-anchor="start" x="19.5" y="-82" font-family="Helvetica,sans-Serif" font-size="10.00">~Duration()</text>
<text text-anchor="start" x="6.5" y="-67" font-family="Helvetica,sans-Serif" font-size="10.00">+</text>
<text text-anchor="start" x="19.5" y="-67" font-family="Helvetica,sans-Serif" font-size="10.00">getNanoseconds()</text>
<text text-anchor="start" x="6.5" y="-52" font-family="Helvetica,sans-Serif" font-size="10.00">+</text>
<text text-anchor="start" x="19.5" y="-52" font-family="Helvetica,sans-Serif" font-size="10.00">toChrono()</text>
<text text-anchor="start" x="6.5" y="-37" font-family="Helvetica,sans-Serif" font-size="10.00">+</text>
<text text-anchor="start" x="19.5" y="-37" font-family="Helvetica,sans-Serif" font-size="10.00">toSeconds()</text>
<text text-anchor="start" x="6.5" y="-22" font-family="Helvetica,sans-Serif" font-size="10.00">+</text>
<text text-anchor="start" x="19.5" y="-22" font-family="Helvetica,sans-Serif" font-size="10.00">fromHertz()</text>
<text text-anchor="start" x="6.5" y="-7" font-family="Helvetica,sans-Serif" font-size="10.00">+</text>
<text text-anchor="start" x="19.5" y="-7" font-family="Helvetica,sans-Serif" font-size="10.00">fromHertz()</text>
<polygon fill="#666666" stroke="#666666" points="2.5,-137 2.5,-137 112.5,-137 112.5,-137 2.5,-137"/>
<polygon fill="#666666" stroke="#666666" points="2.5,-122 2.5,-122 112.5,-122 112.5,-122 2.5,-122"/>
<polygon fill="none" stroke="#666666" points="2.5,0 2.5,-154 112.5,-154 112.5,0 2.5,0"/>
</a>
</g>
</g>
<!-- Node2 -->
<g id="Node000002" class="node">
<title>Node2</title>
<g id="a_Node000002"><a xlink:href="classsen_1_1_strong_type.html" target="_top" xlink:title=" ">
<polygon fill="white" stroke="transparent" points="114.5,-430 0.5,-430 0.5,-190 114.5,-190 114.5,-430"/>
<text text-anchor="start" x="5.5" y="-418" font-family="Helvetica,sans-Serif" font-size="10.00">sen::StrongType&lt; std</text>
<text text-anchor="start" x="7.5" y="-407" font-family="Helvetica,sans-Serif" font-size="10.00">::int64_t, Duration &gt;</text>
<text text-anchor="start" x="55.5" y="-392" font-family="Helvetica,sans-Serif" font-size="10.00"> </text>
<text text-anchor="start" x="10" y="-377" font-family="Helvetica,sans-Serif" font-size="10.00">+</text>
<text text-anchor="start" x="28.5" y="-377" font-family="Helvetica,sans-Serif" font-size="10.00">~StrongType()</text>
<text text-anchor="start" x="10" y="-362" font-family="Helvetica,sans-Serif" font-size="10.00">+</text>
<text text-anchor="start" x="28.5" y="-362" font-family="Helvetica,sans-Serif" font-size="10.00">operator==()</text>
<text text-anchor="start" x="10" y="-347" font-family="Helvetica,sans-Serif" font-size="10.00">+</text>
<text text-anchor="start" x="28.5" y="-347" font-family="Helvetica,sans-Serif" font-size="10.00">operator!=()</text>
<text text-anchor="start" x="10" y="-332" font-family="Helvetica,sans-Serif" font-size="10.00">+</text>
<text text-anchor="start" x="28.5" y="-332" font-family="Helvetica,sans-Serif" font-size="10.00">operator&lt;()</text>
<text text-anchor="start" x="10" y="-317" font-family="Helvetica,sans-Serif" font-size="10.00">+</text>
<text text-anchor="start" x="28.5" y="-317" font-family="Helvetica,sans-Serif" font-size="10.00">operator&lt;=()</text>
<text text-anchor="start" x="10" y="-302" font-family="Helvetica,sans-Serif" font-size="10.00">+</text>
<text text-anchor="start" x="28.5" y="-302" font-family="Helvetica,sans-Serif" font-size="10.00">operator&gt;()</text>
<text text-anchor="start" x="10" y="-287" font-family="Helvetica,sans-Serif" font-size="10.00">+</text>
<text text-anchor="start" x="28.5" y="-287" font-family="Helvetica,sans-Serif" font-size="10.00">operator&gt;=()</text>
<text text-anchor="start" x="10" y="-272" font-family="Helvetica,sans-Serif" font-size="10.00">+</text>
<text text-anchor="start" x="28.5" y="-272" font-family="Helvetica,sans-Serif" font-size="10.00">operator++()</text>
<text text-anchor="start" x="10" y="-257" font-family="Helvetica,sans-Serif" font-size="10.00">+</text>
<text text-anchor="start" x="28.5" y="-257" font-family="Helvetica,sans-Serif" font-size="10.00">operator&#45;&#45;()</text>
<text text-anchor="start" x="10" y="-242" font-family="Helvetica,sans-Serif" font-size="10.00">+</text>
<text text-anchor="start" x="28.5" y="-242" font-family="Helvetica,sans-Serif" font-size="10.00">operator+=()</text>
<text text-anchor="start" x="28.5" y="-227" font-family="Helvetica,sans-Serif" font-size="10.00">and 8 more...</text>
<text text-anchor="start" x="10" y="-212" font-family="Helvetica,sans-Serif" font-size="10.00">#</text>
<text text-anchor="start" x="28.5" y="-212" font-family="Helvetica,sans-Serif" font-size="10.00">val()</text>
<text text-anchor="start" x="10" y="-197" font-family="Helvetica,sans-Serif" font-size="10.00">#</text>
<text text-anchor="start" x="28.5" y="-197" font-family="Helvetica,sans-Serif" font-size="10.00">val()</text>
<polygon fill="#666666" stroke="#666666" points="0.5,-402 0.5,-402 114.5,-402 114.5,-402 0.5,-402"/>
<polygon fill="#666666" stroke="#666666" points="0.5,-387 0.5,-387 114.5,-387 114.5,-387 0.5,-387"/>
<polygon fill="none" stroke="#666666" points="0.5,-190 0.5,-430 114.5,-430 114.5,-190 0.5,-190"/>
</a>
</g>
</g>
<!-- Node2&#45;&gt;Node1 -->
<g id="edge1_Node000001_Node000002" class="edge">
<title>Node2&#45;&gt;Node1</title>
<g id="a_edge1_Node000001_Node000002"><a xlink:title=" ">
<path fill="none" stroke="#63b8ff" d="M57.5,-179.56C57.5,-170.89 57.5,-162.33 57.5,-154.07"/>
<polygon fill="none" stroke="#63b8ff" points="54,-179.78 57.5,-189.78 61,-179.78 54,-179.78"/>
</a>
</g>
</g>
<!-- Node3 -->
<g id="Node000003" class="node">
<title>Node3</title>
<g id="a_Node000003"><a xlink:href="classsen_1_1_strong_type_base.html" target="_top" xlink:title=" ">
<polygon fill="white" stroke="transparent" points="115,-586 0,-586 0,-466 115,-466 115,-586"/>
<text text-anchor="start" x="7" y="-574" font-family="Helvetica,sans-Serif" font-size="10.00">sen::StrongTypeBase</text>
<text text-anchor="start" x="19" y="-563" font-family="Helvetica,sans-Serif" font-size="10.00">&lt; std::int64_t &gt;</text>
<text text-anchor="start" x="56" y="-548" font-family="Helvetica,sans-Serif" font-size="10.00"> </text>
<text text-anchor="start" x="4.5" y="-533" font-family="Helvetica,sans-Serif" font-size="10.00">+</text>
<text text-anchor="start" x="17.5" y="-533" font-family="Helvetica,sans-Serif" font-size="10.00">StrongTypeBase()</text>
<text text-anchor="start" x="4.5" y="-518" font-family="Helvetica,sans-Serif" font-size="10.00">+</text>
<text text-anchor="start" x="17.5" y="-518" font-family="Helvetica,sans-Serif" font-size="10.00">~StrongTypeBase()</text>
<text text-anchor="start" x="4.5" y="-503" font-family="Helvetica,sans-Serif" font-size="10.00">+</text>
<text text-anchor="start" x="17.5" y="-503" font-family="Helvetica,sans-Serif" font-size="10.00">get()</text>
<text text-anchor="start" x="4.5" y="-488" font-family="Helvetica,sans-Serif" font-size="10.00">+</text>
<text text-anchor="start" x="17.5" y="-488" font-family="Helvetica,sans-Serif" font-size="10.00">set()</text>
<text text-anchor="start" x="4.5" y="-473" font-family="Helvetica,sans-Serif" font-size="10.00">#</text>
<text text-anchor="start" x="17.5" y="-473" font-family="Helvetica,sans-Serif" font-size="10.00">val()</text>
<polygon fill="#666666" stroke="#666666" points="0.5,-558 0.5,-558 115.5,-558 115.5,-558 0.5,-558"/>
<polygon fill="#666666" stroke="#666666" points="0.5,-543 0.5,-543 115.5,-543 115.5,-543 0.5,-543"/>
<polygon fill="none" stroke="#666666" points="0,-466 0,-586 115,-586 115,-466 0,-466"/>
</a>
</g>
</g>
<!-- Node3&#45;&gt;Node2 -->
<g id="edge2_Node000002_Node000003" class="edge">
<title>Node3&#45;&gt;Node2</title>
<g id="a_edge2_Node000002_Node000003"><a xlink:title=" ">
<path fill="none" stroke="#63b8ff" d="M57.5,-455.71C57.5,-447.46 57.5,-438.87 57.5,-430.18"/>
<polygon fill="none" stroke="#63b8ff" points="54,-455.96 57.5,-465.96 61,-455.96 54,-455.96"/>
</a>
</g>
</g>
</g>
</svg>
