<?xml version="1.0" encoding="UTF-8" standalone="no"?>
<!DOCTYPE svg PUBLIC "-//W3C//DTD SVG 1.1//EN"
 "http://www.w3.org/Graphics/SVG/1.1/DTD/svg11.dtd">
<!-- Generated by graphviz version 2.43.0 (0)
 -->
<!-- Title: sen::FullTypeVisitor Pages: 1 -->
<svg width="117pt" height="442pt"
 viewBox="0.00 0.00 117.00 442.00" xmlns="http://www.w3.org/2000/svg" xmlns:xlink="http://www.w3.org/1999/xlink">
<g id="graph0" class="graph" transform="scale(1 1) rotate(0) translate(4 438)">
<title>sen::FullTypeVisitor</title>
<!-- Node1 -->
<g id="Node000001" class="node">
<title>Node1</title>
<g id="a_Node000001"><a xlink:title="A Visitor for constant types. This class is based on the GoF Visitor design pattern....">
<polygon fill="#999999" stroke="transparent" points="109,-434 0,-434 0,-235 109,-235 109,-434"/>
<text text-anchor="start" x="7.5" y="-421.5" font-family="Helvetica,sans-Serif" font-size="10.00">sen::FullTypeVisitor</text>
<text text-anchor="start" x="53" y="-406.5" font-family="Helvetica,sans-Serif" font-size="10.00"> </text>
<text text-anchor="start" x="4.5" y="-391.5" font-family="Helvetica,sans-Serif" font-size="10.00">+</text>
<text text-anchor="start" x="17.5" y="-391.5" font-family="Helvetica,sans-Serif" font-size="10.00">FullTypeVisitor()</text>
<text text-anchor="start" x="4.5" y="-376.5" font-family="Helvetica,sans-Serif" font-size="10.00">+</text>
<text text-anchor="start" x="17.5" y="-376.5" font-family="Helvetica,sans-Serif" font-size="10.00">~FullTypeVisitor()</text>
<text text-anchor="start" x="4.5" y="-361.5" font-family="Helvetica,sans-Serif" font-size="10.00">+</text>
<text text-anchor="start" x="17.5" y="-361.5" font-family="Helvetica,sans-Serif" font-size="10.00">apply()</text>
<text text-anchor="start" x="4.5" y="-346.5" font-family="Helvetica,sans-Serif" font-size="10.00">+</text>
<text text-anchor="start" x="17.5" y="-346.5" font-family="Helvetica,sans-Serif" font-size="10.00">apply()</text>
<text text-anchor="start" x="4.5" y="-331.5" font-family="Helvetica,sans-Serif" font-size="10.00">+</text>
<text text-anchor="start" x="17.5" y="-331.5" font-family="Helvetica,sans-Serif" font-size="10.00">apply()</text>
<text text-anchor="start" x="4.5" y="-316.5" font-family="Helvetica,sans-Serif" font-size="10.00">+</text>
<text text-anchor="start" x="17.5" y="-316.5" font-family="Helvetica,sans-Serif" font-size="10.00">apply()</text>
<text text-anchor="start" x="4.5" y="-301.5" font-family="Helvetica,sans-Serif" font-size="10.00">+</text>
<text text-anchor="start" x="17.5" y="-301.5" font-family="Helvetica,sans-Serif" font-size="10.00">apply()</text>
<text text-anchor="start" x="4.5" y="-286.5" font-family="Helvetica,sans-Serif" font-size="10.00">+</text>
<text text-anchor="start" x="17.5" y="-286.5" font-family="Helvetica,sans-Serif" font-size="10.00">apply()</text>
<text text-anchor="start" x="4.5" y="-271.5" font-family="Helvetica,sans-Serif" font-size="10.00">+</text>
<text text-anchor="start" x="17.5" y="-271.5" font-family="Helvetica,sans-Serif" font-size="10.00">apply()</text>
<text text-anchor="start" x="4.5" y="-256.5" font-family="Helvetica,sans-Serif" font-size="10.00">+</text>
<text text-anchor="start" x="17.5" y="-256.5" font-family="Helvetica,sans-Serif" font-size="10.00">apply()</text>
<text text-anchor="start" x="17.5" y="-241.5" font-family="Helvetica,sans-Serif" font-size="10.00">and 20 more...</text>
<polygon fill="#666666" stroke="#666666" points="0.5,-416.5 0.5,-416.5 109.5,-416.5 109.5,-416.5 0.5,-416.5"/>
<polygon fill="#666666" stroke="#666666" points="0.5,-401.5 0.5,-401.5 109.5,-401.5 109.5,-401.5 0.5,-401.5"/>
<polygon fill="none" stroke="#666666" points="0,-235 0,-434 109,-434 109,-235 0,-235"/>
</a>
</g>
</g>
<!-- Node2 -->
<g id="Node000002" class="node">
<title>Node2</title>
<g id="a_Node000002"><a xlink:href="classsen_1_1_type_visitor.html" target="_top" xlink:title="All the apply virtual methods are overriden to empty methods. Use TypeVisitor if you only need to han...">
<polygon fill="white" stroke="transparent" points="100.5,-199 8.5,-199 8.5,0 100.5,0 100.5,-199"/>
<text text-anchor="start" x="15.5" y="-186.5" font-family="Helvetica,sans-Serif" font-size="10.00">sen::TypeVisitor</text>
<text text-anchor="start" x="52.5" y="-171.5" font-family="Helvetica,sans-Serif" font-size="10.00"> </text>
<text text-anchor="start" x="12.5" y="-156.5" font-family="Helvetica,sans-Serif" font-size="10.00">+</text>
<text text-anchor="start" x="25.5" y="-156.5" font-family="Helvetica,sans-Serif" font-size="10.00">TypeVisitor()</text>
<text text-anchor="start" x="12.5" y="-141.5" font-family="Helvetica,sans-Serif" font-size="10.00">+</text>
<text text-anchor="start" x="25.5" y="-141.5" font-family="Helvetica,sans-Serif" font-size="10.00">~TypeVisitor()</text>
<text text-anchor="start" x="12.5" y="-126.5" font-family="Helvetica,sans-Serif" font-size="10.00">+</text>
<text text-anchor="start" x="25.5" y="-126.5" font-family="Helvetica,sans-Serif" font-size="10.00">apply()</text>
<text text-anchor="start" x="12.5" y="-111.5" font-family="Helvetica,sans-Serif" font-size="10.00">+</text>
<text text-anchor="start" x="25.5" y="-111.5" font-family="Helvetica,sans-Serif" font-size="10.00">apply()</text>
<text text-anchor="start" x="12.5" y="-96.5" font-family="Helvetica,sans-Serif" font-size="10.00">+</text>
<text text-anchor="start" x="25.5" y="-96.5" font-family="Helvetica,sans-Serif" font-size="10.00">apply()</text>
<text text-anchor="start" x="12.5" y="-81.5" font-family="Helvetica,sans-Serif" font-size="10.00">+</text>
<text text-anchor="start" x="25.5" y="-81.5" font-family="Helvetica,sans-Serif" font-size="10.00">apply()</text>
<text text-anchor="start" x="12.5" y="-66.5" font-family="Helvetica,sans-Serif" font-size="10.00">+</text>
<text text-anchor="start" x="25.5" y="-66.5" font-family="Helvetica,sans-Serif" font-size="10.00">apply()</text>
<text text-anchor="start" x="12.5" y="-51.5" font-family="Helvetica,sans-Serif" font-size="10.00">+</text>
<text text-anchor="start" x="25.5" y="-51.5" font-family="Helvetica,sans-Serif" font-size="10.00">apply()</text>
<text text-anchor="start" x="12.5" y="-36.5" font-family="Helvetica,sans-Serif" font-size="10.00">+</text>
<text text-anchor="start" x="25.5" y="-36.5" font-family="Helvetica,sans-Serif" font-size="10.00">apply()</text>
<text text-anchor="start" x="12.5" y="-21.5" font-family="Helvetica,sans-Serif" font-size="10.00">+</text>
<text text-anchor="start" x="25.5" y="-21.5" font-family="Helvetica,sans-Serif" font-size="10.00">apply()</text>
<text text-anchor="start" x="25.5" y="-6.5" font-family="Helvetica,sans-Serif" font-size="10.00">and 48 more...</text>
<polygon fill="#666666" stroke="#666666" points="8.5,-181.5 8.5,-181.5 100.5,-181.5 100.5,-181.5 8.5,-181.5"/>
<polygon fill="#666666" stroke="#666666" points="8.5,-166.5 8.5,-166.5 100.5,-166.5 100.5,-166.5 8.5,-166.5"/>
<polygon fill="none" stroke="#666666" points="8.5,0 8.5,-199 100.5,-199 100.5,0 8.5,0"/>
</a>
</g>
</g>
<!-- Node1&#45;&gt;Node2 -->
<g id="edge1_Node000001_Node000002" class="edge">
<title>Node1&#45;&gt;Node2</title>
<g id="a_edge1_Node000001_Node000002"><a xlink:title=" ">
<path fill="none" stroke="#63b8ff" d="M54.5,-224.42C54.5,-215.97 54.5,-207.47 54.5,-199.09"/>
<polygon fill="none" stroke="#63b8ff" points="51,-224.69 54.5,-234.69 58,-224.69 51,-224.69"/>
</a>
</g>
</g>
</g>
</svg>
