<?xml version="1.0" encoding="UTF-8" standalone="no"?>
<!DOCTYPE svg PUBLIC "-//W3C//DTD SVG 1.1//EN"
 "http://www.w3.org/Graphics/SVG/1.1/DTD/svg11.dtd">
<!-- Generated by graphviz version 2.43.0 (0)
 -->
<!-- Title: sen::CustomType Pages: 1 -->
<svg width="1151pt" height="773pt"
 viewBox="0.00 0.00 1151.00 773.00" xmlns="http://www.w3.org/2000/svg" xmlns:xlink="http://www.w3.org/1999/xlink">
<g id="graph0" class="graph" transform="scale(1 1) rotate(0) translate(4 769)">
<title>sen::CustomType</title>
<!-- Node1 -->
<g id="Node000001" class="node">
<title>Node1</title>
<g id="a_Node000001"><a xlink:title="Represents a user&#45;defined type.">
<polygon fill="#999999" stroke="transparent" points="663,-545 545,-545 545,-466 663,-466 663,-545"/>
<text text-anchor="start" x="562" y="-532.5" font-family="Helvetica,sans-Serif" font-size="10.00">sen::CustomType</text>
<text text-anchor="start" x="602" y="-517.5" font-family="Helvetica,sans-Serif" font-size="10.00"> </text>
<text text-anchor="start" x="549" y="-502.5" font-family="Helvetica,sans-Serif" font-size="10.00">+</text>
<text text-anchor="start" x="562" y="-502.5" font-family="Helvetica,sans-Serif" font-size="10.00">getQualifiedName()</text>
<text text-anchor="start" x="549" y="-487.5" font-family="Helvetica,sans-Serif" font-size="10.00">#</text>
<text text-anchor="start" x="562" y="-487.5" font-family="Helvetica,sans-Serif" font-size="10.00">CustomType()</text>
<text text-anchor="start" x="549" y="-472.5" font-family="Helvetica,sans-Serif" font-size="10.00">#</text>
<text text-anchor="start" x="562" y="-472.5" font-family="Helvetica,sans-Serif" font-size="10.00">~CustomType()</text>
<polygon fill="#666666" stroke="#666666" points="545,-527.5 545,-527.5 663,-527.5 663,-527.5 545,-527.5"/>
<polygon fill="#666666" stroke="#666666" points="545,-512.5 545,-512.5 663,-512.5 663,-512.5 545,-512.5"/>
<polygon fill="none" stroke="#666666" points="545,-466 545,-545 663,-545 663,-466 545,-466"/>
</a>
</g>
</g>
<!-- Node3 -->
<g id="Node000003" class="node">
<title>Node3</title>
<g id="a_Node000003"><a xlink:href="classsen_1_1_alias_type.html" target="_top" xlink:title="Represents an aliased type.">
<polygon fill="white" stroke="transparent" points="118,-364.5 0,-364.5 0,-195.5 118,-195.5 118,-364.5"/>
<text text-anchor="start" x="24" y="-352" font-family="Helvetica,sans-Serif" font-size="10.00">sen::AliasType</text>
<text text-anchor="start" x="57" y="-337" font-family="Helvetica,sans-Serif" font-size="10.00"> </text>
<text text-anchor="start" x="4" y="-322" font-family="Helvetica,sans-Serif" font-size="10.00">+</text>
<text text-anchor="start" x="17" y="-322" font-family="Helvetica,sans-Serif" font-size="10.00">AliasType()</text>
<text text-anchor="start" x="4" y="-307" font-family="Helvetica,sans-Serif" font-size="10.00">+</text>
<text text-anchor="start" x="17" y="-307" font-family="Helvetica,sans-Serif" font-size="10.00">~AliasType()</text>
<text text-anchor="start" x="4" y="-292" font-family="Helvetica,sans-Serif" font-size="10.00">+</text>
<text text-anchor="start" x="17" y="-292" font-family="Helvetica,sans-Serif" font-size="10.00">getAliasedType()</text>
<text text-anchor="start" x="4" y="-277" font-family="Helvetica,sans-Serif" font-size="10.00">+</text>
<text text-anchor="start" x="17" y="-277" font-family="Helvetica,sans-Serif" font-size="10.00">getQualifiedName()</text>
<text text-anchor="start" x="4" y="-262" font-family="Helvetica,sans-Serif" font-size="10.00">+</text>
<text text-anchor="start" x="17" y="-262" font-family="Helvetica,sans-Serif" font-size="10.00">getName()</text>
<text text-anchor="start" x="4" y="-247" font-family="Helvetica,sans-Serif" font-size="10.00">+</text>
<text text-anchor="start" x="17" y="-247" font-family="Helvetica,sans-Serif" font-size="10.00">getDescription()</text>
<text text-anchor="start" x="4" y="-232" font-family="Helvetica,sans-Serif" font-size="10.00">+</text>
<text text-anchor="start" x="17" y="-232" font-family="Helvetica,sans-Serif" font-size="10.00">equals()</text>
<text text-anchor="start" x="4" y="-217" font-family="Helvetica,sans-Serif" font-size="10.00">+</text>
<text text-anchor="start" x="17" y="-217" font-family="Helvetica,sans-Serif" font-size="10.00">isBounded()</text>
<text text-anchor="start" x="4" y="-202" font-family="Helvetica,sans-Serif" font-size="10.00">+</text>
<text text-anchor="start" x="17" y="-202" font-family="Helvetica,sans-Serif" font-size="10.00">make()</text>
<polygon fill="#666666" stroke="#666666" points="0,-347 0,-347 118,-347 118,-347 0,-347"/>
<polygon fill="#666666" stroke="#666666" points="0,-332 0,-332 118,-332 118,-332 0,-332"/>
<polygon fill="none" stroke="#666666" points="0,-195.5 0,-364.5 118,-364.5 118,-195.5 0,-195.5"/>
</a>
</g>
</g>
<!-- Node1&#45;&gt;Node3 -->
<g id="edge2_Node000001_Node000003" class="edge">
<title>Node1&#45;&gt;Node3</title>
<g id="a_edge2_Node000001_Node000003"><a xlink:title=" ">
<path fill="none" stroke="#63b8ff" d="M534.34,-501.61C417.78,-495.48 189.8,-477.62 127,-430 105.59,-413.76 90.72,-389.21 80.48,-364.69"/>
<polygon fill="none" stroke="#63b8ff" points="534.41,-505.12 544.58,-502.13 534.77,-498.12 534.41,-505.12"/>
</a>
</g>
</g>
<!-- Node4 -->
<g id="Node000004" class="node">
<title>Node4</title>
<g id="a_Node000004"><a xlink:href="classsen_1_1_class_type.html" target="_top" xlink:title="Represents a class.">
<polygon fill="white" stroke="transparent" points="313.5,-430 136.5,-430 136.5,-130 313.5,-130 313.5,-430"/>
<text text-anchor="start" x="189" y="-418" font-family="Helvetica,sans-Serif" font-size="10.00">sen::ClassType</text>
<text text-anchor="start" x="223.5" y="-403" font-family="Helvetica,sans-Serif" font-size="10.00"> </text>
<text text-anchor="start" x="141" y="-388" font-family="Helvetica,sans-Serif" font-size="10.00">+</text>
<text text-anchor="start" x="154" y="-388" font-family="Helvetica,sans-Serif" font-size="10.00">ClassType()</text>
<text text-anchor="start" x="141" y="-373" font-family="Helvetica,sans-Serif" font-size="10.00">+</text>
<text text-anchor="start" x="154" y="-373" font-family="Helvetica,sans-Serif" font-size="10.00">~ClassType()</text>
<text text-anchor="start" x="141" y="-358" font-family="Helvetica,sans-Serif" font-size="10.00">+</text>
<text text-anchor="start" x="154" y="-358" font-family="Helvetica,sans-Serif" font-size="10.00">getProperties()</text>
<text text-anchor="start" x="141" y="-343" font-family="Helvetica,sans-Serif" font-size="10.00">+</text>
<text text-anchor="start" x="154" y="-343" font-family="Helvetica,sans-Serif" font-size="10.00">getMethods()</text>
<text text-anchor="start" x="141" y="-328" font-family="Helvetica,sans-Serif" font-size="10.00">+</text>
<text text-anchor="start" x="154" y="-328" font-family="Helvetica,sans-Serif" font-size="10.00">getEvents()</text>
<text text-anchor="start" x="141" y="-313" font-family="Helvetica,sans-Serif" font-size="10.00">+</text>
<text text-anchor="start" x="154" y="-313" font-family="Helvetica,sans-Serif" font-size="10.00">getParents()</text>
<text text-anchor="start" x="141" y="-298" font-family="Helvetica,sans-Serif" font-size="10.00">+</text>
<text text-anchor="start" x="154" y="-298" font-family="Helvetica,sans-Serif" font-size="10.00">getConstructor()</text>
<text text-anchor="start" x="141" y="-283" font-family="Helvetica,sans-Serif" font-size="10.00">+</text>
<text text-anchor="start" x="154" y="-283" font-family="Helvetica,sans-Serif" font-size="10.00">searchPropertyByName()</text>
<text text-anchor="start" x="141" y="-268" font-family="Helvetica,sans-Serif" font-size="10.00">+</text>
<text text-anchor="start" x="154" y="-268" font-family="Helvetica,sans-Serif" font-size="10.00">searchPropertyById()</text>
<text text-anchor="start" x="141" y="-253" font-family="Helvetica,sans-Serif" font-size="10.00">+</text>
<text text-anchor="start" x="154" y="-253" font-family="Helvetica,sans-Serif" font-size="10.00">searchMethodByName()</text>
<text text-anchor="start" x="154" y="-238" font-family="Helvetica,sans-Serif" font-size="10.00">and 17 more...</text>
<text text-anchor="start" x="141" y="-223" font-family="Helvetica,sans-Serif" font-size="10.00">+</text>
<text text-anchor="start" x="154" y="-223" font-family="Helvetica,sans-Serif" font-size="10.00">make()</text>
<text text-anchor="start" x="141" y="-208" font-family="Helvetica,sans-Serif" font-size="10.00">+</text>
<text text-anchor="start" x="154" y="-208" font-family="Helvetica,sans-Serif" font-size="10.00">makeImplementation()</text>
<text text-anchor="start" x="141" y="-193" font-family="Helvetica,sans-Serif" font-size="10.00">+</text>
<text text-anchor="start" x="154" y="-193" font-family="Helvetica,sans-Serif" font-size="10.00">computeMethodHash()</text>
<text text-anchor="start" x="141" y="-178" font-family="Helvetica,sans-Serif" font-size="10.00">+</text>
<text text-anchor="start" x="154" y="-178" font-family="Helvetica,sans-Serif" font-size="10.00">computeEventHash()</text>
<text text-anchor="start" x="141" y="-163" font-family="Helvetica,sans-Serif" font-size="10.00">+</text>
<text text-anchor="start" x="154" y="-163" font-family="Helvetica,sans-Serif" font-size="10.00">computeTypeGetterFuncName()</text>
<text text-anchor="start" x="141" y="-148" font-family="Helvetica,sans-Serif" font-size="10.00">+</text>
<text text-anchor="start" x="154" y="-148" font-family="Helvetica,sans-Serif" font-size="10.00">computeInstanceMakerFunc</text>
<text text-anchor="start" x="154" y="-137" font-family="Helvetica,sans-Serif" font-size="10.00">Name()</text>
<polygon fill="#666666" stroke="#666666" points="137,-413 137,-413 314,-413 314,-413 137,-413"/>
<polygon fill="#666666" stroke="#666666" points="137,-398 137,-398 314,-398 314,-398 137,-398"/>
<polygon fill="none" stroke="#666666" points="136.5,-130 136.5,-430 313.5,-430 313.5,-130 136.5,-130"/>
</a>
</g>
</g>
<!-- Node1&#45;&gt;Node4 -->
<g id="edge3_Node000001_Node000004" class="edge">
<title>Node1&#45;&gt;Node4</title>
<g id="a_edge3_Node000001_Node000004"><a xlink:title=" ">
<path fill="none" stroke="#63b8ff" d="M534.44,-500.09C473.41,-493.17 384.84,-475.44 322,-430 319.12,-427.92 316.31,-425.73 313.56,-423.43"/>
<polygon fill="none" stroke="#63b8ff" points="534.43,-503.61 544.75,-501.18 535.17,-496.65 534.43,-503.61"/>
</a>
</g>
</g>
<!-- Node5 -->
<g id="Node000005" class="node">
<title>Node5</title>
<g id="a_Node000005"><a xlink:href="classsen_1_1_enum_type.html" target="_top" xlink:title="Represents an enumeration.">
<polygon fill="white" stroke="transparent" points="458.5,-387 331.5,-387 331.5,-173 458.5,-173 458.5,-387"/>
<text text-anchor="start" x="358.5" y="-375" font-family="Helvetica,sans-Serif" font-size="10.00">sen::EnumType</text>
<text text-anchor="start" x="393.5" y="-360" font-family="Helvetica,sans-Serif" font-size="10.00"> </text>
<text text-anchor="start" x="336" y="-345" font-family="Helvetica,sans-Serif" font-size="10.00">+</text>
<text text-anchor="start" x="349" y="-345" font-family="Helvetica,sans-Serif" font-size="10.00">EnumType()</text>
<text text-anchor="start" x="336" y="-330" font-family="Helvetica,sans-Serif" font-size="10.00">+</text>
<text text-anchor="start" x="349" y="-330" font-family="Helvetica,sans-Serif" font-size="10.00">~EnumType()</text>
<text text-anchor="start" x="336" y="-315" font-family="Helvetica,sans-Serif" font-size="10.00">+</text>
<text text-anchor="start" x="349" y="-315" font-family="Helvetica,sans-Serif" font-size="10.00">getStorageType()</text>
<text text-anchor="start" x="336" y="-300" font-family="Helvetica,sans-Serif" font-size="10.00">+</text>
<text text-anchor="start" x="349" y="-300" font-family="Helvetica,sans-Serif" font-size="10.00">getEnumFromKey()</text>
<text text-anchor="start" x="336" y="-285" font-family="Helvetica,sans-Serif" font-size="10.00">+</text>
<text text-anchor="start" x="349" y="-285" font-family="Helvetica,sans-Serif" font-size="10.00">getEnumFromName()</text>
<text text-anchor="start" x="336" y="-270" font-family="Helvetica,sans-Serif" font-size="10.00">+</text>
<text text-anchor="start" x="349" y="-270" font-family="Helvetica,sans-Serif" font-size="10.00">getEnums()</text>
<text text-anchor="start" x="336" y="-255" font-family="Helvetica,sans-Serif" font-size="10.00">+</text>
<text text-anchor="start" x="349" y="-255" font-family="Helvetica,sans-Serif" font-size="10.00">getQualifiedName()</text>
<text text-anchor="start" x="336" y="-240" font-family="Helvetica,sans-Serif" font-size="10.00">+</text>
<text text-anchor="start" x="349" y="-240" font-family="Helvetica,sans-Serif" font-size="10.00">getName()</text>
<text text-anchor="start" x="336" y="-225" font-family="Helvetica,sans-Serif" font-size="10.00">+</text>
<text text-anchor="start" x="349" y="-225" font-family="Helvetica,sans-Serif" font-size="10.00">getDescription()</text>
<text text-anchor="start" x="336" y="-210" font-family="Helvetica,sans-Serif" font-size="10.00">+</text>
<text text-anchor="start" x="349" y="-210" font-family="Helvetica,sans-Serif" font-size="10.00">equals()</text>
<text text-anchor="start" x="336" y="-195" font-family="Helvetica,sans-Serif" font-size="10.00">+</text>
<text text-anchor="start" x="349" y="-195" font-family="Helvetica,sans-Serif" font-size="10.00">isBounded()</text>
<text text-anchor="start" x="336" y="-180" font-family="Helvetica,sans-Serif" font-size="10.00">+</text>
<text text-anchor="start" x="349" y="-180" font-family="Helvetica,sans-Serif" font-size="10.00">make()</text>
<polygon fill="#666666" stroke="#666666" points="332,-370 332,-370 459,-370 459,-370 332,-370"/>
<polygon fill="#666666" stroke="#666666" points="332,-355 332,-355 459,-355 459,-355 332,-355"/>
<polygon fill="none" stroke="#666666" points="331.5,-173 331.5,-387 458.5,-387 458.5,-173 331.5,-173"/>
</a>
</g>
</g>
<!-- Node1&#45;&gt;Node5 -->
<g id="edge4_Node000001_Node000005" class="edge">
<title>Node1&#45;&gt;Node5</title>
<g id="a_edge4_Node000001_Node000005"><a xlink:title=" ">
<path fill="none" stroke="#63b8ff" d="M535.52,-477.29C511.96,-465.43 486.8,-449.68 468,-430 456.06,-417.5 445.71,-402.68 436.85,-387.31"/>
<polygon fill="none" stroke="#63b8ff" points="534.28,-480.58 544.8,-481.81 537.34,-474.28 534.28,-480.58"/>
</a>
</g>
</g>
<!-- Node6 -->
<g id="Node000006" class="node">
<title>Node6</title>
<g id="a_Node000006"><a xlink:href="classsen_1_1_optional_type.html" target="_top" xlink:title="Represents an optional type.">
<polygon fill="white" stroke="transparent" points="595,-364.5 477,-364.5 477,-195.5 595,-195.5 595,-364.5"/>
<text text-anchor="start" x="492" y="-352" font-family="Helvetica,sans-Serif" font-size="10.00">sen::OptionalType</text>
<text text-anchor="start" x="534" y="-337" font-family="Helvetica,sans-Serif" font-size="10.00"> </text>
<text text-anchor="start" x="481" y="-322" font-family="Helvetica,sans-Serif" font-size="10.00">+</text>
<text text-anchor="start" x="494" y="-322" font-family="Helvetica,sans-Serif" font-size="10.00">OptionalType()</text>
<text text-anchor="start" x="481" y="-307" font-family="Helvetica,sans-Serif" font-size="10.00">+</text>
<text text-anchor="start" x="494" y="-307" font-family="Helvetica,sans-Serif" font-size="10.00">~OptionalType()</text>
<text text-anchor="start" x="481" y="-292" font-family="Helvetica,sans-Serif" font-size="10.00">+</text>
<text text-anchor="start" x="494" y="-292" font-family="Helvetica,sans-Serif" font-size="10.00">getType()</text>
<text text-anchor="start" x="481" y="-277" font-family="Helvetica,sans-Serif" font-size="10.00">+</text>
<text text-anchor="start" x="494" y="-277" font-family="Helvetica,sans-Serif" font-size="10.00">getQualifiedName()</text>
<text text-anchor="start" x="481" y="-262" font-family="Helvetica,sans-Serif" font-size="10.00">+</text>
<text text-anchor="start" x="494" y="-262" font-family="Helvetica,sans-Serif" font-size="10.00">getName()</text>
<text text-anchor="start" x="481" y="-247" font-family="Helvetica,sans-Serif" font-size="10.00">+</text>
<text text-anchor="start" x="494" y="-247" font-family="Helvetica,sans-Serif" font-size="10.00">getDescription()</text>
<text text-anchor="start" x="481" y="-232" font-family="Helvetica,sans-Serif" font-size="10.00">+</text>
<text text-anchor="start" x="494" y="-232" font-family="Helvetica,sans-Serif" font-size="10.00">equals()</text>
<text text-anchor="start" x="481" y="-217" font-family="Helvetica,sans-Serif" font-size="10.00">+</text>
<text text-anchor="start" x="494" y="-217" font-family="Helvetica,sans-Serif" font-size="10.00">isBounded()</text>
<text text-anchor="start" x="481" y="-202" font-family="Helvetica,sans-Serif" font-size="10.00">+</text>
<text text-anchor="start" x="494" y="-202" font-family="Helvetica,sans-Serif" font-size="10.00">make()</text>
<polygon fill="#666666" stroke="#666666" points="477,-347 477,-347 595,-347 595,-347 477,-347"/>
<polygon fill="#666666" stroke="#666666" points="477,-332 477,-332 595,-332 595,-332 477,-332"/>
<polygon fill="none" stroke="#666666" points="477,-195.5 477,-364.5 595,-364.5 595,-195.5 477,-195.5"/>
</a>
</g>
</g>
<!-- Node1&#45;&gt;Node6 -->
<g id="edge5_Node000001_Node000006" class="edge">
<title>Node1&#45;&gt;Node6</title>
<g id="a_edge5_Node000001_Node000006"><a xlink:title=" ">
<path fill="none" stroke="#63b8ff" d="M589.23,-455.96C581.11,-429.26 570.8,-395.37 561.42,-364.55"/>
<polygon fill="none" stroke="#63b8ff" points="585.97,-457.28 592.23,-465.82 592.67,-455.24 585.97,-457.28"/>
</a>
</g>
</g>
<!-- Node7 -->
<g id="Node000007" class="node">
<title>Node7</title>
<g id="a_Node000007"><a xlink:href="classsen_1_1_quantity_type.html" target="_top" xlink:title="Represents a quantity.">
<polygon fill="white" stroke="transparent" points="731,-409.5 613,-409.5 613,-150.5 731,-150.5 731,-409.5"/>
<text text-anchor="start" x="628" y="-397" font-family="Helvetica,sans-Serif" font-size="10.00">sen::QuantityType</text>
<text text-anchor="start" x="670" y="-382" font-family="Helvetica,sans-Serif" font-size="10.00"> </text>
<text text-anchor="start" x="617" y="-367" font-family="Helvetica,sans-Serif" font-size="10.00">+</text>
<text text-anchor="start" x="630" y="-367" font-family="Helvetica,sans-Serif" font-size="10.00">QuantityType()</text>
<text text-anchor="start" x="617" y="-352" font-family="Helvetica,sans-Serif" font-size="10.00">+</text>
<text text-anchor="start" x="630" y="-352" font-family="Helvetica,sans-Serif" font-size="10.00">~QuantityType()</text>
<text text-anchor="start" x="617" y="-337" font-family="Helvetica,sans-Serif" font-size="10.00">+</text>
<text text-anchor="start" x="630" y="-337" font-family="Helvetica,sans-Serif" font-size="10.00">getElementType()</text>
<text text-anchor="start" x="617" y="-322" font-family="Helvetica,sans-Serif" font-size="10.00">+</text>
<text text-anchor="start" x="630" y="-322" font-family="Helvetica,sans-Serif" font-size="10.00">getUnit()</text>
<text text-anchor="start" x="617" y="-307" font-family="Helvetica,sans-Serif" font-size="10.00">+</text>
<text text-anchor="start" x="630" y="-307" font-family="Helvetica,sans-Serif" font-size="10.00">getUnit()</text>
<text text-anchor="start" x="617" y="-292" font-family="Helvetica,sans-Serif" font-size="10.00">+</text>
<text text-anchor="start" x="630" y="-292" font-family="Helvetica,sans-Serif" font-size="10.00">getMaxValue()</text>
<text text-anchor="start" x="617" y="-277" font-family="Helvetica,sans-Serif" font-size="10.00">+</text>
<text text-anchor="start" x="630" y="-277" font-family="Helvetica,sans-Serif" font-size="10.00">getMinValue()</text>
<text text-anchor="start" x="617" y="-262" font-family="Helvetica,sans-Serif" font-size="10.00">+</text>
<text text-anchor="start" x="630" y="-262" font-family="Helvetica,sans-Serif" font-size="10.00">getQualifiedName()</text>
<text text-anchor="start" x="617" y="-247" font-family="Helvetica,sans-Serif" font-size="10.00">+</text>
<text text-anchor="start" x="630" y="-247" font-family="Helvetica,sans-Serif" font-size="10.00">getName()</text>
<text text-anchor="start" x="617" y="-232" font-family="Helvetica,sans-Serif" font-size="10.00">+</text>
<text text-anchor="start" x="630" y="-232" font-family="Helvetica,sans-Serif" font-size="10.00">getDescription()</text>
<text text-anchor="start" x="617" y="-217" font-family="Helvetica,sans-Serif" font-size="10.00">+</text>
<text text-anchor="start" x="630" y="-217" font-family="Helvetica,sans-Serif" font-size="10.00">equals()</text>
<text text-anchor="start" x="617" y="-202" font-family="Helvetica,sans-Serif" font-size="10.00">+</text>
<text text-anchor="start" x="630" y="-202" font-family="Helvetica,sans-Serif" font-size="10.00">isBounded()</text>
<text text-anchor="start" x="617" y="-187" font-family="Helvetica,sans-Serif" font-size="10.00">+</text>
<text text-anchor="start" x="630" y="-187" font-family="Helvetica,sans-Serif" font-size="10.00">make()</text>
<text text-anchor="start" x="617" y="-172" font-family="Helvetica,sans-Serif" font-size="10.00">#</text>
<text text-anchor="start" x="630" y="-172" font-family="Helvetica,sans-Serif" font-size="10.00">getSpec()</text>
<text text-anchor="start" x="617" y="-157" font-family="Helvetica,sans-Serif" font-size="10.00">#</text>
<text text-anchor="start" x="630" y="-157" font-family="Helvetica,sans-Serif" font-size="10.00">QuantityType()</text>
<polygon fill="#666666" stroke="#666666" points="613,-392 613,-392 731,-392 731,-392 613,-392"/>
<polygon fill="#666666" stroke="#666666" points="613,-377 613,-377 731,-377 731,-377 613,-377"/>
<polygon fill="none" stroke="#666666" points="613,-150.5 613,-409.5 731,-409.5 731,-150.5 613,-150.5"/>
</a>
</g>
</g>
<!-- Node1&#45;&gt;Node7 -->
<g id="edge6_Node000001_Node000007" class="edge">
<title>Node1&#45;&gt;Node7</title>
<g id="a_edge6_Node000001_Node000007"><a xlink:title=" ">
<path fill="none" stroke="#63b8ff" d="M618.74,-456.07C622.96,-442.17 627.79,-426.31 632.76,-409.96"/>
<polygon fill="none" stroke="#63b8ff" points="615.33,-455.24 615.77,-465.82 622.03,-457.28 615.33,-455.24"/>
</a>
</g>
</g>
<!-- Node10 -->
<g id="Node000010" class="node">
<title>Node10</title>
<g id="a_Node000010"><a xlink:href="classsen_1_1_sequence_type.html" target="_top" xlink:title="Represents a sequence type.">
<polygon fill="white" stroke="transparent" points="867,-379.5 749,-379.5 749,-180.5 867,-180.5 867,-379.5"/>
<text text-anchor="start" x="761" y="-367" font-family="Helvetica,sans-Serif" font-size="10.00">sen::SequenceType</text>
<text text-anchor="start" x="806" y="-352" font-family="Helvetica,sans-Serif" font-size="10.00"> </text>
<text text-anchor="start" x="753" y="-337" font-family="Helvetica,sans-Serif" font-size="10.00">+</text>
<text text-anchor="start" x="766" y="-337" font-family="Helvetica,sans-Serif" font-size="10.00">SequenceType()</text>
<text text-anchor="start" x="753" y="-322" font-family="Helvetica,sans-Serif" font-size="10.00">+</text>
<text text-anchor="start" x="766" y="-322" font-family="Helvetica,sans-Serif" font-size="10.00">~SequenceType()</text>
<text text-anchor="start" x="753" y="-307" font-family="Helvetica,sans-Serif" font-size="10.00">+</text>
<text text-anchor="start" x="766" y="-307" font-family="Helvetica,sans-Serif" font-size="10.00">getElementType()</text>
<text text-anchor="start" x="753" y="-292" font-family="Helvetica,sans-Serif" font-size="10.00">+</text>
<text text-anchor="start" x="766" y="-292" font-family="Helvetica,sans-Serif" font-size="10.00">getMaxSize()</text>
<text text-anchor="start" x="753" y="-277" font-family="Helvetica,sans-Serif" font-size="10.00">+</text>
<text text-anchor="start" x="766" y="-277" font-family="Helvetica,sans-Serif" font-size="10.00">hasFixedSize()</text>
<text text-anchor="start" x="753" y="-262" font-family="Helvetica,sans-Serif" font-size="10.00">+</text>
<text text-anchor="start" x="766" y="-262" font-family="Helvetica,sans-Serif" font-size="10.00">getQualifiedName()</text>
<text text-anchor="start" x="753" y="-247" font-family="Helvetica,sans-Serif" font-size="10.00">+</text>
<text text-anchor="start" x="766" y="-247" font-family="Helvetica,sans-Serif" font-size="10.00">getName()</text>
<text text-anchor="start" x="753" y="-232" font-family="Helvetica,sans-Serif" font-size="10.00">+</text>
<text text-anchor="start" x="766" y="-232" font-family="Helvetica,sans-Serif" font-size="10.00">getDescription()</text>
<text text-anchor="start" x="753" y="-217" font-family="Helvetica,sans-Serif" font-size="10.00">+</text>
<text text-anchor="start" x="766" y="-217" font-family="Helvetica,sans-Serif" font-size="10.00">equals()</text>
<text text-anchor="start" x="753" y="-202" font-family="Helvetica,sans-Serif" font-size="10.00">+</text>
<text text-anchor="start" x="766" y="-202" font-family="Helvetica,sans-Serif" font-size="10.00">isBounded()</text>
<text text-anchor="start" x="753" y="-187" font-family="Helvetica,sans-Serif" font-size="10.00">+</text>
<text text-anchor="start" x="766" y="-187" font-family="Helvetica,sans-Serif" font-size="10.00">make()</text>
<polygon fill="#666666" stroke="#666666" points="749,-362 749,-362 867,-362 867,-362 749,-362"/>
<polygon fill="#666666" stroke="#666666" points="749,-347 749,-347 867,-347 867,-347 749,-347"/>
<polygon fill="none" stroke="#666666" points="749,-180.5 749,-379.5 867,-379.5 867,-180.5 749,-180.5"/>
</a>
</g>
</g>
<!-- Node1&#45;&gt;Node10 -->
<g id="edge9_Node000001_Node000010" class="edge">
<title>Node1&#45;&gt;Node10</title>
<g id="a_edge9_Node000001_Node000010"><a xlink:title=" ">
<path fill="none" stroke="#63b8ff" d="M672.16,-477.88C695.93,-466.02 721.31,-450.11 740,-430 753.55,-415.42 764.78,-397.67 773.93,-379.58"/>
<polygon fill="none" stroke="#63b8ff" points="670.63,-474.73 663.14,-482.23 673.67,-481.04 670.63,-474.73"/>
</a>
</g>
</g>
<!-- Node11 -->
<g id="Node000011" class="node">
<title>Node11</title>
<g id="a_Node000011"><a xlink:href="classsen_1_1_struct_type.html" target="_top" xlink:title="Represents a structure type.">
<polygon fill="white" stroke="transparent" points="1007,-387 885,-387 885,-173 1007,-173 1007,-387"/>
<text text-anchor="start" x="908.5" y="-375" font-family="Helvetica,sans-Serif" font-size="10.00">sen::StructType</text>
<text text-anchor="start" x="944" y="-360" font-family="Helvetica,sans-Serif" font-size="10.00"> </text>
<text text-anchor="start" x="889" y="-345" font-family="Helvetica,sans-Serif" font-size="10.00">+</text>
<text text-anchor="start" x="902" y="-345" font-family="Helvetica,sans-Serif" font-size="10.00">StructType()</text>
<text text-anchor="start" x="889" y="-330" font-family="Helvetica,sans-Serif" font-size="10.00">+</text>
<text text-anchor="start" x="902" y="-330" font-family="Helvetica,sans-Serif" font-size="10.00">~StructType()</text>
<text text-anchor="start" x="889" y="-315" font-family="Helvetica,sans-Serif" font-size="10.00">+</text>
<text text-anchor="start" x="902" y="-315" font-family="Helvetica,sans-Serif" font-size="10.00">getFieldFromName()</text>
<text text-anchor="start" x="889" y="-300" font-family="Helvetica,sans-Serif" font-size="10.00">+</text>
<text text-anchor="start" x="902" y="-300" font-family="Helvetica,sans-Serif" font-size="10.00">getFields()</text>
<text text-anchor="start" x="889" y="-285" font-family="Helvetica,sans-Serif" font-size="10.00">+</text>
<text text-anchor="start" x="902" y="-285" font-family="Helvetica,sans-Serif" font-size="10.00">getAllFields()</text>
<text text-anchor="start" x="889" y="-270" font-family="Helvetica,sans-Serif" font-size="10.00">+</text>
<text text-anchor="start" x="902" y="-270" font-family="Helvetica,sans-Serif" font-size="10.00">getParent()</text>
<text text-anchor="start" x="889" y="-255" font-family="Helvetica,sans-Serif" font-size="10.00">+</text>
<text text-anchor="start" x="902" y="-255" font-family="Helvetica,sans-Serif" font-size="10.00">getQualifiedName()</text>
<text text-anchor="start" x="889" y="-240" font-family="Helvetica,sans-Serif" font-size="10.00">+</text>
<text text-anchor="start" x="902" y="-240" font-family="Helvetica,sans-Serif" font-size="10.00">getName()</text>
<text text-anchor="start" x="889" y="-225" font-family="Helvetica,sans-Serif" font-size="10.00">+</text>
<text text-anchor="start" x="902" y="-225" font-family="Helvetica,sans-Serif" font-size="10.00">getDescription()</text>
<text text-anchor="start" x="889" y="-210" font-family="Helvetica,sans-Serif" font-size="10.00">+</text>
<text text-anchor="start" x="902" y="-210" font-family="Helvetica,sans-Serif" font-size="10.00">equals()</text>
<text text-anchor="start" x="889" y="-195" font-family="Helvetica,sans-Serif" font-size="10.00">+</text>
<text text-anchor="start" x="902" y="-195" font-family="Helvetica,sans-Serif" font-size="10.00">isBounded()</text>
<text text-anchor="start" x="889" y="-180" font-family="Helvetica,sans-Serif" font-size="10.00">+</text>
<text text-anchor="start" x="902" y="-180" font-family="Helvetica,sans-Serif" font-size="10.00">make()</text>
<polygon fill="#666666" stroke="#666666" points="885,-370 885,-370 1007,-370 1007,-370 885,-370"/>
<polygon fill="#666666" stroke="#666666" points="885,-355 885,-355 1007,-355 1007,-355 885,-355"/>
<polygon fill="none" stroke="#666666" points="885,-173 885,-387 1007,-387 1007,-173 885,-173"/>
</a>
</g>
</g>
<!-- Node1&#45;&gt;Node11 -->
<g id="edge10_Node000001_Node000011" class="edge">
<title>Node1&#45;&gt;Node11</title>
<g id="a_edge10_Node000001_Node000011"><a xlink:title=" ">
<path fill="none" stroke="#63b8ff" d="M673.22,-501.41C733.09,-495.35 818.8,-478.12 876,-430 889.89,-418.32 901.19,-403.26 910.34,-387.23"/>
<polygon fill="none" stroke="#63b8ff" points="672.73,-497.94 663.09,-502.35 673.38,-504.91 672.73,-497.94"/>
</a>
</g>
</g>
<!-- Node12 -->
<g id="Node000012" class="node">
<title>Node12</title>
<g id="a_Node000012"><a xlink:href="classsen_1_1_variant_type.html" target="_top" xlink:title="Represents a variant type.">
<polygon fill="white" stroke="transparent" points="1143,-372 1025,-372 1025,-188 1143,-188 1143,-372"/>
<text text-anchor="start" x="1043.5" y="-360" font-family="Helvetica,sans-Serif" font-size="10.00">sen::VariantType</text>
<text text-anchor="start" x="1082" y="-345" font-family="Helvetica,sans-Serif" font-size="10.00"> </text>
<text text-anchor="start" x="1029" y="-330" font-family="Helvetica,sans-Serif" font-size="10.00">+</text>
<text text-anchor="start" x="1042" y="-330" font-family="Helvetica,sans-Serif" font-size="10.00">VariantType()</text>
<text text-anchor="start" x="1029" y="-315" font-family="Helvetica,sans-Serif" font-size="10.00">+</text>
<text text-anchor="start" x="1042" y="-315" font-family="Helvetica,sans-Serif" font-size="10.00">~VariantType()</text>
<text text-anchor="start" x="1029" y="-300" font-family="Helvetica,sans-Serif" font-size="10.00">+</text>
<text text-anchor="start" x="1042" y="-300" font-family="Helvetica,sans-Serif" font-size="10.00">getFieldFromKey()</text>
<text text-anchor="start" x="1029" y="-285" font-family="Helvetica,sans-Serif" font-size="10.00">+</text>
<text text-anchor="start" x="1042" y="-285" font-family="Helvetica,sans-Serif" font-size="10.00">getFields()</text>
<text text-anchor="start" x="1029" y="-270" font-family="Helvetica,sans-Serif" font-size="10.00">+</text>
<text text-anchor="start" x="1042" y="-270" font-family="Helvetica,sans-Serif" font-size="10.00">getQualifiedName()</text>
<text text-anchor="start" x="1029" y="-255" font-family="Helvetica,sans-Serif" font-size="10.00">+</text>
<text text-anchor="start" x="1042" y="-255" font-family="Helvetica,sans-Serif" font-size="10.00">getName()</text>
<text text-anchor="start" x="1029" y="-240" font-family="Helvetica,sans-Serif" font-size="10.00">+</text>
<text text-anchor="start" x="1042" y="-240" font-family="Helvetica,sans-Serif" font-size="10.00">getDescription()</text>
<text text-anchor="start" x="1029" y="-225" font-family="Helvetica,sans-Serif" font-size="10.00">+</text>
<text text-anchor="start" x="1042" y="-225" font-family="Helvetica,sans-Serif" font-size="10.00">equals()</text>
<text text-anchor="start" x="1029" y="-210" font-family="Helvetica,sans-Serif" font-size="10.00">+</text>
<text text-anchor="start" x="1042" y="-210" font-family="Helvetica,sans-Serif" font-size="10.00">isBounded()</text>
<text text-anchor="start" x="1029" y="-195" font-family="Helvetica,sans-Serif" font-size="10.00">+</text>
<text text-anchor="start" x="1042" y="-195" font-family="Helvetica,sans-Serif" font-size="10.00">make()</text>
<polygon fill="#666666" stroke="#666666" points="1025,-355 1025,-355 1143,-355 1143,-355 1025,-355"/>
<polygon fill="#666666" stroke="#666666" points="1025,-340 1025,-340 1143,-340 1143,-340 1025,-340"/>
<polygon fill="none" stroke="#666666" points="1025,-188 1025,-372 1143,-372 1143,-188 1025,-188"/>
</a>
</g>
</g>
<!-- Node1&#45;&gt;Node12 -->
<g id="edge11_Node000001_Node000012" class="edge">
<title>Node1&#45;&gt;Node12</title>
<g id="a_edge11_Node000001_Node000012"><a xlink:title=" ">
<path fill="none" stroke="#63b8ff" d="M673.15,-499.69C776.2,-491.27 963.59,-470.74 1016,-430 1034.97,-415.25 1048.83,-394.01 1058.88,-372.16"/>
<polygon fill="none" stroke="#63b8ff" points="672.83,-496.21 663.14,-500.49 673.39,-503.18 672.83,-496.21"/>
</a>
</g>
</g>
<!-- Node2 -->
<g id="Node000002" class="node">
<title>Node2</title>
<g id="a_Node000002"><a xlink:href="classsen_1_1_type.html" target="_top" xlink:title="Represents a type that can be used to define variables and arguments for methods or functions....">
<polygon fill="white" stroke="transparent" points="679.5,-765 528.5,-765 528.5,-581 679.5,-581 679.5,-765"/>
<text text-anchor="start" x="581.5" y="-753" font-family="Helvetica,sans-Serif" font-size="10.00">sen::Type</text>
<text text-anchor="start" x="602.5" y="-738" font-family="Helvetica,sans-Serif" font-size="10.00"> </text>
<text text-anchor="start" x="533" y="-723" font-family="Helvetica,sans-Serif" font-size="10.00">+</text>
<text text-anchor="start" x="546" y="-723" font-family="Helvetica,sans-Serif" font-size="10.00">~Type()</text>
<text text-anchor="start" x="533" y="-708" font-family="Helvetica,sans-Serif" font-size="10.00">+</text>
<text text-anchor="start" x="546" y="-708" font-family="Helvetica,sans-Serif" font-size="10.00">getName()</text>
<text text-anchor="start" x="533" y="-693" font-family="Helvetica,sans-Serif" font-size="10.00">+</text>
<text text-anchor="start" x="546" y="-693" font-family="Helvetica,sans-Serif" font-size="10.00">getDescription()</text>
<text text-anchor="start" x="533" y="-678" font-family="Helvetica,sans-Serif" font-size="10.00">+</text>
<text text-anchor="start" x="546" y="-678" font-family="Helvetica,sans-Serif" font-size="10.00">accept()</text>
<text text-anchor="start" x="533" y="-663" font-family="Helvetica,sans-Serif" font-size="10.00">+</text>
<text text-anchor="start" x="546" y="-663" font-family="Helvetica,sans-Serif" font-size="10.00">isBounded()</text>
<text text-anchor="start" x="533" y="-648" font-family="Helvetica,sans-Serif" font-size="10.00">+</text>
<text text-anchor="start" x="546" y="-648" font-family="Helvetica,sans-Serif" font-size="10.00">getHash()</text>
<text text-anchor="start" x="533" y="-633" font-family="Helvetica,sans-Serif" font-size="10.00">+</text>
<text text-anchor="start" x="546" y="-633" font-family="Helvetica,sans-Serif" font-size="10.00">equals()</text>
<text text-anchor="start" x="533" y="-618" font-family="Helvetica,sans-Serif" font-size="10.00">+</text>
<text text-anchor="start" x="546" y="-618" font-family="Helvetica,sans-Serif" font-size="10.00">validateLowerCaseName()</text>
<text text-anchor="start" x="533" y="-603" font-family="Helvetica,sans-Serif" font-size="10.00">+</text>
<text text-anchor="start" x="546" y="-603" font-family="Helvetica,sans-Serif" font-size="10.00">validateTypeName()</text>
<text text-anchor="start" x="533" y="-588" font-family="Helvetica,sans-Serif" font-size="10.00">#</text>
<text text-anchor="start" x="546" y="-588" font-family="Helvetica,sans-Serif" font-size="10.00">Type()</text>
<polygon fill="#666666" stroke="#666666" points="529,-748 529,-748 680,-748 680,-748 529,-748"/>
<polygon fill="#666666" stroke="#666666" points="529,-733 529,-733 680,-733 680,-733 529,-733"/>
<polygon fill="none" stroke="#666666" points="528.5,-581 528.5,-765 679.5,-765 679.5,-581 528.5,-581"/>
</a>
</g>
</g>
<!-- Node2&#45;&gt;Node1 -->
<g id="edge1_Node000001_Node000002" class="edge">
<title>Node2&#45;&gt;Node1</title>
<g id="a_edge1_Node000001_Node000002"><a xlink:title=" ">
<path fill="none" stroke="#63b8ff" d="M604,-570.44C604,-561.59 604,-553.04 604,-545.23"/>
<polygon fill="none" stroke="#63b8ff" points="600.5,-570.54 604,-580.54 607.5,-570.54 600.5,-570.54"/>
</a>
</g>
</g>
<!-- Node8 -->
<g id="Node000008" class="node">
<title>Node8</title>
<g id="a_Node000008"><a xlink:href="classsen_1_1_duration_type.html" target="_top" xlink:title="Represents a sen::Duration (a time duration).">
<polygon fill="white" stroke="transparent" points="660,-94 558,-94 558,0 660,0 660,-94"/>
<text text-anchor="start" x="565" y="-82" font-family="Helvetica,sans-Serif" font-size="10.00">sen::DurationType</text>
<text text-anchor="start" x="607" y="-67" font-family="Helvetica,sans-Serif" font-size="10.00"> </text>
<text text-anchor="start" x="562" y="-52" font-family="Helvetica,sans-Serif" font-size="10.00">+</text>
<text text-anchor="start" x="575" y="-52" font-family="Helvetica,sans-Serif" font-size="10.00">DurationType()</text>
<text text-anchor="start" x="562" y="-37" font-family="Helvetica,sans-Serif" font-size="10.00">+</text>
<text text-anchor="start" x="575" y="-37" font-family="Helvetica,sans-Serif" font-size="10.00">~DurationType()</text>
<text text-anchor="start" x="562" y="-22" font-family="Helvetica,sans-Serif" font-size="10.00">+</text>
<text text-anchor="start" x="575" y="-22" font-family="Helvetica,sans-Serif" font-size="10.00">equals()</text>
<text text-anchor="start" x="562" y="-7" font-family="Helvetica,sans-Serif" font-size="10.00">+</text>
<text text-anchor="start" x="575" y="-7" font-family="Helvetica,sans-Serif" font-size="10.00">get()</text>
<polygon fill="#666666" stroke="#666666" points="558,-77 558,-77 660,-77 660,-77 558,-77"/>
<polygon fill="#666666" stroke="#666666" points="558,-62 558,-62 660,-62 660,-62 558,-62"/>
<polygon fill="none" stroke="#666666" points="558,0 558,-94 660,-94 660,0 558,0"/>
</a>
</g>
</g>
<!-- Node7&#45;&gt;Node8 -->
<g id="edge7_Node000007_Node000008" class="edge">
<title>Node7&#45;&gt;Node8</title>
<g id="a_edge7_Node000007_Node000008"><a xlink:title=" ">
<path fill="none" stroke="#63b8ff" d="M634.22,-140.49C629.7,-123.89 625.35,-107.96 621.58,-94.13"/>
<polygon fill="none" stroke="#63b8ff" points="630.9,-141.6 636.91,-150.33 637.65,-139.76 630.9,-141.6"/>
</a>
</g>
</g>
<!-- Node9 -->
<g id="Node000009" class="node">
<title>Node9</title>
<g id="a_Node000009"><a xlink:href="classsen_1_1_timestamp_type.html" target="_top" xlink:title="Represents a sen::TimeStamp (a point in time).">
<polygon fill="white" stroke="transparent" points="793.5,-94 678.5,-94 678.5,0 793.5,0 793.5,-94"/>
<text text-anchor="start" x="685.5" y="-82" font-family="Helvetica,sans-Serif" font-size="10.00">sen::TimestampType</text>
<text text-anchor="start" x="734.5" y="-67" font-family="Helvetica,sans-Serif" font-size="10.00"> </text>
<text text-anchor="start" x="683" y="-52" font-family="Helvetica,sans-Serif" font-size="10.00">+</text>
<text text-anchor="start" x="696" y="-52" font-family="Helvetica,sans-Serif" font-size="10.00">TimestampType()</text>
<text text-anchor="start" x="683" y="-37" font-family="Helvetica,sans-Serif" font-size="10.00">+</text>
<text text-anchor="start" x="696" y="-37" font-family="Helvetica,sans-Serif" font-size="10.00">~TimestampType()</text>
<text text-anchor="start" x="683" y="-22" font-family="Helvetica,sans-Serif" font-size="10.00">+</text>
<text text-anchor="start" x="696" y="-22" font-family="Helvetica,sans-Serif" font-size="10.00">equals()</text>
<text text-anchor="start" x="683" y="-7" font-family="Helvetica,sans-Serif" font-size="10.00">+</text>
<text text-anchor="start" x="696" y="-7" font-family="Helvetica,sans-Serif" font-size="10.00">get()</text>
<polygon fill="#666666" stroke="#666666" points="679,-77 679,-77 794,-77 794,-77 679,-77"/>
<polygon fill="#666666" stroke="#666666" points="679,-62 679,-62 794,-62 794,-62 679,-62"/>
<polygon fill="none" stroke="#666666" points="678.5,0 678.5,-94 793.5,-94 793.5,0 678.5,0"/>
</a>
</g>
</g>
<!-- Node7&#45;&gt;Node9 -->
<g id="edge8_Node000007_Node000009" class="edge">
<title>Node7&#45;&gt;Node9</title>
<g id="a_edge8_Node000007_Node000009"><a xlink:title=" ">
<path fill="none" stroke="#63b8ff" d="M710.37,-140.49C714.97,-123.89 719.39,-107.96 723.22,-94.13"/>
<polygon fill="none" stroke="#63b8ff" points="706.95,-139.76 707.65,-150.33 713.69,-141.63 706.95,-139.76"/>
</a>
</g>
</g>
</g>
</svg>
