<?xml version="1.0" encoding="UTF-8" standalone="no"?>
<!DOCTYPE svg PUBLIC "-//W3C//DTD SVG 1.1//EN"
 "http://www.w3.org/Graphics/SVG/1.1/DTD/svg11.dtd">
<!-- Generated by graphviz version 2.43.0 (0)
 -->
<!-- Title: sen::ObjectMux Pages: 1 -->
<svg width="368pt" height="796pt"
 viewBox="0.00 0.00 367.50 796.00" xmlns="http://www.w3.org/2000/svg" xmlns:xlink="http://www.w3.org/1999/xlink">
<g id="graph0" class="graph" transform="scale(1 1) rotate(0) translate(4 792)">
<title>sen::ObjectMux</title>
<!-- Node1 -->
<g id="Node000001" class="node">
<title>Node1</title>
<g id="a_Node000001"><a xlink:title="Converts multiple object providers into one. Providers might reside in different threads....">
<polygon fill="#999999" stroke="transparent" points="264.5,-371 71.5,-371 71.5,0 264.5,0 264.5,-371"/>
<text text-anchor="start" x="130.5" y="-358.5" font-family="Helvetica,sans-Serif" font-size="10.00">sen::ObjectMux</text>
<text text-anchor="start" x="166.5" y="-343.5" font-family="Helvetica,sans-Serif" font-size="10.00"> </text>
<text text-anchor="start" x="76" y="-328.5" font-family="Helvetica,sans-Serif" font-size="10.00">+</text>
<text text-anchor="start" x="89" y="-328.5" font-family="Helvetica,sans-Serif" font-size="10.00">ObjectMux()</text>
<text text-anchor="start" x="76" y="-313.5" font-family="Helvetica,sans-Serif" font-size="10.00">+</text>
<text text-anchor="start" x="89" y="-313.5" font-family="Helvetica,sans-Serif" font-size="10.00">~ObjectMux()</text>
<text text-anchor="start" x="76" y="-298.5" font-family="Helvetica,sans-Serif" font-size="10.00">+</text>
<text text-anchor="start" x="89" y="-298.5" font-family="Helvetica,sans-Serif" font-size="10.00">addListener()</text>
<text text-anchor="start" x="76" y="-283.5" font-family="Helvetica,sans-Serif" font-size="10.00">+</text>
<text text-anchor="start" x="89" y="-283.5" font-family="Helvetica,sans-Serif" font-size="10.00">removeListener()</text>
<text text-anchor="start" x="76" y="-268.5" font-family="Helvetica,sans-Serif" font-size="10.00">+</text>
<text text-anchor="start" x="89" y="-268.5" font-family="Helvetica,sans-Serif" font-size="10.00">hasListener()</text>
<text text-anchor="start" x="76" y="-253.5" font-family="Helvetica,sans-Serif" font-size="10.00">+</text>
<text text-anchor="start" x="89" y="-253.5" font-family="Helvetica,sans-Serif" font-size="10.00">hasListeners()</text>
<text text-anchor="start" x="76" y="-238.5" font-family="Helvetica,sans-Serif" font-size="10.00">+</text>
<text text-anchor="start" x="89" y="-238.5" font-family="Helvetica,sans-Serif" font-size="10.00">addMuxedListener()</text>
<text text-anchor="start" x="76" y="-223.5" font-family="Helvetica,sans-Serif" font-size="10.00">+</text>
<text text-anchor="start" x="89" y="-223.5" font-family="Helvetica,sans-Serif" font-size="10.00">removeMuxedListener()</text>
<text text-anchor="start" x="76" y="-208.5" font-family="Helvetica,sans-Serif" font-size="10.00">+</text>
<text text-anchor="start" x="89" y="-208.5" font-family="Helvetica,sans-Serif" font-size="10.00">hasMuxedListener()</text>
<text text-anchor="start" x="76" y="-193.5" font-family="Helvetica,sans-Serif" font-size="10.00">#</text>
<text text-anchor="start" x="89" y="-193.5" font-family="Helvetica,sans-Serif" font-size="10.00">notifyAddedOnExistingObjects()</text>
<text text-anchor="start" x="76" y="-178.5" font-family="Helvetica,sans-Serif" font-size="10.00">#</text>
<text text-anchor="start" x="89" y="-178.5" font-family="Helvetica,sans-Serif" font-size="10.00">notifyRemovedOnExistingObjects()</text>
<text text-anchor="start" x="76" y="-163.5" font-family="Helvetica,sans-Serif" font-size="10.00">#</text>
<text text-anchor="start" x="89" y="-163.5" font-family="Helvetica,sans-Serif" font-size="10.00">notifyObjectsAdded()</text>
<text text-anchor="start" x="76" y="-148.5" font-family="Helvetica,sans-Serif" font-size="10.00">#</text>
<text text-anchor="start" x="89" y="-148.5" font-family="Helvetica,sans-Serif" font-size="10.00">notifyObjectsRemoved()</text>
<text text-anchor="start" x="76" y="-133.5" font-family="Helvetica,sans-Serif" font-size="10.00">#</text>
<text text-anchor="start" x="89" y="-133.5" font-family="Helvetica,sans-Serif" font-size="10.00">notifyMuxedAddedOnExisting</text>
<text text-anchor="start" x="89" y="-122.5" font-family="Helvetica,sans-Serif" font-size="10.00">Objects()</text>
<text text-anchor="start" x="76" y="-107.5" font-family="Helvetica,sans-Serif" font-size="10.00">#</text>
<text text-anchor="start" x="89" y="-107.5" font-family="Helvetica,sans-Serif" font-size="10.00">notifyMuxedRemovedOnExisting</text>
<text text-anchor="start" x="89" y="-96.5" font-family="Helvetica,sans-Serif" font-size="10.00">Objects()</text>
<text text-anchor="start" x="76" y="-81.5" font-family="Helvetica,sans-Serif" font-size="10.00">#</text>
<text text-anchor="start" x="89" y="-81.5" font-family="Helvetica,sans-Serif" font-size="10.00">notifyExistingObjectsReadded()</text>
<text text-anchor="start" x="76" y="-66.5" font-family="Helvetica,sans-Serif" font-size="10.00">#</text>
<text text-anchor="start" x="89" y="-66.5" font-family="Helvetica,sans-Serif" font-size="10.00">notifyObjectsRefCountReduced()</text>
<text text-anchor="start" x="76" y="-51.5" font-family="Helvetica,sans-Serif" font-size="10.00">#</text>
<text text-anchor="start" x="89" y="-51.5" font-family="Helvetica,sans-Serif" font-size="10.00">callOnExistingObjectsReadded()</text>
<text text-anchor="start" x="76" y="-36.5" font-family="Helvetica,sans-Serif" font-size="10.00">#</text>
<text text-anchor="start" x="89" y="-36.5" font-family="Helvetica,sans-Serif" font-size="10.00">callOnObjectsRefCountReduced()</text>
<text text-anchor="start" x="76" y="-21.5" font-family="Helvetica,sans-Serif" font-size="10.00">#</text>
<text text-anchor="start" x="89" y="-21.5" font-family="Helvetica,sans-Serif" font-size="10.00">onObjectsAdded()</text>
<text text-anchor="start" x="76" y="-6.5" font-family="Helvetica,sans-Serif" font-size="10.00">#</text>
<text text-anchor="start" x="89" y="-6.5" font-family="Helvetica,sans-Serif" font-size="10.00">onObjectsRemoved()</text>
<polygon fill="#666666" stroke="#666666" points="72,-353.5 72,-353.5 265,-353.5 265,-353.5 72,-353.5"/>
<polygon fill="#666666" stroke="#666666" points="72,-338.5 72,-338.5 265,-338.5 265,-338.5 72,-338.5"/>
<polygon fill="none" stroke="#666666" points="71.5,0 71.5,-371 264.5,-371 264.5,0 71.5,0"/>
</a>
</g>
</g>
<!-- Node2 -->
<g id="Node000002" class="node">
<title>Node2</title>
<g id="a_Node000002"><a xlink:href="classsen_1_1_object_provider_listener.html" target="_top" xlink:title="Allows reacting to objects being added or removed to an object provider. It automatically unregisters...">
<polygon fill="white" stroke="transparent" points="148,-611.5 0,-611.5 0,-487.5 148,-487.5 148,-611.5"/>
<text text-anchor="start" x="6.5" y="-599.5" font-family="Helvetica,sans-Serif" font-size="10.00">sen::ObjectProviderListener</text>
<text text-anchor="start" x="72" y="-584.5" font-family="Helvetica,sans-Serif" font-size="10.00"> </text>
<text text-anchor="start" x="4" y="-569.5" font-family="Helvetica,sans-Serif" font-size="10.00">+</text>
<text text-anchor="start" x="17" y="-569.5" font-family="Helvetica,sans-Serif" font-size="10.00">ObjectProviderListener()</text>
<text text-anchor="start" x="4" y="-554.5" font-family="Helvetica,sans-Serif" font-size="10.00">+</text>
<text text-anchor="start" x="17" y="-554.5" font-family="Helvetica,sans-Serif" font-size="10.00">~ObjectProviderListener()</text>
<text text-anchor="start" x="4" y="-539.5" font-family="Helvetica,sans-Serif" font-size="10.00">+</text>
<text text-anchor="start" x="17" y="-539.5" font-family="Helvetica,sans-Serif" font-size="10.00">isRemoteParticipant()</text>
<text text-anchor="start" x="4" y="-524.5" font-family="Helvetica,sans-Serif" font-size="10.00">+</text>
<text text-anchor="start" x="17" y="-524.5" font-family="Helvetica,sans-Serif" font-size="10.00">isLocalParticipant()</text>
<text text-anchor="start" x="4" y="-509.5" font-family="Helvetica,sans-Serif" font-size="10.00">#</text>
<text text-anchor="start" x="17" y="-509.5" font-family="Helvetica,sans-Serif" font-size="10.00">onObjectsAdded()</text>
<text text-anchor="start" x="4" y="-494.5" font-family="Helvetica,sans-Serif" font-size="10.00">#</text>
<text text-anchor="start" x="17" y="-494.5" font-family="Helvetica,sans-Serif" font-size="10.00">onObjectsRemoved()</text>
<polygon fill="#666666" stroke="#666666" points="0,-594.5 0,-594.5 148,-594.5 148,-594.5 0,-594.5"/>
<polygon fill="#666666" stroke="#666666" points="0,-579.5 0,-579.5 148,-579.5 148,-579.5 0,-579.5"/>
<polygon fill="none" stroke="#666666" points="0,-487.5 0,-611.5 148,-611.5 148,-487.5 0,-487.5"/>
</a>
</g>
</g>
<!-- Node2&#45;&gt;Node1 -->
<g id="edge1_Node000001_Node000002" class="edge">
<title>Node2&#45;&gt;Node1</title>
<g id="a_edge1_Node000001_Node000002"><a xlink:title=" ">
<path fill="none" stroke="#63b8ff" d="M92.48,-477.35C100.46,-446.59 110.22,-409.01 120.03,-371.22"/>
<polygon fill="none" stroke="#63b8ff" points="89.07,-476.53 89.95,-487.09 95.85,-478.29 89.07,-476.53"/>
</a>
</g>
</g>
<!-- Node3 -->
<g id="Node000003" class="node">
<title>Node3</title>
<g id="a_Node000003"><a xlink:href="classsen_1_1_object_provider.html" target="_top" xlink:title="Base class for an entity that is able to produce objects.">
<polygon fill="white" stroke="transparent" points="359.5,-692 166.5,-692 166.5,-407 359.5,-407 359.5,-692"/>
<text text-anchor="start" x="215.5" y="-679.5" font-family="Helvetica,sans-Serif" font-size="10.00">sen::ObjectProvider</text>
<text text-anchor="start" x="261.5" y="-664.5" font-family="Helvetica,sans-Serif" font-size="10.00"> </text>
<text text-anchor="start" x="171" y="-649.5" font-family="Helvetica,sans-Serif" font-size="10.00">+</text>
<text text-anchor="start" x="184" y="-649.5" font-family="Helvetica,sans-Serif" font-size="10.00">ObjectProvider()</text>
<text text-anchor="start" x="171" y="-634.5" font-family="Helvetica,sans-Serif" font-size="10.00">+</text>
<text text-anchor="start" x="184" y="-634.5" font-family="Helvetica,sans-Serif" font-size="10.00">~ObjectProvider()</text>
<text text-anchor="start" x="171" y="-619.5" font-family="Helvetica,sans-Serif" font-size="10.00">+</text>
<text text-anchor="start" x="184" y="-619.5" font-family="Helvetica,sans-Serif" font-size="10.00">addListener()</text>
<text text-anchor="start" x="171" y="-604.5" font-family="Helvetica,sans-Serif" font-size="10.00">+</text>
<text text-anchor="start" x="184" y="-604.5" font-family="Helvetica,sans-Serif" font-size="10.00">removeListener()</text>
<text text-anchor="start" x="171" y="-589.5" font-family="Helvetica,sans-Serif" font-size="10.00">+</text>
<text text-anchor="start" x="184" y="-589.5" font-family="Helvetica,sans-Serif" font-size="10.00">hasListener()</text>
<text text-anchor="start" x="171" y="-574.5" font-family="Helvetica,sans-Serif" font-size="10.00">+</text>
<text text-anchor="start" x="184" y="-574.5" font-family="Helvetica,sans-Serif" font-size="10.00">hasListeners()</text>
<text text-anchor="start" x="171" y="-559.5" font-family="Helvetica,sans-Serif" font-size="10.00">#</text>
<text text-anchor="start" x="184" y="-559.5" font-family="Helvetica,sans-Serif" font-size="10.00">notifyObjectsAdded()</text>
<text text-anchor="start" x="171" y="-544.5" font-family="Helvetica,sans-Serif" font-size="10.00">#</text>
<text text-anchor="start" x="184" y="-544.5" font-family="Helvetica,sans-Serif" font-size="10.00">notifyObjectsRemoved()</text>
<text text-anchor="start" x="171" y="-529.5" font-family="Helvetica,sans-Serif" font-size="10.00">#</text>
<text text-anchor="start" x="184" y="-529.5" font-family="Helvetica,sans-Serif" font-size="10.00">listenerAdded()</text>
<text text-anchor="start" x="171" y="-514.5" font-family="Helvetica,sans-Serif" font-size="10.00">#</text>
<text text-anchor="start" x="184" y="-514.5" font-family="Helvetica,sans-Serif" font-size="10.00">listenerRemoved()</text>
<text text-anchor="start" x="171" y="-499.5" font-family="Helvetica,sans-Serif" font-size="10.00">#</text>
<text text-anchor="start" x="184" y="-499.5" font-family="Helvetica,sans-Serif" font-size="10.00">notifyAddedOnExistingObjects()</text>
<text text-anchor="start" x="171" y="-484.5" font-family="Helvetica,sans-Serif" font-size="10.00">#</text>
<text text-anchor="start" x="184" y="-484.5" font-family="Helvetica,sans-Serif" font-size="10.00">notifyRemovedOnExistingObjects()</text>
<text text-anchor="start" x="171" y="-469.5" font-family="Helvetica,sans-Serif" font-size="10.00">#</text>
<text text-anchor="start" x="184" y="-469.5" font-family="Helvetica,sans-Serif" font-size="10.00">notifyRemovedOnExistingObjects</text>
<text text-anchor="start" x="184" y="-458.5" font-family="Helvetica,sans-Serif" font-size="10.00">ForAllListeners()</text>
<text text-anchor="start" x="171" y="-443.5" font-family="Helvetica,sans-Serif" font-size="10.00">#</text>
<text text-anchor="start" x="184" y="-443.5" font-family="Helvetica,sans-Serif" font-size="10.00">callOnObjectsAdded()</text>
<text text-anchor="start" x="171" y="-428.5" font-family="Helvetica,sans-Serif" font-size="10.00">#</text>
<text text-anchor="start" x="184" y="-428.5" font-family="Helvetica,sans-Serif" font-size="10.00">callOnObjectsRemoved()</text>
<text text-anchor="start" x="171" y="-413.5" font-family="Helvetica,sans-Serif" font-size="10.00">#</text>
<text text-anchor="start" x="184" y="-413.5" font-family="Helvetica,sans-Serif" font-size="10.00">getListeners()</text>
<polygon fill="#666666" stroke="#666666" points="167,-674.5 167,-674.5 360,-674.5 360,-674.5 167,-674.5"/>
<polygon fill="#666666" stroke="#666666" points="167,-659.5 167,-659.5 360,-659.5 360,-659.5 167,-659.5"/>
<polygon fill="none" stroke="#666666" points="166.5,-407 166.5,-692 359.5,-692 359.5,-407 166.5,-407"/>
</a>
</g>
</g>
<!-- Node3&#45;&gt;Node1 -->
<g id="edge2_Node000001_Node000003" class="edge">
<title>Node3&#45;&gt;Node1</title>
<g id="a_edge2_Node000001_Node000003"><a xlink:title=" ">
<path fill="none" stroke="#63b8ff" d="M223.31,-397.26C221.04,-388.6 218.74,-379.86 216.44,-371.1"/>
<polygon fill="none" stroke="#63b8ff" points="219.94,-398.2 225.86,-406.99 226.71,-396.43 219.94,-398.2"/>
</a>
</g>
</g>
<!-- Node4 -->
<g id="Node000004" class="node">
<title>Node4</title>
<g id="a_Node000004"><a xlink:title=" ">
<polygon fill="white" stroke="transparent" points="341.5,-788 184.5,-788 184.5,-728 341.5,-728 341.5,-788"/>
<text text-anchor="start" x="190" y="-776" font-family="Helvetica,sans-Serif" font-size="10.00">std::enable_shared</text>
<text text-anchor="start" x="190" y="-765" font-family="Helvetica,sans-Serif" font-size="10.00">_from_this&lt; ObjectProvider &gt;</text>
<text text-anchor="start" x="261.5" y="-750" font-family="Helvetica,sans-Serif" font-size="10.00"> </text>
<text text-anchor="start" x="261.5" y="-735" font-family="Helvetica,sans-Serif" font-size="10.00"> </text>
<polygon fill="#666666" stroke="#666666" points="185,-760 185,-760 342,-760 342,-760 185,-760"/>
<polygon fill="#666666" stroke="#666666" points="185,-745 185,-745 342,-745 342,-745 185,-745"/>
<polygon fill="none" stroke="#666666" points="184.5,-728 184.5,-788 341.5,-788 341.5,-728 184.5,-728"/>
</a>
</g>
</g>
<!-- Node4&#45;&gt;Node3 -->
<g id="edge3_Node000003_Node000004" class="edge">
<title>Node4&#45;&gt;Node3</title>
<g id="a_edge3_Node000003_Node000004"><a xlink:title=" ">
<path fill="none" stroke="#63b8ff" d="M263,-717.69C263,-709.85 263,-701.2 263,-692.08"/>
<polygon fill="none" stroke="#63b8ff" points="259.5,-717.85 263,-727.85 266.5,-717.85 259.5,-717.85"/>
</a>
</g>
</g>
</g>
</svg>
