<?xml version="1.0" encoding="UTF-8" standalone="no"?>
<!DOCTYPE svg PUBLIC "-//W3C//DTD SVG 1.1//EN"
 "http://www.w3.org/Graphics/SVG/1.1/DTD/svg11.dtd">
<!-- Generated by graphviz version 2.43.0 (0)
 -->
<!-- Title: sen::RealType Pages: 1 -->
<svg width="159pt" height="612pt"
 viewBox="0.00 0.00 159.00 612.00" xmlns="http://www.w3.org/2000/svg" xmlns:xlink="http://www.w3.org/1999/xlink">
<g id="graph0" class="graph" transform="scale(1 1) rotate(0) translate(4 608)">
<title>sen::RealType</title>
<!-- Node1 -->
<g id="Node000001" class="node">
<title>Node1</title>
<g id="a_Node000001"><a xlink:title="Represents a floating point numeric type.">
<polygon fill="#999999" stroke="transparent" points="122,-109 29,-109 29,0 122,0 122,-109"/>
<text text-anchor="start" x="42" y="-96.5" font-family="Helvetica,sans-Serif" font-size="10.00">sen::RealType</text>
<text text-anchor="start" x="74" y="-81.5" font-family="Helvetica,sans-Serif" font-size="10.00"> </text>
<text text-anchor="start" x="33.5" y="-66.5" font-family="Helvetica,sans-Serif" font-size="10.00">+</text>
<text text-anchor="start" x="46.5" y="-66.5" font-family="Helvetica,sans-Serif" font-size="10.00">RealType()</text>
<text text-anchor="start" x="33.5" y="-51.5" font-family="Helvetica,sans-Serif" font-size="10.00">+</text>
<text text-anchor="start" x="46.5" y="-51.5" font-family="Helvetica,sans-Serif" font-size="10.00">~RealType()</text>
<text text-anchor="start" x="33.5" y="-36.5" font-family="Helvetica,sans-Serif" font-size="10.00">+</text>
<text text-anchor="start" x="46.5" y="-36.5" font-family="Helvetica,sans-Serif" font-size="10.00">getMaxValue()</text>
<text text-anchor="start" x="33.5" y="-21.5" font-family="Helvetica,sans-Serif" font-size="10.00">+</text>
<text text-anchor="start" x="46.5" y="-21.5" font-family="Helvetica,sans-Serif" font-size="10.00">getMinValue()</text>
<text text-anchor="start" x="33.5" y="-6.5" font-family="Helvetica,sans-Serif" font-size="10.00">+</text>
<text text-anchor="start" x="46.5" y="-6.5" font-family="Helvetica,sans-Serif" font-size="10.00">getEpsilon()</text>
<polygon fill="#666666" stroke="#666666" points="29.5,-91.5 29.5,-91.5 122.5,-91.5 122.5,-91.5 29.5,-91.5"/>
<polygon fill="#666666" stroke="#666666" points="29.5,-76.5 29.5,-76.5 122.5,-76.5 122.5,-76.5 29.5,-76.5"/>
<polygon fill="none" stroke="#666666" points="29,0 29,-109 122,-109 122,0 29,0"/>
</a>
</g>
</g>
<!-- Node2 -->
<g id="Node000002" class="node">
<title>Node2</title>
<g id="a_Node000002"><a xlink:href="classsen_1_1_numeric_type.html" target="_top" xlink:title="Represents a numeric native type.">
<polygon fill="white" stroke="transparent" points="126,-284 25,-284 25,-145 126,-145 126,-284"/>
<text text-anchor="start" x="32" y="-271.5" font-family="Helvetica,sans-Serif" font-size="10.00">sen::NumericType</text>
<text text-anchor="start" x="74" y="-256.5" font-family="Helvetica,sans-Serif" font-size="10.00"> </text>
<text text-anchor="start" x="29.5" y="-241.5" font-family="Helvetica,sans-Serif" font-size="10.00">+</text>
<text text-anchor="start" x="42.5" y="-241.5" font-family="Helvetica,sans-Serif" font-size="10.00">isSigned()</text>
<text text-anchor="start" x="29.5" y="-226.5" font-family="Helvetica,sans-Serif" font-size="10.00">+</text>
<text text-anchor="start" x="42.5" y="-226.5" font-family="Helvetica,sans-Serif" font-size="10.00">hasInfinity()</text>
<text text-anchor="start" x="29.5" y="-211.5" font-family="Helvetica,sans-Serif" font-size="10.00">+</text>
<text text-anchor="start" x="42.5" y="-211.5" font-family="Helvetica,sans-Serif" font-size="10.00">isIEC559()</text>
<text text-anchor="start" x="29.5" y="-196.5" font-family="Helvetica,sans-Serif" font-size="10.00">+</text>
<text text-anchor="start" x="42.5" y="-196.5" font-family="Helvetica,sans-Serif" font-size="10.00">getByteSize()</text>
<text text-anchor="start" x="29.5" y="-181.5" font-family="Helvetica,sans-Serif" font-size="10.00">+</text>
<text text-anchor="start" x="42.5" y="-181.5" font-family="Helvetica,sans-Serif" font-size="10.00">isBounded()</text>
<text text-anchor="start" x="29.5" y="-166.5" font-family="Helvetica,sans-Serif" font-size="10.00">#</text>
<text text-anchor="start" x="42.5" y="-166.5" font-family="Helvetica,sans-Serif" font-size="10.00">NumericType()</text>
<text text-anchor="start" x="29.5" y="-151.5" font-family="Helvetica,sans-Serif" font-size="10.00">#</text>
<text text-anchor="start" x="42.5" y="-151.5" font-family="Helvetica,sans-Serif" font-size="10.00">~NumericType()</text>
<polygon fill="#666666" stroke="#666666" points="25.5,-266.5 25.5,-266.5 126.5,-266.5 126.5,-266.5 25.5,-266.5"/>
<polygon fill="#666666" stroke="#666666" points="25.5,-251.5 25.5,-251.5 126.5,-251.5 126.5,-251.5 25.5,-251.5"/>
<polygon fill="none" stroke="#666666" points="25,-145 25,-284 126,-284 126,-145 25,-145"/>
</a>
</g>
</g>
<!-- Node2&#45;&gt;Node1 -->
<g id="edge1_Node000001_Node000002" class="edge">
<title>Node2&#45;&gt;Node1</title>
<g id="a_edge1_Node000001_Node000002"><a xlink:title=" ">
<path fill="none" stroke="#63b8ff" d="M75.5,-134.65C75.5,-126.1 75.5,-117.54 75.5,-109.39"/>
<polygon fill="none" stroke="#63b8ff" points="72,-134.66 75.5,-144.66 79,-134.66 72,-134.66"/>
</a>
</g>
</g>
<!-- Node3 -->
<g id="Node000003" class="node">
<title>Node3</title>
<g id="a_Node000003"><a xlink:href="classsen_1_1_native_type.html" target="_top" xlink:title="Represents a native (built&#45;in) type that can be created on the stack or sent in a message.">
<polygon fill="white" stroke="transparent" points="121.5,-384 29.5,-384 29.5,-320 121.5,-320 121.5,-384"/>
<text text-anchor="start" x="36" y="-372" font-family="Helvetica,sans-Serif" font-size="10.00">sen::NativeType</text>
<text text-anchor="start" x="73.5" y="-357" font-family="Helvetica,sans-Serif" font-size="10.00"> </text>
<text text-anchor="start" x="33.5" y="-342" font-family="Helvetica,sans-Serif" font-size="10.00">#</text>
<text text-anchor="start" x="46.5" y="-342" font-family="Helvetica,sans-Serif" font-size="10.00">NativeType()</text>
<text text-anchor="start" x="33.5" y="-327" font-family="Helvetica,sans-Serif" font-size="10.00">#</text>
<text text-anchor="start" x="46.5" y="-327" font-family="Helvetica,sans-Serif" font-size="10.00">~NativeType()</text>
<polygon fill="#666666" stroke="#666666" points="29.5,-367 29.5,-367 121.5,-367 121.5,-367 29.5,-367"/>
<polygon fill="#666666" stroke="#666666" points="29.5,-352 29.5,-352 121.5,-352 121.5,-352 29.5,-352"/>
<polygon fill="none" stroke="#666666" points="29.5,-320 29.5,-384 121.5,-384 121.5,-320 29.5,-320"/>
</a>
</g>
</g>
<!-- Node3&#45;&gt;Node2 -->
<g id="edge2_Node000002_Node000003" class="edge">
<title>Node3&#45;&gt;Node2</title>
<g id="a_edge2_Node000002_Node000003"><a xlink:title=" ">
<path fill="none" stroke="#63b8ff" d="M75.5,-309.69C75.5,-301.62 75.5,-292.95 75.5,-284.26"/>
<polygon fill="none" stroke="#63b8ff" points="72,-309.91 75.5,-319.91 79,-309.91 72,-309.91"/>
</a>
</g>
</g>
<!-- Node4 -->
<g id="Node000004" class="node">
<title>Node4</title>
<g id="a_Node000004"><a xlink:href="classsen_1_1_type.html" target="_top" xlink:title="Represents a type that can be used to define variables and arguments for methods or functions....">
<polygon fill="white" stroke="transparent" points="151,-604 0,-604 0,-420 151,-420 151,-604"/>
<text text-anchor="start" x="53" y="-592" font-family="Helvetica,sans-Serif" font-size="10.00">sen::Type</text>
<text text-anchor="start" x="74" y="-577" font-family="Helvetica,sans-Serif" font-size="10.00"> </text>
<text text-anchor="start" x="4.5" y="-562" font-family="Helvetica,sans-Serif" font-size="10.00">+</text>
<text text-anchor="start" x="17.5" y="-562" font-family="Helvetica,sans-Serif" font-size="10.00">~Type()</text>
<text text-anchor="start" x="4.5" y="-547" font-family="Helvetica,sans-Serif" font-size="10.00">+</text>
<text text-anchor="start" x="17.5" y="-547" font-family="Helvetica,sans-Serif" font-size="10.00">getName()</text>
<text text-anchor="start" x="4.5" y="-532" font-family="Helvetica,sans-Serif" font-size="10.00">+</text>
<text text-anchor="start" x="17.5" y="-532" font-family="Helvetica,sans-Serif" font-size="10.00">getDescription()</text>
<text text-anchor="start" x="4.5" y="-517" font-family="Helvetica,sans-Serif" font-size="10.00">+</text>
<text text-anchor="start" x="17.5" y="-517" font-family="Helvetica,sans-Serif" font-size="10.00">accept()</text>
<text text-anchor="start" x="4.5" y="-502" font-family="Helvetica,sans-Serif" font-size="10.00">+</text>
<text text-anchor="start" x="17.5" y="-502" font-family="Helvetica,sans-Serif" font-size="10.00">isBounded()</text>
<text text-anchor="start" x="4.5" y="-487" font-family="Helvetica,sans-Serif" font-size="10.00">+</text>
<text text-anchor="start" x="17.5" y="-487" font-family="Helvetica,sans-Serif" font-size="10.00">getHash()</text>
<text text-anchor="start" x="4.5" y="-472" font-family="Helvetica,sans-Serif" font-size="10.00">+</text>
<text text-anchor="start" x="17.5" y="-472" font-family="Helvetica,sans-Serif" font-size="10.00">equals()</text>
<text text-anchor="start" x="4.5" y="-457" font-family="Helvetica,sans-Serif" font-size="10.00">+</text>
<text text-anchor="start" x="17.5" y="-457" font-family="Helvetica,sans-Serif" font-size="10.00">validateLowerCaseName()</text>
<text text-anchor="start" x="4.5" y="-442" font-family="Helvetica,sans-Serif" font-size="10.00">+</text>
<text text-anchor="start" x="17.5" y="-442" font-family="Helvetica,sans-Serif" font-size="10.00">validateTypeName()</text>
<text text-anchor="start" x="4.5" y="-427" font-family="Helvetica,sans-Serif" font-size="10.00">#</text>
<text text-anchor="start" x="17.5" y="-427" font-family="Helvetica,sans-Serif" font-size="10.00">Type()</text>
<polygon fill="#666666" stroke="#666666" points="0.5,-587 0.5,-587 151.5,-587 151.5,-587 0.5,-587"/>
<polygon fill="#666666" stroke="#666666" points="0.5,-572 0.5,-572 151.5,-572 151.5,-572 0.5,-572"/>
<polygon fill="none" stroke="#666666" points="0,-420 0,-604 151,-604 151,-420 0,-420"/>
</a>
</g>
</g>
<!-- Node4&#45;&gt;Node3 -->
<g id="edge3_Node000003_Node000004" class="edge">
<title>Node4&#45;&gt;Node3</title>
<g id="a_edge3_Node000003_Node000004"><a xlink:title=" ">
<path fill="none" stroke="#63b8ff" d="M75.5,-409.26C75.5,-400.29 75.5,-391.74 75.5,-384.14"/>
<polygon fill="none" stroke="#63b8ff" points="72,-409.55 75.5,-419.55 79,-409.55 72,-409.55"/>
</a>
</g>
</g>
</g>
</svg>
