<?xml version="1.0" encoding="UTF-8" standalone="no"?>
<!DOCTYPE svg PUBLIC "-//W3C//DTD SVG 1.1//EN"
 "http://www.w3.org/Graphics/SVG/1.1/DTD/svg11.dtd">
<!-- Generated by graphviz version 2.43.0 (0)
 -->
<!-- Title: sen::kernel::KernelApi Pages: 1 -->
<svg width="879pt" height="532pt"
 viewBox="0.00 0.00 878.50 532.00" xmlns="http://www.w3.org/2000/svg" xmlns:xlink="http://www.w3.org/1999/xlink">
<g id="graph0" class="graph" transform="scale(1 1) rotate(0) translate(4 528)">
<title>sen::kernel::KernelApi</title>
<!-- Node1 -->
<g id="Node000001" class="node">
<title>Node1</title>
<g id="a_Node000001"><a xlink:title="User&#45;facing kernel functions.">
<polygon fill="#999999" stroke="transparent" points="465.5,-524 325.5,-524 325.5,-295 465.5,-295 465.5,-524"/>
<text text-anchor="start" x="342.5" y="-511.5" font-family="Helvetica,sans-Serif" font-size="10.00">sen::kernel::KernelApi</text>
<text text-anchor="start" x="393.5" y="-496.5" font-family="Helvetica,sans-Serif" font-size="10.00"> </text>
<text text-anchor="start" x="329.5" y="-481.5" font-family="Helvetica,sans-Serif" font-size="10.00">+</text>
<text text-anchor="start" x="342.5" y="-481.5" font-family="Helvetica,sans-Serif" font-size="10.00">KernelApi()</text>
<text text-anchor="start" x="329.5" y="-466.5" font-family="Helvetica,sans-Serif" font-size="10.00">+</text>
<text text-anchor="start" x="342.5" y="-466.5" font-family="Helvetica,sans-Serif" font-size="10.00">getTypes()</text>
<text text-anchor="start" x="329.5" y="-451.5" font-family="Helvetica,sans-Serif" font-size="10.00">+</text>
<text text-anchor="start" x="342.5" y="-451.5" font-family="Helvetica,sans-Serif" font-size="10.00">requestKernelStop()</text>
<text text-anchor="start" x="329.5" y="-436.5" font-family="Helvetica,sans-Serif" font-size="10.00">+</text>
<text text-anchor="start" x="342.5" y="-436.5" font-family="Helvetica,sans-Serif" font-size="10.00">getSource()</text>
<text text-anchor="start" x="329.5" y="-421.5" font-family="Helvetica,sans-Serif" font-size="10.00">+</text>
<text text-anchor="start" x="342.5" y="-421.5" font-family="Helvetica,sans-Serif" font-size="10.00">getSource()</text>
<text text-anchor="start" x="329.5" y="-406.5" font-family="Helvetica,sans-Serif" font-size="10.00">+</text>
<text text-anchor="start" x="342.5" y="-406.5" font-family="Helvetica,sans-Serif" font-size="10.00">getSessionsDiscoverer()</text>
<text text-anchor="start" x="329.5" y="-391.5" font-family="Helvetica,sans-Serif" font-size="10.00">+</text>
<text text-anchor="start" x="342.5" y="-391.5" font-family="Helvetica,sans-Serif" font-size="10.00">fetchOwnerInfo()</text>
<text text-anchor="start" x="329.5" y="-376.5" font-family="Helvetica,sans-Serif" font-size="10.00">+</text>
<text text-anchor="start" x="342.5" y="-376.5" font-family="Helvetica,sans-Serif" font-size="10.00">getAppName()</text>
<text text-anchor="start" x="329.5" y="-361.5" font-family="Helvetica,sans-Serif" font-size="10.00">+</text>
<text text-anchor="start" x="342.5" y="-361.5" font-family="Helvetica,sans-Serif" font-size="10.00">getWorkQueue()</text>
<text text-anchor="start" x="329.5" y="-346.5" font-family="Helvetica,sans-Serif" font-size="10.00">+</text>
<text text-anchor="start" x="342.5" y="-346.5" font-family="Helvetica,sans-Serif" font-size="10.00">selectAllFrom()</text>
<text text-anchor="start" x="329.5" y="-331.5" font-family="Helvetica,sans-Serif" font-size="10.00">+</text>
<text text-anchor="start" x="342.5" y="-331.5" font-family="Helvetica,sans-Serif" font-size="10.00">selectAllFrom()</text>
<text text-anchor="start" x="329.5" y="-316.5" font-family="Helvetica,sans-Serif" font-size="10.00">+</text>
<text text-anchor="start" x="342.5" y="-316.5" font-family="Helvetica,sans-Serif" font-size="10.00">selectFrom()</text>
<text text-anchor="start" x="329.5" y="-301.5" font-family="Helvetica,sans-Serif" font-size="10.00">+</text>
<text text-anchor="start" x="342.5" y="-301.5" font-family="Helvetica,sans-Serif" font-size="10.00">getConfigFilePath()</text>
<polygon fill="#666666" stroke="#666666" points="325.5,-506.5 325.5,-506.5 465.5,-506.5 465.5,-506.5 325.5,-506.5"/>
<polygon fill="#666666" stroke="#666666" points="325.5,-491.5 325.5,-491.5 465.5,-491.5 465.5,-491.5 325.5,-491.5"/>
<polygon fill="none" stroke="#666666" points="325.5,-295 325.5,-524 465.5,-524 465.5,-295 325.5,-295"/>
</a>
</g>
</g>
<!-- Node2 -->
<g id="Node000002" class="node">
<title>Node2</title>
<g id="a_Node000002"><a xlink:href="classsen_1_1kernel_1_1_init_api.html" target="_top" xlink:title="What can be done when initializing a component.">
<polygon fill="white" stroke="transparent" points="101,-161.5 0,-161.5 0,-97.5 101,-97.5 101,-161.5"/>
<text text-anchor="start" x="5.5" y="-149.5" font-family="Helvetica,sans-Serif" font-size="10.00">sen::kernel::InitApi</text>
<text text-anchor="start" x="49" y="-134.5" font-family="Helvetica,sans-Serif" font-size="10.00"> </text>
<text text-anchor="start" x="12.5" y="-119.5" font-family="Helvetica,sans-Serif" font-size="10.00">+</text>
<text text-anchor="start" x="33.5" y="-119.5" font-family="Helvetica,sans-Serif" font-size="10.00">InitApi()</text>
<text text-anchor="start" x="12.5" y="-104.5" font-family="Helvetica,sans-Serif" font-size="10.00">+</text>
<text text-anchor="start" x="33.5" y="-104.5" font-family="Helvetica,sans-Serif" font-size="10.00">~InitApi()</text>
<polygon fill="#666666" stroke="#666666" points="0.5,-144.5 0.5,-144.5 101.5,-144.5 101.5,-144.5 0.5,-144.5"/>
<polygon fill="#666666" stroke="#666666" points="0.5,-129.5 0.5,-129.5 101.5,-129.5 101.5,-129.5 0.5,-129.5"/>
<polygon fill="none" stroke="#666666" points="0,-97.5 0,-161.5 101,-161.5 101,-97.5 0,-97.5"/>
</a>
</g>
</g>
<!-- Node1&#45;&gt;Node2 -->
<g id="edge1_Node000001_Node000002" class="edge">
<title>Node1&#45;&gt;Node2</title>
<g id="a_edge1_Node000001_Node000002"><a xlink:title=" ">
<path fill="none" stroke="#63b8ff" d="M315.82,-383.07C252.89,-359.51 166.48,-318.98 109.5,-259 83.21,-231.33 67.09,-189.86 58.48,-161.57"/>
<polygon fill="none" stroke="#63b8ff" points="314.72,-386.39 325.31,-386.56 317.14,-379.82 314.72,-386.39"/>
</a>
</g>
</g>
<!-- Node3 -->
<g id="Node000003" class="node">
<title>Node3</title>
<g id="a_Node000003"><a xlink:href="classsen_1_1kernel_1_1_load_api.html" target="_top" xlink:title="What can be done when loading a component.">
<polygon fill="white" stroke="transparent" points="228,-161.5 119,-161.5 119,-97.5 228,-97.5 228,-161.5"/>
<text text-anchor="start" x="124.5" y="-149.5" font-family="Helvetica,sans-Serif" font-size="10.00">sen::kernel::LoadApi</text>
<text text-anchor="start" x="172" y="-134.5" font-family="Helvetica,sans-Serif" font-size="10.00"> </text>
<text text-anchor="start" x="131.5" y="-119.5" font-family="Helvetica,sans-Serif" font-size="10.00">+</text>
<text text-anchor="start" x="152.5" y="-119.5" font-family="Helvetica,sans-Serif" font-size="10.00">LoadApi()</text>
<text text-anchor="start" x="131.5" y="-104.5" font-family="Helvetica,sans-Serif" font-size="10.00">+</text>
<text text-anchor="start" x="152.5" y="-104.5" font-family="Helvetica,sans-Serif" font-size="10.00">~LoadApi()</text>
<polygon fill="#666666" stroke="#666666" points="119.5,-144.5 119.5,-144.5 228.5,-144.5 228.5,-144.5 119.5,-144.5"/>
<polygon fill="#666666" stroke="#666666" points="119.5,-129.5 119.5,-129.5 228.5,-129.5 228.5,-129.5 119.5,-129.5"/>
<polygon fill="none" stroke="#666666" points="119,-97.5 119,-161.5 228,-161.5 228,-97.5 119,-97.5"/>
</a>
</g>
</g>
<!-- Node1&#45;&gt;Node3 -->
<g id="edge2_Node000001_Node000003" class="edge">
<title>Node1&#45;&gt;Node3</title>
<g id="a_edge2_Node000001_Node000003"><a xlink:title=" ">
<path fill="none" stroke="#63b8ff" d="M317.71,-345.65C289.85,-320.63 259.64,-290.34 236.5,-259 213.99,-228.52 195.95,-188.75 185.03,-161.58"/>
<polygon fill="none" stroke="#63b8ff" points="315.7,-348.54 325.5,-352.56 320.34,-343.31 315.7,-348.54"/>
</a>
</g>
</g>
<!-- Node4 -->
<g id="Node000004" class="node">
<title>Node4</title>
<g id="a_Node000004"><a xlink:href="classsen_1_1kernel_1_1_preload_api.html" target="_top" xlink:title="What can be done when preloading a component.">
<polygon fill="white" stroke="transparent" points="385,-176.5 246,-176.5 246,-82.5 385,-82.5 385,-176.5"/>
<text text-anchor="start" x="260" y="-164.5" font-family="Helvetica,sans-Serif" font-size="10.00">sen::kernel::PreloadApi</text>
<text text-anchor="start" x="314" y="-149.5" font-family="Helvetica,sans-Serif" font-size="10.00"> </text>
<text text-anchor="start" x="250.5" y="-134.5" font-family="Helvetica,sans-Serif" font-size="10.00">+</text>
<text text-anchor="start" x="263.5" y="-134.5" font-family="Helvetica,sans-Serif" font-size="10.00">PreloadApi()</text>
<text text-anchor="start" x="250.5" y="-119.5" font-family="Helvetica,sans-Serif" font-size="10.00">+</text>
<text text-anchor="start" x="263.5" y="-119.5" font-family="Helvetica,sans-Serif" font-size="10.00">~PreloadApi()</text>
<text text-anchor="start" x="250.5" y="-104.5" font-family="Helvetica,sans-Serif" font-size="10.00">+</text>
<text text-anchor="start" x="263.5" y="-104.5" font-family="Helvetica,sans-Serif" font-size="10.00">installTransportFactory()</text>
<text text-anchor="start" x="250.5" y="-89.5" font-family="Helvetica,sans-Serif" font-size="10.00">+</text>
<text text-anchor="start" x="263.5" y="-89.5" font-family="Helvetica,sans-Serif" font-size="10.00">installTracerFactory()</text>
<polygon fill="#666666" stroke="#666666" points="246.5,-159.5 246.5,-159.5 385.5,-159.5 385.5,-159.5 246.5,-159.5"/>
<polygon fill="#666666" stroke="#666666" points="246.5,-144.5 246.5,-144.5 385.5,-144.5 385.5,-144.5 246.5,-144.5"/>
<polygon fill="none" stroke="#666666" points="246,-82.5 246,-176.5 385,-176.5 385,-82.5 246,-82.5"/>
</a>
</g>
</g>
<!-- Node1&#45;&gt;Node4 -->
<g id="edge3_Node000001_Node000004" class="edge">
<title>Node1&#45;&gt;Node4</title>
<g id="a_edge3_Node000001_Node000004"><a xlink:title=" ">
<path fill="none" stroke="#63b8ff" d="M359.92,-284.88C348.84,-246.37 337.3,-206.26 328.76,-176.59"/>
<polygon fill="none" stroke="#63b8ff" points="356.6,-285.98 362.73,-294.62 363.33,-284.05 356.6,-285.98"/>
</a>
</g>
</g>
<!-- Node5 -->
<g id="Node000005" class="node">
<title>Node5</title>
<g id="a_Node000005"><a xlink:href="classsen_1_1kernel_1_1_registration_api.html" target="_top" xlink:title="API for objects when registered.">
<polygon fill="white" stroke="transparent" points="548,-161.5 403,-161.5 403,-97.5 548,-97.5 548,-161.5"/>
<text text-anchor="start" x="408.5" y="-149.5" font-family="Helvetica,sans-Serif" font-size="10.00">sen::kernel::RegistrationApi</text>
<text text-anchor="start" x="474" y="-134.5" font-family="Helvetica,sans-Serif" font-size="10.00"> </text>
<text text-anchor="start" x="415.5" y="-119.5" font-family="Helvetica,sans-Serif" font-size="10.00">+</text>
<text text-anchor="start" x="436.5" y="-119.5" font-family="Helvetica,sans-Serif" font-size="10.00">RegistrationApi()</text>
<text text-anchor="start" x="415.5" y="-104.5" font-family="Helvetica,sans-Serif" font-size="10.00">+</text>
<text text-anchor="start" x="436.5" y="-104.5" font-family="Helvetica,sans-Serif" font-size="10.00">~RegistrationApi()</text>
<polygon fill="#666666" stroke="#666666" points="403.5,-144.5 403.5,-144.5 548.5,-144.5 548.5,-144.5 403.5,-144.5"/>
<polygon fill="#666666" stroke="#666666" points="403.5,-129.5 403.5,-129.5 548.5,-129.5 548.5,-129.5 403.5,-129.5"/>
<polygon fill="none" stroke="#666666" points="403,-97.5 403,-161.5 548,-161.5 548,-97.5 403,-97.5"/>
</a>
</g>
</g>
<!-- Node1&#45;&gt;Node5 -->
<g id="edge4_Node000001_Node000005" class="edge">
<title>Node1&#45;&gt;Node5</title>
<g id="a_edge4_Node000001_Node000005"><a xlink:title=" ">
<path fill="none" stroke="#63b8ff" d="M431.05,-284.96C444.14,-239.46 457.88,-191.73 466.56,-161.58"/>
<polygon fill="none" stroke="#63b8ff" points="427.67,-284.05 428.27,-294.62 434.4,-285.98 427.67,-284.05"/>
</a>
</g>
</g>
<!-- Node6 -->
<g id="Node000006" class="node">
<title>Node6</title>
<g id="a_Node000006"><a xlink:href="classsen_1_1kernel_1_1_run_api.html" target="_top" xlink:title="What can be done while a component is running.">
<polygon fill="white" stroke="transparent" points="732.5,-259 566.5,-259 566.5,0 732.5,0 732.5,-259"/>
<text text-anchor="start" x="602.5" y="-246.5" font-family="Helvetica,sans-Serif" font-size="10.00">sen::kernel::RunApi</text>
<text text-anchor="start" x="647.5" y="-231.5" font-family="Helvetica,sans-Serif" font-size="10.00"> </text>
<text text-anchor="start" x="570.5" y="-216.5" font-family="Helvetica,sans-Serif" font-size="10.00">+</text>
<text text-anchor="start" x="583.5" y="-216.5" font-family="Helvetica,sans-Serif" font-size="10.00">RunApi()</text>
<text text-anchor="start" x="570.5" y="-201.5" font-family="Helvetica,sans-Serif" font-size="10.00">+</text>
<text text-anchor="start" x="583.5" y="-201.5" font-family="Helvetica,sans-Serif" font-size="10.00">~RunApi()</text>
<text text-anchor="start" x="570.5" y="-186.5" font-family="Helvetica,sans-Serif" font-size="10.00">+</text>
<text text-anchor="start" x="583.5" y="-186.5" font-family="Helvetica,sans-Serif" font-size="10.00">stopRequested()</text>
<text text-anchor="start" x="570.5" y="-171.5" font-family="Helvetica,sans-Serif" font-size="10.00">+</text>
<text text-anchor="start" x="583.5" y="-171.5" font-family="Helvetica,sans-Serif" font-size="10.00">drainInputs()</text>
<text text-anchor="start" x="570.5" y="-156.5" font-family="Helvetica,sans-Serif" font-size="10.00">+</text>
<text text-anchor="start" x="583.5" y="-156.5" font-family="Helvetica,sans-Serif" font-size="10.00">update()</text>
<text text-anchor="start" x="570.5" y="-141.5" font-family="Helvetica,sans-Serif" font-size="10.00">+</text>
<text text-anchor="start" x="583.5" y="-141.5" font-family="Helvetica,sans-Serif" font-size="10.00">commit()</text>
<text text-anchor="start" x="570.5" y="-126.5" font-family="Helvetica,sans-Serif" font-size="10.00">+</text>
<text text-anchor="start" x="583.5" y="-126.5" font-family="Helvetica,sans-Serif" font-size="10.00">execLoop()</text>
<text text-anchor="start" x="570.5" y="-111.5" font-family="Helvetica,sans-Serif" font-size="10.00">+</text>
<text text-anchor="start" x="583.5" y="-111.5" font-family="Helvetica,sans-Serif" font-size="10.00">getStartTime()</text>
<text text-anchor="start" x="570.5" y="-96.5" font-family="Helvetica,sans-Serif" font-size="10.00">+</text>
<text text-anchor="start" x="583.5" y="-96.5" font-family="Helvetica,sans-Serif" font-size="10.00">getTime()</text>
<text text-anchor="start" x="570.5" y="-81.5" font-family="Helvetica,sans-Serif" font-size="10.00">+</text>
<text text-anchor="start" x="583.5" y="-81.5" font-family="Helvetica,sans-Serif" font-size="10.00">getTargetCycleTime()</text>
<text text-anchor="start" x="570.5" y="-66.5" font-family="Helvetica,sans-Serif" font-size="10.00">+</text>
<text text-anchor="start" x="583.5" y="-66.5" font-family="Helvetica,sans-Serif" font-size="10.00">fetchMonitoringInfo()</text>
<text text-anchor="start" x="570.5" y="-51.5" font-family="Helvetica,sans-Serif" font-size="10.00">+</text>
<text text-anchor="start" x="583.5" y="-51.5" font-family="Helvetica,sans-Serif" font-size="10.00">getImportedPackages()</text>
<text text-anchor="start" x="570.5" y="-36.5" font-family="Helvetica,sans-Serif" font-size="10.00">+</text>
<text text-anchor="start" x="583.5" y="-36.5" font-family="Helvetica,sans-Serif" font-size="10.00">getLoadedComponents()</text>
<text text-anchor="start" x="570.5" y="-21.5" font-family="Helvetica,sans-Serif" font-size="10.00">+</text>
<text text-anchor="start" x="583.5" y="-21.5" font-family="Helvetica,sans-Serif" font-size="10.00">getTransportProtocolVersion()</text>
<text text-anchor="start" x="570.5" y="-6.5" font-family="Helvetica,sans-Serif" font-size="10.00">+</text>
<text text-anchor="start" x="583.5" y="-6.5" font-family="Helvetica,sans-Serif" font-size="10.00">getTracer()</text>
<polygon fill="#666666" stroke="#666666" points="566.5,-241.5 566.5,-241.5 732.5,-241.5 732.5,-241.5 566.5,-241.5"/>
<polygon fill="#666666" stroke="#666666" points="566.5,-226.5 566.5,-226.5 732.5,-226.5 732.5,-226.5 566.5,-226.5"/>
<polygon fill="none" stroke="#666666" points="566.5,0 566.5,-259 732.5,-259 732.5,0 566.5,0"/>
</a>
</g>
</g>
<!-- Node1&#45;&gt;Node6 -->
<g id="edge5_Node000001_Node000006" class="edge">
<title>Node1&#45;&gt;Node6</title>
<g id="a_edge5_Node000001_Node000006"><a xlink:title=" ">
<path fill="none" stroke="#63b8ff" d="M473.61,-342.32C501.3,-317.36 531.91,-287.97 557.5,-259 560.5,-255.61 563.49,-252.12 566.47,-248.56"/>
<polygon fill="none" stroke="#63b8ff" points="470.99,-339.96 465.88,-349.23 475.66,-345.17 470.99,-339.96"/>
</a>
</g>
</g>
<!-- Node7 -->
<g id="Node000007" class="node">
<title>Node7</title>
<g id="a_Node000007"><a xlink:href="classsen_1_1kernel_1_1_unload_api.html" target="_top" xlink:title="What can be done when unloading a component.">
<polygon fill="white" stroke="transparent" points="870.5,-161.5 750.5,-161.5 750.5,-97.5 870.5,-97.5 870.5,-161.5"/>
<text text-anchor="start" x="755.5" y="-149.5" font-family="Helvetica,sans-Serif" font-size="10.00">sen::kernel::UnloadApi</text>
<text text-anchor="start" x="808.5" y="-134.5" font-family="Helvetica,sans-Serif" font-size="10.00"> </text>
<text text-anchor="start" x="762.5" y="-119.5" font-family="Helvetica,sans-Serif" font-size="10.00">+</text>
<text text-anchor="start" x="783.5" y="-119.5" font-family="Helvetica,sans-Serif" font-size="10.00">UnloadApi()</text>
<text text-anchor="start" x="762.5" y="-104.5" font-family="Helvetica,sans-Serif" font-size="10.00">+</text>
<text text-anchor="start" x="783.5" y="-104.5" font-family="Helvetica,sans-Serif" font-size="10.00">~UnloadApi()</text>
<polygon fill="#666666" stroke="#666666" points="750.5,-144.5 750.5,-144.5 870.5,-144.5 870.5,-144.5 750.5,-144.5"/>
<polygon fill="#666666" stroke="#666666" points="750.5,-129.5 750.5,-129.5 870.5,-129.5 870.5,-129.5 750.5,-129.5"/>
<polygon fill="none" stroke="#666666" points="750.5,-97.5 750.5,-161.5 870.5,-161.5 870.5,-97.5 750.5,-97.5"/>
</a>
</g>
</g>
<!-- Node1&#45;&gt;Node7 -->
<g id="edge6_Node000001_Node000007" class="edge">
<title>Node1&#45;&gt;Node7</title>
<g id="a_edge6_Node000001_Node000007"><a xlink:title=" ">
<path fill="none" stroke="#63b8ff" d="M475.79,-390.17C551.88,-369.33 665.51,-328.79 741.5,-259 770.59,-232.28 789.85,-190.41 800.46,-161.77"/>
<polygon fill="none" stroke="#63b8ff" points="474.53,-386.88 465.78,-392.85 476.34,-393.64 474.53,-386.88"/>
</a>
</g>
</g>
</g>
</svg>
