<?xml version="1.0" encoding="UTF-8" standalone="no"?>
<!DOCTYPE svg PUBLIC "-//W3C//DTD SVG 1.1//EN"
 "http://www.w3.org/Graphics/SVG/1.1/DTD/svg11.dtd">
<!-- Generated by graphviz version 2.43.0 (0)
 -->
<!-- Title: sen::QuantityType Pages: 1 -->
<svg width="244pt" height="732pt"
 viewBox="0.00 0.00 243.50 732.00" xmlns="http://www.w3.org/2000/svg" xmlns:xlink="http://www.w3.org/1999/xlink">
<g id="graph0" class="graph" transform="scale(1 1) rotate(0) translate(4 728)">
<title>sen::QuantityType</title>
<!-- Node1 -->
<g id="Node000001" class="node">
<title>Node1</title>
<g id="a_Node000001"><a xlink:title="Represents a quantity.">
<polygon fill="#999999" stroke="transparent" points="173,-389 55,-389 55,-130 173,-130 173,-389"/>
<text text-anchor="start" x="70" y="-376.5" font-family="Helvetica,sans-Serif" font-size="10.00">sen::QuantityType</text>
<text text-anchor="start" x="112" y="-361.5" font-family="Helvetica,sans-Serif" font-size="10.00"> </text>
<text text-anchor="start" x="59" y="-346.5" font-family="Helvetica,sans-Serif" font-size="10.00">+</text>
<text text-anchor="start" x="72" y="-346.5" font-family="Helvetica,sans-Serif" font-size="10.00">QuantityType()</text>
<text text-anchor="start" x="59" y="-331.5" font-family="Helvetica,sans-Serif" font-size="10.00">+</text>
<text text-anchor="start" x="72" y="-331.5" font-family="Helvetica,sans-Serif" font-size="10.00">~QuantityType()</text>
<text text-anchor="start" x="59" y="-316.5" font-family="Helvetica,sans-Serif" font-size="10.00">+</text>
<text text-anchor="start" x="72" y="-316.5" font-family="Helvetica,sans-Serif" font-size="10.00">getElementType()</text>
<text text-anchor="start" x="59" y="-301.5" font-family="Helvetica,sans-Serif" font-size="10.00">+</text>
<text text-anchor="start" x="72" y="-301.5" font-family="Helvetica,sans-Serif" font-size="10.00">getUnit()</text>
<text text-anchor="start" x="59" y="-286.5" font-family="Helvetica,sans-Serif" font-size="10.00">+</text>
<text text-anchor="start" x="72" y="-286.5" font-family="Helvetica,sans-Serif" font-size="10.00">getUnit()</text>
<text text-anchor="start" x="59" y="-271.5" font-family="Helvetica,sans-Serif" font-size="10.00">+</text>
<text text-anchor="start" x="72" y="-271.5" font-family="Helvetica,sans-Serif" font-size="10.00">getMaxValue()</text>
<text text-anchor="start" x="59" y="-256.5" font-family="Helvetica,sans-Serif" font-size="10.00">+</text>
<text text-anchor="start" x="72" y="-256.5" font-family="Helvetica,sans-Serif" font-size="10.00">getMinValue()</text>
<text text-anchor="start" x="59" y="-241.5" font-family="Helvetica,sans-Serif" font-size="10.00">+</text>
<text text-anchor="start" x="72" y="-241.5" font-family="Helvetica,sans-Serif" font-size="10.00">getQualifiedName()</text>
<text text-anchor="start" x="59" y="-226.5" font-family="Helvetica,sans-Serif" font-size="10.00">+</text>
<text text-anchor="start" x="72" y="-226.5" font-family="Helvetica,sans-Serif" font-size="10.00">getName()</text>
<text text-anchor="start" x="59" y="-211.5" font-family="Helvetica,sans-Serif" font-size="10.00">+</text>
<text text-anchor="start" x="72" y="-211.5" font-family="Helvetica,sans-Serif" font-size="10.00">getDescription()</text>
<text text-anchor="start" x="59" y="-196.5" font-family="Helvetica,sans-Serif" font-size="10.00">+</text>
<text text-anchor="start" x="72" y="-196.5" font-family="Helvetica,sans-Serif" font-size="10.00">equals()</text>
<text text-anchor="start" x="59" y="-181.5" font-family="Helvetica,sans-Serif" font-size="10.00">+</text>
<text text-anchor="start" x="72" y="-181.5" font-family="Helvetica,sans-Serif" font-size="10.00">isBounded()</text>
<text text-anchor="start" x="59" y="-166.5" font-family="Helvetica,sans-Serif" font-size="10.00">+</text>
<text text-anchor="start" x="72" y="-166.5" font-family="Helvetica,sans-Serif" font-size="10.00">make()</text>
<text text-anchor="start" x="59" y="-151.5" font-family="Helvetica,sans-Serif" font-size="10.00">#</text>
<text text-anchor="start" x="72" y="-151.5" font-family="Helvetica,sans-Serif" font-size="10.00">getSpec()</text>
<text text-anchor="start" x="59" y="-136.5" font-family="Helvetica,sans-Serif" font-size="10.00">#</text>
<text text-anchor="start" x="72" y="-136.5" font-family="Helvetica,sans-Serif" font-size="10.00">QuantityType()</text>
<polygon fill="#666666" stroke="#666666" points="55,-371.5 55,-371.5 173,-371.5 173,-371.5 55,-371.5"/>
<polygon fill="#666666" stroke="#666666" points="55,-356.5 55,-356.5 173,-356.5 173,-356.5 55,-356.5"/>
<polygon fill="none" stroke="#666666" points="55,-130 55,-389 173,-389 173,-130 55,-130"/>
</a>
</g>
</g>
<!-- Node4 -->
<g id="Node000004" class="node">
<title>Node4</title>
<g id="a_Node000004"><a xlink:href="classsen_1_1_duration_type.html" target="_top" xlink:title="Represents a sen::Duration (a time duration).">
<polygon fill="white" stroke="transparent" points="102,-94 0,-94 0,0 102,0 102,-94"/>
<text text-anchor="start" x="7" y="-82" font-family="Helvetica,sans-Serif" font-size="10.00">sen::DurationType</text>
<text text-anchor="start" x="49" y="-67" font-family="Helvetica,sans-Serif" font-size="10.00"> </text>
<text text-anchor="start" x="4" y="-52" font-family="Helvetica,sans-Serif" font-size="10.00">+</text>
<text text-anchor="start" x="17" y="-52" font-family="Helvetica,sans-Serif" font-size="10.00">DurationType()</text>
<text text-anchor="start" x="4" y="-37" font-family="Helvetica,sans-Serif" font-size="10.00">+</text>
<text text-anchor="start" x="17" y="-37" font-family="Helvetica,sans-Serif" font-size="10.00">~DurationType()</text>
<text text-anchor="start" x="4" y="-22" font-family="Helvetica,sans-Serif" font-size="10.00">+</text>
<text text-anchor="start" x="17" y="-22" font-family="Helvetica,sans-Serif" font-size="10.00">equals()</text>
<text text-anchor="start" x="4" y="-7" font-family="Helvetica,sans-Serif" font-size="10.00">+</text>
<text text-anchor="start" x="17" y="-7" font-family="Helvetica,sans-Serif" font-size="10.00">get()</text>
<polygon fill="#666666" stroke="#666666" points="0,-77 0,-77 102,-77 102,-77 0,-77"/>
<polygon fill="#666666" stroke="#666666" points="0,-62 0,-62 102,-62 102,-62 0,-62"/>
<polygon fill="none" stroke="#666666" points="0,0 0,-94 102,-94 102,0 0,0"/>
</a>
</g>
</g>
<!-- Node1&#45;&gt;Node4 -->
<g id="edge3_Node000001_Node000004" class="edge">
<title>Node1&#45;&gt;Node4</title>
<g id="a_edge3_Node000001_Node000004"><a xlink:title=" ">
<path fill="none" stroke="#63b8ff" d="M72.64,-120.3C69.89,-111.11 67.25,-102.3 64.82,-94.19"/>
<polygon fill="none" stroke="#63b8ff" points="69.32,-121.41 75.54,-129.99 76.02,-119.4 69.32,-121.41"/>
</a>
</g>
</g>
<!-- Node5 -->
<g id="Node000005" class="node">
<title>Node5</title>
<g id="a_Node000005"><a xlink:href="classsen_1_1_timestamp_type.html" target="_top" xlink:title="Represents a sen::TimeStamp (a point in time).">
<polygon fill="white" stroke="transparent" points="235.5,-94 120.5,-94 120.5,0 235.5,0 235.5,-94"/>
<text text-anchor="start" x="127.5" y="-82" font-family="Helvetica,sans-Serif" font-size="10.00">sen::TimestampType</text>
<text text-anchor="start" x="176.5" y="-67" font-family="Helvetica,sans-Serif" font-size="10.00"> </text>
<text text-anchor="start" x="125" y="-52" font-family="Helvetica,sans-Serif" font-size="10.00">+</text>
<text text-anchor="start" x="138" y="-52" font-family="Helvetica,sans-Serif" font-size="10.00">TimestampType()</text>
<text text-anchor="start" x="125" y="-37" font-family="Helvetica,sans-Serif" font-size="10.00">+</text>
<text text-anchor="start" x="138" y="-37" font-family="Helvetica,sans-Serif" font-size="10.00">~TimestampType()</text>
<text text-anchor="start" x="125" y="-22" font-family="Helvetica,sans-Serif" font-size="10.00">+</text>
<text text-anchor="start" x="138" y="-22" font-family="Helvetica,sans-Serif" font-size="10.00">equals()</text>
<text text-anchor="start" x="125" y="-7" font-family="Helvetica,sans-Serif" font-size="10.00">+</text>
<text text-anchor="start" x="138" y="-7" font-family="Helvetica,sans-Serif" font-size="10.00">get()</text>
<polygon fill="#666666" stroke="#666666" points="121,-77 121,-77 236,-77 236,-77 121,-77"/>
<polygon fill="#666666" stroke="#666666" points="121,-62 121,-62 236,-62 236,-62 121,-62"/>
<polygon fill="none" stroke="#666666" points="120.5,0 120.5,-94 235.5,-94 235.5,0 120.5,0"/>
</a>
</g>
</g>
<!-- Node1&#45;&gt;Node5 -->
<g id="edge4_Node000001_Node000005" class="edge">
<title>Node1&#45;&gt;Node5</title>
<g id="a_edge4_Node000001_Node000005"><a xlink:title=" ">
<path fill="none" stroke="#63b8ff" d="M156.02,-120.3C158.81,-111.11 161.49,-102.3 163.96,-94.19"/>
<polygon fill="none" stroke="#63b8ff" points="152.63,-119.4 153.07,-129.99 159.33,-121.44 152.63,-119.4"/>
</a>
</g>
</g>
<!-- Node2 -->
<g id="Node000002" class="node">
<title>Node2</title>
<g id="a_Node000002"><a xlink:href="classsen_1_1_custom_type.html" target="_top" xlink:title="Represents a user&#45;defined type.">
<polygon fill="white" stroke="transparent" points="173,-504 55,-504 55,-425 173,-425 173,-504"/>
<text text-anchor="start" x="72" y="-491.5" font-family="Helvetica,sans-Serif" font-size="10.00">sen::CustomType</text>
<text text-anchor="start" x="112" y="-476.5" font-family="Helvetica,sans-Serif" font-size="10.00"> </text>
<text text-anchor="start" x="59" y="-461.5" font-family="Helvetica,sans-Serif" font-size="10.00">+</text>
<text text-anchor="start" x="72" y="-461.5" font-family="Helvetica,sans-Serif" font-size="10.00">getQualifiedName()</text>
<text text-anchor="start" x="59" y="-446.5" font-family="Helvetica,sans-Serif" font-size="10.00">#</text>
<text text-anchor="start" x="72" y="-446.5" font-family="Helvetica,sans-Serif" font-size="10.00">CustomType()</text>
<text text-anchor="start" x="59" y="-431.5" font-family="Helvetica,sans-Serif" font-size="10.00">#</text>
<text text-anchor="start" x="72" y="-431.5" font-family="Helvetica,sans-Serif" font-size="10.00">~CustomType()</text>
<polygon fill="#666666" stroke="#666666" points="55,-486.5 55,-486.5 173,-486.5 173,-486.5 55,-486.5"/>
<polygon fill="#666666" stroke="#666666" points="55,-471.5 55,-471.5 173,-471.5 173,-471.5 55,-471.5"/>
<polygon fill="none" stroke="#666666" points="55,-425 55,-504 173,-504 173,-425 55,-425"/>
</a>
</g>
</g>
<!-- Node2&#45;&gt;Node1 -->
<g id="edge1_Node000001_Node000002" class="edge">
<title>Node2&#45;&gt;Node1</title>
<g id="a_edge1_Node000001_Node000002"><a xlink:title=" ">
<path fill="none" stroke="#63b8ff" d="M114,-414.66C114,-406.63 114,-397.99 114,-389.05"/>
<polygon fill="none" stroke="#63b8ff" points="110.5,-414.84 114,-424.84 117.5,-414.84 110.5,-414.84"/>
</a>
</g>
</g>
<!-- Node3 -->
<g id="Node000003" class="node">
<title>Node3</title>
<g id="a_Node000003"><a xlink:href="classsen_1_1_type.html" target="_top" xlink:title="Represents a type that can be used to define variables and arguments for methods or functions....">
<polygon fill="white" stroke="transparent" points="189.5,-724 38.5,-724 38.5,-540 189.5,-540 189.5,-724"/>
<text text-anchor="start" x="91.5" y="-712" font-family="Helvetica,sans-Serif" font-size="10.00">sen::Type</text>
<text text-anchor="start" x="112.5" y="-697" font-family="Helvetica,sans-Serif" font-size="10.00"> </text>
<text text-anchor="start" x="43" y="-682" font-family="Helvetica,sans-Serif" font-size="10.00">+</text>
<text text-anchor="start" x="56" y="-682" font-family="Helvetica,sans-Serif" font-size="10.00">~Type()</text>
<text text-anchor="start" x="43" y="-667" font-family="Helvetica,sans-Serif" font-size="10.00">+</text>
<text text-anchor="start" x="56" y="-667" font-family="Helvetica,sans-Serif" font-size="10.00">getName()</text>
<text text-anchor="start" x="43" y="-652" font-family="Helvetica,sans-Serif" font-size="10.00">+</text>
<text text-anchor="start" x="56" y="-652" font-family="Helvetica,sans-Serif" font-size="10.00">getDescription()</text>
<text text-anchor="start" x="43" y="-637" font-family="Helvetica,sans-Serif" font-size="10.00">+</text>
<text text-anchor="start" x="56" y="-637" font-family="Helvetica,sans-Serif" font-size="10.00">accept()</text>
<text text-anchor="start" x="43" y="-622" font-family="Helvetica,sans-Serif" font-size="10.00">+</text>
<text text-anchor="start" x="56" y="-622" font-family="Helvetica,sans-Serif" font-size="10.00">isBounded()</text>
<text text-anchor="start" x="43" y="-607" font-family="Helvetica,sans-Serif" font-size="10.00">+</text>
<text text-anchor="start" x="56" y="-607" font-family="Helvetica,sans-Serif" font-size="10.00">getHash()</text>
<text text-anchor="start" x="43" y="-592" font-family="Helvetica,sans-Serif" font-size="10.00">+</text>
<text text-anchor="start" x="56" y="-592" font-family="Helvetica,sans-Serif" font-size="10.00">equals()</text>
<text text-anchor="start" x="43" y="-577" font-family="Helvetica,sans-Serif" font-size="10.00">+</text>
<text text-anchor="start" x="56" y="-577" font-family="Helvetica,sans-Serif" font-size="10.00">validateLowerCaseName()</text>
<text text-anchor="start" x="43" y="-562" font-family="Helvetica,sans-Serif" font-size="10.00">+</text>
<text text-anchor="start" x="56" y="-562" font-family="Helvetica,sans-Serif" font-size="10.00">validateTypeName()</text>
<text text-anchor="start" x="43" y="-547" font-family="Helvetica,sans-Serif" font-size="10.00">#</text>
<text text-anchor="start" x="56" y="-547" font-family="Helvetica,sans-Serif" font-size="10.00">Type()</text>
<polygon fill="#666666" stroke="#666666" points="39,-707 39,-707 190,-707 190,-707 39,-707"/>
<polygon fill="#666666" stroke="#666666" points="39,-692 39,-692 190,-692 190,-692 39,-692"/>
<polygon fill="none" stroke="#666666" points="38.5,-540 38.5,-724 189.5,-724 189.5,-540 38.5,-540"/>
</a>
</g>
</g>
<!-- Node3&#45;&gt;Node2 -->
<g id="edge2_Node000002_Node000003" class="edge">
<title>Node3&#45;&gt;Node2</title>
<g id="a_edge2_Node000002_Node000003"><a xlink:title=" ">
<path fill="none" stroke="#63b8ff" d="M114,-529.44C114,-520.59 114,-512.04 114,-504.23"/>
<polygon fill="none" stroke="#63b8ff" points="110.5,-529.54 114,-539.54 117.5,-529.54 110.5,-529.54"/>
</a>
</g>
</g>
</g>
</svg>
