<?xml version="1.0" encoding="UTF-8" standalone="no"?>
<!DOCTYPE svg PUBLIC "-//W3C//DTD SVG 1.1//EN"
 "http://www.w3.org/Graphics/SVG/1.1/DTD/svg11.dtd">
<!-- Generated by graphviz version 2.43.0 (0)
 -->
<!-- Title: sen::ObjectProviderListener Pages: 1 -->
<svg width="1000pt" height="539pt"
 viewBox="0.00 0.00 1000.00 539.00" xmlns="http://www.w3.org/2000/svg" xmlns:xlink="http://www.w3.org/1999/xlink">
<g id="graph0" class="graph" transform="scale(1 1) rotate(0) translate(4 535)">
<title>sen::ObjectProviderListener</title>
<!-- Node1 -->
<g id="Node000001" class="node">
<title>Node1</title>
<g id="a_Node000001"><a xlink:title="Allows reacting to objects being added or removed to an object provider. It automatically unregisters...">
<polygon fill="#999999" stroke="transparent" points="568,-531 420,-531 420,-407 568,-407 568,-531"/>
<text text-anchor="start" x="426.5" y="-519" font-family="Helvetica,sans-Serif" font-size="10.00">sen::ObjectProviderListener</text>
<text text-anchor="start" x="492" y="-504" font-family="Helvetica,sans-Serif" font-size="10.00"> </text>
<text text-anchor="start" x="424" y="-489" font-family="Helvetica,sans-Serif" font-size="10.00">+</text>
<text text-anchor="start" x="437" y="-489" font-family="Helvetica,sans-Serif" font-size="10.00">ObjectProviderListener()</text>
<text text-anchor="start" x="424" y="-474" font-family="Helvetica,sans-Serif" font-size="10.00">+</text>
<text text-anchor="start" x="437" y="-474" font-family="Helvetica,sans-Serif" font-size="10.00">~ObjectProviderListener()</text>
<text text-anchor="start" x="424" y="-459" font-family="Helvetica,sans-Serif" font-size="10.00">+</text>
<text text-anchor="start" x="437" y="-459" font-family="Helvetica,sans-Serif" font-size="10.00">isRemoteParticipant()</text>
<text text-anchor="start" x="424" y="-444" font-family="Helvetica,sans-Serif" font-size="10.00">+</text>
<text text-anchor="start" x="437" y="-444" font-family="Helvetica,sans-Serif" font-size="10.00">isLocalParticipant()</text>
<text text-anchor="start" x="424" y="-429" font-family="Helvetica,sans-Serif" font-size="10.00">#</text>
<text text-anchor="start" x="437" y="-429" font-family="Helvetica,sans-Serif" font-size="10.00">onObjectsAdded()</text>
<text text-anchor="start" x="424" y="-414" font-family="Helvetica,sans-Serif" font-size="10.00">#</text>
<text text-anchor="start" x="437" y="-414" font-family="Helvetica,sans-Serif" font-size="10.00">onObjectsRemoved()</text>
<polygon fill="#666666" stroke="#666666" points="420,-514 420,-514 568,-514 568,-514 420,-514"/>
<polygon fill="#666666" stroke="#666666" points="420,-499 420,-499 568,-499 568,-499 420,-499"/>
<polygon fill="none" stroke="#666666" points="420,-407 420,-531 568,-531 568,-407 420,-407"/>
</a>
</g>
</g>
<!-- Node2 -->
<g id="Node000002" class="node">
<title>Node2</title>
<g id="a_Node000002"><a xlink:href="classsen_1_1_object_list.html" target="_top" xlink:title=" ">
<polygon fill="white" stroke="transparent" points="140,-283 0,-283 0,-88 140,-88 140,-283"/>
<text text-anchor="start" x="5" y="-270.5" font-family="Helvetica,sans-Serif" font-size="10.00">sen::ObjectList&lt; TestClass</text>
<text text-anchor="start" x="42.5" y="-259.5" font-family="Helvetica,sans-Serif" font-size="10.00">Interface &gt;</text>
<text text-anchor="start" x="7" y="-244.5" font-family="Helvetica,sans-Serif" font-size="10.00">+</text>
<text text-anchor="start" x="23" y="-244.5" font-family="Helvetica,sans-Serif" font-size="10.00">defaultListSizeHint</text>
<text text-anchor="start" x="7" y="-229.5" font-family="Helvetica,sans-Serif" font-size="10.00">+</text>
<text text-anchor="start" x="23" y="-229.5" font-family="Helvetica,sans-Serif" font-size="10.00">ObjectList()</text>
<text text-anchor="start" x="7" y="-214.5" font-family="Helvetica,sans-Serif" font-size="10.00">+</text>
<text text-anchor="start" x="23" y="-214.5" font-family="Helvetica,sans-Serif" font-size="10.00">~ObjectList()</text>
<text text-anchor="start" x="7" y="-199.5" font-family="Helvetica,sans-Serif" font-size="10.00">+</text>
<text text-anchor="start" x="23" y="-199.5" font-family="Helvetica,sans-Serif" font-size="10.00">onAdded()</text>
<text text-anchor="start" x="7" y="-184.5" font-family="Helvetica,sans-Serif" font-size="10.00">+</text>
<text text-anchor="start" x="23" y="-184.5" font-family="Helvetica,sans-Serif" font-size="10.00">onRemoved()</text>
<text text-anchor="start" x="7" y="-169.5" font-family="Helvetica,sans-Serif" font-size="10.00">+</text>
<text text-anchor="start" x="23" y="-169.5" font-family="Helvetica,sans-Serif" font-size="10.00">getObjects()</text>
<text text-anchor="start" x="7" y="-154.5" font-family="Helvetica,sans-Serif" font-size="10.00">+</text>
<text text-anchor="start" x="23" y="-154.5" font-family="Helvetica,sans-Serif" font-size="10.00">getUntypedObjects()</text>
<text text-anchor="start" x="7" y="-139.5" font-family="Helvetica,sans-Serif" font-size="10.00">+</text>
<text text-anchor="start" x="23" y="-139.5" font-family="Helvetica,sans-Serif" font-size="10.00">isRemoteParticipant()</text>
<text text-anchor="start" x="7" y="-124.5" font-family="Helvetica,sans-Serif" font-size="10.00">+</text>
<text text-anchor="start" x="23" y="-124.5" font-family="Helvetica,sans-Serif" font-size="10.00">isLocalParticipant()</text>
<text text-anchor="start" x="7" y="-109.5" font-family="Helvetica,sans-Serif" font-size="10.00">#</text>
<text text-anchor="start" x="23" y="-109.5" font-family="Helvetica,sans-Serif" font-size="10.00">onObjectsAdded()</text>
<text text-anchor="start" x="7" y="-94.5" font-family="Helvetica,sans-Serif" font-size="10.00">#</text>
<text text-anchor="start" x="23" y="-94.5" font-family="Helvetica,sans-Serif" font-size="10.00">onObjectsRemoved()</text>
<polygon fill="#666666" stroke="#666666" points="0,-254.5 0,-254.5 140,-254.5 140,-254.5 0,-254.5"/>
<polygon fill="#666666" stroke="#666666" points="0,-239.5 0,-239.5 21,-239.5 21,-239.5 0,-239.5"/>
<polygon fill="#666666" stroke="#666666" points="21,-239.5 21,-239.5 140,-239.5 140,-239.5 21,-239.5"/>
<polygon fill="none" stroke="#666666" points="0,-88 0,-283 140,-283 140,-88 0,-88"/>
</a>
</g>
</g>
<!-- Node1&#45;&gt;Node2 -->
<g id="edge1_Node000001_Node000002" class="edge">
<title>Node1&#45;&gt;Node2</title>
<g id="a_edge1_Node000001_Node000002"><a xlink:title=" ">
<path fill="none" stroke="#63b8ff" d="M409.89,-464.39C333.42,-456.89 221.73,-434.81 149,-371 122.94,-348.14 105.2,-315.17 93.26,-283.42"/>
<polygon fill="none" stroke="#63b8ff" points="409.69,-467.89 419.97,-465.32 410.33,-460.92 409.69,-467.89"/>
</a>
</g>
</g>
<!-- Node3 -->
<g id="Node000003" class="node">
<title>Node3</title>
<g id="a_Node000003"><a xlink:href="classsen_1_1_object_list.html" target="_top" xlink:title=" ">
<polygon fill="white" stroke="transparent" points="312,-283 158,-283 158,-88 312,-88 312,-283"/>
<text text-anchor="start" x="163" y="-270.5" font-family="Helvetica,sans-Serif" font-size="10.00">sen::ObjectList&lt; sen</text>
<text text-anchor="start" x="163" y="-259.5" font-family="Helvetica,sans-Serif" font-size="10.00">::kernel::KernelApiInterface &gt;</text>
<text text-anchor="start" x="168.5" y="-244.5" font-family="Helvetica,sans-Serif" font-size="10.00">+</text>
<text text-anchor="start" x="188" y="-244.5" font-family="Helvetica,sans-Serif" font-size="10.00">defaultListSizeHint</text>
<text text-anchor="start" x="168.5" y="-229.5" font-family="Helvetica,sans-Serif" font-size="10.00">+</text>
<text text-anchor="start" x="188" y="-229.5" font-family="Helvetica,sans-Serif" font-size="10.00">ObjectList()</text>
<text text-anchor="start" x="168.5" y="-214.5" font-family="Helvetica,sans-Serif" font-size="10.00">+</text>
<text text-anchor="start" x="188" y="-214.5" font-family="Helvetica,sans-Serif" font-size="10.00">~ObjectList()</text>
<text text-anchor="start" x="168.5" y="-199.5" font-family="Helvetica,sans-Serif" font-size="10.00">+</text>
<text text-anchor="start" x="188" y="-199.5" font-family="Helvetica,sans-Serif" font-size="10.00">onAdded()</text>
<text text-anchor="start" x="168.5" y="-184.5" font-family="Helvetica,sans-Serif" font-size="10.00">+</text>
<text text-anchor="start" x="188" y="-184.5" font-family="Helvetica,sans-Serif" font-size="10.00">onRemoved()</text>
<text text-anchor="start" x="168.5" y="-169.5" font-family="Helvetica,sans-Serif" font-size="10.00">+</text>
<text text-anchor="start" x="188" y="-169.5" font-family="Helvetica,sans-Serif" font-size="10.00">getObjects()</text>
<text text-anchor="start" x="168.5" y="-154.5" font-family="Helvetica,sans-Serif" font-size="10.00">+</text>
<text text-anchor="start" x="188" y="-154.5" font-family="Helvetica,sans-Serif" font-size="10.00">getUntypedObjects()</text>
<text text-anchor="start" x="168.5" y="-139.5" font-family="Helvetica,sans-Serif" font-size="10.00">+</text>
<text text-anchor="start" x="188" y="-139.5" font-family="Helvetica,sans-Serif" font-size="10.00">isRemoteParticipant()</text>
<text text-anchor="start" x="168.5" y="-124.5" font-family="Helvetica,sans-Serif" font-size="10.00">+</text>
<text text-anchor="start" x="188" y="-124.5" font-family="Helvetica,sans-Serif" font-size="10.00">isLocalParticipant()</text>
<text text-anchor="start" x="168.5" y="-109.5" font-family="Helvetica,sans-Serif" font-size="10.00">#</text>
<text text-anchor="start" x="188" y="-109.5" font-family="Helvetica,sans-Serif" font-size="10.00">onObjectsAdded()</text>
<text text-anchor="start" x="168.5" y="-94.5" font-family="Helvetica,sans-Serif" font-size="10.00">#</text>
<text text-anchor="start" x="188" y="-94.5" font-family="Helvetica,sans-Serif" font-size="10.00">onObjectsRemoved()</text>
<polygon fill="#666666" stroke="#666666" points="158,-254.5 158,-254.5 312,-254.5 312,-254.5 158,-254.5"/>
<polygon fill="#666666" stroke="#666666" points="158,-239.5 158,-239.5 186,-239.5 186,-239.5 158,-239.5"/>
<polygon fill="#666666" stroke="#666666" points="186,-239.5 186,-239.5 312,-239.5 312,-239.5 186,-239.5"/>
<polygon fill="none" stroke="#666666" points="158,-88 158,-283 312,-283 312,-88 158,-88"/>
</a>
</g>
</g>
<!-- Node1&#45;&gt;Node3 -->
<g id="edge2_Node000001_Node000003" class="edge">
<title>Node1&#45;&gt;Node3</title>
<g id="a_edge2_Node000001_Node000003"><a xlink:title=" ">
<path fill="none" stroke="#63b8ff" d="M410.62,-434.49C379.48,-418.82 345.73,-397.65 321,-371 297.8,-346 279.88,-313.63 266.54,-283"/>
<polygon fill="none" stroke="#63b8ff" points="409.23,-437.71 419.75,-438.97 412.31,-431.42 409.23,-437.71"/>
</a>
</g>
</g>
<!-- Node4 -->
<g id="Node000004" class="node">
<title>Node4</title>
<g id="a_Node000004"><a xlink:href="classsen_1_1_muxed_provider_listener.html" target="_top" xlink:title="An extended ObjectProviderListener that works together with ObjectMux and notifies when objects provi...">
<polygon fill="white" stroke="transparent" points="495.5,-232.5 330.5,-232.5 330.5,-138.5 495.5,-138.5 495.5,-232.5"/>
<text text-anchor="start" x="345.5" y="-220.5" font-family="Helvetica,sans-Serif" font-size="10.00">sen::MuxedProviderListener</text>
<text text-anchor="start" x="411.5" y="-205.5" font-family="Helvetica,sans-Serif" font-size="10.00"> </text>
<text text-anchor="start" x="335" y="-190.5" font-family="Helvetica,sans-Serif" font-size="10.00">+</text>
<text text-anchor="start" x="348" y="-190.5" font-family="Helvetica,sans-Serif" font-size="10.00">MuxedProviderListener()</text>
<text text-anchor="start" x="335" y="-175.5" font-family="Helvetica,sans-Serif" font-size="10.00">+</text>
<text text-anchor="start" x="348" y="-175.5" font-family="Helvetica,sans-Serif" font-size="10.00">~MuxedProviderListener()</text>
<text text-anchor="start" x="335" y="-160.5" font-family="Helvetica,sans-Serif" font-size="10.00">+</text>
<text text-anchor="start" x="348" y="-160.5" font-family="Helvetica,sans-Serif" font-size="10.00">onExistingObjectsReadded()</text>
<text text-anchor="start" x="335" y="-145.5" font-family="Helvetica,sans-Serif" font-size="10.00">+</text>
<text text-anchor="start" x="348" y="-145.5" font-family="Helvetica,sans-Serif" font-size="10.00">onObjectsRefCountReduced()</text>
<polygon fill="#666666" stroke="#666666" points="331,-215.5 331,-215.5 496,-215.5 496,-215.5 331,-215.5"/>
<polygon fill="#666666" stroke="#666666" points="331,-200.5 331,-200.5 496,-200.5 496,-200.5 331,-200.5"/>
<polygon fill="none" stroke="#666666" points="330.5,-138.5 330.5,-232.5 495.5,-232.5 495.5,-138.5 330.5,-138.5"/>
</a>
</g>
</g>
<!-- Node1&#45;&gt;Node4 -->
<g id="edge3_Node000001_Node000004" class="edge">
<title>Node1&#45;&gt;Node4</title>
<g id="a_edge3_Node000001_Node000004"><a xlink:title=" ">
<path fill="none" stroke="#63b8ff" d="M473.62,-397.17C458.79,-345.62 439.13,-277.3 426.28,-232.64"/>
<polygon fill="none" stroke="#63b8ff" points="470.3,-398.28 476.42,-406.92 477.02,-396.34 470.3,-398.28"/>
</a>
</g>
</g>
<!-- Node5 -->
<g id="Node000005" class="node">
<title>Node5</title>
<g id="a_Node000005"><a xlink:href="classsen_1_1_object_list.html" target="_top" xlink:title="A list of objects that is managed by some source based on user&#45;expressed interests.">
<polygon fill="white" stroke="transparent" points="638,-270 514,-270 514,-101 638,-101 638,-270"/>
<text text-anchor="start" x="525.5" y="-257.5" font-family="Helvetica,sans-Serif" font-size="10.00">sen::ObjectList&lt; T &gt;</text>
<text text-anchor="start" x="518" y="-242.5" font-family="Helvetica,sans-Serif" font-size="10.00">+</text>
<text text-anchor="start" x="531" y="-242.5" font-family="Helvetica,sans-Serif" font-size="10.00">defaultListSizeHint</text>
<text text-anchor="start" x="518" y="-227.5" font-family="Helvetica,sans-Serif" font-size="10.00">+</text>
<text text-anchor="start" x="531" y="-227.5" font-family="Helvetica,sans-Serif" font-size="10.00">ObjectList()</text>
<text text-anchor="start" x="518" y="-212.5" font-family="Helvetica,sans-Serif" font-size="10.00">+</text>
<text text-anchor="start" x="531" y="-212.5" font-family="Helvetica,sans-Serif" font-size="10.00">ObjectList()</text>
<text text-anchor="start" x="518" y="-197.5" font-family="Helvetica,sans-Serif" font-size="10.00">+</text>
<text text-anchor="start" x="531" y="-197.5" font-family="Helvetica,sans-Serif" font-size="10.00">~ObjectList()</text>
<text text-anchor="start" x="518" y="-182.5" font-family="Helvetica,sans-Serif" font-size="10.00">+</text>
<text text-anchor="start" x="531" y="-182.5" font-family="Helvetica,sans-Serif" font-size="10.00">onAdded()</text>
<text text-anchor="start" x="518" y="-167.5" font-family="Helvetica,sans-Serif" font-size="10.00">+</text>
<text text-anchor="start" x="531" y="-167.5" font-family="Helvetica,sans-Serif" font-size="10.00">onRemoved()</text>
<text text-anchor="start" x="518" y="-152.5" font-family="Helvetica,sans-Serif" font-size="10.00">+</text>
<text text-anchor="start" x="531" y="-152.5" font-family="Helvetica,sans-Serif" font-size="10.00">getObjects()</text>
<text text-anchor="start" x="518" y="-137.5" font-family="Helvetica,sans-Serif" font-size="10.00">+</text>
<text text-anchor="start" x="531" y="-137.5" font-family="Helvetica,sans-Serif" font-size="10.00">getUntypedObjects()</text>
<text text-anchor="start" x="518" y="-122.5" font-family="Helvetica,sans-Serif" font-size="10.00">#</text>
<text text-anchor="start" x="531" y="-122.5" font-family="Helvetica,sans-Serif" font-size="10.00">onObjectsAdded()</text>
<text text-anchor="start" x="518" y="-107.5" font-family="Helvetica,sans-Serif" font-size="10.00">#</text>
<text text-anchor="start" x="531" y="-107.5" font-family="Helvetica,sans-Serif" font-size="10.00">onObjectsRemoved()</text>
<polygon fill="#666666" stroke="#666666" points="514,-252.5 514,-252.5 638,-252.5 638,-252.5 514,-252.5"/>
<polygon fill="#666666" stroke="#666666" points="514,-237.5 514,-237.5 529,-237.5 529,-237.5 514,-237.5"/>
<polygon fill="#666666" stroke="#666666" points="529,-237.5 529,-237.5 638,-237.5 638,-237.5 529,-237.5"/>
<polygon fill="none" stroke="#666666" points="514,-101 514,-270 638,-270 638,-101 514,-101"/>
</a>
</g>
</g>
<!-- Node1&#45;&gt;Node5 -->
<g id="edge4_Node000001_Node000005" class="edge">
<title>Node1&#45;&gt;Node5</title>
<g id="a_edge4_Node000001_Node000005"><a xlink:title=" ">
<path fill="none" stroke="#63b8ff" d="M514.59,-397.31C525.84,-358.7 539.84,-310.63 551.63,-270.15"/>
<polygon fill="none" stroke="#63b8ff" points="511.23,-396.34 511.79,-406.92 517.95,-398.3 511.23,-396.34"/>
</a>
</g>
</g>
<!-- Node6 -->
<g id="Node000006" class="node">
<title>Node6</title>
<g id="a_Node000006"><a xlink:href="classsen_1_1_object_mux.html" target="_top" xlink:title="Converts multiple object providers into one. Providers might reside in different threads....">
<polygon fill="white" stroke="transparent" points="849.5,-371 656.5,-371 656.5,0 849.5,0 849.5,-371"/>
<text text-anchor="start" x="715.5" y="-358.5" font-family="Helvetica,sans-Serif" font-size="10.00">sen::ObjectMux</text>
<text text-anchor="start" x="751.5" y="-343.5" font-family="Helvetica,sans-Serif" font-size="10.00"> </text>
<text text-anchor="start" x="661" y="-328.5" font-family="Helvetica,sans-Serif" font-size="10.00">+</text>
<text text-anchor="start" x="674" y="-328.5" font-family="Helvetica,sans-Serif" font-size="10.00">ObjectMux()</text>
<text text-anchor="start" x="661" y="-313.5" font-family="Helvetica,sans-Serif" font-size="10.00">+</text>
<text text-anchor="start" x="674" y="-313.5" font-family="Helvetica,sans-Serif" font-size="10.00">~ObjectMux()</text>
<text text-anchor="start" x="661" y="-298.5" font-family="Helvetica,sans-Serif" font-size="10.00">+</text>
<text text-anchor="start" x="674" y="-298.5" font-family="Helvetica,sans-Serif" font-size="10.00">addListener()</text>
<text text-anchor="start" x="661" y="-283.5" font-family="Helvetica,sans-Serif" font-size="10.00">+</text>
<text text-anchor="start" x="674" y="-283.5" font-family="Helvetica,sans-Serif" font-size="10.00">removeListener()</text>
<text text-anchor="start" x="661" y="-268.5" font-family="Helvetica,sans-Serif" font-size="10.00">+</text>
<text text-anchor="start" x="674" y="-268.5" font-family="Helvetica,sans-Serif" font-size="10.00">hasListener()</text>
<text text-anchor="start" x="661" y="-253.5" font-family="Helvetica,sans-Serif" font-size="10.00">+</text>
<text text-anchor="start" x="674" y="-253.5" font-family="Helvetica,sans-Serif" font-size="10.00">hasListeners()</text>
<text text-anchor="start" x="661" y="-238.5" font-family="Helvetica,sans-Serif" font-size="10.00">+</text>
<text text-anchor="start" x="674" y="-238.5" font-family="Helvetica,sans-Serif" font-size="10.00">addMuxedListener()</text>
<text text-anchor="start" x="661" y="-223.5" font-family="Helvetica,sans-Serif" font-size="10.00">+</text>
<text text-anchor="start" x="674" y="-223.5" font-family="Helvetica,sans-Serif" font-size="10.00">removeMuxedListener()</text>
<text text-anchor="start" x="661" y="-208.5" font-family="Helvetica,sans-Serif" font-size="10.00">+</text>
<text text-anchor="start" x="674" y="-208.5" font-family="Helvetica,sans-Serif" font-size="10.00">hasMuxedListener()</text>
<text text-anchor="start" x="661" y="-193.5" font-family="Helvetica,sans-Serif" font-size="10.00">#</text>
<text text-anchor="start" x="674" y="-193.5" font-family="Helvetica,sans-Serif" font-size="10.00">notifyAddedOnExistingObjects()</text>
<text text-anchor="start" x="661" y="-178.5" font-family="Helvetica,sans-Serif" font-size="10.00">#</text>
<text text-anchor="start" x="674" y="-178.5" font-family="Helvetica,sans-Serif" font-size="10.00">notifyRemovedOnExistingObjects()</text>
<text text-anchor="start" x="661" y="-163.5" font-family="Helvetica,sans-Serif" font-size="10.00">#</text>
<text text-anchor="start" x="674" y="-163.5" font-family="Helvetica,sans-Serif" font-size="10.00">notifyObjectsAdded()</text>
<text text-anchor="start" x="661" y="-148.5" font-family="Helvetica,sans-Serif" font-size="10.00">#</text>
<text text-anchor="start" x="674" y="-148.5" font-family="Helvetica,sans-Serif" font-size="10.00">notifyObjectsRemoved()</text>
<text text-anchor="start" x="661" y="-133.5" font-family="Helvetica,sans-Serif" font-size="10.00">#</text>
<text text-anchor="start" x="674" y="-133.5" font-family="Helvetica,sans-Serif" font-size="10.00">notifyMuxedAddedOnExisting</text>
<text text-anchor="start" x="674" y="-122.5" font-family="Helvetica,sans-Serif" font-size="10.00">Objects()</text>
<text text-anchor="start" x="661" y="-107.5" font-family="Helvetica,sans-Serif" font-size="10.00">#</text>
<text text-anchor="start" x="674" y="-107.5" font-family="Helvetica,sans-Serif" font-size="10.00">notifyMuxedRemovedOnExisting</text>
<text text-anchor="start" x="674" y="-96.5" font-family="Helvetica,sans-Serif" font-size="10.00">Objects()</text>
<text text-anchor="start" x="661" y="-81.5" font-family="Helvetica,sans-Serif" font-size="10.00">#</text>
<text text-anchor="start" x="674" y="-81.5" font-family="Helvetica,sans-Serif" font-size="10.00">notifyExistingObjectsReadded()</text>
<text text-anchor="start" x="661" y="-66.5" font-family="Helvetica,sans-Serif" font-size="10.00">#</text>
<text text-anchor="start" x="674" y="-66.5" font-family="Helvetica,sans-Serif" font-size="10.00">notifyObjectsRefCountReduced()</text>
<text text-anchor="start" x="661" y="-51.5" font-family="Helvetica,sans-Serif" font-size="10.00">#</text>
<text text-anchor="start" x="674" y="-51.5" font-family="Helvetica,sans-Serif" font-size="10.00">callOnExistingObjectsReadded()</text>
<text text-anchor="start" x="661" y="-36.5" font-family="Helvetica,sans-Serif" font-size="10.00">#</text>
<text text-anchor="start" x="674" y="-36.5" font-family="Helvetica,sans-Serif" font-size="10.00">callOnObjectsRefCountReduced()</text>
<text text-anchor="start" x="661" y="-21.5" font-family="Helvetica,sans-Serif" font-size="10.00">#</text>
<text text-anchor="start" x="674" y="-21.5" font-family="Helvetica,sans-Serif" font-size="10.00">onObjectsAdded()</text>
<text text-anchor="start" x="661" y="-6.5" font-family="Helvetica,sans-Serif" font-size="10.00">#</text>
<text text-anchor="start" x="674" y="-6.5" font-family="Helvetica,sans-Serif" font-size="10.00">onObjectsRemoved()</text>
<polygon fill="#666666" stroke="#666666" points="657,-353.5 657,-353.5 850,-353.5 850,-353.5 657,-353.5"/>
<polygon fill="#666666" stroke="#666666" points="657,-338.5 657,-338.5 850,-338.5 850,-338.5 657,-338.5"/>
<polygon fill="none" stroke="#666666" points="656.5,0 656.5,-371 849.5,-371 849.5,0 656.5,0"/>
</a>
</g>
</g>
<!-- Node1&#45;&gt;Node6 -->
<g id="edge5_Node000001_Node000006" class="edge">
<title>Node1&#45;&gt;Node6</title>
<g id="a_edge5_Node000001_Node000006"><a xlink:title=" ">
<path fill="none" stroke="#63b8ff" d="M576.82,-425.6C601.28,-410.54 626.86,-392.03 647,-371 650.19,-367.66 653.33,-364.21 656.4,-360.67"/>
<polygon fill="none" stroke="#63b8ff" points="574.99,-422.62 568.23,-430.78 578.6,-428.61 574.99,-422.62"/>
</a>
</g>
</g>
<!-- Node7 -->
<g id="Node000007" class="node">
<title>Node7</title>
<g id="a_Node000007"><a xlink:href="classsen_1_1_object_ref.html" target="_top" xlink:title="Object references may or may not hold an object instance. Their value is set by a provider based on s...">
<polygon fill="white" stroke="transparent" points="992,-292.5 868,-292.5 868,-78.5 992,-78.5 992,-292.5"/>
<text text-anchor="start" x="880" y="-280.5" font-family="Helvetica,sans-Serif" font-size="10.00">sen::ObjectRef&lt; T &gt;</text>
<text text-anchor="start" x="928" y="-265.5" font-family="Helvetica,sans-Serif" font-size="10.00"> </text>
<text text-anchor="start" x="872" y="-250.5" font-family="Helvetica,sans-Serif" font-size="10.00">+</text>
<text text-anchor="start" x="885" y="-250.5" font-family="Helvetica,sans-Serif" font-size="10.00">ObjectRef()</text>
<text text-anchor="start" x="872" y="-235.5" font-family="Helvetica,sans-Serif" font-size="10.00">+</text>
<text text-anchor="start" x="885" y="-235.5" font-family="Helvetica,sans-Serif" font-size="10.00">~ObjectRef()</text>
<text text-anchor="start" x="872" y="-220.5" font-family="Helvetica,sans-Serif" font-size="10.00">+</text>
<text text-anchor="start" x="885" y="-220.5" font-family="Helvetica,sans-Serif" font-size="10.00">valid()</text>
<text text-anchor="start" x="872" y="-205.5" font-family="Helvetica,sans-Serif" font-size="10.00">+</text>
<text text-anchor="start" x="885" y="-205.5" font-family="Helvetica,sans-Serif" font-size="10.00">operator bool()</text>
<text text-anchor="start" x="872" y="-190.5" font-family="Helvetica,sans-Serif" font-size="10.00">+</text>
<text text-anchor="start" x="885" y="-190.5" font-family="Helvetica,sans-Serif" font-size="10.00">operator&#45;&gt;()</text>
<text text-anchor="start" x="872" y="-175.5" font-family="Helvetica,sans-Serif" font-size="10.00">+</text>
<text text-anchor="start" x="885" y="-175.5" font-family="Helvetica,sans-Serif" font-size="10.00">operator&#45;&gt;()</text>
<text text-anchor="start" x="872" y="-160.5" font-family="Helvetica,sans-Serif" font-size="10.00">+</text>
<text text-anchor="start" x="885" y="-160.5" font-family="Helvetica,sans-Serif" font-size="10.00">get()</text>
<text text-anchor="start" x="872" y="-145.5" font-family="Helvetica,sans-Serif" font-size="10.00">+</text>
<text text-anchor="start" x="885" y="-145.5" font-family="Helvetica,sans-Serif" font-size="10.00">get()</text>
<text text-anchor="start" x="872" y="-130.5" font-family="Helvetica,sans-Serif" font-size="10.00">+</text>
<text text-anchor="start" x="885" y="-130.5" font-family="Helvetica,sans-Serif" font-size="10.00">onAdded()</text>
<text text-anchor="start" x="872" y="-115.5" font-family="Helvetica,sans-Serif" font-size="10.00">+</text>
<text text-anchor="start" x="885" y="-115.5" font-family="Helvetica,sans-Serif" font-size="10.00">onRemoved()</text>
<text text-anchor="start" x="872" y="-100.5" font-family="Helvetica,sans-Serif" font-size="10.00">#</text>
<text text-anchor="start" x="885" y="-100.5" font-family="Helvetica,sans-Serif" font-size="10.00">onObjectsAdded()</text>
<text text-anchor="start" x="872" y="-85.5" font-family="Helvetica,sans-Serif" font-size="10.00">#</text>
<text text-anchor="start" x="885" y="-85.5" font-family="Helvetica,sans-Serif" font-size="10.00">onObjectsRemoved()</text>
<polygon fill="#666666" stroke="#666666" points="868,-275.5 868,-275.5 992,-275.5 992,-275.5 868,-275.5"/>
<polygon fill="#666666" stroke="#666666" points="868,-260.5 868,-260.5 992,-260.5 992,-260.5 868,-260.5"/>
<polygon fill="none" stroke="#666666" points="868,-78.5 868,-292.5 992,-292.5 992,-78.5 868,-78.5"/>
</a>
</g>
</g>
<!-- Node1&#45;&gt;Node7 -->
<g id="edge6_Node000001_Node000007" class="edge">
<title>Node1&#45;&gt;Node7</title>
<g id="a_edge6_Node000001_Node000007"><a xlink:title=" ">
<path fill="none" stroke="#63b8ff" d="M578.53,-466.74C659.85,-461.12 781.57,-440.52 859,-371 881.98,-350.36 897.58,-321.43 908.15,-292.59"/>
<polygon fill="none" stroke="#63b8ff" points="578.08,-463.26 568.32,-467.38 578.52,-470.25 578.08,-463.26"/>
</a>
</g>
</g>
</g>
</svg>
