<?xml version="1.0" encoding="UTF-8" standalone="no"?>
<!DOCTYPE svg PUBLIC "-//W3C//DTD SVG 1.1//EN"
 "http://www.w3.org/Graphics/SVG/1.1/DTD/svg11.dtd">
<!-- Generated by graphviz version 2.43.0 (0)
 -->
<!-- Title: sen::util::DeadReckoner&lt; T &gt; Pages: 1 -->
<svg width="185pt" height="598pt"
 viewBox="0.00 0.00 185.00 598.00" xmlns="http://www.w3.org/2000/svg" xmlns:xlink="http://www.w3.org/1999/xlink">
<g id="graph0" class="graph" transform="scale(1 1) rotate(0) translate(4 594)">
<title>sen::util::DeadReckoner&lt; T &gt;</title>
<!-- Node1 -->
<g id="Node000001" class="node">
<title>Node1</title>
<g id="a_Node000001"><a xlink:title="Enables the user to predict an object’s position and movement at any future time applying dead reckon...">
<polygon fill="#999999" stroke="transparent" points="166,-139 11,-139 11,0 166,0 166,-139"/>
<text text-anchor="start" x="16.5" y="-126.5" font-family="Helvetica,sans-Serif" font-size="10.00">sen::util::DeadReckoner&lt; T &gt;</text>
<text text-anchor="start" x="87" y="-111.5" font-family="Helvetica,sans-Serif" font-size="10.00"> </text>
<text text-anchor="start" x="22.5" y="-96.5" font-family="Helvetica,sans-Serif" font-size="10.00">+</text>
<text text-anchor="start" x="42.5" y="-96.5" font-family="Helvetica,sans-Serif" font-size="10.00">DeadReckoner()</text>
<text text-anchor="start" x="22.5" y="-81.5" font-family="Helvetica,sans-Serif" font-size="10.00">+</text>
<text text-anchor="start" x="42.5" y="-81.5" font-family="Helvetica,sans-Serif" font-size="10.00">~DeadReckoner()</text>
<text text-anchor="start" x="22.5" y="-66.5" font-family="Helvetica,sans-Serif" font-size="10.00">+</text>
<text text-anchor="start" x="42.5" y="-66.5" font-family="Helvetica,sans-Serif" font-size="10.00">situation()</text>
<text text-anchor="start" x="22.5" y="-51.5" font-family="Helvetica,sans-Serif" font-size="10.00">+</text>
<text text-anchor="start" x="42.5" y="-51.5" font-family="Helvetica,sans-Serif" font-size="10.00">geodeticSituation()</text>
<text text-anchor="start" x="22.5" y="-36.5" font-family="Helvetica,sans-Serif" font-size="10.00">+</text>
<text text-anchor="start" x="42.5" y="-36.5" font-family="Helvetica,sans-Serif" font-size="10.00">getObject()</text>
<text text-anchor="start" x="22.5" y="-21.5" font-family="Helvetica,sans-Serif" font-size="10.00">+</text>
<text text-anchor="start" x="42.5" y="-21.5" font-family="Helvetica,sans-Serif" font-size="10.00">toSituation()</text>
<text text-anchor="start" x="22.5" y="-6.5" font-family="Helvetica,sans-Serif" font-size="10.00">+</text>
<text text-anchor="start" x="42.5" y="-6.5" font-family="Helvetica,sans-Serif" font-size="10.00">toGeodeticSituation()</text>
<polygon fill="#666666" stroke="#666666" points="11.5,-121.5 11.5,-121.5 166.5,-121.5 166.5,-121.5 11.5,-121.5"/>
<polygon fill="#666666" stroke="#666666" points="11.5,-106.5 11.5,-106.5 166.5,-106.5 166.5,-106.5 11.5,-106.5"/>
<polygon fill="none" stroke="#666666" points="11,0 11,-139 166,-139 166,0 11,0"/>
</a>
</g>
</g>
<!-- Node2 -->
<g id="Node000002" class="node">
<title>Node2</title>
<g id="a_Node000002"><a xlink:href="classsen_1_1util_1_1_dead_reckoner_template_base.html" target="_top" xlink:title="Base class for the DeadReckoner and SettableDeadReckoner classes.">
<polygon fill="white" stroke="transparent" points="177,-265 0,-265 0,-175 177,-175 177,-265"/>
<text text-anchor="start" x="8.5" y="-253" font-family="Helvetica,sans-Serif" font-size="10.00">sen::util::DeadReckonerTemplate</text>
<text text-anchor="start" x="62.5" y="-242" font-family="Helvetica,sans-Serif" font-size="10.00">Base&lt; T &gt;</text>
<text text-anchor="start" x="87" y="-227" font-family="Helvetica,sans-Serif" font-size="10.00"> </text>
<text text-anchor="start" x="4.5" y="-212" font-family="Helvetica,sans-Serif" font-size="10.00">+</text>
<text text-anchor="start" x="17.5" y="-212" font-family="Helvetica,sans-Serif" font-size="10.00">DeadReckonerTemplateBase()</text>
<text text-anchor="start" x="4.5" y="-197" font-family="Helvetica,sans-Serif" font-size="10.00">+</text>
<text text-anchor="start" x="17.5" y="-197" font-family="Helvetica,sans-Serif" font-size="10.00">~DeadReckonerTemplateBase()</text>
<text text-anchor="start" x="4.5" y="-182" font-family="Helvetica,sans-Serif" font-size="10.00">#</text>
<text text-anchor="start" x="17.5" y="-182" font-family="Helvetica,sans-Serif" font-size="10.00">extrapolate()</text>
<polygon fill="#666666" stroke="#666666" points="0.5,-237 0.5,-237 177.5,-237 177.5,-237 0.5,-237"/>
<polygon fill="#666666" stroke="#666666" points="0.5,-222 0.5,-222 177.5,-222 177.5,-222 0.5,-222"/>
<polygon fill="none" stroke="#666666" points="0,-175 0,-265 177,-265 177,-175 0,-175"/>
</a>
</g>
</g>
<!-- Node2&#45;&gt;Node1 -->
<g id="edge1_Node000001_Node000002" class="edge">
<title>Node2&#45;&gt;Node1</title>
<g id="a_edge1_Node000001_Node000002"><a xlink:title=" ">
<path fill="none" stroke="#63b8ff" d="M88.5,-164.62C88.5,-156.36 88.5,-147.75 88.5,-139.24"/>
<polygon fill="none" stroke="#63b8ff" points="85,-164.85 88.5,-174.85 92,-164.85 85,-164.85"/>
</a>
</g>
</g>
<!-- Node3 -->
<g id="Node000003" class="node">
<title>Node3</title>
<g id="a_Node000003"><a xlink:href="classsen_1_1util_1_1_dead_reckoner_base.html" target="_top" xlink:title="Extrapolates the Situation of an entity at a certain time. The extrapolation is smoothed by default u...">
<polygon fill="white" stroke="transparent" points="172.5,-590 4.5,-590 4.5,-301 172.5,-301 172.5,-590"/>
<text text-anchor="start" x="18.5" y="-577.5" font-family="Helvetica,sans-Serif" font-size="10.00">sen::util::DeadReckonerBase</text>
<text text-anchor="start" x="86.5" y="-562.5" font-family="Helvetica,sans-Serif" font-size="10.00"> </text>
<text text-anchor="start" x="8.5" y="-547.5" font-family="Helvetica,sans-Serif" font-size="10.00">+</text>
<text text-anchor="start" x="21.5" y="-547.5" font-family="Helvetica,sans-Serif" font-size="10.00">DeadReckonerBase()</text>
<text text-anchor="start" x="8.5" y="-532.5" font-family="Helvetica,sans-Serif" font-size="10.00">+</text>
<text text-anchor="start" x="21.5" y="-532.5" font-family="Helvetica,sans-Serif" font-size="10.00">~DeadReckonerBase()</text>
<text text-anchor="start" x="8.5" y="-517.5" font-family="Helvetica,sans-Serif" font-size="10.00">+</text>
<text text-anchor="start" x="21.5" y="-517.5" font-family="Helvetica,sans-Serif" font-size="10.00">situation()</text>
<text text-anchor="start" x="8.5" y="-502.5" font-family="Helvetica,sans-Serif" font-size="10.00">+</text>
<text text-anchor="start" x="21.5" y="-502.5" font-family="Helvetica,sans-Serif" font-size="10.00">geodeticSituation()</text>
<text text-anchor="start" x="8.5" y="-487.5" font-family="Helvetica,sans-Serif" font-size="10.00">+</text>
<text text-anchor="start" x="21.5" y="-487.5" font-family="Helvetica,sans-Serif" font-size="10.00">updateSituation()</text>
<text text-anchor="start" x="8.5" y="-472.5" font-family="Helvetica,sans-Serif" font-size="10.00">+</text>
<text text-anchor="start" x="21.5" y="-472.5" font-family="Helvetica,sans-Serif" font-size="10.00">updateGeodeticSituation()</text>
<text text-anchor="start" x="8.5" y="-457.5" font-family="Helvetica,sans-Serif" font-size="10.00">+</text>
<text text-anchor="start" x="21.5" y="-457.5" font-family="Helvetica,sans-Serif" font-size="10.00">getConfig()</text>
<text text-anchor="start" x="8.5" y="-442.5" font-family="Helvetica,sans-Serif" font-size="10.00">+</text>
<text text-anchor="start" x="21.5" y="-442.5" font-family="Helvetica,sans-Serif" font-size="10.00">setConfig()</text>
<text text-anchor="start" x="8.5" y="-427.5" font-family="Helvetica,sans-Serif" font-size="10.00">#</text>
<text text-anchor="start" x="21.5" y="-427.5" font-family="Helvetica,sans-Serif" font-size="10.00">getSmoothSituation()</text>
<text text-anchor="start" x="8.5" y="-412.5" font-family="Helvetica,sans-Serif" font-size="10.00">#</text>
<text text-anchor="start" x="21.5" y="-412.5" font-family="Helvetica,sans-Serif" font-size="10.00">smooth()</text>
<text text-anchor="start" x="8.5" y="-397.5" font-family="Helvetica,sans-Serif" font-size="10.00">#</text>
<text text-anchor="start" x="21.5" y="-397.5" font-family="Helvetica,sans-Serif" font-size="10.00">invalidateCache()</text>
<text text-anchor="start" x="8.5" y="-382.5" font-family="Helvetica,sans-Serif" font-size="10.00">#</text>
<text text-anchor="start" x="21.5" y="-382.5" font-family="Helvetica,sans-Serif" font-size="10.00">isSituationCached()</text>
<text text-anchor="start" x="8.5" y="-367.5" font-family="Helvetica,sans-Serif" font-size="10.00">#</text>
<text text-anchor="start" x="21.5" y="-367.5" font-family="Helvetica,sans-Serif" font-size="10.00">setCachedSituation()</text>
<text text-anchor="start" x="8.5" y="-352.5" font-family="Helvetica,sans-Serif" font-size="10.00">#</text>
<text text-anchor="start" x="21.5" y="-352.5" font-family="Helvetica,sans-Serif" font-size="10.00">getCachedSituation()</text>
<text text-anchor="start" x="8.5" y="-337.5" font-family="Helvetica,sans-Serif" font-size="10.00">#</text>
<text text-anchor="start" x="21.5" y="-337.5" font-family="Helvetica,sans-Serif" font-size="10.00">isGeodeticSituationCached()</text>
<text text-anchor="start" x="8.5" y="-322.5" font-family="Helvetica,sans-Serif" font-size="10.00">#</text>
<text text-anchor="start" x="21.5" y="-322.5" font-family="Helvetica,sans-Serif" font-size="10.00">setCachedGeodeticSituation()</text>
<text text-anchor="start" x="8.5" y="-307.5" font-family="Helvetica,sans-Serif" font-size="10.00">#</text>
<text text-anchor="start" x="21.5" y="-307.5" font-family="Helvetica,sans-Serif" font-size="10.00">getCachedGeodeticSituation()</text>
<polygon fill="#666666" stroke="#666666" points="4.5,-572.5 4.5,-572.5 172.5,-572.5 172.5,-572.5 4.5,-572.5"/>
<polygon fill="#666666" stroke="#666666" points="4.5,-557.5 4.5,-557.5 172.5,-557.5 172.5,-557.5 4.5,-557.5"/>
<polygon fill="none" stroke="#666666" points="4.5,-301 4.5,-590 172.5,-590 172.5,-301 4.5,-301"/>
</a>
</g>
</g>
<!-- Node3&#45;&gt;Node2 -->
<g id="edge2_Node000002_Node000003" class="edge">
<title>Node3&#45;&gt;Node2</title>
<g id="a_edge2_Node000002_Node000003"><a xlink:title=" ">
<path fill="none" stroke="#63b8ff" d="M88.5,-290.47C88.5,-281.51 88.5,-272.98 88.5,-265.16"/>
<polygon fill="none" stroke="#63b8ff" points="85,-290.74 88.5,-300.74 92,-290.74 85,-290.74"/>
</a>
</g>
</g>
</g>
</svg>
