<?xml version="1.0" encoding="UTF-8" standalone="no"?>
<!DOCTYPE svg PUBLIC "-//W3C//DTD SVG 1.1//EN"
 "http://www.w3.org/Graphics/SVG/1.1/DTD/svg11.dtd">
<!-- Generated by graphviz version 2.43.0 (0)
 -->
<!-- Title: sen::lang::TypeSetContext::TypeSetIterator Pages: 1 -->
<svg width="145pt" height="205pt"
 viewBox="0.00 0.00 145.00 205.00" xmlns="http://www.w3.org/2000/svg" xmlns:xlink="http://www.w3.org/1999/xlink">
<g id="graph0" class="graph" transform="scale(1 1) rotate(0) translate(4 201)">
<title>sen::lang::TypeSetContext::TypeSetIterator</title>
<!-- Node1 -->
<g id="Node000001" class="node">
<title>Node1</title>
<g id="a_Node000001"><a xlink:title=" ">
<polygon fill="#999999" stroke="transparent" points="137,-90 0,-90 0,0 137,0 137,-90"/>
<text text-anchor="start" x="5.5" y="-78" font-family="Helvetica,sans-Serif" font-size="10.00">sen::lang::TypeSetContext</text>
<text text-anchor="start" x="28.5" y="-67" font-family="Helvetica,sans-Serif" font-size="10.00">::TypeSetIterator</text>
<text text-anchor="start" x="67" y="-52" font-family="Helvetica,sans-Serif" font-size="10.00"> </text>
<text text-anchor="start" x="18" y="-37" font-family="Helvetica,sans-Serif" font-size="10.00">+</text>
<text text-anchor="start" x="44.5" y="-37" font-family="Helvetica,sans-Serif" font-size="10.00">operator*()</text>
<text text-anchor="start" x="18" y="-22" font-family="Helvetica,sans-Serif" font-size="10.00">+</text>
<text text-anchor="start" x="44.5" y="-22" font-family="Helvetica,sans-Serif" font-size="10.00">operator&#45;&gt;()</text>
<text text-anchor="start" x="18" y="-7" font-family="Helvetica,sans-Serif" font-size="10.00">+</text>
<text text-anchor="start" x="44.5" y="-7" font-family="Helvetica,sans-Serif" font-size="10.00">operator[]()</text>
<polygon fill="#666666" stroke="#666666" points="0.5,-62 0.5,-62 137.5,-62 137.5,-62 0.5,-62"/>
<polygon fill="#666666" stroke="#666666" points="0.5,-47 0.5,-47 137.5,-47 137.5,-47 0.5,-47"/>
<polygon fill="none" stroke="#666666" points="0,0 0,-90 137,-90 137,0 0,0"/>
</a>
</g>
</g>
<!-- Node2 -->
<g id="Node000002" class="node">
<title>Node2</title>
<g id="a_Node000002"><a xlink:title=" ">
<polygon fill="white" stroke="transparent" points="135.5,-197 1.5,-197 1.5,-126 135.5,-126 135.5,-197"/>
<text text-anchor="start" x="6.5" y="-184.5" font-family="Helvetica,sans-Serif" font-size="10.00">std::vector&lt; std::unique</text>
<text text-anchor="start" x="6.5" y="-173.5" font-family="Helvetica,sans-Serif" font-size="10.00">_ptr&lt; TypeSet &gt; &gt;::const</text>
<text text-anchor="start" x="47.5" y="-162.5" font-family="Helvetica,sans-Serif" font-size="10.00">_iterator</text>
<text text-anchor="start" x="66.5" y="-147.5" font-family="Helvetica,sans-Serif" font-size="10.00"> </text>
<text text-anchor="start" x="66.5" y="-132.5" font-family="Helvetica,sans-Serif" font-size="10.00"> </text>
<polygon fill="#666666" stroke="#666666" points="1.5,-157.5 1.5,-157.5 135.5,-157.5 135.5,-157.5 1.5,-157.5"/>
<polygon fill="#666666" stroke="#666666" points="1.5,-142.5 1.5,-142.5 135.5,-142.5 135.5,-142.5 1.5,-142.5"/>
<polygon fill="none" stroke="#666666" points="1.5,-126 1.5,-197 135.5,-197 135.5,-126 1.5,-126"/>
</a>
</g>
</g>
<!-- Node2&#45;&gt;Node1 -->
<g id="edge1_Node000001_Node000002" class="edge">
<title>Node2&#45;&gt;Node1</title>
<g id="a_edge1_Node000001_Node000002"><a xlink:title=" ">
<path fill="none" stroke="#63b8ff" d="M68.5,-115.56C68.5,-107.26 68.5,-98.59 68.5,-90.3"/>
<polygon fill="none" stroke="#63b8ff" points="65,-115.84 68.5,-125.84 72,-115.84 65,-115.84"/>
</a>
</g>
</g>
</g>
</svg>
