<?xml version="1.0" encoding="UTF-8" standalone="no"?>
<!DOCTYPE svg PUBLIC "-//W3C//DTD SVG 1.1//EN"
 "http://www.w3.org/Graphics/SVG/1.1/DTD/svg11.dtd">
<!-- Generated by graphviz version 2.43.0 (0)
 -->
<!-- Title: sen::StaticVectorBase&lt; T &gt; Pages: 1 -->
<svg width="377pt" height="603pt"
 viewBox="0.00 0.00 377.00 603.00" xmlns="http://www.w3.org/2000/svg" xmlns:xlink="http://www.w3.org/1999/xlink">
<g id="graph0" class="graph" transform="scale(1 1) rotate(0) translate(4 599)">
<title>sen::StaticVectorBase&lt; T &gt;</title>
<!-- Node1 -->
<g id="Node000001" class="node">
<title>Node1</title>
<g id="a_Node000001"><a xlink:title="Base class for stack&#45;based, exception&#45;safe and resizable vector with fixed&#45;capacity.">
<polygon fill="#999999" stroke="transparent" points="266,-595 107,-595 107,-276 266,-276 266,-595"/>
<text text-anchor="start" x="119.5" y="-582.5" font-family="Helvetica,sans-Serif" font-size="10.00">sen::StaticVectorBase&lt; T &gt;</text>
<text text-anchor="start" x="111.5" y="-567.5" font-family="Helvetica,sans-Serif" font-size="10.00">+</text>
<text text-anchor="start" x="124.5" y="-567.5" font-family="Helvetica,sans-Serif" font-size="10.00">nothrowDes</text>
<text text-anchor="start" x="111.5" y="-552.5" font-family="Helvetica,sans-Serif" font-size="10.00">+</text>
<text text-anchor="start" x="124.5" y="-552.5" font-family="Helvetica,sans-Serif" font-size="10.00">nothrowDefaultCons</text>
<text text-anchor="start" x="111.5" y="-537.5" font-family="Helvetica,sans-Serif" font-size="10.00">+</text>
<text text-anchor="start" x="124.5" y="-537.5" font-family="Helvetica,sans-Serif" font-size="10.00">nothrowCopyCons</text>
<text text-anchor="start" x="111.5" y="-522.5" font-family="Helvetica,sans-Serif" font-size="10.00">+</text>
<text text-anchor="start" x="124.5" y="-522.5" font-family="Helvetica,sans-Serif" font-size="10.00">nothrowMoveCons</text>
<text text-anchor="start" x="111.5" y="-507.5" font-family="Helvetica,sans-Serif" font-size="10.00">+</text>
<text text-anchor="start" x="124.5" y="-507.5" font-family="Helvetica,sans-Serif" font-size="10.00">nothrowCopyAndDes</text>
<text text-anchor="start" x="111.5" y="-492.5" font-family="Helvetica,sans-Serif" font-size="10.00">+</text>
<text text-anchor="start" x="124.5" y="-492.5" font-family="Helvetica,sans-Serif" font-size="10.00">nothrowDefaultConsAndDes</text>
<text text-anchor="start" x="111.5" y="-477.5" font-family="Helvetica,sans-Serif" font-size="10.00">+</text>
<text text-anchor="start" x="124.5" y="-477.5" font-family="Helvetica,sans-Serif" font-size="10.00">StaticVectorBase()</text>
<text text-anchor="start" x="111.5" y="-462.5" font-family="Helvetica,sans-Serif" font-size="10.00">+</text>
<text text-anchor="start" x="124.5" y="-462.5" font-family="Helvetica,sans-Serif" font-size="10.00">StaticVectorBase()</text>
<text text-anchor="start" x="111.5" y="-447.5" font-family="Helvetica,sans-Serif" font-size="10.00">+</text>
<text text-anchor="start" x="124.5" y="-447.5" font-family="Helvetica,sans-Serif" font-size="10.00">operator=()</text>
<text text-anchor="start" x="111.5" y="-432.5" font-family="Helvetica,sans-Serif" font-size="10.00">+</text>
<text text-anchor="start" x="124.5" y="-432.5" font-family="Helvetica,sans-Serif" font-size="10.00">operator=()</text>
<text text-anchor="start" x="111.5" y="-417.5" font-family="Helvetica,sans-Serif" font-size="10.00">+</text>
<text text-anchor="start" x="124.5" y="-417.5" font-family="Helvetica,sans-Serif" font-size="10.00">size()</text>
<text text-anchor="start" x="111.5" y="-402.5" font-family="Helvetica,sans-Serif" font-size="10.00">+</text>
<text text-anchor="start" x="124.5" y="-402.5" font-family="Helvetica,sans-Serif" font-size="10.00">capacity()</text>
<text text-anchor="start" x="111.5" y="-387.5" font-family="Helvetica,sans-Serif" font-size="10.00">+</text>
<text text-anchor="start" x="124.5" y="-387.5" font-family="Helvetica,sans-Serif" font-size="10.00">maxSize()</text>
<text text-anchor="start" x="111.5" y="-372.5" font-family="Helvetica,sans-Serif" font-size="10.00">+</text>
<text text-anchor="start" x="124.5" y="-372.5" font-family="Helvetica,sans-Serif" font-size="10.00">data()</text>
<text text-anchor="start" x="111.5" y="-357.5" font-family="Helvetica,sans-Serif" font-size="10.00">+</text>
<text text-anchor="start" x="124.5" y="-357.5" font-family="Helvetica,sans-Serif" font-size="10.00">data()</text>
<text text-anchor="start" x="111.5" y="-342.5" font-family="Helvetica,sans-Serif" font-size="10.00">+</text>
<text text-anchor="start" x="124.5" y="-342.5" font-family="Helvetica,sans-Serif" font-size="10.00">empty()</text>
<text text-anchor="start" x="124.5" y="-327.5" font-family="Helvetica,sans-Serif" font-size="10.00">and 40 more...</text>
<text text-anchor="start" x="111.5" y="-312.5" font-family="Helvetica,sans-Serif" font-size="10.00">#</text>
<text text-anchor="start" x="124.5" y="-312.5" font-family="Helvetica,sans-Serif" font-size="10.00">StaticVectorBase()</text>
<text text-anchor="start" x="111.5" y="-297.5" font-family="Helvetica,sans-Serif" font-size="10.00">#</text>
<text text-anchor="start" x="124.5" y="-297.5" font-family="Helvetica,sans-Serif" font-size="10.00">~StaticVectorBase()</text>
<text text-anchor="start" x="111.5" y="-282.5" font-family="Helvetica,sans-Serif" font-size="10.00">#</text>
<text text-anchor="start" x="124.5" y="-282.5" font-family="Helvetica,sans-Serif" font-size="10.00">internalSetSize()</text>
<polygon fill="#666666" stroke="#666666" points="107.5,-577.5 107.5,-577.5 266.5,-577.5 266.5,-577.5 107.5,-577.5"/>
<polygon fill="#666666" stroke="#666666" points="107.5,-487.5 107.5,-487.5 122.5,-487.5 122.5,-487.5 107.5,-487.5"/>
<polygon fill="#666666" stroke="#666666" points="122.5,-487.5 122.5,-487.5 266.5,-487.5 266.5,-487.5 122.5,-487.5"/>
<polygon fill="none" stroke="#666666" points="107,-276 107,-595 266,-595 266,-276 107,-276"/>
</a>
</g>
</g>
<!-- Node2 -->
<g id="Node000002" class="node">
<title>Node2</title>
<g id="a_Node000002"><a xlink:href="classsen_1_1_static_vector.html" target="_top" xlink:title=" ">
<polygon fill="white" stroke="transparent" points="105,-240 0,-240 0,0 105,0 105,-240"/>
<text text-anchor="start" x="5.5" y="-228" font-family="Helvetica,sans-Serif" font-size="10.00">sen::StaticVector&lt;</text>
<text text-anchor="start" x="5.5" y="-217" font-family="Helvetica,sans-Serif" font-size="10.00"> Value, stackMax &gt;</text>
<text text-anchor="start" x="6.5" y="-202" font-family="Helvetica,sans-Serif" font-size="10.00">+</text>
<text text-anchor="start" x="21.5" y="-202" font-family="Helvetica,sans-Serif" font-size="10.00">staticCapacity</text>
<text text-anchor="start" x="6.5" y="-187" font-family="Helvetica,sans-Serif" font-size="10.00">+</text>
<text text-anchor="start" x="21.5" y="-187" font-family="Helvetica,sans-Serif" font-size="10.00">StaticVector()</text>
<text text-anchor="start" x="6.5" y="-172" font-family="Helvetica,sans-Serif" font-size="10.00">+</text>
<text text-anchor="start" x="21.5" y="-172" font-family="Helvetica,sans-Serif" font-size="10.00">StaticVector()</text>
<text text-anchor="start" x="6.5" y="-157" font-family="Helvetica,sans-Serif" font-size="10.00">+</text>
<text text-anchor="start" x="21.5" y="-157" font-family="Helvetica,sans-Serif" font-size="10.00">StaticVector()</text>
<text text-anchor="start" x="6.5" y="-142" font-family="Helvetica,sans-Serif" font-size="10.00">+</text>
<text text-anchor="start" x="21.5" y="-142" font-family="Helvetica,sans-Serif" font-size="10.00">StaticVector()</text>
<text text-anchor="start" x="6.5" y="-127" font-family="Helvetica,sans-Serif" font-size="10.00">+</text>
<text text-anchor="start" x="21.5" y="-127" font-family="Helvetica,sans-Serif" font-size="10.00">StaticVector()</text>
<text text-anchor="start" x="6.5" y="-112" font-family="Helvetica,sans-Serif" font-size="10.00">+</text>
<text text-anchor="start" x="21.5" y="-112" font-family="Helvetica,sans-Serif" font-size="10.00">StaticVector()</text>
<text text-anchor="start" x="6.5" y="-97" font-family="Helvetica,sans-Serif" font-size="10.00">+</text>
<text text-anchor="start" x="21.5" y="-97" font-family="Helvetica,sans-Serif" font-size="10.00">StaticVector()</text>
<text text-anchor="start" x="6.5" y="-82" font-family="Helvetica,sans-Serif" font-size="10.00">+</text>
<text text-anchor="start" x="21.5" y="-82" font-family="Helvetica,sans-Serif" font-size="10.00">~StaticVector()</text>
<text text-anchor="start" x="6.5" y="-67" font-family="Helvetica,sans-Serif" font-size="10.00">+</text>
<text text-anchor="start" x="21.5" y="-67" font-family="Helvetica,sans-Serif" font-size="10.00">operator=()</text>
<text text-anchor="start" x="6.5" y="-52" font-family="Helvetica,sans-Serif" font-size="10.00">+</text>
<text text-anchor="start" x="21.5" y="-52" font-family="Helvetica,sans-Serif" font-size="10.00">operator=()</text>
<text text-anchor="start" x="6.5" y="-37" font-family="Helvetica,sans-Serif" font-size="10.00">+</text>
<text text-anchor="start" x="21.5" y="-37" font-family="Helvetica,sans-Serif" font-size="10.00">swap()</text>
<text text-anchor="start" x="6.5" y="-22" font-family="Helvetica,sans-Serif" font-size="10.00">+</text>
<text text-anchor="start" x="21.5" y="-22" font-family="Helvetica,sans-Serif" font-size="10.00">base()</text>
<text text-anchor="start" x="6.5" y="-7" font-family="Helvetica,sans-Serif" font-size="10.00">+</text>
<text text-anchor="start" x="21.5" y="-7" font-family="Helvetica,sans-Serif" font-size="10.00">base()</text>
<polygon fill="#666666" stroke="#666666" points="0.5,-212 0.5,-212 105.5,-212 105.5,-212 0.5,-212"/>
<polygon fill="#666666" stroke="#666666" points="0.5,-197 0.5,-197 19.5,-197 19.5,-197 0.5,-197"/>
<polygon fill="#666666" stroke="#666666" points="19.5,-197 19.5,-197 105.5,-197 105.5,-197 19.5,-197"/>
<polygon fill="none" stroke="#666666" points="0,0 0,-240 105,-240 105,0 0,0"/>
</a>
</g>
</g>
<!-- Node1&#45;&gt;Node2 -->
<g id="edge1_Node000001_Node000002" class="edge">
<title>Node1&#45;&gt;Node2</title>
<g id="a_edge1_Node000001_Node000002"><a xlink:title=" ">
<path fill="none" stroke="#63b8ff" d="M114.75,-266.64C110.95,-257.76 107.18,-248.92 103.47,-240.24"/>
<polygon fill="none" stroke="#63b8ff" points="111.57,-268.09 118.71,-275.91 118,-265.34 111.57,-268.09"/>
</a>
</g>
</g>
<!-- Node3 -->
<g id="Node000003" class="node">
<title>Node3</title>
<g id="a_Node000003"><a xlink:href="classsen_1_1_static_vector.html" target="_top" xlink:title=" ">
<polygon fill="white" stroke="transparent" points="250,-240 123,-240 123,0 250,0 250,-240"/>
<text text-anchor="start" x="128.5" y="-228" font-family="Helvetica,sans-Serif" font-size="10.00">sen::StaticVector&lt;</text>
<text text-anchor="start" x="128.5" y="-217" font-family="Helvetica,sans-Serif" font-size="10.00"> std::string, stackMax &gt;</text>
<text text-anchor="start" x="135" y="-202" font-family="Helvetica,sans-Serif" font-size="10.00">+</text>
<text text-anchor="start" x="155.5" y="-202" font-family="Helvetica,sans-Serif" font-size="10.00">staticCapacity</text>
<text text-anchor="start" x="135" y="-187" font-family="Helvetica,sans-Serif" font-size="10.00">+</text>
<text text-anchor="start" x="155.5" y="-187" font-family="Helvetica,sans-Serif" font-size="10.00">StaticVector()</text>
<text text-anchor="start" x="135" y="-172" font-family="Helvetica,sans-Serif" font-size="10.00">+</text>
<text text-anchor="start" x="155.5" y="-172" font-family="Helvetica,sans-Serif" font-size="10.00">StaticVector()</text>
<text text-anchor="start" x="135" y="-157" font-family="Helvetica,sans-Serif" font-size="10.00">+</text>
<text text-anchor="start" x="155.5" y="-157" font-family="Helvetica,sans-Serif" font-size="10.00">StaticVector()</text>
<text text-anchor="start" x="135" y="-142" font-family="Helvetica,sans-Serif" font-size="10.00">+</text>
<text text-anchor="start" x="155.5" y="-142" font-family="Helvetica,sans-Serif" font-size="10.00">StaticVector()</text>
<text text-anchor="start" x="135" y="-127" font-family="Helvetica,sans-Serif" font-size="10.00">+</text>
<text text-anchor="start" x="155.5" y="-127" font-family="Helvetica,sans-Serif" font-size="10.00">StaticVector()</text>
<text text-anchor="start" x="135" y="-112" font-family="Helvetica,sans-Serif" font-size="10.00">+</text>
<text text-anchor="start" x="155.5" y="-112" font-family="Helvetica,sans-Serif" font-size="10.00">StaticVector()</text>
<text text-anchor="start" x="135" y="-97" font-family="Helvetica,sans-Serif" font-size="10.00">+</text>
<text text-anchor="start" x="155.5" y="-97" font-family="Helvetica,sans-Serif" font-size="10.00">StaticVector()</text>
<text text-anchor="start" x="135" y="-82" font-family="Helvetica,sans-Serif" font-size="10.00">+</text>
<text text-anchor="start" x="155.5" y="-82" font-family="Helvetica,sans-Serif" font-size="10.00">~StaticVector()</text>
<text text-anchor="start" x="135" y="-67" font-family="Helvetica,sans-Serif" font-size="10.00">+</text>
<text text-anchor="start" x="155.5" y="-67" font-family="Helvetica,sans-Serif" font-size="10.00">operator=()</text>
<text text-anchor="start" x="135" y="-52" font-family="Helvetica,sans-Serif" font-size="10.00">+</text>
<text text-anchor="start" x="155.5" y="-52" font-family="Helvetica,sans-Serif" font-size="10.00">operator=()</text>
<text text-anchor="start" x="135" y="-37" font-family="Helvetica,sans-Serif" font-size="10.00">+</text>
<text text-anchor="start" x="155.5" y="-37" font-family="Helvetica,sans-Serif" font-size="10.00">swap()</text>
<text text-anchor="start" x="135" y="-22" font-family="Helvetica,sans-Serif" font-size="10.00">+</text>
<text text-anchor="start" x="155.5" y="-22" font-family="Helvetica,sans-Serif" font-size="10.00">base()</text>
<text text-anchor="start" x="135" y="-7" font-family="Helvetica,sans-Serif" font-size="10.00">+</text>
<text text-anchor="start" x="155.5" y="-7" font-family="Helvetica,sans-Serif" font-size="10.00">base()</text>
<polygon fill="#666666" stroke="#666666" points="123.5,-212 123.5,-212 250.5,-212 250.5,-212 123.5,-212"/>
<polygon fill="#666666" stroke="#666666" points="123.5,-197 123.5,-197 153.5,-197 153.5,-197 123.5,-197"/>
<polygon fill="#666666" stroke="#666666" points="153.5,-197 153.5,-197 250.5,-197 250.5,-197 153.5,-197"/>
<polygon fill="none" stroke="#666666" points="123,0 123,-240 250,-240 250,0 123,0"/>
</a>
</g>
</g>
<!-- Node1&#45;&gt;Node3 -->
<g id="edge2_Node000001_Node000003" class="edge">
<title>Node1&#45;&gt;Node3</title>
<g id="a_edge2_Node000001_Node000003"><a xlink:title=" ">
<path fill="none" stroke="#63b8ff" d="M186.5,-265.8C186.5,-257.2 186.5,-248.64 186.5,-240.24"/>
<polygon fill="none" stroke="#63b8ff" points="183,-265.91 186.5,-275.91 190,-265.91 183,-265.91"/>
</a>
</g>
</g>
<!-- Node4 -->
<g id="Node000004" class="node">
<title>Node4</title>
<g id="a_Node000004"><a xlink:href="classsen_1_1_static_vector.html" target="_top" xlink:title="Stack&#45;based, exception&#45;free and resizable vector with fixed&#45;capacity.">
<polygon fill="white" stroke="transparent" points="369,-240 268,-240 268,0 369,0 369,-240"/>
<text text-anchor="start" x="273.5" y="-228" font-family="Helvetica,sans-Serif" font-size="10.00">sen::StaticVector&lt;</text>
<text text-anchor="start" x="303" y="-217" font-family="Helvetica,sans-Serif" font-size="10.00"> T, s &gt;</text>
<text text-anchor="start" x="273.5" y="-202" font-family="Helvetica,sans-Serif" font-size="10.00">+</text>
<text text-anchor="start" x="287.5" y="-202" font-family="Helvetica,sans-Serif" font-size="10.00">staticCapacity</text>
<text text-anchor="start" x="273.5" y="-187" font-family="Helvetica,sans-Serif" font-size="10.00">+</text>
<text text-anchor="start" x="287.5" y="-187" font-family="Helvetica,sans-Serif" font-size="10.00">StaticVector()</text>
<text text-anchor="start" x="273.5" y="-172" font-family="Helvetica,sans-Serif" font-size="10.00">+</text>
<text text-anchor="start" x="287.5" y="-172" font-family="Helvetica,sans-Serif" font-size="10.00">StaticVector()</text>
<text text-anchor="start" x="273.5" y="-157" font-family="Helvetica,sans-Serif" font-size="10.00">+</text>
<text text-anchor="start" x="287.5" y="-157" font-family="Helvetica,sans-Serif" font-size="10.00">StaticVector()</text>
<text text-anchor="start" x="273.5" y="-142" font-family="Helvetica,sans-Serif" font-size="10.00">+</text>
<text text-anchor="start" x="287.5" y="-142" font-family="Helvetica,sans-Serif" font-size="10.00">StaticVector()</text>
<text text-anchor="start" x="273.5" y="-127" font-family="Helvetica,sans-Serif" font-size="10.00">+</text>
<text text-anchor="start" x="287.5" y="-127" font-family="Helvetica,sans-Serif" font-size="10.00">StaticVector()</text>
<text text-anchor="start" x="273.5" y="-112" font-family="Helvetica,sans-Serif" font-size="10.00">+</text>
<text text-anchor="start" x="287.5" y="-112" font-family="Helvetica,sans-Serif" font-size="10.00">StaticVector()</text>
<text text-anchor="start" x="273.5" y="-97" font-family="Helvetica,sans-Serif" font-size="10.00">+</text>
<text text-anchor="start" x="287.5" y="-97" font-family="Helvetica,sans-Serif" font-size="10.00">StaticVector()</text>
<text text-anchor="start" x="273.5" y="-82" font-family="Helvetica,sans-Serif" font-size="10.00">+</text>
<text text-anchor="start" x="287.5" y="-82" font-family="Helvetica,sans-Serif" font-size="10.00">~StaticVector()</text>
<text text-anchor="start" x="273.5" y="-67" font-family="Helvetica,sans-Serif" font-size="10.00">+</text>
<text text-anchor="start" x="287.5" y="-67" font-family="Helvetica,sans-Serif" font-size="10.00">operator=()</text>
<text text-anchor="start" x="273.5" y="-52" font-family="Helvetica,sans-Serif" font-size="10.00">+</text>
<text text-anchor="start" x="287.5" y="-52" font-family="Helvetica,sans-Serif" font-size="10.00">operator=()</text>
<text text-anchor="start" x="273.5" y="-37" font-family="Helvetica,sans-Serif" font-size="10.00">+</text>
<text text-anchor="start" x="287.5" y="-37" font-family="Helvetica,sans-Serif" font-size="10.00">swap()</text>
<text text-anchor="start" x="273.5" y="-22" font-family="Helvetica,sans-Serif" font-size="10.00">+</text>
<text text-anchor="start" x="287.5" y="-22" font-family="Helvetica,sans-Serif" font-size="10.00">base()</text>
<text text-anchor="start" x="273.5" y="-7" font-family="Helvetica,sans-Serif" font-size="10.00">+</text>
<text text-anchor="start" x="287.5" y="-7" font-family="Helvetica,sans-Serif" font-size="10.00">base()</text>
<polygon fill="#666666" stroke="#666666" points="268.5,-212 268.5,-212 369.5,-212 369.5,-212 268.5,-212"/>
<polygon fill="#666666" stroke="#666666" points="268.5,-197 268.5,-197 285.5,-197 285.5,-197 268.5,-197"/>
<polygon fill="#666666" stroke="#666666" points="285.5,-197 285.5,-197 369.5,-197 369.5,-197 285.5,-197"/>
<polygon fill="none" stroke="#666666" points="268,0 268,-240 369,-240 369,0 268,0"/>
</a>
</g>
</g>
<!-- Node1&#45;&gt;Node4 -->
<g id="edge3_Node000001_Node000004" class="edge">
<title>Node1&#45;&gt;Node4</title>
<g id="a_edge3_Node000001_Node000004"><a xlink:title=" ">
<path fill="none" stroke="#63b8ff" d="M257.18,-266.64C260.92,-257.76 264.64,-248.92 268.29,-240.24"/>
<polygon fill="none" stroke="#63b8ff" points="253.93,-265.34 253.27,-275.91 260.38,-268.05 253.93,-265.34"/>
</a>
</g>
</g>
</g>
</svg>
