<?xml version="1.0" encoding="UTF-8" standalone="no"?>
<!DOCTYPE svg PUBLIC "-//W3C//DTD SVG 1.1//EN"
 "http://www.w3.org/Graphics/SVG/1.1/DTD/svg11.dtd">
<!-- Generated by graphviz version 2.43.0 (0)
 -->
<!-- Title: sen::kernel::PreloadApi Pages: 1 -->
<svg width="298pt" height="337pt"
 viewBox="0.00 0.00 297.50 337.00" xmlns="http://www.w3.org/2000/svg" xmlns:xlink="http://www.w3.org/1999/xlink">
<g id="graph0" class="graph" transform="scale(1 1) rotate(0) translate(4 333)">
<title>sen::kernel::PreloadApi</title>
<!-- Node1 -->
<g id="Node000001" class="node">
<title>Node1</title>
<g id="a_Node000001"><a xlink:title="What can be done when preloading a component.">
<polygon fill="#999999" stroke="transparent" points="212,-94 73,-94 73,0 212,0 212,-94"/>
<text text-anchor="start" x="87" y="-82" font-family="Helvetica,sans-Serif" font-size="10.00">sen::kernel::PreloadApi</text>
<text text-anchor="start" x="141" y="-67" font-family="Helvetica,sans-Serif" font-size="10.00"> </text>
<text text-anchor="start" x="77.5" y="-52" font-family="Helvetica,sans-Serif" font-size="10.00">+</text>
<text text-anchor="start" x="90.5" y="-52" font-family="Helvetica,sans-Serif" font-size="10.00">PreloadApi()</text>
<text text-anchor="start" x="77.5" y="-37" font-family="Helvetica,sans-Serif" font-size="10.00">+</text>
<text text-anchor="start" x="90.5" y="-37" font-family="Helvetica,sans-Serif" font-size="10.00">~PreloadApi()</text>
<text text-anchor="start" x="77.5" y="-22" font-family="Helvetica,sans-Serif" font-size="10.00">+</text>
<text text-anchor="start" x="90.5" y="-22" font-family="Helvetica,sans-Serif" font-size="10.00">installTransportFactory()</text>
<text text-anchor="start" x="77.5" y="-7" font-family="Helvetica,sans-Serif" font-size="10.00">+</text>
<text text-anchor="start" x="90.5" y="-7" font-family="Helvetica,sans-Serif" font-size="10.00">installTracerFactory()</text>
<polygon fill="#666666" stroke="#666666" points="73.5,-77 73.5,-77 212.5,-77 212.5,-77 73.5,-77"/>
<polygon fill="#666666" stroke="#666666" points="73.5,-62 73.5,-62 212.5,-62 212.5,-62 73.5,-62"/>
<polygon fill="none" stroke="#666666" points="73,0 73,-94 212,-94 212,0 73,0"/>
</a>
</g>
</g>
<!-- Node2 -->
<g id="Node000002" class="node">
<title>Node2</title>
<g id="a_Node000002"><a xlink:href="classsen_1_1kernel_1_1_config_getter.html" target="_top" xlink:title="Allows for fetching configuration parameters.">
<polygon fill="white" stroke="transparent" points="131,-261.5 0,-261.5 0,-197.5 131,-197.5 131,-261.5"/>
<text text-anchor="start" x="5.5" y="-249.5" font-family="Helvetica,sans-Serif" font-size="10.00">sen::kernel::ConfigGetter</text>
<text text-anchor="start" x="64" y="-234.5" font-family="Helvetica,sans-Serif" font-size="10.00"> </text>
<text text-anchor="start" x="14.5" y="-219.5" font-family="Helvetica,sans-Serif" font-size="10.00">+</text>
<text text-anchor="start" x="37.5" y="-219.5" font-family="Helvetica,sans-Serif" font-size="10.00">ConfigGetter()</text>
<text text-anchor="start" x="14.5" y="-204.5" font-family="Helvetica,sans-Serif" font-size="10.00">+</text>
<text text-anchor="start" x="37.5" y="-204.5" font-family="Helvetica,sans-Serif" font-size="10.00">getConfig()</text>
<polygon fill="#666666" stroke="#666666" points="0.5,-244.5 0.5,-244.5 131.5,-244.5 131.5,-244.5 0.5,-244.5"/>
<polygon fill="#666666" stroke="#666666" points="0.5,-229.5 0.5,-229.5 131.5,-229.5 131.5,-229.5 0.5,-229.5"/>
<polygon fill="none" stroke="#666666" points="0,-197.5 0,-261.5 131,-261.5 131,-197.5 0,-197.5"/>
</a>
</g>
</g>
<!-- Node2&#45;&gt;Node1 -->
<g id="edge1_Node000001_Node000002" class="edge">
<title>Node2&#45;&gt;Node1</title>
<g id="a_edge1_Node000001_Node000002"><a xlink:title=" ">
<path fill="none" stroke="#63b8ff" d="M82.76,-188.04C94.64,-160.2 110.43,-123.17 122.8,-94.18"/>
<polygon fill="none" stroke="#63b8ff" points="79.44,-186.9 78.74,-197.47 85.88,-189.65 79.44,-186.9"/>
</a>
</g>
</g>
<!-- Node3 -->
<g id="Node000003" class="node">
<title>Node3</title>
<g id="a_Node000003"><a xlink:href="classsen_1_1kernel_1_1_kernel_api.html" target="_top" xlink:title="User&#45;facing kernel functions.">
<polygon fill="white" stroke="transparent" points="289.5,-329 149.5,-329 149.5,-130 289.5,-130 289.5,-329"/>
<text text-anchor="start" x="166.5" y="-316.5" font-family="Helvetica,sans-Serif" font-size="10.00">sen::kernel::KernelApi</text>
<text text-anchor="start" x="217.5" y="-301.5" font-family="Helvetica,sans-Serif" font-size="10.00"> </text>
<text text-anchor="start" x="153.5" y="-286.5" font-family="Helvetica,sans-Serif" font-size="10.00">+</text>
<text text-anchor="start" x="166.5" y="-286.5" font-family="Helvetica,sans-Serif" font-size="10.00">KernelApi()</text>
<text text-anchor="start" x="153.5" y="-271.5" font-family="Helvetica,sans-Serif" font-size="10.00">+</text>
<text text-anchor="start" x="166.5" y="-271.5" font-family="Helvetica,sans-Serif" font-size="10.00">getTypes()</text>
<text text-anchor="start" x="153.5" y="-256.5" font-family="Helvetica,sans-Serif" font-size="10.00">+</text>
<text text-anchor="start" x="166.5" y="-256.5" font-family="Helvetica,sans-Serif" font-size="10.00">requestKernelStop()</text>
<text text-anchor="start" x="153.5" y="-241.5" font-family="Helvetica,sans-Serif" font-size="10.00">+</text>
<text text-anchor="start" x="166.5" y="-241.5" font-family="Helvetica,sans-Serif" font-size="10.00">getSource()</text>
<text text-anchor="start" x="153.5" y="-226.5" font-family="Helvetica,sans-Serif" font-size="10.00">+</text>
<text text-anchor="start" x="166.5" y="-226.5" font-family="Helvetica,sans-Serif" font-size="10.00">getSource()</text>
<text text-anchor="start" x="153.5" y="-211.5" font-family="Helvetica,sans-Serif" font-size="10.00">+</text>
<text text-anchor="start" x="166.5" y="-211.5" font-family="Helvetica,sans-Serif" font-size="10.00">getSessionsDiscoverer()</text>
<text text-anchor="start" x="153.5" y="-196.5" font-family="Helvetica,sans-Serif" font-size="10.00">+</text>
<text text-anchor="start" x="166.5" y="-196.5" font-family="Helvetica,sans-Serif" font-size="10.00">fetchOwnerInfo()</text>
<text text-anchor="start" x="153.5" y="-181.5" font-family="Helvetica,sans-Serif" font-size="10.00">+</text>
<text text-anchor="start" x="166.5" y="-181.5" font-family="Helvetica,sans-Serif" font-size="10.00">getAppName()</text>
<text text-anchor="start" x="153.5" y="-166.5" font-family="Helvetica,sans-Serif" font-size="10.00">+</text>
<text text-anchor="start" x="166.5" y="-166.5" font-family="Helvetica,sans-Serif" font-size="10.00">getWorkQueue()</text>
<text text-anchor="start" x="153.5" y="-151.5" font-family="Helvetica,sans-Serif" font-size="10.00">+</text>
<text text-anchor="start" x="166.5" y="-151.5" font-family="Helvetica,sans-Serif" font-size="10.00">selectAllFrom()</text>
<text text-anchor="start" x="153.5" y="-136.5" font-family="Helvetica,sans-Serif" font-size="10.00">+</text>
<text text-anchor="start" x="166.5" y="-136.5" font-family="Helvetica,sans-Serif" font-size="10.00">getConfigFilePath()</text>
<polygon fill="#666666" stroke="#666666" points="149.5,-311.5 149.5,-311.5 289.5,-311.5 289.5,-311.5 149.5,-311.5"/>
<polygon fill="#666666" stroke="#666666" points="149.5,-296.5 149.5,-296.5 289.5,-296.5 289.5,-296.5 149.5,-296.5"/>
<polygon fill="none" stroke="#666666" points="149.5,-130 149.5,-329 289.5,-329 289.5,-130 149.5,-130"/>
</a>
</g>
</g>
<!-- Node3&#45;&gt;Node1 -->
<g id="edge2_Node000001_Node000003" class="edge">
<title>Node3&#45;&gt;Node1</title>
<g id="a_edge2_Node000001_Node000003"><a xlink:title=" ">
<path fill="none" stroke="#63b8ff" d="M173.47,-120.6C169.57,-111.46 165.78,-102.58 162.27,-94.34"/>
<polygon fill="none" stroke="#63b8ff" points="170.25,-121.98 177.4,-129.8 176.69,-119.23 170.25,-121.98"/>
</a>
</g>
</g>
</g>
</svg>
