<?xml version="1.0" encoding="UTF-8" standalone="no"?>
<!DOCTYPE svg PUBLIC "-//W3C//DTD SVG 1.1//EN"
 "http://www.w3.org/Graphics/SVG/1.1/DTD/svg11.dtd">
<!-- Generated by graphviz version 2.43.0 (0)
 -->
<!-- Title: sen::kernel::KernelApi Pages: 1 -->
<svg width="840pt" height="457pt"
 viewBox="0.00 0.00 839.50 457.00" xmlns="http://www.w3.org/2000/svg" xmlns:xlink="http://www.w3.org/1999/xlink">
<g id="graph0" class="graph" transform="scale(1 1) rotate(0) translate(4 453)">
<title>sen::kernel::KernelApi</title>
<!-- Node1 -->
<g id="Node000001" class="node">
<title>Node1</title>
<g id="a_Node000001"><a xlink:title="User&#45;facing kernel functions.">
<polygon fill="#999999" stroke="transparent" points="465.5,-449 325.5,-449 325.5,-250 465.5,-250 465.5,-449"/>
<text text-anchor="start" x="342.5" y="-436.5" font-family="Helvetica,sans-Serif" font-size="10.00">sen::kernel::KernelApi</text>
<text text-anchor="start" x="393.5" y="-421.5" font-family="Helvetica,sans-Serif" font-size="10.00"> </text>
<text text-anchor="start" x="329.5" y="-406.5" font-family="Helvetica,sans-Serif" font-size="10.00">+</text>
<text text-anchor="start" x="342.5" y="-406.5" font-family="Helvetica,sans-Serif" font-size="10.00">KernelApi()</text>
<text text-anchor="start" x="329.5" y="-391.5" font-family="Helvetica,sans-Serif" font-size="10.00">+</text>
<text text-anchor="start" x="342.5" y="-391.5" font-family="Helvetica,sans-Serif" font-size="10.00">getTypes()</text>
<text text-anchor="start" x="329.5" y="-376.5" font-family="Helvetica,sans-Serif" font-size="10.00">+</text>
<text text-anchor="start" x="342.5" y="-376.5" font-family="Helvetica,sans-Serif" font-size="10.00">requestKernelStop()</text>
<text text-anchor="start" x="329.5" y="-361.5" font-family="Helvetica,sans-Serif" font-size="10.00">+</text>
<text text-anchor="start" x="342.5" y="-361.5" font-family="Helvetica,sans-Serif" font-size="10.00">getSource()</text>
<text text-anchor="start" x="329.5" y="-346.5" font-family="Helvetica,sans-Serif" font-size="10.00">+</text>
<text text-anchor="start" x="342.5" y="-346.5" font-family="Helvetica,sans-Serif" font-size="10.00">getSource()</text>
<text text-anchor="start" x="329.5" y="-331.5" font-family="Helvetica,sans-Serif" font-size="10.00">+</text>
<text text-anchor="start" x="342.5" y="-331.5" font-family="Helvetica,sans-Serif" font-size="10.00">getSessionsDiscoverer()</text>
<text text-anchor="start" x="329.5" y="-316.5" font-family="Helvetica,sans-Serif" font-size="10.00">+</text>
<text text-anchor="start" x="342.5" y="-316.5" font-family="Helvetica,sans-Serif" font-size="10.00">fetchOwnerInfo()</text>
<text text-anchor="start" x="329.5" y="-301.5" font-family="Helvetica,sans-Serif" font-size="10.00">+</text>
<text text-anchor="start" x="342.5" y="-301.5" font-family="Helvetica,sans-Serif" font-size="10.00">getAppName()</text>
<text text-anchor="start" x="329.5" y="-286.5" font-family="Helvetica,sans-Serif" font-size="10.00">+</text>
<text text-anchor="start" x="342.5" y="-286.5" font-family="Helvetica,sans-Serif" font-size="10.00">getWorkQueue()</text>
<text text-anchor="start" x="329.5" y="-271.5" font-family="Helvetica,sans-Serif" font-size="10.00">+</text>
<text text-anchor="start" x="342.5" y="-271.5" font-family="Helvetica,sans-Serif" font-size="10.00">selectAllFrom()</text>
<text text-anchor="start" x="329.5" y="-256.5" font-family="Helvetica,sans-Serif" font-size="10.00">+</text>
<text text-anchor="start" x="342.5" y="-256.5" font-family="Helvetica,sans-Serif" font-size="10.00">getConfigFilePath()</text>
<polygon fill="#666666" stroke="#666666" points="325.5,-431.5 325.5,-431.5 465.5,-431.5 465.5,-431.5 325.5,-431.5"/>
<polygon fill="#666666" stroke="#666666" points="325.5,-416.5 325.5,-416.5 465.5,-416.5 465.5,-416.5 325.5,-416.5"/>
<polygon fill="none" stroke="#666666" points="325.5,-250 325.5,-449 465.5,-449 465.5,-250 325.5,-250"/>
</a>
</g>
</g>
<!-- Node2 -->
<g id="Node000002" class="node">
<title>Node2</title>
<g id="a_Node000002"><a xlink:href="classsen_1_1kernel_1_1_init_api.html" target="_top" xlink:title="What can be done when initializing a component.">
<polygon fill="white" stroke="transparent" points="101,-139 0,-139 0,-75 101,-75 101,-139"/>
<text text-anchor="start" x="5.5" y="-127" font-family="Helvetica,sans-Serif" font-size="10.00">sen::kernel::InitApi</text>
<text text-anchor="start" x="49" y="-112" font-family="Helvetica,sans-Serif" font-size="10.00"> </text>
<text text-anchor="start" x="12.5" y="-97" font-family="Helvetica,sans-Serif" font-size="10.00">+</text>
<text text-anchor="start" x="33.5" y="-97" font-family="Helvetica,sans-Serif" font-size="10.00">InitApi()</text>
<text text-anchor="start" x="12.5" y="-82" font-family="Helvetica,sans-Serif" font-size="10.00">+</text>
<text text-anchor="start" x="33.5" y="-82" font-family="Helvetica,sans-Serif" font-size="10.00">~InitApi()</text>
<polygon fill="#666666" stroke="#666666" points="0.5,-122 0.5,-122 101.5,-122 101.5,-122 0.5,-122"/>
<polygon fill="#666666" stroke="#666666" points="0.5,-107 0.5,-107 101.5,-107 101.5,-107 0.5,-107"/>
<polygon fill="none" stroke="#666666" points="0,-75 0,-139 101,-139 101,-75 0,-75"/>
</a>
</g>
</g>
<!-- Node1&#45;&gt;Node2 -->
<g id="edge1_Node000001_Node000002" class="edge">
<title>Node1&#45;&gt;Node2</title>
<g id="a_edge1_Node000001_Node000002"><a xlink:title=" ">
<path fill="none" stroke="#63b8ff" d="M315.73,-325.91C253.6,-305.06 168.31,-268.92 109.5,-214 87.33,-193.3 71.44,-162.35 61.77,-139.23"/>
<polygon fill="none" stroke="#63b8ff" points="314.9,-329.32 325.49,-329.12 317.09,-322.67 314.9,-329.32"/>
</a>
</g>
</g>
<!-- Node3 -->
<g id="Node000003" class="node">
<title>Node3</title>
<g id="a_Node000003"><a xlink:href="classsen_1_1kernel_1_1_load_api.html" target="_top" xlink:title="What can be done when loading a component.">
<polygon fill="white" stroke="transparent" points="228,-139 119,-139 119,-75 228,-75 228,-139"/>
<text text-anchor="start" x="124.5" y="-127" font-family="Helvetica,sans-Serif" font-size="10.00">sen::kernel::LoadApi</text>
<text text-anchor="start" x="172" y="-112" font-family="Helvetica,sans-Serif" font-size="10.00"> </text>
<text text-anchor="start" x="131.5" y="-97" font-family="Helvetica,sans-Serif" font-size="10.00">+</text>
<text text-anchor="start" x="152.5" y="-97" font-family="Helvetica,sans-Serif" font-size="10.00">LoadApi()</text>
<text text-anchor="start" x="131.5" y="-82" font-family="Helvetica,sans-Serif" font-size="10.00">+</text>
<text text-anchor="start" x="152.5" y="-82" font-family="Helvetica,sans-Serif" font-size="10.00">~LoadApi()</text>
<polygon fill="#666666" stroke="#666666" points="119.5,-122 119.5,-122 228.5,-122 228.5,-122 119.5,-122"/>
<polygon fill="#666666" stroke="#666666" points="119.5,-107 119.5,-107 228.5,-107 228.5,-107 119.5,-107"/>
<polygon fill="none" stroke="#666666" points="119,-75 119,-139 228,-139 228,-75 119,-75"/>
</a>
</g>
</g>
<!-- Node1&#45;&gt;Node3 -->
<g id="edge2_Node000001_Node000003" class="edge">
<title>Node1&#45;&gt;Node3</title>
<g id="a_edge2_Node000001_Node000003"><a xlink:title=" ">
<path fill="none" stroke="#63b8ff" d="M317.19,-290.96C289.84,-268.7 260.1,-241.88 236.5,-214 217,-190.96 199.87,-161.14 188.41,-139.01"/>
<polygon fill="none" stroke="#63b8ff" points="315.23,-293.87 325.21,-297.41 319.61,-288.42 315.23,-293.87"/>
</a>
</g>
</g>
<!-- Node4 -->
<g id="Node000004" class="node">
<title>Node4</title>
<g id="a_Node000004"><a xlink:href="classsen_1_1kernel_1_1_preload_api.html" target="_top" xlink:title="What can be done when preloading a component.">
<polygon fill="white" stroke="transparent" points="385,-154 246,-154 246,-60 385,-60 385,-154"/>
<text text-anchor="start" x="260" y="-142" font-family="Helvetica,sans-Serif" font-size="10.00">sen::kernel::PreloadApi</text>
<text text-anchor="start" x="314" y="-127" font-family="Helvetica,sans-Serif" font-size="10.00"> </text>
<text text-anchor="start" x="250.5" y="-112" font-family="Helvetica,sans-Serif" font-size="10.00">+</text>
<text text-anchor="start" x="263.5" y="-112" font-family="Helvetica,sans-Serif" font-size="10.00">PreloadApi()</text>
<text text-anchor="start" x="250.5" y="-97" font-family="Helvetica,sans-Serif" font-size="10.00">+</text>
<text text-anchor="start" x="263.5" y="-97" font-family="Helvetica,sans-Serif" font-size="10.00">~PreloadApi()</text>
<text text-anchor="start" x="250.5" y="-82" font-family="Helvetica,sans-Serif" font-size="10.00">+</text>
<text text-anchor="start" x="263.5" y="-82" font-family="Helvetica,sans-Serif" font-size="10.00">installTransportFactory()</text>
<text text-anchor="start" x="250.5" y="-67" font-family="Helvetica,sans-Serif" font-size="10.00">+</text>
<text text-anchor="start" x="263.5" y="-67" font-family="Helvetica,sans-Serif" font-size="10.00">installTracerFactory()</text>
<polygon fill="#666666" stroke="#666666" points="246.5,-137 246.5,-137 385.5,-137 385.5,-137 246.5,-137"/>
<polygon fill="#666666" stroke="#666666" points="246.5,-122 246.5,-122 385.5,-122 385.5,-122 246.5,-122"/>
<polygon fill="none" stroke="#666666" points="246,-60 246,-154 385,-154 385,-60 246,-60"/>
</a>
</g>
</g>
<!-- Node1&#45;&gt;Node4 -->
<g id="edge3_Node000001_Node000004" class="edge">
<title>Node1&#45;&gt;Node4</title>
<g id="a_edge3_Node000001_Node000004"><a xlink:title=" ">
<path fill="none" stroke="#63b8ff" d="M359.48,-240.2C349.4,-209.92 338.99,-178.62 330.83,-154.09"/>
<polygon fill="none" stroke="#63b8ff" points="356.25,-241.6 362.73,-249.99 362.89,-239.39 356.25,-241.6"/>
</a>
</g>
</g>
<!-- Node5 -->
<g id="Node000005" class="node">
<title>Node5</title>
<g id="a_Node000005"><a xlink:href="classsen_1_1kernel_1_1_registration_api.html" target="_top" xlink:title="API for objects when registered.">
<polygon fill="white" stroke="transparent" points="548,-139 403,-139 403,-75 548,-75 548,-139"/>
<text text-anchor="start" x="408.5" y="-127" font-family="Helvetica,sans-Serif" font-size="10.00">sen::kernel::RegistrationApi</text>
<text text-anchor="start" x="474" y="-112" font-family="Helvetica,sans-Serif" font-size="10.00"> </text>
<text text-anchor="start" x="415.5" y="-97" font-family="Helvetica,sans-Serif" font-size="10.00">+</text>
<text text-anchor="start" x="436.5" y="-97" font-family="Helvetica,sans-Serif" font-size="10.00">RegistrationApi()</text>
<text text-anchor="start" x="415.5" y="-82" font-family="Helvetica,sans-Serif" font-size="10.00">+</text>
<text text-anchor="start" x="436.5" y="-82" font-family="Helvetica,sans-Serif" font-size="10.00">~RegistrationApi()</text>
<polygon fill="#666666" stroke="#666666" points="403.5,-122 403.5,-122 548.5,-122 548.5,-122 403.5,-122"/>
<polygon fill="#666666" stroke="#666666" points="403.5,-107 403.5,-107 548.5,-107 548.5,-107 403.5,-107"/>
<polygon fill="none" stroke="#666666" points="403,-75 403,-139 548,-139 548,-75 403,-75"/>
</a>
</g>
</g>
<!-- Node1&#45;&gt;Node5 -->
<g id="edge4_Node000001_Node000005" class="edge">
<title>Node1&#45;&gt;Node5</title>
<g id="a_edge4_Node000001_Node000005"><a xlink:title=" ">
<path fill="none" stroke="#63b8ff" d="M431.54,-240.16C443.79,-203.34 456.53,-165.02 465.13,-139.18"/>
<polygon fill="none" stroke="#63b8ff" points="428.11,-239.39 428.27,-249.99 434.75,-241.6 428.11,-239.39"/>
</a>
</g>
</g>
<!-- Node6 -->
<g id="Node000006" class="node">
<title>Node6</title>
<g id="a_Node000006"><a xlink:href="classsen_1_1kernel_1_1_run_api.html" target="_top" xlink:title="What can be done while a component is running.">
<polygon fill="white" stroke="transparent" points="693,-214 566,-214 566,0 693,0 693,-214"/>
<text text-anchor="start" x="583" y="-202" font-family="Helvetica,sans-Serif" font-size="10.00">sen::kernel::RunApi</text>
<text text-anchor="start" x="628" y="-187" font-family="Helvetica,sans-Serif" font-size="10.00"> </text>
<text text-anchor="start" x="570.5" y="-172" font-family="Helvetica,sans-Serif" font-size="10.00">+</text>
<text text-anchor="start" x="583.5" y="-172" font-family="Helvetica,sans-Serif" font-size="10.00">RunApi()</text>
<text text-anchor="start" x="570.5" y="-157" font-family="Helvetica,sans-Serif" font-size="10.00">+</text>
<text text-anchor="start" x="583.5" y="-157" font-family="Helvetica,sans-Serif" font-size="10.00">~RunApi()</text>
<text text-anchor="start" x="570.5" y="-142" font-family="Helvetica,sans-Serif" font-size="10.00">+</text>
<text text-anchor="start" x="583.5" y="-142" font-family="Helvetica,sans-Serif" font-size="10.00">stopRequested()</text>
<text text-anchor="start" x="570.5" y="-127" font-family="Helvetica,sans-Serif" font-size="10.00">+</text>
<text text-anchor="start" x="583.5" y="-127" font-family="Helvetica,sans-Serif" font-size="10.00">drainInputs()</text>
<text text-anchor="start" x="570.5" y="-112" font-family="Helvetica,sans-Serif" font-size="10.00">+</text>
<text text-anchor="start" x="583.5" y="-112" font-family="Helvetica,sans-Serif" font-size="10.00">update()</text>
<text text-anchor="start" x="570.5" y="-97" font-family="Helvetica,sans-Serif" font-size="10.00">+</text>
<text text-anchor="start" x="583.5" y="-97" font-family="Helvetica,sans-Serif" font-size="10.00">commit()</text>
<text text-anchor="start" x="570.5" y="-82" font-family="Helvetica,sans-Serif" font-size="10.00">+</text>
<text text-anchor="start" x="583.5" y="-82" font-family="Helvetica,sans-Serif" font-size="10.00">execLoop()</text>
<text text-anchor="start" x="570.5" y="-67" font-family="Helvetica,sans-Serif" font-size="10.00">+</text>
<text text-anchor="start" x="583.5" y="-67" font-family="Helvetica,sans-Serif" font-size="10.00">getStartTime()</text>
<text text-anchor="start" x="570.5" y="-52" font-family="Helvetica,sans-Serif" font-size="10.00">+</text>
<text text-anchor="start" x="583.5" y="-52" font-family="Helvetica,sans-Serif" font-size="10.00">getTime()</text>
<text text-anchor="start" x="570.5" y="-37" font-family="Helvetica,sans-Serif" font-size="10.00">+</text>
<text text-anchor="start" x="583.5" y="-37" font-family="Helvetica,sans-Serif" font-size="10.00">getTargetCycleTime()</text>
<text text-anchor="start" x="570.5" y="-22" font-family="Helvetica,sans-Serif" font-size="10.00">+</text>
<text text-anchor="start" x="583.5" y="-22" font-family="Helvetica,sans-Serif" font-size="10.00">fetchMonitoringInfo()</text>
<text text-anchor="start" x="570.5" y="-7" font-family="Helvetica,sans-Serif" font-size="10.00">+</text>
<text text-anchor="start" x="583.5" y="-7" font-family="Helvetica,sans-Serif" font-size="10.00">getTracer()</text>
<polygon fill="#666666" stroke="#666666" points="566.5,-197 566.5,-197 693.5,-197 693.5,-197 566.5,-197"/>
<polygon fill="#666666" stroke="#666666" points="566.5,-182 566.5,-182 693.5,-182 693.5,-182 566.5,-182"/>
<polygon fill="none" stroke="#666666" points="566,0 566,-214 693,-214 693,0 566,0"/>
</a>
</g>
</g>
<!-- Node1&#45;&gt;Node6 -->
<g id="edge5_Node000001_Node000006" class="edge">
<title>Node1&#45;&gt;Node6</title>
<g id="a_edge5_Node000001_Node000006"><a xlink:title=" ">
<path fill="none" stroke="#63b8ff" d="M474.05,-290.67C501.94,-268.29 532.56,-241.46 557.5,-214 560.34,-210.87 563.16,-207.62 565.94,-204.29"/>
<polygon fill="none" stroke="#63b8ff" points="471.54,-288.2 465.88,-297.16 475.89,-293.68 471.54,-288.2"/>
</a>
</g>
</g>
<!-- Node7 -->
<g id="Node000007" class="node">
<title>Node7</title>
<g id="a_Node000007"><a xlink:href="classsen_1_1kernel_1_1_unload_api.html" target="_top" xlink:title="What can be done when unloading a component.">
<polygon fill="white" stroke="transparent" points="831.5,-139 711.5,-139 711.5,-75 831.5,-75 831.5,-139"/>
<text text-anchor="start" x="716.5" y="-127" font-family="Helvetica,sans-Serif" font-size="10.00">sen::kernel::UnloadApi</text>
<text text-anchor="start" x="769.5" y="-112" font-family="Helvetica,sans-Serif" font-size="10.00"> </text>
<text text-anchor="start" x="723.5" y="-97" font-family="Helvetica,sans-Serif" font-size="10.00">+</text>
<text text-anchor="start" x="744.5" y="-97" font-family="Helvetica,sans-Serif" font-size="10.00">UnloadApi()</text>
<text text-anchor="start" x="723.5" y="-82" font-family="Helvetica,sans-Serif" font-size="10.00">+</text>
<text text-anchor="start" x="744.5" y="-82" font-family="Helvetica,sans-Serif" font-size="10.00">~UnloadApi()</text>
<polygon fill="#666666" stroke="#666666" points="711.5,-122 711.5,-122 831.5,-122 831.5,-122 711.5,-122"/>
<polygon fill="#666666" stroke="#666666" points="711.5,-107 711.5,-107 831.5,-107 831.5,-107 711.5,-107"/>
<polygon fill="none" stroke="#666666" points="711.5,-75 711.5,-139 831.5,-139 831.5,-75 711.5,-75"/>
</a>
</g>
</g>
<!-- Node1&#45;&gt;Node7 -->
<g id="edge6_Node000001_Node000007" class="edge">
<title>Node1&#45;&gt;Node7</title>
<g id="a_edge6_Node000001_Node000007"><a xlink:title=" ">
<path fill="none" stroke="#63b8ff" d="M475.1,-327.6C541.53,-307.1 635.77,-270.59 702.5,-214 726.62,-193.55 745.43,-162.57 757.28,-139.37"/>
<polygon fill="none" stroke="#63b8ff" points="474.07,-324.26 465.51,-330.51 476.1,-330.95 474.07,-324.26"/>
</a>
</g>
</g>
</g>
</svg>
