<?xml version="1.0" encoding="UTF-8" standalone="no"?>
<!DOCTYPE svg PUBLIC "-//W3C//DTD SVG 1.1//EN"
 "http://www.w3.org/Graphics/SVG/1.1/DTD/svg11.dtd">
<!-- Generated by graphviz version 2.43.0 (0)
 -->
<!-- Title: sen::StaticVector&lt; T, s &gt; Pages: 1 -->
<svg width="152pt" height="603pt"
 viewBox="0.00 0.00 152.00 603.00" xmlns="http://www.w3.org/2000/svg" xmlns:xlink="http://www.w3.org/1999/xlink">
<g id="graph0" class="graph" transform="scale(1 1) rotate(0) translate(4 599)">
<title>sen::StaticVector&lt; T, s &gt;</title>
<!-- Node1 -->
<g id="Node000001" class="node">
<title>Node1</title>
<g id="a_Node000001"><a xlink:title="Stack&#45;based, exception&#45;free and resizable vector with fixed&#45;capacity.">
<polygon fill="#999999" stroke="transparent" points="118,-240 26,-240 26,0 118,0 118,-240"/>
<text text-anchor="start" x="31" y="-228" font-family="Helvetica,sans-Serif" font-size="10.00">sen::StaticVector&lt;</text>
<text text-anchor="start" x="58" y="-217" font-family="Helvetica,sans-Serif" font-size="10.00"> T, s &gt;</text>
<text text-anchor="start" x="31.5" y="-202" font-family="Helvetica,sans-Serif" font-size="10.00">+</text>
<text text-anchor="start" x="44" y="-202" font-family="Helvetica,sans-Serif" font-size="10.00">staticCapacity</text>
<text text-anchor="start" x="31.5" y="-187" font-family="Helvetica,sans-Serif" font-size="10.00">+</text>
<text text-anchor="start" x="44" y="-187" font-family="Helvetica,sans-Serif" font-size="10.00">StaticVector()</text>
<text text-anchor="start" x="31.5" y="-172" font-family="Helvetica,sans-Serif" font-size="10.00">+</text>
<text text-anchor="start" x="44" y="-172" font-family="Helvetica,sans-Serif" font-size="10.00">StaticVector()</text>
<text text-anchor="start" x="31.5" y="-157" font-family="Helvetica,sans-Serif" font-size="10.00">+</text>
<text text-anchor="start" x="44" y="-157" font-family="Helvetica,sans-Serif" font-size="10.00">StaticVector()</text>
<text text-anchor="start" x="31.5" y="-142" font-family="Helvetica,sans-Serif" font-size="10.00">+</text>
<text text-anchor="start" x="44" y="-142" font-family="Helvetica,sans-Serif" font-size="10.00">StaticVector()</text>
<text text-anchor="start" x="31.5" y="-127" font-family="Helvetica,sans-Serif" font-size="10.00">+</text>
<text text-anchor="start" x="44" y="-127" font-family="Helvetica,sans-Serif" font-size="10.00">StaticVector()</text>
<text text-anchor="start" x="31.5" y="-112" font-family="Helvetica,sans-Serif" font-size="10.00">+</text>
<text text-anchor="start" x="44" y="-112" font-family="Helvetica,sans-Serif" font-size="10.00">StaticVector()</text>
<text text-anchor="start" x="31.5" y="-97" font-family="Helvetica,sans-Serif" font-size="10.00">+</text>
<text text-anchor="start" x="44" y="-97" font-family="Helvetica,sans-Serif" font-size="10.00">StaticVector()</text>
<text text-anchor="start" x="31.5" y="-82" font-family="Helvetica,sans-Serif" font-size="10.00">+</text>
<text text-anchor="start" x="44" y="-82" font-family="Helvetica,sans-Serif" font-size="10.00">~StaticVector()</text>
<text text-anchor="start" x="31.5" y="-67" font-family="Helvetica,sans-Serif" font-size="10.00">+</text>
<text text-anchor="start" x="44" y="-67" font-family="Helvetica,sans-Serif" font-size="10.00">operator=()</text>
<text text-anchor="start" x="31.5" y="-52" font-family="Helvetica,sans-Serif" font-size="10.00">+</text>
<text text-anchor="start" x="44" y="-52" font-family="Helvetica,sans-Serif" font-size="10.00">operator=()</text>
<text text-anchor="start" x="31.5" y="-37" font-family="Helvetica,sans-Serif" font-size="10.00">+</text>
<text text-anchor="start" x="44" y="-37" font-family="Helvetica,sans-Serif" font-size="10.00">swap()</text>
<text text-anchor="start" x="31.5" y="-22" font-family="Helvetica,sans-Serif" font-size="10.00">+</text>
<text text-anchor="start" x="44" y="-22" font-family="Helvetica,sans-Serif" font-size="10.00">base()</text>
<text text-anchor="start" x="31.5" y="-7" font-family="Helvetica,sans-Serif" font-size="10.00">+</text>
<text text-anchor="start" x="44" y="-7" font-family="Helvetica,sans-Serif" font-size="10.00">base()</text>
<polygon fill="#666666" stroke="#666666" points="26,-212 26,-212 118,-212 118,-212 26,-212"/>
<polygon fill="#666666" stroke="#666666" points="26,-197 26,-197 42,-197 42,-197 26,-197"/>
<polygon fill="#666666" stroke="#666666" points="42,-197 42,-197 118,-197 118,-197 42,-197"/>
<polygon fill="none" stroke="#666666" points="26,0 26,-240 118,-240 118,0 26,0"/>
</a>
</g>
</g>
<!-- Node2 -->
<g id="Node000002" class="node">
<title>Node2</title>
<g id="a_Node000002"><a xlink:href="classsen_1_1_static_vector_base.html" target="_top" xlink:title="Base class for stack&#45;based, exception&#45;safe and resizable vector with fixed&#45;capacity.">
<polygon fill="white" stroke="transparent" points="144,-595 0,-595 0,-276 144,-276 144,-595"/>
<text text-anchor="start" x="11.5" y="-582.5" font-family="Helvetica,sans-Serif" font-size="10.00">sen::StaticVectorBase&lt; T &gt;</text>
<text text-anchor="start" x="4" y="-567.5" font-family="Helvetica,sans-Serif" font-size="10.00">+</text>
<text text-anchor="start" x="15" y="-567.5" font-family="Helvetica,sans-Serif" font-size="10.00">nothrowDes</text>
<text text-anchor="start" x="4" y="-552.5" font-family="Helvetica,sans-Serif" font-size="10.00">+</text>
<text text-anchor="start" x="15" y="-552.5" font-family="Helvetica,sans-Serif" font-size="10.00">nothrowDefaultCons</text>
<text text-anchor="start" x="4" y="-537.5" font-family="Helvetica,sans-Serif" font-size="10.00">+</text>
<text text-anchor="start" x="15" y="-537.5" font-family="Helvetica,sans-Serif" font-size="10.00">nothrowCopyCons</text>
<text text-anchor="start" x="4" y="-522.5" font-family="Helvetica,sans-Serif" font-size="10.00">+</text>
<text text-anchor="start" x="15" y="-522.5" font-family="Helvetica,sans-Serif" font-size="10.00">nothrowMoveCons</text>
<text text-anchor="start" x="4" y="-507.5" font-family="Helvetica,sans-Serif" font-size="10.00">+</text>
<text text-anchor="start" x="15" y="-507.5" font-family="Helvetica,sans-Serif" font-size="10.00">nothrowCopyAndDes</text>
<text text-anchor="start" x="4" y="-492.5" font-family="Helvetica,sans-Serif" font-size="10.00">+</text>
<text text-anchor="start" x="15" y="-492.5" font-family="Helvetica,sans-Serif" font-size="10.00">nothrowDefaultConsAndDes</text>
<text text-anchor="start" x="4" y="-477.5" font-family="Helvetica,sans-Serif" font-size="10.00">+</text>
<text text-anchor="start" x="15" y="-477.5" font-family="Helvetica,sans-Serif" font-size="10.00">StaticVectorBase()</text>
<text text-anchor="start" x="4" y="-462.5" font-family="Helvetica,sans-Serif" font-size="10.00">+</text>
<text text-anchor="start" x="15" y="-462.5" font-family="Helvetica,sans-Serif" font-size="10.00">StaticVectorBase()</text>
<text text-anchor="start" x="4" y="-447.5" font-family="Helvetica,sans-Serif" font-size="10.00">+</text>
<text text-anchor="start" x="15" y="-447.5" font-family="Helvetica,sans-Serif" font-size="10.00">operator=()</text>
<text text-anchor="start" x="4" y="-432.5" font-family="Helvetica,sans-Serif" font-size="10.00">+</text>
<text text-anchor="start" x="15" y="-432.5" font-family="Helvetica,sans-Serif" font-size="10.00">operator=()</text>
<text text-anchor="start" x="4" y="-417.5" font-family="Helvetica,sans-Serif" font-size="10.00">+</text>
<text text-anchor="start" x="15" y="-417.5" font-family="Helvetica,sans-Serif" font-size="10.00">size()</text>
<text text-anchor="start" x="4" y="-402.5" font-family="Helvetica,sans-Serif" font-size="10.00">+</text>
<text text-anchor="start" x="15" y="-402.5" font-family="Helvetica,sans-Serif" font-size="10.00">capacity()</text>
<text text-anchor="start" x="4" y="-387.5" font-family="Helvetica,sans-Serif" font-size="10.00">+</text>
<text text-anchor="start" x="15" y="-387.5" font-family="Helvetica,sans-Serif" font-size="10.00">maxSize()</text>
<text text-anchor="start" x="4" y="-372.5" font-family="Helvetica,sans-Serif" font-size="10.00">+</text>
<text text-anchor="start" x="15" y="-372.5" font-family="Helvetica,sans-Serif" font-size="10.00">data()</text>
<text text-anchor="start" x="4" y="-357.5" font-family="Helvetica,sans-Serif" font-size="10.00">+</text>
<text text-anchor="start" x="15" y="-357.5" font-family="Helvetica,sans-Serif" font-size="10.00">data()</text>
<text text-anchor="start" x="4" y="-342.5" font-family="Helvetica,sans-Serif" font-size="10.00">+</text>
<text text-anchor="start" x="15" y="-342.5" font-family="Helvetica,sans-Serif" font-size="10.00">empty()</text>
<text text-anchor="start" x="15" y="-327.5" font-family="Helvetica,sans-Serif" font-size="10.00">and 41 more...</text>
<text text-anchor="start" x="4.5" y="-312.5" font-family="Helvetica,sans-Serif" font-size="10.00">#</text>
<text text-anchor="start" x="15" y="-312.5" font-family="Helvetica,sans-Serif" font-size="10.00">StaticVectorBase()</text>
<text text-anchor="start" x="4.5" y="-297.5" font-family="Helvetica,sans-Serif" font-size="10.00">#</text>
<text text-anchor="start" x="15" y="-297.5" font-family="Helvetica,sans-Serif" font-size="10.00">~StaticVectorBase()</text>
<text text-anchor="start" x="4.5" y="-282.5" font-family="Helvetica,sans-Serif" font-size="10.00">#</text>
<text text-anchor="start" x="15" y="-282.5" font-family="Helvetica,sans-Serif" font-size="10.00">internalSetSize()</text>
<polygon fill="#666666" stroke="#666666" points="0,-577.5 0,-577.5 144,-577.5 144,-577.5 0,-577.5"/>
<polygon fill="#666666" stroke="#666666" points="0,-487.5 0,-487.5 13,-487.5 13,-487.5 0,-487.5"/>
<polygon fill="#666666" stroke="#666666" points="13,-487.5 13,-487.5 144,-487.5 144,-487.5 13,-487.5"/>
<polygon fill="none" stroke="#666666" points="0,-276 0,-595 144,-595 144,-276 0,-276"/>
</a>
</g>
</g>
<!-- Node2&#45;&gt;Node1 -->
<g id="edge1_Node000001_Node000002" class="edge">
<title>Node2&#45;&gt;Node1</title>
<g id="a_edge1_Node000001_Node000002"><a xlink:title=" ">
<path fill="none" stroke="#63b8ff" d="M72,-265.8C72,-257.2 72,-248.64 72,-240.24"/>
<polygon fill="none" stroke="#63b8ff" points="68.5,-265.91 72,-275.91 75.5,-265.91 68.5,-265.91"/>
</a>
</g>
</g>
</g>
</svg>
