<?xml version="1.0" encoding="UTF-8" standalone="no"?>
<!DOCTYPE svg PUBLIC "-//W3C//DTD SVG 1.1//EN"
 "http://www.w3.org/Graphics/SVG/1.1/DTD/svg11.dtd">
<!-- Generated by graphviz version 2.43.0 (0)
 -->
<!-- Title: sen::ObjectFilter Pages: 1 -->
<svg width="172pt" height="617pt"
 viewBox="0.00 0.00 172.00 617.00" xmlns="http://www.w3.org/2000/svg" xmlns:xlink="http://www.w3.org/1999/xlink">
<g id="graph0" class="graph" transform="scale(1 1) rotate(0) translate(4 613)">
<title>sen::ObjectFilter</title>
<!-- Node1 -->
<g id="Node000001" class="node">
<title>Node1</title>
<g id="a_Node000001"><a xlink:title="Allows the discovery of objects based on different criteria.">
<polygon fill="#999999" stroke="transparent" points="164,-464 0,-464 0,-220 164,-220 164,-464"/>
<text text-anchor="start" x="42" y="-452" font-family="Helvetica,sans-Serif" font-size="10.00">sen::ObjectFilter</text>
<text text-anchor="start" x="80" y="-437" font-family="Helvetica,sans-Serif" font-size="10.00"> </text>
<text text-anchor="start" x="4" y="-422" font-family="Helvetica,sans-Serif" font-size="10.00">+</text>
<text text-anchor="start" x="17" y="-422" font-family="Helvetica,sans-Serif" font-size="10.00">ObjectFilter()</text>
<text text-anchor="start" x="4" y="-407" font-family="Helvetica,sans-Serif" font-size="10.00">+</text>
<text text-anchor="start" x="17" y="-407" font-family="Helvetica,sans-Serif" font-size="10.00">~ObjectFilter()</text>
<text text-anchor="start" x="4" y="-392" font-family="Helvetica,sans-Serif" font-size="10.00">+</text>
<text text-anchor="start" x="17" y="-392" font-family="Helvetica,sans-Serif" font-size="10.00">addSubscriber()</text>
<text text-anchor="start" x="4" y="-377" font-family="Helvetica,sans-Serif" font-size="10.00">+</text>
<text text-anchor="start" x="17" y="-377" font-family="Helvetica,sans-Serif" font-size="10.00">removeSubscriber()</text>
<text text-anchor="start" x="4" y="-362" font-family="Helvetica,sans-Serif" font-size="10.00">+</text>
<text text-anchor="start" x="17" y="-362" font-family="Helvetica,sans-Serif" font-size="10.00">removeSubscriber()</text>
<text text-anchor="start" x="4" y="-347" font-family="Helvetica,sans-Serif" font-size="10.00">+</text>
<text text-anchor="start" x="17" y="-347" font-family="Helvetica,sans-Serif" font-size="10.00">getOrCreateNamedProvider()</text>
<text text-anchor="start" x="4" y="-332" font-family="Helvetica,sans-Serif" font-size="10.00">+</text>
<text text-anchor="start" x="17" y="-332" font-family="Helvetica,sans-Serif" font-size="10.00">removeNamedProvider()</text>
<text text-anchor="start" x="4" y="-317" font-family="Helvetica,sans-Serif" font-size="10.00">#</text>
<text text-anchor="start" x="17" y="-317" font-family="Helvetica,sans-Serif" font-size="10.00">evaluate()</text>
<text text-anchor="start" x="4" y="-302" font-family="Helvetica,sans-Serif" font-size="10.00">#</text>
<text text-anchor="start" x="17" y="-302" font-family="Helvetica,sans-Serif" font-size="10.00">getOwnerId()</text>
<text text-anchor="start" x="4" y="-287" font-family="Helvetica,sans-Serif" font-size="10.00">#</text>
<text text-anchor="start" x="17" y="-287" font-family="Helvetica,sans-Serif" font-size="10.00">subscriberAdded()</text>
<text text-anchor="start" x="4" y="-272" font-family="Helvetica,sans-Serif" font-size="10.00">#</text>
<text text-anchor="start" x="17" y="-272" font-family="Helvetica,sans-Serif" font-size="10.00">subscriberRemoved()</text>
<text text-anchor="start" x="4" y="-257" font-family="Helvetica,sans-Serif" font-size="10.00">#</text>
<text text-anchor="start" x="17" y="-257" font-family="Helvetica,sans-Serif" font-size="10.00">subscriberRemoved()</text>
<text text-anchor="start" x="4" y="-242" font-family="Helvetica,sans-Serif" font-size="10.00">#</text>
<text text-anchor="start" x="17" y="-242" font-family="Helvetica,sans-Serif" font-size="10.00">objectsAdded()</text>
<text text-anchor="start" x="4" y="-227" font-family="Helvetica,sans-Serif" font-size="10.00">#</text>
<text text-anchor="start" x="17" y="-227" font-family="Helvetica,sans-Serif" font-size="10.00">objectsRemoved()</text>
<polygon fill="#666666" stroke="#666666" points="0,-447 0,-447 164,-447 164,-447 0,-447"/>
<polygon fill="#666666" stroke="#666666" points="0,-432 0,-432 164,-432 164,-432 0,-432"/>
<polygon fill="none" stroke="#666666" points="0,-220 0,-464 164,-464 164,-220 0,-220"/>
</a>
</g>
</g>
<!-- Node3 -->
<g id="Node000003" class="node">
<title>Node3</title>
<g id="a_Node000003"><a xlink:href="classsen_1_1_object_source.html" target="_top" xlink:title="Allows adding and receiving objects.">
<polygon fill="white" stroke="transparent" points="133,-184 31,-184 31,0 133,0 133,-184"/>
<text text-anchor="start" x="38" y="-172" font-family="Helvetica,sans-Serif" font-size="10.00">sen::ObjectSource</text>
<text text-anchor="start" x="80" y="-157" font-family="Helvetica,sans-Serif" font-size="10.00"> </text>
<text text-anchor="start" x="35" y="-142" font-family="Helvetica,sans-Serif" font-size="10.00">+</text>
<text text-anchor="start" x="48" y="-142" font-family="Helvetica,sans-Serif" font-size="10.00">ObjectSource()</text>
<text text-anchor="start" x="35" y="-127" font-family="Helvetica,sans-Serif" font-size="10.00">+</text>
<text text-anchor="start" x="48" y="-127" font-family="Helvetica,sans-Serif" font-size="10.00">~ObjectSource()</text>
<text text-anchor="start" x="35" y="-112" font-family="Helvetica,sans-Serif" font-size="10.00">+</text>
<text text-anchor="start" x="48" y="-112" font-family="Helvetica,sans-Serif" font-size="10.00">add()</text>
<text text-anchor="start" x="35" y="-97" font-family="Helvetica,sans-Serif" font-size="10.00">+</text>
<text text-anchor="start" x="48" y="-97" font-family="Helvetica,sans-Serif" font-size="10.00">add()</text>
<text text-anchor="start" x="35" y="-82" font-family="Helvetica,sans-Serif" font-size="10.00">+</text>
<text text-anchor="start" x="48" y="-82" font-family="Helvetica,sans-Serif" font-size="10.00">add()</text>
<text text-anchor="start" x="35" y="-67" font-family="Helvetica,sans-Serif" font-size="10.00">+</text>
<text text-anchor="start" x="48" y="-67" font-family="Helvetica,sans-Serif" font-size="10.00">remove()</text>
<text text-anchor="start" x="35" y="-52" font-family="Helvetica,sans-Serif" font-size="10.00">+</text>
<text text-anchor="start" x="48" y="-52" font-family="Helvetica,sans-Serif" font-size="10.00">remove()</text>
<text text-anchor="start" x="35" y="-37" font-family="Helvetica,sans-Serif" font-size="10.00">+</text>
<text text-anchor="start" x="48" y="-37" font-family="Helvetica,sans-Serif" font-size="10.00">remove()</text>
<text text-anchor="start" x="35" y="-22" font-family="Helvetica,sans-Serif" font-size="10.00">#</text>
<text text-anchor="start" x="48" y="-22" font-family="Helvetica,sans-Serif" font-size="10.00">flushOutputs()</text>
<text text-anchor="start" x="35" y="-7" font-family="Helvetica,sans-Serif" font-size="10.00">#</text>
<text text-anchor="start" x="48" y="-7" font-family="Helvetica,sans-Serif" font-size="10.00">drainInputs()</text>
<polygon fill="#666666" stroke="#666666" points="31,-167 31,-167 133,-167 133,-167 31,-167"/>
<polygon fill="#666666" stroke="#666666" points="31,-152 31,-152 133,-152 133,-152 31,-152"/>
<polygon fill="none" stroke="#666666" points="31,0 31,-184 133,-184 133,0 31,0"/>
</a>
</g>
</g>
<!-- Node1&#45;&gt;Node3 -->
<g id="edge2_Node000001_Node000003" class="edge">
<title>Node1&#45;&gt;Node3</title>
<g id="a_edge2_Node000001_Node000003"><a xlink:title=" ">
<path fill="none" stroke="#63b8ff" d="M82,-209.74C82,-201.09 82,-192.49 82,-184.1"/>
<polygon fill="none" stroke="#63b8ff" points="78.5,-209.91 82,-219.91 85.5,-209.91 78.5,-209.91"/>
</a>
</g>
</g>
<!-- Node2 -->
<g id="Node000002" class="node">
<title>Node2</title>
<g id="a_Node000002"><a xlink:href="classsen_1_1_object_filter_base.html" target="_top" xlink:title="Base class for object filters.">
<polygon fill="white" stroke="transparent" points="141,-609 23,-609 23,-500 141,-500 141,-609"/>
<text text-anchor="start" x="30" y="-596.5" font-family="Helvetica,sans-Serif" font-size="10.00">sen::ObjectFilterBase</text>
<text text-anchor="start" x="80" y="-581.5" font-family="Helvetica,sans-Serif" font-size="10.00"> </text>
<text text-anchor="start" x="27" y="-566.5" font-family="Helvetica,sans-Serif" font-size="10.00">+</text>
<text text-anchor="start" x="40" y="-566.5" font-family="Helvetica,sans-Serif" font-size="10.00">ObjectFilterBase()</text>
<text text-anchor="start" x="27" y="-551.5" font-family="Helvetica,sans-Serif" font-size="10.00">+</text>
<text text-anchor="start" x="40" y="-551.5" font-family="Helvetica,sans-Serif" font-size="10.00">~ObjectFilterBase()</text>
<text text-anchor="start" x="27" y="-536.5" font-family="Helvetica,sans-Serif" font-size="10.00">+</text>
<text text-anchor="start" x="40" y="-536.5" font-family="Helvetica,sans-Serif" font-size="10.00">addSubscriber()</text>
<text text-anchor="start" x="27" y="-521.5" font-family="Helvetica,sans-Serif" font-size="10.00">+</text>
<text text-anchor="start" x="40" y="-521.5" font-family="Helvetica,sans-Serif" font-size="10.00">removeSubscriber()</text>
<text text-anchor="start" x="27" y="-506.5" font-family="Helvetica,sans-Serif" font-size="10.00">+</text>
<text text-anchor="start" x="40" y="-506.5" font-family="Helvetica,sans-Serif" font-size="10.00">removeSubscriber()</text>
<polygon fill="#666666" stroke="#666666" points="23,-591.5 23,-591.5 141,-591.5 141,-591.5 23,-591.5"/>
<polygon fill="#666666" stroke="#666666" points="23,-576.5 23,-576.5 141,-576.5 141,-576.5 23,-576.5"/>
<polygon fill="none" stroke="#666666" points="23,-500 23,-609 141,-609 141,-500 23,-500"/>
</a>
</g>
</g>
<!-- Node2&#45;&gt;Node1 -->
<g id="edge1_Node000001_Node000002" class="edge">
<title>Node2&#45;&gt;Node1</title>
<g id="a_edge1_Node000001_Node000002"><a xlink:title=" ">
<path fill="none" stroke="#63b8ff" d="M82,-489.72C82,-481.54 82,-472.97 82,-464.25"/>
<polygon fill="none" stroke="#63b8ff" points="78.5,-489.84 82,-499.84 85.5,-489.84 78.5,-489.84"/>
</a>
</g>
</g>
</g>
</svg>
