<?xml version="1.0" encoding="UTF-8" standalone="no"?>
<!DOCTYPE svg PUBLIC "-//W3C//DTD SVG 1.1//EN"
 "http://www.w3.org/Graphics/SVG/1.1/DTD/svg11.dtd">
<!-- Generated by graphviz version 2.43.0 (0)
 -->
<!-- Title: sen::ObjectMux Pages: 1 -->
<svg width="368pt" height="826pt"
 viewBox="0.00 0.00 367.50 826.00" xmlns="http://www.w3.org/2000/svg" xmlns:xlink="http://www.w3.org/1999/xlink">
<g id="graph0" class="graph" transform="scale(1 1) rotate(0) translate(4 822)">
<title>sen::ObjectMux</title>
<!-- Node1 -->
<g id="Node000001" class="node">
<title>Node1</title>
<g id="a_Node000001"><a xlink:title="Converts multiple object providers into one. Providers might reside in different threads....">
<polygon fill="#999999" stroke="transparent" points="264.5,-401 71.5,-401 71.5,0 264.5,0 264.5,-401"/>
<text text-anchor="start" x="130.5" y="-388.5" font-family="Helvetica,sans-Serif" font-size="10.00">sen::ObjectMux</text>
<text text-anchor="start" x="166.5" y="-373.5" font-family="Helvetica,sans-Serif" font-size="10.00"> </text>
<text text-anchor="start" x="76" y="-358.5" font-family="Helvetica,sans-Serif" font-size="10.00">+</text>
<text text-anchor="start" x="89" y="-358.5" font-family="Helvetica,sans-Serif" font-size="10.00">ObjectMux()</text>
<text text-anchor="start" x="76" y="-343.5" font-family="Helvetica,sans-Serif" font-size="10.00">+</text>
<text text-anchor="start" x="89" y="-343.5" font-family="Helvetica,sans-Serif" font-size="10.00">~ObjectMux()</text>
<text text-anchor="start" x="76" y="-328.5" font-family="Helvetica,sans-Serif" font-size="10.00">+</text>
<text text-anchor="start" x="89" y="-328.5" font-family="Helvetica,sans-Serif" font-size="10.00">addListener()</text>
<text text-anchor="start" x="76" y="-313.5" font-family="Helvetica,sans-Serif" font-size="10.00">+</text>
<text text-anchor="start" x="89" y="-313.5" font-family="Helvetica,sans-Serif" font-size="10.00">removeListener()</text>
<text text-anchor="start" x="76" y="-298.5" font-family="Helvetica,sans-Serif" font-size="10.00">+</text>
<text text-anchor="start" x="89" y="-298.5" font-family="Helvetica,sans-Serif" font-size="10.00">hasListener()</text>
<text text-anchor="start" x="76" y="-283.5" font-family="Helvetica,sans-Serif" font-size="10.00">+</text>
<text text-anchor="start" x="89" y="-283.5" font-family="Helvetica,sans-Serif" font-size="10.00">hasListeners()</text>
<text text-anchor="start" x="76" y="-268.5" font-family="Helvetica,sans-Serif" font-size="10.00">+</text>
<text text-anchor="start" x="89" y="-268.5" font-family="Helvetica,sans-Serif" font-size="10.00">addMuxedListener()</text>
<text text-anchor="start" x="76" y="-253.5" font-family="Helvetica,sans-Serif" font-size="10.00">+</text>
<text text-anchor="start" x="89" y="-253.5" font-family="Helvetica,sans-Serif" font-size="10.00">removeMuxedListener()</text>
<text text-anchor="start" x="76" y="-238.5" font-family="Helvetica,sans-Serif" font-size="10.00">+</text>
<text text-anchor="start" x="89" y="-238.5" font-family="Helvetica,sans-Serif" font-size="10.00">hasMuxedListener()</text>
<text text-anchor="start" x="76" y="-223.5" font-family="Helvetica,sans-Serif" font-size="10.00">#</text>
<text text-anchor="start" x="89" y="-223.5" font-family="Helvetica,sans-Serif" font-size="10.00">notifyAddedOnExistingObjects()</text>
<text text-anchor="start" x="76" y="-208.5" font-family="Helvetica,sans-Serif" font-size="10.00">#</text>
<text text-anchor="start" x="89" y="-208.5" font-family="Helvetica,sans-Serif" font-size="10.00">notifyRemovedOnExistingObjects()</text>
<text text-anchor="start" x="76" y="-193.5" font-family="Helvetica,sans-Serif" font-size="10.00">#</text>
<text text-anchor="start" x="89" y="-193.5" font-family="Helvetica,sans-Serif" font-size="10.00">notifyObjectsAdded()</text>
<text text-anchor="start" x="76" y="-178.5" font-family="Helvetica,sans-Serif" font-size="10.00">#</text>
<text text-anchor="start" x="89" y="-178.5" font-family="Helvetica,sans-Serif" font-size="10.00">notifyObjectsRemoved()</text>
<text text-anchor="start" x="76" y="-163.5" font-family="Helvetica,sans-Serif" font-size="10.00">#</text>
<text text-anchor="start" x="89" y="-163.5" font-family="Helvetica,sans-Serif" font-size="10.00">notifyMuxedAddedOnExisting</text>
<text text-anchor="start" x="89" y="-152.5" font-family="Helvetica,sans-Serif" font-size="10.00">Objects()</text>
<text text-anchor="start" x="76" y="-137.5" font-family="Helvetica,sans-Serif" font-size="10.00">#</text>
<text text-anchor="start" x="89" y="-137.5" font-family="Helvetica,sans-Serif" font-size="10.00">notifyMuxedRemovedOnExisting</text>
<text text-anchor="start" x="89" y="-126.5" font-family="Helvetica,sans-Serif" font-size="10.00">Objects()</text>
<text text-anchor="start" x="76" y="-111.5" font-family="Helvetica,sans-Serif" font-size="10.00">#</text>
<text text-anchor="start" x="89" y="-111.5" font-family="Helvetica,sans-Serif" font-size="10.00">notifyExistingObjectsReadded()</text>
<text text-anchor="start" x="76" y="-96.5" font-family="Helvetica,sans-Serif" font-size="10.00">#</text>
<text text-anchor="start" x="89" y="-96.5" font-family="Helvetica,sans-Serif" font-size="10.00">notifyObjectsRefCountReduced()</text>
<text text-anchor="start" x="76" y="-81.5" font-family="Helvetica,sans-Serif" font-size="10.00">#</text>
<text text-anchor="start" x="89" y="-81.5" font-family="Helvetica,sans-Serif" font-size="10.00">muxedListenerAdded()</text>
<text text-anchor="start" x="76" y="-66.5" font-family="Helvetica,sans-Serif" font-size="10.00">#</text>
<text text-anchor="start" x="89" y="-66.5" font-family="Helvetica,sans-Serif" font-size="10.00">muxedListenerRemoved()</text>
<text text-anchor="start" x="76" y="-51.5" font-family="Helvetica,sans-Serif" font-size="10.00">#</text>
<text text-anchor="start" x="89" y="-51.5" font-family="Helvetica,sans-Serif" font-size="10.00">callOnExistingObjectsReadded()</text>
<text text-anchor="start" x="76" y="-36.5" font-family="Helvetica,sans-Serif" font-size="10.00">#</text>
<text text-anchor="start" x="89" y="-36.5" font-family="Helvetica,sans-Serif" font-size="10.00">callOnObjectsRefCountReduced()</text>
<text text-anchor="start" x="76" y="-21.5" font-family="Helvetica,sans-Serif" font-size="10.00">#</text>
<text text-anchor="start" x="89" y="-21.5" font-family="Helvetica,sans-Serif" font-size="10.00">onObjectsAdded()</text>
<text text-anchor="start" x="76" y="-6.5" font-family="Helvetica,sans-Serif" font-size="10.00">#</text>
<text text-anchor="start" x="89" y="-6.5" font-family="Helvetica,sans-Serif" font-size="10.00">onObjectsRemoved()</text>
<polygon fill="#666666" stroke="#666666" points="72,-383.5 72,-383.5 265,-383.5 265,-383.5 72,-383.5"/>
<polygon fill="#666666" stroke="#666666" points="72,-368.5 72,-368.5 265,-368.5 265,-368.5 72,-368.5"/>
<polygon fill="none" stroke="#666666" points="71.5,0 71.5,-401 264.5,-401 264.5,0 71.5,0"/>
</a>
</g>
</g>
<!-- Node2 -->
<g id="Node000002" class="node">
<title>Node2</title>
<g id="a_Node000002"><a xlink:href="classsen_1_1_object_provider_listener.html" target="_top" xlink:title="Allows reacting to objects being added or removed to an object provider. It automatically unregisters...">
<polygon fill="white" stroke="transparent" points="148,-641.5 0,-641.5 0,-517.5 148,-517.5 148,-641.5"/>
<text text-anchor="start" x="6.5" y="-629.5" font-family="Helvetica,sans-Serif" font-size="10.00">sen::ObjectProviderListener</text>
<text text-anchor="start" x="72" y="-614.5" font-family="Helvetica,sans-Serif" font-size="10.00"> </text>
<text text-anchor="start" x="4" y="-599.5" font-family="Helvetica,sans-Serif" font-size="10.00">+</text>
<text text-anchor="start" x="17" y="-599.5" font-family="Helvetica,sans-Serif" font-size="10.00">ObjectProviderListener()</text>
<text text-anchor="start" x="4" y="-584.5" font-family="Helvetica,sans-Serif" font-size="10.00">+</text>
<text text-anchor="start" x="17" y="-584.5" font-family="Helvetica,sans-Serif" font-size="10.00">~ObjectProviderListener()</text>
<text text-anchor="start" x="4" y="-569.5" font-family="Helvetica,sans-Serif" font-size="10.00">+</text>
<text text-anchor="start" x="17" y="-569.5" font-family="Helvetica,sans-Serif" font-size="10.00">isRemoteParticipant()</text>
<text text-anchor="start" x="4" y="-554.5" font-family="Helvetica,sans-Serif" font-size="10.00">+</text>
<text text-anchor="start" x="17" y="-554.5" font-family="Helvetica,sans-Serif" font-size="10.00">isLocalParticipant()</text>
<text text-anchor="start" x="4" y="-539.5" font-family="Helvetica,sans-Serif" font-size="10.00">#</text>
<text text-anchor="start" x="17" y="-539.5" font-family="Helvetica,sans-Serif" font-size="10.00">onObjectsAdded()</text>
<text text-anchor="start" x="4" y="-524.5" font-family="Helvetica,sans-Serif" font-size="10.00">#</text>
<text text-anchor="start" x="17" y="-524.5" font-family="Helvetica,sans-Serif" font-size="10.00">onObjectsRemoved()</text>
<polygon fill="#666666" stroke="#666666" points="0,-624.5 0,-624.5 148,-624.5 148,-624.5 0,-624.5"/>
<polygon fill="#666666" stroke="#666666" points="0,-609.5 0,-609.5 148,-609.5 148,-609.5 0,-609.5"/>
<polygon fill="none" stroke="#666666" points="0,-517.5 0,-641.5 148,-641.5 148,-517.5 0,-517.5"/>
</a>
</g>
</g>
<!-- Node2&#45;&gt;Node1 -->
<g id="edge1_Node000001_Node000002" class="edge">
<title>Node2&#45;&gt;Node1</title>
<g id="a_edge1_Node000001_Node000002"><a xlink:title=" ">
<path fill="none" stroke="#63b8ff" d="M91.83,-506.99C99.45,-476.41 108.77,-439.04 118.24,-401.07"/>
<polygon fill="none" stroke="#63b8ff" points="88.34,-506.54 89.31,-517.09 95.13,-508.23 88.34,-506.54"/>
</a>
</g>
</g>
<!-- Node3 -->
<g id="Node000003" class="node">
<title>Node3</title>
<g id="a_Node000003"><a xlink:href="classsen_1_1_object_provider.html" target="_top" xlink:title="Base class for an entity that is able to produce objects.">
<polygon fill="white" stroke="transparent" points="359.5,-722 166.5,-722 166.5,-437 359.5,-437 359.5,-722"/>
<text text-anchor="start" x="215.5" y="-709.5" font-family="Helvetica,sans-Serif" font-size="10.00">sen::ObjectProvider</text>
<text text-anchor="start" x="261.5" y="-694.5" font-family="Helvetica,sans-Serif" font-size="10.00"> </text>
<text text-anchor="start" x="171" y="-679.5" font-family="Helvetica,sans-Serif" font-size="10.00">+</text>
<text text-anchor="start" x="184" y="-679.5" font-family="Helvetica,sans-Serif" font-size="10.00">ObjectProvider()</text>
<text text-anchor="start" x="171" y="-664.5" font-family="Helvetica,sans-Serif" font-size="10.00">+</text>
<text text-anchor="start" x="184" y="-664.5" font-family="Helvetica,sans-Serif" font-size="10.00">~ObjectProvider()</text>
<text text-anchor="start" x="171" y="-649.5" font-family="Helvetica,sans-Serif" font-size="10.00">+</text>
<text text-anchor="start" x="184" y="-649.5" font-family="Helvetica,sans-Serif" font-size="10.00">addListener()</text>
<text text-anchor="start" x="171" y="-634.5" font-family="Helvetica,sans-Serif" font-size="10.00">+</text>
<text text-anchor="start" x="184" y="-634.5" font-family="Helvetica,sans-Serif" font-size="10.00">removeListener()</text>
<text text-anchor="start" x="171" y="-619.5" font-family="Helvetica,sans-Serif" font-size="10.00">+</text>
<text text-anchor="start" x="184" y="-619.5" font-family="Helvetica,sans-Serif" font-size="10.00">hasListener()</text>
<text text-anchor="start" x="171" y="-604.5" font-family="Helvetica,sans-Serif" font-size="10.00">+</text>
<text text-anchor="start" x="184" y="-604.5" font-family="Helvetica,sans-Serif" font-size="10.00">hasListeners()</text>
<text text-anchor="start" x="171" y="-589.5" font-family="Helvetica,sans-Serif" font-size="10.00">#</text>
<text text-anchor="start" x="184" y="-589.5" font-family="Helvetica,sans-Serif" font-size="10.00">notifyObjectsAdded()</text>
<text text-anchor="start" x="171" y="-574.5" font-family="Helvetica,sans-Serif" font-size="10.00">#</text>
<text text-anchor="start" x="184" y="-574.5" font-family="Helvetica,sans-Serif" font-size="10.00">notifyObjectsRemoved()</text>
<text text-anchor="start" x="171" y="-559.5" font-family="Helvetica,sans-Serif" font-size="10.00">#</text>
<text text-anchor="start" x="184" y="-559.5" font-family="Helvetica,sans-Serif" font-size="10.00">listenerAdded()</text>
<text text-anchor="start" x="171" y="-544.5" font-family="Helvetica,sans-Serif" font-size="10.00">#</text>
<text text-anchor="start" x="184" y="-544.5" font-family="Helvetica,sans-Serif" font-size="10.00">listenerRemoved()</text>
<text text-anchor="start" x="171" y="-529.5" font-family="Helvetica,sans-Serif" font-size="10.00">#</text>
<text text-anchor="start" x="184" y="-529.5" font-family="Helvetica,sans-Serif" font-size="10.00">notifyAddedOnExistingObjects()</text>
<text text-anchor="start" x="171" y="-514.5" font-family="Helvetica,sans-Serif" font-size="10.00">#</text>
<text text-anchor="start" x="184" y="-514.5" font-family="Helvetica,sans-Serif" font-size="10.00">notifyRemovedOnExistingObjects()</text>
<text text-anchor="start" x="171" y="-499.5" font-family="Helvetica,sans-Serif" font-size="10.00">#</text>
<text text-anchor="start" x="184" y="-499.5" font-family="Helvetica,sans-Serif" font-size="10.00">notifyRemovedOnExistingObjects</text>
<text text-anchor="start" x="184" y="-488.5" font-family="Helvetica,sans-Serif" font-size="10.00">ForAllListeners()</text>
<text text-anchor="start" x="171" y="-473.5" font-family="Helvetica,sans-Serif" font-size="10.00">#</text>
<text text-anchor="start" x="184" y="-473.5" font-family="Helvetica,sans-Serif" font-size="10.00">callOnObjectsAdded()</text>
<text text-anchor="start" x="171" y="-458.5" font-family="Helvetica,sans-Serif" font-size="10.00">#</text>
<text text-anchor="start" x="184" y="-458.5" font-family="Helvetica,sans-Serif" font-size="10.00">callOnObjectsRemoved()</text>
<text text-anchor="start" x="171" y="-443.5" font-family="Helvetica,sans-Serif" font-size="10.00">#</text>
<text text-anchor="start" x="184" y="-443.5" font-family="Helvetica,sans-Serif" font-size="10.00">getListeners()</text>
<polygon fill="#666666" stroke="#666666" points="167,-704.5 167,-704.5 360,-704.5 360,-704.5 167,-704.5"/>
<polygon fill="#666666" stroke="#666666" points="167,-689.5 167,-689.5 360,-689.5 360,-689.5 167,-689.5"/>
<polygon fill="none" stroke="#666666" points="166.5,-437 166.5,-722 359.5,-722 359.5,-437 166.5,-437"/>
</a>
</g>
</g>
<!-- Node3&#45;&gt;Node1 -->
<g id="edge2_Node000001_Node000003" class="edge">
<title>Node3&#45;&gt;Node1</title>
<g id="a_edge2_Node000001_Node000003"><a xlink:title=" ">
<path fill="none" stroke="#63b8ff" d="M224.79,-426.85C222.65,-418.36 220.48,-409.75 218.3,-401.12"/>
<polygon fill="none" stroke="#63b8ff" points="221.45,-427.94 227.29,-436.78 228.24,-426.23 221.45,-427.94"/>
</a>
</g>
</g>
<!-- Node4 -->
<g id="Node000004" class="node">
<title>Node4</title>
<g id="a_Node000004"><a xlink:title=" ">
<polygon fill="white" stroke="transparent" points="341.5,-818 184.5,-818 184.5,-758 341.5,-758 341.5,-818"/>
<text text-anchor="start" x="190" y="-806" font-family="Helvetica,sans-Serif" font-size="10.00">std::enable_shared</text>
<text text-anchor="start" x="190" y="-795" font-family="Helvetica,sans-Serif" font-size="10.00">_from_this&lt; ObjectProvider &gt;</text>
<text text-anchor="start" x="261.5" y="-780" font-family="Helvetica,sans-Serif" font-size="10.00"> </text>
<text text-anchor="start" x="261.5" y="-765" font-family="Helvetica,sans-Serif" font-size="10.00"> </text>
<polygon fill="#666666" stroke="#666666" points="185,-790 185,-790 342,-790 342,-790 185,-790"/>
<polygon fill="#666666" stroke="#666666" points="185,-775 185,-775 342,-775 342,-775 185,-775"/>
<polygon fill="none" stroke="#666666" points="184.5,-758 184.5,-818 341.5,-818 341.5,-758 184.5,-758"/>
</a>
</g>
</g>
<!-- Node4&#45;&gt;Node3 -->
<g id="edge3_Node000003_Node000004" class="edge">
<title>Node4&#45;&gt;Node3</title>
<g id="a_edge3_Node000003_Node000004"><a xlink:title=" ">
<path fill="none" stroke="#63b8ff" d="M263,-747.69C263,-739.85 263,-731.2 263,-722.08"/>
<polygon fill="none" stroke="#63b8ff" points="259.5,-747.85 263,-757.85 266.5,-747.85 259.5,-747.85"/>
</a>
</g>
</g>
</g>
</svg>
