<?xml version="1.0" encoding="UTF-8" standalone="no"?>
<!DOCTYPE svg PUBLIC "-//W3C//DTD SVG 1.1//EN"
 "http://www.w3.org/Graphics/SVG/1.1/DTD/svg11.dtd">
<!-- Generated by graphviz version 2.43.0 (0)
 -->
<!-- Title: sen::std_util::detail::MoveOnlyFunctionImpl&lt; ResultType(ArgTypes...) GENERATE_WITH_CV GENERATE_WITH_REF NOEXCEPT_SPECIFIER &gt; Pages: 1 -->
<svg width="202pt" height="482pt"
 viewBox="0.00 0.00 202.00 482.00" xmlns="http://www.w3.org/2000/svg" xmlns:xlink="http://www.w3.org/1999/xlink">
<g id="graph0" class="graph" transform="scale(1 1) rotate(0) translate(4 478)">
<title>sen::std_util::detail::MoveOnlyFunctionImpl&lt; ResultType(ArgTypes...) GENERATE_WITH_CV GENERATE_WITH_REF NOEXCEPT_SPECIFIER &gt;</title>
<!-- Node1 -->
<g id="Node000001" class="node">
<title>Node1</title>
<g id="a_Node000001"><a xlink:title=" ">
<polygon fill="#999999" stroke="transparent" points="194,-258 0,-258 0,0 194,0 194,-258"/>
<text text-anchor="start" x="5" y="-246" font-family="Helvetica,sans-Serif" font-size="10.00">sen::std_util::detail</text>
<text text-anchor="start" x="5" y="-235" font-family="Helvetica,sans-Serif" font-size="10.00">::MoveOnlyFunctionImpl</text>
<text text-anchor="start" x="5" y="-224" font-family="Helvetica,sans-Serif" font-size="10.00">&lt; ResultType(ArgTypes...)</text>
<text text-anchor="start" x="5" y="-213" font-family="Helvetica,sans-Serif" font-size="10.00"> GENERATE_WITH_CV GENERATE</text>
<text text-anchor="start" x="5" y="-202" font-family="Helvetica,sans-Serif" font-size="10.00">_WITH_REF NOEXCEPT_SPECIFIER &gt;</text>
<text text-anchor="start" x="95" y="-187" font-family="Helvetica,sans-Serif" font-size="10.00"> </text>
<text text-anchor="start" x="19.5" y="-172" font-family="Helvetica,sans-Serif" font-size="10.00">+</text>
<text text-anchor="start" x="46" y="-172" font-family="Helvetica,sans-Serif" font-size="10.00">MoveOnlyFunctionImpl()</text>
<text text-anchor="start" x="19.5" y="-157" font-family="Helvetica,sans-Serif" font-size="10.00">+</text>
<text text-anchor="start" x="46" y="-157" font-family="Helvetica,sans-Serif" font-size="10.00">MoveOnlyFunctionImpl()</text>
<text text-anchor="start" x="19.5" y="-142" font-family="Helvetica,sans-Serif" font-size="10.00">+</text>
<text text-anchor="start" x="46" y="-142" font-family="Helvetica,sans-Serif" font-size="10.00">MoveOnlyFunctionImpl()</text>
<text text-anchor="start" x="19.5" y="-127" font-family="Helvetica,sans-Serif" font-size="10.00">+</text>
<text text-anchor="start" x="46" y="-127" font-family="Helvetica,sans-Serif" font-size="10.00">MoveOnlyFunctionImpl()</text>
<text text-anchor="start" x="19.5" y="-112" font-family="Helvetica,sans-Serif" font-size="10.00">+</text>
<text text-anchor="start" x="46" y="-112" font-family="Helvetica,sans-Serif" font-size="10.00">MoveOnlyFunctionImpl()</text>
<text text-anchor="start" x="19.5" y="-97" font-family="Helvetica,sans-Serif" font-size="10.00">+</text>
<text text-anchor="start" x="46" y="-97" font-family="Helvetica,sans-Serif" font-size="10.00">MoveOnlyFunctionImpl()</text>
<text text-anchor="start" x="19.5" y="-82" font-family="Helvetica,sans-Serif" font-size="10.00">+</text>
<text text-anchor="start" x="46" y="-82" font-family="Helvetica,sans-Serif" font-size="10.00">operator=()</text>
<text text-anchor="start" x="19.5" y="-67" font-family="Helvetica,sans-Serif" font-size="10.00">+</text>
<text text-anchor="start" x="46" y="-67" font-family="Helvetica,sans-Serif" font-size="10.00">operator=()</text>
<text text-anchor="start" x="19.5" y="-52" font-family="Helvetica,sans-Serif" font-size="10.00">+</text>
<text text-anchor="start" x="46" y="-52" font-family="Helvetica,sans-Serif" font-size="10.00">~MoveOnlyFunctionImpl()</text>
<text text-anchor="start" x="19.5" y="-37" font-family="Helvetica,sans-Serif" font-size="10.00">+</text>
<text text-anchor="start" x="46" y="-37" font-family="Helvetica,sans-Serif" font-size="10.00">operator()()</text>
<text text-anchor="start" x="19.5" y="-22" font-family="Helvetica,sans-Serif" font-size="10.00">+</text>
<text text-anchor="start" x="46" y="-22" font-family="Helvetica,sans-Serif" font-size="10.00">operator bool()</text>
<text text-anchor="start" x="19.5" y="-7" font-family="Helvetica,sans-Serif" font-size="10.00">+</text>
<text text-anchor="start" x="46" y="-7" font-family="Helvetica,sans-Serif" font-size="10.00">swap()</text>
<polygon fill="#666666" stroke="#666666" points="0,-197 0,-197 194,-197 194,-197 0,-197"/>
<polygon fill="#666666" stroke="#666666" points="0,-182 0,-182 194,-182 194,-182 0,-182"/>
<polygon fill="none" stroke="#666666" points="0,0 0,-258 194,-258 194,0 0,0"/>
</a>
</g>
</g>
<!-- Node2 -->
<g id="Node000002" class="node">
<title>Node2</title>
<g id="a_Node000002"><a xlink:href="classsen_1_1std__util_1_1detail_1_1_move_only_function_base.html" target="_top" xlink:title=" ">
<polygon fill="white" stroke="transparent" points="164.5,-474 29.5,-474 29.5,-294 164.5,-294 164.5,-474"/>
<text text-anchor="start" x="42" y="-462" font-family="Helvetica,sans-Serif" font-size="10.00">sen::std_util::detail</text>
<text text-anchor="start" x="42" y="-451" font-family="Helvetica,sans-Serif" font-size="10.00">::MoveOnlyFunctionBase</text>
<text text-anchor="start" x="95.5" y="-436" font-family="Helvetica,sans-Serif" font-size="10.00"> </text>
<text text-anchor="start" x="34" y="-421" font-family="Helvetica,sans-Serif" font-size="10.00">#</text>
<text text-anchor="start" x="44" y="-421" font-family="Helvetica,sans-Serif" font-size="10.00">MoveOnlyFunctionBase()</text>
<text text-anchor="start" x="34" y="-406" font-family="Helvetica,sans-Serif" font-size="10.00">#</text>
<text text-anchor="start" x="44" y="-406" font-family="Helvetica,sans-Serif" font-size="10.00">MoveOnlyFunctionBase()</text>
<text text-anchor="start" x="34" y="-391" font-family="Helvetica,sans-Serif" font-size="10.00">#</text>
<text text-anchor="start" x="44" y="-391" font-family="Helvetica,sans-Serif" font-size="10.00">initializeCallable()</text>
<text text-anchor="start" x="34" y="-376" font-family="Helvetica,sans-Serif" font-size="10.00">#</text>
<text text-anchor="start" x="44" y="-376" font-family="Helvetica,sans-Serif" font-size="10.00">operator=()</text>
<text text-anchor="start" x="34" y="-361" font-family="Helvetica,sans-Serif" font-size="10.00">#</text>
<text text-anchor="start" x="44" y="-361" font-family="Helvetica,sans-Serif" font-size="10.00">operator=()</text>
<text text-anchor="start" x="34" y="-346" font-family="Helvetica,sans-Serif" font-size="10.00">#</text>
<text text-anchor="start" x="44" y="-346" font-family="Helvetica,sans-Serif" font-size="10.00">~MoveOnlyFunctionBase()</text>
<text text-anchor="start" x="34" y="-331" font-family="Helvetica,sans-Serif" font-size="10.00">#</text>
<text text-anchor="start" x="44" y="-331" font-family="Helvetica,sans-Serif" font-size="10.00">swap()</text>
<text text-anchor="start" x="34" y="-316" font-family="Helvetica,sans-Serif" font-size="10.00">#</text>
<text text-anchor="start" x="44" y="-316" font-family="Helvetica,sans-Serif" font-size="10.00">isNothrowInit()</text>
<text text-anchor="start" x="34" y="-301" font-family="Helvetica,sans-Serif" font-size="10.00">#</text>
<text text-anchor="start" x="44" y="-301" font-family="Helvetica,sans-Serif" font-size="10.00">getCallableAs()</text>
<polygon fill="#666666" stroke="#666666" points="30,-446 30,-446 165,-446 165,-446 30,-446"/>
<polygon fill="#666666" stroke="#666666" points="30,-431 30,-431 165,-431 165,-431 30,-431"/>
<polygon fill="none" stroke="#666666" points="29.5,-294 29.5,-474 164.5,-474 164.5,-294 29.5,-294"/>
</a>
</g>
</g>
<!-- Node2&#45;&gt;Node1 -->
<g id="edge1_Node000001_Node000002" class="edge">
<title>Node2&#45;&gt;Node1</title>
<g id="a_edge1_Node000001_Node000002"><a xlink:title=" ">
<path fill="none" stroke="#8b1a1a" d="M97,-283.71C97,-275.35 97,-266.83 97,-258.3"/>
<polygon fill="none" stroke="#8b1a1a" points="93.5,-283.8 97,-293.8 100.5,-283.8 93.5,-283.8"/>
</a>
</g>
</g>
</g>
</svg>
