<?xml version="1.0" encoding="UTF-8" standalone="no"?>
<!DOCTYPE svg PUBLIC "-//W3C//DTD SVG 1.1//EN"
 "http://www.w3.org/Graphics/SVG/1.1/DTD/svg11.dtd">
<!-- Generated by graphviz version 2.43.0 (0)
 -->
<!-- Title: sen::InputStreamBase Pages: 1 -->
<svg width="150pt" height="468pt"
 viewBox="0.00 0.00 150.00 468.00" xmlns="http://www.w3.org/2000/svg" xmlns:xlink="http://www.w3.org/1999/xlink">
<g id="graph0" class="graph" transform="scale(1 1) rotate(0) translate(4 464)">
<title>sen::InputStreamBase</title>
<!-- Node1 -->
<g id="Node000001" class="node">
<title>Node1</title>
<g id="a_Node000001"><a xlink:title="Base class for input streams.">
<polygon fill="#999999" stroke="transparent" points="131.5,-460 10.5,-460 10.5,-306 131.5,-306 131.5,-460"/>
<text text-anchor="start" x="17.5" y="-448" font-family="Helvetica,sans-Serif" font-size="10.00">sen::InputStreamBase</text>
<text text-anchor="start" x="69.5" y="-433" font-family="Helvetica,sans-Serif" font-size="10.00"> </text>
<text text-anchor="start" x="15" y="-418" font-family="Helvetica,sans-Serif" font-size="10.00">+</text>
<text text-anchor="start" x="28" y="-418" font-family="Helvetica,sans-Serif" font-size="10.00">InputStreamBase()</text>
<text text-anchor="start" x="15" y="-403" font-family="Helvetica,sans-Serif" font-size="10.00">+</text>
<text text-anchor="start" x="28" y="-403" font-family="Helvetica,sans-Serif" font-size="10.00">~InputStreamBase()</text>
<text text-anchor="start" x="15" y="-388" font-family="Helvetica,sans-Serif" font-size="10.00">+</text>
<text text-anchor="start" x="28" y="-388" font-family="Helvetica,sans-Serif" font-size="10.00">advance()</text>
<text text-anchor="start" x="15" y="-373" font-family="Helvetica,sans-Serif" font-size="10.00">+</text>
<text text-anchor="start" x="28" y="-373" font-family="Helvetica,sans-Serif" font-size="10.00">tryAdvance()</text>
<text text-anchor="start" x="15" y="-358" font-family="Helvetica,sans-Serif" font-size="10.00">+</text>
<text text-anchor="start" x="28" y="-358" font-family="Helvetica,sans-Serif" font-size="10.00">atEnd()</text>
<text text-anchor="start" x="15" y="-343" font-family="Helvetica,sans-Serif" font-size="10.00">+</text>
<text text-anchor="start" x="28" y="-343" font-family="Helvetica,sans-Serif" font-size="10.00">getPosition()</text>
<text text-anchor="start" x="15" y="-328" font-family="Helvetica,sans-Serif" font-size="10.00">+</text>
<text text-anchor="start" x="28" y="-328" font-family="Helvetica,sans-Serif" font-size="10.00">setPosition()</text>
<text text-anchor="start" x="15" y="-313" font-family="Helvetica,sans-Serif" font-size="10.00">#</text>
<text text-anchor="start" x="28" y="-313" font-family="Helvetica,sans-Serif" font-size="10.00">reverse()</text>
<polygon fill="#666666" stroke="#666666" points="11,-443 11,-443 132,-443 132,-443 11,-443"/>
<polygon fill="#666666" stroke="#666666" points="11,-428 11,-428 132,-428 132,-428 11,-428"/>
<polygon fill="none" stroke="#666666" points="10.5,-306 10.5,-460 131.5,-460 131.5,-306 10.5,-306"/>
</a>
</g>
</g>
<!-- Node2 -->
<g id="Node000002" class="node">
<title>Node2</title>
<g id="a_Node000002"><a xlink:href="classsen_1_1_input_stream_template.html" target="_top" xlink:title="Binary input stream. Deserializes values. In general, I/O operations throw on failure.">
<polygon fill="white" stroke="transparent" points="142,-270 0,-270 0,0 142,0 142,-270"/>
<text text-anchor="start" x="6.5" y="-258" font-family="Helvetica,sans-Serif" font-size="10.00">sen::InputStreamTemplate</text>
<text text-anchor="start" x="28.5" y="-247" font-family="Helvetica,sans-Serif" font-size="10.00">&lt; BufferEndian &gt;</text>
<text text-anchor="start" x="69" y="-232" font-family="Helvetica,sans-Serif" font-size="10.00"> </text>
<text text-anchor="start" x="4" y="-217" font-family="Helvetica,sans-Serif" font-size="10.00">+</text>
<text text-anchor="start" x="17" y="-217" font-family="Helvetica,sans-Serif" font-size="10.00">~InputStreamTemplate()</text>
<text text-anchor="start" x="4" y="-202" font-family="Helvetica,sans-Serif" font-size="10.00">+</text>
<text text-anchor="start" x="17" y="-202" font-family="Helvetica,sans-Serif" font-size="10.00">readBool()</text>
<text text-anchor="start" x="4" y="-187" font-family="Helvetica,sans-Serif" font-size="10.00">+</text>
<text text-anchor="start" x="17" y="-187" font-family="Helvetica,sans-Serif" font-size="10.00">readInt8()</text>
<text text-anchor="start" x="4" y="-172" font-family="Helvetica,sans-Serif" font-size="10.00">+</text>
<text text-anchor="start" x="17" y="-172" font-family="Helvetica,sans-Serif" font-size="10.00">readUInt8()</text>
<text text-anchor="start" x="4" y="-157" font-family="Helvetica,sans-Serif" font-size="10.00">+</text>
<text text-anchor="start" x="17" y="-157" font-family="Helvetica,sans-Serif" font-size="10.00">readInt16()</text>
<text text-anchor="start" x="4" y="-142" font-family="Helvetica,sans-Serif" font-size="10.00">+</text>
<text text-anchor="start" x="17" y="-142" font-family="Helvetica,sans-Serif" font-size="10.00">readUInt16()</text>
<text text-anchor="start" x="4" y="-127" font-family="Helvetica,sans-Serif" font-size="10.00">+</text>
<text text-anchor="start" x="17" y="-127" font-family="Helvetica,sans-Serif" font-size="10.00">readInt32()</text>
<text text-anchor="start" x="4" y="-112" font-family="Helvetica,sans-Serif" font-size="10.00">+</text>
<text text-anchor="start" x="17" y="-112" font-family="Helvetica,sans-Serif" font-size="10.00">readUInt32()</text>
<text text-anchor="start" x="4" y="-97" font-family="Helvetica,sans-Serif" font-size="10.00">+</text>
<text text-anchor="start" x="17" y="-97" font-family="Helvetica,sans-Serif" font-size="10.00">readInt64()</text>
<text text-anchor="start" x="4" y="-82" font-family="Helvetica,sans-Serif" font-size="10.00">+</text>
<text text-anchor="start" x="17" y="-82" font-family="Helvetica,sans-Serif" font-size="10.00">readUInt64()</text>
<text text-anchor="start" x="4" y="-67" font-family="Helvetica,sans-Serif" font-size="10.00">+</text>
<text text-anchor="start" x="17" y="-67" font-family="Helvetica,sans-Serif" font-size="10.00">readFloat32()</text>
<text text-anchor="start" x="4" y="-52" font-family="Helvetica,sans-Serif" font-size="10.00">+</text>
<text text-anchor="start" x="17" y="-52" font-family="Helvetica,sans-Serif" font-size="10.00">readFloat64()</text>
<text text-anchor="start" x="4" y="-37" font-family="Helvetica,sans-Serif" font-size="10.00">+</text>
<text text-anchor="start" x="17" y="-37" font-family="Helvetica,sans-Serif" font-size="10.00">readString()</text>
<text text-anchor="start" x="4" y="-22" font-family="Helvetica,sans-Serif" font-size="10.00">+</text>
<text text-anchor="start" x="17" y="-22" font-family="Helvetica,sans-Serif" font-size="10.00">readTimeStamp()</text>
<text text-anchor="start" x="4" y="-7" font-family="Helvetica,sans-Serif" font-size="10.00">+</text>
<text text-anchor="start" x="17" y="-7" font-family="Helvetica,sans-Serif" font-size="10.00">InputStreamBase()</text>
<polygon fill="#666666" stroke="#666666" points="0,-242 0,-242 142,-242 142,-242 0,-242"/>
<polygon fill="#666666" stroke="#666666" points="0,-227 0,-227 142,-227 142,-227 0,-227"/>
<polygon fill="none" stroke="#666666" points="0,0 0,-270 142,-270 142,0 0,0"/>
</a>
</g>
</g>
<!-- Node1&#45;&gt;Node2 -->
<g id="edge1_Node000001_Node000002" class="edge">
<title>Node1&#45;&gt;Node2</title>
<g id="a_edge1_Node000001_Node000002"><a xlink:title=" ">
<path fill="none" stroke="#63b8ff" d="M71,-295.79C71,-287.43 71,-278.82 71,-270.14"/>
<polygon fill="none" stroke="#63b8ff" points="67.5,-295.85 71,-305.85 74.5,-295.85 67.5,-295.85"/>
</a>
</g>
</g>
</g>
</svg>
