<?xml version="1.0" encoding="UTF-8" standalone="no"?>
<!DOCTYPE svg PUBLIC "-//W3C//DTD SVG 1.1//EN"
 "http://www.w3.org/Graphics/SVG/1.1/DTD/svg11.dtd">
<!-- Generated by graphviz version 2.43.0 (0)
 -->
<!-- Title: sen::kernel::SessionsDiscoverer Pages: 1 -->
<svg width="336pt" height="322pt"
 viewBox="0.00 0.00 336.00 322.00" xmlns="http://www.w3.org/2000/svg" xmlns:xlink="http://www.w3.org/1999/xlink">
<g id="graph0" class="graph" transform="scale(1 1) rotate(0) translate(4 318)">
<title>sen::kernel::SessionsDiscoverer</title>
<!-- Node1 -->
<g id="Node000001" class="node">
<title>Node1</title>
<g id="a_Node000001"><a xlink:title=" ">
<polygon fill="#999999" stroke="transparent" points="233.5,-79 68.5,-79 68.5,0 233.5,0 233.5,-79"/>
<text text-anchor="start" x="74" y="-66.5" font-family="Helvetica,sans-Serif" font-size="10.00">sen::kernel::SessionsDiscoverer</text>
<text text-anchor="start" x="149.5" y="-51.5" font-family="Helvetica,sans-Serif" font-size="10.00"> </text>
<text text-anchor="start" x="76" y="-36.5" font-family="Helvetica,sans-Serif" font-size="10.00">+</text>
<text text-anchor="start" x="92" y="-36.5" font-family="Helvetica,sans-Serif" font-size="10.00">~SessionsDiscoverer()</text>
<text text-anchor="start" x="76" y="-21.5" font-family="Helvetica,sans-Serif" font-size="10.00">+</text>
<text text-anchor="start" x="92" y="-21.5" font-family="Helvetica,sans-Serif" font-size="10.00">makeSessionInfoProvider()</text>
<text text-anchor="start" x="76" y="-6.5" font-family="Helvetica,sans-Serif" font-size="10.00">#</text>
<text text-anchor="start" x="92" y="-6.5" font-family="Helvetica,sans-Serif" font-size="10.00">drainInputs()</text>
<polygon fill="#666666" stroke="#666666" points="69,-61.5 69,-61.5 234,-61.5 234,-61.5 69,-61.5"/>
<polygon fill="#666666" stroke="#666666" points="69,-46.5 69,-46.5 234,-46.5 234,-46.5 69,-46.5"/>
<polygon fill="none" stroke="#666666" points="68.5,0 68.5,-79 233.5,-79 233.5,0 68.5,0"/>
</a>
</g>
</g>
<!-- Node2 -->
<g id="Node000002" class="node">
<title>Node2</title>
<g id="a_Node000002"><a xlink:href="classsen_1_1kernel_1_1_source_info.html" target="_top" xlink:title="Provides information about sources as strings.">
<polygon fill="white" stroke="transparent" points="130,-314 0,-314 0,-115 130,-115 130,-314"/>
<text text-anchor="start" x="9" y="-301.5" font-family="Helvetica,sans-Serif" font-size="10.00">sen::kernel::SourceInfo</text>
<text text-anchor="start" x="63" y="-286.5" font-family="Helvetica,sans-Serif" font-size="10.00"> </text>
<text text-anchor="start" x="4" y="-271.5" font-family="Helvetica,sans-Serif" font-size="10.00">+</text>
<text text-anchor="start" x="17" y="-271.5" font-family="Helvetica,sans-Serif" font-size="10.00">~SourceInfo()</text>
<text text-anchor="start" x="4" y="-256.5" font-family="Helvetica,sans-Serif" font-size="10.00">+</text>
<text text-anchor="start" x="17" y="-256.5" font-family="Helvetica,sans-Serif" font-size="10.00">getName()</text>
<text text-anchor="start" x="4" y="-241.5" font-family="Helvetica,sans-Serif" font-size="10.00">+</text>
<text text-anchor="start" x="17" y="-241.5" font-family="Helvetica,sans-Serif" font-size="10.00">getDetectedSources()</text>
<text text-anchor="start" x="4" y="-226.5" font-family="Helvetica,sans-Serif" font-size="10.00">+</text>
<text text-anchor="start" x="17" y="-226.5" font-family="Helvetica,sans-Serif" font-size="10.00">onSourceDetected()</text>
<text text-anchor="start" x="4" y="-211.5" font-family="Helvetica,sans-Serif" font-size="10.00">+</text>
<text text-anchor="start" x="17" y="-211.5" font-family="Helvetica,sans-Serif" font-size="10.00">onSourceUndetected()</text>
<text text-anchor="start" x="4" y="-196.5" font-family="Helvetica,sans-Serif" font-size="10.00">#</text>
<text text-anchor="start" x="17" y="-196.5" font-family="Helvetica,sans-Serif" font-size="10.00">SourceInfo()</text>
<text text-anchor="start" x="4" y="-181.5" font-family="Helvetica,sans-Serif" font-size="10.00">#</text>
<text text-anchor="start" x="17" y="-181.5" font-family="Helvetica,sans-Serif" font-size="10.00">addSource()</text>
<text text-anchor="start" x="4" y="-166.5" font-family="Helvetica,sans-Serif" font-size="10.00">#</text>
<text text-anchor="start" x="17" y="-166.5" font-family="Helvetica,sans-Serif" font-size="10.00">removeSource()</text>
<text text-anchor="start" x="4" y="-151.5" font-family="Helvetica,sans-Serif" font-size="10.00">#</text>
<text text-anchor="start" x="17" y="-151.5" font-family="Helvetica,sans-Serif" font-size="10.00">drainInputs()</text>
<text text-anchor="start" x="4" y="-136.5" font-family="Helvetica,sans-Serif" font-size="10.00">#</text>
<text text-anchor="start" x="17" y="-136.5" font-family="Helvetica,sans-Serif" font-size="10.00">lock()</text>
<text text-anchor="start" x="4" y="-121.5" font-family="Helvetica,sans-Serif" font-size="10.00">#</text>
<text text-anchor="start" x="17" y="-121.5" font-family="Helvetica,sans-Serif" font-size="10.00">unlock()</text>
<polygon fill="#666666" stroke="#666666" points="0,-296.5 0,-296.5 130,-296.5 130,-296.5 0,-296.5"/>
<polygon fill="#666666" stroke="#666666" points="0,-281.5 0,-281.5 130,-281.5 130,-281.5 0,-281.5"/>
<polygon fill="none" stroke="#666666" points="0,-115 0,-314 130,-314 130,-115 0,-115"/>
</a>
</g>
</g>
<!-- Node2&#45;&gt;Node1 -->
<g id="edge1_Node000001_Node000002" class="edge">
<title>Node2&#45;&gt;Node1</title>
<g id="a_edge1_Node000001_Node000002"><a xlink:title=" ">
<path fill="none" stroke="#63b8ff" d="M118.54,-105.8C123.2,-96.43 127.68,-87.41 131.75,-79.23"/>
<polygon fill="none" stroke="#63b8ff" points="115.35,-104.36 114.03,-114.87 121.61,-107.47 115.35,-104.36"/>
</a>
</g>
</g>
<!-- Node3 -->
<g id="Node000003" class="node">
<title>Node3</title>
<g id="a_Node000003"><a xlink:title=" ">
<polygon fill="white" stroke="transparent" points="328,-244.5 148,-244.5 148,-184.5 328,-184.5 328,-244.5"/>
<text text-anchor="start" x="153" y="-232.5" font-family="Helvetica,sans-Serif" font-size="10.00">std::enable_shared</text>
<text text-anchor="start" x="153" y="-221.5" font-family="Helvetica,sans-Serif" font-size="10.00">_from_this&lt; SessionsDiscoverer &gt;</text>
<text text-anchor="start" x="236" y="-206.5" font-family="Helvetica,sans-Serif" font-size="10.00"> </text>
<text text-anchor="start" x="236" y="-191.5" font-family="Helvetica,sans-Serif" font-size="10.00"> </text>
<polygon fill="#666666" stroke="#666666" points="148,-216.5 148,-216.5 328,-216.5 328,-216.5 148,-216.5"/>
<polygon fill="#666666" stroke="#666666" points="148,-201.5 148,-201.5 328,-201.5 328,-201.5 148,-201.5"/>
<polygon fill="none" stroke="#666666" points="148,-184.5 148,-244.5 328,-244.5 328,-184.5 148,-184.5"/>
</a>
</g>
</g>
<!-- Node3&#45;&gt;Node1 -->
<g id="edge2_Node000001_Node000003" class="edge">
<title>Node3&#45;&gt;Node1</title>
<g id="a_edge2_Node000001_Node000003"><a xlink:title=" ">
<path fill="none" stroke="#63b8ff" d="M218.58,-174.89C204.23,-146.35 184.77,-107.66 170.42,-79.12"/>
<polygon fill="none" stroke="#63b8ff" points="215.62,-176.79 223.24,-184.15 221.88,-173.65 215.62,-176.79"/>
</a>
</g>
</g>
</g>
</svg>
