<?xml version="1.0" encoding="UTF-8" standalone="no"?>
<!DOCTYPE svg PUBLIC "-//W3C//DTD SVG 1.1//EN"
 "http://www.w3.org/Graphics/SVG/1.1/DTD/svg11.dtd">
<!-- Generated by graphviz version 2.43.0 (0)
 -->
<!-- Title: sen::kernel::ConfigGetter Pages: 1 -->
<svg width="879pt" height="367pt"
 viewBox="0.00 0.00 878.50 367.00" xmlns="http://www.w3.org/2000/svg" xmlns:xlink="http://www.w3.org/1999/xlink">
<g id="graph0" class="graph" transform="scale(1 1) rotate(0) translate(4 363)">
<title>sen::kernel::ConfigGetter</title>
<!-- Node1 -->
<g id="Node000001" class="node">
<title>Node1</title>
<g id="a_Node000001"><a xlink:title="Allows for fetching configuration parameters.">
<polygon fill="#999999" stroke="transparent" points="461,-359 330,-359 330,-295 461,-295 461,-359"/>
<text text-anchor="start" x="335.5" y="-347" font-family="Helvetica,sans-Serif" font-size="10.00">sen::kernel::ConfigGetter</text>
<text text-anchor="start" x="394" y="-332" font-family="Helvetica,sans-Serif" font-size="10.00"> </text>
<text text-anchor="start" x="344.5" y="-317" font-family="Helvetica,sans-Serif" font-size="10.00">+</text>
<text text-anchor="start" x="367.5" y="-317" font-family="Helvetica,sans-Serif" font-size="10.00">ConfigGetter()</text>
<text text-anchor="start" x="344.5" y="-302" font-family="Helvetica,sans-Serif" font-size="10.00">+</text>
<text text-anchor="start" x="367.5" y="-302" font-family="Helvetica,sans-Serif" font-size="10.00">getConfig()</text>
<polygon fill="#666666" stroke="#666666" points="330.5,-342 330.5,-342 461.5,-342 461.5,-342 330.5,-342"/>
<polygon fill="#666666" stroke="#666666" points="330.5,-327 330.5,-327 461.5,-327 461.5,-327 330.5,-327"/>
<polygon fill="none" stroke="#666666" points="330,-295 330,-359 461,-359 461,-295 330,-295"/>
</a>
</g>
</g>
<!-- Node2 -->
<g id="Node000002" class="node">
<title>Node2</title>
<g id="a_Node000002"><a xlink:href="classsen_1_1kernel_1_1_init_api.html" target="_top" xlink:title="What can be done when initializing a component.">
<polygon fill="white" stroke="transparent" points="101,-161.5 0,-161.5 0,-97.5 101,-97.5 101,-161.5"/>
<text text-anchor="start" x="5.5" y="-149.5" font-family="Helvetica,sans-Serif" font-size="10.00">sen::kernel::InitApi</text>
<text text-anchor="start" x="49" y="-134.5" font-family="Helvetica,sans-Serif" font-size="10.00"> </text>
<text text-anchor="start" x="12.5" y="-119.5" font-family="Helvetica,sans-Serif" font-size="10.00">+</text>
<text text-anchor="start" x="33.5" y="-119.5" font-family="Helvetica,sans-Serif" font-size="10.00">InitApi()</text>
<text text-anchor="start" x="12.5" y="-104.5" font-family="Helvetica,sans-Serif" font-size="10.00">+</text>
<text text-anchor="start" x="33.5" y="-104.5" font-family="Helvetica,sans-Serif" font-size="10.00">~InitApi()</text>
<polygon fill="#666666" stroke="#666666" points="0.5,-144.5 0.5,-144.5 101.5,-144.5 101.5,-144.5 0.5,-144.5"/>
<polygon fill="#666666" stroke="#666666" points="0.5,-129.5 0.5,-129.5 101.5,-129.5 101.5,-129.5 0.5,-129.5"/>
<polygon fill="none" stroke="#666666" points="0,-97.5 0,-161.5 101,-161.5 101,-97.5 0,-97.5"/>
</a>
</g>
</g>
<!-- Node1&#45;&gt;Node2 -->
<g id="edge1_Node000001_Node000002" class="edge">
<title>Node1&#45;&gt;Node2</title>
<g id="a_edge1_Node000001_Node000002"><a xlink:title=" ">
<path fill="none" stroke="#63b8ff" d="M319.61,-315.89C246.12,-304.77 141.27,-284.97 109.5,-259 79.37,-234.38 63.94,-190.99 56.55,-161.5"/>
<polygon fill="none" stroke="#63b8ff" points="319.36,-319.39 329.76,-317.4 320.39,-312.46 319.36,-319.39"/>
</a>
</g>
</g>
<!-- Node3 -->
<g id="Node000003" class="node">
<title>Node3</title>
<g id="a_Node000003"><a xlink:href="classsen_1_1kernel_1_1_load_api.html" target="_top" xlink:title="What can be done when loading a component.">
<polygon fill="white" stroke="transparent" points="228,-161.5 119,-161.5 119,-97.5 228,-97.5 228,-161.5"/>
<text text-anchor="start" x="124.5" y="-149.5" font-family="Helvetica,sans-Serif" font-size="10.00">sen::kernel::LoadApi</text>
<text text-anchor="start" x="172" y="-134.5" font-family="Helvetica,sans-Serif" font-size="10.00"> </text>
<text text-anchor="start" x="131.5" y="-119.5" font-family="Helvetica,sans-Serif" font-size="10.00">+</text>
<text text-anchor="start" x="152.5" y="-119.5" font-family="Helvetica,sans-Serif" font-size="10.00">LoadApi()</text>
<text text-anchor="start" x="131.5" y="-104.5" font-family="Helvetica,sans-Serif" font-size="10.00">+</text>
<text text-anchor="start" x="152.5" y="-104.5" font-family="Helvetica,sans-Serif" font-size="10.00">~LoadApi()</text>
<polygon fill="#666666" stroke="#666666" points="119.5,-144.5 119.5,-144.5 228.5,-144.5 228.5,-144.5 119.5,-144.5"/>
<polygon fill="#666666" stroke="#666666" points="119.5,-129.5 119.5,-129.5 228.5,-129.5 228.5,-129.5 119.5,-129.5"/>
<polygon fill="none" stroke="#666666" points="119,-97.5 119,-161.5 228,-161.5 228,-97.5 119,-97.5"/>
</a>
</g>
</g>
<!-- Node1&#45;&gt;Node3 -->
<g id="edge2_Node000001_Node000003" class="edge">
<title>Node1&#45;&gt;Node3</title>
<g id="a_edge2_Node000001_Node000003"><a xlink:title=" ">
<path fill="none" stroke="#63b8ff" d="M320.22,-306.67C291.35,-296.3 259.78,-280.99 236.5,-259 208.23,-232.3 190.98,-190.22 181.84,-161.55"/>
<polygon fill="none" stroke="#63b8ff" points="319.3,-310.06 329.89,-310 321.58,-303.44 319.3,-310.06"/>
</a>
</g>
</g>
<!-- Node4 -->
<g id="Node000004" class="node">
<title>Node4</title>
<g id="a_Node000004"><a xlink:href="classsen_1_1kernel_1_1_preload_api.html" target="_top" xlink:title="What can be done when preloading a component.">
<polygon fill="white" stroke="transparent" points="385,-176.5 246,-176.5 246,-82.5 385,-82.5 385,-176.5"/>
<text text-anchor="start" x="260" y="-164.5" font-family="Helvetica,sans-Serif" font-size="10.00">sen::kernel::PreloadApi</text>
<text text-anchor="start" x="314" y="-149.5" font-family="Helvetica,sans-Serif" font-size="10.00"> </text>
<text text-anchor="start" x="250.5" y="-134.5" font-family="Helvetica,sans-Serif" font-size="10.00">+</text>
<text text-anchor="start" x="263.5" y="-134.5" font-family="Helvetica,sans-Serif" font-size="10.00">PreloadApi()</text>
<text text-anchor="start" x="250.5" y="-119.5" font-family="Helvetica,sans-Serif" font-size="10.00">+</text>
<text text-anchor="start" x="263.5" y="-119.5" font-family="Helvetica,sans-Serif" font-size="10.00">~PreloadApi()</text>
<text text-anchor="start" x="250.5" y="-104.5" font-family="Helvetica,sans-Serif" font-size="10.00">+</text>
<text text-anchor="start" x="263.5" y="-104.5" font-family="Helvetica,sans-Serif" font-size="10.00">installTransportFactory()</text>
<text text-anchor="start" x="250.5" y="-89.5" font-family="Helvetica,sans-Serif" font-size="10.00">+</text>
<text text-anchor="start" x="263.5" y="-89.5" font-family="Helvetica,sans-Serif" font-size="10.00">installTracerFactory()</text>
<polygon fill="#666666" stroke="#666666" points="246.5,-159.5 246.5,-159.5 385.5,-159.5 385.5,-159.5 246.5,-159.5"/>
<polygon fill="#666666" stroke="#666666" points="246.5,-144.5 246.5,-144.5 385.5,-144.5 385.5,-144.5 246.5,-144.5"/>
<polygon fill="none" stroke="#666666" points="246,-82.5 246,-176.5 385,-176.5 385,-82.5 246,-82.5"/>
</a>
</g>
</g>
<!-- Node1&#45;&gt;Node4 -->
<g id="edge3_Node000001_Node000004" class="edge">
<title>Node1&#45;&gt;Node4</title>
<g id="a_edge3_Node000001_Node000004"><a xlink:title=" ">
<path fill="none" stroke="#63b8ff" d="M378.8,-285.19C365.86,-253.56 347.92,-209.72 334.44,-176.78"/>
<polygon fill="none" stroke="#63b8ff" points="375.62,-286.66 382.65,-294.59 382.1,-284.01 375.62,-286.66"/>
</a>
</g>
</g>
<!-- Node5 -->
<g id="Node000005" class="node">
<title>Node5</title>
<g id="a_Node000005"><a xlink:href="classsen_1_1kernel_1_1_registration_api.html" target="_top" xlink:title="API for objects when registered.">
<polygon fill="white" stroke="transparent" points="548,-161.5 403,-161.5 403,-97.5 548,-97.5 548,-161.5"/>
<text text-anchor="start" x="408.5" y="-149.5" font-family="Helvetica,sans-Serif" font-size="10.00">sen::kernel::RegistrationApi</text>
<text text-anchor="start" x="474" y="-134.5" font-family="Helvetica,sans-Serif" font-size="10.00"> </text>
<text text-anchor="start" x="415.5" y="-119.5" font-family="Helvetica,sans-Serif" font-size="10.00">+</text>
<text text-anchor="start" x="436.5" y="-119.5" font-family="Helvetica,sans-Serif" font-size="10.00">RegistrationApi()</text>
<text text-anchor="start" x="415.5" y="-104.5" font-family="Helvetica,sans-Serif" font-size="10.00">+</text>
<text text-anchor="start" x="436.5" y="-104.5" font-family="Helvetica,sans-Serif" font-size="10.00">~RegistrationApi()</text>
<polygon fill="#666666" stroke="#666666" points="403.5,-144.5 403.5,-144.5 548.5,-144.5 548.5,-144.5 403.5,-144.5"/>
<polygon fill="#666666" stroke="#666666" points="403.5,-129.5 403.5,-129.5 548.5,-129.5 548.5,-129.5 403.5,-129.5"/>
<polygon fill="none" stroke="#666666" points="403,-97.5 403,-161.5 548,-161.5 548,-97.5 403,-97.5"/>
</a>
</g>
</g>
<!-- Node1&#45;&gt;Node5 -->
<g id="edge4_Node000001_Node000005" class="edge">
<title>Node1&#45;&gt;Node5</title>
<g id="a_edge4_Node000001_Node000005"><a xlink:title=" ">
<path fill="none" stroke="#63b8ff" d="M412.22,-285.14C427.29,-248.3 449.13,-194.94 462.81,-161.51"/>
<polygon fill="none" stroke="#63b8ff" points="408.9,-284.01 408.35,-294.59 415.38,-286.66 408.9,-284.01"/>
</a>
</g>
</g>
<!-- Node6 -->
<g id="Node000006" class="node">
<title>Node6</title>
<g id="a_Node000006"><a xlink:href="classsen_1_1kernel_1_1_run_api.html" target="_top" xlink:title="What can be done while a component is running.">
<polygon fill="white" stroke="transparent" points="732.5,-259 566.5,-259 566.5,0 732.5,0 732.5,-259"/>
<text text-anchor="start" x="602.5" y="-246.5" font-family="Helvetica,sans-Serif" font-size="10.00">sen::kernel::RunApi</text>
<text text-anchor="start" x="647.5" y="-231.5" font-family="Helvetica,sans-Serif" font-size="10.00"> </text>
<text text-anchor="start" x="570.5" y="-216.5" font-family="Helvetica,sans-Serif" font-size="10.00">+</text>
<text text-anchor="start" x="583.5" y="-216.5" font-family="Helvetica,sans-Serif" font-size="10.00">RunApi()</text>
<text text-anchor="start" x="570.5" y="-201.5" font-family="Helvetica,sans-Serif" font-size="10.00">+</text>
<text text-anchor="start" x="583.5" y="-201.5" font-family="Helvetica,sans-Serif" font-size="10.00">~RunApi()</text>
<text text-anchor="start" x="570.5" y="-186.5" font-family="Helvetica,sans-Serif" font-size="10.00">+</text>
<text text-anchor="start" x="583.5" y="-186.5" font-family="Helvetica,sans-Serif" font-size="10.00">stopRequested()</text>
<text text-anchor="start" x="570.5" y="-171.5" font-family="Helvetica,sans-Serif" font-size="10.00">+</text>
<text text-anchor="start" x="583.5" y="-171.5" font-family="Helvetica,sans-Serif" font-size="10.00">drainInputs()</text>
<text text-anchor="start" x="570.5" y="-156.5" font-family="Helvetica,sans-Serif" font-size="10.00">+</text>
<text text-anchor="start" x="583.5" y="-156.5" font-family="Helvetica,sans-Serif" font-size="10.00">update()</text>
<text text-anchor="start" x="570.5" y="-141.5" font-family="Helvetica,sans-Serif" font-size="10.00">+</text>
<text text-anchor="start" x="583.5" y="-141.5" font-family="Helvetica,sans-Serif" font-size="10.00">commit()</text>
<text text-anchor="start" x="570.5" y="-126.5" font-family="Helvetica,sans-Serif" font-size="10.00">+</text>
<text text-anchor="start" x="583.5" y="-126.5" font-family="Helvetica,sans-Serif" font-size="10.00">execLoop()</text>
<text text-anchor="start" x="570.5" y="-111.5" font-family="Helvetica,sans-Serif" font-size="10.00">+</text>
<text text-anchor="start" x="583.5" y="-111.5" font-family="Helvetica,sans-Serif" font-size="10.00">getStartTime()</text>
<text text-anchor="start" x="570.5" y="-96.5" font-family="Helvetica,sans-Serif" font-size="10.00">+</text>
<text text-anchor="start" x="583.5" y="-96.5" font-family="Helvetica,sans-Serif" font-size="10.00">getTime()</text>
<text text-anchor="start" x="570.5" y="-81.5" font-family="Helvetica,sans-Serif" font-size="10.00">+</text>
<text text-anchor="start" x="583.5" y="-81.5" font-family="Helvetica,sans-Serif" font-size="10.00">getTargetCycleTime()</text>
<text text-anchor="start" x="570.5" y="-66.5" font-family="Helvetica,sans-Serif" font-size="10.00">+</text>
<text text-anchor="start" x="583.5" y="-66.5" font-family="Helvetica,sans-Serif" font-size="10.00">fetchMonitoringInfo()</text>
<text text-anchor="start" x="570.5" y="-51.5" font-family="Helvetica,sans-Serif" font-size="10.00">+</text>
<text text-anchor="start" x="583.5" y="-51.5" font-family="Helvetica,sans-Serif" font-size="10.00">getImportedPackages()</text>
<text text-anchor="start" x="570.5" y="-36.5" font-family="Helvetica,sans-Serif" font-size="10.00">+</text>
<text text-anchor="start" x="583.5" y="-36.5" font-family="Helvetica,sans-Serif" font-size="10.00">getLoadedComponents()</text>
<text text-anchor="start" x="570.5" y="-21.5" font-family="Helvetica,sans-Serif" font-size="10.00">+</text>
<text text-anchor="start" x="583.5" y="-21.5" font-family="Helvetica,sans-Serif" font-size="10.00">getTransportProtocolVersion()</text>
<text text-anchor="start" x="570.5" y="-6.5" font-family="Helvetica,sans-Serif" font-size="10.00">+</text>
<text text-anchor="start" x="583.5" y="-6.5" font-family="Helvetica,sans-Serif" font-size="10.00">getTracer()</text>
<polygon fill="#666666" stroke="#666666" points="566.5,-241.5 566.5,-241.5 732.5,-241.5 732.5,-241.5 566.5,-241.5"/>
<polygon fill="#666666" stroke="#666666" points="566.5,-226.5 566.5,-226.5 732.5,-226.5 732.5,-226.5 566.5,-226.5"/>
<polygon fill="none" stroke="#666666" points="566.5,0 566.5,-259 732.5,-259 732.5,0 566.5,0"/>
</a>
</g>
</g>
<!-- Node1&#45;&gt;Node6 -->
<g id="edge5_Node000001_Node000006" class="edge">
<title>Node1&#45;&gt;Node6</title>
<g id="a_edge5_Node000001_Node000006"><a xlink:title=" ">
<path fill="none" stroke="#63b8ff" d="M470.77,-304.74C499.83,-294.12 532.12,-279.14 557.5,-259 560.51,-256.61 563.46,-254.1 566.36,-251.49"/>
<polygon fill="none" stroke="#63b8ff" points="469.31,-301.55 461.05,-308.18 471.65,-308.14 469.31,-301.55"/>
</a>
</g>
</g>
<!-- Node7 -->
<g id="Node000007" class="node">
<title>Node7</title>
<g id="a_Node000007"><a xlink:href="classsen_1_1kernel_1_1_unload_api.html" target="_top" xlink:title="What can be done when unloading a component.">
<polygon fill="white" stroke="transparent" points="870.5,-161.5 750.5,-161.5 750.5,-97.5 870.5,-97.5 870.5,-161.5"/>
<text text-anchor="start" x="755.5" y="-149.5" font-family="Helvetica,sans-Serif" font-size="10.00">sen::kernel::UnloadApi</text>
<text text-anchor="start" x="808.5" y="-134.5" font-family="Helvetica,sans-Serif" font-size="10.00"> </text>
<text text-anchor="start" x="762.5" y="-119.5" font-family="Helvetica,sans-Serif" font-size="10.00">+</text>
<text text-anchor="start" x="783.5" y="-119.5" font-family="Helvetica,sans-Serif" font-size="10.00">UnloadApi()</text>
<text text-anchor="start" x="762.5" y="-104.5" font-family="Helvetica,sans-Serif" font-size="10.00">+</text>
<text text-anchor="start" x="783.5" y="-104.5" font-family="Helvetica,sans-Serif" font-size="10.00">~UnloadApi()</text>
<polygon fill="#666666" stroke="#666666" points="750.5,-144.5 750.5,-144.5 870.5,-144.5 870.5,-144.5 750.5,-144.5"/>
<polygon fill="#666666" stroke="#666666" points="750.5,-129.5 750.5,-129.5 870.5,-129.5 870.5,-129.5 750.5,-129.5"/>
<polygon fill="none" stroke="#666666" points="750.5,-97.5 750.5,-161.5 870.5,-161.5 870.5,-97.5 750.5,-97.5"/>
</a>
</g>
</g>
<!-- Node1&#45;&gt;Node7 -->
<g id="edge6_Node000001_Node000007" class="edge">
<title>Node1&#45;&gt;Node7</title>
<g id="a_edge6_Node000001_Node000007"><a xlink:title=" ">
<path fill="none" stroke="#63b8ff" d="M471.18,-318.95C559.68,-309.42 699.45,-289.96 741.5,-259 773.92,-235.13 792.69,-191.34 802.25,-161.58"/>
<polygon fill="none" stroke="#63b8ff" points="470.76,-315.47 461.18,-320.01 471.5,-322.44 470.76,-315.47"/>
</a>
</g>
</g>
</g>
</svg>
