<?xml version="1.0" encoding="UTF-8" standalone="no"?>
<!DOCTYPE svg PUBLIC "-//W3C//DTD SVG 1.1//EN"
 "http://www.w3.org/Graphics/SVG/1.1/DTD/svg11.dtd">
<!-- Generated by graphviz version 2.43.0 (0)
 -->
<!-- Title: sen::NativeType Pages: 1 -->
<svg width="216pt" height="612pt"
 viewBox="0.00 0.00 216.00 612.00" xmlns="http://www.w3.org/2000/svg" xmlns:xlink="http://www.w3.org/1999/xlink">
<g id="graph0" class="graph" transform="scale(1 1) rotate(0) translate(4 608)">
<title>sen::NativeType</title>
<!-- Node1 -->
<g id="Node000001" class="node">
<title>Node1</title>
<g id="a_Node000001"><a xlink:title="Represents a native (built&#45;in) type that can be created on the stack or sent in a message.">
<polygon fill="#999999" stroke="transparent" points="150.5,-384 58.5,-384 58.5,-320 150.5,-320 150.5,-384"/>
<text text-anchor="start" x="65" y="-372" font-family="Helvetica,sans-Serif" font-size="10.00">sen::NativeType</text>
<text text-anchor="start" x="102.5" y="-357" font-family="Helvetica,sans-Serif" font-size="10.00"> </text>
<text text-anchor="start" x="62.5" y="-342" font-family="Helvetica,sans-Serif" font-size="10.00">#</text>
<text text-anchor="start" x="75.5" y="-342" font-family="Helvetica,sans-Serif" font-size="10.00">NativeType()</text>
<text text-anchor="start" x="62.5" y="-327" font-family="Helvetica,sans-Serif" font-size="10.00">#</text>
<text text-anchor="start" x="75.5" y="-327" font-family="Helvetica,sans-Serif" font-size="10.00">~NativeType()</text>
<polygon fill="#666666" stroke="#666666" points="58.5,-367 58.5,-367 150.5,-367 150.5,-367 58.5,-367"/>
<polygon fill="#666666" stroke="#666666" points="58.5,-352 58.5,-352 150.5,-352 150.5,-352 58.5,-352"/>
<polygon fill="none" stroke="#666666" points="58.5,-320 58.5,-384 150.5,-384 150.5,-320 58.5,-320"/>
</a>
</g>
</g>
<!-- Node3 -->
<g id="Node000003" class="node">
<title>Node3</title>
<g id="a_Node000003"><a xlink:href="classsen_1_1_numeric_type.html" target="_top" xlink:title="Represents a numeric native type.">
<polygon fill="white" stroke="transparent" points="155,-284 54,-284 54,-145 155,-145 155,-284"/>
<text text-anchor="start" x="61" y="-271.5" font-family="Helvetica,sans-Serif" font-size="10.00">sen::NumericType</text>
<text text-anchor="start" x="103" y="-256.5" font-family="Helvetica,sans-Serif" font-size="10.00"> </text>
<text text-anchor="start" x="58.5" y="-241.5" font-family="Helvetica,sans-Serif" font-size="10.00">+</text>
<text text-anchor="start" x="71.5" y="-241.5" font-family="Helvetica,sans-Serif" font-size="10.00">isSigned()</text>
<text text-anchor="start" x="58.5" y="-226.5" font-family="Helvetica,sans-Serif" font-size="10.00">+</text>
<text text-anchor="start" x="71.5" y="-226.5" font-family="Helvetica,sans-Serif" font-size="10.00">hasInfinity()</text>
<text text-anchor="start" x="58.5" y="-211.5" font-family="Helvetica,sans-Serif" font-size="10.00">+</text>
<text text-anchor="start" x="71.5" y="-211.5" font-family="Helvetica,sans-Serif" font-size="10.00">isIEC559()</text>
<text text-anchor="start" x="58.5" y="-196.5" font-family="Helvetica,sans-Serif" font-size="10.00">+</text>
<text text-anchor="start" x="71.5" y="-196.5" font-family="Helvetica,sans-Serif" font-size="10.00">getByteSize()</text>
<text text-anchor="start" x="58.5" y="-181.5" font-family="Helvetica,sans-Serif" font-size="10.00">+</text>
<text text-anchor="start" x="71.5" y="-181.5" font-family="Helvetica,sans-Serif" font-size="10.00">isBounded()</text>
<text text-anchor="start" x="58.5" y="-166.5" font-family="Helvetica,sans-Serif" font-size="10.00">#</text>
<text text-anchor="start" x="71.5" y="-166.5" font-family="Helvetica,sans-Serif" font-size="10.00">NumericType()</text>
<text text-anchor="start" x="58.5" y="-151.5" font-family="Helvetica,sans-Serif" font-size="10.00">#</text>
<text text-anchor="start" x="71.5" y="-151.5" font-family="Helvetica,sans-Serif" font-size="10.00">~NumericType()</text>
<polygon fill="#666666" stroke="#666666" points="54.5,-266.5 54.5,-266.5 155.5,-266.5 155.5,-266.5 54.5,-266.5"/>
<polygon fill="#666666" stroke="#666666" points="54.5,-251.5 54.5,-251.5 155.5,-251.5 155.5,-251.5 54.5,-251.5"/>
<polygon fill="none" stroke="#666666" points="54,-145 54,-284 155,-284 155,-145 54,-145"/>
</a>
</g>
</g>
<!-- Node1&#45;&gt;Node3 -->
<g id="edge2_Node000001_Node000003" class="edge">
<title>Node1&#45;&gt;Node3</title>
<g id="a_edge2_Node000001_Node000003"><a xlink:title=" ">
<path fill="none" stroke="#63b8ff" d="M104.5,-309.69C104.5,-301.62 104.5,-292.95 104.5,-284.26"/>
<polygon fill="none" stroke="#63b8ff" points="101,-309.91 104.5,-319.91 108,-309.91 101,-309.91"/>
</a>
</g>
</g>
<!-- Node2 -->
<g id="Node000002" class="node">
<title>Node2</title>
<g id="a_Node000002"><a xlink:href="classsen_1_1_type.html" target="_top" xlink:title="Represents a type that can be used to define variables and arguments for methods or functions....">
<polygon fill="white" stroke="transparent" points="180,-604 29,-604 29,-420 180,-420 180,-604"/>
<text text-anchor="start" x="82" y="-592" font-family="Helvetica,sans-Serif" font-size="10.00">sen::Type</text>
<text text-anchor="start" x="103" y="-577" font-family="Helvetica,sans-Serif" font-size="10.00"> </text>
<text text-anchor="start" x="33.5" y="-562" font-family="Helvetica,sans-Serif" font-size="10.00">+</text>
<text text-anchor="start" x="46.5" y="-562" font-family="Helvetica,sans-Serif" font-size="10.00">~Type()</text>
<text text-anchor="start" x="33.5" y="-547" font-family="Helvetica,sans-Serif" font-size="10.00">+</text>
<text text-anchor="start" x="46.5" y="-547" font-family="Helvetica,sans-Serif" font-size="10.00">getName()</text>
<text text-anchor="start" x="33.5" y="-532" font-family="Helvetica,sans-Serif" font-size="10.00">+</text>
<text text-anchor="start" x="46.5" y="-532" font-family="Helvetica,sans-Serif" font-size="10.00">getDescription()</text>
<text text-anchor="start" x="33.5" y="-517" font-family="Helvetica,sans-Serif" font-size="10.00">+</text>
<text text-anchor="start" x="46.5" y="-517" font-family="Helvetica,sans-Serif" font-size="10.00">accept()</text>
<text text-anchor="start" x="33.5" y="-502" font-family="Helvetica,sans-Serif" font-size="10.00">+</text>
<text text-anchor="start" x="46.5" y="-502" font-family="Helvetica,sans-Serif" font-size="10.00">isBounded()</text>
<text text-anchor="start" x="33.5" y="-487" font-family="Helvetica,sans-Serif" font-size="10.00">+</text>
<text text-anchor="start" x="46.5" y="-487" font-family="Helvetica,sans-Serif" font-size="10.00">getHash()</text>
<text text-anchor="start" x="33.5" y="-472" font-family="Helvetica,sans-Serif" font-size="10.00">+</text>
<text text-anchor="start" x="46.5" y="-472" font-family="Helvetica,sans-Serif" font-size="10.00">equals()</text>
<text text-anchor="start" x="33.5" y="-457" font-family="Helvetica,sans-Serif" font-size="10.00">+</text>
<text text-anchor="start" x="46.5" y="-457" font-family="Helvetica,sans-Serif" font-size="10.00">validateLowerCaseName()</text>
<text text-anchor="start" x="33.5" y="-442" font-family="Helvetica,sans-Serif" font-size="10.00">+</text>
<text text-anchor="start" x="46.5" y="-442" font-family="Helvetica,sans-Serif" font-size="10.00">validateTypeName()</text>
<text text-anchor="start" x="33.5" y="-427" font-family="Helvetica,sans-Serif" font-size="10.00">#</text>
<text text-anchor="start" x="46.5" y="-427" font-family="Helvetica,sans-Serif" font-size="10.00">Type()</text>
<polygon fill="#666666" stroke="#666666" points="29.5,-587 29.5,-587 180.5,-587 180.5,-587 29.5,-587"/>
<polygon fill="#666666" stroke="#666666" points="29.5,-572 29.5,-572 180.5,-572 180.5,-572 29.5,-572"/>
<polygon fill="none" stroke="#666666" points="29,-420 29,-604 180,-604 180,-420 29,-420"/>
</a>
</g>
</g>
<!-- Node2&#45;&gt;Node1 -->
<g id="edge1_Node000001_Node000002" class="edge">
<title>Node2&#45;&gt;Node1</title>
<g id="a_edge1_Node000001_Node000002"><a xlink:title=" ">
<path fill="none" stroke="#63b8ff" d="M104.5,-409.26C104.5,-400.29 104.5,-391.74 104.5,-384.14"/>
<polygon fill="none" stroke="#63b8ff" points="101,-409.55 104.5,-419.55 108,-409.55 101,-409.55"/>
</a>
</g>
</g>
<!-- Node4 -->
<g id="Node000004" class="node">
<title>Node4</title>
<g id="a_Node000004"><a xlink:href="classsen_1_1_integral_type.html" target="_top" xlink:title="Represents an integral numeric type.">
<polygon fill="white" stroke="transparent" points="97,-86.5 0,-86.5 0,-22.5 97,-22.5 97,-86.5"/>
<text text-anchor="start" x="7" y="-74.5" font-family="Helvetica,sans-Serif" font-size="10.00">sen::IntegralType</text>
<text text-anchor="start" x="47" y="-59.5" font-family="Helvetica,sans-Serif" font-size="10.00"> </text>
<text text-anchor="start" x="4.5" y="-44.5" font-family="Helvetica,sans-Serif" font-size="10.00">+</text>
<text text-anchor="start" x="17.5" y="-44.5" font-family="Helvetica,sans-Serif" font-size="10.00">IntegralType()</text>
<text text-anchor="start" x="4.5" y="-29.5" font-family="Helvetica,sans-Serif" font-size="10.00">+</text>
<text text-anchor="start" x="17.5" y="-29.5" font-family="Helvetica,sans-Serif" font-size="10.00">~IntegralType()</text>
<polygon fill="#666666" stroke="#666666" points="0.5,-69.5 0.5,-69.5 97.5,-69.5 97.5,-69.5 0.5,-69.5"/>
<polygon fill="#666666" stroke="#666666" points="0.5,-54.5 0.5,-54.5 97.5,-54.5 97.5,-54.5 0.5,-54.5"/>
<polygon fill="none" stroke="#666666" points="0,-22.5 0,-86.5 97,-86.5 97,-22.5 0,-22.5"/>
</a>
</g>
</g>
<!-- Node3&#45;&gt;Node4 -->
<g id="edge3_Node000003_Node000004" class="edge">
<title>Node3&#45;&gt;Node4</title>
<g id="a_edge3_Node000003_Node000004"><a xlink:title=" ">
<path fill="none" stroke="#63b8ff" d="M76.71,-135.1C70.6,-117.85 64.47,-100.57 59.5,-86.53"/>
<polygon fill="none" stroke="#63b8ff" points="73.46,-136.4 80.1,-144.66 80.06,-134.06 73.46,-136.4"/>
</a>
</g>
</g>
<!-- Node5 -->
<g id="Node000005" class="node">
<title>Node5</title>
<g id="a_Node000005"><a xlink:href="classsen_1_1_real_type.html" target="_top" xlink:title="Represents a floating point numeric type.">
<polygon fill="white" stroke="transparent" points="208,-109 115,-109 115,0 208,0 208,-109"/>
<text text-anchor="start" x="128" y="-96.5" font-family="Helvetica,sans-Serif" font-size="10.00">sen::RealType</text>
<text text-anchor="start" x="160" y="-81.5" font-family="Helvetica,sans-Serif" font-size="10.00"> </text>
<text text-anchor="start" x="119.5" y="-66.5" font-family="Helvetica,sans-Serif" font-size="10.00">+</text>
<text text-anchor="start" x="132.5" y="-66.5" font-family="Helvetica,sans-Serif" font-size="10.00">RealType()</text>
<text text-anchor="start" x="119.5" y="-51.5" font-family="Helvetica,sans-Serif" font-size="10.00">+</text>
<text text-anchor="start" x="132.5" y="-51.5" font-family="Helvetica,sans-Serif" font-size="10.00">~RealType()</text>
<text text-anchor="start" x="119.5" y="-36.5" font-family="Helvetica,sans-Serif" font-size="10.00">+</text>
<text text-anchor="start" x="132.5" y="-36.5" font-family="Helvetica,sans-Serif" font-size="10.00">getMaxValue()</text>
<text text-anchor="start" x="119.5" y="-21.5" font-family="Helvetica,sans-Serif" font-size="10.00">+</text>
<text text-anchor="start" x="132.5" y="-21.5" font-family="Helvetica,sans-Serif" font-size="10.00">getMinValue()</text>
<text text-anchor="start" x="119.5" y="-6.5" font-family="Helvetica,sans-Serif" font-size="10.00">+</text>
<text text-anchor="start" x="132.5" y="-6.5" font-family="Helvetica,sans-Serif" font-size="10.00">getEpsilon()</text>
<polygon fill="#666666" stroke="#666666" points="115.5,-91.5 115.5,-91.5 208.5,-91.5 208.5,-91.5 115.5,-91.5"/>
<polygon fill="#666666" stroke="#666666" points="115.5,-76.5 115.5,-76.5 208.5,-76.5 208.5,-76.5 115.5,-76.5"/>
<polygon fill="none" stroke="#666666" points="115,0 115,-109 208,-109 208,0 115,0"/>
</a>
</g>
</g>
<!-- Node3&#45;&gt;Node5 -->
<g id="edge4_Node000003_Node000005" class="edge">
<title>Node3&#45;&gt;Node5</title>
<g id="a_edge4_Node000003_Node000005"><a xlink:title=" ">
<path fill="none" stroke="#63b8ff" d="M132.75,-135.2C135.9,-126.47 139.05,-117.72 142.06,-109.39"/>
<polygon fill="none" stroke="#63b8ff" points="129.44,-134.06 129.34,-144.66 136.02,-136.44 129.44,-134.06"/>
</a>
</g>
</g>
</g>
</svg>
