<?xml version="1.0" encoding="UTF-8" standalone="no"?>
<!DOCTYPE svg PUBLIC "-//W3C//DTD SVG 1.1//EN"
 "http://www.w3.org/Graphics/SVG/1.1/DTD/svg11.dtd">
<!-- Generated by graphviz version 2.43.0 (0)
 -->
<!-- Title: sen::kernel::SourceInfo Pages: 1 -->
<svg width="326pt" height="322pt"
 viewBox="0.00 0.00 325.50 322.00" xmlns="http://www.w3.org/2000/svg" xmlns:xlink="http://www.w3.org/1999/xlink">
<g id="graph0" class="graph" transform="scale(1 1) rotate(0) translate(4 318)">
<title>sen::kernel::SourceInfo</title>
<!-- Node1 -->
<g id="Node000001" class="node">
<title>Node1</title>
<g id="a_Node000001"><a xlink:title="Provides information about sources as strings.">
<polygon fill="#999999" stroke="transparent" points="216,-314 86,-314 86,-115 216,-115 216,-314"/>
<text text-anchor="start" x="95" y="-301.5" font-family="Helvetica,sans-Serif" font-size="10.00">sen::kernel::SourceInfo</text>
<text text-anchor="start" x="149" y="-286.5" font-family="Helvetica,sans-Serif" font-size="10.00"> </text>
<text text-anchor="start" x="90" y="-271.5" font-family="Helvetica,sans-Serif" font-size="10.00">+</text>
<text text-anchor="start" x="103" y="-271.5" font-family="Helvetica,sans-Serif" font-size="10.00">~SourceInfo()</text>
<text text-anchor="start" x="90" y="-256.5" font-family="Helvetica,sans-Serif" font-size="10.00">+</text>
<text text-anchor="start" x="103" y="-256.5" font-family="Helvetica,sans-Serif" font-size="10.00">getName()</text>
<text text-anchor="start" x="90" y="-241.5" font-family="Helvetica,sans-Serif" font-size="10.00">+</text>
<text text-anchor="start" x="103" y="-241.5" font-family="Helvetica,sans-Serif" font-size="10.00">getDetectedSources()</text>
<text text-anchor="start" x="90" y="-226.5" font-family="Helvetica,sans-Serif" font-size="10.00">+</text>
<text text-anchor="start" x="103" y="-226.5" font-family="Helvetica,sans-Serif" font-size="10.00">onSourceDetected()</text>
<text text-anchor="start" x="90" y="-211.5" font-family="Helvetica,sans-Serif" font-size="10.00">+</text>
<text text-anchor="start" x="103" y="-211.5" font-family="Helvetica,sans-Serif" font-size="10.00">onSourceUndetected()</text>
<text text-anchor="start" x="90" y="-196.5" font-family="Helvetica,sans-Serif" font-size="10.00">#</text>
<text text-anchor="start" x="103" y="-196.5" font-family="Helvetica,sans-Serif" font-size="10.00">SourceInfo()</text>
<text text-anchor="start" x="90" y="-181.5" font-family="Helvetica,sans-Serif" font-size="10.00">#</text>
<text text-anchor="start" x="103" y="-181.5" font-family="Helvetica,sans-Serif" font-size="10.00">addSource()</text>
<text text-anchor="start" x="90" y="-166.5" font-family="Helvetica,sans-Serif" font-size="10.00">#</text>
<text text-anchor="start" x="103" y="-166.5" font-family="Helvetica,sans-Serif" font-size="10.00">removeSource()</text>
<text text-anchor="start" x="90" y="-151.5" font-family="Helvetica,sans-Serif" font-size="10.00">#</text>
<text text-anchor="start" x="103" y="-151.5" font-family="Helvetica,sans-Serif" font-size="10.00">drainInputs()</text>
<text text-anchor="start" x="90" y="-136.5" font-family="Helvetica,sans-Serif" font-size="10.00">#</text>
<text text-anchor="start" x="103" y="-136.5" font-family="Helvetica,sans-Serif" font-size="10.00">lock()</text>
<text text-anchor="start" x="90" y="-121.5" font-family="Helvetica,sans-Serif" font-size="10.00">#</text>
<text text-anchor="start" x="103" y="-121.5" font-family="Helvetica,sans-Serif" font-size="10.00">unlock()</text>
<polygon fill="#666666" stroke="#666666" points="86,-296.5 86,-296.5 216,-296.5 216,-296.5 86,-296.5"/>
<polygon fill="#666666" stroke="#666666" points="86,-281.5 86,-281.5 216,-281.5 216,-281.5 86,-281.5"/>
<polygon fill="none" stroke="#666666" points="86,-115 86,-314 216,-314 216,-115 86,-115"/>
</a>
</g>
</g>
<!-- Node2 -->
<g id="Node000002" class="node">
<title>Node2</title>
<g id="a_Node000002"><a xlink:href="classsen_1_1kernel_1_1_session_info_provider.html" target="_top" xlink:title=" ">
<polygon fill="white" stroke="transparent" points="134,-77 0,-77 0,-2 134,-2 134,-77"/>
<text text-anchor="start" x="9" y="-64.5" font-family="Helvetica,sans-Serif" font-size="10.00">sen::kernel::SessionInfo</text>
<text text-anchor="start" x="46.5" y="-53.5" font-family="Helvetica,sans-Serif" font-size="10.00">Provider</text>
<text text-anchor="start" x="65" y="-38.5" font-family="Helvetica,sans-Serif" font-size="10.00"> </text>
<text text-anchor="start" x="4" y="-23.5" font-family="Helvetica,sans-Serif" font-size="10.00">+</text>
<text text-anchor="start" x="17" y="-23.5" font-family="Helvetica,sans-Serif" font-size="10.00">SessionInfoProvider()</text>
<text text-anchor="start" x="4" y="-8.5" font-family="Helvetica,sans-Serif" font-size="10.00">+</text>
<text text-anchor="start" x="17" y="-8.5" font-family="Helvetica,sans-Serif" font-size="10.00">~SessionInfoProvider()</text>
<polygon fill="#666666" stroke="#666666" points="0,-48.5 0,-48.5 134,-48.5 134,-48.5 0,-48.5"/>
<polygon fill="#666666" stroke="#666666" points="0,-33.5 0,-33.5 134,-33.5 134,-33.5 0,-33.5"/>
<polygon fill="none" stroke="#666666" points="0,-2 0,-77 134,-77 134,-2 0,-2"/>
</a>
</g>
</g>
<!-- Node1&#45;&gt;Node2 -->
<g id="edge1_Node000001_Node000002" class="edge">
<title>Node1&#45;&gt;Node2</title>
<g id="a_edge1_Node000001_Node000002"><a xlink:title=" ">
<path fill="none" stroke="#63b8ff" d="M98.74,-105.87C93.82,-95.73 89.09,-86 84.87,-77.29"/>
<polygon fill="none" stroke="#63b8ff" points="95.59,-107.4 103.11,-114.87 101.89,-104.35 95.59,-107.4"/>
</a>
</g>
</g>
<!-- Node3 -->
<g id="Node000003" class="node">
<title>Node3</title>
<g id="a_Node000003"><a xlink:href="classsen_1_1kernel_1_1_sessions_discoverer.html" target="_top" xlink:title=" ">
<polygon fill="white" stroke="transparent" points="317.5,-79 152.5,-79 152.5,0 317.5,0 317.5,-79"/>
<text text-anchor="start" x="158" y="-66.5" font-family="Helvetica,sans-Serif" font-size="10.00">sen::kernel::SessionsDiscoverer</text>
<text text-anchor="start" x="233.5" y="-51.5" font-family="Helvetica,sans-Serif" font-size="10.00"> </text>
<text text-anchor="start" x="160" y="-36.5" font-family="Helvetica,sans-Serif" font-size="10.00">+</text>
<text text-anchor="start" x="176" y="-36.5" font-family="Helvetica,sans-Serif" font-size="10.00">~SessionsDiscoverer()</text>
<text text-anchor="start" x="160" y="-21.5" font-family="Helvetica,sans-Serif" font-size="10.00">+</text>
<text text-anchor="start" x="176" y="-21.5" font-family="Helvetica,sans-Serif" font-size="10.00">makeSessionInfoProvider()</text>
<text text-anchor="start" x="160" y="-6.5" font-family="Helvetica,sans-Serif" font-size="10.00">#</text>
<text text-anchor="start" x="176" y="-6.5" font-family="Helvetica,sans-Serif" font-size="10.00">drainInputs()</text>
<polygon fill="#666666" stroke="#666666" points="153,-61.5 153,-61.5 318,-61.5 318,-61.5 153,-61.5"/>
<polygon fill="#666666" stroke="#666666" points="153,-46.5 153,-46.5 318,-46.5 318,-46.5 153,-46.5"/>
<polygon fill="none" stroke="#666666" points="152.5,0 152.5,-79 317.5,-79 317.5,0 152.5,0"/>
</a>
</g>
</g>
<!-- Node1&#45;&gt;Node3 -->
<g id="edge2_Node000001_Node000003" class="edge">
<title>Node1&#45;&gt;Node3</title>
<g id="a_edge2_Node000001_Node000003"><a xlink:title=" ">
<path fill="none" stroke="#63b8ff" d="M203.3,-105.8C207.84,-96.43 212.22,-87.41 216.19,-79.23"/>
<polygon fill="none" stroke="#63b8ff" points="200.11,-104.35 198.89,-114.87 206.41,-107.4 200.11,-104.35"/>
</a>
</g>
</g>
</g>
</svg>
