<?xml version="1.0" encoding="UTF-8" standalone="no"?>
<!DOCTYPE svg PUBLIC "-//W3C//DTD SVG 1.1//EN"
 "http://www.w3.org/Graphics/SVG/1.1/DTD/svg11.dtd">
<!-- Generated by graphviz version 2.43.0 (0)
 -->
<!-- Title: sen::ObjectProvider Pages: 1 -->
<svg width="201pt" height="826pt"
 viewBox="0.00 0.00 201.00 826.00" xmlns="http://www.w3.org/2000/svg" xmlns:xlink="http://www.w3.org/1999/xlink">
<g id="graph0" class="graph" transform="scale(1 1) rotate(0) translate(4 822)">
<title>sen::ObjectProvider</title>
<!-- Node1 -->
<g id="Node000001" class="node">
<title>Node1</title>
<g id="a_Node000001"><a xlink:title="Base class for an entity that is able to produce objects.">
<polygon fill="#999999" stroke="transparent" points="193,-722 0,-722 0,-437 193,-437 193,-722"/>
<text text-anchor="start" x="49" y="-709.5" font-family="Helvetica,sans-Serif" font-size="10.00">sen::ObjectProvider</text>
<text text-anchor="start" x="95" y="-694.5" font-family="Helvetica,sans-Serif" font-size="10.00"> </text>
<text text-anchor="start" x="4.5" y="-679.5" font-family="Helvetica,sans-Serif" font-size="10.00">+</text>
<text text-anchor="start" x="17.5" y="-679.5" font-family="Helvetica,sans-Serif" font-size="10.00">ObjectProvider()</text>
<text text-anchor="start" x="4.5" y="-664.5" font-family="Helvetica,sans-Serif" font-size="10.00">+</text>
<text text-anchor="start" x="17.5" y="-664.5" font-family="Helvetica,sans-Serif" font-size="10.00">~ObjectProvider()</text>
<text text-anchor="start" x="4.5" y="-649.5" font-family="Helvetica,sans-Serif" font-size="10.00">+</text>
<text text-anchor="start" x="17.5" y="-649.5" font-family="Helvetica,sans-Serif" font-size="10.00">addListener()</text>
<text text-anchor="start" x="4.5" y="-634.5" font-family="Helvetica,sans-Serif" font-size="10.00">+</text>
<text text-anchor="start" x="17.5" y="-634.5" font-family="Helvetica,sans-Serif" font-size="10.00">removeListener()</text>
<text text-anchor="start" x="4.5" y="-619.5" font-family="Helvetica,sans-Serif" font-size="10.00">+</text>
<text text-anchor="start" x="17.5" y="-619.5" font-family="Helvetica,sans-Serif" font-size="10.00">hasListener()</text>
<text text-anchor="start" x="4.5" y="-604.5" font-family="Helvetica,sans-Serif" font-size="10.00">+</text>
<text text-anchor="start" x="17.5" y="-604.5" font-family="Helvetica,sans-Serif" font-size="10.00">hasListeners()</text>
<text text-anchor="start" x="4.5" y="-589.5" font-family="Helvetica,sans-Serif" font-size="10.00">#</text>
<text text-anchor="start" x="17.5" y="-589.5" font-family="Helvetica,sans-Serif" font-size="10.00">notifyObjectsAdded()</text>
<text text-anchor="start" x="4.5" y="-574.5" font-family="Helvetica,sans-Serif" font-size="10.00">#</text>
<text text-anchor="start" x="17.5" y="-574.5" font-family="Helvetica,sans-Serif" font-size="10.00">notifyObjectsRemoved()</text>
<text text-anchor="start" x="4.5" y="-559.5" font-family="Helvetica,sans-Serif" font-size="10.00">#</text>
<text text-anchor="start" x="17.5" y="-559.5" font-family="Helvetica,sans-Serif" font-size="10.00">listenerAdded()</text>
<text text-anchor="start" x="4.5" y="-544.5" font-family="Helvetica,sans-Serif" font-size="10.00">#</text>
<text text-anchor="start" x="17.5" y="-544.5" font-family="Helvetica,sans-Serif" font-size="10.00">listenerRemoved()</text>
<text text-anchor="start" x="4.5" y="-529.5" font-family="Helvetica,sans-Serif" font-size="10.00">#</text>
<text text-anchor="start" x="17.5" y="-529.5" font-family="Helvetica,sans-Serif" font-size="10.00">notifyAddedOnExistingObjects()</text>
<text text-anchor="start" x="4.5" y="-514.5" font-family="Helvetica,sans-Serif" font-size="10.00">#</text>
<text text-anchor="start" x="17.5" y="-514.5" font-family="Helvetica,sans-Serif" font-size="10.00">notifyRemovedOnExistingObjects()</text>
<text text-anchor="start" x="4.5" y="-499.5" font-family="Helvetica,sans-Serif" font-size="10.00">#</text>
<text text-anchor="start" x="17.5" y="-499.5" font-family="Helvetica,sans-Serif" font-size="10.00">notifyRemovedOnExistingObjects</text>
<text text-anchor="start" x="17.5" y="-488.5" font-family="Helvetica,sans-Serif" font-size="10.00">ForAllListeners()</text>
<text text-anchor="start" x="4.5" y="-473.5" font-family="Helvetica,sans-Serif" font-size="10.00">#</text>
<text text-anchor="start" x="17.5" y="-473.5" font-family="Helvetica,sans-Serif" font-size="10.00">callOnObjectsAdded()</text>
<text text-anchor="start" x="4.5" y="-458.5" font-family="Helvetica,sans-Serif" font-size="10.00">#</text>
<text text-anchor="start" x="17.5" y="-458.5" font-family="Helvetica,sans-Serif" font-size="10.00">callOnObjectsRemoved()</text>
<text text-anchor="start" x="4.5" y="-443.5" font-family="Helvetica,sans-Serif" font-size="10.00">#</text>
<text text-anchor="start" x="17.5" y="-443.5" font-family="Helvetica,sans-Serif" font-size="10.00">getListeners()</text>
<polygon fill="#666666" stroke="#666666" points="0.5,-704.5 0.5,-704.5 193.5,-704.5 193.5,-704.5 0.5,-704.5"/>
<polygon fill="#666666" stroke="#666666" points="0.5,-689.5 0.5,-689.5 193.5,-689.5 193.5,-689.5 0.5,-689.5"/>
<polygon fill="none" stroke="#666666" points="0,-437 0,-722 193,-722 193,-437 0,-437"/>
</a>
</g>
</g>
<!-- Node3 -->
<g id="Node000003" class="node">
<title>Node3</title>
<g id="a_Node000003"><a xlink:href="classsen_1_1_object_mux.html" target="_top" xlink:title="Converts multiple object providers into one. Providers might reside in different threads....">
<polygon fill="white" stroke="transparent" points="193,-401 0,-401 0,0 193,0 193,-401"/>
<text text-anchor="start" x="59" y="-388.5" font-family="Helvetica,sans-Serif" font-size="10.00">sen::ObjectMux</text>
<text text-anchor="start" x="95" y="-373.5" font-family="Helvetica,sans-Serif" font-size="10.00"> </text>
<text text-anchor="start" x="4.5" y="-358.5" font-family="Helvetica,sans-Serif" font-size="10.00">+</text>
<text text-anchor="start" x="17.5" y="-358.5" font-family="Helvetica,sans-Serif" font-size="10.00">ObjectMux()</text>
<text text-anchor="start" x="4.5" y="-343.5" font-family="Helvetica,sans-Serif" font-size="10.00">+</text>
<text text-anchor="start" x="17.5" y="-343.5" font-family="Helvetica,sans-Serif" font-size="10.00">~ObjectMux()</text>
<text text-anchor="start" x="4.5" y="-328.5" font-family="Helvetica,sans-Serif" font-size="10.00">+</text>
<text text-anchor="start" x="17.5" y="-328.5" font-family="Helvetica,sans-Serif" font-size="10.00">addListener()</text>
<text text-anchor="start" x="4.5" y="-313.5" font-family="Helvetica,sans-Serif" font-size="10.00">+</text>
<text text-anchor="start" x="17.5" y="-313.5" font-family="Helvetica,sans-Serif" font-size="10.00">removeListener()</text>
<text text-anchor="start" x="4.5" y="-298.5" font-family="Helvetica,sans-Serif" font-size="10.00">+</text>
<text text-anchor="start" x="17.5" y="-298.5" font-family="Helvetica,sans-Serif" font-size="10.00">hasListener()</text>
<text text-anchor="start" x="4.5" y="-283.5" font-family="Helvetica,sans-Serif" font-size="10.00">+</text>
<text text-anchor="start" x="17.5" y="-283.5" font-family="Helvetica,sans-Serif" font-size="10.00">hasListeners()</text>
<text text-anchor="start" x="4.5" y="-268.5" font-family="Helvetica,sans-Serif" font-size="10.00">+</text>
<text text-anchor="start" x="17.5" y="-268.5" font-family="Helvetica,sans-Serif" font-size="10.00">addMuxedListener()</text>
<text text-anchor="start" x="4.5" y="-253.5" font-family="Helvetica,sans-Serif" font-size="10.00">+</text>
<text text-anchor="start" x="17.5" y="-253.5" font-family="Helvetica,sans-Serif" font-size="10.00">removeMuxedListener()</text>
<text text-anchor="start" x="4.5" y="-238.5" font-family="Helvetica,sans-Serif" font-size="10.00">+</text>
<text text-anchor="start" x="17.5" y="-238.5" font-family="Helvetica,sans-Serif" font-size="10.00">hasMuxedListener()</text>
<text text-anchor="start" x="4.5" y="-223.5" font-family="Helvetica,sans-Serif" font-size="10.00">#</text>
<text text-anchor="start" x="17.5" y="-223.5" font-family="Helvetica,sans-Serif" font-size="10.00">notifyAddedOnExistingObjects()</text>
<text text-anchor="start" x="4.5" y="-208.5" font-family="Helvetica,sans-Serif" font-size="10.00">#</text>
<text text-anchor="start" x="17.5" y="-208.5" font-family="Helvetica,sans-Serif" font-size="10.00">notifyRemovedOnExistingObjects()</text>
<text text-anchor="start" x="4.5" y="-193.5" font-family="Helvetica,sans-Serif" font-size="10.00">#</text>
<text text-anchor="start" x="17.5" y="-193.5" font-family="Helvetica,sans-Serif" font-size="10.00">notifyObjectsAdded()</text>
<text text-anchor="start" x="4.5" y="-178.5" font-family="Helvetica,sans-Serif" font-size="10.00">#</text>
<text text-anchor="start" x="17.5" y="-178.5" font-family="Helvetica,sans-Serif" font-size="10.00">notifyObjectsRemoved()</text>
<text text-anchor="start" x="4.5" y="-163.5" font-family="Helvetica,sans-Serif" font-size="10.00">#</text>
<text text-anchor="start" x="17.5" y="-163.5" font-family="Helvetica,sans-Serif" font-size="10.00">notifyMuxedAddedOnExisting</text>
<text text-anchor="start" x="17.5" y="-152.5" font-family="Helvetica,sans-Serif" font-size="10.00">Objects()</text>
<text text-anchor="start" x="4.5" y="-137.5" font-family="Helvetica,sans-Serif" font-size="10.00">#</text>
<text text-anchor="start" x="17.5" y="-137.5" font-family="Helvetica,sans-Serif" font-size="10.00">notifyMuxedRemovedOnExisting</text>
<text text-anchor="start" x="17.5" y="-126.5" font-family="Helvetica,sans-Serif" font-size="10.00">Objects()</text>
<text text-anchor="start" x="4.5" y="-111.5" font-family="Helvetica,sans-Serif" font-size="10.00">#</text>
<text text-anchor="start" x="17.5" y="-111.5" font-family="Helvetica,sans-Serif" font-size="10.00">notifyExistingObjectsReadded()</text>
<text text-anchor="start" x="4.5" y="-96.5" font-family="Helvetica,sans-Serif" font-size="10.00">#</text>
<text text-anchor="start" x="17.5" y="-96.5" font-family="Helvetica,sans-Serif" font-size="10.00">notifyObjectsRefCountReduced()</text>
<text text-anchor="start" x="4.5" y="-81.5" font-family="Helvetica,sans-Serif" font-size="10.00">#</text>
<text text-anchor="start" x="17.5" y="-81.5" font-family="Helvetica,sans-Serif" font-size="10.00">muxedListenerAdded()</text>
<text text-anchor="start" x="4.5" y="-66.5" font-family="Helvetica,sans-Serif" font-size="10.00">#</text>
<text text-anchor="start" x="17.5" y="-66.5" font-family="Helvetica,sans-Serif" font-size="10.00">muxedListenerRemoved()</text>
<text text-anchor="start" x="4.5" y="-51.5" font-family="Helvetica,sans-Serif" font-size="10.00">#</text>
<text text-anchor="start" x="17.5" y="-51.5" font-family="Helvetica,sans-Serif" font-size="10.00">callOnExistingObjectsReadded()</text>
<text text-anchor="start" x="4.5" y="-36.5" font-family="Helvetica,sans-Serif" font-size="10.00">#</text>
<text text-anchor="start" x="17.5" y="-36.5" font-family="Helvetica,sans-Serif" font-size="10.00">callOnObjectsRefCountReduced()</text>
<text text-anchor="start" x="4.5" y="-21.5" font-family="Helvetica,sans-Serif" font-size="10.00">#</text>
<text text-anchor="start" x="17.5" y="-21.5" font-family="Helvetica,sans-Serif" font-size="10.00">onObjectsAdded()</text>
<text text-anchor="start" x="4.5" y="-6.5" font-family="Helvetica,sans-Serif" font-size="10.00">#</text>
<text text-anchor="start" x="17.5" y="-6.5" font-family="Helvetica,sans-Serif" font-size="10.00">onObjectsRemoved()</text>
<polygon fill="#666666" stroke="#666666" points="0.5,-383.5 0.5,-383.5 193.5,-383.5 193.5,-383.5 0.5,-383.5"/>
<polygon fill="#666666" stroke="#666666" points="0.5,-368.5 0.5,-368.5 193.5,-368.5 193.5,-368.5 0.5,-368.5"/>
<polygon fill="none" stroke="#666666" points="0,0 0,-401 193,-401 193,0 0,0"/>
</a>
</g>
</g>
<!-- Node1&#45;&gt;Node3 -->
<g id="edge2_Node000001_Node000003" class="edge">
<title>Node1&#45;&gt;Node3</title>
<g id="a_edge2_Node000001_Node000003"><a xlink:title=" ">
<path fill="none" stroke="#63b8ff" d="M96.5,-426.58C96.5,-418.17 96.5,-409.66 96.5,-401.12"/>
<polygon fill="none" stroke="#63b8ff" points="93,-426.78 96.5,-436.78 100,-426.78 93,-426.78"/>
</a>
</g>
</g>
<!-- Node2 -->
<g id="Node000002" class="node">
<title>Node2</title>
<g id="a_Node000002"><a xlink:title=" ">
<polygon fill="white" stroke="transparent" points="175,-818 18,-818 18,-758 175,-758 175,-818"/>
<text text-anchor="start" x="23.5" y="-806" font-family="Helvetica,sans-Serif" font-size="10.00">std::enable_shared</text>
<text text-anchor="start" x="23.5" y="-795" font-family="Helvetica,sans-Serif" font-size="10.00">_from_this&lt; ObjectProvider &gt;</text>
<text text-anchor="start" x="95" y="-780" font-family="Helvetica,sans-Serif" font-size="10.00"> </text>
<text text-anchor="start" x="95" y="-765" font-family="Helvetica,sans-Serif" font-size="10.00"> </text>
<polygon fill="#666666" stroke="#666666" points="18.5,-790 18.5,-790 175.5,-790 175.5,-790 18.5,-790"/>
<polygon fill="#666666" stroke="#666666" points="18.5,-775 18.5,-775 175.5,-775 175.5,-775 18.5,-775"/>
<polygon fill="none" stroke="#666666" points="18,-758 18,-818 175,-818 175,-758 18,-758"/>
</a>
</g>
</g>
<!-- Node2&#45;&gt;Node1 -->
<g id="edge1_Node000001_Node000002" class="edge">
<title>Node2&#45;&gt;Node1</title>
<g id="a_edge1_Node000001_Node000002"><a xlink:title=" ">
<path fill="none" stroke="#63b8ff" d="M96.5,-747.69C96.5,-739.85 96.5,-731.2 96.5,-722.08"/>
<polygon fill="none" stroke="#63b8ff" points="93,-747.85 96.5,-757.85 100,-747.85 93,-747.85"/>
</a>
</g>
</g>
</g>
</svg>
