<?xml version="1.0" encoding="UTF-8" standalone="no"?>
<!DOCTYPE svg PUBLIC "-//W3C//DTD SVG 1.1//EN"
 "http://www.w3.org/Graphics/SVG/1.1/DTD/svg11.dtd">
<!-- Generated by graphviz version 2.43.0 (0)
 -->
<!-- Title: sen::IntegralType Pages: 1 -->
<svg width="159pt" height="567pt"
 viewBox="0.00 0.00 159.00 567.00" xmlns="http://www.w3.org/2000/svg" xmlns:xlink="http://www.w3.org/1999/xlink">
<g id="graph0" class="graph" transform="scale(1 1) rotate(0) translate(4 563)">
<title>sen::IntegralType</title>
<!-- Node1 -->
<g id="Node000001" class="node">
<title>Node1</title>
<g id="a_Node000001"><a xlink:title="Represents an integral numeric type.">
<polygon fill="#999999" stroke="transparent" points="124,-64 27,-64 27,0 124,0 124,-64"/>
<text text-anchor="start" x="34" y="-52" font-family="Helvetica,sans-Serif" font-size="10.00">sen::IntegralType</text>
<text text-anchor="start" x="74" y="-37" font-family="Helvetica,sans-Serif" font-size="10.00"> </text>
<text text-anchor="start" x="31.5" y="-22" font-family="Helvetica,sans-Serif" font-size="10.00">+</text>
<text text-anchor="start" x="44.5" y="-22" font-family="Helvetica,sans-Serif" font-size="10.00">IntegralType()</text>
<text text-anchor="start" x="31.5" y="-7" font-family="Helvetica,sans-Serif" font-size="10.00">+</text>
<text text-anchor="start" x="44.5" y="-7" font-family="Helvetica,sans-Serif" font-size="10.00">~IntegralType()</text>
<polygon fill="#666666" stroke="#666666" points="27.5,-47 27.5,-47 124.5,-47 124.5,-47 27.5,-47"/>
<polygon fill="#666666" stroke="#666666" points="27.5,-32 27.5,-32 124.5,-32 124.5,-32 27.5,-32"/>
<polygon fill="none" stroke="#666666" points="27,0 27,-64 124,-64 124,0 27,0"/>
</a>
</g>
</g>
<!-- Node2 -->
<g id="Node000002" class="node">
<title>Node2</title>
<g id="a_Node000002"><a xlink:href="classsen_1_1_numeric_type.html" target="_top" xlink:title="Represents a numeric native type.">
<polygon fill="white" stroke="transparent" points="126,-239 25,-239 25,-100 126,-100 126,-239"/>
<text text-anchor="start" x="32" y="-226.5" font-family="Helvetica,sans-Serif" font-size="10.00">sen::NumericType</text>
<text text-anchor="start" x="74" y="-211.5" font-family="Helvetica,sans-Serif" font-size="10.00"> </text>
<text text-anchor="start" x="29.5" y="-196.5" font-family="Helvetica,sans-Serif" font-size="10.00">+</text>
<text text-anchor="start" x="42.5" y="-196.5" font-family="Helvetica,sans-Serif" font-size="10.00">isSigned()</text>
<text text-anchor="start" x="29.5" y="-181.5" font-family="Helvetica,sans-Serif" font-size="10.00">+</text>
<text text-anchor="start" x="42.5" y="-181.5" font-family="Helvetica,sans-Serif" font-size="10.00">hasInfinity()</text>
<text text-anchor="start" x="29.5" y="-166.5" font-family="Helvetica,sans-Serif" font-size="10.00">+</text>
<text text-anchor="start" x="42.5" y="-166.5" font-family="Helvetica,sans-Serif" font-size="10.00">isIEC559()</text>
<text text-anchor="start" x="29.5" y="-151.5" font-family="Helvetica,sans-Serif" font-size="10.00">+</text>
<text text-anchor="start" x="42.5" y="-151.5" font-family="Helvetica,sans-Serif" font-size="10.00">getByteSize()</text>
<text text-anchor="start" x="29.5" y="-136.5" font-family="Helvetica,sans-Serif" font-size="10.00">+</text>
<text text-anchor="start" x="42.5" y="-136.5" font-family="Helvetica,sans-Serif" font-size="10.00">isBounded()</text>
<text text-anchor="start" x="29.5" y="-121.5" font-family="Helvetica,sans-Serif" font-size="10.00">#</text>
<text text-anchor="start" x="42.5" y="-121.5" font-family="Helvetica,sans-Serif" font-size="10.00">NumericType()</text>
<text text-anchor="start" x="29.5" y="-106.5" font-family="Helvetica,sans-Serif" font-size="10.00">#</text>
<text text-anchor="start" x="42.5" y="-106.5" font-family="Helvetica,sans-Serif" font-size="10.00">~NumericType()</text>
<polygon fill="#666666" stroke="#666666" points="25.5,-221.5 25.5,-221.5 126.5,-221.5 126.5,-221.5 25.5,-221.5"/>
<polygon fill="#666666" stroke="#666666" points="25.5,-206.5 25.5,-206.5 126.5,-206.5 126.5,-206.5 25.5,-206.5"/>
<polygon fill="none" stroke="#666666" points="25,-100 25,-239 126,-239 126,-100 25,-100"/>
</a>
</g>
</g>
<!-- Node2&#45;&gt;Node1 -->
<g id="edge1_Node000001_Node000002" class="edge">
<title>Node2&#45;&gt;Node1</title>
<g id="a_edge1_Node000001_Node000002"><a xlink:title=" ">
<path fill="none" stroke="#63b8ff" d="M75.5,-89.95C75.5,-80.8 75.5,-71.92 75.5,-64"/>
<polygon fill="none" stroke="#63b8ff" points="72,-89.96 75.5,-99.96 79,-89.96 72,-89.96"/>
</a>
</g>
</g>
<!-- Node3 -->
<g id="Node000003" class="node">
<title>Node3</title>
<g id="a_Node000003"><a xlink:href="classsen_1_1_native_type.html" target="_top" xlink:title="Represents a native (built&#45;in) type that can be created on the stack or sent in a message.">
<polygon fill="white" stroke="transparent" points="121.5,-339 29.5,-339 29.5,-275 121.5,-275 121.5,-339"/>
<text text-anchor="start" x="36" y="-327" font-family="Helvetica,sans-Serif" font-size="10.00">sen::NativeType</text>
<text text-anchor="start" x="73.5" y="-312" font-family="Helvetica,sans-Serif" font-size="10.00"> </text>
<text text-anchor="start" x="33.5" y="-297" font-family="Helvetica,sans-Serif" font-size="10.00">#</text>
<text text-anchor="start" x="46.5" y="-297" font-family="Helvetica,sans-Serif" font-size="10.00">NativeType()</text>
<text text-anchor="start" x="33.5" y="-282" font-family="Helvetica,sans-Serif" font-size="10.00">#</text>
<text text-anchor="start" x="46.5" y="-282" font-family="Helvetica,sans-Serif" font-size="10.00">~NativeType()</text>
<polygon fill="#666666" stroke="#666666" points="29.5,-322 29.5,-322 121.5,-322 121.5,-322 29.5,-322"/>
<polygon fill="#666666" stroke="#666666" points="29.5,-307 29.5,-307 121.5,-307 121.5,-307 29.5,-307"/>
<polygon fill="none" stroke="#666666" points="29.5,-275 29.5,-339 121.5,-339 121.5,-275 29.5,-275"/>
</a>
</g>
</g>
<!-- Node3&#45;&gt;Node2 -->
<g id="edge2_Node000002_Node000003" class="edge">
<title>Node3&#45;&gt;Node2</title>
<g id="a_edge2_Node000002_Node000003"><a xlink:title=" ">
<path fill="none" stroke="#63b8ff" d="M75.5,-264.69C75.5,-256.62 75.5,-247.95 75.5,-239.26"/>
<polygon fill="none" stroke="#63b8ff" points="72,-264.91 75.5,-274.91 79,-264.91 72,-264.91"/>
</a>
</g>
</g>
<!-- Node4 -->
<g id="Node000004" class="node">
<title>Node4</title>
<g id="a_Node000004"><a xlink:href="classsen_1_1_type.html" target="_top" xlink:title="Represents a type that can be used to define variables and arguments for methods or functions....">
<polygon fill="white" stroke="transparent" points="151,-559 0,-559 0,-375 151,-375 151,-559"/>
<text text-anchor="start" x="53" y="-547" font-family="Helvetica,sans-Serif" font-size="10.00">sen::Type</text>
<text text-anchor="start" x="74" y="-532" font-family="Helvetica,sans-Serif" font-size="10.00"> </text>
<text text-anchor="start" x="4.5" y="-517" font-family="Helvetica,sans-Serif" font-size="10.00">+</text>
<text text-anchor="start" x="17.5" y="-517" font-family="Helvetica,sans-Serif" font-size="10.00">~Type()</text>
<text text-anchor="start" x="4.5" y="-502" font-family="Helvetica,sans-Serif" font-size="10.00">+</text>
<text text-anchor="start" x="17.5" y="-502" font-family="Helvetica,sans-Serif" font-size="10.00">getName()</text>
<text text-anchor="start" x="4.5" y="-487" font-family="Helvetica,sans-Serif" font-size="10.00">+</text>
<text text-anchor="start" x="17.5" y="-487" font-family="Helvetica,sans-Serif" font-size="10.00">getDescription()</text>
<text text-anchor="start" x="4.5" y="-472" font-family="Helvetica,sans-Serif" font-size="10.00">+</text>
<text text-anchor="start" x="17.5" y="-472" font-family="Helvetica,sans-Serif" font-size="10.00">accept()</text>
<text text-anchor="start" x="4.5" y="-457" font-family="Helvetica,sans-Serif" font-size="10.00">+</text>
<text text-anchor="start" x="17.5" y="-457" font-family="Helvetica,sans-Serif" font-size="10.00">isBounded()</text>
<text text-anchor="start" x="4.5" y="-442" font-family="Helvetica,sans-Serif" font-size="10.00">+</text>
<text text-anchor="start" x="17.5" y="-442" font-family="Helvetica,sans-Serif" font-size="10.00">getHash()</text>
<text text-anchor="start" x="4.5" y="-427" font-family="Helvetica,sans-Serif" font-size="10.00">+</text>
<text text-anchor="start" x="17.5" y="-427" font-family="Helvetica,sans-Serif" font-size="10.00">equals()</text>
<text text-anchor="start" x="4.5" y="-412" font-family="Helvetica,sans-Serif" font-size="10.00">+</text>
<text text-anchor="start" x="17.5" y="-412" font-family="Helvetica,sans-Serif" font-size="10.00">validateLowerCaseName()</text>
<text text-anchor="start" x="4.5" y="-397" font-family="Helvetica,sans-Serif" font-size="10.00">+</text>
<text text-anchor="start" x="17.5" y="-397" font-family="Helvetica,sans-Serif" font-size="10.00">validateTypeName()</text>
<text text-anchor="start" x="4.5" y="-382" font-family="Helvetica,sans-Serif" font-size="10.00">#</text>
<text text-anchor="start" x="17.5" y="-382" font-family="Helvetica,sans-Serif" font-size="10.00">Type()</text>
<polygon fill="#666666" stroke="#666666" points="0.5,-542 0.5,-542 151.5,-542 151.5,-542 0.5,-542"/>
<polygon fill="#666666" stroke="#666666" points="0.5,-527 0.5,-527 151.5,-527 151.5,-527 0.5,-527"/>
<polygon fill="none" stroke="#666666" points="0,-375 0,-559 151,-559 151,-375 0,-375"/>
</a>
</g>
</g>
<!-- Node4&#45;&gt;Node3 -->
<g id="edge3_Node000003_Node000004" class="edge">
<title>Node4&#45;&gt;Node3</title>
<g id="a_edge3_Node000003_Node000004"><a xlink:title=" ">
<path fill="none" stroke="#63b8ff" d="M75.5,-364.26C75.5,-355.29 75.5,-346.74 75.5,-339.14"/>
<polygon fill="none" stroke="#63b8ff" points="72,-364.55 75.5,-374.55 79,-364.55 72,-364.55"/>
</a>
</g>
</g>
</g>
</svg>
