<?xml version="1.0" encoding="UTF-8" standalone="no"?>
<!DOCTYPE svg PUBLIC "-//W3C//DTD SVG 1.1//EN"
 "http://www.w3.org/Graphics/SVG/1.1/DTD/svg11.dtd">
<!-- Generated by graphviz version 2.43.0 (0)
 -->
<!-- Title: sen::ResizableBufferWriter&lt; Container &gt; Pages: 1 -->
<svg width="152pt" height="243pt"
 viewBox="0.00 0.00 152.00 243.00" xmlns="http://www.w3.org/2000/svg" xmlns:xlink="http://www.w3.org/1999/xlink">
<g id="graph0" class="graph" transform="scale(1 1) rotate(0) translate(4 239)">
<title>sen::ResizableBufferWriter&lt; Container &gt;</title>
<!-- Node1 -->
<g id="Node000001" class="node">
<title>Node1</title>
<g id="a_Node000001"><a xlink:title="A writer that owns a buffer that gets resized on demand.">
<polygon fill="#999999" stroke="transparent" points="144,-105 0,-105 0,0 144,0 144,-105"/>
<text text-anchor="start" x="7" y="-92.5" font-family="Helvetica,sans-Serif" font-size="10.00">sen::ResizableBufferWriter</text>
<text text-anchor="start" x="37" y="-81.5" font-family="Helvetica,sans-Serif" font-size="10.00">&lt; Container &gt;</text>
<text text-anchor="start" x="70" y="-66.5" font-family="Helvetica,sans-Serif" font-size="10.00"> </text>
<text text-anchor="start" x="4" y="-51.5" font-family="Helvetica,sans-Serif" font-size="10.00">+</text>
<text text-anchor="start" x="17" y="-51.5" font-family="Helvetica,sans-Serif" font-size="10.00">ResizableBufferWriter()</text>
<text text-anchor="start" x="4" y="-36.5" font-family="Helvetica,sans-Serif" font-size="10.00">+</text>
<text text-anchor="start" x="17" y="-36.5" font-family="Helvetica,sans-Serif" font-size="10.00">~ResizableBufferWriter()</text>
<text text-anchor="start" x="4" y="-21.5" font-family="Helvetica,sans-Serif" font-size="10.00">+</text>
<text text-anchor="start" x="17" y="-21.5" font-family="Helvetica,sans-Serif" font-size="10.00">advance()</text>
<text text-anchor="start" x="4" y="-6.5" font-family="Helvetica,sans-Serif" font-size="10.00">+</text>
<text text-anchor="start" x="17" y="-6.5" font-family="Helvetica,sans-Serif" font-size="10.00">reverse()</text>
<polygon fill="#666666" stroke="#666666" points="0,-76.5 0,-76.5 144,-76.5 144,-76.5 0,-76.5"/>
<polygon fill="#666666" stroke="#666666" points="0,-61.5 0,-61.5 144,-61.5 144,-61.5 0,-61.5"/>
<polygon fill="none" stroke="#666666" points="0,0 0,-105 144,-105 144,0 0,0"/>
</a>
</g>
</g>
<!-- Node2 -->
<g id="Node000002" class="node">
<title>Node2</title>
<g id="a_Node000002"><a xlink:href="classsen_1_1_writer.html" target="_top" xlink:title="Interface for writing to a device.">
<polygon fill="white" stroke="transparent" points="107,-235 37,-235 37,-141 107,-141 107,-235"/>
<text text-anchor="start" x="45" y="-223" font-family="Helvetica,sans-Serif" font-size="10.00">sen::Writer</text>
<text text-anchor="start" x="70" y="-208" font-family="Helvetica,sans-Serif" font-size="10.00"> </text>
<text text-anchor="start" x="41" y="-193" font-family="Helvetica,sans-Serif" font-size="10.00">+</text>
<text text-anchor="start" x="54" y="-193" font-family="Helvetica,sans-Serif" font-size="10.00">Writer()</text>
<text text-anchor="start" x="41" y="-178" font-family="Helvetica,sans-Serif" font-size="10.00">+</text>
<text text-anchor="start" x="54" y="-178" font-family="Helvetica,sans-Serif" font-size="10.00">~Writer()</text>
<text text-anchor="start" x="41" y="-163" font-family="Helvetica,sans-Serif" font-size="10.00">+</text>
<text text-anchor="start" x="54" y="-163" font-family="Helvetica,sans-Serif" font-size="10.00">advance()</text>
<text text-anchor="start" x="41" y="-148" font-family="Helvetica,sans-Serif" font-size="10.00">+</text>
<text text-anchor="start" x="54" y="-148" font-family="Helvetica,sans-Serif" font-size="10.00">reverse()</text>
<polygon fill="#666666" stroke="#666666" points="37,-218 37,-218 107,-218 107,-218 37,-218"/>
<polygon fill="#666666" stroke="#666666" points="37,-203 37,-203 107,-203 107,-203 37,-203"/>
<polygon fill="none" stroke="#666666" points="37,-141 37,-235 107,-235 107,-141 37,-141"/>
</a>
</g>
</g>
<!-- Node2&#45;&gt;Node1 -->
<g id="edge1_Node000001_Node000002" class="edge">
<title>Node2&#45;&gt;Node1</title>
<g id="a_edge1_Node000001_Node000002"><a xlink:title=" ">
<path fill="none" stroke="#63b8ff" d="M72,-130.57C72,-122.16 72,-113.52 72,-105.22"/>
<polygon fill="none" stroke="#63b8ff" points="68.5,-130.68 72,-140.68 75.5,-130.68 68.5,-130.68"/>
</a>
</g>
</g>
</g>
</svg>
