<?xml version="1.0" encoding="UTF-8" standalone="no"?>
<!DOCTYPE svg PUBLIC "-//W3C//DTD SVG 1.1//EN"
 "http://www.w3.org/Graphics/SVG/1.1/DTD/svg11.dtd">
<!-- Generated by graphviz version 2.43.0 (0)
 -->
<!-- Title: sen::kernel::Component Pages: 1 -->
<svg width="154pt" height="397pt"
 viewBox="0.00 0.00 154.00 397.00" xmlns="http://www.w3.org/2000/svg" xmlns:xlink="http://www.w3.org/1999/xlink">
<g id="graph0" class="graph" transform="scale(1 1) rotate(0) translate(4 393)">
<title>sen::kernel::Component</title>
<!-- Node1 -->
<g id="Node000001" class="node">
<title>Node1</title>
<g id="a_Node000001"><a xlink:title="Base class for implementing sen kernel components.">
<polygon fill="#999999" stroke="transparent" points="136,-389 10,-389 10,-190 136,-190 136,-389"/>
<text text-anchor="start" x="15" y="-376.5" font-family="Helvetica,sans-Serif" font-size="10.00">sen::kernel::Component</text>
<text text-anchor="start" x="71" y="-361.5" font-family="Helvetica,sans-Serif" font-size="10.00"> </text>
<text text-anchor="start" x="14.5" y="-346.5" font-family="Helvetica,sans-Serif" font-size="10.00">+</text>
<text text-anchor="start" x="28" y="-346.5" font-family="Helvetica,sans-Serif" font-size="10.00">Component()</text>
<text text-anchor="start" x="14.5" y="-331.5" font-family="Helvetica,sans-Serif" font-size="10.00">+</text>
<text text-anchor="start" x="28" y="-331.5" font-family="Helvetica,sans-Serif" font-size="10.00">~Component()</text>
<text text-anchor="start" x="14.5" y="-316.5" font-family="Helvetica,sans-Serif" font-size="10.00">+</text>
<text text-anchor="start" x="28" y="-316.5" font-family="Helvetica,sans-Serif" font-size="10.00">preload()</text>
<text text-anchor="start" x="14.5" y="-301.5" font-family="Helvetica,sans-Serif" font-size="10.00">+</text>
<text text-anchor="start" x="28" y="-301.5" font-family="Helvetica,sans-Serif" font-size="10.00">load()</text>
<text text-anchor="start" x="14.5" y="-286.5" font-family="Helvetica,sans-Serif" font-size="10.00">+</text>
<text text-anchor="start" x="28" y="-286.5" font-family="Helvetica,sans-Serif" font-size="10.00">init()</text>
<text text-anchor="start" x="14.5" y="-271.5" font-family="Helvetica,sans-Serif" font-size="10.00">+</text>
<text text-anchor="start" x="28" y="-271.5" font-family="Helvetica,sans-Serif" font-size="10.00">run()</text>
<text text-anchor="start" x="14.5" y="-256.5" font-family="Helvetica,sans-Serif" font-size="10.00">+</text>
<text text-anchor="start" x="28" y="-256.5" font-family="Helvetica,sans-Serif" font-size="10.00">unload()</text>
<text text-anchor="start" x="14.5" y="-241.5" font-family="Helvetica,sans-Serif" font-size="10.00">+</text>
<text text-anchor="start" x="28" y="-241.5" font-family="Helvetica,sans-Serif" font-size="10.00">postUnloadCleanup()</text>
<text text-anchor="start" x="14.5" y="-226.5" font-family="Helvetica,sans-Serif" font-size="10.00">+</text>
<text text-anchor="start" x="28" y="-226.5" font-family="Helvetica,sans-Serif" font-size="10.00">isRealTimeOnly()</text>
<text text-anchor="start" x="14.5" y="-211.5" font-family="Helvetica,sans-Serif" font-size="10.00">#</text>
<text text-anchor="start" x="28" y="-211.5" font-family="Helvetica,sans-Serif" font-size="10.00">delay()</text>
<text text-anchor="start" x="14.5" y="-196.5" font-family="Helvetica,sans-Serif" font-size="10.00">#</text>
<text text-anchor="start" x="28" y="-196.5" font-family="Helvetica,sans-Serif" font-size="10.00">done()</text>
<polygon fill="#666666" stroke="#666666" points="10,-371.5 10,-371.5 136,-371.5 136,-371.5 10,-371.5"/>
<polygon fill="#666666" stroke="#666666" points="10,-356.5 10,-356.5 136,-356.5 136,-356.5 10,-356.5"/>
<polygon fill="none" stroke="#666666" points="10,-190 10,-389 136,-389 136,-190 10,-190"/>
</a>
</g>
</g>
<!-- Node2 -->
<g id="Node000002" class="node">
<title>Node2</title>
<g id="a_Node000002"><a xlink:href="classsen_1_1kernel_1_1_test_component.html" target="_top" xlink:title="Convenience class for using lambdas instead of inheritance when defining test components.">
<polygon fill="white" stroke="transparent" points="146,-154 0,-154 0,0 146,0 146,-154"/>
<text text-anchor="start" x="5" y="-142" font-family="Helvetica,sans-Serif" font-size="10.00">sen::kernel::TestComponent</text>
<text text-anchor="start" x="71" y="-127" font-family="Helvetica,sans-Serif" font-size="10.00"> </text>
<text text-anchor="start" x="12" y="-112" font-family="Helvetica,sans-Serif" font-size="10.00">+</text>
<text text-anchor="start" x="33" y="-112" font-family="Helvetica,sans-Serif" font-size="10.00">TestComponent()</text>
<text text-anchor="start" x="12" y="-97" font-family="Helvetica,sans-Serif" font-size="10.00">+</text>
<text text-anchor="start" x="33" y="-97" font-family="Helvetica,sans-Serif" font-size="10.00">~TestComponent()</text>
<text text-anchor="start" x="12" y="-82" font-family="Helvetica,sans-Serif" font-size="10.00">+</text>
<text text-anchor="start" x="33" y="-82" font-family="Helvetica,sans-Serif" font-size="10.00">onInit()</text>
<text text-anchor="start" x="12" y="-67" font-family="Helvetica,sans-Serif" font-size="10.00">+</text>
<text text-anchor="start" x="33" y="-67" font-family="Helvetica,sans-Serif" font-size="10.00">onRun()</text>
<text text-anchor="start" x="12" y="-52" font-family="Helvetica,sans-Serif" font-size="10.00">+</text>
<text text-anchor="start" x="33" y="-52" font-family="Helvetica,sans-Serif" font-size="10.00">onUnload()</text>
<text text-anchor="start" x="12" y="-37" font-family="Helvetica,sans-Serif" font-size="10.00">+</text>
<text text-anchor="start" x="33" y="-37" font-family="Helvetica,sans-Serif" font-size="10.00">init()</text>
<text text-anchor="start" x="12" y="-22" font-family="Helvetica,sans-Serif" font-size="10.00">+</text>
<text text-anchor="start" x="33" y="-22" font-family="Helvetica,sans-Serif" font-size="10.00">run()</text>
<text text-anchor="start" x="12" y="-7" font-family="Helvetica,sans-Serif" font-size="10.00">+</text>
<text text-anchor="start" x="33" y="-7" font-family="Helvetica,sans-Serif" font-size="10.00">unload()</text>
<polygon fill="#666666" stroke="#666666" points="0,-137 0,-137 146,-137 146,-137 0,-137"/>
<polygon fill="#666666" stroke="#666666" points="0,-122 0,-122 146,-122 146,-122 0,-122"/>
<polygon fill="none" stroke="#666666" points="0,0 0,-154 146,-154 146,0 0,0"/>
</a>
</g>
</g>
<!-- Node1&#45;&gt;Node2 -->
<g id="edge1_Node000001_Node000002" class="edge">
<title>Node1&#45;&gt;Node2</title>
<g id="a_edge1_Node000001_Node000002"><a xlink:title=" ">
<path fill="none" stroke="#63b8ff" d="M73,-179.61C73,-171.01 73,-162.43 73,-154.12"/>
<polygon fill="none" stroke="#63b8ff" points="69.5,-179.72 73,-189.72 76.5,-179.72 69.5,-179.72"/>
</a>
</g>
</g>
</g>
</svg>
