<?xml version="1.0" encoding="UTF-8" standalone="no"?>
<!DOCTYPE svg PUBLIC "-//W3C//DTD SVG 1.1//EN"
 "http://www.w3.org/Graphics/SVG/1.1/DTD/svg11.dtd">
<!-- Generated by graphviz version 2.43.0 (0)
 -->
<!-- Title: sen::Callable Pages: 1 -->
<svg width="240pt" height="472pt"
 viewBox="0.00 0.00 240.00 472.00" xmlns="http://www.w3.org/2000/svg" xmlns:xlink="http://www.w3.org/1999/xlink">
<g id="graph0" class="graph" transform="scale(1 1) rotate(0) translate(4 468)">
<title>sen::Callable</title>
<!-- Node1 -->
<g id="Node000001" class="node">
<title>Node1</title>
<g id="a_Node000001"><a xlink:title="Represents something that can be called.">
<polygon fill="#999999" stroke="transparent" points="189,-464 22,-464 22,-250 189,-250 189,-464"/>
<text text-anchor="start" x="74" y="-452" font-family="Helvetica,sans-Serif" font-size="10.00">sen::Callable</text>
<text text-anchor="start" x="104" y="-437" font-family="Helvetica,sans-Serif" font-size="10.00"> </text>
<text text-anchor="start" x="26.5" y="-422" font-family="Helvetica,sans-Serif" font-size="10.00">+</text>
<text text-anchor="start" x="39.5" y="-422" font-family="Helvetica,sans-Serif" font-size="10.00">Callable()</text>
<text text-anchor="start" x="26.5" y="-407" font-family="Helvetica,sans-Serif" font-size="10.00">+</text>
<text text-anchor="start" x="39.5" y="-407" font-family="Helvetica,sans-Serif" font-size="10.00">~Callable()</text>
<text text-anchor="start" x="26.5" y="-392" font-family="Helvetica,sans-Serif" font-size="10.00">+</text>
<text text-anchor="start" x="39.5" y="-392" font-family="Helvetica,sans-Serif" font-size="10.00">getName()</text>
<text text-anchor="start" x="26.5" y="-377" font-family="Helvetica,sans-Serif" font-size="10.00">+</text>
<text text-anchor="start" x="39.5" y="-377" font-family="Helvetica,sans-Serif" font-size="10.00">getDescription()</text>
<text text-anchor="start" x="26.5" y="-362" font-family="Helvetica,sans-Serif" font-size="10.00">+</text>
<text text-anchor="start" x="39.5" y="-362" font-family="Helvetica,sans-Serif" font-size="10.00">getTransportMode()</text>
<text text-anchor="start" x="26.5" y="-347" font-family="Helvetica,sans-Serif" font-size="10.00">+</text>
<text text-anchor="start" x="39.5" y="-347" font-family="Helvetica,sans-Serif" font-size="10.00">getArgs()</text>
<text text-anchor="start" x="26.5" y="-332" font-family="Helvetica,sans-Serif" font-size="10.00">+</text>
<text text-anchor="start" x="39.5" y="-332" font-family="Helvetica,sans-Serif" font-size="10.00">getArgFromName()</text>
<text text-anchor="start" x="26.5" y="-317" font-family="Helvetica,sans-Serif" font-size="10.00">+</text>
<text text-anchor="start" x="39.5" y="-317" font-family="Helvetica,sans-Serif" font-size="10.00">getArgIndexFromNameHash()</text>
<text text-anchor="start" x="26.5" y="-302" font-family="Helvetica,sans-Serif" font-size="10.00">+</text>
<text text-anchor="start" x="39.5" y="-302" font-family="Helvetica,sans-Serif" font-size="10.00">operator==()</text>
<text text-anchor="start" x="26.5" y="-287" font-family="Helvetica,sans-Serif" font-size="10.00">+</text>
<text text-anchor="start" x="39.5" y="-287" font-family="Helvetica,sans-Serif" font-size="10.00">operator!=()</text>
<text text-anchor="start" x="26.5" y="-272" font-family="Helvetica,sans-Serif" font-size="10.00">+</text>
<text text-anchor="start" x="39.5" y="-272" font-family="Helvetica,sans-Serif" font-size="10.00">checkSpec()</text>
<text text-anchor="start" x="26.5" y="-257" font-family="Helvetica,sans-Serif" font-size="10.00">#</text>
<text text-anchor="start" x="39.5" y="-257" font-family="Helvetica,sans-Serif" font-size="10.00">getCallableSpec()</text>
<polygon fill="#666666" stroke="#666666" points="22.5,-447 22.5,-447 189.5,-447 189.5,-447 22.5,-447"/>
<polygon fill="#666666" stroke="#666666" points="22.5,-432 22.5,-432 189.5,-432 189.5,-432 22.5,-432"/>
<polygon fill="none" stroke="#666666" points="22,-250 22,-464 189,-464 189,-250 22,-250"/>
</a>
</g>
</g>
<!-- Node2 -->
<g id="Node000002" class="node">
<title>Node2</title>
<g id="a_Node000002"><a xlink:href="classsen_1_1_event.html" target="_top" xlink:title="Represents an event.">
<polygon fill="white" stroke="transparent" points="87,-169 0,-169 0,-45 87,-45 87,-169"/>
<text text-anchor="start" x="18" y="-157" font-family="Helvetica,sans-Serif" font-size="10.00">sen::Event</text>
<text text-anchor="start" x="42" y="-142" font-family="Helvetica,sans-Serif" font-size="10.00"> </text>
<text text-anchor="start" x="4.5" y="-127" font-family="Helvetica,sans-Serif" font-size="10.00">+</text>
<text text-anchor="start" x="17.5" y="-127" font-family="Helvetica,sans-Serif" font-size="10.00">~Event()</text>
<text text-anchor="start" x="4.5" y="-112" font-family="Helvetica,sans-Serif" font-size="10.00">+</text>
<text text-anchor="start" x="17.5" y="-112" font-family="Helvetica,sans-Serif" font-size="10.00">operator==()</text>
<text text-anchor="start" x="4.5" y="-97" font-family="Helvetica,sans-Serif" font-size="10.00">+</text>
<text text-anchor="start" x="17.5" y="-97" font-family="Helvetica,sans-Serif" font-size="10.00">operator!=()</text>
<text text-anchor="start" x="4.5" y="-82" font-family="Helvetica,sans-Serif" font-size="10.00">+</text>
<text text-anchor="start" x="17.5" y="-82" font-family="Helvetica,sans-Serif" font-size="10.00">getHash()</text>
<text text-anchor="start" x="4.5" y="-67" font-family="Helvetica,sans-Serif" font-size="10.00">+</text>
<text text-anchor="start" x="17.5" y="-67" font-family="Helvetica,sans-Serif" font-size="10.00">getId()</text>
<text text-anchor="start" x="4.5" y="-52" font-family="Helvetica,sans-Serif" font-size="10.00">+</text>
<text text-anchor="start" x="17.5" y="-52" font-family="Helvetica,sans-Serif" font-size="10.00">make()</text>
<polygon fill="#666666" stroke="#666666" points="0.5,-152 0.5,-152 87.5,-152 87.5,-152 0.5,-152"/>
<polygon fill="#666666" stroke="#666666" points="0.5,-137 0.5,-137 87.5,-137 87.5,-137 0.5,-137"/>
<polygon fill="none" stroke="#666666" points="0,-45 0,-169 87,-169 87,-45 0,-45"/>
</a>
</g>
</g>
<!-- Node1&#45;&gt;Node2 -->
<g id="edge1_Node000001_Node000002" class="edge">
<title>Node1&#45;&gt;Node2</title>
<g id="a_edge1_Node000001_Node000002"><a xlink:title=" ">
<path fill="none" stroke="#63b8ff" d="M76.43,-239.72C70.35,-215.39 64.17,-190.66 58.83,-169.3"/>
<polygon fill="none" stroke="#63b8ff" points="73.12,-240.89 78.94,-249.75 79.91,-239.2 73.12,-240.89"/>
</a>
</g>
</g>
<!-- Node3 -->
<g id="Node000003" class="node">
<title>Node3</title>
<g id="a_Node000003"><a xlink:href="classsen_1_1_method.html" target="_top" xlink:title="Represents a method.">
<polygon fill="white" stroke="transparent" points="232,-214 105,-214 105,0 232,0 232,-214"/>
<text text-anchor="start" x="138.5" y="-202" font-family="Helvetica,sans-Serif" font-size="10.00">sen::Method</text>
<text text-anchor="start" x="167" y="-187" font-family="Helvetica,sans-Serif" font-size="10.00"> </text>
<text text-anchor="start" x="109.5" y="-172" font-family="Helvetica,sans-Serif" font-size="10.00">+</text>
<text text-anchor="start" x="122.5" y="-172" font-family="Helvetica,sans-Serif" font-size="10.00">Method()</text>
<text text-anchor="start" x="109.5" y="-157" font-family="Helvetica,sans-Serif" font-size="10.00">+</text>
<text text-anchor="start" x="122.5" y="-157" font-family="Helvetica,sans-Serif" font-size="10.00">~Method()</text>
<text text-anchor="start" x="109.5" y="-142" font-family="Helvetica,sans-Serif" font-size="10.00">+</text>
<text text-anchor="start" x="122.5" y="-142" font-family="Helvetica,sans-Serif" font-size="10.00">getConstness()</text>
<text text-anchor="start" x="109.5" y="-127" font-family="Helvetica,sans-Serif" font-size="10.00">+</text>
<text text-anchor="start" x="122.5" y="-127" font-family="Helvetica,sans-Serif" font-size="10.00">getDeferred()</text>
<text text-anchor="start" x="109.5" y="-112" font-family="Helvetica,sans-Serif" font-size="10.00">+</text>
<text text-anchor="start" x="122.5" y="-112" font-family="Helvetica,sans-Serif" font-size="10.00">getReturnType()</text>
<text text-anchor="start" x="109.5" y="-97" font-family="Helvetica,sans-Serif" font-size="10.00">+</text>
<text text-anchor="start" x="122.5" y="-97" font-family="Helvetica,sans-Serif" font-size="10.00">getPropertyRelation()</text>
<text text-anchor="start" x="109.5" y="-82" font-family="Helvetica,sans-Serif" font-size="10.00">+</text>
<text text-anchor="start" x="122.5" y="-82" font-family="Helvetica,sans-Serif" font-size="10.00">getLocalOnly()</text>
<text text-anchor="start" x="109.5" y="-67" font-family="Helvetica,sans-Serif" font-size="10.00">+</text>
<text text-anchor="start" x="122.5" y="-67" font-family="Helvetica,sans-Serif" font-size="10.00">operator==()</text>
<text text-anchor="start" x="109.5" y="-52" font-family="Helvetica,sans-Serif" font-size="10.00">+</text>
<text text-anchor="start" x="122.5" y="-52" font-family="Helvetica,sans-Serif" font-size="10.00">operator!=()</text>
<text text-anchor="start" x="109.5" y="-37" font-family="Helvetica,sans-Serif" font-size="10.00">+</text>
<text text-anchor="start" x="122.5" y="-37" font-family="Helvetica,sans-Serif" font-size="10.00">getHash()</text>
<text text-anchor="start" x="109.5" y="-22" font-family="Helvetica,sans-Serif" font-size="10.00">+</text>
<text text-anchor="start" x="122.5" y="-22" font-family="Helvetica,sans-Serif" font-size="10.00">getId()</text>
<text text-anchor="start" x="109.5" y="-7" font-family="Helvetica,sans-Serif" font-size="10.00">+</text>
<text text-anchor="start" x="122.5" y="-7" font-family="Helvetica,sans-Serif" font-size="10.00">make()</text>
<polygon fill="#666666" stroke="#666666" points="105.5,-197 105.5,-197 232.5,-197 232.5,-197 105.5,-197"/>
<polygon fill="#666666" stroke="#666666" points="105.5,-182 105.5,-182 232.5,-182 232.5,-182 105.5,-182"/>
<polygon fill="none" stroke="#666666" points="105,0 105,-214 232,-214 232,0 105,0"/>
</a>
</g>
</g>
<!-- Node1&#45;&gt;Node3 -->
<g id="edge2_Node000001_Node000003" class="edge">
<title>Node1&#45;&gt;Node3</title>
<g id="a_edge2_Node000001_Node000003"><a xlink:title=" ">
<path fill="none" stroke="#63b8ff" d="M134.97,-240C137.17,-231.34 139.38,-222.63 141.56,-214.03"/>
<polygon fill="none" stroke="#63b8ff" points="131.56,-239.19 132.49,-249.75 138.35,-240.92 131.56,-239.19"/>
</a>
</g>
</g>
</g>
</svg>
