<?xml version="1.0" encoding="UTF-8" standalone="no"?>
<!DOCTYPE svg PUBLIC "-//W3C//DTD SVG 1.1//EN"
 "http://www.w3.org/Graphics/SVG/1.1/DTD/svg11.dtd">
<!-- Generated by graphviz version 2.43.0 (0)
 -->
<!-- Title: sen::VariantType Pages: 1 -->
<svg width="159pt" height="527pt"
 viewBox="0.00 0.00 159.00 527.00" xmlns="http://www.w3.org/2000/svg" xmlns:xlink="http://www.w3.org/1999/xlink">
<g id="graph0" class="graph" transform="scale(1 1) rotate(0) translate(4 523)">
<title>sen::VariantType</title>
<!-- Node1 -->
<g id="Node000001" class="node">
<title>Node1</title>
<g id="a_Node000001"><a xlink:title="Represents a variant type.">
<polygon fill="#999999" stroke="transparent" points="134.5,-184 16.5,-184 16.5,0 134.5,0 134.5,-184"/>
<text text-anchor="start" x="35" y="-172" font-family="Helvetica,sans-Serif" font-size="10.00">sen::VariantType</text>
<text text-anchor="start" x="73.5" y="-157" font-family="Helvetica,sans-Serif" font-size="10.00"> </text>
<text text-anchor="start" x="20.5" y="-142" font-family="Helvetica,sans-Serif" font-size="10.00">+</text>
<text text-anchor="start" x="33.5" y="-142" font-family="Helvetica,sans-Serif" font-size="10.00">VariantType()</text>
<text text-anchor="start" x="20.5" y="-127" font-family="Helvetica,sans-Serif" font-size="10.00">+</text>
<text text-anchor="start" x="33.5" y="-127" font-family="Helvetica,sans-Serif" font-size="10.00">~VariantType()</text>
<text text-anchor="start" x="20.5" y="-112" font-family="Helvetica,sans-Serif" font-size="10.00">+</text>
<text text-anchor="start" x="33.5" y="-112" font-family="Helvetica,sans-Serif" font-size="10.00">getFieldFromKey()</text>
<text text-anchor="start" x="20.5" y="-97" font-family="Helvetica,sans-Serif" font-size="10.00">+</text>
<text text-anchor="start" x="33.5" y="-97" font-family="Helvetica,sans-Serif" font-size="10.00">getFields()</text>
<text text-anchor="start" x="20.5" y="-82" font-family="Helvetica,sans-Serif" font-size="10.00">+</text>
<text text-anchor="start" x="33.5" y="-82" font-family="Helvetica,sans-Serif" font-size="10.00">getQualifiedName()</text>
<text text-anchor="start" x="20.5" y="-67" font-family="Helvetica,sans-Serif" font-size="10.00">+</text>
<text text-anchor="start" x="33.5" y="-67" font-family="Helvetica,sans-Serif" font-size="10.00">getName()</text>
<text text-anchor="start" x="20.5" y="-52" font-family="Helvetica,sans-Serif" font-size="10.00">+</text>
<text text-anchor="start" x="33.5" y="-52" font-family="Helvetica,sans-Serif" font-size="10.00">getDescription()</text>
<text text-anchor="start" x="20.5" y="-37" font-family="Helvetica,sans-Serif" font-size="10.00">+</text>
<text text-anchor="start" x="33.5" y="-37" font-family="Helvetica,sans-Serif" font-size="10.00">equals()</text>
<text text-anchor="start" x="20.5" y="-22" font-family="Helvetica,sans-Serif" font-size="10.00">+</text>
<text text-anchor="start" x="33.5" y="-22" font-family="Helvetica,sans-Serif" font-size="10.00">isBounded()</text>
<text text-anchor="start" x="20.5" y="-7" font-family="Helvetica,sans-Serif" font-size="10.00">+</text>
<text text-anchor="start" x="33.5" y="-7" font-family="Helvetica,sans-Serif" font-size="10.00">make()</text>
<polygon fill="#666666" stroke="#666666" points="16.5,-167 16.5,-167 134.5,-167 134.5,-167 16.5,-167"/>
<polygon fill="#666666" stroke="#666666" points="16.5,-152 16.5,-152 134.5,-152 134.5,-152 16.5,-152"/>
<polygon fill="none" stroke="#666666" points="16.5,0 16.5,-184 134.5,-184 134.5,0 16.5,0"/>
</a>
</g>
</g>
<!-- Node2 -->
<g id="Node000002" class="node">
<title>Node2</title>
<g id="a_Node000002"><a xlink:href="classsen_1_1_custom_type.html" target="_top" xlink:title="Represents a user&#45;defined type.">
<polygon fill="white" stroke="transparent" points="134.5,-299 16.5,-299 16.5,-220 134.5,-220 134.5,-299"/>
<text text-anchor="start" x="33.5" y="-286.5" font-family="Helvetica,sans-Serif" font-size="10.00">sen::CustomType</text>
<text text-anchor="start" x="73.5" y="-271.5" font-family="Helvetica,sans-Serif" font-size="10.00"> </text>
<text text-anchor="start" x="20.5" y="-256.5" font-family="Helvetica,sans-Serif" font-size="10.00">+</text>
<text text-anchor="start" x="33.5" y="-256.5" font-family="Helvetica,sans-Serif" font-size="10.00">getQualifiedName()</text>
<text text-anchor="start" x="20.5" y="-241.5" font-family="Helvetica,sans-Serif" font-size="10.00">#</text>
<text text-anchor="start" x="33.5" y="-241.5" font-family="Helvetica,sans-Serif" font-size="10.00">CustomType()</text>
<text text-anchor="start" x="20.5" y="-226.5" font-family="Helvetica,sans-Serif" font-size="10.00">#</text>
<text text-anchor="start" x="33.5" y="-226.5" font-family="Helvetica,sans-Serif" font-size="10.00">~CustomType()</text>
<polygon fill="#666666" stroke="#666666" points="16.5,-281.5 16.5,-281.5 134.5,-281.5 134.5,-281.5 16.5,-281.5"/>
<polygon fill="#666666" stroke="#666666" points="16.5,-266.5 16.5,-266.5 134.5,-266.5 134.5,-266.5 16.5,-266.5"/>
<polygon fill="none" stroke="#666666" points="16.5,-220 16.5,-299 134.5,-299 134.5,-220 16.5,-220"/>
</a>
</g>
</g>
<!-- Node2&#45;&gt;Node1 -->
<g id="edge1_Node000001_Node000002" class="edge">
<title>Node2&#45;&gt;Node1</title>
<g id="a_edge1_Node000001_Node000002"><a xlink:title=" ">
<path fill="none" stroke="#63b8ff" d="M75.5,-209.47C75.5,-201.44 75.5,-192.9 75.5,-184.24"/>
<polygon fill="none" stroke="#63b8ff" points="72,-209.7 75.5,-219.7 79,-209.7 72,-209.7"/>
</a>
</g>
</g>
<!-- Node3 -->
<g id="Node000003" class="node">
<title>Node3</title>
<g id="a_Node000003"><a xlink:href="classsen_1_1_type.html" target="_top" xlink:title="Represents a type that can be used to define variables and arguments for methods or functions....">
<polygon fill="white" stroke="transparent" points="151,-519 0,-519 0,-335 151,-335 151,-519"/>
<text text-anchor="start" x="53" y="-507" font-family="Helvetica,sans-Serif" font-size="10.00">sen::Type</text>
<text text-anchor="start" x="74" y="-492" font-family="Helvetica,sans-Serif" font-size="10.00"> </text>
<text text-anchor="start" x="4.5" y="-477" font-family="Helvetica,sans-Serif" font-size="10.00">+</text>
<text text-anchor="start" x="17.5" y="-477" font-family="Helvetica,sans-Serif" font-size="10.00">~Type()</text>
<text text-anchor="start" x="4.5" y="-462" font-family="Helvetica,sans-Serif" font-size="10.00">+</text>
<text text-anchor="start" x="17.5" y="-462" font-family="Helvetica,sans-Serif" font-size="10.00">getName()</text>
<text text-anchor="start" x="4.5" y="-447" font-family="Helvetica,sans-Serif" font-size="10.00">+</text>
<text text-anchor="start" x="17.5" y="-447" font-family="Helvetica,sans-Serif" font-size="10.00">getDescription()</text>
<text text-anchor="start" x="4.5" y="-432" font-family="Helvetica,sans-Serif" font-size="10.00">+</text>
<text text-anchor="start" x="17.5" y="-432" font-family="Helvetica,sans-Serif" font-size="10.00">accept()</text>
<text text-anchor="start" x="4.5" y="-417" font-family="Helvetica,sans-Serif" font-size="10.00">+</text>
<text text-anchor="start" x="17.5" y="-417" font-family="Helvetica,sans-Serif" font-size="10.00">isBounded()</text>
<text text-anchor="start" x="4.5" y="-402" font-family="Helvetica,sans-Serif" font-size="10.00">+</text>
<text text-anchor="start" x="17.5" y="-402" font-family="Helvetica,sans-Serif" font-size="10.00">getHash()</text>
<text text-anchor="start" x="4.5" y="-387" font-family="Helvetica,sans-Serif" font-size="10.00">+</text>
<text text-anchor="start" x="17.5" y="-387" font-family="Helvetica,sans-Serif" font-size="10.00">equals()</text>
<text text-anchor="start" x="4.5" y="-372" font-family="Helvetica,sans-Serif" font-size="10.00">+</text>
<text text-anchor="start" x="17.5" y="-372" font-family="Helvetica,sans-Serif" font-size="10.00">validateLowerCaseName()</text>
<text text-anchor="start" x="4.5" y="-357" font-family="Helvetica,sans-Serif" font-size="10.00">+</text>
<text text-anchor="start" x="17.5" y="-357" font-family="Helvetica,sans-Serif" font-size="10.00">validateTypeName()</text>
<text text-anchor="start" x="4.5" y="-342" font-family="Helvetica,sans-Serif" font-size="10.00">#</text>
<text text-anchor="start" x="17.5" y="-342" font-family="Helvetica,sans-Serif" font-size="10.00">Type()</text>
<polygon fill="#666666" stroke="#666666" points="0.5,-502 0.5,-502 151.5,-502 151.5,-502 0.5,-502"/>
<polygon fill="#666666" stroke="#666666" points="0.5,-487 0.5,-487 151.5,-487 151.5,-487 0.5,-487"/>
<polygon fill="none" stroke="#666666" points="0,-335 0,-519 151,-519 151,-335 0,-335"/>
</a>
</g>
</g>
<!-- Node3&#45;&gt;Node2 -->
<g id="edge2_Node000002_Node000003" class="edge">
<title>Node3&#45;&gt;Node2</title>
<g id="a_edge2_Node000002_Node000003"><a xlink:title=" ">
<path fill="none" stroke="#63b8ff" d="M75.5,-324.44C75.5,-315.59 75.5,-307.04 75.5,-299.23"/>
<polygon fill="none" stroke="#63b8ff" points="72,-324.54 75.5,-334.54 79,-324.54 72,-324.54"/>
</a>
</g>
</g>
</g>
</svg>
