<?xml version="1.0" encoding="UTF-8" standalone="no"?>
<!DOCTYPE svg PUBLIC "-//W3C//DTD SVG 1.1//EN"
 "http://www.w3.org/Graphics/SVG/1.1/DTD/svg11.dtd">
<!-- Generated by graphviz version 2.43.0 (0)
 -->
<!-- Title: sen::Duration Pages: 1 -->
<svg width="148pt" height="598pt"
 viewBox="0.00 0.00 148.00 598.00" xmlns="http://www.w3.org/2000/svg" xmlns:xlink="http://www.w3.org/1999/xlink">
<g id="graph0" class="graph" transform="scale(1 1) rotate(0) translate(4 594)">
<title>sen::Duration</title>
<!-- Node1 -->
<g id="Node000001" class="node">
<title>Node1</title>
<g id="a_Node000001"><a xlink:title="A time duration.">
<polygon fill="#999999" stroke="transparent" points="125,-154 15,-154 15,0 125,0 125,-154"/>
<text text-anchor="start" x="37" y="-142" font-family="Helvetica,sans-Serif" font-size="10.00">sen::Duration</text>
<text text-anchor="start" x="68" y="-127" font-family="Helvetica,sans-Serif" font-size="10.00"> </text>
<text text-anchor="start" x="19" y="-112" font-family="Helvetica,sans-Serif" font-size="10.00">+</text>
<text text-anchor="start" x="32" y="-112" font-family="Helvetica,sans-Serif" font-size="10.00">Duration()</text>
<text text-anchor="start" x="19" y="-97" font-family="Helvetica,sans-Serif" font-size="10.00">+</text>
<text text-anchor="start" x="32" y="-97" font-family="Helvetica,sans-Serif" font-size="10.00">Duration()</text>
<text text-anchor="start" x="19" y="-82" font-family="Helvetica,sans-Serif" font-size="10.00">+</text>
<text text-anchor="start" x="32" y="-82" font-family="Helvetica,sans-Serif" font-size="10.00">~Duration()</text>
<text text-anchor="start" x="19" y="-67" font-family="Helvetica,sans-Serif" font-size="10.00">+</text>
<text text-anchor="start" x="32" y="-67" font-family="Helvetica,sans-Serif" font-size="10.00">getNanoseconds()</text>
<text text-anchor="start" x="19" y="-52" font-family="Helvetica,sans-Serif" font-size="10.00">+</text>
<text text-anchor="start" x="32" y="-52" font-family="Helvetica,sans-Serif" font-size="10.00">toChrono()</text>
<text text-anchor="start" x="19" y="-37" font-family="Helvetica,sans-Serif" font-size="10.00">+</text>
<text text-anchor="start" x="32" y="-37" font-family="Helvetica,sans-Serif" font-size="10.00">toSeconds()</text>
<text text-anchor="start" x="19" y="-22" font-family="Helvetica,sans-Serif" font-size="10.00">+</text>
<text text-anchor="start" x="32" y="-22" font-family="Helvetica,sans-Serif" font-size="10.00">fromHertz()</text>
<text text-anchor="start" x="19" y="-7" font-family="Helvetica,sans-Serif" font-size="10.00">+</text>
<text text-anchor="start" x="32" y="-7" font-family="Helvetica,sans-Serif" font-size="10.00">fromHertz()</text>
<polygon fill="#666666" stroke="#666666" points="15,-137 15,-137 125,-137 125,-137 15,-137"/>
<polygon fill="#666666" stroke="#666666" points="15,-122 15,-122 125,-122 125,-122 15,-122"/>
<polygon fill="none" stroke="#666666" points="15,0 15,-154 125,-154 125,0 15,0"/>
</a>
</g>
</g>
<!-- Node2 -->
<g id="Node000002" class="node">
<title>Node2</title>
<g id="a_Node000002"><a xlink:href="classsen_1_1_strong_type.html" target="_top" xlink:title=" ">
<polygon fill="white" stroke="transparent" points="127,-400 13,-400 13,-190 127,-190 127,-400"/>
<text text-anchor="start" x="18" y="-388" font-family="Helvetica,sans-Serif" font-size="10.00">sen::StrongType&lt; std</text>
<text text-anchor="start" x="20" y="-377" font-family="Helvetica,sans-Serif" font-size="10.00">::int64_t, Duration &gt;</text>
<text text-anchor="start" x="68" y="-362" font-family="Helvetica,sans-Serif" font-size="10.00"> </text>
<text text-anchor="start" x="22.5" y="-347" font-family="Helvetica,sans-Serif" font-size="10.00">+</text>
<text text-anchor="start" x="41" y="-347" font-family="Helvetica,sans-Serif" font-size="10.00">~StrongType()</text>
<text text-anchor="start" x="22.5" y="-332" font-family="Helvetica,sans-Serif" font-size="10.00">+</text>
<text text-anchor="start" x="41" y="-332" font-family="Helvetica,sans-Serif" font-size="10.00">operator==()</text>
<text text-anchor="start" x="22.5" y="-317" font-family="Helvetica,sans-Serif" font-size="10.00">+</text>
<text text-anchor="start" x="41" y="-317" font-family="Helvetica,sans-Serif" font-size="10.00">operator!=()</text>
<text text-anchor="start" x="22.5" y="-302" font-family="Helvetica,sans-Serif" font-size="10.00">+</text>
<text text-anchor="start" x="41" y="-302" font-family="Helvetica,sans-Serif" font-size="10.00">operator&lt;()</text>
<text text-anchor="start" x="22.5" y="-287" font-family="Helvetica,sans-Serif" font-size="10.00">+</text>
<text text-anchor="start" x="41" y="-287" font-family="Helvetica,sans-Serif" font-size="10.00">operator&lt;=()</text>
<text text-anchor="start" x="22.5" y="-272" font-family="Helvetica,sans-Serif" font-size="10.00">+</text>
<text text-anchor="start" x="41" y="-272" font-family="Helvetica,sans-Serif" font-size="10.00">operator&gt;()</text>
<text text-anchor="start" x="22.5" y="-257" font-family="Helvetica,sans-Serif" font-size="10.00">+</text>
<text text-anchor="start" x="41" y="-257" font-family="Helvetica,sans-Serif" font-size="10.00">operator&gt;=()</text>
<text text-anchor="start" x="22.5" y="-242" font-family="Helvetica,sans-Serif" font-size="10.00">+</text>
<text text-anchor="start" x="41" y="-242" font-family="Helvetica,sans-Serif" font-size="10.00">operator++()</text>
<text text-anchor="start" x="22.5" y="-227" font-family="Helvetica,sans-Serif" font-size="10.00">+</text>
<text text-anchor="start" x="41" y="-227" font-family="Helvetica,sans-Serif" font-size="10.00">operator++()</text>
<text text-anchor="start" x="22.5" y="-212" font-family="Helvetica,sans-Serif" font-size="10.00">+</text>
<text text-anchor="start" x="41" y="-212" font-family="Helvetica,sans-Serif" font-size="10.00">operator&#45;&#45;()</text>
<text text-anchor="start" x="41" y="-197" font-family="Helvetica,sans-Serif" font-size="10.00">and 8 more...</text>
<polygon fill="#666666" stroke="#666666" points="13,-372 13,-372 127,-372 127,-372 13,-372"/>
<polygon fill="#666666" stroke="#666666" points="13,-357 13,-357 127,-357 127,-357 13,-357"/>
<polygon fill="none" stroke="#666666" points="13,-190 13,-400 127,-400 127,-190 13,-190"/>
</a>
</g>
</g>
<!-- Node2&#45;&gt;Node1 -->
<g id="edge1_Node000001_Node000002" class="edge">
<title>Node2&#45;&gt;Node1</title>
<g id="a_edge1_Node000001_Node000002"><a xlink:title=" ">
<path fill="none" stroke="#63b8ff" d="M70,-179.69C70,-171.09 70,-162.55 70,-154.27"/>
<polygon fill="none" stroke="#63b8ff" points="66.5,-179.8 70,-189.8 73.5,-179.8 66.5,-179.8"/>
</a>
</g>
</g>
<!-- Node3 -->
<g id="Node000003" class="node">
<title>Node3</title>
<g id="a_Node000003"><a xlink:href="classsen_1_1_strong_type_base.html" target="_top" xlink:title="Wraps T to make it a strong type.">
<polygon fill="white" stroke="transparent" points="140,-590 0,-590 0,-436 140,-436 140,-590"/>
<text text-anchor="start" x="5" y="-578" font-family="Helvetica,sans-Serif" font-size="10.00">sen::StrongTypeBase&lt; T &gt;</text>
<text text-anchor="start" x="68" y="-563" font-family="Helvetica,sans-Serif" font-size="10.00"> </text>
<text text-anchor="start" x="10" y="-548" font-family="Helvetica,sans-Serif" font-size="10.00">+</text>
<text text-anchor="start" x="29" y="-548" font-family="Helvetica,sans-Serif" font-size="10.00">StrongTypeBase()</text>
<text text-anchor="start" x="10" y="-533" font-family="Helvetica,sans-Serif" font-size="10.00">+</text>
<text text-anchor="start" x="29" y="-533" font-family="Helvetica,sans-Serif" font-size="10.00">StrongTypeBase()</text>
<text text-anchor="start" x="10" y="-518" font-family="Helvetica,sans-Serif" font-size="10.00">+</text>
<text text-anchor="start" x="29" y="-518" font-family="Helvetica,sans-Serif" font-size="10.00">~StrongTypeBase()</text>
<text text-anchor="start" x="10" y="-503" font-family="Helvetica,sans-Serif" font-size="10.00">+</text>
<text text-anchor="start" x="29" y="-503" font-family="Helvetica,sans-Serif" font-size="10.00">get()</text>
<text text-anchor="start" x="10" y="-488" font-family="Helvetica,sans-Serif" font-size="10.00">+</text>
<text text-anchor="start" x="29" y="-488" font-family="Helvetica,sans-Serif" font-size="10.00">set()</text>
<text text-anchor="start" x="10" y="-473" font-family="Helvetica,sans-Serif" font-size="10.00">+</text>
<text text-anchor="start" x="29" y="-473" font-family="Helvetica,sans-Serif" font-size="10.00">set()</text>
<text text-anchor="start" x="10" y="-458" font-family="Helvetica,sans-Serif" font-size="10.00">#</text>
<text text-anchor="start" x="29" y="-458" font-family="Helvetica,sans-Serif" font-size="10.00">val()</text>
<text text-anchor="start" x="10" y="-443" font-family="Helvetica,sans-Serif" font-size="10.00">#</text>
<text text-anchor="start" x="29" y="-443" font-family="Helvetica,sans-Serif" font-size="10.00">val()</text>
<polygon fill="#666666" stroke="#666666" points="0,-573 0,-573 140,-573 140,-573 0,-573"/>
<polygon fill="#666666" stroke="#666666" points="0,-558 0,-558 140,-558 140,-558 0,-558"/>
<polygon fill="none" stroke="#666666" points="0,-436 0,-590 140,-590 140,-436 0,-436"/>
</a>
</g>
</g>
<!-- Node3&#45;&gt;Node2 -->
<g id="edge2_Node000002_Node000003" class="edge">
<title>Node3&#45;&gt;Node2</title>
<g id="a_edge2_Node000002_Node000003"><a xlink:title=" ">
<path fill="none" stroke="#63b8ff" d="M70,-425.72C70,-417.33 70,-408.77 70,-400.23"/>
<polygon fill="none" stroke="#63b8ff" points="66.5,-425.85 70,-435.85 73.5,-425.85 66.5,-425.85"/>
</a>
</g>
</g>
</g>
</svg>
