<?xml version="1.0" encoding="UTF-8" standalone="no"?>
<!DOCTYPE svg PUBLIC "-//W3C//DTD SVG 1.1//EN"
 "http://www.w3.org/Graphics/SVG/1.1/DTD/svg11.dtd">
<!-- Generated by graphviz version 2.43.0 (0)
 -->
<!-- Title: sen::Callback&lt; InfoClass, Args &gt; Pages: 1 -->
<svg width="159pt" height="339pt"
 viewBox="0.00 0.00 159.00 339.00" xmlns="http://www.w3.org/2000/svg" xmlns:xlink="http://www.w3.org/1999/xlink">
<g id="graph0" class="graph" transform="scale(1 1) rotate(0) translate(4 335)">
<title>sen::Callback&lt; InfoClass, Args &gt;</title>
<!-- Node1 -->
<g id="Node000001" class="node">
<title>Node1</title>
<g id="a_Node000001"><a xlink:title="Base class for event or method callbacks. It stores the queue where to push the response....">
<polygon fill="#999999" stroke="transparent" points="143,-150 8,-150 8,0 143,0 143,-150"/>
<text text-anchor="start" x="13.5" y="-138" font-family="Helvetica,sans-Serif" font-size="10.00">sen::Callback&lt; InfoClass,</text>
<text text-anchor="start" x="57.5" y="-127" font-family="Helvetica,sans-Serif" font-size="10.00"> Args &gt;</text>
<text text-anchor="start" x="74" y="-112" font-family="Helvetica,sans-Serif" font-size="10.00"> </text>
<text text-anchor="start" x="26.5" y="-97" font-family="Helvetica,sans-Serif" font-size="10.00">+</text>
<text text-anchor="start" x="53.5" y="-97" font-family="Helvetica,sans-Serif" font-size="10.00">Callback()</text>
<text text-anchor="start" x="26.5" y="-82" font-family="Helvetica,sans-Serif" font-size="10.00">+</text>
<text text-anchor="start" x="53.5" y="-82" font-family="Helvetica,sans-Serif" font-size="10.00">~Callback()</text>
<text text-anchor="start" x="26.5" y="-67" font-family="Helvetica,sans-Serif" font-size="10.00">+</text>
<text text-anchor="start" x="53.5" y="-67" font-family="Helvetica,sans-Serif" font-size="10.00">Callback()</text>
<text text-anchor="start" x="26.5" y="-52" font-family="Helvetica,sans-Serif" font-size="10.00">+</text>
<text text-anchor="start" x="53.5" y="-52" font-family="Helvetica,sans-Serif" font-size="10.00">Callback()</text>
<text text-anchor="start" x="26.5" y="-37" font-family="Helvetica,sans-Serif" font-size="10.00">+</text>
<text text-anchor="start" x="53.5" y="-37" font-family="Helvetica,sans-Serif" font-size="10.00">Callback()</text>
<text text-anchor="start" x="26.5" y="-22" font-family="Helvetica,sans-Serif" font-size="10.00">+</text>
<text text-anchor="start" x="53.5" y="-22" font-family="Helvetica,sans-Serif" font-size="10.00">Callback()</text>
<text text-anchor="start" x="26.5" y="-7" font-family="Helvetica,sans-Serif" font-size="10.00">+</text>
<text text-anchor="start" x="53.5" y="-7" font-family="Helvetica,sans-Serif" font-size="10.00">invoke()</text>
<polygon fill="#666666" stroke="#666666" points="8.5,-122 8.5,-122 143.5,-122 143.5,-122 8.5,-122"/>
<polygon fill="#666666" stroke="#666666" points="8.5,-107 8.5,-107 143.5,-107 143.5,-107 8.5,-107"/>
<polygon fill="none" stroke="#666666" points="8,0 8,-150 143,-150 143,0 8,0"/>
</a>
</g>
</g>
<!-- Node2 -->
<g id="Node000002" class="node">
<title>Node2</title>
<g id="a_Node000002"><a xlink:title=" ">
<polygon fill="white" stroke="transparent" points="139.5,-235 11.5,-235 11.5,-186 139.5,-186 139.5,-235"/>
<text text-anchor="start" x="16.5" y="-222.5" font-family="Helvetica,sans-Serif" font-size="10.00">sen::impl::CallbackBase</text>
<text text-anchor="start" x="73.5" y="-207.5" font-family="Helvetica,sans-Serif" font-size="10.00"> </text>
<text text-anchor="start" x="73.5" y="-192.5" font-family="Helvetica,sans-Serif" font-size="10.00"> </text>
<polygon fill="#666666" stroke="#666666" points="11.5,-217.5 11.5,-217.5 139.5,-217.5 139.5,-217.5 11.5,-217.5"/>
<polygon fill="#666666" stroke="#666666" points="11.5,-202.5 11.5,-202.5 139.5,-202.5 139.5,-202.5 11.5,-202.5"/>
<polygon fill="none" stroke="#666666" points="11.5,-186 11.5,-235 139.5,-235 139.5,-186 11.5,-186"/>
</a>
</g>
</g>
<!-- Node2&#45;&gt;Node1 -->
<g id="edge1_Node000001_Node000002" class="edge">
<title>Node2&#45;&gt;Node1</title>
<g id="a_edge1_Node000001_Node000002"><a xlink:title=" ">
<path fill="none" stroke="#63b8ff" d="M75.5,-175.69C75.5,-167.75 75.5,-158.98 75.5,-150.03"/>
<polygon fill="none" stroke="#63b8ff" points="72,-175.94 75.5,-185.94 79,-175.94 72,-175.94"/>
</a>
</g>
</g>
<!-- Node3 -->
<g id="Node000003" class="node">
<title>Node3</title>
<g id="a_Node000003"><a xlink:title=" ">
<polygon fill="white" stroke="transparent" points="151,-331 0,-331 0,-271 151,-271 151,-331"/>
<text text-anchor="start" x="5.5" y="-319" font-family="Helvetica,sans-Serif" font-size="10.00">std::enable_shared</text>
<text text-anchor="start" x="5.5" y="-308" font-family="Helvetica,sans-Serif" font-size="10.00">_from_this&lt; CallbackBase &gt;</text>
<text text-anchor="start" x="74" y="-293" font-family="Helvetica,sans-Serif" font-size="10.00"> </text>
<text text-anchor="start" x="74" y="-278" font-family="Helvetica,sans-Serif" font-size="10.00"> </text>
<polygon fill="#666666" stroke="#666666" points="0.5,-303 0.5,-303 151.5,-303 151.5,-303 0.5,-303"/>
<polygon fill="#666666" stroke="#666666" points="0.5,-288 0.5,-288 151.5,-288 151.5,-288 0.5,-288"/>
<polygon fill="none" stroke="#666666" points="0,-271 0,-331 151,-331 151,-271 0,-271"/>
</a>
</g>
</g>
<!-- Node3&#45;&gt;Node2 -->
<g id="edge2_Node000002_Node000003" class="edge">
<title>Node3&#45;&gt;Node2</title>
<g id="a_edge2_Node000002_Node000003"><a xlink:title=" ">
<path fill="none" stroke="#63b8ff" d="M75.5,-260.3C75.5,-251.75 75.5,-242.97 75.5,-235.26"/>
<polygon fill="none" stroke="#63b8ff" points="72,-260.53 75.5,-270.53 79,-260.53 72,-260.53"/>
</a>
</g>
</g>
</g>
</svg>
