<?xml version="1.0" encoding="UTF-8" standalone="no"?>
<!DOCTYPE svg PUBLIC "-//W3C//DTD SVG 1.1//EN"
 "http://www.w3.org/Graphics/SVG/1.1/DTD/svg11.dtd">
<!-- Generated by graphviz version 2.43.0 (0)
 -->
<!-- Title: sen::StrongType&lt; T, D &gt; Pages: 1 -->
<svg width="136pt" height="397pt"
 viewBox="0.00 0.00 136.00 397.00" xmlns="http://www.w3.org/2000/svg" xmlns:xlink="http://www.w3.org/1999/xlink">
<g id="graph0" class="graph" transform="scale(1 1) rotate(0) translate(4 393)">
<title>sen::StrongType&lt; T, D &gt;</title>
<!-- Node1 -->
<g id="Node000001" class="node">
<title>Node1</title>
<g id="a_Node000001"><a xlink:title="CRTP class that wraps T to make it a strong type.">
<polygon fill="#999999" stroke="transparent" points="123,-199 5,-199 5,0 123,0 123,-199"/>
<text text-anchor="start" x="10" y="-186.5" font-family="Helvetica,sans-Serif" font-size="10.00">sen::StrongType&lt; T, D &gt;</text>
<text text-anchor="start" x="62" y="-171.5" font-family="Helvetica,sans-Serif" font-size="10.00"> </text>
<text text-anchor="start" x="18" y="-156.5" font-family="Helvetica,sans-Serif" font-size="10.00">+</text>
<text text-anchor="start" x="38" y="-156.5" font-family="Helvetica,sans-Serif" font-size="10.00">~StrongType()</text>
<text text-anchor="start" x="18" y="-141.5" font-family="Helvetica,sans-Serif" font-size="10.00">+</text>
<text text-anchor="start" x="38" y="-141.5" font-family="Helvetica,sans-Serif" font-size="10.00">operator==()</text>
<text text-anchor="start" x="18" y="-126.5" font-family="Helvetica,sans-Serif" font-size="10.00">+</text>
<text text-anchor="start" x="38" y="-126.5" font-family="Helvetica,sans-Serif" font-size="10.00">operator!=()</text>
<text text-anchor="start" x="18" y="-111.5" font-family="Helvetica,sans-Serif" font-size="10.00">+</text>
<text text-anchor="start" x="38" y="-111.5" font-family="Helvetica,sans-Serif" font-size="10.00">operator&lt;()</text>
<text text-anchor="start" x="18" y="-96.5" font-family="Helvetica,sans-Serif" font-size="10.00">+</text>
<text text-anchor="start" x="38" y="-96.5" font-family="Helvetica,sans-Serif" font-size="10.00">operator&lt;=()</text>
<text text-anchor="start" x="18" y="-81.5" font-family="Helvetica,sans-Serif" font-size="10.00">+</text>
<text text-anchor="start" x="38" y="-81.5" font-family="Helvetica,sans-Serif" font-size="10.00">operator&gt;()</text>
<text text-anchor="start" x="18" y="-66.5" font-family="Helvetica,sans-Serif" font-size="10.00">+</text>
<text text-anchor="start" x="38" y="-66.5" font-family="Helvetica,sans-Serif" font-size="10.00">operator&gt;=()</text>
<text text-anchor="start" x="18" y="-51.5" font-family="Helvetica,sans-Serif" font-size="10.00">+</text>
<text text-anchor="start" x="38" y="-51.5" font-family="Helvetica,sans-Serif" font-size="10.00">operator++()</text>
<text text-anchor="start" x="18" y="-36.5" font-family="Helvetica,sans-Serif" font-size="10.00">+</text>
<text text-anchor="start" x="38" y="-36.5" font-family="Helvetica,sans-Serif" font-size="10.00">operator&#45;&#45;()</text>
<text text-anchor="start" x="18" y="-21.5" font-family="Helvetica,sans-Serif" font-size="10.00">+</text>
<text text-anchor="start" x="38" y="-21.5" font-family="Helvetica,sans-Serif" font-size="10.00">operator++()</text>
<text text-anchor="start" x="38" y="-6.5" font-family="Helvetica,sans-Serif" font-size="10.00">and 8 more...</text>
<polygon fill="#666666" stroke="#666666" points="5,-181.5 5,-181.5 123,-181.5 123,-181.5 5,-181.5"/>
<polygon fill="#666666" stroke="#666666" points="5,-166.5 5,-166.5 123,-166.5 123,-166.5 5,-166.5"/>
<polygon fill="none" stroke="#666666" points="5,0 5,-199 123,-199 123,0 5,0"/>
</a>
</g>
</g>
<!-- Node2 -->
<g id="Node000002" class="node">
<title>Node2</title>
<g id="a_Node000002"><a xlink:href="classsen_1_1_strong_type_base.html" target="_top" xlink:title="Wraps T to make it a strong type.">
<polygon fill="white" stroke="transparent" points="128,-389 0,-389 0,-235 128,-235 128,-389"/>
<text text-anchor="start" x="5" y="-377" font-family="Helvetica,sans-Serif" font-size="10.00">sen::StrongTypeBase&lt; T &gt;</text>
<text text-anchor="start" x="62" y="-362" font-family="Helvetica,sans-Serif" font-size="10.00"> </text>
<text text-anchor="start" x="10" y="-347" font-family="Helvetica,sans-Serif" font-size="10.00">+</text>
<text text-anchor="start" x="27" y="-347" font-family="Helvetica,sans-Serif" font-size="10.00">StrongTypeBase()</text>
<text text-anchor="start" x="10" y="-332" font-family="Helvetica,sans-Serif" font-size="10.00">+</text>
<text text-anchor="start" x="27" y="-332" font-family="Helvetica,sans-Serif" font-size="10.00">StrongTypeBase()</text>
<text text-anchor="start" x="10" y="-317" font-family="Helvetica,sans-Serif" font-size="10.00">+</text>
<text text-anchor="start" x="27" y="-317" font-family="Helvetica,sans-Serif" font-size="10.00">~StrongTypeBase()</text>
<text text-anchor="start" x="10" y="-302" font-family="Helvetica,sans-Serif" font-size="10.00">+</text>
<text text-anchor="start" x="27" y="-302" font-family="Helvetica,sans-Serif" font-size="10.00">get()</text>
<text text-anchor="start" x="10" y="-287" font-family="Helvetica,sans-Serif" font-size="10.00">+</text>
<text text-anchor="start" x="27" y="-287" font-family="Helvetica,sans-Serif" font-size="10.00">set()</text>
<text text-anchor="start" x="10" y="-272" font-family="Helvetica,sans-Serif" font-size="10.00">+</text>
<text text-anchor="start" x="27" y="-272" font-family="Helvetica,sans-Serif" font-size="10.00">set()</text>
<text text-anchor="start" x="10.5" y="-257" font-family="Helvetica,sans-Serif" font-size="10.00">#</text>
<text text-anchor="start" x="27" y="-257" font-family="Helvetica,sans-Serif" font-size="10.00">val()</text>
<text text-anchor="start" x="10.5" y="-242" font-family="Helvetica,sans-Serif" font-size="10.00">#</text>
<text text-anchor="start" x="27" y="-242" font-family="Helvetica,sans-Serif" font-size="10.00">val()</text>
<polygon fill="#666666" stroke="#666666" points="0,-372 0,-372 128,-372 128,-372 0,-372"/>
<polygon fill="#666666" stroke="#666666" points="0,-357 0,-357 128,-357 128,-357 0,-357"/>
<polygon fill="none" stroke="#666666" points="0,-235 0,-389 128,-389 128,-235 0,-235"/>
</a>
</g>
</g>
<!-- Node2&#45;&gt;Node1 -->
<g id="edge1_Node000001_Node000002" class="edge">
<title>Node2&#45;&gt;Node1</title>
<g id="a_edge1_Node000001_Node000002"><a xlink:title=" ">
<path fill="none" stroke="#63b8ff" d="M64,-224.6C64,-216.23 64,-207.7 64,-199.22"/>
<polygon fill="none" stroke="#63b8ff" points="60.5,-224.71 64,-234.71 67.5,-224.71 60.5,-224.71"/>
</a>
</g>
</g>
</g>
</svg>
