<?xml version="1.0" encoding="UTF-8" standalone="no"?>
<!DOCTYPE svg PUBLIC "-//W3C//DTD SVG 1.1//EN"
 "http://www.w3.org/Graphics/SVG/1.1/DTD/svg11.dtd">
<!-- Generated by graphviz version 2.43.0 (0)
 -->
<!-- Title: sen::test::type_clash::App3ClassImpl Pages: 1 -->
<svg width="145pt" height="194pt"
 viewBox="0.00 0.00 145.00 194.00" xmlns="http://www.w3.org/2000/svg" xmlns:xlink="http://www.w3.org/1999/xlink">
<g id="graph0" class="graph" transform="scale(1 1) rotate(0) translate(4 190)">
<title>sen::test::type_clash::App3ClassImpl</title>
<!-- Node1 -->
<g id="Node000001" class="node">
<title>Node1</title>
<g id="a_Node000001"><a xlink:title=" ">
<polygon fill="#999999" stroke="transparent" points="125.5,-90 11.5,-90 11.5,0 125.5,0 125.5,-90"/>
<text text-anchor="start" x="22.5" y="-78" font-family="Helvetica,sans-Serif" font-size="10.00">sen::test::type_clash</text>
<text text-anchor="start" x="32" y="-67" font-family="Helvetica,sans-Serif" font-size="10.00">::App3ClassImpl</text>
<text text-anchor="start" x="66.5" y="-52" font-family="Helvetica,sans-Serif" font-size="10.00"> </text>
<text text-anchor="start" x="15.5" y="-37" font-family="Helvetica,sans-Serif" font-size="10.00">+</text>
<text text-anchor="start" x="26.5" y="-37" font-family="Helvetica,sans-Serif" font-size="10.00">~App3ClassImpl()</text>
<text text-anchor="start" x="15.5" y="-22" font-family="Helvetica,sans-Serif" font-size="10.00">+</text>
<text text-anchor="start" x="26.5" y="-22" font-family="Helvetica,sans-Serif" font-size="10.00">registered()</text>
<text text-anchor="start" x="15.5" y="-7" font-family="Helvetica,sans-Serif" font-size="10.00">+</text>
<text text-anchor="start" x="26.5" y="-7" font-family="Helvetica,sans-Serif" font-size="10.00">shutdownKernelImpl()</text>
<polygon fill="#666666" stroke="#666666" points="11.5,-62 11.5,-62 125.5,-62 125.5,-62 11.5,-62"/>
<polygon fill="#666666" stroke="#666666" points="11.5,-47 11.5,-47 125.5,-47 125.5,-47 11.5,-47"/>
<polygon fill="none" stroke="#666666" points="11.5,0 11.5,-90 125.5,-90 125.5,0 11.5,0"/>
</a>
</g>
</g>
<!-- Node2 -->
<g id="Node000002" class="node">
<title>Node2</title>
<g id="a_Node000002"><a xlink:title=" ">
<polygon fill="white" stroke="transparent" points="137,-186 0,-186 0,-126 137,-126 137,-186"/>
<text text-anchor="start" x="5.5" y="-174" font-family="Helvetica,sans-Serif" font-size="10.00">App3ClassBase&lt; ClashType</text>
<text text-anchor="start" x="55" y="-163" font-family="Helvetica,sans-Serif" font-size="10.00">Impl &gt;</text>
<text text-anchor="start" x="67" y="-148" font-family="Helvetica,sans-Serif" font-size="10.00"> </text>
<text text-anchor="start" x="67" y="-133" font-family="Helvetica,sans-Serif" font-size="10.00"> </text>
<polygon fill="#666666" stroke="#666666" points="0.5,-158 0.5,-158 137.5,-158 137.5,-158 0.5,-158"/>
<polygon fill="#666666" stroke="#666666" points="0.5,-143 0.5,-143 137.5,-143 137.5,-143 0.5,-143"/>
<polygon fill="none" stroke="#666666" points="0,-126 0,-186 137,-186 137,-126 0,-126"/>
</a>
</g>
</g>
<!-- Node2&#45;&gt;Node1 -->
<g id="edge1_Node000001_Node000002" class="edge">
<title>Node2&#45;&gt;Node1</title>
<g id="a_edge1_Node000001_Node000002"><a xlink:title=" ">
<path fill="none" stroke="#63b8ff" d="M68.5,-115.62C68.5,-107.32 68.5,-98.52 68.5,-90.06"/>
<polygon fill="none" stroke="#63b8ff" points="65,-115.79 68.5,-125.79 72,-115.79 65,-115.79"/>
</a>
</g>
</g>
</g>
</svg>
