<?xml version="1.0" encoding="UTF-8" standalone="no"?>
<!DOCTYPE svg PUBLIC "-//W3C//DTD SVG 1.1//EN"
 "http://www.w3.org/Graphics/SVG/1.1/DTD/svg11.dtd">
<!-- Generated by graphviz version 2.43.0 (0)
 -->
<!-- Title: sen::ObjectProvider Pages: 1 -->
<svg width="201pt" height="796pt"
 viewBox="0.00 0.00 201.00 796.00" xmlns="http://www.w3.org/2000/svg" xmlns:xlink="http://www.w3.org/1999/xlink">
<g id="graph0" class="graph" transform="scale(1 1) rotate(0) translate(4 792)">
<title>sen::ObjectProvider</title>
<!-- Node1 -->
<g id="Node000001" class="node">
<title>Node1</title>
<g id="a_Node000001"><a xlink:title="Base class for an entity that is able to produce objects.">
<polygon fill="#999999" stroke="transparent" points="193,-692 0,-692 0,-407 193,-407 193,-692"/>
<text text-anchor="start" x="49" y="-679.5" font-family="Helvetica,sans-Serif" font-size="10.00">sen::ObjectProvider</text>
<text text-anchor="start" x="95" y="-664.5" font-family="Helvetica,sans-Serif" font-size="10.00"> </text>
<text text-anchor="start" x="4.5" y="-649.5" font-family="Helvetica,sans-Serif" font-size="10.00">+</text>
<text text-anchor="start" x="17.5" y="-649.5" font-family="Helvetica,sans-Serif" font-size="10.00">ObjectProvider()</text>
<text text-anchor="start" x="4.5" y="-634.5" font-family="Helvetica,sans-Serif" font-size="10.00">+</text>
<text text-anchor="start" x="17.5" y="-634.5" font-family="Helvetica,sans-Serif" font-size="10.00">~ObjectProvider()</text>
<text text-anchor="start" x="4.5" y="-619.5" font-family="Helvetica,sans-Serif" font-size="10.00">+</text>
<text text-anchor="start" x="17.5" y="-619.5" font-family="Helvetica,sans-Serif" font-size="10.00">addListener()</text>
<text text-anchor="start" x="4.5" y="-604.5" font-family="Helvetica,sans-Serif" font-size="10.00">+</text>
<text text-anchor="start" x="17.5" y="-604.5" font-family="Helvetica,sans-Serif" font-size="10.00">removeListener()</text>
<text text-anchor="start" x="4.5" y="-589.5" font-family="Helvetica,sans-Serif" font-size="10.00">+</text>
<text text-anchor="start" x="17.5" y="-589.5" font-family="Helvetica,sans-Serif" font-size="10.00">hasListener()</text>
<text text-anchor="start" x="4.5" y="-574.5" font-family="Helvetica,sans-Serif" font-size="10.00">+</text>
<text text-anchor="start" x="17.5" y="-574.5" font-family="Helvetica,sans-Serif" font-size="10.00">hasListeners()</text>
<text text-anchor="start" x="4.5" y="-559.5" font-family="Helvetica,sans-Serif" font-size="10.00">#</text>
<text text-anchor="start" x="17.5" y="-559.5" font-family="Helvetica,sans-Serif" font-size="10.00">notifyObjectsAdded()</text>
<text text-anchor="start" x="4.5" y="-544.5" font-family="Helvetica,sans-Serif" font-size="10.00">#</text>
<text text-anchor="start" x="17.5" y="-544.5" font-family="Helvetica,sans-Serif" font-size="10.00">notifyObjectsRemoved()</text>
<text text-anchor="start" x="4.5" y="-529.5" font-family="Helvetica,sans-Serif" font-size="10.00">#</text>
<text text-anchor="start" x="17.5" y="-529.5" font-family="Helvetica,sans-Serif" font-size="10.00">listenerAdded()</text>
<text text-anchor="start" x="4.5" y="-514.5" font-family="Helvetica,sans-Serif" font-size="10.00">#</text>
<text text-anchor="start" x="17.5" y="-514.5" font-family="Helvetica,sans-Serif" font-size="10.00">listenerRemoved()</text>
<text text-anchor="start" x="4.5" y="-499.5" font-family="Helvetica,sans-Serif" font-size="10.00">#</text>
<text text-anchor="start" x="17.5" y="-499.5" font-family="Helvetica,sans-Serif" font-size="10.00">notifyAddedOnExistingObjects()</text>
<text text-anchor="start" x="4.5" y="-484.5" font-family="Helvetica,sans-Serif" font-size="10.00">#</text>
<text text-anchor="start" x="17.5" y="-484.5" font-family="Helvetica,sans-Serif" font-size="10.00">notifyRemovedOnExistingObjects()</text>
<text text-anchor="start" x="4.5" y="-469.5" font-family="Helvetica,sans-Serif" font-size="10.00">#</text>
<text text-anchor="start" x="17.5" y="-469.5" font-family="Helvetica,sans-Serif" font-size="10.00">notifyRemovedOnExistingObjects</text>
<text text-anchor="start" x="17.5" y="-458.5" font-family="Helvetica,sans-Serif" font-size="10.00">ForAllListeners()</text>
<text text-anchor="start" x="4.5" y="-443.5" font-family="Helvetica,sans-Serif" font-size="10.00">#</text>
<text text-anchor="start" x="17.5" y="-443.5" font-family="Helvetica,sans-Serif" font-size="10.00">callOnObjectsAdded()</text>
<text text-anchor="start" x="4.5" y="-428.5" font-family="Helvetica,sans-Serif" font-size="10.00">#</text>
<text text-anchor="start" x="17.5" y="-428.5" font-family="Helvetica,sans-Serif" font-size="10.00">callOnObjectsRemoved()</text>
<text text-anchor="start" x="4.5" y="-413.5" font-family="Helvetica,sans-Serif" font-size="10.00">#</text>
<text text-anchor="start" x="17.5" y="-413.5" font-family="Helvetica,sans-Serif" font-size="10.00">getListeners()</text>
<polygon fill="#666666" stroke="#666666" points="0.5,-674.5 0.5,-674.5 193.5,-674.5 193.5,-674.5 0.5,-674.5"/>
<polygon fill="#666666" stroke="#666666" points="0.5,-659.5 0.5,-659.5 193.5,-659.5 193.5,-659.5 0.5,-659.5"/>
<polygon fill="none" stroke="#666666" points="0,-407 0,-692 193,-692 193,-407 0,-407"/>
</a>
</g>
</g>
<!-- Node3 -->
<g id="Node000003" class="node">
<title>Node3</title>
<g id="a_Node000003"><a xlink:href="classsen_1_1_object_mux.html" target="_top" xlink:title="Converts multiple object providers into one. Providers might reside in different threads....">
<polygon fill="white" stroke="transparent" points="193,-371 0,-371 0,0 193,0 193,-371"/>
<text text-anchor="start" x="59" y="-358.5" font-family="Helvetica,sans-Serif" font-size="10.00">sen::ObjectMux</text>
<text text-anchor="start" x="95" y="-343.5" font-family="Helvetica,sans-Serif" font-size="10.00"> </text>
<text text-anchor="start" x="4.5" y="-328.5" font-family="Helvetica,sans-Serif" font-size="10.00">+</text>
<text text-anchor="start" x="17.5" y="-328.5" font-family="Helvetica,sans-Serif" font-size="10.00">ObjectMux()</text>
<text text-anchor="start" x="4.5" y="-313.5" font-family="Helvetica,sans-Serif" font-size="10.00">+</text>
<text text-anchor="start" x="17.5" y="-313.5" font-family="Helvetica,sans-Serif" font-size="10.00">~ObjectMux()</text>
<text text-anchor="start" x="4.5" y="-298.5" font-family="Helvetica,sans-Serif" font-size="10.00">+</text>
<text text-anchor="start" x="17.5" y="-298.5" font-family="Helvetica,sans-Serif" font-size="10.00">addListener()</text>
<text text-anchor="start" x="4.5" y="-283.5" font-family="Helvetica,sans-Serif" font-size="10.00">+</text>
<text text-anchor="start" x="17.5" y="-283.5" font-family="Helvetica,sans-Serif" font-size="10.00">removeListener()</text>
<text text-anchor="start" x="4.5" y="-268.5" font-family="Helvetica,sans-Serif" font-size="10.00">+</text>
<text text-anchor="start" x="17.5" y="-268.5" font-family="Helvetica,sans-Serif" font-size="10.00">hasListener()</text>
<text text-anchor="start" x="4.5" y="-253.5" font-family="Helvetica,sans-Serif" font-size="10.00">+</text>
<text text-anchor="start" x="17.5" y="-253.5" font-family="Helvetica,sans-Serif" font-size="10.00">hasListeners()</text>
<text text-anchor="start" x="4.5" y="-238.5" font-family="Helvetica,sans-Serif" font-size="10.00">+</text>
<text text-anchor="start" x="17.5" y="-238.5" font-family="Helvetica,sans-Serif" font-size="10.00">addMuxedListener()</text>
<text text-anchor="start" x="4.5" y="-223.5" font-family="Helvetica,sans-Serif" font-size="10.00">+</text>
<text text-anchor="start" x="17.5" y="-223.5" font-family="Helvetica,sans-Serif" font-size="10.00">removeMuxedListener()</text>
<text text-anchor="start" x="4.5" y="-208.5" font-family="Helvetica,sans-Serif" font-size="10.00">+</text>
<text text-anchor="start" x="17.5" y="-208.5" font-family="Helvetica,sans-Serif" font-size="10.00">hasMuxedListener()</text>
<text text-anchor="start" x="4.5" y="-193.5" font-family="Helvetica,sans-Serif" font-size="10.00">#</text>
<text text-anchor="start" x="17.5" y="-193.5" font-family="Helvetica,sans-Serif" font-size="10.00">notifyAddedOnExistingObjects()</text>
<text text-anchor="start" x="4.5" y="-178.5" font-family="Helvetica,sans-Serif" font-size="10.00">#</text>
<text text-anchor="start" x="17.5" y="-178.5" font-family="Helvetica,sans-Serif" font-size="10.00">notifyRemovedOnExistingObjects()</text>
<text text-anchor="start" x="4.5" y="-163.5" font-family="Helvetica,sans-Serif" font-size="10.00">#</text>
<text text-anchor="start" x="17.5" y="-163.5" font-family="Helvetica,sans-Serif" font-size="10.00">notifyObjectsAdded()</text>
<text text-anchor="start" x="4.5" y="-148.5" font-family="Helvetica,sans-Serif" font-size="10.00">#</text>
<text text-anchor="start" x="17.5" y="-148.5" font-family="Helvetica,sans-Serif" font-size="10.00">notifyObjectsRemoved()</text>
<text text-anchor="start" x="4.5" y="-133.5" font-family="Helvetica,sans-Serif" font-size="10.00">#</text>
<text text-anchor="start" x="17.5" y="-133.5" font-family="Helvetica,sans-Serif" font-size="10.00">notifyMuxedAddedOnExisting</text>
<text text-anchor="start" x="17.5" y="-122.5" font-family="Helvetica,sans-Serif" font-size="10.00">Objects()</text>
<text text-anchor="start" x="4.5" y="-107.5" font-family="Helvetica,sans-Serif" font-size="10.00">#</text>
<text text-anchor="start" x="17.5" y="-107.5" font-family="Helvetica,sans-Serif" font-size="10.00">notifyMuxedRemovedOnExisting</text>
<text text-anchor="start" x="17.5" y="-96.5" font-family="Helvetica,sans-Serif" font-size="10.00">Objects()</text>
<text text-anchor="start" x="4.5" y="-81.5" font-family="Helvetica,sans-Serif" font-size="10.00">#</text>
<text text-anchor="start" x="17.5" y="-81.5" font-family="Helvetica,sans-Serif" font-size="10.00">notifyExistingObjectsReadded()</text>
<text text-anchor="start" x="4.5" y="-66.5" font-family="Helvetica,sans-Serif" font-size="10.00">#</text>
<text text-anchor="start" x="17.5" y="-66.5" font-family="Helvetica,sans-Serif" font-size="10.00">notifyObjectsRefCountReduced()</text>
<text text-anchor="start" x="4.5" y="-51.5" font-family="Helvetica,sans-Serif" font-size="10.00">#</text>
<text text-anchor="start" x="17.5" y="-51.5" font-family="Helvetica,sans-Serif" font-size="10.00">callOnExistingObjectsReadded()</text>
<text text-anchor="start" x="4.5" y="-36.5" font-family="Helvetica,sans-Serif" font-size="10.00">#</text>
<text text-anchor="start" x="17.5" y="-36.5" font-family="Helvetica,sans-Serif" font-size="10.00">callOnObjectsRefCountReduced()</text>
<text text-anchor="start" x="4.5" y="-21.5" font-family="Helvetica,sans-Serif" font-size="10.00">#</text>
<text text-anchor="start" x="17.5" y="-21.5" font-family="Helvetica,sans-Serif" font-size="10.00">onObjectsAdded()</text>
<text text-anchor="start" x="4.5" y="-6.5" font-family="Helvetica,sans-Serif" font-size="10.00">#</text>
<text text-anchor="start" x="17.5" y="-6.5" font-family="Helvetica,sans-Serif" font-size="10.00">onObjectsRemoved()</text>
<polygon fill="#666666" stroke="#666666" points="0.5,-353.5 0.5,-353.5 193.5,-353.5 193.5,-353.5 0.5,-353.5"/>
<polygon fill="#666666" stroke="#666666" points="0.5,-338.5 0.5,-338.5 193.5,-338.5 193.5,-338.5 0.5,-338.5"/>
<polygon fill="none" stroke="#666666" points="0,0 0,-371 193,-371 193,0 0,0"/>
</a>
</g>
</g>
<!-- Node1&#45;&gt;Node3 -->
<g id="edge2_Node000001_Node000003" class="edge">
<title>Node1&#45;&gt;Node3</title>
<g id="a_edge2_Node000001_Node000003"><a xlink:title=" ">
<path fill="none" stroke="#63b8ff" d="M96.5,-396.98C96.5,-388.42 96.5,-379.76 96.5,-371.1"/>
<polygon fill="none" stroke="#63b8ff" points="93,-396.99 96.5,-406.99 100,-396.99 93,-396.99"/>
</a>
</g>
</g>
<!-- Node2 -->
<g id="Node000002" class="node">
<title>Node2</title>
<g id="a_Node000002"><a xlink:title=" ">
<polygon fill="white" stroke="transparent" points="175,-788 18,-788 18,-728 175,-728 175,-788"/>
<text text-anchor="start" x="23.5" y="-776" font-family="Helvetica,sans-Serif" font-size="10.00">std::enable_shared</text>
<text text-anchor="start" x="23.5" y="-765" font-family="Helvetica,sans-Serif" font-size="10.00">_from_this&lt; ObjectProvider &gt;</text>
<text text-anchor="start" x="95" y="-750" font-family="Helvetica,sans-Serif" font-size="10.00"> </text>
<text text-anchor="start" x="95" y="-735" font-family="Helvetica,sans-Serif" font-size="10.00"> </text>
<polygon fill="#666666" stroke="#666666" points="18.5,-760 18.5,-760 175.5,-760 175.5,-760 18.5,-760"/>
<polygon fill="#666666" stroke="#666666" points="18.5,-745 18.5,-745 175.5,-745 175.5,-745 18.5,-745"/>
<polygon fill="none" stroke="#666666" points="18,-728 18,-788 175,-788 175,-728 18,-728"/>
</a>
</g>
</g>
<!-- Node2&#45;&gt;Node1 -->
<g id="edge1_Node000001_Node000002" class="edge">
<title>Node2&#45;&gt;Node1</title>
<g id="a_edge1_Node000001_Node000002"><a xlink:title=" ">
<path fill="none" stroke="#63b8ff" d="M96.5,-717.69C96.5,-709.85 96.5,-701.2 96.5,-692.08"/>
<polygon fill="none" stroke="#63b8ff" points="93,-717.85 96.5,-727.85 100,-717.85 93,-717.85"/>
</a>
</g>
</g>
</g>
</svg>
