<?xml version="1.0" encoding="UTF-8" standalone="no"?>
<!DOCTYPE svg PUBLIC "-//W3C//DTD SVG 1.1//EN"
 "http://www.w3.org/Graphics/SVG/1.1/DTD/svg11.dtd">
<!-- Generated by graphviz version 2.43.0 (0)
 -->
<!-- Title: sen::InputStreamBase Pages: 1 -->
<svg width="310pt" height="468pt"
 viewBox="0.00 0.00 310.00 468.00" xmlns="http://www.w3.org/2000/svg" xmlns:xlink="http://www.w3.org/1999/xlink">
<g id="graph0" class="graph" transform="scale(1 1) rotate(0) translate(4 464)">
<title>sen::InputStreamBase</title>
<!-- Node1 -->
<g id="Node000001" class="node">
<title>Node1</title>
<g id="a_Node000001"><a xlink:title="Base class for input streams.">
<polygon fill="#999999" stroke="transparent" points="211.5,-460 90.5,-460 90.5,-306 211.5,-306 211.5,-460"/>
<text text-anchor="start" x="97.5" y="-448" font-family="Helvetica,sans-Serif" font-size="10.00">sen::InputStreamBase</text>
<text text-anchor="start" x="149.5" y="-433" font-family="Helvetica,sans-Serif" font-size="10.00"> </text>
<text text-anchor="start" x="95" y="-418" font-family="Helvetica,sans-Serif" font-size="10.00">+</text>
<text text-anchor="start" x="108" y="-418" font-family="Helvetica,sans-Serif" font-size="10.00">InputStreamBase()</text>
<text text-anchor="start" x="95" y="-403" font-family="Helvetica,sans-Serif" font-size="10.00">+</text>
<text text-anchor="start" x="108" y="-403" font-family="Helvetica,sans-Serif" font-size="10.00">~InputStreamBase()</text>
<text text-anchor="start" x="95" y="-388" font-family="Helvetica,sans-Serif" font-size="10.00">+</text>
<text text-anchor="start" x="108" y="-388" font-family="Helvetica,sans-Serif" font-size="10.00">advance()</text>
<text text-anchor="start" x="95" y="-373" font-family="Helvetica,sans-Serif" font-size="10.00">+</text>
<text text-anchor="start" x="108" y="-373" font-family="Helvetica,sans-Serif" font-size="10.00">tryAdvance()</text>
<text text-anchor="start" x="95" y="-358" font-family="Helvetica,sans-Serif" font-size="10.00">+</text>
<text text-anchor="start" x="108" y="-358" font-family="Helvetica,sans-Serif" font-size="10.00">atEnd()</text>
<text text-anchor="start" x="95" y="-343" font-family="Helvetica,sans-Serif" font-size="10.00">+</text>
<text text-anchor="start" x="108" y="-343" font-family="Helvetica,sans-Serif" font-size="10.00">getPosition()</text>
<text text-anchor="start" x="95" y="-328" font-family="Helvetica,sans-Serif" font-size="10.00">+</text>
<text text-anchor="start" x="108" y="-328" font-family="Helvetica,sans-Serif" font-size="10.00">setPosition()</text>
<text text-anchor="start" x="95" y="-313" font-family="Helvetica,sans-Serif" font-size="10.00">#</text>
<text text-anchor="start" x="108" y="-313" font-family="Helvetica,sans-Serif" font-size="10.00">reverse()</text>
<polygon fill="#666666" stroke="#666666" points="91,-443 91,-443 212,-443 212,-443 91,-443"/>
<polygon fill="#666666" stroke="#666666" points="91,-428 91,-428 212,-428 212,-428 91,-428"/>
<polygon fill="none" stroke="#666666" points="90.5,-306 90.5,-460 211.5,-460 211.5,-306 90.5,-306"/>
</a>
</g>
</g>
<!-- Node2 -->
<g id="Node000002" class="node">
<title>Node2</title>
<g id="a_Node000002"><a xlink:href="classsen_1_1_input_stream_template.html" target="_top" xlink:title=" ">
<polygon fill="white" stroke="transparent" points="142,-247.5 0,-247.5 0,-22.5 142,-22.5 142,-247.5"/>
<text text-anchor="start" x="6.5" y="-235" font-family="Helvetica,sans-Serif" font-size="10.00">sen::InputStreamTemplate</text>
<text text-anchor="start" x="30.5" y="-224" font-family="Helvetica,sans-Serif" font-size="10.00">&lt; LittleEndian &gt;</text>
<text text-anchor="start" x="69" y="-209" font-family="Helvetica,sans-Serif" font-size="10.00"> </text>
<text text-anchor="start" x="4" y="-194" font-family="Helvetica,sans-Serif" font-size="10.00">+</text>
<text text-anchor="start" x="17" y="-194" font-family="Helvetica,sans-Serif" font-size="10.00">~InputStreamTemplate()</text>
<text text-anchor="start" x="4" y="-179" font-family="Helvetica,sans-Serif" font-size="10.00">+</text>
<text text-anchor="start" x="17" y="-179" font-family="Helvetica,sans-Serif" font-size="10.00">readBool()</text>
<text text-anchor="start" x="4" y="-164" font-family="Helvetica,sans-Serif" font-size="10.00">+</text>
<text text-anchor="start" x="17" y="-164" font-family="Helvetica,sans-Serif" font-size="10.00">readInt8()</text>
<text text-anchor="start" x="4" y="-149" font-family="Helvetica,sans-Serif" font-size="10.00">+</text>
<text text-anchor="start" x="17" y="-149" font-family="Helvetica,sans-Serif" font-size="10.00">readUInt8()</text>
<text text-anchor="start" x="4" y="-134" font-family="Helvetica,sans-Serif" font-size="10.00">+</text>
<text text-anchor="start" x="17" y="-134" font-family="Helvetica,sans-Serif" font-size="10.00">readInt16()</text>
<text text-anchor="start" x="4" y="-119" font-family="Helvetica,sans-Serif" font-size="10.00">+</text>
<text text-anchor="start" x="17" y="-119" font-family="Helvetica,sans-Serif" font-size="10.00">readUInt16()</text>
<text text-anchor="start" x="4" y="-104" font-family="Helvetica,sans-Serif" font-size="10.00">+</text>
<text text-anchor="start" x="17" y="-104" font-family="Helvetica,sans-Serif" font-size="10.00">readInt32()</text>
<text text-anchor="start" x="4" y="-89" font-family="Helvetica,sans-Serif" font-size="10.00">+</text>
<text text-anchor="start" x="17" y="-89" font-family="Helvetica,sans-Serif" font-size="10.00">readUInt32()</text>
<text text-anchor="start" x="4" y="-74" font-family="Helvetica,sans-Serif" font-size="10.00">+</text>
<text text-anchor="start" x="17" y="-74" font-family="Helvetica,sans-Serif" font-size="10.00">readInt64()</text>
<text text-anchor="start" x="4" y="-59" font-family="Helvetica,sans-Serif" font-size="10.00">+</text>
<text text-anchor="start" x="17" y="-59" font-family="Helvetica,sans-Serif" font-size="10.00">readUInt64()</text>
<text text-anchor="start" x="17" y="-44" font-family="Helvetica,sans-Serif" font-size="10.00">and 10 more...</text>
<text text-anchor="start" x="4" y="-29" font-family="Helvetica,sans-Serif" font-size="10.00">#</text>
<text text-anchor="start" x="17" y="-29" font-family="Helvetica,sans-Serif" font-size="10.00">reverse()</text>
<polygon fill="#666666" stroke="#666666" points="0,-219 0,-219 142,-219 142,-219 0,-219"/>
<polygon fill="#666666" stroke="#666666" points="0,-204 0,-204 142,-204 142,-204 0,-204"/>
<polygon fill="none" stroke="#666666" points="0,-22.5 0,-247.5 142,-247.5 142,-22.5 0,-22.5"/>
</a>
</g>
</g>
<!-- Node1&#45;&gt;Node2 -->
<g id="edge1_Node000001_Node000002" class="edge">
<title>Node1&#45;&gt;Node2</title>
<g id="a_edge1_Node000001_Node000002"><a xlink:title=" ">
<path fill="none" stroke="#63b8ff" d="M123.12,-296.26C118.04,-280.65 112.68,-264.16 107.4,-247.93"/>
<polygon fill="none" stroke="#63b8ff" points="119.81,-297.42 126.24,-305.85 126.47,-295.26 119.81,-297.42"/>
</a>
</g>
</g>
<!-- Node3 -->
<g id="Node000003" class="node">
<title>Node3</title>
<g id="a_Node000003"><a xlink:href="classsen_1_1_input_stream_template.html" target="_top" xlink:title="Binary input stream. Deserializes values. In general, I/O operations throw on failure.">
<polygon fill="white" stroke="transparent" points="302,-270 160,-270 160,0 302,0 302,-270"/>
<text text-anchor="start" x="166.5" y="-258" font-family="Helvetica,sans-Serif" font-size="10.00">sen::InputStreamTemplate</text>
<text text-anchor="start" x="188.5" y="-247" font-family="Helvetica,sans-Serif" font-size="10.00">&lt; BufferEndian &gt;</text>
<text text-anchor="start" x="229" y="-232" font-family="Helvetica,sans-Serif" font-size="10.00"> </text>
<text text-anchor="start" x="164" y="-217" font-family="Helvetica,sans-Serif" font-size="10.00">+</text>
<text text-anchor="start" x="177" y="-217" font-family="Helvetica,sans-Serif" font-size="10.00">~InputStreamTemplate()</text>
<text text-anchor="start" x="164" y="-202" font-family="Helvetica,sans-Serif" font-size="10.00">+</text>
<text text-anchor="start" x="177" y="-202" font-family="Helvetica,sans-Serif" font-size="10.00">readBool()</text>
<text text-anchor="start" x="164" y="-187" font-family="Helvetica,sans-Serif" font-size="10.00">+</text>
<text text-anchor="start" x="177" y="-187" font-family="Helvetica,sans-Serif" font-size="10.00">readInt8()</text>
<text text-anchor="start" x="164" y="-172" font-family="Helvetica,sans-Serif" font-size="10.00">+</text>
<text text-anchor="start" x="177" y="-172" font-family="Helvetica,sans-Serif" font-size="10.00">readUInt8()</text>
<text text-anchor="start" x="164" y="-157" font-family="Helvetica,sans-Serif" font-size="10.00">+</text>
<text text-anchor="start" x="177" y="-157" font-family="Helvetica,sans-Serif" font-size="10.00">readInt16()</text>
<text text-anchor="start" x="164" y="-142" font-family="Helvetica,sans-Serif" font-size="10.00">+</text>
<text text-anchor="start" x="177" y="-142" font-family="Helvetica,sans-Serif" font-size="10.00">readUInt16()</text>
<text text-anchor="start" x="164" y="-127" font-family="Helvetica,sans-Serif" font-size="10.00">+</text>
<text text-anchor="start" x="177" y="-127" font-family="Helvetica,sans-Serif" font-size="10.00">readInt32()</text>
<text text-anchor="start" x="164" y="-112" font-family="Helvetica,sans-Serif" font-size="10.00">+</text>
<text text-anchor="start" x="177" y="-112" font-family="Helvetica,sans-Serif" font-size="10.00">readUInt32()</text>
<text text-anchor="start" x="164" y="-97" font-family="Helvetica,sans-Serif" font-size="10.00">+</text>
<text text-anchor="start" x="177" y="-97" font-family="Helvetica,sans-Serif" font-size="10.00">readInt64()</text>
<text text-anchor="start" x="164" y="-82" font-family="Helvetica,sans-Serif" font-size="10.00">+</text>
<text text-anchor="start" x="177" y="-82" font-family="Helvetica,sans-Serif" font-size="10.00">readUInt64()</text>
<text text-anchor="start" x="164" y="-67" font-family="Helvetica,sans-Serif" font-size="10.00">+</text>
<text text-anchor="start" x="177" y="-67" font-family="Helvetica,sans-Serif" font-size="10.00">readFloat32()</text>
<text text-anchor="start" x="164" y="-52" font-family="Helvetica,sans-Serif" font-size="10.00">+</text>
<text text-anchor="start" x="177" y="-52" font-family="Helvetica,sans-Serif" font-size="10.00">readFloat64()</text>
<text text-anchor="start" x="164" y="-37" font-family="Helvetica,sans-Serif" font-size="10.00">+</text>
<text text-anchor="start" x="177" y="-37" font-family="Helvetica,sans-Serif" font-size="10.00">readString()</text>
<text text-anchor="start" x="164" y="-22" font-family="Helvetica,sans-Serif" font-size="10.00">+</text>
<text text-anchor="start" x="177" y="-22" font-family="Helvetica,sans-Serif" font-size="10.00">readTimeStamp()</text>
<text text-anchor="start" x="164" y="-7" font-family="Helvetica,sans-Serif" font-size="10.00">+</text>
<text text-anchor="start" x="177" y="-7" font-family="Helvetica,sans-Serif" font-size="10.00">InputStreamBase()</text>
<polygon fill="#666666" stroke="#666666" points="160,-242 160,-242 302,-242 302,-242 160,-242"/>
<polygon fill="#666666" stroke="#666666" points="160,-227 160,-227 302,-227 302,-227 160,-227"/>
<polygon fill="none" stroke="#666666" points="160,0 160,-270 302,-270 302,0 160,0"/>
</a>
</g>
</g>
<!-- Node1&#45;&gt;Node3 -->
<g id="edge2_Node000001_Node000003" class="edge">
<title>Node1&#45;&gt;Node3</title>
<g id="a_edge2_Node000001_Node000003"><a xlink:title=" ">
<path fill="none" stroke="#63b8ff" d="M178.95,-296.07C181.69,-287.62 184.52,-278.92 187.38,-270.14"/>
<polygon fill="none" stroke="#63b8ff" points="175.53,-295.26 175.76,-305.85 182.19,-297.42 175.53,-295.26"/>
</a>
</g>
</g>
</g>
</svg>
