<?xml version="1.0" encoding="UTF-8" standalone="no"?>
<!DOCTYPE svg PUBLIC "-//W3C//DTD SVG 1.1//EN"
 "http://www.w3.org/Graphics/SVG/1.1/DTD/svg11.dtd">
<!-- Generated by graphviz version 2.43.0 (0)
 -->
<!-- Title: sen::StrongTypeBase&lt; T &gt; Pages: 1 -->
<svg width="566pt" height="598pt"
 viewBox="0.00 0.00 566.00 598.00" xmlns="http://www.w3.org/2000/svg" xmlns:xlink="http://www.w3.org/1999/xlink">
<g id="graph0" class="graph" transform="scale(1 1) rotate(0) translate(4 594)">
<title>sen::StrongTypeBase&lt; T &gt;</title>
<!-- Node1 -->
<g id="Node000001" class="node">
<title>Node1</title>
<g id="a_Node000001"><a xlink:title="Wraps T to make it a strong type.">
<polygon fill="#999999" stroke="transparent" points="341,-590 201,-590 201,-436 341,-436 341,-590"/>
<text text-anchor="start" x="206" y="-578" font-family="Helvetica,sans-Serif" font-size="10.00">sen::StrongTypeBase&lt; T &gt;</text>
<text text-anchor="start" x="269" y="-563" font-family="Helvetica,sans-Serif" font-size="10.00"> </text>
<text text-anchor="start" x="211" y="-548" font-family="Helvetica,sans-Serif" font-size="10.00">+</text>
<text text-anchor="start" x="230" y="-548" font-family="Helvetica,sans-Serif" font-size="10.00">StrongTypeBase()</text>
<text text-anchor="start" x="211" y="-533" font-family="Helvetica,sans-Serif" font-size="10.00">+</text>
<text text-anchor="start" x="230" y="-533" font-family="Helvetica,sans-Serif" font-size="10.00">StrongTypeBase()</text>
<text text-anchor="start" x="211" y="-518" font-family="Helvetica,sans-Serif" font-size="10.00">+</text>
<text text-anchor="start" x="230" y="-518" font-family="Helvetica,sans-Serif" font-size="10.00">~StrongTypeBase()</text>
<text text-anchor="start" x="211" y="-503" font-family="Helvetica,sans-Serif" font-size="10.00">+</text>
<text text-anchor="start" x="230" y="-503" font-family="Helvetica,sans-Serif" font-size="10.00">get()</text>
<text text-anchor="start" x="211" y="-488" font-family="Helvetica,sans-Serif" font-size="10.00">+</text>
<text text-anchor="start" x="230" y="-488" font-family="Helvetica,sans-Serif" font-size="10.00">set()</text>
<text text-anchor="start" x="211" y="-473" font-family="Helvetica,sans-Serif" font-size="10.00">+</text>
<text text-anchor="start" x="230" y="-473" font-family="Helvetica,sans-Serif" font-size="10.00">set()</text>
<text text-anchor="start" x="211" y="-458" font-family="Helvetica,sans-Serif" font-size="10.00">#</text>
<text text-anchor="start" x="230" y="-458" font-family="Helvetica,sans-Serif" font-size="10.00">val()</text>
<text text-anchor="start" x="211" y="-443" font-family="Helvetica,sans-Serif" font-size="10.00">#</text>
<text text-anchor="start" x="230" y="-443" font-family="Helvetica,sans-Serif" font-size="10.00">val()</text>
<polygon fill="#666666" stroke="#666666" points="201,-573 201,-573 341,-573 341,-573 201,-573"/>
<polygon fill="#666666" stroke="#666666" points="201,-558 201,-558 341,-558 341,-558 201,-558"/>
<polygon fill="none" stroke="#666666" points="201,-436 201,-590 341,-590 341,-436 201,-436"/>
</a>
</g>
</g>
<!-- Node2 -->
<g id="Node000002" class="node">
<title>Node2</title>
<g id="a_Node000002"><a xlink:href="classsen_1_1_strong_type.html" target="_top" xlink:title=" ">
<polygon fill="white" stroke="transparent" points="114,-400 0,-400 0,-190 114,-190 114,-400"/>
<text text-anchor="start" x="5" y="-388" font-family="Helvetica,sans-Serif" font-size="10.00">sen::StrongType&lt; std</text>
<text text-anchor="start" x="7" y="-377" font-family="Helvetica,sans-Serif" font-size="10.00">::int64_t, Duration &gt;</text>
<text text-anchor="start" x="55" y="-362" font-family="Helvetica,sans-Serif" font-size="10.00"> </text>
<text text-anchor="start" x="9.5" y="-347" font-family="Helvetica,sans-Serif" font-size="10.00">+</text>
<text text-anchor="start" x="28" y="-347" font-family="Helvetica,sans-Serif" font-size="10.00">~StrongType()</text>
<text text-anchor="start" x="9.5" y="-332" font-family="Helvetica,sans-Serif" font-size="10.00">+</text>
<text text-anchor="start" x="28" y="-332" font-family="Helvetica,sans-Serif" font-size="10.00">operator==()</text>
<text text-anchor="start" x="9.5" y="-317" font-family="Helvetica,sans-Serif" font-size="10.00">+</text>
<text text-anchor="start" x="28" y="-317" font-family="Helvetica,sans-Serif" font-size="10.00">operator!=()</text>
<text text-anchor="start" x="9.5" y="-302" font-family="Helvetica,sans-Serif" font-size="10.00">+</text>
<text text-anchor="start" x="28" y="-302" font-family="Helvetica,sans-Serif" font-size="10.00">operator&lt;()</text>
<text text-anchor="start" x="9.5" y="-287" font-family="Helvetica,sans-Serif" font-size="10.00">+</text>
<text text-anchor="start" x="28" y="-287" font-family="Helvetica,sans-Serif" font-size="10.00">operator&lt;=()</text>
<text text-anchor="start" x="9.5" y="-272" font-family="Helvetica,sans-Serif" font-size="10.00">+</text>
<text text-anchor="start" x="28" y="-272" font-family="Helvetica,sans-Serif" font-size="10.00">operator&gt;()</text>
<text text-anchor="start" x="9.5" y="-257" font-family="Helvetica,sans-Serif" font-size="10.00">+</text>
<text text-anchor="start" x="28" y="-257" font-family="Helvetica,sans-Serif" font-size="10.00">operator&gt;=()</text>
<text text-anchor="start" x="9.5" y="-242" font-family="Helvetica,sans-Serif" font-size="10.00">+</text>
<text text-anchor="start" x="28" y="-242" font-family="Helvetica,sans-Serif" font-size="10.00">operator++()</text>
<text text-anchor="start" x="9.5" y="-227" font-family="Helvetica,sans-Serif" font-size="10.00">+</text>
<text text-anchor="start" x="28" y="-227" font-family="Helvetica,sans-Serif" font-size="10.00">operator++()</text>
<text text-anchor="start" x="9.5" y="-212" font-family="Helvetica,sans-Serif" font-size="10.00">+</text>
<text text-anchor="start" x="28" y="-212" font-family="Helvetica,sans-Serif" font-size="10.00">operator&#45;&#45;()</text>
<text text-anchor="start" x="28" y="-197" font-family="Helvetica,sans-Serif" font-size="10.00">and 8 more...</text>
<polygon fill="#666666" stroke="#666666" points="0,-372 0,-372 114,-372 114,-372 0,-372"/>
<polygon fill="#666666" stroke="#666666" points="0,-357 0,-357 114,-357 114,-357 0,-357"/>
<polygon fill="none" stroke="#666666" points="0,-190 0,-400 114,-400 114,-190 0,-190"/>
</a>
</g>
</g>
<!-- Node1&#45;&gt;Node2 -->
<g id="edge1_Node000001_Node000002" class="edge">
<title>Node1&#45;&gt;Node2</title>
<g id="a_edge1_Node000001_Node000002"><a xlink:title=" ">
<path fill="none" stroke="#63b8ff" d="M192.46,-460.69C168.64,-443.07 143.4,-422.16 123,-400 119.96,-396.7 116.97,-393.24 114.05,-389.66"/>
<polygon fill="none" stroke="#63b8ff" points="190.67,-463.71 200.82,-466.78 194.8,-458.06 190.67,-463.71"/>
</a>
</g>
</g>
<!-- Node4 -->
<g id="Node000004" class="node">
<title>Node4</title>
<g id="a_Node000004"><a xlink:href="classsen_1_1_strong_type.html" target="_top" xlink:title=" ">
<polygon fill="white" stroke="transparent" points="262,-400 132,-400 132,-190 262,-190 262,-400"/>
<text text-anchor="start" x="137" y="-388" font-family="Helvetica,sans-Serif" font-size="10.00">sen::StrongType&lt; uint32</text>
<text text-anchor="start" x="151" y="-377" font-family="Helvetica,sans-Serif" font-size="10.00">_t, MemberHash &gt;</text>
<text text-anchor="start" x="195" y="-362" font-family="Helvetica,sans-Serif" font-size="10.00"> </text>
<text text-anchor="start" x="145.5" y="-347" font-family="Helvetica,sans-Serif" font-size="10.00">+</text>
<text text-anchor="start" x="168" y="-347" font-family="Helvetica,sans-Serif" font-size="10.00">~StrongType()</text>
<text text-anchor="start" x="145.5" y="-332" font-family="Helvetica,sans-Serif" font-size="10.00">+</text>
<text text-anchor="start" x="168" y="-332" font-family="Helvetica,sans-Serif" font-size="10.00">operator==()</text>
<text text-anchor="start" x="145.5" y="-317" font-family="Helvetica,sans-Serif" font-size="10.00">+</text>
<text text-anchor="start" x="168" y="-317" font-family="Helvetica,sans-Serif" font-size="10.00">operator!=()</text>
<text text-anchor="start" x="145.5" y="-302" font-family="Helvetica,sans-Serif" font-size="10.00">+</text>
<text text-anchor="start" x="168" y="-302" font-family="Helvetica,sans-Serif" font-size="10.00">operator&lt;()</text>
<text text-anchor="start" x="145.5" y="-287" font-family="Helvetica,sans-Serif" font-size="10.00">+</text>
<text text-anchor="start" x="168" y="-287" font-family="Helvetica,sans-Serif" font-size="10.00">operator&lt;=()</text>
<text text-anchor="start" x="145.5" y="-272" font-family="Helvetica,sans-Serif" font-size="10.00">+</text>
<text text-anchor="start" x="168" y="-272" font-family="Helvetica,sans-Serif" font-size="10.00">operator&gt;()</text>
<text text-anchor="start" x="145.5" y="-257" font-family="Helvetica,sans-Serif" font-size="10.00">+</text>
<text text-anchor="start" x="168" y="-257" font-family="Helvetica,sans-Serif" font-size="10.00">operator&gt;=()</text>
<text text-anchor="start" x="145.5" y="-242" font-family="Helvetica,sans-Serif" font-size="10.00">+</text>
<text text-anchor="start" x="168" y="-242" font-family="Helvetica,sans-Serif" font-size="10.00">operator++()</text>
<text text-anchor="start" x="145.5" y="-227" font-family="Helvetica,sans-Serif" font-size="10.00">+</text>
<text text-anchor="start" x="168" y="-227" font-family="Helvetica,sans-Serif" font-size="10.00">operator++()</text>
<text text-anchor="start" x="145.5" y="-212" font-family="Helvetica,sans-Serif" font-size="10.00">+</text>
<text text-anchor="start" x="168" y="-212" font-family="Helvetica,sans-Serif" font-size="10.00">operator&#45;&#45;()</text>
<text text-anchor="start" x="168" y="-197" font-family="Helvetica,sans-Serif" font-size="10.00">and 8 more...</text>
<polygon fill="#666666" stroke="#666666" points="132,-372 132,-372 262,-372 262,-372 132,-372"/>
<polygon fill="#666666" stroke="#666666" points="132,-357 132,-357 262,-357 262,-357 132,-357"/>
<polygon fill="none" stroke="#666666" points="132,-190 132,-400 262,-400 262,-190 132,-190"/>
</a>
</g>
</g>
<!-- Node1&#45;&gt;Node4 -->
<g id="edge3_Node000001_Node000004" class="edge">
<title>Node1&#45;&gt;Node4</title>
<g id="a_edge3_Node000001_Node000004"><a xlink:title=" ">
<path fill="none" stroke="#63b8ff" d="M241.63,-426.27C238.7,-417.71 235.7,-408.95 232.71,-400.23"/>
<polygon fill="none" stroke="#63b8ff" points="238.36,-427.52 244.91,-435.85 244.98,-425.25 238.36,-427.52"/>
</a>
</g>
</g>
<!-- Node6 -->
<g id="Node000006" class="node">
<title>Node6</title>
<g id="a_Node000006"><a xlink:href="classsen_1_1_strong_type.html" target="_top" xlink:title=" ">
<polygon fill="white" stroke="transparent" points="410,-400 280,-400 280,-190 410,-190 410,-400"/>
<text text-anchor="start" x="285" y="-388" font-family="Helvetica,sans-Serif" font-size="10.00">sen::StrongType&lt; uint32</text>
<text text-anchor="start" x="318" y="-377" font-family="Helvetica,sans-Serif" font-size="10.00">_t, BusId &gt;</text>
<text text-anchor="start" x="343" y="-362" font-family="Helvetica,sans-Serif" font-size="10.00"> </text>
<text text-anchor="start" x="293.5" y="-347" font-family="Helvetica,sans-Serif" font-size="10.00">+</text>
<text text-anchor="start" x="316" y="-347" font-family="Helvetica,sans-Serif" font-size="10.00">~StrongType()</text>
<text text-anchor="start" x="293.5" y="-332" font-family="Helvetica,sans-Serif" font-size="10.00">+</text>
<text text-anchor="start" x="316" y="-332" font-family="Helvetica,sans-Serif" font-size="10.00">operator==()</text>
<text text-anchor="start" x="293.5" y="-317" font-family="Helvetica,sans-Serif" font-size="10.00">+</text>
<text text-anchor="start" x="316" y="-317" font-family="Helvetica,sans-Serif" font-size="10.00">operator!=()</text>
<text text-anchor="start" x="293.5" y="-302" font-family="Helvetica,sans-Serif" font-size="10.00">+</text>
<text text-anchor="start" x="316" y="-302" font-family="Helvetica,sans-Serif" font-size="10.00">operator&lt;()</text>
<text text-anchor="start" x="293.5" y="-287" font-family="Helvetica,sans-Serif" font-size="10.00">+</text>
<text text-anchor="start" x="316" y="-287" font-family="Helvetica,sans-Serif" font-size="10.00">operator&lt;=()</text>
<text text-anchor="start" x="293.5" y="-272" font-family="Helvetica,sans-Serif" font-size="10.00">+</text>
<text text-anchor="start" x="316" y="-272" font-family="Helvetica,sans-Serif" font-size="10.00">operator&gt;()</text>
<text text-anchor="start" x="293.5" y="-257" font-family="Helvetica,sans-Serif" font-size="10.00">+</text>
<text text-anchor="start" x="316" y="-257" font-family="Helvetica,sans-Serif" font-size="10.00">operator&gt;=()</text>
<text text-anchor="start" x="293.5" y="-242" font-family="Helvetica,sans-Serif" font-size="10.00">+</text>
<text text-anchor="start" x="316" y="-242" font-family="Helvetica,sans-Serif" font-size="10.00">operator++()</text>
<text text-anchor="start" x="293.5" y="-227" font-family="Helvetica,sans-Serif" font-size="10.00">+</text>
<text text-anchor="start" x="316" y="-227" font-family="Helvetica,sans-Serif" font-size="10.00">operator++()</text>
<text text-anchor="start" x="293.5" y="-212" font-family="Helvetica,sans-Serif" font-size="10.00">+</text>
<text text-anchor="start" x="316" y="-212" font-family="Helvetica,sans-Serif" font-size="10.00">operator&#45;&#45;()</text>
<text text-anchor="start" x="316" y="-197" font-family="Helvetica,sans-Serif" font-size="10.00">and 8 more...</text>
<polygon fill="#666666" stroke="#666666" points="280,-372 280,-372 410,-372 410,-372 280,-372"/>
<polygon fill="#666666" stroke="#666666" points="280,-357 280,-357 410,-357 410,-357 280,-357"/>
<polygon fill="none" stroke="#666666" points="280,-190 280,-400 410,-400 410,-190 280,-190"/>
</a>
</g>
</g>
<!-- Node1&#45;&gt;Node6 -->
<g id="edge5_Node000001_Node000006" class="edge">
<title>Node1&#45;&gt;Node6</title>
<g id="a_edge5_Node000001_Node000006"><a xlink:title=" ">
<path fill="none" stroke="#63b8ff" d="M300.37,-426.27C303.3,-417.71 306.3,-408.95 309.29,-400.23"/>
<polygon fill="none" stroke="#63b8ff" points="297.02,-425.25 297.09,-435.85 303.64,-427.52 297.02,-425.25"/>
</a>
</g>
</g>
<!-- Node8 -->
<g id="Node000008" class="node">
<title>Node8</title>
<g id="a_Node000008"><a xlink:href="classsen_1_1_strong_type.html" target="_top" xlink:title="CRTP class that wraps T to make it a strong type.">
<polygon fill="white" stroke="transparent" points="558,-394.5 428,-394.5 428,-195.5 558,-195.5 558,-394.5"/>
<text text-anchor="start" x="433" y="-382" font-family="Helvetica,sans-Serif" font-size="10.00">sen::StrongType&lt; T, D &gt;</text>
<text text-anchor="start" x="491" y="-367" font-family="Helvetica,sans-Serif" font-size="10.00"> </text>
<text text-anchor="start" x="441.5" y="-352" font-family="Helvetica,sans-Serif" font-size="10.00">+</text>
<text text-anchor="start" x="464" y="-352" font-family="Helvetica,sans-Serif" font-size="10.00">~StrongType()</text>
<text text-anchor="start" x="441.5" y="-337" font-family="Helvetica,sans-Serif" font-size="10.00">+</text>
<text text-anchor="start" x="464" y="-337" font-family="Helvetica,sans-Serif" font-size="10.00">operator==()</text>
<text text-anchor="start" x="441.5" y="-322" font-family="Helvetica,sans-Serif" font-size="10.00">+</text>
<text text-anchor="start" x="464" y="-322" font-family="Helvetica,sans-Serif" font-size="10.00">operator!=()</text>
<text text-anchor="start" x="441.5" y="-307" font-family="Helvetica,sans-Serif" font-size="10.00">+</text>
<text text-anchor="start" x="464" y="-307" font-family="Helvetica,sans-Serif" font-size="10.00">operator&lt;()</text>
<text text-anchor="start" x="441.5" y="-292" font-family="Helvetica,sans-Serif" font-size="10.00">+</text>
<text text-anchor="start" x="464" y="-292" font-family="Helvetica,sans-Serif" font-size="10.00">operator&lt;=()</text>
<text text-anchor="start" x="441.5" y="-277" font-family="Helvetica,sans-Serif" font-size="10.00">+</text>
<text text-anchor="start" x="464" y="-277" font-family="Helvetica,sans-Serif" font-size="10.00">operator&gt;()</text>
<text text-anchor="start" x="441.5" y="-262" font-family="Helvetica,sans-Serif" font-size="10.00">+</text>
<text text-anchor="start" x="464" y="-262" font-family="Helvetica,sans-Serif" font-size="10.00">operator&gt;=()</text>
<text text-anchor="start" x="441.5" y="-247" font-family="Helvetica,sans-Serif" font-size="10.00">+</text>
<text text-anchor="start" x="464" y="-247" font-family="Helvetica,sans-Serif" font-size="10.00">operator++()</text>
<text text-anchor="start" x="441.5" y="-232" font-family="Helvetica,sans-Serif" font-size="10.00">+</text>
<text text-anchor="start" x="464" y="-232" font-family="Helvetica,sans-Serif" font-size="10.00">operator&#45;&#45;()</text>
<text text-anchor="start" x="441.5" y="-217" font-family="Helvetica,sans-Serif" font-size="10.00">+</text>
<text text-anchor="start" x="464" y="-217" font-family="Helvetica,sans-Serif" font-size="10.00">operator++()</text>
<text text-anchor="start" x="464" y="-202" font-family="Helvetica,sans-Serif" font-size="10.00">and 8 more...</text>
<polygon fill="#666666" stroke="#666666" points="428,-377 428,-377 558,-377 558,-377 428,-377"/>
<polygon fill="#666666" stroke="#666666" points="428,-362 428,-362 558,-362 558,-362 428,-362"/>
<polygon fill="none" stroke="#666666" points="428,-195.5 428,-394.5 558,-394.5 558,-195.5 428,-195.5"/>
</a>
</g>
</g>
<!-- Node1&#45;&gt;Node8 -->
<g id="edge7_Node000001_Node000008" class="edge">
<title>Node1&#45;&gt;Node8</title>
<g id="a_edge7_Node000001_Node000008"><a xlink:title=" ">
<path fill="none" stroke="#63b8ff" d="M349.52,-459.52C373.11,-441.97 398.22,-421.4 419,-400 422.01,-396.9 424.99,-393.67 427.93,-390.34"/>
<polygon fill="none" stroke="#63b8ff" points="347.24,-456.85 341.25,-465.59 351.38,-462.49 347.24,-456.85"/>
</a>
</g>
</g>
<!-- Node3 -->
<g id="Node000003" class="node">
<title>Node3</title>
<g id="a_Node000003"><a xlink:href="classsen_1_1_duration.html" target="_top" xlink:title="A time duration.">
<polygon fill="white" stroke="transparent" points="112,-154 2,-154 2,0 112,0 112,-154"/>
<text text-anchor="start" x="24" y="-142" font-family="Helvetica,sans-Serif" font-size="10.00">sen::Duration</text>
<text text-anchor="start" x="55" y="-127" font-family="Helvetica,sans-Serif" font-size="10.00"> </text>
<text text-anchor="start" x="6" y="-112" font-family="Helvetica,sans-Serif" font-size="10.00">+</text>
<text text-anchor="start" x="19" y="-112" font-family="Helvetica,sans-Serif" font-size="10.00">Duration()</text>
<text text-anchor="start" x="6" y="-97" font-family="Helvetica,sans-Serif" font-size="10.00">+</text>
<text text-anchor="start" x="19" y="-97" font-family="Helvetica,sans-Serif" font-size="10.00">Duration()</text>
<text text-anchor="start" x="6" y="-82" font-family="Helvetica,sans-Serif" font-size="10.00">+</text>
<text text-anchor="start" x="19" y="-82" font-family="Helvetica,sans-Serif" font-size="10.00">~Duration()</text>
<text text-anchor="start" x="6" y="-67" font-family="Helvetica,sans-Serif" font-size="10.00">+</text>
<text text-anchor="start" x="19" y="-67" font-family="Helvetica,sans-Serif" font-size="10.00">getNanoseconds()</text>
<text text-anchor="start" x="6" y="-52" font-family="Helvetica,sans-Serif" font-size="10.00">+</text>
<text text-anchor="start" x="19" y="-52" font-family="Helvetica,sans-Serif" font-size="10.00">toChrono()</text>
<text text-anchor="start" x="6" y="-37" font-family="Helvetica,sans-Serif" font-size="10.00">+</text>
<text text-anchor="start" x="19" y="-37" font-family="Helvetica,sans-Serif" font-size="10.00">toSeconds()</text>
<text text-anchor="start" x="6" y="-22" font-family="Helvetica,sans-Serif" font-size="10.00">+</text>
<text text-anchor="start" x="19" y="-22" font-family="Helvetica,sans-Serif" font-size="10.00">fromHertz()</text>
<text text-anchor="start" x="6" y="-7" font-family="Helvetica,sans-Serif" font-size="10.00">+</text>
<text text-anchor="start" x="19" y="-7" font-family="Helvetica,sans-Serif" font-size="10.00">fromHertz()</text>
<polygon fill="#666666" stroke="#666666" points="2,-137 2,-137 112,-137 112,-137 2,-137"/>
<polygon fill="#666666" stroke="#666666" points="2,-122 2,-122 112,-122 112,-122 2,-122"/>
<polygon fill="none" stroke="#666666" points="2,0 2,-154 112,-154 112,0 2,0"/>
</a>
</g>
</g>
<!-- Node2&#45;&gt;Node3 -->
<g id="edge2_Node000002_Node000003" class="edge">
<title>Node2&#45;&gt;Node3</title>
<g id="a_edge2_Node000002_Node000003"><a xlink:title=" ">
<path fill="none" stroke="#63b8ff" d="M57,-179.69C57,-171.09 57,-162.55 57,-154.27"/>
<polygon fill="none" stroke="#63b8ff" points="53.5,-179.8 57,-189.8 60.5,-179.8 53.5,-179.8"/>
</a>
</g>
</g>
<!-- Node5 -->
<g id="Node000005" class="node">
<title>Node5</title>
<g id="a_Node000005"><a xlink:href="structsen_1_1_member_hash.html" target="_top" xlink:title="The hash of a member.">
<polygon fill="white" stroke="transparent" points="246.5,-101.5 147.5,-101.5 147.5,-52.5 246.5,-52.5 246.5,-101.5"/>
<text text-anchor="start" x="153" y="-89" font-family="Helvetica,sans-Serif" font-size="10.00">sen::MemberHash</text>
<text text-anchor="start" x="195.5" y="-74" font-family="Helvetica,sans-Serif" font-size="10.00"> </text>
<text text-anchor="start" x="195.5" y="-59" font-family="Helvetica,sans-Serif" font-size="10.00"> </text>
<polygon fill="#666666" stroke="#666666" points="148,-84 148,-84 247,-84 247,-84 148,-84"/>
<polygon fill="#666666" stroke="#666666" points="148,-69 148,-69 247,-69 247,-69 148,-69"/>
<polygon fill="none" stroke="#666666" points="147.5,-52.5 147.5,-101.5 246.5,-101.5 246.5,-52.5 147.5,-52.5"/>
</a>
</g>
</g>
<!-- Node4&#45;&gt;Node5 -->
<g id="edge4_Node000004_Node000005" class="edge">
<title>Node4&#45;&gt;Node5</title>
<g id="a_edge4_Node000004_Node000005"><a xlink:title=" ">
<path fill="none" stroke="#63b8ff" d="M197,-179.74C197,-150.11 197,-121.11 197,-101.7"/>
<polygon fill="none" stroke="#63b8ff" points="193.5,-179.8 197,-189.8 200.5,-179.8 193.5,-179.8"/>
</a>
</g>
</g>
<!-- Node7 -->
<g id="Node000007" class="node">
<title>Node7</title>
<g id="a_Node000007"><a xlink:href="structsen_1_1kernel_1_1_bus_id.html" target="_top" xlink:title=" ">
<polygon fill="white" stroke="transparent" points="393.5,-101.5 296.5,-101.5 296.5,-52.5 393.5,-52.5 393.5,-101.5"/>
<text text-anchor="start" x="302" y="-89" font-family="Helvetica,sans-Serif" font-size="10.00">sen::kernel::BusId</text>
<text text-anchor="start" x="308.5" y="-74" font-family="Helvetica,sans-Serif" font-size="10.00">+</text>
<text text-anchor="start" x="329" y="-74" font-family="Helvetica,sans-Serif" font-size="10.00">userData</text>
<text text-anchor="start" x="343.5" y="-59" font-family="Helvetica,sans-Serif" font-size="10.00"> </text>
<polygon fill="#666666" stroke="#666666" points="297,-84 297,-84 394,-84 394,-84 297,-84"/>
<polygon fill="#666666" stroke="#666666" points="297,-69 297,-69 327,-69 327,-69 297,-69"/>
<polygon fill="#666666" stroke="#666666" points="327,-69 327,-69 394,-69 394,-69 327,-69"/>
<polygon fill="none" stroke="#666666" points="296.5,-52.5 296.5,-101.5 393.5,-101.5 393.5,-52.5 296.5,-52.5"/>
</a>
</g>
</g>
<!-- Node6&#45;&gt;Node7 -->
<g id="edge6_Node000006_Node000007" class="edge">
<title>Node6&#45;&gt;Node7</title>
<g id="a_edge6_Node000006_Node000007"><a xlink:title=" ">
<path fill="none" stroke="#63b8ff" d="M345,-179.74C345,-150.11 345,-121.11 345,-101.7"/>
<polygon fill="none" stroke="#63b8ff" points="341.5,-179.8 345,-189.8 348.5,-179.8 341.5,-179.8"/>
</a>
</g>
</g>
</g>
</svg>
