<?xml version="1.0" encoding="UTF-8" standalone="no"?>
<!DOCTYPE svg PUBLIC "-//W3C//DTD SVG 1.1//EN"
 "http://www.w3.org/Graphics/SVG/1.1/DTD/svg11.dtd">
<!-- Generated by graphviz version 2.43.0 (0)
 -->
<!-- Title: sen::StructType Pages: 1 -->
<svg width="159pt" height="557pt"
 viewBox="0.00 0.00 159.00 557.00" xmlns="http://www.w3.org/2000/svg" xmlns:xlink="http://www.w3.org/1999/xlink">
<g id="graph0" class="graph" transform="scale(1 1) rotate(0) translate(4 553)">
<title>sen::StructType</title>
<!-- Node1 -->
<g id="Node000001" class="node">
<title>Node1</title>
<g id="a_Node000001"><a xlink:title="Represents a structure type.">
<polygon fill="#999999" stroke="transparent" points="136.5,-214 14.5,-214 14.5,0 136.5,0 136.5,-214"/>
<text text-anchor="start" x="38" y="-202" font-family="Helvetica,sans-Serif" font-size="10.00">sen::StructType</text>
<text text-anchor="start" x="73.5" y="-187" font-family="Helvetica,sans-Serif" font-size="10.00"> </text>
<text text-anchor="start" x="18.5" y="-172" font-family="Helvetica,sans-Serif" font-size="10.00">+</text>
<text text-anchor="start" x="31.5" y="-172" font-family="Helvetica,sans-Serif" font-size="10.00">StructType()</text>
<text text-anchor="start" x="18.5" y="-157" font-family="Helvetica,sans-Serif" font-size="10.00">+</text>
<text text-anchor="start" x="31.5" y="-157" font-family="Helvetica,sans-Serif" font-size="10.00">~StructType()</text>
<text text-anchor="start" x="18.5" y="-142" font-family="Helvetica,sans-Serif" font-size="10.00">+</text>
<text text-anchor="start" x="31.5" y="-142" font-family="Helvetica,sans-Serif" font-size="10.00">getFieldFromName()</text>
<text text-anchor="start" x="18.5" y="-127" font-family="Helvetica,sans-Serif" font-size="10.00">+</text>
<text text-anchor="start" x="31.5" y="-127" font-family="Helvetica,sans-Serif" font-size="10.00">getFields()</text>
<text text-anchor="start" x="18.5" y="-112" font-family="Helvetica,sans-Serif" font-size="10.00">+</text>
<text text-anchor="start" x="31.5" y="-112" font-family="Helvetica,sans-Serif" font-size="10.00">getAllFields()</text>
<text text-anchor="start" x="18.5" y="-97" font-family="Helvetica,sans-Serif" font-size="10.00">+</text>
<text text-anchor="start" x="31.5" y="-97" font-family="Helvetica,sans-Serif" font-size="10.00">getParent()</text>
<text text-anchor="start" x="18.5" y="-82" font-family="Helvetica,sans-Serif" font-size="10.00">+</text>
<text text-anchor="start" x="31.5" y="-82" font-family="Helvetica,sans-Serif" font-size="10.00">getQualifiedName()</text>
<text text-anchor="start" x="18.5" y="-67" font-family="Helvetica,sans-Serif" font-size="10.00">+</text>
<text text-anchor="start" x="31.5" y="-67" font-family="Helvetica,sans-Serif" font-size="10.00">getName()</text>
<text text-anchor="start" x="18.5" y="-52" font-family="Helvetica,sans-Serif" font-size="10.00">+</text>
<text text-anchor="start" x="31.5" y="-52" font-family="Helvetica,sans-Serif" font-size="10.00">getDescription()</text>
<text text-anchor="start" x="18.5" y="-37" font-family="Helvetica,sans-Serif" font-size="10.00">+</text>
<text text-anchor="start" x="31.5" y="-37" font-family="Helvetica,sans-Serif" font-size="10.00">equals()</text>
<text text-anchor="start" x="18.5" y="-22" font-family="Helvetica,sans-Serif" font-size="10.00">+</text>
<text text-anchor="start" x="31.5" y="-22" font-family="Helvetica,sans-Serif" font-size="10.00">isBounded()</text>
<text text-anchor="start" x="18.5" y="-7" font-family="Helvetica,sans-Serif" font-size="10.00">+</text>
<text text-anchor="start" x="31.5" y="-7" font-family="Helvetica,sans-Serif" font-size="10.00">make()</text>
<polygon fill="#666666" stroke="#666666" points="14.5,-197 14.5,-197 136.5,-197 136.5,-197 14.5,-197"/>
<polygon fill="#666666" stroke="#666666" points="14.5,-182 14.5,-182 136.5,-182 136.5,-182 14.5,-182"/>
<polygon fill="none" stroke="#666666" points="14.5,0 14.5,-214 136.5,-214 136.5,0 14.5,0"/>
</a>
</g>
</g>
<!-- Node2 -->
<g id="Node000002" class="node">
<title>Node2</title>
<g id="a_Node000002"><a xlink:href="classsen_1_1_custom_type.html" target="_top" xlink:title="Represents a user&#45;defined type.">
<polygon fill="white" stroke="transparent" points="134.5,-329 16.5,-329 16.5,-250 134.5,-250 134.5,-329"/>
<text text-anchor="start" x="33.5" y="-316.5" font-family="Helvetica,sans-Serif" font-size="10.00">sen::CustomType</text>
<text text-anchor="start" x="73.5" y="-301.5" font-family="Helvetica,sans-Serif" font-size="10.00"> </text>
<text text-anchor="start" x="20.5" y="-286.5" font-family="Helvetica,sans-Serif" font-size="10.00">+</text>
<text text-anchor="start" x="33.5" y="-286.5" font-family="Helvetica,sans-Serif" font-size="10.00">getQualifiedName()</text>
<text text-anchor="start" x="20.5" y="-271.5" font-family="Helvetica,sans-Serif" font-size="10.00">#</text>
<text text-anchor="start" x="33.5" y="-271.5" font-family="Helvetica,sans-Serif" font-size="10.00">CustomType()</text>
<text text-anchor="start" x="20.5" y="-256.5" font-family="Helvetica,sans-Serif" font-size="10.00">#</text>
<text text-anchor="start" x="33.5" y="-256.5" font-family="Helvetica,sans-Serif" font-size="10.00">~CustomType()</text>
<polygon fill="#666666" stroke="#666666" points="16.5,-311.5 16.5,-311.5 134.5,-311.5 134.5,-311.5 16.5,-311.5"/>
<polygon fill="#666666" stroke="#666666" points="16.5,-296.5 16.5,-296.5 134.5,-296.5 134.5,-296.5 16.5,-296.5"/>
<polygon fill="none" stroke="#666666" points="16.5,-250 16.5,-329 134.5,-329 134.5,-250 16.5,-250"/>
</a>
</g>
</g>
<!-- Node2&#45;&gt;Node1 -->
<g id="edge1_Node000001_Node000002" class="edge">
<title>Node2&#45;&gt;Node1</title>
<g id="a_edge1_Node000001_Node000002"><a xlink:title=" ">
<path fill="none" stroke="#63b8ff" d="M75.5,-239.55C75.5,-231.5 75.5,-222.9 75.5,-214.08"/>
<polygon fill="none" stroke="#63b8ff" points="72,-239.78 75.5,-249.78 79,-239.78 72,-239.78"/>
</a>
</g>
</g>
<!-- Node3 -->
<g id="Node000003" class="node">
<title>Node3</title>
<g id="a_Node000003"><a xlink:href="classsen_1_1_type.html" target="_top" xlink:title="Represents a type that can be used to define variables and arguments for methods or functions....">
<polygon fill="white" stroke="transparent" points="151,-549 0,-549 0,-365 151,-365 151,-549"/>
<text text-anchor="start" x="53" y="-537" font-family="Helvetica,sans-Serif" font-size="10.00">sen::Type</text>
<text text-anchor="start" x="74" y="-522" font-family="Helvetica,sans-Serif" font-size="10.00"> </text>
<text text-anchor="start" x="4.5" y="-507" font-family="Helvetica,sans-Serif" font-size="10.00">+</text>
<text text-anchor="start" x="17.5" y="-507" font-family="Helvetica,sans-Serif" font-size="10.00">~Type()</text>
<text text-anchor="start" x="4.5" y="-492" font-family="Helvetica,sans-Serif" font-size="10.00">+</text>
<text text-anchor="start" x="17.5" y="-492" font-family="Helvetica,sans-Serif" font-size="10.00">getName()</text>
<text text-anchor="start" x="4.5" y="-477" font-family="Helvetica,sans-Serif" font-size="10.00">+</text>
<text text-anchor="start" x="17.5" y="-477" font-family="Helvetica,sans-Serif" font-size="10.00">getDescription()</text>
<text text-anchor="start" x="4.5" y="-462" font-family="Helvetica,sans-Serif" font-size="10.00">+</text>
<text text-anchor="start" x="17.5" y="-462" font-family="Helvetica,sans-Serif" font-size="10.00">accept()</text>
<text text-anchor="start" x="4.5" y="-447" font-family="Helvetica,sans-Serif" font-size="10.00">+</text>
<text text-anchor="start" x="17.5" y="-447" font-family="Helvetica,sans-Serif" font-size="10.00">isBounded()</text>
<text text-anchor="start" x="4.5" y="-432" font-family="Helvetica,sans-Serif" font-size="10.00">+</text>
<text text-anchor="start" x="17.5" y="-432" font-family="Helvetica,sans-Serif" font-size="10.00">getHash()</text>
<text text-anchor="start" x="4.5" y="-417" font-family="Helvetica,sans-Serif" font-size="10.00">+</text>
<text text-anchor="start" x="17.5" y="-417" font-family="Helvetica,sans-Serif" font-size="10.00">equals()</text>
<text text-anchor="start" x="4.5" y="-402" font-family="Helvetica,sans-Serif" font-size="10.00">+</text>
<text text-anchor="start" x="17.5" y="-402" font-family="Helvetica,sans-Serif" font-size="10.00">validateLowerCaseName()</text>
<text text-anchor="start" x="4.5" y="-387" font-family="Helvetica,sans-Serif" font-size="10.00">+</text>
<text text-anchor="start" x="17.5" y="-387" font-family="Helvetica,sans-Serif" font-size="10.00">validateTypeName()</text>
<text text-anchor="start" x="4.5" y="-372" font-family="Helvetica,sans-Serif" font-size="10.00">#</text>
<text text-anchor="start" x="17.5" y="-372" font-family="Helvetica,sans-Serif" font-size="10.00">Type()</text>
<polygon fill="#666666" stroke="#666666" points="0.5,-532 0.5,-532 151.5,-532 151.5,-532 0.5,-532"/>
<polygon fill="#666666" stroke="#666666" points="0.5,-517 0.5,-517 151.5,-517 151.5,-517 0.5,-517"/>
<polygon fill="none" stroke="#666666" points="0,-365 0,-549 151,-549 151,-365 0,-365"/>
</a>
</g>
</g>
<!-- Node3&#45;&gt;Node2 -->
<g id="edge2_Node000002_Node000003" class="edge">
<title>Node3&#45;&gt;Node2</title>
<g id="a_edge2_Node000002_Node000003"><a xlink:title=" ">
<path fill="none" stroke="#63b8ff" d="M75.5,-354.44C75.5,-345.59 75.5,-337.04 75.5,-329.23"/>
<polygon fill="none" stroke="#63b8ff" points="72,-354.54 75.5,-364.54 79,-354.54 72,-354.54"/>
</a>
</g>
</g>
</g>
</svg>
