<?xml version="1.0" encoding="UTF-8" standalone="no"?>
<!DOCTYPE svg PUBLIC "-//W3C//DTD SVG 1.1//EN"
 "http://www.w3.org/Graphics/SVG/1.1/DTD/svg11.dtd">
<!-- Generated by graphviz version 2.43.0 (0)
 -->
<!-- Title: sen::kernel::RunApi Pages: 1 -->
<svg width="298pt" height="532pt"
 viewBox="0.00 0.00 297.50 532.00" xmlns="http://www.w3.org/2000/svg" xmlns:xlink="http://www.w3.org/1999/xlink">
<g id="graph0" class="graph" transform="scale(1 1) rotate(0) translate(4 528)">
<title>sen::kernel::RunApi</title>
<!-- Node1 -->
<g id="Node000001" class="node">
<title>Node1</title>
<g id="a_Node000001"><a xlink:title="What can be done while a component is running.">
<polygon fill="#999999" stroke="transparent" points="225.5,-259 59.5,-259 59.5,0 225.5,0 225.5,-259"/>
<text text-anchor="start" x="95.5" y="-246.5" font-family="Helvetica,sans-Serif" font-size="10.00">sen::kernel::RunApi</text>
<text text-anchor="start" x="140.5" y="-231.5" font-family="Helvetica,sans-Serif" font-size="10.00"> </text>
<text text-anchor="start" x="63.5" y="-216.5" font-family="Helvetica,sans-Serif" font-size="10.00">+</text>
<text text-anchor="start" x="76.5" y="-216.5" font-family="Helvetica,sans-Serif" font-size="10.00">RunApi()</text>
<text text-anchor="start" x="63.5" y="-201.5" font-family="Helvetica,sans-Serif" font-size="10.00">+</text>
<text text-anchor="start" x="76.5" y="-201.5" font-family="Helvetica,sans-Serif" font-size="10.00">~RunApi()</text>
<text text-anchor="start" x="63.5" y="-186.5" font-family="Helvetica,sans-Serif" font-size="10.00">+</text>
<text text-anchor="start" x="76.5" y="-186.5" font-family="Helvetica,sans-Serif" font-size="10.00">stopRequested()</text>
<text text-anchor="start" x="63.5" y="-171.5" font-family="Helvetica,sans-Serif" font-size="10.00">+</text>
<text text-anchor="start" x="76.5" y="-171.5" font-family="Helvetica,sans-Serif" font-size="10.00">drainInputs()</text>
<text text-anchor="start" x="63.5" y="-156.5" font-family="Helvetica,sans-Serif" font-size="10.00">+</text>
<text text-anchor="start" x="76.5" y="-156.5" font-family="Helvetica,sans-Serif" font-size="10.00">update()</text>
<text text-anchor="start" x="63.5" y="-141.5" font-family="Helvetica,sans-Serif" font-size="10.00">+</text>
<text text-anchor="start" x="76.5" y="-141.5" font-family="Helvetica,sans-Serif" font-size="10.00">commit()</text>
<text text-anchor="start" x="63.5" y="-126.5" font-family="Helvetica,sans-Serif" font-size="10.00">+</text>
<text text-anchor="start" x="76.5" y="-126.5" font-family="Helvetica,sans-Serif" font-size="10.00">execLoop()</text>
<text text-anchor="start" x="63.5" y="-111.5" font-family="Helvetica,sans-Serif" font-size="10.00">+</text>
<text text-anchor="start" x="76.5" y="-111.5" font-family="Helvetica,sans-Serif" font-size="10.00">getStartTime()</text>
<text text-anchor="start" x="63.5" y="-96.5" font-family="Helvetica,sans-Serif" font-size="10.00">+</text>
<text text-anchor="start" x="76.5" y="-96.5" font-family="Helvetica,sans-Serif" font-size="10.00">getTime()</text>
<text text-anchor="start" x="63.5" y="-81.5" font-family="Helvetica,sans-Serif" font-size="10.00">+</text>
<text text-anchor="start" x="76.5" y="-81.5" font-family="Helvetica,sans-Serif" font-size="10.00">getTargetCycleTime()</text>
<text text-anchor="start" x="63.5" y="-66.5" font-family="Helvetica,sans-Serif" font-size="10.00">+</text>
<text text-anchor="start" x="76.5" y="-66.5" font-family="Helvetica,sans-Serif" font-size="10.00">fetchMonitoringInfo()</text>
<text text-anchor="start" x="63.5" y="-51.5" font-family="Helvetica,sans-Serif" font-size="10.00">+</text>
<text text-anchor="start" x="76.5" y="-51.5" font-family="Helvetica,sans-Serif" font-size="10.00">getImportedPackages()</text>
<text text-anchor="start" x="63.5" y="-36.5" font-family="Helvetica,sans-Serif" font-size="10.00">+</text>
<text text-anchor="start" x="76.5" y="-36.5" font-family="Helvetica,sans-Serif" font-size="10.00">getLoadedComponents()</text>
<text text-anchor="start" x="63.5" y="-21.5" font-family="Helvetica,sans-Serif" font-size="10.00">+</text>
<text text-anchor="start" x="76.5" y="-21.5" font-family="Helvetica,sans-Serif" font-size="10.00">getTransportProtocolVersion()</text>
<text text-anchor="start" x="63.5" y="-6.5" font-family="Helvetica,sans-Serif" font-size="10.00">+</text>
<text text-anchor="start" x="76.5" y="-6.5" font-family="Helvetica,sans-Serif" font-size="10.00">getTracer()</text>
<polygon fill="#666666" stroke="#666666" points="59.5,-241.5 59.5,-241.5 225.5,-241.5 225.5,-241.5 59.5,-241.5"/>
<polygon fill="#666666" stroke="#666666" points="59.5,-226.5 59.5,-226.5 225.5,-226.5 225.5,-226.5 59.5,-226.5"/>
<polygon fill="none" stroke="#666666" points="59.5,0 59.5,-259 225.5,-259 225.5,0 59.5,0"/>
</a>
</g>
</g>
<!-- Node2 -->
<g id="Node000002" class="node">
<title>Node2</title>
<g id="a_Node000002"><a xlink:href="classsen_1_1kernel_1_1_config_getter.html" target="_top" xlink:title="Allows for fetching configuration parameters.">
<polygon fill="white" stroke="transparent" points="131,-441.5 0,-441.5 0,-377.5 131,-377.5 131,-441.5"/>
<text text-anchor="start" x="5.5" y="-429.5" font-family="Helvetica,sans-Serif" font-size="10.00">sen::kernel::ConfigGetter</text>
<text text-anchor="start" x="64" y="-414.5" font-family="Helvetica,sans-Serif" font-size="10.00"> </text>
<text text-anchor="start" x="14.5" y="-399.5" font-family="Helvetica,sans-Serif" font-size="10.00">+</text>
<text text-anchor="start" x="37.5" y="-399.5" font-family="Helvetica,sans-Serif" font-size="10.00">ConfigGetter()</text>
<text text-anchor="start" x="14.5" y="-384.5" font-family="Helvetica,sans-Serif" font-size="10.00">+</text>
<text text-anchor="start" x="37.5" y="-384.5" font-family="Helvetica,sans-Serif" font-size="10.00">getConfig()</text>
<polygon fill="#666666" stroke="#666666" points="0.5,-424.5 0.5,-424.5 131.5,-424.5 131.5,-424.5 0.5,-424.5"/>
<polygon fill="#666666" stroke="#666666" points="0.5,-409.5 0.5,-409.5 131.5,-409.5 131.5,-409.5 0.5,-409.5"/>
<polygon fill="none" stroke="#666666" points="0,-377.5 0,-441.5 131,-441.5 131,-377.5 0,-377.5"/>
</a>
</g>
</g>
<!-- Node2&#45;&gt;Node1 -->
<g id="edge1_Node000001_Node000002" class="edge">
<title>Node2&#45;&gt;Node1</title>
<g id="a_edge1_Node000001_Node000002"><a xlink:title=" ">
<path fill="none" stroke="#63b8ff" d="M76.8,-367.7C84.8,-338.82 96,-298.37 106.9,-259.04"/>
<polygon fill="none" stroke="#63b8ff" points="73.41,-366.85 74.11,-377.42 80.15,-368.72 73.41,-366.85"/>
</a>
</g>
</g>
<!-- Node3 -->
<g id="Node000003" class="node">
<title>Node3</title>
<g id="a_Node000003"><a xlink:href="classsen_1_1kernel_1_1_kernel_api.html" target="_top" xlink:title="User&#45;facing kernel functions.">
<polygon fill="white" stroke="transparent" points="289.5,-524 149.5,-524 149.5,-295 289.5,-295 289.5,-524"/>
<text text-anchor="start" x="166.5" y="-511.5" font-family="Helvetica,sans-Serif" font-size="10.00">sen::kernel::KernelApi</text>
<text text-anchor="start" x="217.5" y="-496.5" font-family="Helvetica,sans-Serif" font-size="10.00"> </text>
<text text-anchor="start" x="153.5" y="-481.5" font-family="Helvetica,sans-Serif" font-size="10.00">+</text>
<text text-anchor="start" x="166.5" y="-481.5" font-family="Helvetica,sans-Serif" font-size="10.00">KernelApi()</text>
<text text-anchor="start" x="153.5" y="-466.5" font-family="Helvetica,sans-Serif" font-size="10.00">+</text>
<text text-anchor="start" x="166.5" y="-466.5" font-family="Helvetica,sans-Serif" font-size="10.00">getTypes()</text>
<text text-anchor="start" x="153.5" y="-451.5" font-family="Helvetica,sans-Serif" font-size="10.00">+</text>
<text text-anchor="start" x="166.5" y="-451.5" font-family="Helvetica,sans-Serif" font-size="10.00">requestKernelStop()</text>
<text text-anchor="start" x="153.5" y="-436.5" font-family="Helvetica,sans-Serif" font-size="10.00">+</text>
<text text-anchor="start" x="166.5" y="-436.5" font-family="Helvetica,sans-Serif" font-size="10.00">getSource()</text>
<text text-anchor="start" x="153.5" y="-421.5" font-family="Helvetica,sans-Serif" font-size="10.00">+</text>
<text text-anchor="start" x="166.5" y="-421.5" font-family="Helvetica,sans-Serif" font-size="10.00">getSource()</text>
<text text-anchor="start" x="153.5" y="-406.5" font-family="Helvetica,sans-Serif" font-size="10.00">+</text>
<text text-anchor="start" x="166.5" y="-406.5" font-family="Helvetica,sans-Serif" font-size="10.00">getSessionsDiscoverer()</text>
<text text-anchor="start" x="153.5" y="-391.5" font-family="Helvetica,sans-Serif" font-size="10.00">+</text>
<text text-anchor="start" x="166.5" y="-391.5" font-family="Helvetica,sans-Serif" font-size="10.00">fetchOwnerInfo()</text>
<text text-anchor="start" x="153.5" y="-376.5" font-family="Helvetica,sans-Serif" font-size="10.00">+</text>
<text text-anchor="start" x="166.5" y="-376.5" font-family="Helvetica,sans-Serif" font-size="10.00">getAppName()</text>
<text text-anchor="start" x="153.5" y="-361.5" font-family="Helvetica,sans-Serif" font-size="10.00">+</text>
<text text-anchor="start" x="166.5" y="-361.5" font-family="Helvetica,sans-Serif" font-size="10.00">getWorkQueue()</text>
<text text-anchor="start" x="153.5" y="-346.5" font-family="Helvetica,sans-Serif" font-size="10.00">+</text>
<text text-anchor="start" x="166.5" y="-346.5" font-family="Helvetica,sans-Serif" font-size="10.00">selectAllFrom()</text>
<text text-anchor="start" x="153.5" y="-331.5" font-family="Helvetica,sans-Serif" font-size="10.00">+</text>
<text text-anchor="start" x="166.5" y="-331.5" font-family="Helvetica,sans-Serif" font-size="10.00">selectAllFrom()</text>
<text text-anchor="start" x="153.5" y="-316.5" font-family="Helvetica,sans-Serif" font-size="10.00">+</text>
<text text-anchor="start" x="166.5" y="-316.5" font-family="Helvetica,sans-Serif" font-size="10.00">selectFrom()</text>
<text text-anchor="start" x="153.5" y="-301.5" font-family="Helvetica,sans-Serif" font-size="10.00">+</text>
<text text-anchor="start" x="166.5" y="-301.5" font-family="Helvetica,sans-Serif" font-size="10.00">getConfigFilePath()</text>
<polygon fill="#666666" stroke="#666666" points="149.5,-506.5 149.5,-506.5 289.5,-506.5 289.5,-506.5 149.5,-506.5"/>
<polygon fill="#666666" stroke="#666666" points="149.5,-491.5 149.5,-491.5 289.5,-491.5 289.5,-491.5 149.5,-491.5"/>
<polygon fill="none" stroke="#666666" points="149.5,-295 149.5,-524 289.5,-524 289.5,-295 149.5,-295"/>
</a>
</g>
</g>
<!-- Node3&#45;&gt;Node1 -->
<g id="edge2_Node000001_Node000003" class="edge">
<title>Node3&#45;&gt;Node1</title>
<g id="a_edge2_Node000001_Node000003"><a xlink:title=" ">
<path fill="none" stroke="#63b8ff" d="M185.29,-284.98C182.91,-276.41 180.52,-267.75 178.13,-259.15"/>
<polygon fill="none" stroke="#63b8ff" points="181.92,-285.92 187.96,-294.62 188.66,-284.05 181.92,-285.92"/>
</a>
</g>
</g>
</g>
</svg>
