<?xml version="1.0" encoding="UTF-8" standalone="no"?>
<!DOCTYPE svg PUBLIC "-//W3C//DTD SVG 1.1//EN"
 "http://www.w3.org/Graphics/SVG/1.1/DTD/svg11.dtd">
<!-- Generated by graphviz version 2.43.0 (0)
 -->
<!-- Title: sen::ObjectList&lt; T &gt; Pages: 1 -->
<svg width="156pt" height="337pt"
 viewBox="0.00 0.00 156.00 337.00" xmlns="http://www.w3.org/2000/svg" xmlns:xlink="http://www.w3.org/1999/xlink">
<g id="graph0" class="graph" transform="scale(1 1) rotate(0) translate(4 333)">
<title>sen::ObjectList&lt; T &gt;</title>
<!-- Node1 -->
<g id="Node000001" class="node">
<title>Node1</title>
<g id="a_Node000001"><a xlink:title="A list of objects that is managed by some source based on user&#45;expressed interests.">
<polygon fill="#999999" stroke="transparent" points="136,-169 12,-169 12,0 136,0 136,-169"/>
<text text-anchor="start" x="23.5" y="-156.5" font-family="Helvetica,sans-Serif" font-size="10.00">sen::ObjectList&lt; T &gt;</text>
<text text-anchor="start" x="16" y="-141.5" font-family="Helvetica,sans-Serif" font-size="10.00">+</text>
<text text-anchor="start" x="29" y="-141.5" font-family="Helvetica,sans-Serif" font-size="10.00">defaultListSizeHint</text>
<text text-anchor="start" x="16" y="-126.5" font-family="Helvetica,sans-Serif" font-size="10.00">+</text>
<text text-anchor="start" x="29" y="-126.5" font-family="Helvetica,sans-Serif" font-size="10.00">ObjectList()</text>
<text text-anchor="start" x="16" y="-111.5" font-family="Helvetica,sans-Serif" font-size="10.00">+</text>
<text text-anchor="start" x="29" y="-111.5" font-family="Helvetica,sans-Serif" font-size="10.00">ObjectList()</text>
<text text-anchor="start" x="16" y="-96.5" font-family="Helvetica,sans-Serif" font-size="10.00">+</text>
<text text-anchor="start" x="29" y="-96.5" font-family="Helvetica,sans-Serif" font-size="10.00">~ObjectList()</text>
<text text-anchor="start" x="16" y="-81.5" font-family="Helvetica,sans-Serif" font-size="10.00">+</text>
<text text-anchor="start" x="29" y="-81.5" font-family="Helvetica,sans-Serif" font-size="10.00">onAdded()</text>
<text text-anchor="start" x="16" y="-66.5" font-family="Helvetica,sans-Serif" font-size="10.00">+</text>
<text text-anchor="start" x="29" y="-66.5" font-family="Helvetica,sans-Serif" font-size="10.00">onRemoved()</text>
<text text-anchor="start" x="16" y="-51.5" font-family="Helvetica,sans-Serif" font-size="10.00">+</text>
<text text-anchor="start" x="29" y="-51.5" font-family="Helvetica,sans-Serif" font-size="10.00">getObjects()</text>
<text text-anchor="start" x="16" y="-36.5" font-family="Helvetica,sans-Serif" font-size="10.00">+</text>
<text text-anchor="start" x="29" y="-36.5" font-family="Helvetica,sans-Serif" font-size="10.00">getUntypedObjects()</text>
<text text-anchor="start" x="16" y="-21.5" font-family="Helvetica,sans-Serif" font-size="10.00">#</text>
<text text-anchor="start" x="29" y="-21.5" font-family="Helvetica,sans-Serif" font-size="10.00">onObjectsAdded()</text>
<text text-anchor="start" x="16" y="-6.5" font-family="Helvetica,sans-Serif" font-size="10.00">#</text>
<text text-anchor="start" x="29" y="-6.5" font-family="Helvetica,sans-Serif" font-size="10.00">onObjectsRemoved()</text>
<polygon fill="#666666" stroke="#666666" points="12,-151.5 12,-151.5 136,-151.5 136,-151.5 12,-151.5"/>
<polygon fill="#666666" stroke="#666666" points="12,-136.5 12,-136.5 27,-136.5 27,-136.5 12,-136.5"/>
<polygon fill="#666666" stroke="#666666" points="27,-136.5 27,-136.5 136,-136.5 136,-136.5 27,-136.5"/>
<polygon fill="none" stroke="#666666" points="12,0 12,-169 136,-169 136,0 12,0"/>
</a>
</g>
</g>
<!-- Node2 -->
<g id="Node000002" class="node">
<title>Node2</title>
<g id="a_Node000002"><a xlink:href="classsen_1_1_object_provider_listener.html" target="_top" xlink:title="Allows reacting to objects being added or removed to an object provider. It automatically unregisters...">
<polygon fill="white" stroke="transparent" points="148,-329 0,-329 0,-205 148,-205 148,-329"/>
<text text-anchor="start" x="6.5" y="-317" font-family="Helvetica,sans-Serif" font-size="10.00">sen::ObjectProviderListener</text>
<text text-anchor="start" x="72" y="-302" font-family="Helvetica,sans-Serif" font-size="10.00"> </text>
<text text-anchor="start" x="4" y="-287" font-family="Helvetica,sans-Serif" font-size="10.00">+</text>
<text text-anchor="start" x="17" y="-287" font-family="Helvetica,sans-Serif" font-size="10.00">ObjectProviderListener()</text>
<text text-anchor="start" x="4" y="-272" font-family="Helvetica,sans-Serif" font-size="10.00">+</text>
<text text-anchor="start" x="17" y="-272" font-family="Helvetica,sans-Serif" font-size="10.00">~ObjectProviderListener()</text>
<text text-anchor="start" x="4" y="-257" font-family="Helvetica,sans-Serif" font-size="10.00">+</text>
<text text-anchor="start" x="17" y="-257" font-family="Helvetica,sans-Serif" font-size="10.00">isRemoteParticipant()</text>
<text text-anchor="start" x="4" y="-242" font-family="Helvetica,sans-Serif" font-size="10.00">+</text>
<text text-anchor="start" x="17" y="-242" font-family="Helvetica,sans-Serif" font-size="10.00">isLocalParticipant()</text>
<text text-anchor="start" x="4" y="-227" font-family="Helvetica,sans-Serif" font-size="10.00">#</text>
<text text-anchor="start" x="17" y="-227" font-family="Helvetica,sans-Serif" font-size="10.00">onObjectsAdded()</text>
<text text-anchor="start" x="4" y="-212" font-family="Helvetica,sans-Serif" font-size="10.00">#</text>
<text text-anchor="start" x="17" y="-212" font-family="Helvetica,sans-Serif" font-size="10.00">onObjectsRemoved()</text>
<polygon fill="#666666" stroke="#666666" points="0,-312 0,-312 148,-312 148,-312 0,-312"/>
<polygon fill="#666666" stroke="#666666" points="0,-297 0,-297 148,-297 148,-297 0,-297"/>
<polygon fill="none" stroke="#666666" points="0,-205 0,-329 148,-329 148,-205 0,-205"/>
</a>
</g>
</g>
<!-- Node2&#45;&gt;Node1 -->
<g id="edge1_Node000001_Node000002" class="edge">
<title>Node2&#45;&gt;Node1</title>
<g id="a_edge1_Node000001_Node000002"><a xlink:title=" ">
<path fill="none" stroke="#63b8ff" d="M74,-194.8C74,-186.42 74,-177.81 74,-169.28"/>
<polygon fill="none" stroke="#63b8ff" points="70.5,-194.89 74,-204.89 77.5,-194.89 70.5,-194.89"/>
</a>
</g>
</g>
</g>
</svg>
