<?xml version="1.0" encoding="UTF-8" standalone="no"?>
<!DOCTYPE svg PUBLIC "-//W3C//DTD SVG 1.1//EN"
 "http://www.w3.org/Graphics/SVG/1.1/DTD/svg11.dtd">
<!-- Generated by graphviz version 2.43.0 (0)
 -->
<!-- Title: sen::NumericType Pages: 1 -->
<svg width="194pt" height="612pt"
 viewBox="0.00 0.00 194.00 612.00" xmlns="http://www.w3.org/2000/svg" xmlns:xlink="http://www.w3.org/1999/xlink">
<g id="graph0" class="graph" transform="scale(1 1) rotate(0) translate(4 608)">
<title>sen::NumericType</title>
<!-- Node1 -->
<g id="Node000001" class="node">
<title>Node1</title>
<g id="a_Node000001"><a xlink:title="Represents a numeric native type.">
<polygon fill="#999999" stroke="transparent" points="139,-284 49,-284 49,-145 139,-145 139,-284"/>
<text text-anchor="start" x="54" y="-271.5" font-family="Helvetica,sans-Serif" font-size="10.00">sen::NumericType</text>
<text text-anchor="start" x="92" y="-256.5" font-family="Helvetica,sans-Serif" font-size="10.00"> </text>
<text text-anchor="start" x="53" y="-241.5" font-family="Helvetica,sans-Serif" font-size="10.00">+</text>
<text text-anchor="start" x="64" y="-241.5" font-family="Helvetica,sans-Serif" font-size="10.00">isSigned()</text>
<text text-anchor="start" x="53" y="-226.5" font-family="Helvetica,sans-Serif" font-size="10.00">+</text>
<text text-anchor="start" x="64" y="-226.5" font-family="Helvetica,sans-Serif" font-size="10.00">hasInfinity()</text>
<text text-anchor="start" x="53" y="-211.5" font-family="Helvetica,sans-Serif" font-size="10.00">+</text>
<text text-anchor="start" x="64" y="-211.5" font-family="Helvetica,sans-Serif" font-size="10.00">isIEC559()</text>
<text text-anchor="start" x="53" y="-196.5" font-family="Helvetica,sans-Serif" font-size="10.00">+</text>
<text text-anchor="start" x="64" y="-196.5" font-family="Helvetica,sans-Serif" font-size="10.00">getByteSize()</text>
<text text-anchor="start" x="53" y="-181.5" font-family="Helvetica,sans-Serif" font-size="10.00">+</text>
<text text-anchor="start" x="64" y="-181.5" font-family="Helvetica,sans-Serif" font-size="10.00">isBounded()</text>
<text text-anchor="start" x="53.5" y="-166.5" font-family="Helvetica,sans-Serif" font-size="10.00">#</text>
<text text-anchor="start" x="64" y="-166.5" font-family="Helvetica,sans-Serif" font-size="10.00">NumericType()</text>
<text text-anchor="start" x="53.5" y="-151.5" font-family="Helvetica,sans-Serif" font-size="10.00">#</text>
<text text-anchor="start" x="64" y="-151.5" font-family="Helvetica,sans-Serif" font-size="10.00">~NumericType()</text>
<polygon fill="#666666" stroke="#666666" points="49,-266.5 49,-266.5 139,-266.5 139,-266.5 49,-266.5"/>
<polygon fill="#666666" stroke="#666666" points="49,-251.5 49,-251.5 139,-251.5 139,-251.5 49,-251.5"/>
<polygon fill="none" stroke="#666666" points="49,-145 49,-284 139,-284 139,-145 49,-145"/>
</a>
</g>
</g>
<!-- Node4 -->
<g id="Node000004" class="node">
<title>Node4</title>
<g id="a_Node000004"><a xlink:href="classsen_1_1_integral_type.html" target="_top" xlink:title="Represents an integral numeric type.">
<polygon fill="white" stroke="transparent" points="86,-86.5 0,-86.5 0,-22.5 86,-22.5 86,-86.5"/>
<text text-anchor="start" x="5" y="-74.5" font-family="Helvetica,sans-Serif" font-size="10.00">sen::IntegralType</text>
<text text-anchor="start" x="41" y="-59.5" font-family="Helvetica,sans-Serif" font-size="10.00"> </text>
<text text-anchor="start" x="4" y="-44.5" font-family="Helvetica,sans-Serif" font-size="10.00">+</text>
<text text-anchor="start" x="15" y="-44.5" font-family="Helvetica,sans-Serif" font-size="10.00">IntegralType()</text>
<text text-anchor="start" x="4" y="-29.5" font-family="Helvetica,sans-Serif" font-size="10.00">+</text>
<text text-anchor="start" x="15" y="-29.5" font-family="Helvetica,sans-Serif" font-size="10.00">~IntegralType()</text>
<polygon fill="#666666" stroke="#666666" points="0,-69.5 0,-69.5 86,-69.5 86,-69.5 0,-69.5"/>
<polygon fill="#666666" stroke="#666666" points="0,-54.5 0,-54.5 86,-54.5 86,-54.5 0,-54.5"/>
<polygon fill="none" stroke="#666666" points="0,-22.5 0,-86.5 86,-86.5 86,-22.5 0,-22.5"/>
</a>
</g>
</g>
<!-- Node1&#45;&gt;Node4 -->
<g id="edge3_Node000001_Node000004" class="edge">
<title>Node1&#45;&gt;Node4</title>
<g id="a_edge3_Node000001_Node000004"><a xlink:title=" ">
<path fill="none" stroke="#63b8ff" d="M68.69,-135.1C63.13,-117.85 57.55,-100.57 53.02,-86.53"/>
<polygon fill="none" stroke="#63b8ff" points="65.38,-136.22 71.78,-144.66 72.04,-134.07 65.38,-136.22"/>
</a>
</g>
</g>
<!-- Node5 -->
<g id="Node000005" class="node">
<title>Node5</title>
<g id="a_Node000005"><a xlink:href="classsen_1_1_real_type.html" target="_top" xlink:title="Represents a floating point numeric type.">
<polygon fill="white" stroke="transparent" points="186,-109 104,-109 104,0 186,0 186,-109"/>
<text text-anchor="start" x="113" y="-96.5" font-family="Helvetica,sans-Serif" font-size="10.00">sen::RealType</text>
<text text-anchor="start" x="143" y="-81.5" font-family="Helvetica,sans-Serif" font-size="10.00"> </text>
<text text-anchor="start" x="108" y="-66.5" font-family="Helvetica,sans-Serif" font-size="10.00">+</text>
<text text-anchor="start" x="119" y="-66.5" font-family="Helvetica,sans-Serif" font-size="10.00">RealType()</text>
<text text-anchor="start" x="108" y="-51.5" font-family="Helvetica,sans-Serif" font-size="10.00">+</text>
<text text-anchor="start" x="119" y="-51.5" font-family="Helvetica,sans-Serif" font-size="10.00">~RealType()</text>
<text text-anchor="start" x="108" y="-36.5" font-family="Helvetica,sans-Serif" font-size="10.00">+</text>
<text text-anchor="start" x="119" y="-36.5" font-family="Helvetica,sans-Serif" font-size="10.00">getMaxValue()</text>
<text text-anchor="start" x="108" y="-21.5" font-family="Helvetica,sans-Serif" font-size="10.00">+</text>
<text text-anchor="start" x="119" y="-21.5" font-family="Helvetica,sans-Serif" font-size="10.00">getMinValue()</text>
<text text-anchor="start" x="108" y="-6.5" font-family="Helvetica,sans-Serif" font-size="10.00">+</text>
<text text-anchor="start" x="119" y="-6.5" font-family="Helvetica,sans-Serif" font-size="10.00">getEpsilon()</text>
<polygon fill="#666666" stroke="#666666" points="104,-91.5 104,-91.5 186,-91.5 186,-91.5 104,-91.5"/>
<polygon fill="#666666" stroke="#666666" points="104,-76.5 104,-76.5 186,-76.5 186,-76.5 104,-76.5"/>
<polygon fill="none" stroke="#666666" points="104,0 104,-109 186,-109 186,0 104,0"/>
</a>
</g>
</g>
<!-- Node1&#45;&gt;Node5 -->
<g id="edge4_Node000001_Node000005" class="edge">
<title>Node1&#45;&gt;Node5</title>
<g id="a_edge4_Node000001_Node000005"><a xlink:title=" ">
<path fill="none" stroke="#63b8ff" d="M119.36,-134.92C122.15,-126.28 124.95,-117.63 127.61,-109.39"/>
<polygon fill="none" stroke="#63b8ff" points="115.96,-134.07 116.22,-144.66 122.62,-136.22 115.96,-134.07"/>
</a>
</g>
</g>
<!-- Node2 -->
<g id="Node000002" class="node">
<title>Node2</title>
<g id="a_Node000002"><a xlink:href="classsen_1_1_native_type.html" target="_top" xlink:title="Represents a native (built&#45;in) type that can be created on the stack or sent in a message.">
<polygon fill="white" stroke="transparent" points="135,-384 53,-384 53,-320 135,-320 135,-384"/>
<text text-anchor="start" x="58" y="-372" font-family="Helvetica,sans-Serif" font-size="10.00">sen::NativeType</text>
<text text-anchor="start" x="92" y="-357" font-family="Helvetica,sans-Serif" font-size="10.00"> </text>
<text text-anchor="start" x="57.5" y="-342" font-family="Helvetica,sans-Serif" font-size="10.00">#</text>
<text text-anchor="start" x="68" y="-342" font-family="Helvetica,sans-Serif" font-size="10.00">NativeType()</text>
<text text-anchor="start" x="57.5" y="-327" font-family="Helvetica,sans-Serif" font-size="10.00">#</text>
<text text-anchor="start" x="68" y="-327" font-family="Helvetica,sans-Serif" font-size="10.00">~NativeType()</text>
<polygon fill="#666666" stroke="#666666" points="53,-367 53,-367 135,-367 135,-367 53,-367"/>
<polygon fill="#666666" stroke="#666666" points="53,-352 53,-352 135,-352 135,-352 53,-352"/>
<polygon fill="none" stroke="#666666" points="53,-320 53,-384 135,-384 135,-320 53,-320"/>
</a>
</g>
</g>
<!-- Node2&#45;&gt;Node1 -->
<g id="edge1_Node000001_Node000002" class="edge">
<title>Node2&#45;&gt;Node1</title>
<g id="a_edge1_Node000001_Node000002"><a xlink:title=" ">
<path fill="none" stroke="#63b8ff" d="M94,-309.69C94,-301.62 94,-292.95 94,-284.26"/>
<polygon fill="none" stroke="#63b8ff" points="90.5,-309.91 94,-319.91 97.5,-309.91 90.5,-309.91"/>
</a>
</g>
</g>
<!-- Node3 -->
<g id="Node000003" class="node">
<title>Node3</title>
<g id="a_Node000003"><a xlink:href="classsen_1_1_type.html" target="_top" xlink:title="Represents a type that can be used to define variables and arguments for methods or functions....">
<polygon fill="white" stroke="transparent" points="161.5,-604 26.5,-604 26.5,-420 161.5,-420 161.5,-604"/>
<text text-anchor="start" x="73" y="-592" font-family="Helvetica,sans-Serif" font-size="10.00">sen::Type</text>
<text text-anchor="start" x="92.5" y="-577" font-family="Helvetica,sans-Serif" font-size="10.00"> </text>
<text text-anchor="start" x="31" y="-562" font-family="Helvetica,sans-Serif" font-size="10.00">+</text>
<text text-anchor="start" x="42" y="-562" font-family="Helvetica,sans-Serif" font-size="10.00">~Type()</text>
<text text-anchor="start" x="31" y="-547" font-family="Helvetica,sans-Serif" font-size="10.00">+</text>
<text text-anchor="start" x="42" y="-547" font-family="Helvetica,sans-Serif" font-size="10.00">getName()</text>
<text text-anchor="start" x="31" y="-532" font-family="Helvetica,sans-Serif" font-size="10.00">+</text>
<text text-anchor="start" x="42" y="-532" font-family="Helvetica,sans-Serif" font-size="10.00">getDescription()</text>
<text text-anchor="start" x="31" y="-517" font-family="Helvetica,sans-Serif" font-size="10.00">+</text>
<text text-anchor="start" x="42" y="-517" font-family="Helvetica,sans-Serif" font-size="10.00">accept()</text>
<text text-anchor="start" x="31" y="-502" font-family="Helvetica,sans-Serif" font-size="10.00">+</text>
<text text-anchor="start" x="42" y="-502" font-family="Helvetica,sans-Serif" font-size="10.00">isBounded()</text>
<text text-anchor="start" x="31" y="-487" font-family="Helvetica,sans-Serif" font-size="10.00">+</text>
<text text-anchor="start" x="42" y="-487" font-family="Helvetica,sans-Serif" font-size="10.00">getHash()</text>
<text text-anchor="start" x="31" y="-472" font-family="Helvetica,sans-Serif" font-size="10.00">+</text>
<text text-anchor="start" x="42" y="-472" font-family="Helvetica,sans-Serif" font-size="10.00">equals()</text>
<text text-anchor="start" x="31" y="-457" font-family="Helvetica,sans-Serif" font-size="10.00">+</text>
<text text-anchor="start" x="42" y="-457" font-family="Helvetica,sans-Serif" font-size="10.00">validateLowerCaseName()</text>
<text text-anchor="start" x="31" y="-442" font-family="Helvetica,sans-Serif" font-size="10.00">+</text>
<text text-anchor="start" x="42" y="-442" font-family="Helvetica,sans-Serif" font-size="10.00">validateTypeName()</text>
<text text-anchor="start" x="31.5" y="-427" font-family="Helvetica,sans-Serif" font-size="10.00">#</text>
<text text-anchor="start" x="42" y="-427" font-family="Helvetica,sans-Serif" font-size="10.00">Type()</text>
<polygon fill="#666666" stroke="#666666" points="27,-587 27,-587 162,-587 162,-587 27,-587"/>
<polygon fill="#666666" stroke="#666666" points="27,-572 27,-572 162,-572 162,-572 27,-572"/>
<polygon fill="none" stroke="#666666" points="26.5,-420 26.5,-604 161.5,-604 161.5,-420 26.5,-420"/>
</a>
</g>
</g>
<!-- Node3&#45;&gt;Node2 -->
<g id="edge2_Node000002_Node000003" class="edge">
<title>Node3&#45;&gt;Node2</title>
<g id="a_edge2_Node000002_Node000003"><a xlink:title=" ">
<path fill="none" stroke="#63b8ff" d="M94,-409.26C94,-400.29 94,-391.74 94,-384.14"/>
<polygon fill="none" stroke="#63b8ff" points="90.5,-409.55 94,-419.55 97.5,-409.55 90.5,-409.55"/>
</a>
</g>
</g>
</g>
</svg>
