<?xml version="1.0" encoding="UTF-8" standalone="no"?>
<!DOCTYPE svg PUBLIC "-//W3C//DTD SVG 1.1//EN"
 "http://www.w3.org/Graphics/SVG/1.1/DTD/svg11.dtd">
<!-- Generated by graphviz version 2.43.0 (0)
 -->
<!-- Title: sen::kernel::UnloadApi Pages: 1 -->
<svg width="298pt" height="307pt"
 viewBox="0.00 0.00 297.50 307.00" xmlns="http://www.w3.org/2000/svg" xmlns:xlink="http://www.w3.org/1999/xlink">
<g id="graph0" class="graph" transform="scale(1 1) rotate(0) translate(4 303)">
<title>sen::kernel::UnloadApi</title>
<!-- Node1 -->
<g id="Node000001" class="node">
<title>Node1</title>
<g id="a_Node000001"><a xlink:title="What can be done when unloading a component.">
<polygon fill="#999999" stroke="transparent" points="202.5,-64 82.5,-64 82.5,0 202.5,0 202.5,-64"/>
<text text-anchor="start" x="87.5" y="-52" font-family="Helvetica,sans-Serif" font-size="10.00">sen::kernel::UnloadApi</text>
<text text-anchor="start" x="140.5" y="-37" font-family="Helvetica,sans-Serif" font-size="10.00"> </text>
<text text-anchor="start" x="94.5" y="-22" font-family="Helvetica,sans-Serif" font-size="10.00">+</text>
<text text-anchor="start" x="115.5" y="-22" font-family="Helvetica,sans-Serif" font-size="10.00">UnloadApi()</text>
<text text-anchor="start" x="94.5" y="-7" font-family="Helvetica,sans-Serif" font-size="10.00">+</text>
<text text-anchor="start" x="115.5" y="-7" font-family="Helvetica,sans-Serif" font-size="10.00">~UnloadApi()</text>
<polygon fill="#666666" stroke="#666666" points="82.5,-47 82.5,-47 202.5,-47 202.5,-47 82.5,-47"/>
<polygon fill="#666666" stroke="#666666" points="82.5,-32 82.5,-32 202.5,-32 202.5,-32 82.5,-32"/>
<polygon fill="none" stroke="#666666" points="82.5,0 82.5,-64 202.5,-64 202.5,0 82.5,0"/>
</a>
</g>
</g>
<!-- Node2 -->
<g id="Node000002" class="node">
<title>Node2</title>
<g id="a_Node000002"><a xlink:href="classsen_1_1kernel_1_1_config_getter.html" target="_top" xlink:title="Allows for fetching configuration parameters.">
<polygon fill="white" stroke="transparent" points="131,-231.5 0,-231.5 0,-167.5 131,-167.5 131,-231.5"/>
<text text-anchor="start" x="5.5" y="-219.5" font-family="Helvetica,sans-Serif" font-size="10.00">sen::kernel::ConfigGetter</text>
<text text-anchor="start" x="64" y="-204.5" font-family="Helvetica,sans-Serif" font-size="10.00"> </text>
<text text-anchor="start" x="14.5" y="-189.5" font-family="Helvetica,sans-Serif" font-size="10.00">+</text>
<text text-anchor="start" x="37.5" y="-189.5" font-family="Helvetica,sans-Serif" font-size="10.00">ConfigGetter()</text>
<text text-anchor="start" x="14.5" y="-174.5" font-family="Helvetica,sans-Serif" font-size="10.00">+</text>
<text text-anchor="start" x="37.5" y="-174.5" font-family="Helvetica,sans-Serif" font-size="10.00">getConfig()</text>
<polygon fill="#666666" stroke="#666666" points="0.5,-214.5 0.5,-214.5 131.5,-214.5 131.5,-214.5 0.5,-214.5"/>
<polygon fill="#666666" stroke="#666666" points="0.5,-199.5 0.5,-199.5 131.5,-199.5 131.5,-199.5 0.5,-199.5"/>
<polygon fill="none" stroke="#666666" points="0,-167.5 0,-231.5 131,-231.5 131,-167.5 0,-167.5"/>
</a>
</g>
</g>
<!-- Node2&#45;&gt;Node1 -->
<g id="edge1_Node000001_Node000002" class="edge">
<title>Node2&#45;&gt;Node1</title>
<g id="a_edge1_Node000001_Node000002"><a xlink:title=" ">
<path fill="none" stroke="#63b8ff" d="M84.36,-157.96C97.8,-129.07 115.6,-90.81 127.95,-64.27"/>
<polygon fill="none" stroke="#63b8ff" points="81.03,-156.83 79.98,-167.37 87.37,-159.78 81.03,-156.83"/>
</a>
</g>
</g>
<!-- Node3 -->
<g id="Node000003" class="node">
<title>Node3</title>
<g id="a_Node000003"><a xlink:href="classsen_1_1kernel_1_1_kernel_api.html" target="_top" xlink:title="User&#45;facing kernel functions.">
<polygon fill="white" stroke="transparent" points="289.5,-299 149.5,-299 149.5,-100 289.5,-100 289.5,-299"/>
<text text-anchor="start" x="166.5" y="-286.5" font-family="Helvetica,sans-Serif" font-size="10.00">sen::kernel::KernelApi</text>
<text text-anchor="start" x="217.5" y="-271.5" font-family="Helvetica,sans-Serif" font-size="10.00"> </text>
<text text-anchor="start" x="153.5" y="-256.5" font-family="Helvetica,sans-Serif" font-size="10.00">+</text>
<text text-anchor="start" x="166.5" y="-256.5" font-family="Helvetica,sans-Serif" font-size="10.00">KernelApi()</text>
<text text-anchor="start" x="153.5" y="-241.5" font-family="Helvetica,sans-Serif" font-size="10.00">+</text>
<text text-anchor="start" x="166.5" y="-241.5" font-family="Helvetica,sans-Serif" font-size="10.00">getTypes()</text>
<text text-anchor="start" x="153.5" y="-226.5" font-family="Helvetica,sans-Serif" font-size="10.00">+</text>
<text text-anchor="start" x="166.5" y="-226.5" font-family="Helvetica,sans-Serif" font-size="10.00">requestKernelStop()</text>
<text text-anchor="start" x="153.5" y="-211.5" font-family="Helvetica,sans-Serif" font-size="10.00">+</text>
<text text-anchor="start" x="166.5" y="-211.5" font-family="Helvetica,sans-Serif" font-size="10.00">getSource()</text>
<text text-anchor="start" x="153.5" y="-196.5" font-family="Helvetica,sans-Serif" font-size="10.00">+</text>
<text text-anchor="start" x="166.5" y="-196.5" font-family="Helvetica,sans-Serif" font-size="10.00">getSource()</text>
<text text-anchor="start" x="153.5" y="-181.5" font-family="Helvetica,sans-Serif" font-size="10.00">+</text>
<text text-anchor="start" x="166.5" y="-181.5" font-family="Helvetica,sans-Serif" font-size="10.00">getSessionsDiscoverer()</text>
<text text-anchor="start" x="153.5" y="-166.5" font-family="Helvetica,sans-Serif" font-size="10.00">+</text>
<text text-anchor="start" x="166.5" y="-166.5" font-family="Helvetica,sans-Serif" font-size="10.00">fetchOwnerInfo()</text>
<text text-anchor="start" x="153.5" y="-151.5" font-family="Helvetica,sans-Serif" font-size="10.00">+</text>
<text text-anchor="start" x="166.5" y="-151.5" font-family="Helvetica,sans-Serif" font-size="10.00">getAppName()</text>
<text text-anchor="start" x="153.5" y="-136.5" font-family="Helvetica,sans-Serif" font-size="10.00">+</text>
<text text-anchor="start" x="166.5" y="-136.5" font-family="Helvetica,sans-Serif" font-size="10.00">getWorkQueue()</text>
<text text-anchor="start" x="153.5" y="-121.5" font-family="Helvetica,sans-Serif" font-size="10.00">+</text>
<text text-anchor="start" x="166.5" y="-121.5" font-family="Helvetica,sans-Serif" font-size="10.00">selectAllFrom()</text>
<text text-anchor="start" x="153.5" y="-106.5" font-family="Helvetica,sans-Serif" font-size="10.00">+</text>
<text text-anchor="start" x="166.5" y="-106.5" font-family="Helvetica,sans-Serif" font-size="10.00">getConfigFilePath()</text>
<polygon fill="#666666" stroke="#666666" points="149.5,-281.5 149.5,-281.5 289.5,-281.5 289.5,-281.5 149.5,-281.5"/>
<polygon fill="#666666" stroke="#666666" points="149.5,-266.5 149.5,-266.5 289.5,-266.5 289.5,-266.5 149.5,-266.5"/>
<polygon fill="none" stroke="#666666" points="149.5,-100 149.5,-299 289.5,-299 289.5,-100 149.5,-100"/>
</a>
</g>
</g>
<!-- Node3&#45;&gt;Node1 -->
<g id="edge2_Node000001_Node000003" class="edge">
<title>Node3&#45;&gt;Node1</title>
<g id="a_edge2_Node000001_Node000003"><a xlink:title=" ">
<path fill="none" stroke="#63b8ff" d="M169.3,-90.6C164.88,-81.09 160.68,-72.08 156.98,-64.12"/>
<polygon fill="none" stroke="#63b8ff" points="166.21,-92.25 173.6,-99.84 172.55,-89.29 166.21,-92.25"/>
</a>
</g>
</g>
</g>
</svg>
