<?xml version="1.0" encoding="UTF-8" standalone="no"?>
<!DOCTYPE svg PUBLIC "-//W3C//DTD SVG 1.1//EN"
 "http://www.w3.org/Graphics/SVG/1.1/DTD/svg11.dtd">
<!-- Generated by graphviz version 2.43.0 (0)
 -->
<!-- Title: sen::util::DeadReckonerTemplateBase&lt; T &gt; Pages: 1 -->
<svg width="376pt" height="598pt"
 viewBox="0.00 0.00 376.00 598.00" xmlns="http://www.w3.org/2000/svg" xmlns:xlink="http://www.w3.org/1999/xlink">
<g id="graph0" class="graph" transform="scale(1 1) rotate(0) translate(4 594)">
<title>sen::util::DeadReckonerTemplateBase&lt; T &gt;</title>
<!-- Node1 -->
<g id="Node000001" class="node">
<title>Node1</title>
<g id="a_Node000001"><a xlink:title="Base class for the DeadReckoner and SettableDeadReckoner classes.">
<polygon fill="#999999" stroke="transparent" points="262,-265 85,-265 85,-175 262,-175 262,-265"/>
<text text-anchor="start" x="93.5" y="-253" font-family="Helvetica,sans-Serif" font-size="10.00">sen::util::DeadReckonerTemplate</text>
<text text-anchor="start" x="147.5" y="-242" font-family="Helvetica,sans-Serif" font-size="10.00">Base&lt; T &gt;</text>
<text text-anchor="start" x="172" y="-227" font-family="Helvetica,sans-Serif" font-size="10.00"> </text>
<text text-anchor="start" x="89.5" y="-212" font-family="Helvetica,sans-Serif" font-size="10.00">+</text>
<text text-anchor="start" x="102.5" y="-212" font-family="Helvetica,sans-Serif" font-size="10.00">DeadReckonerTemplateBase()</text>
<text text-anchor="start" x="89.5" y="-197" font-family="Helvetica,sans-Serif" font-size="10.00">+</text>
<text text-anchor="start" x="102.5" y="-197" font-family="Helvetica,sans-Serif" font-size="10.00">~DeadReckonerTemplateBase()</text>
<text text-anchor="start" x="89.5" y="-182" font-family="Helvetica,sans-Serif" font-size="10.00">#</text>
<text text-anchor="start" x="102.5" y="-182" font-family="Helvetica,sans-Serif" font-size="10.00">extrapolate()</text>
<polygon fill="#666666" stroke="#666666" points="85.5,-237 85.5,-237 262.5,-237 262.5,-237 85.5,-237"/>
<polygon fill="#666666" stroke="#666666" points="85.5,-222 85.5,-222 262.5,-222 262.5,-222 85.5,-222"/>
<polygon fill="none" stroke="#666666" points="85,-175 85,-265 262,-265 262,-175 85,-175"/>
</a>
</g>
</g>
<!-- Node3 -->
<g id="Node000003" class="node">
<title>Node3</title>
<g id="a_Node000003"><a xlink:href="classsen_1_1util_1_1_dead_reckoner.html" target="_top" xlink:title="Enables the user to predict an object’s position and movement at any future time applying dead reckon...">
<polygon fill="white" stroke="transparent" points="155,-139 0,-139 0,0 155,0 155,-139"/>
<text text-anchor="start" x="5.5" y="-126.5" font-family="Helvetica,sans-Serif" font-size="10.00">sen::util::DeadReckoner&lt; T &gt;</text>
<text text-anchor="start" x="76" y="-111.5" font-family="Helvetica,sans-Serif" font-size="10.00"> </text>
<text text-anchor="start" x="11.5" y="-96.5" font-family="Helvetica,sans-Serif" font-size="10.00">+</text>
<text text-anchor="start" x="31.5" y="-96.5" font-family="Helvetica,sans-Serif" font-size="10.00">DeadReckoner()</text>
<text text-anchor="start" x="11.5" y="-81.5" font-family="Helvetica,sans-Serif" font-size="10.00">+</text>
<text text-anchor="start" x="31.5" y="-81.5" font-family="Helvetica,sans-Serif" font-size="10.00">~DeadReckoner()</text>
<text text-anchor="start" x="11.5" y="-66.5" font-family="Helvetica,sans-Serif" font-size="10.00">+</text>
<text text-anchor="start" x="31.5" y="-66.5" font-family="Helvetica,sans-Serif" font-size="10.00">situation()</text>
<text text-anchor="start" x="11.5" y="-51.5" font-family="Helvetica,sans-Serif" font-size="10.00">+</text>
<text text-anchor="start" x="31.5" y="-51.5" font-family="Helvetica,sans-Serif" font-size="10.00">geodeticSituation()</text>
<text text-anchor="start" x="11.5" y="-36.5" font-family="Helvetica,sans-Serif" font-size="10.00">+</text>
<text text-anchor="start" x="31.5" y="-36.5" font-family="Helvetica,sans-Serif" font-size="10.00">getObject()</text>
<text text-anchor="start" x="11.5" y="-21.5" font-family="Helvetica,sans-Serif" font-size="10.00">+</text>
<text text-anchor="start" x="31.5" y="-21.5" font-family="Helvetica,sans-Serif" font-size="10.00">toSituation()</text>
<text text-anchor="start" x="11.5" y="-6.5" font-family="Helvetica,sans-Serif" font-size="10.00">+</text>
<text text-anchor="start" x="31.5" y="-6.5" font-family="Helvetica,sans-Serif" font-size="10.00">toGeodeticSituation()</text>
<polygon fill="#666666" stroke="#666666" points="0.5,-121.5 0.5,-121.5 155.5,-121.5 155.5,-121.5 0.5,-121.5"/>
<polygon fill="#666666" stroke="#666666" points="0.5,-106.5 0.5,-106.5 155.5,-106.5 155.5,-106.5 0.5,-106.5"/>
<polygon fill="none" stroke="#666666" points="0,0 0,-139 155,-139 155,0 0,0"/>
</a>
</g>
</g>
<!-- Node1&#45;&gt;Node3 -->
<g id="edge2_Node000001_Node000003" class="edge">
<title>Node1&#45;&gt;Node3</title>
<g id="a_edge2_Node000001_Node000003"><a xlink:title=" ">
<path fill="none" stroke="#63b8ff" d="M139.41,-166.26C133.75,-157.51 127.81,-148.32 121.94,-139.24"/>
<polygon fill="none" stroke="#63b8ff" points="136.59,-168.35 144.96,-174.85 142.47,-164.55 136.59,-168.35"/>
</a>
</g>
</g>
<!-- Node4 -->
<g id="Node000004" class="node">
<title>Node4</title>
<g id="a_Node000004"><a xlink:href="classsen_1_1util_1_1_settable_dead_reckoner.html" target="_top" xlink:title="Allows the user to get the extrapolated situation of an object and to set the Spatial when the error ...">
<polygon fill="white" stroke="transparent" points="368,-139 173,-139 173,0 368,0 368,-139"/>
<text text-anchor="start" x="178.5" y="-126.5" font-family="Helvetica,sans-Serif" font-size="10.00">sen::util::SettableDeadReckoner&lt; T &gt;</text>
<text text-anchor="start" x="269" y="-111.5" font-family="Helvetica,sans-Serif" font-size="10.00"> </text>
<text text-anchor="start" x="189" y="-96.5" font-family="Helvetica,sans-Serif" font-size="10.00">+</text>
<text text-anchor="start" x="213.5" y="-96.5" font-family="Helvetica,sans-Serif" font-size="10.00">SettableDeadReckoner()</text>
<text text-anchor="start" x="189" y="-81.5" font-family="Helvetica,sans-Serif" font-size="10.00">+</text>
<text text-anchor="start" x="213.5" y="-81.5" font-family="Helvetica,sans-Serif" font-size="10.00">~SettableDeadReckoner()</text>
<text text-anchor="start" x="189" y="-66.5" font-family="Helvetica,sans-Serif" font-size="10.00">+</text>
<text text-anchor="start" x="213.5" y="-66.5" font-family="Helvetica,sans-Serif" font-size="10.00">object()</text>
<text text-anchor="start" x="189" y="-51.5" font-family="Helvetica,sans-Serif" font-size="10.00">+</text>
<text text-anchor="start" x="213.5" y="-51.5" font-family="Helvetica,sans-Serif" font-size="10.00">object()</text>
<text text-anchor="start" x="189" y="-36.5" font-family="Helvetica,sans-Serif" font-size="10.00">+</text>
<text text-anchor="start" x="213.5" y="-36.5" font-family="Helvetica,sans-Serif" font-size="10.00">setSpatial()</text>
<text text-anchor="start" x="189" y="-21.5" font-family="Helvetica,sans-Serif" font-size="10.00">+</text>
<text text-anchor="start" x="213.5" y="-21.5" font-family="Helvetica,sans-Serif" font-size="10.00">setSpatial()</text>
<text text-anchor="start" x="189" y="-6.5" font-family="Helvetica,sans-Serif" font-size="10.00">+</text>
<text text-anchor="start" x="213.5" y="-6.5" font-family="Helvetica,sans-Serif" font-size="10.00">setFrozen()</text>
<polygon fill="#666666" stroke="#666666" points="173.5,-121.5 173.5,-121.5 368.5,-121.5 368.5,-121.5 173.5,-121.5"/>
<polygon fill="#666666" stroke="#666666" points="173.5,-106.5 173.5,-106.5 368.5,-106.5 368.5,-106.5 173.5,-106.5"/>
<polygon fill="none" stroke="#666666" points="173,0 173,-139 368,-139 368,0 173,0"/>
</a>
</g>
</g>
<!-- Node1&#45;&gt;Node4 -->
<g id="edge3_Node000001_Node000004" class="edge">
<title>Node1&#45;&gt;Node4</title>
<g id="a_edge3_Node000001_Node000004"><a xlink:title=" ">
<path fill="none" stroke="#63b8ff" d="M207.95,-166.26C213.67,-157.51 219.67,-148.32 225.6,-139.24"/>
<polygon fill="none" stroke="#63b8ff" points="204.88,-164.56 202.34,-174.85 210.74,-168.39 204.88,-164.56"/>
</a>
</g>
</g>
<!-- Node2 -->
<g id="Node000002" class="node">
<title>Node2</title>
<g id="a_Node000002"><a xlink:href="classsen_1_1util_1_1_dead_reckoner_base.html" target="_top" xlink:title="Extrapolates the Situation of an entity at a certain time. The extrapolation is smoothed by default u...">
<polygon fill="white" stroke="transparent" points="257.5,-590 89.5,-590 89.5,-301 257.5,-301 257.5,-590"/>
<text text-anchor="start" x="103.5" y="-577.5" font-family="Helvetica,sans-Serif" font-size="10.00">sen::util::DeadReckonerBase</text>
<text text-anchor="start" x="171.5" y="-562.5" font-family="Helvetica,sans-Serif" font-size="10.00"> </text>
<text text-anchor="start" x="93.5" y="-547.5" font-family="Helvetica,sans-Serif" font-size="10.00">+</text>
<text text-anchor="start" x="106.5" y="-547.5" font-family="Helvetica,sans-Serif" font-size="10.00">DeadReckonerBase()</text>
<text text-anchor="start" x="93.5" y="-532.5" font-family="Helvetica,sans-Serif" font-size="10.00">+</text>
<text text-anchor="start" x="106.5" y="-532.5" font-family="Helvetica,sans-Serif" font-size="10.00">~DeadReckonerBase()</text>
<text text-anchor="start" x="93.5" y="-517.5" font-family="Helvetica,sans-Serif" font-size="10.00">+</text>
<text text-anchor="start" x="106.5" y="-517.5" font-family="Helvetica,sans-Serif" font-size="10.00">situation()</text>
<text text-anchor="start" x="93.5" y="-502.5" font-family="Helvetica,sans-Serif" font-size="10.00">+</text>
<text text-anchor="start" x="106.5" y="-502.5" font-family="Helvetica,sans-Serif" font-size="10.00">geodeticSituation()</text>
<text text-anchor="start" x="93.5" y="-487.5" font-family="Helvetica,sans-Serif" font-size="10.00">+</text>
<text text-anchor="start" x="106.5" y="-487.5" font-family="Helvetica,sans-Serif" font-size="10.00">updateSituation()</text>
<text text-anchor="start" x="93.5" y="-472.5" font-family="Helvetica,sans-Serif" font-size="10.00">+</text>
<text text-anchor="start" x="106.5" y="-472.5" font-family="Helvetica,sans-Serif" font-size="10.00">updateGeodeticSituation()</text>
<text text-anchor="start" x="93.5" y="-457.5" font-family="Helvetica,sans-Serif" font-size="10.00">+</text>
<text text-anchor="start" x="106.5" y="-457.5" font-family="Helvetica,sans-Serif" font-size="10.00">getConfig()</text>
<text text-anchor="start" x="93.5" y="-442.5" font-family="Helvetica,sans-Serif" font-size="10.00">+</text>
<text text-anchor="start" x="106.5" y="-442.5" font-family="Helvetica,sans-Serif" font-size="10.00">setConfig()</text>
<text text-anchor="start" x="93.5" y="-427.5" font-family="Helvetica,sans-Serif" font-size="10.00">#</text>
<text text-anchor="start" x="106.5" y="-427.5" font-family="Helvetica,sans-Serif" font-size="10.00">getSmoothSituation()</text>
<text text-anchor="start" x="93.5" y="-412.5" font-family="Helvetica,sans-Serif" font-size="10.00">#</text>
<text text-anchor="start" x="106.5" y="-412.5" font-family="Helvetica,sans-Serif" font-size="10.00">smooth()</text>
<text text-anchor="start" x="93.5" y="-397.5" font-family="Helvetica,sans-Serif" font-size="10.00">#</text>
<text text-anchor="start" x="106.5" y="-397.5" font-family="Helvetica,sans-Serif" font-size="10.00">invalidateCache()</text>
<text text-anchor="start" x="93.5" y="-382.5" font-family="Helvetica,sans-Serif" font-size="10.00">#</text>
<text text-anchor="start" x="106.5" y="-382.5" font-family="Helvetica,sans-Serif" font-size="10.00">isSituationCached()</text>
<text text-anchor="start" x="93.5" y="-367.5" font-family="Helvetica,sans-Serif" font-size="10.00">#</text>
<text text-anchor="start" x="106.5" y="-367.5" font-family="Helvetica,sans-Serif" font-size="10.00">setCachedSituation()</text>
<text text-anchor="start" x="93.5" y="-352.5" font-family="Helvetica,sans-Serif" font-size="10.00">#</text>
<text text-anchor="start" x="106.5" y="-352.5" font-family="Helvetica,sans-Serif" font-size="10.00">getCachedSituation()</text>
<text text-anchor="start" x="93.5" y="-337.5" font-family="Helvetica,sans-Serif" font-size="10.00">#</text>
<text text-anchor="start" x="106.5" y="-337.5" font-family="Helvetica,sans-Serif" font-size="10.00">isGeodeticSituationCached()</text>
<text text-anchor="start" x="93.5" y="-322.5" font-family="Helvetica,sans-Serif" font-size="10.00">#</text>
<text text-anchor="start" x="106.5" y="-322.5" font-family="Helvetica,sans-Serif" font-size="10.00">setCachedGeodeticSituation()</text>
<text text-anchor="start" x="93.5" y="-307.5" font-family="Helvetica,sans-Serif" font-size="10.00">#</text>
<text text-anchor="start" x="106.5" y="-307.5" font-family="Helvetica,sans-Serif" font-size="10.00">getCachedGeodeticSituation()</text>
<polygon fill="#666666" stroke="#666666" points="89.5,-572.5 89.5,-572.5 257.5,-572.5 257.5,-572.5 89.5,-572.5"/>
<polygon fill="#666666" stroke="#666666" points="89.5,-557.5 89.5,-557.5 257.5,-557.5 257.5,-557.5 89.5,-557.5"/>
<polygon fill="none" stroke="#666666" points="89.5,-301 89.5,-590 257.5,-590 257.5,-301 89.5,-301"/>
</a>
</g>
</g>
<!-- Node2&#45;&gt;Node1 -->
<g id="edge1_Node000001_Node000002" class="edge">
<title>Node2&#45;&gt;Node1</title>
<g id="a_edge1_Node000001_Node000002"><a xlink:title=" ">
<path fill="none" stroke="#63b8ff" d="M173.5,-290.47C173.5,-281.51 173.5,-272.98 173.5,-265.16"/>
<polygon fill="none" stroke="#63b8ff" points="170,-290.74 173.5,-300.74 177,-290.74 170,-290.74"/>
</a>
</g>
</g>
</g>
</svg>
