<?xml version="1.0" encoding="UTF-8" standalone="no"?>
<!DOCTYPE svg PUBLIC "-//W3C//DTD SVG 1.1//EN"
 "http://www.w3.org/Graphics/SVG/1.1/DTD/svg11.dtd">
<!-- Generated by graphviz version 2.43.0 (0)
 -->
<!-- Title: sen::lang::TypeSetContext::TypeSetIterator Pages: 1 -->
<svg width="164pt" height="194pt"
 viewBox="0.00 0.00 164.00 194.00" xmlns="http://www.w3.org/2000/svg" xmlns:xlink="http://www.w3.org/1999/xlink">
<g id="graph0" class="graph" transform="scale(1 1) rotate(0) translate(4 190)">
<title>sen::lang::TypeSetContext::TypeSetIterator</title>
<!-- Node1 -->
<g id="Node000001" class="node">
<title>Node1</title>
<g id="a_Node000001"><a xlink:title=" ">
<polygon fill="#999999" stroke="transparent" points="146.5,-90 9.5,-90 9.5,0 146.5,0 146.5,-90"/>
<text text-anchor="start" x="15" y="-78" font-family="Helvetica,sans-Serif" font-size="10.00">sen::lang::TypeSetContext</text>
<text text-anchor="start" x="38" y="-67" font-family="Helvetica,sans-Serif" font-size="10.00">::TypeSetIterator</text>
<text text-anchor="start" x="76.5" y="-52" font-family="Helvetica,sans-Serif" font-size="10.00"> </text>
<text text-anchor="start" x="27.5" y="-37" font-family="Helvetica,sans-Serif" font-size="10.00">+</text>
<text text-anchor="start" x="54" y="-37" font-family="Helvetica,sans-Serif" font-size="10.00">operator*()</text>
<text text-anchor="start" x="27.5" y="-22" font-family="Helvetica,sans-Serif" font-size="10.00">+</text>
<text text-anchor="start" x="54" y="-22" font-family="Helvetica,sans-Serif" font-size="10.00">operator&#45;&gt;()</text>
<text text-anchor="start" x="27.5" y="-7" font-family="Helvetica,sans-Serif" font-size="10.00">+</text>
<text text-anchor="start" x="54" y="-7" font-family="Helvetica,sans-Serif" font-size="10.00">operator[]()</text>
<polygon fill="#666666" stroke="#666666" points="10,-62 10,-62 147,-62 147,-62 10,-62"/>
<polygon fill="#666666" stroke="#666666" points="10,-47 10,-47 147,-47 147,-47 10,-47"/>
<polygon fill="none" stroke="#666666" points="9.5,0 9.5,-90 146.5,-90 146.5,0 9.5,0"/>
</a>
</g>
</g>
<!-- Node2 -->
<g id="Node000002" class="node">
<title>Node2</title>
<g id="a_Node000002"><a xlink:title=" ">
<polygon fill="white" stroke="transparent" points="156,-186 0,-186 0,-126 156,-126 156,-186"/>
<text text-anchor="start" x="5" y="-174" font-family="Helvetica,sans-Serif" font-size="10.00">TypeSetStorageContainerType</text>
<text text-anchor="start" x="41" y="-163" font-family="Helvetica,sans-Serif" font-size="10.00">::const_iterator</text>
<text text-anchor="start" x="76" y="-148" font-family="Helvetica,sans-Serif" font-size="10.00"> </text>
<text text-anchor="start" x="76" y="-133" font-family="Helvetica,sans-Serif" font-size="10.00"> </text>
<polygon fill="#666666" stroke="#666666" points="0,-158 0,-158 156,-158 156,-158 0,-158"/>
<polygon fill="#666666" stroke="#666666" points="0,-143 0,-143 156,-143 156,-143 0,-143"/>
<polygon fill="none" stroke="#666666" points="0,-126 0,-186 156,-186 156,-126 0,-126"/>
</a>
</g>
</g>
<!-- Node2&#45;&gt;Node1 -->
<g id="edge1_Node000001_Node000002" class="edge">
<title>Node2&#45;&gt;Node1</title>
<g id="a_edge1_Node000001_Node000002"><a xlink:title=" ">
<path fill="none" stroke="#63b8ff" d="M78,-115.62C78,-107.32 78,-98.52 78,-90.06"/>
<polygon fill="none" stroke="#63b8ff" points="74.5,-115.79 78,-125.79 81.5,-115.79 74.5,-115.79"/>
</a>
</g>
</g>
</g>
</svg>
