<?xml version="1.0" encoding="UTF-8" standalone="no"?>
<!DOCTYPE svg PUBLIC "-//W3C//DTD SVG 1.1//EN"
 "http://www.w3.org/Graphics/SVG/1.1/DTD/svg11.dtd">
<!-- Generated by graphviz version 2.43.0 (0)
 -->
<!-- Title: Base classes Pages: 1 -->
<svg width="392pt" height="224pt"
 viewBox="0.00 0.00 392.00 224.00" xmlns="http://www.w3.org/2000/svg" xmlns:xlink="http://www.w3.org/1999/xlink">
<g id="graph0" class="graph" transform="scale(1 1) rotate(0) translate(4 220)">
<title>Base classes</title>
<!-- Node1 -->
<g id="Node000001" class="node">
<title>Node1</title>
<g id="a_Node000001"><a xlink:title="General purpose, used by all other modules.">
<polygon fill="#999999" stroke="#666666" points="190,-120 110,-120 110,-101 190,-101 190,-120"/>
<text text-anchor="middle" x="150" y="-108" font-family="Helvetica,sans-Serif" font-size="10.00">Base classes</text>
</a>
</g>
</g>
<!-- Node3 -->
<g id="Node000003" class="node">
<title>Node3</title>
<g id="a_Node000003"><a xlink:href="group__error__handling.html" target="_top" xlink:title="Error processing, assertions, contracts, results.">
<polygon fill="white" stroke="#666666" points="347.5,-216 262.5,-216 262.5,-197 347.5,-197 347.5,-216"/>
<text text-anchor="middle" x="305" y="-204" font-family="Helvetica,sans-Serif" font-size="10.00">Error handling</text>
</a>
</g>
</g>
<!-- Node1&#45;&gt;Node3 -->
<g id="edge2" class="edge">
<title>Node1&#45;&gt;Node3</title>
<path fill="none" stroke="black" d="M163.46,-128.61C176.82,-146.59 199.7,-173.58 226,-188.5 237,-194.74 250.04,-198.82 262.27,-201.48"/>
<polygon fill="black" stroke="black" points="166.05,-126.21 157.38,-120.13 160.37,-130.3 166.05,-126.21"/>
</g>
<!-- Node6 -->
<g id="Node000006" class="node">
<title>Node6</title>
<g id="a_Node000006"><a xlink:href="group__hash.html" target="_top" xlink:title="Hashing and compression utilities.">
<polygon fill="white" stroke="#666666" points="376.5,-179 233.5,-179 233.5,-160 376.5,-160 376.5,-179"/>
<text text-anchor="middle" x="305" y="-167" font-family="Helvetica,sans-Serif" font-size="10.00">Hashing and compression</text>
</a>
</g>
</g>
<!-- Node1&#45;&gt;Node6 -->
<g id="edge5" class="edge">
<title>Node1&#45;&gt;Node6</title>
<path fill="none" stroke="black" d="M174.38,-125.45C188.78,-134.11 207.91,-144.62 226,-151.5 234.7,-154.81 244.19,-157.62 253.46,-159.97"/>
<polygon fill="black" stroke="black" points="176,-122.34 165.65,-120.08 172.33,-128.3 176,-122.34"/>
</g>
<!-- Node4 -->
<g id="Node000004" class="node">
<title>Node4</title>
<g id="a_Node000004"><a xlink:href="group__macros.html" target="_top" xlink:title="General utility macros.">
<polygon fill="white" stroke="#666666" points="331,-142 279,-142 279,-123 331,-123 331,-142"/>
<text text-anchor="middle" x="305" y="-130" font-family="Helvetica,sans-Serif" font-size="10.00">Macros</text>
</a>
</g>
</g>
<!-- Node1&#45;&gt;Node4 -->
<g id="edge3" class="edge">
<title>Node1&#45;&gt;Node4</title>
<path fill="none" stroke="black" d="M200.17,-117.57C226.45,-121.35 257.67,-125.84 278.97,-128.9"/>
<polygon fill="black" stroke="black" points="200.4,-114.07 190,-116.11 199.4,-121 200.4,-114.07"/>
</g>
<!-- Node7 -->
<g id="Node000007" class="node">
<title>Node7</title>
<g id="a_Node000007"><a xlink:href="group__mem.html" target="_top" xlink:title="Pools, pointers, and related utilities.">
<polygon fill="white" stroke="#666666" points="367.5,-104.5 242.5,-104.5 242.5,-74.5 367.5,-74.5 367.5,-104.5"/>
<text text-anchor="start" x="250.5" y="-92.5" font-family="Helvetica,sans-Serif" font-size="10.00">Memory manipulation</text>
<text text-anchor="middle" x="305" y="-81.5" font-family="Helvetica,sans-Serif" font-size="10.00"> utilities</text>
</a>
</g>
</g>
<!-- Node1&#45;&gt;Node7 -->
<g id="edge6" class="edge">
<title>Node1&#45;&gt;Node7</title>
<path fill="none" stroke="black" d="M200.04,-103.77C213.54,-101.92 228.36,-99.88 242.47,-97.95"/>
<polygon fill="black" stroke="black" points="199.44,-100.32 190,-105.15 200.39,-107.25 199.44,-100.32"/>
</g>
<!-- Node5 -->
<g id="Node000005" class="node">
<title>Node5</title>
<g id="a_Node000005"><a xlink:href="group__templates.html" target="_top" xlink:title="Compile&#45;time template magic.">
<polygon fill="white" stroke="#666666" points="384,-56 226,-56 226,-37 384,-37 384,-56"/>
<text text-anchor="middle" x="305" y="-44" font-family="Helvetica,sans-Serif" font-size="10.00">Template Meta Programming</text>
</a>
</g>
</g>
<!-- Node1&#45;&gt;Node5 -->
<g id="edge4" class="edge">
<title>Node1&#45;&gt;Node5</title>
<path fill="none" stroke="black" d="M172.46,-95.24C186.98,-85.52 206.92,-73.33 226,-65.5 235.15,-61.74 245.23,-58.61 255.01,-56.04"/>
<polygon fill="black" stroke="black" points="170.45,-92.37 164.17,-100.91 174.4,-98.15 170.45,-92.37"/>
</g>
<!-- Node8 -->
<g id="Node000008" class="node">
<title>Node8</title>
<g id="a_Node000008"><a xlink:href="group__util.html" target="_top" xlink:title="Containers, adapters, and commonly used functions.">
<polygon fill="white" stroke="#666666" points="352.5,-19 257.5,-19 257.5,0 352.5,0 352.5,-19"/>
<text text-anchor="middle" x="305" y="-7" font-family="Helvetica,sans-Serif" font-size="10.00">General utilities</text>
</a>
</g>
</g>
<!-- Node1&#45;&gt;Node8 -->
<g id="edge7" class="edge">
<title>Node1&#45;&gt;Node8</title>
<path fill="none" stroke="black" d="M162.42,-92.35C175.44,-73.21 198.52,-43.65 226,-27.5 235.47,-21.94 246.52,-18.09 257.27,-15.44"/>
<polygon fill="black" stroke="black" points="159.44,-90.52 156.87,-100.8 165.28,-94.37 159.44,-90.52"/>
</g>
<!-- Node2 -->
<g id="Node000002" class="node">
<title>Node2</title>
<g id="a_Node000002"><a xlink:href="group__core.html" target="_top" xlink:title="Core library.">
<polygon fill="white" stroke="#666666" points="74,-120 0,-120 0,-101 74,-101 74,-120"/>
<text text-anchor="middle" x="37" y="-108" font-family="Helvetica,sans-Serif" font-size="10.00">Core library</text>
</a>
</g>
</g>
<!-- Node2&#45;&gt;Node1 -->
<g id="edge1" class="edge">
<title>Node2&#45;&gt;Node1</title>
<path fill="none" stroke="black" d="M84.18,-110.5C92.66,-110.5 101.44,-110.5 109.69,-110.5"/>
<polygon fill="black" stroke="black" points="84.04,-107 74.04,-110.5 84.04,-114 84.04,-107"/>
</g>
</g>
</svg>
