<?xml version="1.0" encoding="UTF-8" standalone="no"?>
<!DOCTYPE svg PUBLIC "-//W3C//DTD SVG 1.1//EN"
 "http://www.w3.org/Graphics/SVG/1.1/DTD/svg11.dtd">
<!-- Generated by graphviz version 2.43.0 (0)
 -->
<!-- Title: Core library Pages: 1 -->
<svg width="249pt" height="175pt"
 viewBox="0.00 0.00 249.00 175.00" xmlns="http://www.w3.org/2000/svg" xmlns:xlink="http://www.w3.org/1999/xlink">
<g id="graph0" class="graph" transform="scale(1 1) rotate(0) translate(4 171)">
<title>Core library</title>
<!-- Node2 -->
<g id="Node000002" class="node">
<title>Node2</title>
<g id="a_Node000002"><a xlink:href="group__base.html" target="_top" xlink:title="General purpose, used by all other modules.">
<polygon fill="white" stroke="#666666" points="215.5,-167 135.5,-167 135.5,-148 215.5,-148 215.5,-167"/>
<text text-anchor="middle" x="175.5" y="-155" font-family="Helvetica,sans-Serif" font-size="10.00">Base classes</text>
</a>
</g>
</g>
<!-- Node1 -->
<g id="Node000001" class="node">
<title>Node1</title>
<g id="a_Node000001"><a xlink:title="Core library.">
<polygon fill="#999999" stroke="#666666" points="74,-93 0,-93 0,-74 74,-74 74,-93"/>
<text text-anchor="middle" x="37" y="-81" font-family="Helvetica,sans-Serif" font-size="10.00">Core library</text>
</a>
</g>
</g>
<!-- Node1&#45;&gt;Node2 -->
<g id="edge1" class="edge">
<title>Node1&#45;&gt;Node2</title>
<path fill="none" stroke="black" d="M55.56,-100.36C69.37,-112.78 89.62,-129.24 110,-139.5 117.89,-143.47 126.78,-146.68 135.38,-149.21"/>
<polygon fill="black" stroke="black" points="57.57,-97.46 47.85,-93.24 52.82,-102.6 57.57,-97.46"/>
</g>
<!-- Node3 -->
<g id="Node000003" class="node">
<title>Node3</title>
<g id="a_Node000003"><a xlink:href="group__io.html" target="_top" xlink:title="Serialization and deserialization functions.">
<polygon fill="white" stroke="#666666" points="241,-130 110,-130 110,-111 241,-111 241,-130"/>
<text text-anchor="middle" x="175.5" y="-118" font-family="Helvetica,sans-Serif" font-size="10.00">Low level input / output</text>
</a>
</g>
</g>
<!-- Node1&#45;&gt;Node3 -->
<g id="edge2" class="edge">
<title>Node1&#45;&gt;Node3</title>
<path fill="none" stroke="black" d="M82.97,-95.69C101.17,-100.62 121.88,-106.24 138.99,-110.88"/>
<polygon fill="black" stroke="black" points="83.72,-92.27 73.15,-93.03 81.89,-99.02 83.72,-92.27"/>
</g>
<!-- Node5 -->
<g id="Node000005" class="node">
<title>Node5</title>
<g id="a_Node000005"><a xlink:href="group__lang.html" target="_top" xlink:title="Parsing and execution of STL.">
<polygon fill="white" stroke="#666666" points="241,-93 110,-93 110,-74 241,-74 241,-93"/>
<text text-anchor="middle" x="175.5" y="-81" font-family="Helvetica,sans-Serif" font-size="10.00">The Sen Type Language</text>
</a>
</g>
</g>
<!-- Node1&#45;&gt;Node5 -->
<g id="edge4" class="edge">
<title>Node1&#45;&gt;Node5</title>
<path fill="none" stroke="black" d="M84.34,-83.5C92.55,-83.5 101.25,-83.5 109.86,-83.5"/>
<polygon fill="black" stroke="black" points="84.22,-80 74.22,-83.5 84.22,-87 84.22,-80"/>
</g>
<!-- Node4 -->
<g id="Node000004" class="node">
<title>Node4</title>
<g id="a_Node000004"><a xlink:href="group__meta.html" target="_top" xlink:title="Types that represent types.">
<polygon fill="white" stroke="#666666" points="229,-56 122,-56 122,-37 229,-37 229,-56"/>
<text text-anchor="middle" x="175.5" y="-44" font-family="Helvetica,sans-Serif" font-size="10.00">Meta Type System</text>
</a>
</g>
</g>
<!-- Node1&#45;&gt;Node4 -->
<g id="edge3" class="edge">
<title>Node1&#45;&gt;Node4</title>
<path fill="none" stroke="black" d="M82.97,-71.31C101.17,-66.38 121.88,-60.76 138.99,-56.12"/>
<polygon fill="black" stroke="black" points="81.89,-67.98 73.15,-73.97 83.72,-74.73 81.89,-67.98"/>
</g>
<!-- Node6 -->
<g id="Node000006" class="node">
<title>Node6</title>
<g id="a_Node000006"><a xlink:href="group__obj.html" target="_top" xlink:title="Manipulation of objects.">
<polygon fill="white" stroke="#666666" points="202,-19 149,-19 149,0 202,0 202,-19"/>
<text text-anchor="middle" x="175.5" y="-7" font-family="Helvetica,sans-Serif" font-size="10.00">Objects</text>
</a>
</g>
</g>
<!-- Node1&#45;&gt;Node6 -->
<g id="edge5" class="edge">
<title>Node1&#45;&gt;Node6</title>
<path fill="none" stroke="black" d="M55.66,-67.04C69.52,-54.89 89.79,-38.75 110,-28.5 122.18,-22.32 136.7,-17.82 148.88,-14.76"/>
<polygon fill="black" stroke="black" points="53.01,-64.71 47.92,-74 57.69,-69.91 53.01,-64.71"/>
</g>
</g>
</svg>
