<?xml version="1.0" encoding="UTF-8" standalone="no"?>
<!DOCTYPE svg PUBLIC "-//W3C//DTD SVG 1.1//EN"
 "http://www.w3.org/Graphics/SVG/1.1/DTD/svg11.dtd">
<!-- Generated by graphviz version 2.43.0 (0)
 -->
<!-- Title: Meta Type System Pages: 1 -->
<svg width="457pt" height="124pt"
 viewBox="0.00 0.00 457.00 124.49" xmlns="http://www.w3.org/2000/svg" xmlns:xlink="http://www.w3.org/1999/xlink">
<g id="graph0" class="graph" transform="scale(1 1) rotate(0) translate(4 120.49)">
<title>Meta Type System</title>
<!-- Node2 -->
<g id="Node000002" class="node">
<title>Node2</title>
<g id="a_Node000002"><a xlink:href="group__core.html" target="_top" xlink:title="Core library.">
<polygon fill="white" stroke="#666666" points="67,-66.49 0,-66.49 0,-47.49 67,-47.49 67,-66.49"/>
<text text-anchor="middle" x="33.5" y="-54.49" font-family="Helvetica,sans-Serif" font-size="10.00">Core library</text>
</a>
</g>
</g>
<!-- Node1 -->
<g id="Node000001" class="node">
<title>Node1</title>
<g id="a_Node000001"><a xlink:title="Types that represent types.">
<polygon fill="#999999" stroke="#666666" points="202,-66.49 104,-66.49 104,-47.49 202,-47.49 202,-66.49"/>
<text text-anchor="middle" x="153" y="-54.49" font-family="Helvetica,sans-Serif" font-size="10.00">Meta Type System</text>
</a>
</g>
</g>
<!-- Node2&#45;&gt;Node1 -->
<g id="edge1" class="edge">
<title>Node2&#45;&gt;Node1</title>
<path fill="none" stroke="black" d="M77.35,-56.99C85.89,-56.99 94.92,-56.99 103.63,-56.99"/>
<polygon fill="black" stroke="black" points="77.23,-53.49 67.23,-56.99 77.23,-60.49 77.23,-53.49"/>
</g>
<!-- Node3 -->
<g id="Node000003" class="node">
<title>Node3</title>
<g id="a_Node000003"><a xlink:href="group__traits.html" target="_top" xlink:title="Trait structures for generated types.">
<polygon fill="white" stroke="#666666" points="404,-116.49 363,-116.49 363,-97.49 404,-97.49 404,-116.49"/>
<text text-anchor="middle" x="383.5" y="-104.49" font-family="Helvetica,sans-Serif" font-size="10.00">Traits</text>
</a>
</g>
</g>
<!-- Node1&#45;&gt;Node3 -->
<g id="edge2" class="edge">
<title>Node1&#45;&gt;Node3</title>
<path fill="none" stroke="black" d="M194.9,-69.4C203.17,-71.73 211.84,-74.04 220,-75.99 271.12,-88.2 332.19,-98.79 362.87,-103.84"/>
<polygon fill="black" stroke="black" points="195.65,-65.97 185.07,-66.57 193.71,-72.7 195.65,-65.97"/>
</g>
<!-- Node5 -->
<g id="Node000005" class="node">
<title>Node5</title>
<g id="a_Node000005"><a xlink:href="group__type__utils.html" target="_top" xlink:title="Helpers for working with meta types.">
<polygon fill="white" stroke="#666666" points="449,-79.49 318,-79.49 318,-60.49 449,-60.49 449,-79.49"/>
<text text-anchor="middle" x="383.5" y="-67.49" font-family="Helvetica,sans-Serif" font-size="10.00">Type Manipulation Utilities</text>
</a>
</g>
</g>
<!-- Node1&#45;&gt;Node5 -->
<g id="edge4" class="edge">
<title>Node1&#45;&gt;Node5</title>
<path fill="none" stroke="black" d="M212.35,-60.31C244.6,-62.14 284.72,-64.43 317.91,-66.32"/>
<polygon fill="black" stroke="black" points="212.36,-56.8 202.18,-59.73 211.96,-63.79 212.36,-56.8"/>
</g>
<!-- Node4 -->
<g id="Node000004" class="node">
<title>Node4</title>
<g id="a_Node000004"><a xlink:href="group__types.html" target="_top" xlink:title="Classes and containers describing native and custom types.">
<polygon fill="white" stroke="#666666" points="405,-30.49 362,-30.49 362,-11.49 405,-11.49 405,-30.49"/>
<text text-anchor="middle" x="383.5" y="-18.49" font-family="Helvetica,sans-Serif" font-size="10.00">Types</text>
</a>
</g>
</g>
<!-- Node1&#45;&gt;Node4 -->
<g id="edge3" class="edge">
<title>Node1&#45;&gt;Node4</title>
<path fill="none" stroke="black" d="M212.33,-47.8C261.26,-40.09 328.36,-29.52 361.8,-24.25"/>
<polygon fill="black" stroke="black" points="211.51,-44.39 202.18,-49.4 212.6,-51.3 211.51,-44.39"/>
</g>
<!-- Node1&#45;&gt;Node4 -->
<g id="edge5" class="edge">
<title>Node1&#45;&gt;Node4</title>
<path fill="none" stroke="orange" stroke-dasharray="5,2" d="M163.13,-47.11C174.91,-35.17 196.69,-15.7 220,-7.99 268.91,8.18 330.41,-5.21 361.87,-14.31"/>
<text text-anchor="middle" x="260" y="-21.99" font-family="Helvetica,sans-Serif" font-size="10.00">sen::NumericType</text>
<text text-anchor="middle" x="260" y="-10.99" font-family="Helvetica,sans-Serif" font-size="10.00">sen::IntegralType</text>
</g>
</g>
</svg>
