<?xml version="1.0" encoding="UTF-8" standalone="no"?>
<!DOCTYPE svg PUBLIC "-//W3C//DTD SVG 1.1//EN"
 "http://www.w3.org/Graphics/SVG/1.1/DTD/svg11.dtd">
<!-- Generated by graphviz version 2.43.0 (0)
 -->
<!-- Title: Meta Type System Pages: 1 -->
<svg width="497pt" height="125pt"
 viewBox="0.00 0.00 497.00 124.95" xmlns="http://www.w3.org/2000/svg" xmlns:xlink="http://www.w3.org/1999/xlink">
<g id="graph0" class="graph" transform="scale(1 1) rotate(0) translate(4 120.95)">
<title>Meta Type System</title>
<!-- Node2 -->
<g id="Node000002" class="node">
<title>Node2</title>
<g id="a_Node000002"><a xlink:href="group__core.html" target="_top" xlink:title="Core library.">
<polygon fill="white" stroke="#666666" points="74,-66.95 0,-66.95 0,-47.95 74,-47.95 74,-66.95"/>
<text text-anchor="middle" x="37" y="-54.95" font-family="Helvetica,sans-Serif" font-size="10.00">Core library</text>
</a>
</g>
</g>
<!-- Node1 -->
<g id="Node000001" class="node">
<title>Node1</title>
<g id="a_Node000001"><a xlink:title="Types that represent types.">
<polygon fill="#999999" stroke="#666666" points="218,-66.95 111,-66.95 111,-47.95 218,-47.95 218,-66.95"/>
<text text-anchor="middle" x="164.5" y="-54.95" font-family="Helvetica,sans-Serif" font-size="10.00">Meta Type System</text>
</a>
</g>
</g>
<!-- Node2&#45;&gt;Node1 -->
<g id="edge1" class="edge">
<title>Node2&#45;&gt;Node1</title>
<path fill="none" stroke="black" d="M84.53,-57.45C93.13,-57.45 102.18,-57.45 110.94,-57.45"/>
<polygon fill="black" stroke="black" points="84.3,-53.95 74.3,-57.45 84.3,-60.95 84.3,-53.95"/>
</g>
<!-- Node3 -->
<g id="Node000003" class="node">
<title>Node3</title>
<g id="a_Node000003"><a xlink:href="group__traits.html" target="_top" xlink:title="Trait structures for generated types.">
<polygon fill="white" stroke="#666666" points="437,-116.95 394,-116.95 394,-97.95 437,-97.95 437,-116.95"/>
<text text-anchor="middle" x="415.5" y="-104.95" font-family="Helvetica,sans-Serif" font-size="10.00">Traits</text>
</a>
</g>
</g>
<!-- Node1&#45;&gt;Node3 -->
<g id="edge2" class="edge">
<title>Node1&#45;&gt;Node3</title>
<path fill="none" stroke="black" d="M208.06,-69.59C217.23,-72.02 226.91,-74.44 236,-76.45 292.66,-88.98 360.37,-99.55 393.77,-104.48"/>
<polygon fill="black" stroke="black" points="208.91,-66.2 198.34,-66.97 207.09,-72.95 208.91,-66.2"/>
</g>
<!-- Node5 -->
<g id="Node000005" class="node">
<title>Node5</title>
<g id="a_Node000005"><a xlink:href="group__type__utils.html" target="_top" xlink:title="Helpers for working with meta types.">
<polygon fill="white" stroke="#666666" points="489,-79.95 342,-79.95 342,-60.95 489,-60.95 489,-79.95"/>
<text text-anchor="middle" x="415.5" y="-67.95" font-family="Helvetica,sans-Serif" font-size="10.00">Type Manipulation Utilities</text>
</a>
</g>
</g>
<!-- Node1&#45;&gt;Node5 -->
<g id="edge4" class="edge">
<title>Node1&#45;&gt;Node5</title>
<path fill="none" stroke="black" d="M228.42,-60.74C262.91,-62.54 305.84,-64.78 341.77,-66.65"/>
<polygon fill="black" stroke="black" points="228.17,-57.22 218,-60.19 227.81,-64.21 228.17,-57.22"/>
</g>
<!-- Node4 -->
<g id="Node000004" class="node">
<title>Node4</title>
<g id="a_Node000004"><a xlink:href="group__types.html" target="_top" xlink:title="Classes and containers describing native and custom types.">
<polygon fill="white" stroke="#666666" points="437.5,-30.95 393.5,-30.95 393.5,-11.95 437.5,-11.95 437.5,-30.95"/>
<text text-anchor="middle" x="415.5" y="-18.95" font-family="Helvetica,sans-Serif" font-size="10.00">Types</text>
</a>
</g>
</g>
<!-- Node1&#45;&gt;Node4 -->
<g id="edge3" class="edge">
<title>Node1&#45;&gt;Node4</title>
<path fill="none" stroke="black" d="M228.2,-48.39C282.34,-40.56 357.39,-29.71 393.47,-24.49"/>
<polygon fill="black" stroke="black" points="227.4,-44.96 218,-49.86 228.4,-51.89 227.4,-44.96"/>
</g>
<!-- Node1&#45;&gt;Node4 -->
<g id="edge5" class="edge">
<title>Node1&#45;&gt;Node4</title>
<path fill="none" stroke="orange" stroke-dasharray="5,2" d="M175.39,-47.56C188.12,-35.6 211.54,-16.12 236,-8.45 290.7,8.69 359.27,-5.63 393.31,-14.96"/>
<text text-anchor="middle" x="280" y="-22.45" font-family="Helvetica,sans-Serif" font-size="10.00">sen::NumericType</text>
<text text-anchor="middle" x="280" y="-11.45" font-family="Helvetica,sans-Serif" font-size="10.00">sen::IntegralType</text>
</g>
</g>
</svg>
