<?xml version="1.0" encoding="UTF-8" standalone="no"?>
<!DOCTYPE svg PUBLIC "-//W3C//DTD SVG 1.1//EN"
 "http://www.w3.org/Graphics/SVG/1.1/DTD/svg11.dtd">
<!-- Generated by graphviz version 2.43.0 (0)
 -->
<!-- Title: Types Pages: 1 -->
<svg width="283pt" height="44pt"
 viewBox="0.00 0.00 283.00 44.45" xmlns="http://www.w3.org/2000/svg" xmlns:xlink="http://www.w3.org/1999/xlink">
<g id="graph0" class="graph" transform="scale(1 1) rotate(0) translate(4 40.45)">
<title>Types</title>
<!-- Node2 -->
<g id="Node000002" class="node">
<title>Node2</title>
<g id="a_Node000002"><a xlink:href="group__meta.html" target="_top" xlink:title="Types that represent types.">
<polygon fill="white" stroke="#666666" points="107,-36.45 0,-36.45 0,-17.45 107,-17.45 107,-36.45"/>
<text text-anchor="middle" x="53.5" y="-24.45" font-family="Helvetica,sans-Serif" font-size="10.00">Meta Type System</text>
</a>
</g>
</g>
<!-- Node1 -->
<g id="Node000001" class="node">
<title>Node1</title>
<g id="a_Node000001"><a xlink:title="Classes and containers describing native and custom types.">
<polygon fill="#999999" stroke="#666666" points="275,-36.45 231,-36.45 231,-17.45 275,-17.45 275,-36.45"/>
<text text-anchor="middle" x="253" y="-24.45" font-family="Helvetica,sans-Serif" font-size="10.00">Types</text>
</a>
</g>
</g>
<!-- Node2&#45;&gt;Node1 -->
<g id="edge1" class="edge">
<title>Node2&#45;&gt;Node1</title>
<path fill="none" stroke="black" d="M117.07,-31.66C146.24,-33.16 181.42,-33.96 213,-31.95 218.86,-31.57 225.18,-30.89 231,-30.14"/>
<polygon fill="black" stroke="black" points="117.19,-28.17 107.01,-31.11 116.8,-35.15 117.19,-28.17"/>
</g>
<!-- Node1&#45;&gt;Node2 -->
<g id="edge2" class="edge">
<title>Node1&#45;&gt;Node2</title>
<path fill="none" stroke="orange" stroke-dasharray="5,2" d="M238.25,-17.37C231.08,-12.96 221.95,-8.2 213,-5.95 175.08,3.62 163.7,-0.3 125,-5.95 109.71,-8.18 93.12,-12.99 79.88,-17.45"/>
<text text-anchor="middle" x="169" y="-19.95" font-family="Helvetica,sans-Serif" font-size="10.00">sen::NumericType</text>
<text text-anchor="middle" x="169" y="-8.95" font-family="Helvetica,sans-Serif" font-size="10.00">sen::IntegralType</text>
</g>
</g>
</svg>
