<?xml version="1.0" encoding="UTF-8" standalone="no"?>
<!DOCTYPE svg PUBLIC "-//W3C//DTD SVG 1.1//EN"
 "http://www.w3.org/Graphics/SVG/1.1/DTD/svg11.dtd">
<!-- Generated by graphviz version 2.43.0 (0)
 -->
<!-- Title: Graphical Class Hierarchy Pages: 1 -->
<svg width="467pt" height="172pt"
 viewBox="0.00 0.00 467.00 171.50" xmlns="http://www.w3.org/2000/svg" xmlns:xlink="http://www.w3.org/1999/xlink">
<g id="graph0" class="graph" transform="scale(1 1) rotate(0) translate(4 167.5)">
<title>Graphical Class Hierarchy</title>
<!-- Node0 -->
<g id="Node000000" class="node">
<title>Node0</title>
<g id="a_Node000000"><a xlink:href="classsen_1_1_strong_type_base.html" target="_top" xlink:title="Wraps T to make it a strong type.">
<polygon fill="white" stroke="#666666" points="146,-86 0,-86 0,-67 146,-67 146,-86"/>
<text text-anchor="middle" x="73" y="-74" font-family="Helvetica,sans-Serif" font-size="10.00">sen::StrongTypeBase&lt; T &gt;</text>
</a>
</g>
</g>
<!-- Node1 -->
<g id="Node000001" class="node">
<title>Node1</title>
<g id="a_Node000001"><a xlink:href="classsen_1_1_strong_type.html" target="_top" xlink:title=" ">
<polygon fill="white" stroke="#666666" points="310,-163.5 190,-163.5 190,-133.5 310,-133.5 310,-163.5"/>
<text text-anchor="start" x="198" y="-151.5" font-family="Helvetica,sans-Serif" font-size="10.00">sen::StrongType&lt; std</text>
<text text-anchor="middle" x="250" y="-140.5" font-family="Helvetica,sans-Serif" font-size="10.00">::int64_t, Duration &gt;</text>
</a>
</g>
</g>
<!-- Node0&#45;&gt;Node1 -->
<g id="edge28_Node000000_Node000001" class="edge">
<title>Node0&#45;&gt;Node1</title>
<g id="a_edge28_Node000000_Node000001"><a xlink:title=" ">
<path fill="none" stroke="#63b8ff" d="M103.78,-90.45C125.33,-100.37 155.24,-113.78 182,-124.5 189.57,-127.53 197.69,-130.6 205.57,-133.48"/>
<polygon fill="#63b8ff" stroke="#63b8ff" points="105.06,-87.18 94.51,-86.16 102.12,-93.54 105.06,-87.18"/>
</a>
</g>
</g>
<!-- Node3 -->
<g id="Node000003" class="node">
<title>Node3</title>
<g id="a_Node000003"><a xlink:href="classsen_1_1_strong_type.html" target="_top" xlink:title=" ">
<polygon fill="white" stroke="#666666" points="318,-115.5 182,-115.5 182,-85.5 318,-85.5 318,-115.5"/>
<text text-anchor="start" x="190" y="-103.5" font-family="Helvetica,sans-Serif" font-size="10.00">sen::StrongType&lt; uint32</text>
<text text-anchor="middle" x="250" y="-92.5" font-family="Helvetica,sans-Serif" font-size="10.00">_t, MemberHash &gt;</text>
</a>
</g>
</g>
<!-- Node0&#45;&gt;Node3 -->
<g id="edge30_Node000000_Node000003" class="edge">
<title>Node0&#45;&gt;Node3</title>
<g id="a_edge30_Node000000_Node000003"><a xlink:title=" ">
<path fill="none" stroke="#63b8ff" d="M153.62,-87.42C163.09,-88.72 172.68,-90.03 181.95,-91.3"/>
<polygon fill="#63b8ff" stroke="#63b8ff" points="153.8,-83.91 143.42,-86.02 152.85,-90.85 153.8,-83.91"/>
</a>
</g>
</g>
<!-- Node5 -->
<g id="Node000005" class="node">
<title>Node5</title>
<g id="a_Node000005"><a xlink:href="classsen_1_1_strong_type.html" target="_top" xlink:title=" ">
<polygon fill="white" stroke="#666666" points="318,-67.5 182,-67.5 182,-37.5 318,-37.5 318,-67.5"/>
<text text-anchor="start" x="190" y="-55.5" font-family="Helvetica,sans-Serif" font-size="10.00">sen::StrongType&lt; uint32</text>
<text text-anchor="middle" x="250" y="-44.5" font-family="Helvetica,sans-Serif" font-size="10.00">_t, BusId &gt;</text>
</a>
</g>
</g>
<!-- Node0&#45;&gt;Node5 -->
<g id="edge32_Node000000_Node000005" class="edge">
<title>Node0&#45;&gt;Node5</title>
<g id="a_edge32_Node000000_Node000005"><a xlink:title=" ">
<path fill="none" stroke="#63b8ff" d="M153.62,-65.58C163.09,-64.28 172.68,-62.97 181.95,-61.7"/>
<polygon fill="#63b8ff" stroke="#63b8ff" points="152.85,-62.15 143.42,-66.98 153.8,-69.09 152.85,-62.15"/>
</a>
</g>
</g>
<!-- Node7 -->
<g id="Node000007" class="node">
<title>Node7</title>
<g id="a_Node000007"><a xlink:href="classsen_1_1_strong_type.html" target="_top" xlink:title="CRTP class that wraps T to make it a strong type.">
<polygon fill="white" stroke="#666666" points="318,-19 182,-19 182,0 318,0 318,-19"/>
<text text-anchor="middle" x="250" y="-7" font-family="Helvetica,sans-Serif" font-size="10.00">sen::StrongType&lt; T, D &gt;</text>
</a>
</g>
</g>
<!-- Node0&#45;&gt;Node7 -->
<g id="edge34_Node000000_Node000007" class="edge">
<title>Node0&#45;&gt;Node7</title>
<g id="a_edge34_Node000000_Node000007"><a xlink:title=" ">
<path fill="none" stroke="#63b8ff" d="M102.39,-62.55C123.91,-52.31 154.39,-38.49 182,-28.5 191.55,-25.04 202.05,-21.81 211.84,-19.02"/>
<polygon fill="#63b8ff" stroke="#63b8ff" points="100.67,-59.5 93.17,-66.98 103.7,-65.81 100.67,-59.5"/>
</a>
</g>
</g>
<!-- Node2 -->
<g id="Node000002" class="node">
<title>Node2</title>
<g id="a_Node000002"><a xlink:href="classsen_1_1_duration.html" target="_top" xlink:title="A time duration.">
<polygon fill="white" stroke="#666666" points="447.5,-158 365.5,-158 365.5,-139 447.5,-139 447.5,-158"/>
<text text-anchor="middle" x="406.5" y="-146" font-family="Helvetica,sans-Serif" font-size="10.00">sen::Duration</text>
</a>
</g>
</g>
<!-- Node1&#45;&gt;Node2 -->
<g id="edge29_Node000001_Node000002" class="edge">
<title>Node1&#45;&gt;Node2</title>
<g id="a_edge29_Node000001_Node000002"><a xlink:title=" ">
<path fill="none" stroke="#63b8ff" d="M320.31,-148.5C335.7,-148.5 351.5,-148.5 365.26,-148.5"/>
<polygon fill="#63b8ff" stroke="#63b8ff" points="320.29,-145 310.29,-148.5 320.29,-152 320.29,-145"/>
</a>
</g>
</g>
<!-- Node4 -->
<g id="Node000004" class="node">
<title>Node4</title>
<g id="a_Node000004"><a xlink:href="structsen_1_1_member_hash.html" target="_top" xlink:title="The hash of a member.">
<polygon fill="white" stroke="#666666" points="459,-110 354,-110 354,-91 459,-91 459,-110"/>
<text text-anchor="middle" x="406.5" y="-98" font-family="Helvetica,sans-Serif" font-size="10.00">sen::MemberHash</text>
</a>
</g>
</g>
<!-- Node3&#45;&gt;Node4 -->
<g id="edge31_Node000003_Node000004" class="edge">
<title>Node3&#45;&gt;Node4</title>
<g id="a_edge31_Node000003_Node000004"><a xlink:title=" ">
<path fill="none" stroke="#63b8ff" d="M328.38,-100.5C336.98,-100.5 345.58,-100.5 353.74,-100.5"/>
<polygon fill="#63b8ff" stroke="#63b8ff" points="328.32,-97 318.32,-100.5 328.32,-104 328.32,-97"/>
</a>
</g>
</g>
<!-- Node6 -->
<g id="Node000006" class="node">
<title>Node6</title>
<g id="a_Node000006"><a xlink:href="structsen_1_1kernel_1_1_bus_id.html" target="_top" xlink:title=" ">
<polygon fill="white" stroke="#666666" points="458,-62 355,-62 355,-43 458,-43 458,-62"/>
<text text-anchor="middle" x="406.5" y="-50" font-family="Helvetica,sans-Serif" font-size="10.00">sen::kernel::BusId</text>
</a>
</g>
</g>
<!-- Node5&#45;&gt;Node6 -->
<g id="edge33_Node000005_Node000006" class="edge">
<title>Node5&#45;&gt;Node6</title>
<g id="a_edge33_Node000005_Node000006"><a xlink:title=" ">
<path fill="none" stroke="#63b8ff" d="M328.37,-52.5C337.3,-52.5 346.23,-52.5 354.67,-52.5"/>
<polygon fill="#63b8ff" stroke="#63b8ff" points="328.32,-49 318.32,-52.5 328.32,-56 328.32,-49"/>
</a>
</g>
</g>
</g>
</svg>
