<?xml version="1.0" encoding="UTF-8" standalone="no"?>
<!DOCTYPE svg PUBLIC "-//W3C//DTD SVG 1.1//EN"
 "http://www.w3.org/Graphics/SVG/1.1/DTD/svg11.dtd">
<!-- Generated by graphviz version 2.43.0 (0)
 -->
<!-- Title: Graphical Class Hierarchy Pages: 1 -->
<svg width="262pt" height="76pt"
 viewBox="0.00 0.00 262.00 75.50" xmlns="http://www.w3.org/2000/svg" xmlns:xlink="http://www.w3.org/1999/xlink">
<g id="graph0" class="graph" transform="scale(1 1) rotate(0) translate(4 71.5)">
<title>Graphical Class Hierarchy</title>
<!-- Node0 -->
<g id="Node000000" class="node">
<title>Node0</title>
<g id="a_Node000000"><a xlink:title=" ">
<polygon fill="#e0e0e0" stroke="#999999" points="86,-45.5 0,-45.5 0,-26.5 86,-26.5 86,-45.5"/>
<text text-anchor="middle" x="43" y="-33.5" font-family="Helvetica,sans-Serif" font-size="10.00">TestClassBase</text>
</a>
</g>
</g>
<!-- Node1 -->
<g id="Node000001" class="node">
<title>Node1</title>
<g id="a_Node000001"><a xlink:href="classsen_1_1test_1_1_test_class_impl.html" target="_top" xlink:title=" ">
<polygon fill="white" stroke="#666666" points="254,-67.5 122,-67.5 122,-48.5 254,-48.5 254,-67.5"/>
<text text-anchor="middle" x="188" y="-55.5" font-family="Helvetica,sans-Serif" font-size="10.00">sen::test::TestClassImpl</text>
</a>
</g>
</g>
<!-- Node0&#45;&gt;Node1 -->
<g id="edge119_Node000000_Node000001" class="edge">
<title>Node0&#45;&gt;Node1</title>
<g id="a_edge119_Node000000_Node000001"><a xlink:title=" ">
<path fill="none" stroke="#63b8ff" d="M96.11,-44.02C105.5,-45.46 115.39,-46.98 125.03,-48.47"/>
<polygon fill="#63b8ff" stroke="#63b8ff" points="96.55,-40.54 86.13,-42.48 95.48,-47.46 96.55,-40.54"/>
</a>
</g>
</g>
<!-- Node2 -->
<g id="Node000002" class="node">
<title>Node2</title>
<g id="a_Node000002"><a xlink:href="classsen_1_1test_1_1runtime_1_1_test_class_impl.html" target="_top" xlink:title=" ">
<polygon fill="white" stroke="#666666" points="239.5,-30 136.5,-30 136.5,0 239.5,0 239.5,-30"/>
<text text-anchor="start" x="144.5" y="-18" font-family="Helvetica,sans-Serif" font-size="10.00">sen::test::runtime</text>
<text text-anchor="middle" x="188" y="-7" font-family="Helvetica,sans-Serif" font-size="10.00">::TestClassImpl</text>
</a>
</g>
</g>
<!-- Node0&#45;&gt;Node2 -->
<g id="edge120_Node000000_Node000002" class="edge">
<title>Node0&#45;&gt;Node2</title>
<g id="a_edge120_Node000000_Node000002"><a xlink:title=" ">
<path fill="none" stroke="#63b8ff" d="M96.36,-28.31C109.4,-26.4 123.36,-24.35 136.33,-22.44"/>
<polygon fill="#63b8ff" stroke="#63b8ff" points="95.52,-24.9 86.13,-29.81 96.53,-31.82 95.52,-24.9"/>
</a>
</g>
</g>
</g>
</svg>
