<?xml version="1.0" encoding="UTF-8" standalone="no"?>
<!DOCTYPE svg PUBLIC "-//W3C//DTD SVG 1.1//EN"
 "http://www.w3.org/Graphics/SVG/1.1/DTD/svg11.dtd">
<!-- Generated by graphviz version 2.43.0 (0)
 -->
<!-- Title: Graphical Class Hierarchy Pages: 1 -->
<svg width="328pt" height="637pt"
 viewBox="0.00 0.00 328.00 637.00" xmlns="http://www.w3.org/2000/svg" xmlns:xlink="http://www.w3.org/1999/xlink">
<g id="graph0" class="graph" transform="scale(1 1) rotate(0) translate(4 633)">
<title>Graphical Class Hierarchy</title>
<!-- Node0 -->
<g id="Node000000" class="node">
<title>Node0</title>
<g id="a_Node000000"><a xlink:title=" ">
<polygon fill="#e0e0e0" stroke="#999999" points="84,-324 0,-324 0,-305 84,-305 84,-324"/>
<text text-anchor="middle" x="42" y="-312" font-family="Helvetica,sans-Serif" font-size="10.00">std::true_type</text>
</a>
</g>
</g>
<!-- Node1 -->
<g id="Node000001" class="node">
<title>Node1</title>
<g id="a_Node000001"><a xlink:href="structsen_1_1_has_value_type_3_01_t_00_01std_1_1void__t_3_01typename_01_t_1_1_value_type_01_4_01_4.html" target="_top" xlink:title="return true if T has an &#39;using ValueType&#39; or a &#39;typedef ValueType&#39;">
<polygon fill="white" stroke="#666666" points="291.5,-629 148.5,-629 148.5,-588 291.5,-588 291.5,-629"/>
<text text-anchor="start" x="156.5" y="-617" font-family="Helvetica,sans-Serif" font-size="10.00">sen::HasValueType&lt;</text>
<text text-anchor="start" x="156.5" y="-606" font-family="Helvetica,sans-Serif" font-size="10.00"> T, std::void_t&lt; typename</text>
<text text-anchor="middle" x="220" y="-595" font-family="Helvetica,sans-Serif" font-size="10.00"> T::ValueType &gt; &gt;</text>
</a>
</g>
</g>
<!-- Node0&#45;&gt;Node1 -->
<g id="edge87_Node000000_Node000001" class="edge">
<title>Node0&#45;&gt;Node1</title>
<g id="a_edge87_Node000000_Node000001"><a xlink:title=" ">
<path fill="none" stroke="#63b8ff" d="M42.76,-334.09C43.26,-382.57 51.45,-509.23 120,-578.5 127.9,-586.48 137.84,-592.35 148.35,-596.67"/>
<polygon fill="#63b8ff" stroke="#63b8ff" points="46.26,-334.01 42.76,-324.01 39.26,-334.01 46.26,-334.01"/>
</a>
</g>
</g>
<!-- Node2 -->
<g id="Node000002" class="node">
<title>Node2</title>
<g id="a_Node000002"><a xlink:href="structsen_1_1_should_be_passed_by_value_3_01_conn_id_01_4.html" target="_top" xlink:title=" ">
<polygon fill="white" stroke="#666666" points="299.5,-569.5 140.5,-569.5 140.5,-539.5 299.5,-539.5 299.5,-569.5"/>
<text text-anchor="start" x="148.5" y="-557.5" font-family="Helvetica,sans-Serif" font-size="10.00">sen::ShouldBePassedByValue</text>
<text text-anchor="middle" x="220" y="-546.5" font-family="Helvetica,sans-Serif" font-size="10.00">&lt; ConnId &gt;</text>
</a>
</g>
</g>
<!-- Node0&#45;&gt;Node2 -->
<g id="edge88_Node000000_Node000002" class="edge">
<title>Node0&#45;&gt;Node2</title>
<g id="a_edge88_Node000000_Node000002"><a xlink:title=" ">
<path fill="none" stroke="#63b8ff" d="M44.05,-334.71C47.42,-377.53 61.47,-477.79 120,-530.5 125.91,-535.83 132.81,-540.02 140.15,-543.32"/>
<polygon fill="#63b8ff" stroke="#63b8ff" points="47.53,-334.2 43.37,-324.46 40.54,-334.67 47.53,-334.2"/>
</a>
</g>
</g>
<!-- Node3 -->
<g id="Node000003" class="node">
<title>Node3</title>
<g id="a_Node000003"><a xlink:href="structsen_1_1_should_be_passed_by_value_3_01_duration_01_4.html" target="_top" xlink:title=" ">
<polygon fill="white" stroke="#666666" points="299.5,-521.5 140.5,-521.5 140.5,-491.5 299.5,-491.5 299.5,-521.5"/>
<text text-anchor="start" x="148.5" y="-509.5" font-family="Helvetica,sans-Serif" font-size="10.00">sen::ShouldBePassedByValue</text>
<text text-anchor="middle" x="220" y="-498.5" font-family="Helvetica,sans-Serif" font-size="10.00">&lt; Duration &gt;</text>
</a>
</g>
</g>
<!-- Node0&#45;&gt;Node3 -->
<g id="edge89_Node000000_Node000003" class="edge">
<title>Node0&#45;&gt;Node3</title>
<g id="a_edge89_Node000000_Node000003"><a xlink:title=" ">
<path fill="none" stroke="#63b8ff" d="M46.29,-334.29C53.25,-369.66 72.87,-443.64 120,-482.5 126,-487.45 132.87,-491.41 140.12,-494.57"/>
<polygon fill="#63b8ff" stroke="#63b8ff" points="49.7,-333.46 44.46,-324.26 42.81,-334.72 49.7,-333.46"/>
</a>
</g>
</g>
<!-- Node4 -->
<g id="Node000004" class="node">
<title>Node4</title>
<g id="a_Node000004"><a xlink:href="structsen_1_1_should_be_passed_by_value_3_01_interest_id_01_4.html" target="_top" xlink:title="Unique identifier that represents the interest.">
<polygon fill="white" stroke="#666666" points="299.5,-473.5 140.5,-473.5 140.5,-443.5 299.5,-443.5 299.5,-473.5"/>
<text text-anchor="start" x="148.5" y="-461.5" font-family="Helvetica,sans-Serif" font-size="10.00">sen::ShouldBePassedByValue</text>
<text text-anchor="middle" x="220" y="-450.5" font-family="Helvetica,sans-Serif" font-size="10.00">&lt; InterestId &gt;</text>
</a>
</g>
</g>
<!-- Node0&#45;&gt;Node4 -->
<g id="edge90_Node000000_Node000004" class="edge">
<title>Node0&#45;&gt;Node4</title>
<g id="a_edge90_Node000000_Node000004"><a xlink:title=" ">
<path fill="none" stroke="#63b8ff" d="M49.88,-333.47C60.59,-360.25 83.87,-408.76 120,-434.5 126.19,-438.91 133.1,-442.52 140.3,-445.47"/>
<polygon fill="#63b8ff" stroke="#63b8ff" points="53.12,-332.14 46.27,-324.05 46.58,-334.64 53.12,-332.14"/>
</a>
</g>
</g>
<!-- Node5 -->
<g id="Node000005" class="node">
<title>Node5</title>
<g id="a_Node000005"><a xlink:href="structsen_1_1_should_be_passed_by_value_3_01_member_hash_01_4.html" target="_top" xlink:title=" ">
<polygon fill="white" stroke="#666666" points="299.5,-425.5 140.5,-425.5 140.5,-395.5 299.5,-395.5 299.5,-425.5"/>
<text text-anchor="start" x="148.5" y="-413.5" font-family="Helvetica,sans-Serif" font-size="10.00">sen::ShouldBePassedByValue</text>
<text text-anchor="middle" x="220" y="-402.5" font-family="Helvetica,sans-Serif" font-size="10.00">&lt; MemberHash &gt;</text>
</a>
</g>
</g>
<!-- Node0&#45;&gt;Node5 -->
<g id="edge91_Node000000_Node000005" class="edge">
<title>Node0&#45;&gt;Node5</title>
<g id="a_edge91_Node000000_Node000005"><a xlink:title=" ">
<path fill="none" stroke="#63b8ff" d="M56.92,-331.92C71.07,-348.44 94.49,-372.73 120,-386.5 126.38,-389.94 133.26,-392.9 140.31,-395.44"/>
<polygon fill="#63b8ff" stroke="#63b8ff" points="59.49,-329.53 50.4,-324.08 54.11,-334.01 59.49,-329.53"/>
</a>
</g>
</g>
<!-- Node6 -->
<g id="Node000006" class="node">
<title>Node6</title>
<g id="a_Node000006"><a xlink:href="structsen_1_1_should_be_passed_by_value_3_01_object_id_01_4.html" target="_top" xlink:title="Unique identifier for any object instance.">
<polygon fill="white" stroke="#666666" points="299.5,-377.5 140.5,-377.5 140.5,-347.5 299.5,-347.5 299.5,-377.5"/>
<text text-anchor="start" x="148.5" y="-365.5" font-family="Helvetica,sans-Serif" font-size="10.00">sen::ShouldBePassedByValue</text>
<text text-anchor="middle" x="220" y="-354.5" font-family="Helvetica,sans-Serif" font-size="10.00">&lt; ObjectId &gt;</text>
</a>
</g>
</g>
<!-- Node0&#45;&gt;Node6 -->
<g id="edge92_Node000000_Node000006" class="edge">
<title>Node0&#45;&gt;Node6</title>
<g id="a_edge92_Node000000_Node000006"><a xlink:title=" ">
<path fill="none" stroke="#63b8ff" d="M81.95,-327.18C94.09,-330.98 107.56,-335.06 120,-338.5 131.08,-341.57 142.91,-344.62 154.41,-347.48"/>
<polygon fill="#63b8ff" stroke="#63b8ff" points="82.71,-323.74 72.12,-324.06 80.6,-330.42 82.71,-323.74"/>
</a>
</g>
</g>
<!-- Node7 -->
<g id="Node000007" class="node">
<title>Node7</title>
<g id="a_Node000007"><a xlink:href="structsen_1_1_should_be_passed_by_value_3_01_object_owner_id_01_4.html" target="_top" xlink:title="Identifies the owner of an object.">
<polygon fill="white" stroke="#666666" points="299.5,-329.5 140.5,-329.5 140.5,-299.5 299.5,-299.5 299.5,-329.5"/>
<text text-anchor="start" x="148.5" y="-317.5" font-family="Helvetica,sans-Serif" font-size="10.00">sen::ShouldBePassedByValue</text>
<text text-anchor="middle" x="220" y="-306.5" font-family="Helvetica,sans-Serif" font-size="10.00">&lt; ObjectOwnerId &gt;</text>
</a>
</g>
</g>
<!-- Node0&#45;&gt;Node7 -->
<g id="edge93_Node000000_Node000007" class="edge">
<title>Node0&#45;&gt;Node7</title>
<g id="a_edge93_Node000000_Node000007"><a xlink:title=" ">
<path fill="none" stroke="#63b8ff" d="M94.42,-314.5C108.8,-314.5 124.76,-314.5 140.33,-314.5"/>
<polygon fill="#63b8ff" stroke="#63b8ff" points="94.26,-311 84.26,-314.5 94.26,-318 94.26,-311"/>
</a>
</g>
</g>
<!-- Node8 -->
<g id="Node000008" class="node">
<title>Node8</title>
<g id="a_Node000008"><a xlink:href="structsen_1_1_should_be_passed_by_value_3_01_quantity_3_01_t_00_01_d_01_4_01_4.html" target="_top" xlink:title=" ">
<polygon fill="white" stroke="#666666" points="299.5,-281.5 140.5,-281.5 140.5,-251.5 299.5,-251.5 299.5,-281.5"/>
<text text-anchor="start" x="148.5" y="-269.5" font-family="Helvetica,sans-Serif" font-size="10.00">sen::ShouldBePassedByValue</text>
<text text-anchor="middle" x="220" y="-258.5" font-family="Helvetica,sans-Serif" font-size="10.00">&lt; Quantity&lt; T, D &gt; &gt;</text>
</a>
</g>
</g>
<!-- Node0&#45;&gt;Node8 -->
<g id="edge94_Node000000_Node000008" class="edge">
<title>Node0&#45;&gt;Node8</title>
<g id="a_edge94_Node000000_Node000008"><a xlink:title=" ">
<path fill="none" stroke="#63b8ff" d="M81.95,-301.82C94.09,-298.02 107.56,-293.94 120,-290.5 131.08,-287.43 142.91,-284.38 154.41,-281.52"/>
<polygon fill="#63b8ff" stroke="#63b8ff" points="80.6,-298.58 72.12,-304.94 82.71,-305.26 80.6,-298.58"/>
</a>
</g>
</g>
<!-- Node9 -->
<g id="Node000009" class="node">
<title>Node9</title>
<g id="a_Node000009"><a xlink:href="structsen_1_1_should_be_passed_by_value_3_01_strong_type_3_01_t_00_01_d_01_4_01_4.html" target="_top" xlink:title=" ">
<polygon fill="white" stroke="#666666" points="299.5,-233.5 140.5,-233.5 140.5,-203.5 299.5,-203.5 299.5,-233.5"/>
<text text-anchor="start" x="148.5" y="-221.5" font-family="Helvetica,sans-Serif" font-size="10.00">sen::ShouldBePassedByValue</text>
<text text-anchor="middle" x="220" y="-210.5" font-family="Helvetica,sans-Serif" font-size="10.00">&lt; StrongType&lt; T, D &gt; &gt;</text>
</a>
</g>
</g>
<!-- Node0&#45;&gt;Node9 -->
<g id="edge95_Node000000_Node000009" class="edge">
<title>Node0&#45;&gt;Node9</title>
<g id="a_edge95_Node000000_Node000009"><a xlink:title=" ">
<path fill="none" stroke="#63b8ff" d="M56.92,-297.08C71.07,-280.56 94.49,-256.27 120,-242.5 126.38,-239.06 133.26,-236.1 140.31,-233.56"/>
<polygon fill="#63b8ff" stroke="#63b8ff" points="54.11,-294.99 50.4,-304.92 59.49,-299.47 54.11,-294.99"/>
</a>
</g>
</g>
<!-- Node10 -->
<g id="Node000010" class="node">
<title>Node10</title>
<g id="a_Node000010"><a xlink:href="structsen_1_1_should_be_passed_by_value_3_01_strong_type_base_3_01_t_01_4_01_4.html" target="_top" xlink:title=" ">
<polygon fill="white" stroke="#666666" points="299.5,-185.5 140.5,-185.5 140.5,-155.5 299.5,-155.5 299.5,-185.5"/>
<text text-anchor="start" x="148.5" y="-173.5" font-family="Helvetica,sans-Serif" font-size="10.00">sen::ShouldBePassedByValue</text>
<text text-anchor="middle" x="220" y="-162.5" font-family="Helvetica,sans-Serif" font-size="10.00">&lt; StrongTypeBase&lt; T &gt; &gt;</text>
</a>
</g>
</g>
<!-- Node0&#45;&gt;Node10 -->
<g id="edge96_Node000000_Node000010" class="edge">
<title>Node0&#45;&gt;Node10</title>
<g id="a_edge96_Node000000_Node000010"><a xlink:title=" ">
<path fill="none" stroke="#63b8ff" d="M49.88,-295.53C60.59,-268.75 83.87,-220.24 120,-194.5 126.19,-190.09 133.1,-186.48 140.3,-183.53"/>
<polygon fill="#63b8ff" stroke="#63b8ff" points="46.58,-294.36 46.27,-304.95 53.12,-296.86 46.58,-294.36"/>
</a>
</g>
</g>
<!-- Node11 -->
<g id="Node000011" class="node">
<title>Node11</title>
<g id="a_Node000011"><a xlink:href="structsen_1_1_should_be_passed_by_value_3_01_time_stamp_01_4.html" target="_top" xlink:title=" ">
<polygon fill="white" stroke="#666666" points="299.5,-137.5 140.5,-137.5 140.5,-107.5 299.5,-107.5 299.5,-137.5"/>
<text text-anchor="start" x="148.5" y="-125.5" font-family="Helvetica,sans-Serif" font-size="10.00">sen::ShouldBePassedByValue</text>
<text text-anchor="middle" x="220" y="-114.5" font-family="Helvetica,sans-Serif" font-size="10.00">&lt; TimeStamp &gt;</text>
</a>
</g>
</g>
<!-- Node0&#45;&gt;Node11 -->
<g id="edge97_Node000000_Node000011" class="edge">
<title>Node0&#45;&gt;Node11</title>
<g id="a_edge97_Node000000_Node000011"><a xlink:title=" ">
<path fill="none" stroke="#63b8ff" d="M46.29,-294.71C53.25,-259.34 72.87,-185.36 120,-146.5 126,-141.55 132.87,-137.59 140.12,-134.43"/>
<polygon fill="#63b8ff" stroke="#63b8ff" points="42.81,-294.28 44.46,-304.74 49.7,-295.54 42.81,-294.28"/>
</a>
</g>
</g>
<!-- Node12 -->
<g id="Node000012" class="node">
<title>Node12</title>
<g id="a_Node000012"><a xlink:href="structsen_1_1std__util_1_1_is_instantiation_of_3_01_template_00_01_template_3_01_args_8_8_8_01_4_01_4.html" target="_top" xlink:title=" ">
<polygon fill="white" stroke="#666666" points="320,-89.5 120,-89.5 120,-59.5 320,-59.5 320,-89.5"/>
<text text-anchor="start" x="128" y="-77.5" font-family="Helvetica,sans-Serif" font-size="10.00">sen::std_util::IsInstantiation</text>
<text text-anchor="middle" x="220" y="-66.5" font-family="Helvetica,sans-Serif" font-size="10.00">Of&lt; Template, Template&lt; Args... &gt; &gt;</text>
</a>
</g>
</g>
<!-- Node0&#45;&gt;Node12 -->
<g id="edge98_Node000000_Node000012" class="edge">
<title>Node0&#45;&gt;Node12</title>
<g id="a_edge98_Node000000_Node000012"><a xlink:title=" ">
<path fill="none" stroke="#63b8ff" d="M44.05,-294.29C47.42,-251.47 61.47,-151.21 120,-98.5 123.81,-95.07 128.03,-92.11 132.51,-89.55"/>
<polygon fill="#63b8ff" stroke="#63b8ff" points="40.54,-294.33 43.37,-304.54 47.53,-294.8 40.54,-294.33"/>
</a>
</g>
</g>
<!-- Node13 -->
<g id="Node000013" class="node">
<title>Node13</title>
<g id="a_Node000013"><a xlink:href="structsen_1_1std__util_1_1detail_1_1_is_in_place_type_3_01std_1_1in__place__type__t_3_01_t_01_4_01_4.html" target="_top" xlink:title=" ">
<polygon fill="white" stroke="#666666" points="289.5,-41 150.5,-41 150.5,0 289.5,0 289.5,-41"/>
<text text-anchor="start" x="158.5" y="-29" font-family="Helvetica,sans-Serif" font-size="10.00">sen::std_util::detail</text>
<text text-anchor="start" x="158.5" y="-18" font-family="Helvetica,sans-Serif" font-size="10.00">::IsInPlaceType&lt; std</text>
<text text-anchor="middle" x="220" y="-7" font-family="Helvetica,sans-Serif" font-size="10.00">::in_place_type_t&lt; T &gt; &gt;</text>
</a>
</g>
</g>
<!-- Node0&#45;&gt;Node13 -->
<g id="edge99_Node000000_Node000013" class="edge">
<title>Node0&#45;&gt;Node13</title>
<g id="a_edge99_Node000000_Node000013"><a xlink:title=" ">
<path fill="none" stroke="#63b8ff" d="M42.76,-294.91C43.26,-246.43 51.45,-119.77 120,-50.5 128.4,-42.01 139.12,-35.91 150.38,-31.52"/>
<polygon fill="#63b8ff" stroke="#63b8ff" points="39.26,-294.99 42.76,-304.99 46.26,-294.99 39.26,-294.99"/>
</a>
</g>
</g>
</g>
</svg>
