<?xml version="1.0" encoding="UTF-8" standalone="no"?>
<!DOCTYPE svg PUBLIC "-//W3C//DTD SVG 1.1//EN"
 "http://www.w3.org/Graphics/SVG/1.1/DTD/svg11.dtd">
<!-- Generated by graphviz version 2.43.0 (0)
 -->
<!-- Title: Graphical Class Hierarchy Pages: 1 -->
<svg width="400pt" height="38pt"
 viewBox="0.00 0.00 400.00 38.00" xmlns="http://www.w3.org/2000/svg" xmlns:xlink="http://www.w3.org/1999/xlink">
<g id="graph0" class="graph" transform="scale(1 1) rotate(0) translate(4 34)">
<title>Graphical Class Hierarchy</title>
<!-- Node0 -->
<g id="Node000000" class="node">
<title>Node0</title>
<g id="a_Node000000"><a xlink:href="classsen_1_1_strong_type_base.html" target="_top" xlink:title=" ">
<polygon fill="white" stroke="#666666" points="118,-30 0,-30 0,0 118,0 118,-30"/>
<text text-anchor="start" x="8" y="-18" font-family="Helvetica,sans-Serif" font-size="10.00">sen::StrongTypeBase</text>
<text text-anchor="middle" x="59" y="-7" font-family="Helvetica,sans-Serif" font-size="10.00">&lt; std::int64_t &gt;</text>
</a>
</g>
</g>
<!-- Node1 -->
<g id="Node000001" class="node">
<title>Node1</title>
<g id="a_Node000001"><a xlink:href="classsen_1_1_strong_type.html" target="_top" xlink:title=" ">
<polygon fill="white" stroke="#666666" points="274,-30 154,-30 154,0 274,0 274,-30"/>
<text text-anchor="start" x="162" y="-18" font-family="Helvetica,sans-Serif" font-size="10.00">sen::StrongType&lt; std</text>
<text text-anchor="middle" x="214" y="-7" font-family="Helvetica,sans-Serif" font-size="10.00">::int64_t, Duration &gt;</text>
</a>
</g>
</g>
<!-- Node0&#45;&gt;Node1 -->
<g id="edge31_Node000000_Node000001" class="edge">
<title>Node0&#45;&gt;Node1</title>
<g id="a_edge31_Node000000_Node000001"><a xlink:title=" ">
<path fill="none" stroke="#63b8ff" d="M128.51,-15C136.97,-15 145.56,-15 153.87,-15"/>
<polygon fill="#63b8ff" stroke="#63b8ff" points="128.28,-11.5 118.28,-15 128.28,-18.5 128.28,-11.5"/>
</a>
</g>
</g>
<!-- Node2 -->
<g id="Node000002" class="node">
<title>Node2</title>
<g id="a_Node000002"><a xlink:href="classsen_1_1_duration.html" target="_top" xlink:title="A time duration.">
<polygon fill="white" stroke="#666666" points="392,-24.5 310,-24.5 310,-5.5 392,-5.5 392,-24.5"/>
<text text-anchor="middle" x="351" y="-12.5" font-family="Helvetica,sans-Serif" font-size="10.00">sen::Duration</text>
</a>
</g>
</g>
<!-- Node1&#45;&gt;Node2 -->
<g id="edge32_Node000001_Node000002" class="edge">
<title>Node1&#45;&gt;Node2</title>
<g id="a_edge32_Node000001_Node000002"><a xlink:title=" ">
<path fill="none" stroke="#63b8ff" d="M284.42,-15C293.14,-15 301.81,-15 309.85,-15"/>
<polygon fill="#63b8ff" stroke="#63b8ff" points="284.21,-11.5 274.21,-15 284.21,-18.5 284.21,-11.5"/>
</a>
</g>
</g>
</g>
</svg>
