<?xml version="1.0" encoding="UTF-8" standalone="no"?>
<!DOCTYPE svg PUBLIC "-//W3C//DTD SVG 1.1//EN"
 "http://www.w3.org/Graphics/SVG/1.1/DTD/svg11.dtd">
<!-- Generated by graphviz version 2.43.0 (0)
 -->
<!-- Title: Graphical Class Hierarchy Pages: 1 -->
<svg width="201pt" height="64pt"
 viewBox="0.00 0.00 201.00 64.00" xmlns="http://www.w3.org/2000/svg" xmlns:xlink="http://www.w3.org/1999/xlink">
<g id="graph0" class="graph" transform="scale(1 1) rotate(0) translate(4 60)">
<title>Graphical Class Hierarchy</title>
<!-- Node0 -->
<g id="Node000000" class="node">
<title>Node0</title>
<g id="a_Node000000"><a xlink:href="classsen_1_1_callable.html" target="_top" xlink:title="Represents something that can be called.">
<polygon fill="white" stroke="#666666" points="80,-37 0,-37 0,-18 80,-18 80,-37"/>
<text text-anchor="middle" x="40" y="-25" font-family="Helvetica,sans-Serif" font-size="10.00">sen::Callable</text>
</a>
</g>
</g>
<!-- Node1 -->
<g id="Node000001" class="node">
<title>Node1</title>
<g id="a_Node000001"><a xlink:href="classsen_1_1_event.html" target="_top" xlink:title="Represents an event.">
<polygon fill="white" stroke="#666666" points="188.5,-56 120.5,-56 120.5,-37 188.5,-37 188.5,-56"/>
<text text-anchor="middle" x="154.5" y="-44" font-family="Helvetica,sans-Serif" font-size="10.00">sen::Event</text>
</a>
</g>
</g>
<!-- Node0&#45;&gt;Node1 -->
<g id="edge1_Node000000_Node000001" class="edge">
<title>Node0&#45;&gt;Node1</title>
<g id="a_edge1_Node000000_Node000001"><a xlink:title=" ">
<path fill="none" stroke="#63b8ff" d="M90.04,-35.78C100.21,-37.5 110.7,-39.27 120.15,-40.87"/>
<polygon fill="#63b8ff" stroke="#63b8ff" points="90.47,-32.31 80.03,-34.09 89.31,-39.21 90.47,-32.31"/>
</a>
</g>
</g>
<!-- Node2 -->
<g id="Node000002" class="node">
<title>Node2</title>
<g id="a_Node000002"><a xlink:href="classsen_1_1_method.html" target="_top" xlink:title="Represents a method.">
<polygon fill="white" stroke="#666666" points="193,-19 116,-19 116,0 193,0 193,-19"/>
<text text-anchor="middle" x="154.5" y="-7" font-family="Helvetica,sans-Serif" font-size="10.00">sen::Method</text>
</a>
</g>
</g>
<!-- Node0&#45;&gt;Node2 -->
<g id="edge2_Node000000_Node000002" class="edge">
<title>Node0&#45;&gt;Node2</title>
<g id="a_edge2_Node000000_Node000002"><a xlink:title=" ">
<path fill="none" stroke="#63b8ff" d="M89.98,-19.66C98.59,-18.29 107.43,-16.87 115.68,-15.55"/>
<polygon fill="#63b8ff" stroke="#63b8ff" points="89.35,-16.22 80.03,-21.25 90.46,-23.13 89.35,-16.22"/>
</a>
</g>
</g>
</g>
</svg>
