<?xml version="1.0" encoding="UTF-8" standalone="no"?>
<!DOCTYPE svg PUBLIC "-//W3C//DTD SVG 1.1//EN"
 "http://www.w3.org/Graphics/SVG/1.1/DTD/svg11.dtd">
<!-- Generated by graphviz version 2.43.0 (0)
 -->
<!-- Title: Graphical Class Hierarchy Pages: 1 -->
<svg width="439pt" height="86pt"
 viewBox="0.00 0.00 439.00 86.00" xmlns="http://www.w3.org/2000/svg" xmlns:xlink="http://www.w3.org/1999/xlink">
<g id="graph0" class="graph" transform="scale(1 1) rotate(0) translate(4 82)">
<title>Graphical Class Hierarchy</title>
<!-- Node0 -->
<g id="Node000000" class="node">
<title>Node0</title>
<g id="a_Node000000"><a xlink:href="classsen_1_1_strong_type_base.html" target="_top" xlink:title=" ">
<polygon fill="white" stroke="#666666" points="118,-54 0,-54 0,-24 118,-24 118,-54"/>
<text text-anchor="start" x="8" y="-42" font-family="Helvetica,sans-Serif" font-size="10.00">sen::StrongTypeBase</text>
<text text-anchor="middle" x="59" y="-31" font-family="Helvetica,sans-Serif" font-size="10.00">&lt; uint32_t &gt;</text>
</a>
</g>
</g>
<!-- Node1 -->
<g id="Node000001" class="node">
<title>Node1</title>
<g id="a_Node000001"><a xlink:href="classsen_1_1_strong_type.html" target="_top" xlink:title=" ">
<polygon fill="white" stroke="#666666" points="290,-78 154,-78 154,-48 290,-48 290,-78"/>
<text text-anchor="start" x="162" y="-66" font-family="Helvetica,sans-Serif" font-size="10.00">sen::StrongType&lt; uint32</text>
<text text-anchor="middle" x="222" y="-55" font-family="Helvetica,sans-Serif" font-size="10.00">_t, BusId &gt;</text>
</a>
</g>
</g>
<!-- Node0&#45;&gt;Node1 -->
<g id="edge35_Node000000_Node000001" class="edge">
<title>Node0&#45;&gt;Node1</title>
<g id="a_edge35_Node000000_Node000001"><a xlink:title=" ">
<path fill="none" stroke="#63b8ff" d="M128.06,-49.15C136.63,-50.42 145.38,-51.73 153.93,-53"/>
<polygon fill="#63b8ff" stroke="#63b8ff" points="128.53,-45.68 118.12,-47.66 127.5,-52.6 128.53,-45.68"/>
</a>
</g>
</g>
<!-- Node3 -->
<g id="Node000003" class="node">
<title>Node3</title>
<g id="a_Node000003"><a xlink:href="classsen_1_1_strong_type.html" target="_top" xlink:title=" ">
<polygon fill="white" stroke="#666666" points="290,-30 154,-30 154,0 290,0 290,-30"/>
<text text-anchor="start" x="162" y="-18" font-family="Helvetica,sans-Serif" font-size="10.00">sen::StrongType&lt; uint32</text>
<text text-anchor="middle" x="222" y="-7" font-family="Helvetica,sans-Serif" font-size="10.00">_t, MemberHash &gt;</text>
</a>
</g>
</g>
<!-- Node0&#45;&gt;Node3 -->
<g id="edge37_Node000000_Node000003" class="edge">
<title>Node0&#45;&gt;Node3</title>
<g id="a_edge37_Node000000_Node000003"><a xlink:title=" ">
<path fill="none" stroke="#63b8ff" d="M128.06,-28.85C136.63,-27.58 145.38,-26.27 153.93,-25"/>
<polygon fill="#63b8ff" stroke="#63b8ff" points="127.5,-25.4 118.12,-30.34 128.53,-32.32 127.5,-25.4"/>
</a>
</g>
</g>
<!-- Node2 -->
<g id="Node000002" class="node">
<title>Node2</title>
<g id="a_Node000002"><a xlink:href="structsen_1_1kernel_1_1_bus_id.html" target="_top" xlink:title=" ">
<polygon fill="white" stroke="#666666" points="430,-72.5 327,-72.5 327,-53.5 430,-53.5 430,-72.5"/>
<text text-anchor="middle" x="378.5" y="-60.5" font-family="Helvetica,sans-Serif" font-size="10.00">sen::kernel::BusId</text>
</a>
</g>
</g>
<!-- Node1&#45;&gt;Node2 -->
<g id="edge36_Node000001_Node000002" class="edge">
<title>Node1&#45;&gt;Node2</title>
<g id="a_edge36_Node000001_Node000002"><a xlink:title=" ">
<path fill="none" stroke="#63b8ff" d="M300.37,-63C309.3,-63 318.23,-63 326.67,-63"/>
<polygon fill="#63b8ff" stroke="#63b8ff" points="300.32,-59.5 290.32,-63 300.32,-66.5 300.32,-59.5"/>
</a>
</g>
</g>
<!-- Node4 -->
<g id="Node000004" class="node">
<title>Node4</title>
<g id="a_Node000004"><a xlink:href="structsen_1_1_member_hash.html" target="_top" xlink:title="The hash of a member.">
<polygon fill="white" stroke="#666666" points="431,-24.5 326,-24.5 326,-5.5 431,-5.5 431,-24.5"/>
<text text-anchor="middle" x="378.5" y="-12.5" font-family="Helvetica,sans-Serif" font-size="10.00">sen::MemberHash</text>
</a>
</g>
</g>
<!-- Node3&#45;&gt;Node4 -->
<g id="edge38_Node000003_Node000004" class="edge">
<title>Node3&#45;&gt;Node4</title>
<g id="a_edge38_Node000003_Node000004"><a xlink:title=" ">
<path fill="none" stroke="#63b8ff" d="M300.38,-15C308.98,-15 317.58,-15 325.74,-15"/>
<polygon fill="#63b8ff" stroke="#63b8ff" points="300.32,-11.5 290.32,-15 300.32,-18.5 300.32,-11.5"/>
</a>
</g>
</g>
</g>
</svg>
