<?xml version="1.0" encoding="UTF-8" standalone="no"?>
<!DOCTYPE svg PUBLIC "-//W3C//DTD SVG 1.1//EN"
 "http://www.w3.org/Graphics/SVG/1.1/DTD/svg11.dtd">
<!-- Generated by graphviz version 2.43.0 (0)
 -->
<!-- Title: Graphical Class Hierarchy Pages: 1 -->
<svg width="332pt" height="212pt"
 viewBox="0.00 0.00 332.00 212.00" xmlns="http://www.w3.org/2000/svg" xmlns:xlink="http://www.w3.org/1999/xlink">
<g id="graph0" class="graph" transform="scale(1 1) rotate(0) translate(4 208)">
<title>Graphical Class Hierarchy</title>
<!-- Node0 -->
<g id="Node000000" class="node">
<title>Node0</title>
<g id="a_Node000000"><a xlink:href="classsen_1_1kernel_1_1_config_getter.html" target="_top" xlink:title="Allows for fetching configuration parameters.">
<polygon fill="white" stroke="#666666" points="137,-130 0,-130 0,-111 137,-111 137,-130"/>
<text text-anchor="middle" x="68.5" y="-118" font-family="Helvetica,sans-Serif" font-size="10.00">sen::kernel::ConfigGetter</text>
</a>
</g>
</g>
<!-- Node1 -->
<g id="Node000001" class="node">
<title>Node1</title>
<g id="a_Node000001"><a xlink:href="classsen_1_1kernel_1_1_init_api.html" target="_top" xlink:title="What can be done when initializing a component.">
<polygon fill="white" stroke="#666666" points="302,-204 195,-204 195,-185 302,-185 302,-204"/>
<text text-anchor="middle" x="248.5" y="-192" font-family="Helvetica,sans-Serif" font-size="10.00">sen::kernel::InitApi</text>
</a>
</g>
</g>
<!-- Node0&#45;&gt;Node1 -->
<g id="edge10_Node000000_Node000001" class="edge">
<title>Node0&#45;&gt;Node1</title>
<g id="a_edge10_Node000000_Node000001"><a xlink:title=" ">
<path fill="none" stroke="#63b8ff" d="M92.96,-135.48C113.41,-147.97 144.22,-165.45 173,-176.5 181.57,-179.79 190.93,-182.61 200.04,-184.98"/>
<polygon fill="#63b8ff" stroke="#63b8ff" points="94.68,-132.43 84.34,-130.13 90.99,-138.38 94.68,-132.43"/>
</a>
</g>
</g>
<!-- Node3 -->
<g id="Node000003" class="node">
<title>Node3</title>
<g id="a_Node000003"><a xlink:href="classsen_1_1kernel_1_1_load_api.html" target="_top" xlink:title="What can be done when loading a component.">
<polygon fill="white" stroke="#666666" points="306,-167 191,-167 191,-148 306,-148 306,-167"/>
<text text-anchor="middle" x="248.5" y="-155" font-family="Helvetica,sans-Serif" font-size="10.00">sen::kernel::LoadApi</text>
</a>
</g>
</g>
<!-- Node0&#45;&gt;Node3 -->
<g id="edge11_Node000000_Node000003" class="edge">
<title>Node0&#45;&gt;Node3</title>
<g id="a_edge11_Node000000_Node000003"><a xlink:title=" ">
<path fill="none" stroke="#63b8ff" d="M125.23,-132.08C149.75,-137.18 178.22,-143.1 201.51,-147.94"/>
<polygon fill="#63b8ff" stroke="#63b8ff" points="125.84,-128.64 115.34,-130.03 124.42,-135.49 125.84,-128.64"/>
</a>
</g>
</g>
<!-- Node4 -->
<g id="Node000004" class="node">
<title>Node4</title>
<g id="a_Node000004"><a xlink:href="classsen_1_1kernel_1_1_preload_api.html" target="_top" xlink:title="What can be done when preloading a component.">
<polygon fill="white" stroke="#666666" points="312.5,-130 184.5,-130 184.5,-111 312.5,-111 312.5,-130"/>
<text text-anchor="middle" x="248.5" y="-118" font-family="Helvetica,sans-Serif" font-size="10.00">sen::kernel::PreloadApi</text>
</a>
</g>
</g>
<!-- Node0&#45;&gt;Node4 -->
<g id="edge12_Node000000_Node000004" class="edge">
<title>Node0&#45;&gt;Node4</title>
<g id="a_edge12_Node000000_Node000004"><a xlink:title=" ">
<path fill="none" stroke="#63b8ff" d="M147.36,-120.5C159.74,-120.5 172.41,-120.5 184.4,-120.5"/>
<polygon fill="#63b8ff" stroke="#63b8ff" points="147.05,-117 137.05,-120.5 147.05,-124 147.05,-117"/>
</a>
</g>
</g>
<!-- Node5 -->
<g id="Node000005" class="node">
<title>Node5</title>
<g id="a_Node000005"><a xlink:href="classsen_1_1kernel_1_1_registration_api.html" target="_top" xlink:title="API for objects when registered.">
<polygon fill="white" stroke="#666666" points="324,-93 173,-93 173,-74 324,-74 324,-93"/>
<text text-anchor="middle" x="248.5" y="-81" font-family="Helvetica,sans-Serif" font-size="10.00">sen::kernel::RegistrationApi</text>
</a>
</g>
</g>
<!-- Node0&#45;&gt;Node5 -->
<g id="edge13_Node000000_Node000005" class="edge">
<title>Node0&#45;&gt;Node5</title>
<g id="a_edge13_Node000000_Node000005"><a xlink:title=" ">
<path fill="none" stroke="#63b8ff" d="M125.23,-108.92C149.75,-103.82 178.22,-97.9 201.51,-93.06"/>
<polygon fill="#63b8ff" stroke="#63b8ff" points="124.42,-105.51 115.34,-110.97 125.84,-112.36 124.42,-105.51"/>
</a>
</g>
</g>
<!-- Node6 -->
<g id="Node000006" class="node">
<title>Node6</title>
<g id="a_Node000006"><a xlink:href="classsen_1_1kernel_1_1_run_api.html" target="_top" xlink:title="What can be done while a component is running.">
<polygon fill="white" stroke="#666666" points="303.5,-56 193.5,-56 193.5,-37 303.5,-37 303.5,-56"/>
<text text-anchor="middle" x="248.5" y="-44" font-family="Helvetica,sans-Serif" font-size="10.00">sen::kernel::RunApi</text>
</a>
</g>
</g>
<!-- Node0&#45;&gt;Node6 -->
<g id="edge14_Node000000_Node000006" class="edge">
<title>Node0&#45;&gt;Node6</title>
<g id="a_edge14_Node000000_Node000006"><a xlink:title=" ">
<path fill="none" stroke="#63b8ff" d="M127.48,-107.31C130.78,-105.87 133.98,-104.27 137,-102.5 156.8,-90.9 153.14,-76.99 173,-65.5 179.7,-61.62 187.19,-58.53 194.77,-56.06"/>
<polygon fill="#63b8ff" stroke="#63b8ff" points="126.05,-104.12 117.99,-110.99 128.58,-110.64 126.05,-104.12"/>
</a>
</g>
</g>
<!-- Node7 -->
<g id="Node000007" class="node">
<title>Node7</title>
<g id="a_Node000007"><a xlink:href="classsen_1_1kernel_1_1_unload_api.html" target="_top" xlink:title="What can be done when unloading a component.">
<polygon fill="white" stroke="#666666" points="311.5,-19 185.5,-19 185.5,0 311.5,0 311.5,-19"/>
<text text-anchor="middle" x="248.5" y="-7" font-family="Helvetica,sans-Serif" font-size="10.00">sen::kernel::UnloadApi</text>
</a>
</g>
</g>
<!-- Node0&#45;&gt;Node7 -->
<g id="edge15_Node000000_Node000007" class="edge">
<title>Node0&#45;&gt;Node7</title>
<g id="a_edge15_Node000000_Node000007"><a xlink:title=" ">
<path fill="none" stroke="#63b8ff" d="M132.14,-106.06C133.83,-104.96 135.46,-103.77 137,-102.5 165.22,-79.24 144.65,-51.61 173,-28.5 177.76,-24.62 183.21,-21.52 188.96,-19.05"/>
<polygon fill="#63b8ff" stroke="#63b8ff" points="130.35,-103.05 123.23,-110.9 133.69,-109.2 130.35,-103.05"/>
</a>
</g>
</g>
<!-- Node2 -->
<g id="Node000002" class="node">
<title>Node2</title>
<g id="a_Node000002"><a xlink:href="classsen_1_1kernel_1_1_kernel_api.html" target="_top" xlink:title="User&#45;facing kernel functions.">
<polygon fill="white" stroke="#666666" points="129.5,-93 7.5,-93 7.5,-74 129.5,-74 129.5,-93"/>
<text text-anchor="middle" x="68.5" y="-81" font-family="Helvetica,sans-Serif" font-size="10.00">sen::kernel::KernelApi</text>
</a>
</g>
</g>
<!-- Node2&#45;&gt;Node1 -->
<g id="edge16_Node000002_Node000001" class="edge">
<title>Node2&#45;&gt;Node1</title>
<g id="a_edge16_Node000002_Node000001"><a xlink:title=" ">
<path fill="none" stroke="#63b8ff" d="M130.48,-97.82C132.77,-99.24 134.96,-100.79 137,-102.5 165.06,-125.96 144.5,-153.57 173,-176.5 179.32,-181.59 186.86,-185.27 194.68,-187.94"/>
<polygon fill="#63b8ff" stroke="#63b8ff" points="131.7,-94.51 121.21,-93.03 128.48,-100.73 131.7,-94.51"/>
</a>
</g>
</g>
<!-- Node2&#45;&gt;Node3 -->
<g id="edge17_Node000002_Node000003" class="edge">
<title>Node2&#45;&gt;Node3</title>
<g id="a_edge17_Node000002_Node000003"><a xlink:title=" ">
<path fill="none" stroke="#63b8ff" d="M125.42,-96.68C129.44,-98.4 133.35,-100.33 137,-102.5 156.72,-114.23 153.07,-128.14 173,-139.5 179.01,-142.93 185.65,-145.7 192.42,-147.95"/>
<polygon fill="#63b8ff" stroke="#63b8ff" points="126.46,-93.33 115.86,-93.05 123.97,-99.87 126.46,-93.33"/>
</a>
</g>
</g>
<!-- Node2&#45;&gt;Node4 -->
<g id="edge18_Node000002_Node000004" class="edge">
<title>Node2&#45;&gt;Node4</title>
<g id="a_edge18_Node000002_Node000004"><a xlink:title=" ">
<path fill="none" stroke="#63b8ff" d="M125.23,-95.08C149.75,-100.18 178.22,-106.1 201.51,-110.94"/>
<polygon fill="#63b8ff" stroke="#63b8ff" points="125.84,-91.64 115.34,-93.03 124.42,-98.49 125.84,-91.64"/>
</a>
</g>
</g>
<!-- Node2&#45;&gt;Node5 -->
<g id="edge19_Node000002_Node000005" class="edge">
<title>Node2&#45;&gt;Node5</title>
<g id="a_edge19_Node000002_Node000005"><a xlink:title=" ">
<path fill="none" stroke="#63b8ff" d="M139.96,-83.5C150.74,-83.5 161.91,-83.5 172.78,-83.5"/>
<polygon fill="#63b8ff" stroke="#63b8ff" points="139.76,-80 129.76,-83.5 139.76,-87 139.76,-80"/>
</a>
</g>
</g>
<!-- Node2&#45;&gt;Node6 -->
<g id="edge20_Node000002_Node000006" class="edge">
<title>Node2&#45;&gt;Node6</title>
<g id="a_edge20_Node000002_Node000006"><a xlink:title=" ">
<path fill="none" stroke="#63b8ff" d="M125.23,-71.92C149.75,-66.82 178.22,-60.9 201.51,-56.06"/>
<polygon fill="#63b8ff" stroke="#63b8ff" points="124.42,-68.51 115.34,-73.97 125.84,-75.36 124.42,-68.51"/>
</a>
</g>
</g>
<!-- Node2&#45;&gt;Node7 -->
<g id="edge21_Node000002_Node000007" class="edge">
<title>Node2&#45;&gt;Node7</title>
<g id="a_edge21_Node000002_Node000007"><a xlink:title=" ">
<path fill="none" stroke="#63b8ff" d="M93.39,-68.69C113.88,-56.51 144.53,-39.51 173,-28.5 182.46,-24.84 192.87,-21.68 202.83,-19.04"/>
<polygon fill="#63b8ff" stroke="#63b8ff" points="91.49,-65.75 84.73,-73.91 95.1,-71.74 91.49,-65.75"/>
</a>
</g>
</g>
</g>
</svg>
