<?xml version="1.0" encoding="UTF-8" standalone="no"?>
<!DOCTYPE svg PUBLIC "-//W3C//DTD SVG 1.1//EN"
 "http://www.w3.org/Graphics/SVG/1.1/DTD/svg11.dtd">
<!-- Generated by graphviz version 2.43.0 (0)
 -->
<!-- Title: Graphical Class Hierarchy Pages: 1 -->
<svg width="539pt" height="358pt"
 viewBox="0.00 0.00 539.00 358.00" xmlns="http://www.w3.org/2000/svg" xmlns:xlink="http://www.w3.org/1999/xlink">
<g id="graph0" class="graph" transform="scale(1 1) rotate(0) translate(4 354)">
<title>Graphical Class Hierarchy</title>
<!-- Node0 -->
<g id="Node000000" class="node">
<title>Node0</title>
<g id="a_Node000000"><a xlink:title=" ">
<polygon fill="#e0e0e0" stroke="#999999" points="118.5,-180.5 9.5,-180.5 9.5,-150.5 118.5,-150.5 118.5,-180.5"/>
<text text-anchor="start" x="17.5" y="-168.5" font-family="Helvetica,sans-Serif" font-size="10.00">std::enable_shared</text>
<text text-anchor="middle" x="64" y="-157.5" font-family="Helvetica,sans-Serif" font-size="10.00">_from_this</text>
</a>
</g>
</g>
<!-- Node1 -->
<g id="Node000001" class="node">
<title>Node1</title>
<g id="a_Node000001"><a xlink:href="classsen_1_1_interest.html" target="_top" xlink:title="Declares interest on objects that satisfy a set of conditions.">
<polygon fill="white" stroke="#666666" points="288,-276 211,-276 211,-257 288,-257 288,-276"/>
<text text-anchor="middle" x="249.5" y="-264" font-family="Helvetica,sans-Serif" font-size="10.00">sen::Interest</text>
</a>
</g>
</g>
<!-- Node0&#45;&gt;Node1 -->
<g id="edge63_Node000000_Node000001" class="edge">
<title>Node0&#45;&gt;Node1</title>
<g id="a_edge63_Node000000_Node000001"><a xlink:title=" ">
<path fill="none" stroke="#63b8ff" d="M85.55,-188.05C104.18,-207.08 133.35,-233.55 164,-248.5 178.42,-255.54 195.55,-259.83 210.61,-262.46"/>
<polygon fill="#63b8ff" stroke="#63b8ff" points="87.92,-185.46 78.47,-180.65 82.86,-190.3 87.92,-185.46"/>
</a>
</g>
</g>
<!-- Node2 -->
<g id="Node000002" class="node">
<title>Node2</title>
<g id="a_Node000002"><a xlink:href="classsen_1_1_object.html" target="_top" xlink:title="A sen object.">
<polygon fill="white" stroke="#666666" points="285,-337 214,-337 214,-318 285,-318 285,-337"/>
<text text-anchor="middle" x="249.5" y="-325" font-family="Helvetica,sans-Serif" font-size="10.00">sen::Object</text>
</a>
</g>
</g>
<!-- Node0&#45;&gt;Node2 -->
<g id="edge64_Node000000_Node000002" class="edge">
<title>Node0&#45;&gt;Node2</title>
<g id="a_edge64_Node000000_Node000002"><a xlink:title=" ">
<path fill="none" stroke="#63b8ff" d="M79.96,-189.05C97.54,-215.25 128.81,-257.55 164,-285.5 181.7,-299.56 204.88,-310.67 222.48,-317.92"/>
<polygon fill="#63b8ff" stroke="#63b8ff" points="82.76,-186.93 74.33,-180.5 76.91,-190.78 82.76,-186.93"/>
</a>
</g>
</g>
<!-- Node4 -->
<g id="Node000004" class="node">
<title>Node4</title>
<g id="a_Node000004"><a xlink:href="classsen_1_1_object_provider.html" target="_top" xlink:title="Base class for an entity that is able to produce objects.">
<polygon fill="white" stroke="#666666" points="305.5,-239 193.5,-239 193.5,-220 305.5,-220 305.5,-239"/>
<text text-anchor="middle" x="249.5" y="-227" font-family="Helvetica,sans-Serif" font-size="10.00">sen::ObjectProvider</text>
</a>
</g>
</g>
<!-- Node0&#45;&gt;Node4 -->
<g id="edge66_Node000000_Node000004" class="edge">
<title>Node0&#45;&gt;Node4</title>
<g id="a_edge66_Node000000_Node000004"><a xlink:title=" ">
<path fill="none" stroke="#63b8ff" d="M102.02,-185.12C120.28,-194.17 142.88,-204.44 164,-211.5 173.82,-214.78 184.48,-217.6 194.82,-219.97"/>
<polygon fill="#63b8ff" stroke="#63b8ff" points="103.41,-181.9 92.9,-180.53 100.26,-188.15 103.41,-181.9"/>
</a>
</g>
</g>
<!-- Node12 -->
<g id="Node000012" class="node">
<title>Node12</title>
<g id="a_Node000012"><a xlink:title=" ">
<polygon fill="#e0e0e0" stroke="#999999" points="316.5,-165 182.5,-165 182.5,-146 316.5,-146 316.5,-165"/>
<text text-anchor="middle" x="249.5" y="-153" font-family="Helvetica,sans-Serif" font-size="10.00">sen::impl::CallbackBase</text>
</a>
</g>
</g>
<!-- Node0&#45;&gt;Node12 -->
<g id="edge68_Node000000_Node000012" class="edge">
<title>Node0&#45;&gt;Node12</title>
<g id="a_edge68_Node000000_Node000012"><a xlink:title=" ">
<path fill="none" stroke="#63b8ff" d="M128.63,-162.03C146.04,-161.08 164.94,-160.05 182.48,-159.1"/>
<polygon fill="#63b8ff" stroke="#63b8ff" points="128.36,-158.54 118.57,-162.58 128.74,-165.53 128.36,-158.54"/>
</a>
</g>
</g>
<!-- Node15 -->
<g id="Node000015" class="node">
<title>Node15</title>
<g id="a_Node000015"><a xlink:href="classsen_1_1kernel_1_1_session_info_provider.html" target="_top" xlink:title=" ">
<polygon fill="white" stroke="#666666" points="315.5,-127.5 183.5,-127.5 183.5,-97.5 315.5,-97.5 315.5,-127.5"/>
<text text-anchor="start" x="191.5" y="-115.5" font-family="Helvetica,sans-Serif" font-size="10.00">sen::kernel::SessionInfo</text>
<text text-anchor="middle" x="249.5" y="-104.5" font-family="Helvetica,sans-Serif" font-size="10.00">Provider</text>
</a>
</g>
</g>
<!-- Node0&#45;&gt;Node15 -->
<g id="edge71_Node000000_Node000015" class="edge">
<title>Node0&#45;&gt;Node15</title>
<g id="a_edge71_Node000000_Node000015"><a xlink:title=" ">
<path fill="none" stroke="#63b8ff" d="M126.02,-147.54C138.58,-143.87 151.71,-140.04 164,-136.5 174.11,-133.58 184.91,-130.5 195.29,-127.54"/>
<polygon fill="#63b8ff" stroke="#63b8ff" points="124.72,-144.27 116.1,-150.44 126.68,-150.99 124.72,-144.27"/>
</a>
</g>
</g>
<!-- Node17 -->
<g id="Node000017" class="node">
<title>Node17</title>
<g id="a_Node000017"><a xlink:href="classsen_1_1kernel_1_1_sessions_discoverer.html" target="_top" xlink:title=" ">
<polygon fill="white" stroke="#666666" points="335,-79 164,-79 164,-60 335,-60 335,-79"/>
<text text-anchor="middle" x="249.5" y="-67" font-family="Helvetica,sans-Serif" font-size="10.00">sen::kernel::SessionsDiscoverer</text>
</a>
</g>
</g>
<!-- Node0&#45;&gt;Node17 -->
<g id="edge72_Node000000_Node000017" class="edge">
<title>Node0&#45;&gt;Node17</title>
<g id="a_edge72_Node000000_Node000017"><a xlink:title=" ">
<path fill="none" stroke="#63b8ff" d="M94.79,-144.5C105.41,-136.82 117.37,-127.94 128,-119.5 144.54,-106.37 145.14,-97.99 164,-88.5 171.66,-84.65 180.09,-81.57 188.58,-79.11"/>
<polygon fill="#63b8ff" stroke="#63b8ff" points="92.69,-141.7 86.61,-150.37 96.77,-147.38 92.69,-141.7"/>
</a>
</g>
</g>
<!-- Node3 -->
<g id="Node000003" class="node">
<title>Node3</title>
<g id="a_Node000003"><a xlink:href="classsen_1_1_native_object.html" target="_top" xlink:title="An object instantiated in this process. This is the base class for all user&#45;implemented objects.">
<polygon fill="white" stroke="#666666" points="503,-350 399,-350 399,-331 503,-331 503,-350"/>
<text text-anchor="middle" x="451" y="-338" font-family="Helvetica,sans-Serif" font-size="10.00">sen::NativeObject</text>
</a>
</g>
</g>
<!-- Node2&#45;&gt;Node3 -->
<g id="edge65_Node000002_Node000003" class="edge">
<title>Node2&#45;&gt;Node3</title>
<g id="a_edge65_Node000002_Node000003"><a xlink:title=" ">
<path fill="none" stroke="#63b8ff" d="M295.25,-330.42C325.97,-332.42 366.8,-335.08 398.81,-337.16"/>
<polygon fill="#63b8ff" stroke="#63b8ff" points="295.46,-326.92 285.25,-329.76 295,-333.91 295.46,-326.92"/>
</a>
</g>
</g>
<!-- Node5 -->
<g id="Node000005" class="node">
<title>Node5</title>
<g id="a_Node000005"><a xlink:href="classsen_1_1_object_mux.html" target="_top" xlink:title="Converts multiple object providers into one. Providers might reside in different threads....">
<polygon fill="white" stroke="#666666" points="497,-313 405,-313 405,-294 497,-294 497,-313"/>
<text text-anchor="middle" x="451" y="-301" font-family="Helvetica,sans-Serif" font-size="10.00">sen::ObjectMux</text>
</a>
</g>
</g>
<!-- Node4&#45;&gt;Node5 -->
<g id="edge67_Node000004_Node000005" class="edge">
<title>Node4&#45;&gt;Node5</title>
<g id="a_edge67_Node000004_Node000005"><a xlink:title=" ">
<path fill="none" stroke="#63b8ff" d="M315.7,-240.19C322.42,-242.45 328.98,-245.19 335,-248.5 354.82,-259.41 351.26,-273.44 371,-284.5 381.34,-290.29 393.4,-294.33 404.93,-297.14"/>
<polygon fill="#63b8ff" stroke="#63b8ff" points="316.37,-236.74 305.79,-237.21 314.36,-243.44 316.37,-236.74"/>
</a>
</g>
</g>
<!-- Node13 -->
<g id="Node000013" class="node">
<title>Node13</title>
<g id="a_Node000013"><a xlink:href="classsen_1_1_callback.html" target="_top" xlink:title=" ">
<polygon fill="white" stroke="#666666" points="519.5,-19 382.5,-19 382.5,0 519.5,0 519.5,-19"/>
<text text-anchor="middle" x="451" y="-7" font-family="Helvetica,sans-Serif" font-size="10.00">sen::Callback&lt; VarList &gt;</text>
</a>
</g>
</g>
<!-- Node12&#45;&gt;Node13 -->
<g id="edge69_Node000012_Node000013" class="edge">
<title>Node12&#45;&gt;Node13</title>
<g id="a_edge69_Node000012_Node000013"><a xlink:title=" ">
<path fill="none" stroke="#63b8ff" d="M325.73,-143.28C329.04,-141.32 332.16,-139.07 335,-136.5 372.53,-102.57 333.72,-62.71 371,-28.5 375.16,-24.68 379.94,-21.6 385.06,-19.1"/>
<polygon fill="#63b8ff" stroke="#63b8ff" points="323.98,-140.24 316.6,-147.84 327.11,-146.51 323.98,-140.24"/>
</a>
</g>
</g>
<!-- Node14 -->
<g id="Node000014" class="node">
<title>Node14</title>
<g id="a_Node000014"><a xlink:href="classsen_1_1_callback.html" target="_top" xlink:title="Base class for event or method callbacks. It stores the queue where to push the response....">
<polygon fill="white" stroke="#666666" points="521.5,-67.5 380.5,-67.5 380.5,-37.5 521.5,-37.5 521.5,-67.5"/>
<text text-anchor="start" x="388.5" y="-55.5" font-family="Helvetica,sans-Serif" font-size="10.00">sen::Callback&lt; InfoClass,</text>
<text text-anchor="middle" x="451" y="-44.5" font-family="Helvetica,sans-Serif" font-size="10.00"> Args &gt;</text>
</a>
</g>
</g>
<!-- Node12&#45;&gt;Node14 -->
<g id="edge70_Node000012_Node000014" class="edge">
<title>Node12&#45;&gt;Node14</title>
<g id="a_edge70_Node000012_Node000014"><a xlink:title=" ">
<path fill="none" stroke="#63b8ff" d="M326.03,-142.01C329.16,-140.37 332.17,-138.54 335,-136.5 360.21,-118.28 346.48,-95.63 371,-76.5 375.41,-73.06 380.31,-70.11 385.44,-67.59"/>
<polygon fill="#63b8ff" stroke="#63b8ff" points="324.58,-138.82 316.91,-146.13 327.46,-145.2 324.58,-138.82"/>
</a>
</g>
</g>
<!-- Node6 -->
<g id="Node000006" class="node">
<title>Node6</title>
<g id="a_Node000006"><a xlink:href="classsen_1_1_object_provider_listener.html" target="_top" xlink:title="Allows reacting to objects being added or removed to an object provider. It automatically unregisters...">
<polygon fill="white" stroke="#666666" points="325,-202 174,-202 174,-183 325,-183 325,-202"/>
<text text-anchor="middle" x="249.5" y="-190" font-family="Helvetica,sans-Serif" font-size="10.00">sen::ObjectProviderListener</text>
</a>
</g>
</g>
<!-- Node6&#45;&gt;Node5 -->
<g id="edge77_Node000006_Node000005" class="edge">
<title>Node6&#45;&gt;Node5</title>
<g id="a_edge77_Node000006_Node000005"><a xlink:title=" ">
<path fill="none" stroke="#63b8ff" d="M328.07,-206.76C330.48,-208.19 332.81,-209.77 335,-211.5 363.42,-233.88 342.74,-261.91 371,-284.5 380.59,-292.16 392.78,-296.81 404.7,-299.61"/>
<polygon fill="#63b8ff" stroke="#63b8ff" points="329.44,-203.53 318.94,-202.12 326.28,-209.77 329.44,-203.53"/>
</a>
</g>
</g>
<!-- Node7 -->
<g id="Node000007" class="node">
<title>Node7</title>
<g id="a_Node000007"><a xlink:href="classsen_1_1_object_list.html" target="_top" xlink:title=" ">
<polygon fill="white" stroke="#666666" points="524,-115.5 378,-115.5 378,-85.5 524,-85.5 524,-115.5"/>
<text text-anchor="start" x="386" y="-103.5" font-family="Helvetica,sans-Serif" font-size="10.00">sen::ObjectList&lt; TestClass</text>
<text text-anchor="middle" x="451" y="-92.5" font-family="Helvetica,sans-Serif" font-size="10.00">Interface &gt;</text>
</a>
</g>
</g>
<!-- Node6&#45;&gt;Node7 -->
<g id="edge73_Node000006_Node000007" class="edge">
<title>Node6&#45;&gt;Node7</title>
<g id="a_edge73_Node000006_Node000007"><a xlink:title=" ">
<path fill="none" stroke="#63b8ff" d="M327.71,-178.7C330.23,-177.42 332.67,-176.02 335,-174.5 357.93,-159.53 348.73,-140.43 371,-124.5 375.78,-121.08 381.06,-118.14 386.55,-115.62"/>
<polygon fill="#63b8ff" stroke="#63b8ff" points="326.03,-175.61 318.3,-182.85 328.86,-182.02 326.03,-175.61"/>
</a>
</g>
</g>
<!-- Node8 -->
<g id="Node000008" class="node">
<title>Node8</title>
<g id="a_Node000008"><a xlink:href="classsen_1_1_object_list.html" target="_top" xlink:title=" ">
<polygon fill="white" stroke="#666666" points="531,-275.5 371,-275.5 371,-245.5 531,-245.5 531,-275.5"/>
<text text-anchor="start" x="379" y="-263.5" font-family="Helvetica,sans-Serif" font-size="10.00">sen::ObjectList&lt; sen</text>
<text text-anchor="middle" x="451" y="-252.5" font-family="Helvetica,sans-Serif" font-size="10.00">::kernel::KernelApiInterface &gt;</text>
</a>
</g>
</g>
<!-- Node6&#45;&gt;Node8 -->
<g id="edge74_Node000006_Node000008" class="edge">
<title>Node6&#45;&gt;Node8</title>
<g id="a_edge74_Node000006_Node000008"><a xlink:title=" ">
<path fill="none" stroke="#63b8ff" d="M317.1,-204.9C323.25,-206.81 329.31,-209 335,-211.5 352.83,-219.34 353.47,-228.01 371,-236.5 377.84,-239.81 385.23,-242.78 392.65,-245.41"/>
<polygon fill="#63b8ff" stroke="#63b8ff" points="317.96,-201.5 307.38,-202.12 316.03,-208.23 317.96,-201.5"/>
</a>
</g>
</g>
<!-- Node9 -->
<g id="Node000009" class="node">
<title>Node9</title>
<g id="a_Node000009"><a xlink:href="classsen_1_1_muxed_provider_listener.html" target="_top" xlink:title="An extended ObjectProviderListener that works together with ObjectMux and notifies when objects provi...">
<polygon fill="white" stroke="#666666" points="527,-227 375,-227 375,-208 527,-208 527,-227"/>
<text text-anchor="middle" x="451" y="-215" font-family="Helvetica,sans-Serif" font-size="10.00">sen::MuxedProviderListener</text>
</a>
</g>
</g>
<!-- Node6&#45;&gt;Node9 -->
<g id="edge75_Node000006_Node000009" class="edge">
<title>Node6&#45;&gt;Node9</title>
<g id="a_edge75_Node000006_Node000009"><a xlink:title=" ">
<path fill="none" stroke="#63b8ff" d="M335.09,-203.1C348.3,-204.76 361.87,-206.46 374.86,-208.08"/>
<polygon fill="#63b8ff" stroke="#63b8ff" points="335.43,-199.62 325.07,-201.84 334.56,-206.56 335.43,-199.62"/>
</a>
</g>
</g>
<!-- Node10 -->
<g id="Node000010" class="node">
<title>Node10</title>
<g id="a_Node000010"><a xlink:href="classsen_1_1_object_list.html" target="_top" xlink:title="A list of objects that is managed by some source based on user&#45;expressed interests.">
<polygon fill="white" stroke="#666666" points="509.5,-190 392.5,-190 392.5,-171 509.5,-171 509.5,-190"/>
<text text-anchor="middle" x="451" y="-178" font-family="Helvetica,sans-Serif" font-size="10.00">sen::ObjectList&lt; T &gt;</text>
</a>
</g>
</g>
<!-- Node6&#45;&gt;Node10 -->
<g id="edge76_Node000006_Node000010" class="edge">
<title>Node6&#45;&gt;Node10</title>
<g id="a_edge76_Node000006_Node000010"><a xlink:title=" ">
<path fill="none" stroke="#63b8ff" d="M335.08,-187.41C354.38,-186.25 374.46,-185.04 392.34,-183.97"/>
<polygon fill="#63b8ff" stroke="#63b8ff" points="334.84,-183.92 325.07,-188.01 335.26,-190.91 334.84,-183.92"/>
</a>
</g>
</g>
<!-- Node11 -->
<g id="Node000011" class="node">
<title>Node11</title>
<g id="a_Node000011"><a xlink:href="classsen_1_1_object_ref.html" target="_top" xlink:title="Object references may or may not hold an object instance. Their value is set by a provider based on s...">
<polygon fill="white" stroke="#666666" points="509,-153 393,-153 393,-134 509,-134 509,-153"/>
<text text-anchor="middle" x="451" y="-141" font-family="Helvetica,sans-Serif" font-size="10.00">sen::ObjectRef&lt; T &gt;</text>
</a>
</g>
</g>
<!-- Node6&#45;&gt;Node11 -->
<g id="edge78_Node000006_Node000011" class="edge">
<title>Node6&#45;&gt;Node11</title>
<g id="a_edge78_Node000006_Node000011"><a xlink:title=" ">
<path fill="none" stroke="#63b8ff" d="M309.77,-180.75C318.27,-178.81 326.89,-176.71 335,-174.5 351.27,-170.07 354.79,-167.14 371,-162.5 382.66,-159.16 395.41,-155.92 407.19,-153.09"/>
<polygon fill="#63b8ff" stroke="#63b8ff" points="308.88,-177.37 299.87,-182.95 310.4,-184.2 308.88,-177.37"/>
</a>
</g>
</g>
<!-- Node16 -->
<g id="Node000016" class="node">
<title>Node16</title>
<g id="a_Node000016"><a xlink:href="classsen_1_1kernel_1_1_source_info.html" target="_top" xlink:title="Provides information about sources as strings.">
<polygon fill="white" stroke="#666666" points="128,-111 0,-111 0,-92 128,-92 128,-111"/>
<text text-anchor="middle" x="64" y="-99" font-family="Helvetica,sans-Serif" font-size="10.00">sen::kernel::SourceInfo</text>
</a>
</g>
</g>
<!-- Node16&#45;&gt;Node15 -->
<g id="edge79_Node000016_Node000015" class="edge">
<title>Node16&#45;&gt;Node15</title>
<g id="a_edge79_Node000016_Node000015"><a xlink:title=" ">
<path fill="none" stroke="#63b8ff" d="M138.33,-105.9C153.22,-106.79 168.78,-107.72 183.36,-108.6"/>
<polygon fill="#63b8ff" stroke="#63b8ff" points="138.34,-102.39 128.15,-105.29 137.92,-109.38 138.34,-102.39"/>
</a>
</g>
</g>
<!-- Node16&#45;&gt;Node17 -->
<g id="edge80_Node000016_Node000017" class="edge">
<title>Node16&#45;&gt;Node17</title>
<g id="a_edge80_Node000016_Node000017"><a xlink:title=" ">
<path fill="none" stroke="#63b8ff" d="M129.66,-90.22C150.63,-86.57 173.67,-82.55 193.83,-79.03"/>
<polygon fill="#63b8ff" stroke="#63b8ff" points="128.81,-86.82 119.56,-91.99 130.01,-93.72 128.81,-86.82"/>
</a>
</g>
</g>
</g>
</svg>
