<?xml version="1.0" encoding="UTF-8" standalone="no"?>
<!DOCTYPE svg PUBLIC "-//W3C//DTD SVG 1.1//EN"
 "http://www.w3.org/Graphics/SVG/1.1/DTD/svg11.dtd">
<!-- Generated by graphviz version 2.43.0 (0)
 -->
<!-- Title: Graphical Class Hierarchy Pages: 1 -->
<svg width="506pt" height="341pt"
 viewBox="0.00 0.00 506.00 341.00" xmlns="http://www.w3.org/2000/svg" xmlns:xlink="http://www.w3.org/1999/xlink">
<g id="graph0" class="graph" transform="scale(1 1) rotate(0) translate(4 337)">
<title>Graphical Class Hierarchy</title>
<!-- Node0 -->
<g id="Node000000" class="node">
<title>Node0</title>
<g id="a_Node000000"><a xlink:href="classsen_1_1_type.html" target="_top" xlink:title="Represents a type that can be used to define variables and arguments for methods or functions....">
<polygon fill="white" stroke="#666666" points="62,-93 0,-93 0,-74 62,-74 62,-93"/>
<text text-anchor="middle" x="31" y="-81" font-family="Helvetica,sans-Serif" font-size="10.00">sen::Type</text>
</a>
</g>
</g>
<!-- Node1 -->
<g id="Node000001" class="node">
<title>Node1</title>
<g id="a_Node000001"><a xlink:href="classsen_1_1_custom_type.html" target="_top" xlink:title="Represents a user&#45;defined type.">
<polygon fill="white" stroke="#666666" points="198,-185 98,-185 98,-166 198,-166 198,-185"/>
<text text-anchor="middle" x="148" y="-173" font-family="Helvetica,sans-Serif" font-size="10.00">sen::CustomType</text>
</a>
</g>
</g>
<!-- Node0&#45;&gt;Node1 -->
<g id="edge37_Node000000_Node000001" class="edge">
<title>Node0&#45;&gt;Node1</title>
<g id="a_edge37_Node000000_Node000001"><a xlink:title=" ">
<path fill="none" stroke="#63b8ff" d="M52.37,-99.8C76.27,-118.92 115.13,-150 134.78,-165.73"/>
<polygon fill="#63b8ff" stroke="#63b8ff" points="54.3,-96.86 44.31,-93.35 49.93,-102.33 54.3,-96.86"/>
</a>
</g>
</g>
<!-- Node12 -->
<g id="Node000012" class="node">
<title>Node12</title>
<g id="a_Node000012"><a xlink:href="classsen_1_1_native_type.html" target="_top" xlink:title="Represents a native (built&#45;in) type that can be created on the stack or sent in a message.">
<polygon fill="white" stroke="#666666" points="195.5,-93 100.5,-93 100.5,-74 195.5,-74 195.5,-93"/>
<text text-anchor="middle" x="148" y="-81" font-family="Helvetica,sans-Serif" font-size="10.00">sen::NativeType</text>
</a>
</g>
</g>
<!-- Node0&#45;&gt;Node12 -->
<g id="edge48_Node000000_Node000012" class="edge">
<title>Node0&#45;&gt;Node12</title>
<g id="a_edge48_Node000000_Node000012"><a xlink:title=" ">
<path fill="none" stroke="#63b8ff" d="M72.38,-83.5C81.33,-83.5 90.89,-83.5 100.07,-83.5"/>
<polygon fill="#63b8ff" stroke="#63b8ff" points="72.21,-80 62.21,-83.5 72.21,-87 72.21,-80"/>
</a>
</g>
</g>
<!-- Node16 -->
<g id="Node000016" class="node">
<title>Node16</title>
<g id="a_Node000016"><a xlink:href="classsen_1_1_void_type.html" target="_top" xlink:title="Used for indicating that no result value is provided.">
<polygon fill="white" stroke="#666666" points="189.5,-56 106.5,-56 106.5,-37 189.5,-37 189.5,-56"/>
<text text-anchor="middle" x="148" y="-44" font-family="Helvetica,sans-Serif" font-size="10.00">sen::VoidType</text>
</a>
</g>
</g>
<!-- Node0&#45;&gt;Node16 -->
<g id="edge52_Node000000_Node000016" class="edge">
<title>Node0&#45;&gt;Node16</title>
<g id="a_edge52_Node000000_Node000016"><a xlink:title=" ">
<path fill="none" stroke="#63b8ff" d="M71.17,-70.9C86.19,-66.07 103.07,-60.63 117.09,-56.12"/>
<polygon fill="#63b8ff" stroke="#63b8ff" points="70.06,-67.58 61.62,-73.97 72.21,-74.24 70.06,-67.58"/>
</a>
</g>
</g>
<!-- Node2 -->
<g id="Node000002" class="node">
<title>Node2</title>
<g id="a_Node000002"><a xlink:href="classsen_1_1_alias_type.html" target="_top" xlink:title="Represents an aliased type.">
<polygon fill="white" stroke="#666666" points="332,-333 246,-333 246,-314 332,-314 332,-333"/>
<text text-anchor="middle" x="289" y="-321" font-family="Helvetica,sans-Serif" font-size="10.00">sen::AliasType</text>
</a>
</g>
</g>
<!-- Node1&#45;&gt;Node2 -->
<g id="edge38_Node000001_Node000002" class="edge">
<title>Node1&#45;&gt;Node2</title>
<g id="a_edge38_Node000001_Node000002"><a xlink:title=" ">
<path fill="none" stroke="#63b8ff" d="M156.68,-194.81C168.89,-223.12 195.37,-275.72 234,-305.5 238.38,-308.88 243.43,-311.64 248.65,-313.89"/>
<polygon fill="#63b8ff" stroke="#63b8ff" points="159.78,-193.14 152.7,-185.26 153.31,-195.83 159.78,-193.14"/>
</a>
</g>
</g>
<!-- Node3 -->
<g id="Node000003" class="node">
<title>Node3</title>
<g id="a_Node000003"><a xlink:href="classsen_1_1_class_type.html" target="_top" xlink:title="Represents a class.">
<polygon fill="white" stroke="#666666" points="333.5,-296 244.5,-296 244.5,-277 333.5,-277 333.5,-296"/>
<text text-anchor="middle" x="289" y="-284" font-family="Helvetica,sans-Serif" font-size="10.00">sen::ClassType</text>
</a>
</g>
</g>
<!-- Node1&#45;&gt;Node3 -->
<g id="edge39_Node000001_Node000003" class="edge">
<title>Node1&#45;&gt;Node3</title>
<g id="a_edge39_Node000001_Node000003"><a xlink:title=" ">
<path fill="none" stroke="#63b8ff" d="M161.04,-193.45C175.89,-214.29 203,-248.37 234,-268.5 239.14,-271.84 244.95,-274.61 250.82,-276.91"/>
<polygon fill="#63b8ff" stroke="#63b8ff" points="163.86,-191.37 155.28,-185.16 158.11,-195.37 163.86,-191.37"/>
</a>
</g>
</g>
<!-- Node4 -->
<g id="Node000004" class="node">
<title>Node4</title>
<g id="a_Node000004"><a xlink:href="classsen_1_1_enum_type.html" target="_top" xlink:title="Represents an enumeration.">
<polygon fill="white" stroke="#666666" points="334,-259 244,-259 244,-240 334,-240 334,-259"/>
<text text-anchor="middle" x="289" y="-247" font-family="Helvetica,sans-Serif" font-size="10.00">sen::EnumType</text>
</a>
</g>
</g>
<!-- Node1&#45;&gt;Node4 -->
<g id="edge40_Node000001_Node000004" class="edge">
<title>Node1&#45;&gt;Node4</title>
<g id="a_edge40_Node000001_Node000004"><a xlink:title=" ">
<path fill="none" stroke="#63b8ff" d="M169.75,-191.4C186.42,-203.61 210.8,-220.23 234,-231.5 240.58,-234.69 247.87,-237.55 254.9,-239.99"/>
<polygon fill="#63b8ff" stroke="#63b8ff" points="171.45,-188.3 161.34,-185.13 167.27,-193.91 171.45,-188.3"/>
</a>
</g>
</g>
<!-- Node5 -->
<g id="Node000005" class="node">
<title>Node5</title>
<g id="a_Node000005"><a xlink:href="classsen_1_1_optional_type.html" target="_top" xlink:title="Represents an optional type.">
<polygon fill="white" stroke="#666666" points="341,-222 237,-222 237,-203 341,-203 341,-222"/>
<text text-anchor="middle" x="289" y="-210" font-family="Helvetica,sans-Serif" font-size="10.00">sen::OptionalType</text>
</a>
</g>
</g>
<!-- Node1&#45;&gt;Node5 -->
<g id="edge41_Node000001_Node000005" class="edge">
<title>Node1&#45;&gt;Node5</title>
<g id="a_edge41_Node000001_Node000005"><a xlink:title=" ">
<path fill="none" stroke="#63b8ff" d="M194.53,-187.62C213.13,-192.57 234.34,-198.22 251.84,-202.88"/>
<polygon fill="#63b8ff" stroke="#63b8ff" points="195.36,-184.22 184.8,-185.03 193.56,-190.98 195.36,-184.22"/>
</a>
</g>
</g>
<!-- Node6 -->
<g id="Node000006" class="node">
<title>Node6</title>
<g id="a_Node000006"><a xlink:href="classsen_1_1_quantity_type.html" target="_top" xlink:title="Represents a quantity.">
<polygon fill="white" stroke="#666666" points="341,-185 237,-185 237,-166 341,-166 341,-185"/>
<text text-anchor="middle" x="289" y="-173" font-family="Helvetica,sans-Serif" font-size="10.00">sen::QuantityType</text>
</a>
</g>
</g>
<!-- Node1&#45;&gt;Node6 -->
<g id="edge42_Node000001_Node000006" class="edge">
<title>Node1&#45;&gt;Node6</title>
<g id="a_edge42_Node000001_Node000006"><a xlink:title=" ">
<path fill="none" stroke="#63b8ff" d="M208.14,-175.5C217.61,-175.5 227.34,-175.5 236.61,-175.5"/>
<polygon fill="#63b8ff" stroke="#63b8ff" points="208.01,-172 198.01,-175.5 208.01,-179 208.01,-172"/>
</a>
</g>
</g>
<!-- Node9 -->
<g id="Node000009" class="node">
<title>Node9</title>
<g id="a_Node000009"><a xlink:href="classsen_1_1_sequence_type.html" target="_top" xlink:title="Represents a sequence type.">
<polygon fill="white" stroke="#666666" points="344,-148 234,-148 234,-129 344,-129 344,-148"/>
<text text-anchor="middle" x="289" y="-136" font-family="Helvetica,sans-Serif" font-size="10.00">sen::SequenceType</text>
</a>
</g>
</g>
<!-- Node1&#45;&gt;Node9 -->
<g id="edge45_Node000001_Node000009" class="edge">
<title>Node1&#45;&gt;Node9</title>
<g id="a_edge45_Node000001_Node000009"><a xlink:title=" ">
<path fill="none" stroke="#63b8ff" d="M194.53,-163.38C213.13,-158.43 234.34,-152.78 251.84,-148.12"/>
<polygon fill="#63b8ff" stroke="#63b8ff" points="193.56,-160.02 184.8,-165.97 195.36,-166.78 193.56,-160.02"/>
</a>
</g>
</g>
<!-- Node10 -->
<g id="Node000010" class="node">
<title>Node10</title>
<g id="a_Node000010"><a xlink:href="classsen_1_1_struct_type.html" target="_top" xlink:title="Represents a structure type.">
<polygon fill="white" stroke="#666666" points="334.5,-111 243.5,-111 243.5,-92 334.5,-92 334.5,-111"/>
<text text-anchor="middle" x="289" y="-99" font-family="Helvetica,sans-Serif" font-size="10.00">sen::StructType</text>
</a>
</g>
</g>
<!-- Node1&#45;&gt;Node10 -->
<g id="edge46_Node000001_Node000010" class="edge">
<title>Node1&#45;&gt;Node10</title>
<g id="a_edge46_Node000001_Node000010"><a xlink:title=" ">
<path fill="none" stroke="#63b8ff" d="M170.14,-159.81C186.85,-147.91 211.1,-131.74 234,-120.5 241.23,-116.95 249.29,-113.75 256.93,-111.02"/>
<polygon fill="#63b8ff" stroke="#63b8ff" points="167.74,-157.23 161.68,-165.92 171.84,-162.9 167.74,-157.23"/>
</a>
</g>
</g>
<!-- Node11 -->
<g id="Node000011" class="node">
<title>Node11</title>
<g id="a_Node000011"><a xlink:href="classsen_1_1_variant_type.html" target="_top" xlink:title="Represents a variant type.">
<polygon fill="white" stroke="#666666" points="337.5,-74 240.5,-74 240.5,-55 337.5,-55 337.5,-74"/>
<text text-anchor="middle" x="289" y="-62" font-family="Helvetica,sans-Serif" font-size="10.00">sen::VariantType</text>
</a>
</g>
</g>
<!-- Node1&#45;&gt;Node11 -->
<g id="edge47_Node000001_Node000011" class="edge">
<title>Node1&#45;&gt;Node11</title>
<g id="a_edge47_Node000001_Node000011"><a xlink:title=" ">
<path fill="none" stroke="#63b8ff" d="M161.37,-157.52C176.37,-136.97 203.45,-103.59 234,-83.5 239.73,-79.73 246.29,-76.62 252.83,-74.07"/>
<polygon fill="#63b8ff" stroke="#63b8ff" points="158.49,-155.54 155.54,-165.72 164.19,-159.6 158.49,-155.54"/>
</a>
</g>
</g>
<!-- Node7 -->
<g id="Node000007" class="node">
<title>Node7</title>
<g id="a_Node000007"><a xlink:href="classsen_1_1_duration_type.html" target="_top" xlink:title="Represents a sen::Duration (a time duration).">
<polygon fill="white" stroke="#666666" points="491,-203 387,-203 387,-184 491,-184 491,-203"/>
<text text-anchor="middle" x="439" y="-191" font-family="Helvetica,sans-Serif" font-size="10.00">sen::DurationType</text>
</a>
</g>
</g>
<!-- Node6&#45;&gt;Node7 -->
<g id="edge43_Node000006_Node000007" class="edge">
<title>Node6&#45;&gt;Node7</title>
<g id="a_edge43_Node000006_Node000007"><a xlink:title=" ">
<path fill="none" stroke="#63b8ff" d="M351.51,-182.98C363.23,-184.41 375.38,-185.88 386.74,-187.27"/>
<polygon fill="#63b8ff" stroke="#63b8ff" points="351.7,-179.48 341.35,-181.75 350.85,-186.43 351.7,-179.48"/>
</a>
</g>
</g>
<!-- Node8 -->
<g id="Node000008" class="node">
<title>Node8</title>
<g id="a_Node000008"><a xlink:href="classsen_1_1_timestamp_type.html" target="_top" xlink:title="Represents a sen::TimeStamp (a point in time).">
<polygon fill="white" stroke="#666666" points="498,-166 380,-166 380,-147 498,-147 498,-166"/>
<text text-anchor="middle" x="439" y="-154" font-family="Helvetica,sans-Serif" font-size="10.00">sen::TimestampType</text>
</a>
</g>
</g>
<!-- Node6&#45;&gt;Node8 -->
<g id="edge44_Node000006_Node000008" class="edge">
<title>Node6&#45;&gt;Node8</title>
<g id="a_edge44_Node000006_Node000008"><a xlink:title=" ">
<path fill="none" stroke="#63b8ff" d="M351.43,-167.61C360.85,-166.4 370.55,-165.16 379.9,-163.96"/>
<polygon fill="#63b8ff" stroke="#63b8ff" points="350.82,-164.16 341.35,-168.91 351.71,-171.11 350.82,-164.16"/>
</a>
</g>
</g>
<!-- Node13 -->
<g id="Node000013" class="node">
<title>Node13</title>
<g id="a_Node000013"><a xlink:href="classsen_1_1_numeric_type.html" target="_top" xlink:title="Represents a numeric native type.">
<polygon fill="white" stroke="#666666" points="341,-37 237,-37 237,-18 341,-18 341,-37"/>
<text text-anchor="middle" x="289" y="-25" font-family="Helvetica,sans-Serif" font-size="10.00">sen::NumericType</text>
</a>
</g>
</g>
<!-- Node12&#45;&gt;Node13 -->
<g id="edge49_Node000012_Node000013" class="edge">
<title>Node12&#45;&gt;Node13</title>
<g id="a_edge49_Node000012_Node000013"><a xlink:title=" ">
<path fill="none" stroke="#63b8ff" d="M186.58,-70.28C190.47,-68.74 194.33,-67.13 198,-65.5 214.53,-58.14 217.42,-53.74 234,-46.5 241.74,-43.12 250.29,-39.89 258.27,-37.08"/>
<polygon fill="#63b8ff" stroke="#63b8ff" points="185.08,-67.11 176.99,-73.95 187.58,-73.65 185.08,-67.11"/>
</a>
</g>
</g>
<!-- Node14 -->
<g id="Node000014" class="node">
<title>Node14</title>
<g id="a_Node000014"><a xlink:href="classsen_1_1_integral_type.html" target="_top" xlink:title="Represents an integral numeric type.">
<polygon fill="white" stroke="#666666" points="489,-56 389,-56 389,-37 489,-37 489,-56"/>
<text text-anchor="middle" x="439" y="-44" font-family="Helvetica,sans-Serif" font-size="10.00">sen::IntegralType</text>
</a>
</g>
</g>
<!-- Node13&#45;&gt;Node14 -->
<g id="edge50_Node000013_Node000014" class="edge">
<title>Node13&#45;&gt;Node14</title>
<g id="a_edge50_Node000013_Node000014"><a xlink:title=" ">
<path fill="none" stroke="#63b8ff" d="M351.6,-35.41C363.99,-37 376.84,-38.65 388.74,-40.18"/>
<polygon fill="#63b8ff" stroke="#63b8ff" points="351.71,-31.89 341.35,-34.09 350.82,-38.84 351.71,-31.89"/>
</a>
</g>
</g>
<!-- Node15 -->
<g id="Node000015" class="node">
<title>Node15</title>
<g id="a_Node000015"><a xlink:href="classsen_1_1_real_type.html" target="_top" xlink:title="Represents a floating point numeric type.">
<polygon fill="white" stroke="#666666" points="481,-19 397,-19 397,0 481,0 481,-19"/>
<text text-anchor="middle" x="439" y="-7" font-family="Helvetica,sans-Serif" font-size="10.00">sen::RealType</text>
</a>
</g>
</g>
<!-- Node13&#45;&gt;Node15 -->
<g id="edge51_Node000013_Node000015" class="edge">
<title>Node13&#45;&gt;Node15</title>
<g id="a_edge51_Node000013_Node000015"><a xlink:title=" ">
<path fill="none" stroke="#63b8ff" d="M351.33,-20.04C366.72,-18.17 382.87,-16.21 397,-14.49"/>
<polygon fill="#63b8ff" stroke="#63b8ff" points="350.85,-16.57 341.35,-21.25 351.7,-23.52 350.85,-16.57"/>
</a>
</g>
</g>
</g>
</svg>
