<?xml version="1.0" encoding="UTF-8" standalone="no"?>
<!DOCTYPE svg PUBLIC "-//W3C//DTD SVG 1.1//EN"
 "http://www.w3.org/Graphics/SVG/1.1/DTD/svg11.dtd">
<!-- Generated by graphviz version 2.43.0 (0)
 -->
<!-- Title: Graphical Class Hierarchy Pages: 1 -->
<svg width="506pt" height="304pt"
 viewBox="0.00 0.00 506.00 304.00" xmlns="http://www.w3.org/2000/svg" xmlns:xlink="http://www.w3.org/1999/xlink">
<g id="graph0" class="graph" transform="scale(1 1) rotate(0) translate(4 300)">
<title>Graphical Class Hierarchy</title>
<!-- Node0 -->
<g id="Node000000" class="node">
<title>Node0</title>
<g id="a_Node000000"><a xlink:href="classsen_1_1_type.html" target="_top" xlink:title="Represents a type that can be used to define variables and arguments for methods or functions....">
<polygon fill="white" stroke="#666666" points="62,-92 0,-92 0,-73 62,-73 62,-92"/>
<text text-anchor="middle" x="31" y="-80" font-family="Helvetica,sans-Serif" font-size="10.00">sen::Type</text>
</a>
</g>
</g>
<!-- Node1 -->
<g id="Node000001" class="node">
<title>Node1</title>
<g id="a_Node000001"><a xlink:href="classsen_1_1_custom_type.html" target="_top" xlink:title="Represents a user&#45;defined type.">
<polygon fill="white" stroke="#666666" points="198,-166 98,-166 98,-147 198,-147 198,-166"/>
<text text-anchor="middle" x="148" y="-154" font-family="Helvetica,sans-Serif" font-size="10.00">sen::CustomType</text>
</a>
</g>
</g>
<!-- Node0&#45;&gt;Node1 -->
<g id="edge40_Node000000_Node000001" class="edge">
<title>Node0&#45;&gt;Node1</title>
<g id="a_edge40_Node000000_Node000001"><a xlink:title=" ">
<path fill="none" stroke="#63b8ff" d="M55.5,-97.62C78.39,-112.35 112.5,-134.3 131.96,-146.82"/>
<polygon fill="#63b8ff" stroke="#63b8ff" points="57.34,-94.64 47.03,-92.17 53.55,-100.53 57.34,-94.64"/>
</a>
</g>
</g>
<!-- Node11 -->
<g id="Node000011" class="node">
<title>Node11</title>
<g id="a_Node000011"><a xlink:href="classsen_1_1_native_type.html" target="_top" xlink:title="Represents a native (built&#45;in) type that can be created on the stack or sent in a message.">
<polygon fill="white" stroke="#666666" points="195.5,-92 100.5,-92 100.5,-73 195.5,-73 195.5,-92"/>
<text text-anchor="middle" x="148" y="-80" font-family="Helvetica,sans-Serif" font-size="10.00">sen::NativeType</text>
</a>
</g>
</g>
<!-- Node0&#45;&gt;Node11 -->
<g id="edge50_Node000000_Node000011" class="edge">
<title>Node0&#45;&gt;Node11</title>
<g id="a_edge50_Node000000_Node000011"><a xlink:title=" ">
<path fill="none" stroke="#63b8ff" d="M72.38,-82.5C81.33,-82.5 90.89,-82.5 100.07,-82.5"/>
<polygon fill="#63b8ff" stroke="#63b8ff" points="72.21,-79 62.21,-82.5 72.21,-86 72.21,-79"/>
</a>
</g>
</g>
<!-- Node15 -->
<g id="Node000015" class="node">
<title>Node15</title>
<g id="a_Node000015"><a xlink:href="classsen_1_1_void_type.html" target="_top" xlink:title="Used for indicating that no result value is provided.">
<polygon fill="white" stroke="#666666" points="189.5,-55 106.5,-55 106.5,-36 189.5,-36 189.5,-55"/>
<text text-anchor="middle" x="148" y="-43" font-family="Helvetica,sans-Serif" font-size="10.00">sen::VoidType</text>
</a>
</g>
</g>
<!-- Node0&#45;&gt;Node15 -->
<g id="edge54_Node000000_Node000015" class="edge">
<title>Node0&#45;&gt;Node15</title>
<g id="a_edge54_Node000000_Node000015"><a xlink:title=" ">
<path fill="none" stroke="#63b8ff" d="M71.17,-69.9C86.19,-65.07 103.07,-59.63 117.09,-55.12"/>
<polygon fill="#63b8ff" stroke="#63b8ff" points="70.06,-66.58 61.62,-72.97 72.21,-73.24 70.06,-66.58"/>
</a>
</g>
</g>
<!-- Node2 -->
<g id="Node000002" class="node">
<title>Node2</title>
<g id="a_Node000002"><a xlink:href="classsen_1_1_alias_type.html" target="_top" xlink:title="Represents an aliased type.">
<polygon fill="white" stroke="#666666" points="332,-296 246,-296 246,-277 332,-277 332,-296"/>
<text text-anchor="middle" x="289" y="-284" font-family="Helvetica,sans-Serif" font-size="10.00">sen::AliasType</text>
</a>
</g>
</g>
<!-- Node1&#45;&gt;Node2 -->
<g id="edge41_Node000001_Node000002" class="edge">
<title>Node1&#45;&gt;Node2</title>
<g id="a_edge41_Node000001_Node000002"><a xlink:title=" ">
<path fill="none" stroke="#63b8ff" d="M158.53,-175.24C172.06,-200.03 199.12,-243.51 234,-268.5 238.74,-271.9 244.16,-274.68 249.7,-276.96"/>
<polygon fill="#63b8ff" stroke="#63b8ff" points="161.5,-173.35 153.73,-166.15 155.31,-176.63 161.5,-173.35"/>
</a>
</g>
</g>
<!-- Node3 -->
<g id="Node000003" class="node">
<title>Node3</title>
<g id="a_Node000003"><a xlink:href="classsen_1_1_enum_type.html" target="_top" xlink:title="Represents an enumeration.">
<polygon fill="white" stroke="#666666" points="334,-259 244,-259 244,-240 334,-240 334,-259"/>
<text text-anchor="middle" x="289" y="-247" font-family="Helvetica,sans-Serif" font-size="10.00">sen::EnumType</text>
</a>
</g>
</g>
<!-- Node1&#45;&gt;Node3 -->
<g id="edge42_Node000001_Node000003" class="edge">
<title>Node1&#45;&gt;Node3</title>
<g id="a_edge42_Node000001_Node000003"><a xlink:title=" ">
<path fill="none" stroke="#63b8ff" d="M164.43,-173.65C180.38,-190.47 206.74,-215.8 234,-231.5 239.74,-234.8 246.17,-237.61 252.54,-239.96"/>
<polygon fill="#63b8ff" stroke="#63b8ff" points="166.84,-171.11 157.47,-166.16 161.71,-175.87 166.84,-171.11"/>
</a>
</g>
</g>
<!-- Node4 -->
<g id="Node000004" class="node">
<title>Node4</title>
<g id="a_Node000004"><a xlink:href="classsen_1_1_optional_type.html" target="_top" xlink:title="Represents an optional type.">
<polygon fill="white" stroke="#666666" points="341,-222 237,-222 237,-203 341,-203 341,-222"/>
<text text-anchor="middle" x="289" y="-210" font-family="Helvetica,sans-Serif" font-size="10.00">sen::OptionalType</text>
</a>
</g>
</g>
<!-- Node1&#45;&gt;Node4 -->
<g id="edge43_Node000001_Node000004" class="edge">
<title>Node1&#45;&gt;Node4</title>
<g id="a_edge43_Node000001_Node000004"><a xlink:title=" ">
<path fill="none" stroke="#63b8ff" d="M178.51,-170.55C194.72,-178.06 215.29,-187.22 234,-194.5 241.55,-197.44 249.81,-200.34 257.54,-202.93"/>
<polygon fill="#63b8ff" stroke="#63b8ff" points="179.57,-167.19 169.03,-166.13 176.61,-173.53 179.57,-167.19"/>
</a>
</g>
</g>
<!-- Node5 -->
<g id="Node000005" class="node">
<title>Node5</title>
<g id="a_Node000005"><a xlink:href="classsen_1_1_quantity_type.html" target="_top" xlink:title="Represents a quantity.">
<polygon fill="white" stroke="#666666" points="341,-185 237,-185 237,-166 341,-166 341,-185"/>
<text text-anchor="middle" x="289" y="-173" font-family="Helvetica,sans-Serif" font-size="10.00">sen::QuantityType</text>
</a>
</g>
</g>
<!-- Node1&#45;&gt;Node5 -->
<g id="edge44_Node000001_Node000005" class="edge">
<title>Node1&#45;&gt;Node5</title>
<g id="a_edge44_Node000001_Node000005"><a xlink:title=" ">
<path fill="none" stroke="#63b8ff" d="M208.14,-164.58C217.61,-165.88 227.34,-167.21 236.61,-168.48"/>
<polygon fill="#63b8ff" stroke="#63b8ff" points="208.39,-161.09 198.01,-163.2 207.44,-168.02 208.39,-161.09"/>
</a>
</g>
</g>
<!-- Node8 -->
<g id="Node000008" class="node">
<title>Node8</title>
<g id="a_Node000008"><a xlink:href="classsen_1_1_sequence_type.html" target="_top" xlink:title="Represents a sequence type.">
<polygon fill="white" stroke="#666666" points="344,-148 234,-148 234,-129 344,-129 344,-148"/>
<text text-anchor="middle" x="289" y="-136" font-family="Helvetica,sans-Serif" font-size="10.00">sen::SequenceType</text>
</a>
</g>
</g>
<!-- Node1&#45;&gt;Node8 -->
<g id="edge47_Node000001_Node000008" class="edge">
<title>Node1&#45;&gt;Node8</title>
<g id="a_edge47_Node000001_Node000008"><a xlink:title=" ">
<path fill="none" stroke="#63b8ff" d="M207.93,-148.87C216.5,-147.76 225.29,-146.62 233.76,-145.52"/>
<polygon fill="#63b8ff" stroke="#63b8ff" points="207.47,-145.4 198.01,-150.15 208.37,-152.34 207.47,-145.4"/>
</a>
</g>
</g>
<!-- Node9 -->
<g id="Node000009" class="node">
<title>Node9</title>
<g id="a_Node000009"><a xlink:href="classsen_1_1_struct_type.html" target="_top" xlink:title="Represents a structure type.">
<polygon fill="white" stroke="#666666" points="334.5,-111 243.5,-111 243.5,-92 334.5,-92 334.5,-111"/>
<text text-anchor="middle" x="289" y="-99" font-family="Helvetica,sans-Serif" font-size="10.00">sen::StructType</text>
</a>
</g>
</g>
<!-- Node1&#45;&gt;Node9 -->
<g id="edge48_Node000001_Node000009" class="edge">
<title>Node1&#45;&gt;Node9</title>
<g id="a_edge48_Node000001_Node000009"><a xlink:title=" ">
<path fill="none" stroke="#63b8ff" d="M179.93,-142.85C195.97,-135.92 215.93,-127.5 234,-120.5 242.34,-117.27 251.49,-113.96 259.85,-111.03"/>
<polygon fill="#63b8ff" stroke="#63b8ff" points="178.28,-139.75 170.51,-146.95 181.07,-146.17 178.28,-139.75"/>
</a>
</g>
</g>
<!-- Node10 -->
<g id="Node000010" class="node">
<title>Node10</title>
<g id="a_Node000010"><a xlink:href="classsen_1_1_variant_type.html" target="_top" xlink:title="Represents a variant type.">
<polygon fill="white" stroke="#666666" points="337.5,-74 240.5,-74 240.5,-55 337.5,-55 337.5,-74"/>
<text text-anchor="middle" x="289" y="-62" font-family="Helvetica,sans-Serif" font-size="10.00">sen::VariantType</text>
</a>
</g>
</g>
<!-- Node1&#45;&gt;Node10 -->
<g id="edge49_Node000001_Node000010" class="edge">
<title>Node1&#45;&gt;Node10</title>
<g id="a_edge49_Node000001_Node000010"><a xlink:title=" ">
<path fill="none" stroke="#63b8ff" d="M165.09,-139.4C181.21,-123.12 207.37,-98.89 234,-83.5 240.37,-79.82 247.57,-76.68 254.58,-74.08"/>
<polygon fill="#63b8ff" stroke="#63b8ff" points="162.48,-137.06 158.03,-146.67 167.51,-141.93 162.48,-137.06"/>
</a>
</g>
</g>
<!-- Node6 -->
<g id="Node000006" class="node">
<title>Node6</title>
<g id="a_Node000006"><a xlink:href="classsen_1_1_duration_type.html" target="_top" xlink:title="Represents a sen::Duration (a time duration).">
<polygon fill="white" stroke="#666666" points="491,-203 387,-203 387,-184 491,-184 491,-203"/>
<text text-anchor="middle" x="439" y="-191" font-family="Helvetica,sans-Serif" font-size="10.00">sen::DurationType</text>
</a>
</g>
</g>
<!-- Node5&#45;&gt;Node6 -->
<g id="edge45_Node000005_Node000006" class="edge">
<title>Node5&#45;&gt;Node6</title>
<g id="a_edge45_Node000005_Node000006"><a xlink:title=" ">
<path fill="none" stroke="#63b8ff" d="M351.51,-182.98C363.23,-184.41 375.38,-185.88 386.74,-187.27"/>
<polygon fill="#63b8ff" stroke="#63b8ff" points="351.7,-179.48 341.35,-181.75 350.85,-186.43 351.7,-179.48"/>
</a>
</g>
</g>
<!-- Node7 -->
<g id="Node000007" class="node">
<title>Node7</title>
<g id="a_Node000007"><a xlink:href="classsen_1_1_timestamp_type.html" target="_top" xlink:title="Represents a sen::TimeStamp (a point in time).">
<polygon fill="white" stroke="#666666" points="498,-166 380,-166 380,-147 498,-147 498,-166"/>
<text text-anchor="middle" x="439" y="-154" font-family="Helvetica,sans-Serif" font-size="10.00">sen::TimestampType</text>
</a>
</g>
</g>
<!-- Node5&#45;&gt;Node7 -->
<g id="edge46_Node000005_Node000007" class="edge">
<title>Node5&#45;&gt;Node7</title>
<g id="a_edge46_Node000005_Node000007"><a xlink:title=" ">
<path fill="none" stroke="#63b8ff" d="M351.43,-167.61C360.85,-166.4 370.55,-165.16 379.9,-163.96"/>
<polygon fill="#63b8ff" stroke="#63b8ff" points="350.82,-164.16 341.35,-168.91 351.71,-171.11 350.82,-164.16"/>
</a>
</g>
</g>
<!-- Node12 -->
<g id="Node000012" class="node">
<title>Node12</title>
<g id="a_Node000012"><a xlink:href="classsen_1_1_numeric_type.html" target="_top" xlink:title="Represents a numeric native type.">
<polygon fill="white" stroke="#666666" points="341,-37 237,-37 237,-18 341,-18 341,-37"/>
<text text-anchor="middle" x="289" y="-25" font-family="Helvetica,sans-Serif" font-size="10.00">sen::NumericType</text>
</a>
</g>
</g>
<!-- Node11&#45;&gt;Node12 -->
<g id="edge51_Node000011_Node000012" class="edge">
<title>Node11&#45;&gt;Node12</title>
<g id="a_edge51_Node000011_Node000012"><a xlink:title=" ">
<path fill="none" stroke="#63b8ff" d="M186.06,-69.39C190.12,-67.8 194.16,-66.16 198,-64.5 214.42,-57.4 217.53,-53.48 234,-46.5 241.87,-43.16 250.55,-39.92 258.6,-37.09"/>
<polygon fill="#63b8ff" stroke="#63b8ff" points="184.79,-66.12 176.68,-72.94 187.28,-72.67 184.79,-66.12"/>
</a>
</g>
</g>
<!-- Node13 -->
<g id="Node000013" class="node">
<title>Node13</title>
<g id="a_Node000013"><a xlink:href="classsen_1_1_integral_type.html" target="_top" xlink:title="Represents an integral numeric type.">
<polygon fill="white" stroke="#666666" points="489,-56 389,-56 389,-37 489,-37 489,-56"/>
<text text-anchor="middle" x="439" y="-44" font-family="Helvetica,sans-Serif" font-size="10.00">sen::IntegralType</text>
</a>
</g>
</g>
<!-- Node12&#45;&gt;Node13 -->
<g id="edge52_Node000012_Node000013" class="edge">
<title>Node12&#45;&gt;Node13</title>
<g id="a_edge52_Node000012_Node000013"><a xlink:title=" ">
<path fill="none" stroke="#63b8ff" d="M351.6,-35.41C363.99,-37 376.84,-38.65 388.74,-40.18"/>
<polygon fill="#63b8ff" stroke="#63b8ff" points="351.71,-31.89 341.35,-34.09 350.82,-38.84 351.71,-31.89"/>
</a>
</g>
</g>
<!-- Node14 -->
<g id="Node000014" class="node">
<title>Node14</title>
<g id="a_Node000014"><a xlink:href="classsen_1_1_real_type.html" target="_top" xlink:title="Represents a floating point numeric type.">
<polygon fill="white" stroke="#666666" points="481,-19 397,-19 397,0 481,0 481,-19"/>
<text text-anchor="middle" x="439" y="-7" font-family="Helvetica,sans-Serif" font-size="10.00">sen::RealType</text>
</a>
</g>
</g>
<!-- Node12&#45;&gt;Node14 -->
<g id="edge53_Node000012_Node000014" class="edge">
<title>Node12&#45;&gt;Node14</title>
<g id="a_edge53_Node000012_Node000014"><a xlink:title=" ">
<path fill="none" stroke="#63b8ff" d="M351.33,-20.04C366.72,-18.17 382.87,-16.21 397,-14.49"/>
<polygon fill="#63b8ff" stroke="#63b8ff" points="350.85,-16.57 341.35,-21.25 351.7,-23.52 350.85,-16.57"/>
</a>
</g>
</g>
</g>
</svg>
