<?xml version="1.0" encoding="UTF-8" standalone="no"?>
<!DOCTYPE svg PUBLIC "-//W3C//DTD SVG 1.1//EN"
 "http://www.w3.org/Graphics/SVG/1.1/DTD/svg11.dtd">
<!-- Generated by graphviz version 2.43.0 (0)
 -->
<!-- Title: Graphical Class Hierarchy Pages: 1 -->
<svg width="230pt" height="76pt"
 viewBox="0.00 0.00 230.00 75.50" xmlns="http://www.w3.org/2000/svg" xmlns:xlink="http://www.w3.org/1999/xlink">
<g id="graph0" class="graph" transform="scale(1 1) rotate(0) translate(4 71.5)">
<title>Graphical Class Hierarchy</title>
<!-- Node0 -->
<g id="Node000000" class="node">
<title>Node0</title>
<g id="a_Node000000"><a xlink:title=" ">
<polygon fill="#e0e0e0" stroke="#999999" points="70,-45.5 0,-45.5 0,-26.5 70,-26.5 70,-45.5"/>
<text text-anchor="middle" x="35" y="-33.5" font-family="Helvetica,sans-Serif" font-size="10.00">TesterBase</text>
</a>
</g>
</g>
<!-- Node1 -->
<g id="Node000001" class="node">
<title>Node1</title>
<g id="a_Node000001"><a xlink:href="classsen_1_1test_1_1_tester_impl.html" target="_top" xlink:title=" ">
<polygon fill="white" stroke="#666666" points="222,-67.5 106,-67.5 106,-48.5 222,-48.5 222,-67.5"/>
<text text-anchor="middle" x="164" y="-55.5" font-family="Helvetica,sans-Serif" font-size="10.00">sen::test::TesterImpl</text>
</a>
</g>
</g>
<!-- Node0&#45;&gt;Node1 -->
<g id="edge102_Node000000_Node000001" class="edge">
<title>Node0&#45;&gt;Node1</title>
<g id="a_edge102_Node000000_Node000001"><a xlink:title=" ">
<path fill="none" stroke="#63b8ff" d="M79.89,-43.6C88.88,-45.16 98.45,-46.82 107.78,-48.43"/>
<polygon fill="#63b8ff" stroke="#63b8ff" points="80.48,-40.15 70.03,-41.9 79.29,-47.05 80.48,-40.15"/>
</a>
</g>
</g>
<!-- Node2 -->
<g id="Node000002" class="node">
<title>Node2</title>
<g id="a_Node000002"><a xlink:href="classsen_1_1test_1_1runtime_1_1_tester_impl.html" target="_top" xlink:title=" ">
<polygon fill="white" stroke="#666666" points="215.5,-30 112.5,-30 112.5,0 215.5,0 215.5,-30"/>
<text text-anchor="start" x="120.5" y="-18" font-family="Helvetica,sans-Serif" font-size="10.00">sen::test::runtime</text>
<text text-anchor="middle" x="164" y="-7" font-family="Helvetica,sans-Serif" font-size="10.00">::TesterImpl</text>
</a>
</g>
</g>
<!-- Node0&#45;&gt;Node2 -->
<g id="edge103_Node000000_Node000002" class="edge">
<title>Node0&#45;&gt;Node2</title>
<g id="a_edge103_Node000000_Node000002"><a xlink:title=" ">
<path fill="none" stroke="#63b8ff" d="M80.08,-28.71C90.42,-27 101.53,-25.16 112.14,-23.41"/>
<polygon fill="#63b8ff" stroke="#63b8ff" points="79.33,-25.29 70.03,-30.37 80.47,-32.19 79.33,-25.29"/>
</a>
</g>
</g>
</g>
</svg>
