<?xml version="1.0" encoding="UTF-8" standalone="no"?>
<!DOCTYPE svg PUBLIC "-//W3C//DTD SVG 1.1//EN"
 "http://www.w3.org/Graphics/SVG/1.1/DTD/svg11.dtd">
<!-- Generated by graphviz version 2.43.0 (0)
 -->
<!-- Title: Graphical Class Hierarchy Pages: 1 -->
<svg width="328pt" height="134pt"
 viewBox="0.00 0.00 328.00 134.00" xmlns="http://www.w3.org/2000/svg" xmlns:xlink="http://www.w3.org/1999/xlink">
<g id="graph0" class="graph" transform="scale(1 1) rotate(0) translate(4 130)">
<title>Graphical Class Hierarchy</title>
<!-- Node0 -->
<g id="Node000000" class="node">
<title>Node0</title>
<g id="a_Node000000"><a xlink:href="classsen_1_1_static_vector_base.html" target="_top" xlink:title="Base class for stack&#45;based, exception&#45;safe and resizable vector with fixed&#45;capacity.">
<polygon fill="white" stroke="#666666" points="151,-72.5 0,-72.5 0,-53.5 151,-53.5 151,-72.5"/>
<text text-anchor="middle" x="75.5" y="-60.5" font-family="Helvetica,sans-Serif" font-size="10.00">sen::StaticVectorBase&lt; T &gt;</text>
</a>
</g>
</g>
<!-- Node1 -->
<g id="Node000001" class="node">
<title>Node1</title>
<g id="a_Node000001"><a xlink:href="classsen_1_1_static_vector.html" target="_top" xlink:title=" ">
<polygon fill="white" stroke="#666666" points="309,-126 198,-126 198,-96 309,-96 309,-126"/>
<text text-anchor="start" x="206" y="-114" font-family="Helvetica,sans-Serif" font-size="10.00">sen::StaticVector&lt;</text>
<text text-anchor="middle" x="253.5" y="-103" font-family="Helvetica,sans-Serif" font-size="10.00"> Value, stackMax &gt;</text>
</a>
</g>
</g>
<!-- Node0&#45;&gt;Node1 -->
<g id="edge24_Node000000_Node000001" class="edge">
<title>Node0&#45;&gt;Node1</title>
<g id="a_edge24_Node000000_Node000001"><a xlink:title=" ">
<path fill="none" stroke="#63b8ff" d="M121.64,-75.31C144.91,-81.66 173.46,-89.44 197.96,-96.12"/>
<polygon fill="#63b8ff" stroke="#63b8ff" points="122.26,-71.85 111.69,-72.6 120.42,-78.61 122.26,-71.85"/>
</a>
</g>
</g>
<!-- Node2 -->
<g id="Node000002" class="node">
<title>Node2</title>
<g id="a_Node000002"><a xlink:href="classsen_1_1_static_vector.html" target="_top" xlink:title=" ">
<polygon fill="white" stroke="#666666" points="320,-78 187,-78 187,-48 320,-48 320,-78"/>
<text text-anchor="start" x="195" y="-66" font-family="Helvetica,sans-Serif" font-size="10.00">sen::StaticVector&lt;</text>
<text text-anchor="middle" x="253.5" y="-55" font-family="Helvetica,sans-Serif" font-size="10.00"> std::string, stackMax &gt;</text>
</a>
</g>
</g>
<!-- Node0&#45;&gt;Node2 -->
<g id="edge25_Node000000_Node000002" class="edge">
<title>Node0&#45;&gt;Node2</title>
<g id="a_edge25_Node000000_Node000002"><a xlink:title=" ">
<path fill="none" stroke="#63b8ff" d="M161.24,-63C169.87,-63 178.55,-63 186.94,-63"/>
<polygon fill="#63b8ff" stroke="#63b8ff" points="161.14,-59.5 151.14,-63 161.14,-66.5 161.14,-59.5"/>
</a>
</g>
</g>
<!-- Node3 -->
<g id="Node000003" class="node">
<title>Node3</title>
<g id="a_Node000003"><a xlink:href="classsen_1_1_static_vector.html" target="_top" xlink:title="Stack&#45;based, exception&#45;free and resizable vector with fixed&#45;capacity.">
<polygon fill="white" stroke="#666666" points="307,-30 200,-30 200,0 307,0 307,-30"/>
<text text-anchor="start" x="208" y="-18" font-family="Helvetica,sans-Serif" font-size="10.00">sen::StaticVector&lt;</text>
<text text-anchor="middle" x="253.5" y="-7" font-family="Helvetica,sans-Serif" font-size="10.00"> T, s &gt;</text>
</a>
</g>
</g>
<!-- Node0&#45;&gt;Node3 -->
<g id="edge26_Node000000_Node000003" class="edge">
<title>Node0&#45;&gt;Node3</title>
<g id="a_edge26_Node000000_Node000003"><a xlink:title=" ">
<path fill="none" stroke="#63b8ff" d="M121.54,-50.72C145.36,-44.22 174.76,-36.2 199.66,-29.41"/>
<polygon fill="#63b8ff" stroke="#63b8ff" points="120.42,-47.39 111.69,-53.4 122.26,-54.15 120.42,-47.39"/>
</a>
</g>
</g>
</g>
</svg>
