<?xml version="1.0" encoding="UTF-8" standalone="no"?>
<!DOCTYPE svg PUBLIC "-//W3C//DTD SVG 1.1//EN"
 "http://www.w3.org/Graphics/SVG/1.1/DTD/svg11.dtd">
<!-- Generated by graphviz version 2.43.0 (0)
 -->
<!-- Title: Graphical Class Hierarchy Pages: 1 -->
<svg width="539pt" height="417pt"
 viewBox="0.00 0.00 539.00 416.50" xmlns="http://www.w3.org/2000/svg" xmlns:xlink="http://www.w3.org/1999/xlink">
<g id="graph0" class="graph" transform="scale(1 1) rotate(0) translate(4 412.5)">
<title>Graphical Class Hierarchy</title>
<!-- Node0 -->
<g id="Node000000" class="node">
<title>Node0</title>
<g id="a_Node000000"><a xlink:title=" ">
<polygon fill="#e0e0e0" stroke="#999999" points="118.5,-181 9.5,-181 9.5,-151 118.5,-151 118.5,-181"/>
<text text-anchor="start" x="17.5" y="-169" font-family="Helvetica,sans-Serif" font-size="10.00">std::enable_shared</text>
<text text-anchor="middle" x="64" y="-158" font-family="Helvetica,sans-Serif" font-size="10.00">_from_this</text>
</a>
</g>
</g>
<!-- Node1 -->
<g id="Node000001" class="node">
<title>Node1</title>
<g id="a_Node000001"><a xlink:href="classsen_1_1_interest.html" target="_top" xlink:title="Declares interest on objects that satisfy a set of conditions.">
<polygon fill="white" stroke="#666666" points="288,-317.5 211,-317.5 211,-298.5 288,-298.5 288,-317.5"/>
<text text-anchor="middle" x="249.5" y="-305.5" font-family="Helvetica,sans-Serif" font-size="10.00">sen::Interest</text>
</a>
</g>
</g>
<!-- Node0&#45;&gt;Node1 -->
<g id="edge65_Node000000_Node000001" class="edge">
<title>Node0&#45;&gt;Node1</title>
<g id="a_edge65_Node000000_Node000001"><a xlink:title=" ">
<path fill="none" stroke="#63b8ff" d="M77.58,-190.34C93.65,-218.89 124.21,-265.41 164,-290 177.91,-298.59 195.29,-303.13 210.67,-305.51"/>
<polygon fill="#63b8ff" stroke="#63b8ff" points="80.56,-188.51 72.69,-181.41 74.42,-191.86 80.56,-188.51"/>
</a>
</g>
</g>
<!-- Node2 -->
<g id="Node000002" class="node">
<title>Node2</title>
<g id="a_Node000002"><a xlink:href="classsen_1_1_object.html" target="_top" xlink:title="A sen object.">
<polygon fill="white" stroke="#666666" points="285,-381.5 214,-381.5 214,-362.5 285,-362.5 285,-381.5"/>
<text text-anchor="middle" x="249.5" y="-369.5" font-family="Helvetica,sans-Serif" font-size="10.00">sen::Object</text>
</a>
</g>
</g>
<!-- Node0&#45;&gt;Node2 -->
<g id="edge66_Node000000_Node000002" class="edge">
<title>Node0&#45;&gt;Node2</title>
<g id="a_edge66_Node000000_Node000002"><a xlink:title=" ">
<path fill="none" stroke="#63b8ff" d="M75.02,-190.37C90.07,-224.51 121.35,-286.91 164,-327 180.96,-342.94 204.64,-354.9 222.62,-362.47"/>
<polygon fill="#63b8ff" stroke="#63b8ff" points="78.21,-188.93 71.04,-181.13 71.78,-191.7 78.21,-188.93"/>
</a>
</g>
</g>
<!-- Node4 -->
<g id="Node000004" class="node">
<title>Node4</title>
<g id="a_Node000004"><a xlink:href="classsen_1_1_object_provider.html" target="_top" xlink:title="Base class for an entity that is able to produce objects.">
<polygon fill="white" stroke="#666666" points="305.5,-280.5 193.5,-280.5 193.5,-261.5 305.5,-261.5 305.5,-280.5"/>
<text text-anchor="middle" x="249.5" y="-268.5" font-family="Helvetica,sans-Serif" font-size="10.00">sen::ObjectProvider</text>
</a>
</g>
</g>
<!-- Node0&#45;&gt;Node4 -->
<g id="edge68_Node000000_Node000004" class="edge">
<title>Node0&#45;&gt;Node4</title>
<g id="a_edge68_Node000000_Node000004"><a xlink:title=" ">
<path fill="none" stroke="#63b8ff" d="M84.45,-188.7C102.89,-208.73 132.41,-237.13 164,-253 173.11,-257.58 183.35,-260.99 193.47,-263.54"/>
<polygon fill="#63b8ff" stroke="#63b8ff" points="87.01,-186.31 77.71,-181.22 81.8,-190.99 87.01,-186.31"/>
</a>
</g>
</g>
<!-- Node12 -->
<g id="Node000012" class="node">
<title>Node12</title>
<g id="a_Node000012"><a xlink:title=" ">
<polygon fill="#e0e0e0" stroke="#999999" points="316.5,-163.5 182.5,-163.5 182.5,-144.5 316.5,-144.5 316.5,-163.5"/>
<text text-anchor="middle" x="249.5" y="-151.5" font-family="Helvetica,sans-Serif" font-size="10.00">sen::impl::CallbackBase</text>
</a>
</g>
</g>
<!-- Node0&#45;&gt;Node12 -->
<g id="edge70_Node000000_Node000012" class="edge">
<title>Node0&#45;&gt;Node12</title>
<g id="a_edge70_Node000000_Node000012"><a xlink:title=" ">
<path fill="none" stroke="#63b8ff" d="M128.63,-161.84C146.04,-160.7 164.94,-159.46 182.48,-158.32"/>
<polygon fill="#63b8ff" stroke="#63b8ff" points="128.32,-158.35 118.57,-162.5 128.78,-165.34 128.32,-158.35"/>
</a>
</g>
</g>
<!-- Node16 -->
<g id="Node000016" class="node">
<title>Node16</title>
<g id="a_Node000016"><a xlink:href="classsen_1_1kernel_1_1_session_info_provider.html" target="_top" xlink:title=" ">
<polygon fill="white" stroke="#666666" points="315.5,-89 183.5,-89 183.5,-59 315.5,-59 315.5,-89"/>
<text text-anchor="start" x="191.5" y="-77" font-family="Helvetica,sans-Serif" font-size="10.00">sen::kernel::SessionInfo</text>
<text text-anchor="middle" x="249.5" y="-66" font-family="Helvetica,sans-Serif" font-size="10.00">Provider</text>
</a>
</g>
</g>
<!-- Node0&#45;&gt;Node16 -->
<g id="edge74_Node000000_Node000016" class="edge">
<title>Node0&#45;&gt;Node16</title>
<g id="a_edge74_Node000000_Node000016"><a xlink:title=" ">
<path fill="none" stroke="#63b8ff" d="M96.37,-145.26C106.49,-138.52 117.75,-130.98 128,-124 144.1,-113.04 146.44,-107.43 164,-99 171.72,-95.29 180.11,-92.01 188.51,-89.15"/>
<polygon fill="#63b8ff" stroke="#63b8ff" points="94.21,-142.49 87.82,-150.94 98.08,-148.32 94.21,-142.49"/>
</a>
</g>
</g>
<!-- Node18 -->
<g id="Node000018" class="node">
<title>Node18</title>
<g id="a_Node000018"><a xlink:href="classsen_1_1kernel_1_1_sessions_discoverer.html" target="_top" xlink:title=" ">
<polygon fill="white" stroke="#666666" points="335,-126.5 164,-126.5 164,-107.5 335,-107.5 335,-126.5"/>
<text text-anchor="middle" x="249.5" y="-114.5" font-family="Helvetica,sans-Serif" font-size="10.00">sen::kernel::SessionsDiscoverer</text>
</a>
</g>
</g>
<!-- Node0&#45;&gt;Node18 -->
<g id="edge75_Node000000_Node000018" class="edge">
<title>Node0&#45;&gt;Node18</title>
<g id="a_edge75_Node000000_Node000018"><a xlink:title=" ">
<path fill="none" stroke="#63b8ff" d="M121.93,-147.97C135.65,-143.84 150.31,-139.61 164,-136 176.65,-132.67 190.46,-129.4 203.18,-126.55"/>
<polygon fill="#63b8ff" stroke="#63b8ff" points="120.69,-144.69 112.14,-150.95 122.72,-151.39 120.69,-144.69"/>
</a>
</g>
</g>
<!-- Node3 -->
<g id="Node000003" class="node">
<title>Node3</title>
<g id="a_Node000003"><a xlink:href="classsen_1_1_native_object.html" target="_top" xlink:title="An object instantiated in this process. This is the base class for all user&#45;implemented objects.">
<polygon fill="white" stroke="#666666" points="503,-408.5 399,-408.5 399,-389.5 503,-389.5 503,-408.5"/>
<text text-anchor="middle" x="451" y="-396.5" font-family="Helvetica,sans-Serif" font-size="10.00">sen::NativeObject</text>
</a>
</g>
</g>
<!-- Node2&#45;&gt;Node3 -->
<g id="edge67_Node000002_Node000003" class="edge">
<title>Node2&#45;&gt;Node3</title>
<g id="a_edge67_Node000002_Node000003"><a xlink:title=" ">
<path fill="none" stroke="#63b8ff" d="M295.25,-378.06C325.97,-382.21 366.8,-387.74 398.81,-392.07"/>
<polygon fill="#63b8ff" stroke="#63b8ff" points="295.63,-374.58 285.25,-376.7 294.69,-381.51 295.63,-374.58"/>
</a>
</g>
</g>
<!-- Node5 -->
<g id="Node000005" class="node">
<title>Node5</title>
<g id="a_Node000005"><a xlink:href="classsen_1_1_object_mux.html" target="_top" xlink:title="Converts multiple object providers into one. Providers might reside in different threads....">
<polygon fill="white" stroke="#666666" points="497,-371.5 405,-371.5 405,-352.5 497,-352.5 497,-371.5"/>
<text text-anchor="middle" x="451" y="-359.5" font-family="Helvetica,sans-Serif" font-size="10.00">sen::ObjectMux</text>
</a>
</g>
</g>
<!-- Node4&#45;&gt;Node5 -->
<g id="edge69_Node000004_Node000005" class="edge">
<title>Node4&#45;&gt;Node5</title>
<g id="a_edge69_Node000004_Node000005"><a xlink:title=" ">
<path fill="none" stroke="#63b8ff" d="M315.37,-280.13C322.33,-282.67 329.04,-285.9 335,-290 358.77,-306.33 347.25,-327.63 371,-344 380.96,-350.86 393.15,-355.15 404.93,-357.81"/>
<polygon fill="#63b8ff" stroke="#63b8ff" points="316.35,-276.77 305.76,-277.08 314.23,-283.44 316.35,-276.77"/>
</a>
</g>
</g>
<!-- Node13 -->
<g id="Node000013" class="node">
<title>Node13</title>
<g id="a_Node000013"><a xlink:href="classsen_1_1_callback.html" target="_top" xlink:title=" ">
<polygon fill="white" stroke="#666666" points="522.5,-126 379.5,-126 379.5,-96 522.5,-96 522.5,-126"/>
<text text-anchor="start" x="387.5" y="-114" font-family="Helvetica,sans-Serif" font-size="10.00">sen::Callback&lt; EventInfo,</text>
<text text-anchor="middle" x="451" y="-103" font-family="Helvetica,sans-Serif" font-size="10.00"> Args... &gt;</text>
</a>
</g>
</g>
<!-- Node12&#45;&gt;Node13 -->
<g id="edge71_Node000012_Node000013" class="edge">
<title>Node12&#45;&gt;Node13</title>
<g id="a_edge71_Node000012_Node000013"><a xlink:title=" ">
<path fill="none" stroke="#63b8ff" d="M305.7,-142.28C315.46,-140.19 325.53,-138.04 335,-136 349.88,-132.8 365.84,-129.34 380.99,-126.05"/>
<polygon fill="#63b8ff" stroke="#63b8ff" points="304.73,-138.9 295.68,-144.41 306.19,-145.75 304.73,-138.9"/>
</a>
</g>
</g>
<!-- Node14 -->
<g id="Node000014" class="node">
<title>Node14</title>
<g id="a_Node000014"><a xlink:href="classsen_1_1_callback.html" target="_top" xlink:title=" ">
<polygon fill="white" stroke="#666666" points="525.5,-78 376.5,-78 376.5,-48 525.5,-48 525.5,-78"/>
<text text-anchor="start" x="384.5" y="-66" font-family="Helvetica,sans-Serif" font-size="10.00">sen::Callback&lt; MethodCall</text>
<text text-anchor="middle" x="451" y="-55" font-family="Helvetica,sans-Serif" font-size="10.00">Info, MethodResult&lt; R &gt; &gt;</text>
</a>
</g>
</g>
<!-- Node12&#45;&gt;Node14 -->
<g id="edge72_Node000012_Node000014" class="edge">
<title>Node12&#45;&gt;Node14</title>
<g id="a_edge72_Node000012_Node000014"><a xlink:title=" ">
<path fill="none" stroke="#63b8ff" d="M325.79,-141.1C328.99,-139.58 332.08,-137.89 335,-136 357.7,-121.34 348.94,-102.61 371,-87 375.8,-83.6 381.08,-80.68 386.58,-78.16"/>
<polygon fill="#63b8ff" stroke="#63b8ff" points="324.43,-137.88 316.53,-144.94 327.11,-144.34 324.43,-137.88"/>
</a>
</g>
</g>
<!-- Node15 -->
<g id="Node000015" class="node">
<title>Node15</title>
<g id="a_Node000015"><a xlink:href="classsen_1_1_callback.html" target="_top" xlink:title="Base class for event or method callbacks. It stores the queue where to push the response....">
<polygon fill="white" stroke="#666666" points="521.5,-30 380.5,-30 380.5,0 521.5,0 521.5,-30"/>
<text text-anchor="start" x="388.5" y="-18" font-family="Helvetica,sans-Serif" font-size="10.00">sen::Callback&lt; InfoClass,</text>
<text text-anchor="middle" x="451" y="-7" font-family="Helvetica,sans-Serif" font-size="10.00"> Args &gt;</text>
</a>
</g>
</g>
<!-- Node12&#45;&gt;Node15 -->
<g id="edge73_Node000012_Node000015" class="edge">
<title>Node12&#45;&gt;Node15</title>
<g id="a_edge73_Node000012_Node000015"><a xlink:title=" ">
<path fill="none" stroke="#63b8ff" d="M326.11,-142.3C329.26,-140.46 332.25,-138.38 335,-136 369.79,-105.93 337.52,-70.52 371,-39 374.65,-35.56 378.78,-32.61 383.19,-30.09"/>
<polygon fill="#63b8ff" stroke="#63b8ff" points="324.29,-139.29 316.84,-146.81 327.36,-145.58 324.29,-139.29"/>
</a>
</g>
</g>
<!-- Node6 -->
<g id="Node000006" class="node">
<title>Node6</title>
<g id="a_Node000006"><a xlink:href="classsen_1_1_object_provider_listener.html" target="_top" xlink:title="Allows reacting to objects being added or removed to an object provider. It automatically unregisters...">
<polygon fill="white" stroke="#666666" points="325,-243.5 174,-243.5 174,-224.5 325,-224.5 325,-243.5"/>
<text text-anchor="middle" x="249.5" y="-231.5" font-family="Helvetica,sans-Serif" font-size="10.00">sen::ObjectProviderListener</text>
</a>
</g>
</g>
<!-- Node6&#45;&gt;Node5 -->
<g id="edge80_Node000006_Node000005" class="edge">
<title>Node6&#45;&gt;Node5</title>
<g id="a_edge80_Node000006_Node000005"><a xlink:title=" ">
<path fill="none" stroke="#63b8ff" d="M329.29,-248.7C331.28,-250.02 333.19,-251.45 335,-253 368.05,-281.27 337.99,-315.68 371,-344 380.4,-352.06 392.67,-356.71 404.73,-359.33"/>
<polygon fill="#63b8ff" stroke="#63b8ff" points="330.55,-245.4 320.11,-243.59 327.15,-251.51 330.55,-245.4"/>
</a>
</g>
</g>
<!-- Node7 -->
<g id="Node000007" class="node">
<title>Node7</title>
<g id="a_Node000007"><a xlink:href="classsen_1_1_object_list.html" target="_top" xlink:title=" ">
<polygon fill="white" stroke="#666666" points="524,-297 378,-297 378,-267 524,-267 524,-297"/>
<text text-anchor="start" x="386" y="-285" font-family="Helvetica,sans-Serif" font-size="10.00">sen::ObjectList&lt; TestClass</text>
<text text-anchor="middle" x="451" y="-274" font-family="Helvetica,sans-Serif" font-size="10.00">Interface &gt;</text>
</a>
</g>
</g>
<!-- Node6&#45;&gt;Node7 -->
<g id="edge76_Node000006_Node000007" class="edge">
<title>Node6&#45;&gt;Node7</title>
<g id="a_edge76_Node000006_Node000007"><a xlink:title=" ">
<path fill="none" stroke="#63b8ff" d="M303.76,-245.75C314.13,-248.11 324.91,-250.59 335,-253 353.43,-257.39 373.46,-262.38 391.57,-266.95"/>
<polygon fill="#63b8ff" stroke="#63b8ff" points="304.5,-242.33 293.97,-243.55 302.96,-249.16 304.5,-242.33"/>
</a>
</g>
</g>
<!-- Node8 -->
<g id="Node000008" class="node">
<title>Node8</title>
<g id="a_Node000008"><a xlink:href="classsen_1_1_object_list.html" target="_top" xlink:title=" ">
<polygon fill="white" stroke="#666666" points="531,-249 371,-249 371,-219 531,-219 531,-249"/>
<text text-anchor="start" x="379" y="-237" font-family="Helvetica,sans-Serif" font-size="10.00">sen::ObjectList&lt; sen</text>
<text text-anchor="middle" x="451" y="-226" font-family="Helvetica,sans-Serif" font-size="10.00">::kernel::KernelApiInterface &gt;</text>
</a>
</g>
</g>
<!-- Node6&#45;&gt;Node8 -->
<g id="edge77_Node000006_Node000008" class="edge">
<title>Node6&#45;&gt;Node8</title>
<g id="a_edge77_Node000006_Node000008"><a xlink:title=" ">
<path fill="none" stroke="#63b8ff" d="M335.33,-234C347.11,-234 359.18,-234 370.85,-234"/>
<polygon fill="#63b8ff" stroke="#63b8ff" points="335.07,-230.5 325.07,-234 335.07,-237.5 335.07,-230.5"/>
</a>
</g>
</g>
<!-- Node9 -->
<g id="Node000009" class="node">
<title>Node9</title>
<g id="a_Node000009"><a xlink:href="classsen_1_1_muxed_provider_listener.html" target="_top" xlink:title="An extended ObjectProviderListener that works together with ObjectMux and notifies when objects provi...">
<polygon fill="white" stroke="#666666" points="527,-200.5 375,-200.5 375,-181.5 527,-181.5 527,-200.5"/>
<text text-anchor="middle" x="451" y="-188.5" font-family="Helvetica,sans-Serif" font-size="10.00">sen::MuxedProviderListener</text>
</a>
</g>
</g>
<!-- Node6&#45;&gt;Node9 -->
<g id="edge78_Node000006_Node000009" class="edge">
<title>Node6&#45;&gt;Node9</title>
<g id="a_edge78_Node000006_Node000009"><a xlink:title=" ">
<path fill="none" stroke="#63b8ff" d="M304.78,-222.3C336.51,-215.46 376.04,-206.94 405.85,-200.52"/>
<polygon fill="#63b8ff" stroke="#63b8ff" points="303.81,-218.93 294.78,-224.46 305.29,-225.77 303.81,-218.93"/>
</a>
</g>
</g>
<!-- Node10 -->
<g id="Node000010" class="node">
<title>Node10</title>
<g id="a_Node000010"><a xlink:href="classsen_1_1_object_list.html" target="_top" xlink:title="A list of objects that is managed by some source based on user&#45;expressed interests.">
<polygon fill="white" stroke="#666666" points="509.5,-163.5 392.5,-163.5 392.5,-144.5 509.5,-144.5 509.5,-163.5"/>
<text text-anchor="middle" x="451" y="-151.5" font-family="Helvetica,sans-Serif" font-size="10.00">sen::ObjectList&lt; T &gt;</text>
</a>
</g>
</g>
<!-- Node6&#45;&gt;Node10 -->
<g id="edge79_Node000006_Node000010" class="edge">
<title>Node6&#45;&gt;Node10</title>
<g id="a_edge79_Node000006_Node000010"><a xlink:title=" ">
<path fill="none" stroke="#63b8ff" d="M275.06,-219.42C298.89,-205.8 336.42,-185.71 371,-173 380.93,-169.35 391.82,-166.21 402.26,-163.59"/>
<polygon fill="#63b8ff" stroke="#63b8ff" points="273.24,-216.44 266.33,-224.47 276.74,-222.49 273.24,-216.44"/>
</a>
</g>
</g>
<!-- Node11 -->
<g id="Node000011" class="node">
<title>Node11</title>
<g id="a_Node000011"><a xlink:href="classsen_1_1_object_ref.html" target="_top" xlink:title="Object references may or may not hold an object instance. Their value is set by a provider based on s...">
<polygon fill="white" stroke="#666666" points="509,-334.5 393,-334.5 393,-315.5 509,-315.5 509,-334.5"/>
<text text-anchor="middle" x="451" y="-322.5" font-family="Helvetica,sans-Serif" font-size="10.00">sen::ObjectRef&lt; T &gt;</text>
</a>
</g>
</g>
<!-- Node6&#45;&gt;Node11 -->
<g id="edge81_Node000006_Node000011" class="edge">
<title>Node6&#45;&gt;Node11</title>
<g id="a_edge81_Node000006_Node000011"><a xlink:title=" ">
<path fill="none" stroke="#63b8ff" d="M325.68,-247.58C328.92,-249.2 332.05,-250.99 335,-253 358.54,-269.02 347.58,-289.8 371,-306 377.61,-310.57 385.2,-314.05 392.99,-316.7"/>
<polygon fill="#63b8ff" stroke="#63b8ff" points="326.82,-244.27 316.25,-243.52 324.05,-250.7 326.82,-244.27"/>
</a>
</g>
</g>
<!-- Node17 -->
<g id="Node000017" class="node">
<title>Node17</title>
<g id="a_Node000017"><a xlink:href="classsen_1_1kernel_1_1_source_info.html" target="_top" xlink:title="Provides information about sources as strings.">
<polygon fill="white" stroke="#666666" points="128,-114.5 0,-114.5 0,-95.5 128,-95.5 128,-114.5"/>
<text text-anchor="middle" x="64" y="-102.5" font-family="Helvetica,sans-Serif" font-size="10.00">sen::kernel::SourceInfo</text>
</a>
</g>
</g>
<!-- Node17&#45;&gt;Node16 -->
<g id="edge82_Node000017_Node000016" class="edge">
<title>Node17&#45;&gt;Node16</title>
<g id="a_edge82_Node000017_Node000016"><a xlink:title=" ">
<path fill="none" stroke="#63b8ff" d="M131.61,-93.75C148.46,-90.9 166.52,-87.85 183.3,-85.01"/>
<polygon fill="#63b8ff" stroke="#63b8ff" points="130.58,-90.37 121.3,-95.49 131.75,-97.27 130.58,-90.37"/>
</a>
</g>
</g>
<!-- Node17&#45;&gt;Node18 -->
<g id="edge83_Node000017_Node000018" class="edge">
<title>Node17&#45;&gt;Node18</title>
<g id="a_edge83_Node000017_Node000018"><a xlink:title=" ">
<path fill="none" stroke="#63b8ff" d="M138.28,-109.79C146.68,-110.34 155.3,-110.91 163.84,-111.46"/>
<polygon fill="#63b8ff" stroke="#63b8ff" points="138.36,-106.29 128.15,-109.13 137.9,-113.27 138.36,-106.29"/>
</a>
</g>
</g>
</g>
</svg>
