<?xml version="1.0" encoding="UTF-8" standalone="no"?>
<!DOCTYPE svg PUBLIC "-//W3C//DTD SVG 1.1//EN"
 "http://www.w3.org/Graphics/SVG/1.1/DTD/svg11.dtd">
<!-- Generated by graphviz version 2.43.0 (0)
 -->
<!-- Title: Graphical Class Hierarchy Pages: 1 -->
<svg width="614pt" height="64pt"
 viewBox="0.00 0.00 614.00 64.00" xmlns="http://www.w3.org/2000/svg" xmlns:xlink="http://www.w3.org/1999/xlink">
<g id="graph0" class="graph" transform="scale(1 1) rotate(0) translate(4 60)">
<title>Graphical Class Hierarchy</title>
<!-- Node0 -->
<g id="Node000000" class="node">
<title>Node0</title>
<g id="a_Node000000"><a xlink:href="classsen_1_1util_1_1_dead_reckoner_base.html" target="_top" xlink:title="Extrapolates the Situation of an entity at a certain time. The extrapolation is smoothed by default u...">
<polygon fill="white" stroke="#666666" points="156,-37 0,-37 0,-18 156,-18 156,-37"/>
<text text-anchor="middle" x="78" y="-25" font-family="Helvetica,sans-Serif" font-size="10.00">sen::util::DeadReckonerBase</text>
</a>
</g>
</g>
<!-- Node1 -->
<g id="Node000001" class="node">
<title>Node1</title>
<g id="a_Node000001"><a xlink:href="classsen_1_1util_1_1_dead_reckoner_template_base.html" target="_top" xlink:title="Base class for the DeadReckoner and SettableDeadReckoner classes.">
<polygon fill="white" stroke="#666666" points="369,-42.5 192,-42.5 192,-12.5 369,-12.5 369,-42.5"/>
<text text-anchor="start" x="200" y="-30.5" font-family="Helvetica,sans-Serif" font-size="10.00">sen::util::DeadReckonerTemplate</text>
<text text-anchor="middle" x="280.5" y="-19.5" font-family="Helvetica,sans-Serif" font-size="10.00">Base&lt; T &gt;</text>
</a>
</g>
</g>
<!-- Node0&#45;&gt;Node1 -->
<g id="edge55_Node000000_Node000001" class="edge">
<title>Node0&#45;&gt;Node1</title>
<g id="a_edge55_Node000000_Node000001"><a xlink:title=" ">
<path fill="none" stroke="#63b8ff" d="M166.47,-27.5C174.92,-27.5 183.5,-27.5 191.95,-27.5"/>
<polygon fill="#63b8ff" stroke="#63b8ff" points="166.23,-24 156.23,-27.5 166.23,-31 166.23,-24"/>
</a>
</g>
</g>
<!-- Node2 -->
<g id="Node000002" class="node">
<title>Node2</title>
<g id="a_Node000002"><a xlink:href="classsen_1_1util_1_1_dead_reckoner.html" target="_top" xlink:title="Enables the user to predict an object’s position and movement at any future time applying dead reckon...">
<polygon fill="white" stroke="#666666" points="586,-56 425,-56 425,-37 586,-37 586,-56"/>
<text text-anchor="middle" x="505.5" y="-44" font-family="Helvetica,sans-Serif" font-size="10.00">sen::util::DeadReckoner&lt; T &gt;</text>
</a>
</g>
</g>
<!-- Node1&#45;&gt;Node2 -->
<g id="edge56_Node000001_Node000002" class="edge">
<title>Node1&#45;&gt;Node2</title>
<g id="a_edge56_Node000001_Node000002"><a xlink:title=" ">
<path fill="none" stroke="#63b8ff" d="M379.68,-35.87C394.75,-37.15 410.14,-38.46 424.74,-39.7"/>
<polygon fill="#63b8ff" stroke="#63b8ff" points="379.58,-32.34 369.32,-34.98 378.98,-39.32 379.58,-32.34"/>
</a>
</g>
</g>
<!-- Node3 -->
<g id="Node000003" class="node">
<title>Node3</title>
<g id="a_Node000003"><a xlink:href="classsen_1_1util_1_1_settable_dead_reckoner.html" target="_top" xlink:title="Allows the user to get the extrapolated situation of an object and to set the Spatial when the error ...">
<polygon fill="white" stroke="#666666" points="606,-19 405,-19 405,0 606,0 606,-19"/>
<text text-anchor="middle" x="505.5" y="-7" font-family="Helvetica,sans-Serif" font-size="10.00">sen::util::SettableDeadReckoner&lt; T &gt;</text>
</a>
</g>
</g>
<!-- Node1&#45;&gt;Node3 -->
<g id="edge57_Node000001_Node000003" class="edge">
<title>Node1&#45;&gt;Node3</title>
<g id="a_edge57_Node000001_Node000003"><a xlink:title=" ">
<path fill="none" stroke="#63b8ff" d="M379.54,-19.59C387.98,-18.91 396.52,-18.22 404.96,-17.53"/>
<polygon fill="#63b8ff" stroke="#63b8ff" points="379,-16.12 369.32,-20.41 379.56,-23.1 379,-16.12"/>
</a>
</g>
</g>
</g>
</svg>
