<?xml version="1.0" encoding="UTF-8" standalone="no"?>
<!DOCTYPE svg PUBLIC "-//W3C//DTD SVG 1.1//EN"
 "http://www.w3.org/Graphics/SVG/1.1/DTD/svg11.dtd">
<!-- Generated by graphviz version 2.43.0 (0)
 -->
<!-- Title: Graphical Class Hierarchy Pages: 1 -->
<svg width="313pt" height="86pt"
 viewBox="0.00 0.00 313.00 86.00" xmlns="http://www.w3.org/2000/svg" xmlns:xlink="http://www.w3.org/1999/xlink">
<g id="graph0" class="graph" transform="scale(1 1) rotate(0) translate(4 82)">
<title>Graphical Class Hierarchy</title>
<!-- Node0 -->
<g id="Node000000" class="node">
<title>Node0</title>
<g id="a_Node000000"><a xlink:href="classsen_1_1_input_stream_base.html" target="_top" xlink:title="Base class for input streams.">
<polygon fill="white" stroke="#666666" points="124,-48.5 0,-48.5 0,-29.5 124,-29.5 124,-48.5"/>
<text text-anchor="middle" x="62" y="-36.5" font-family="Helvetica,sans-Serif" font-size="10.00">sen::InputStreamBase</text>
</a>
</g>
</g>
<!-- Node1 -->
<g id="Node000001" class="node">
<title>Node1</title>
<g id="a_Node000001"><a xlink:href="classsen_1_1_input_stream_template.html" target="_top" xlink:title=" ">
<polygon fill="white" stroke="#666666" points="305,-78 160,-78 160,-48 305,-48 305,-78"/>
<text text-anchor="start" x="168" y="-66" font-family="Helvetica,sans-Serif" font-size="10.00">sen::InputStreamTemplate</text>
<text text-anchor="middle" x="232.5" y="-55" font-family="Helvetica,sans-Serif" font-size="10.00">&lt; LittleEndian &gt;</text>
</a>
</g>
</g>
<!-- Node0&#45;&gt;Node1 -->
<g id="edge4_Node000000_Node000001" class="edge">
<title>Node0&#45;&gt;Node1</title>
<g id="a_edge4_Node000000_Node000001"><a xlink:title=" ">
<path fill="none" stroke="#63b8ff" d="M134.48,-49.18C142.91,-50.38 151.51,-51.61 159.94,-52.81"/>
<polygon fill="#63b8ff" stroke="#63b8ff" points="134.7,-45.68 124.31,-47.73 133.72,-52.61 134.7,-45.68"/>
</a>
</g>
</g>
<!-- Node2 -->
<g id="Node000002" class="node">
<title>Node2</title>
<g id="a_Node000002"><a xlink:href="classsen_1_1_input_stream_template.html" target="_top" xlink:title="Binary input stream. Deserializes values. In general, I/O operations throw on failure.">
<polygon fill="white" stroke="#666666" points="305,-30 160,-30 160,0 305,0 305,-30"/>
<text text-anchor="start" x="168" y="-18" font-family="Helvetica,sans-Serif" font-size="10.00">sen::InputStreamTemplate</text>
<text text-anchor="middle" x="232.5" y="-7" font-family="Helvetica,sans-Serif" font-size="10.00">&lt; BufferEndian &gt;</text>
</a>
</g>
</g>
<!-- Node0&#45;&gt;Node2 -->
<g id="edge5_Node000000_Node000002" class="edge">
<title>Node0&#45;&gt;Node2</title>
<g id="a_edge5_Node000000_Node000002"><a xlink:title=" ">
<path fill="none" stroke="#63b8ff" d="M134.48,-28.82C142.91,-27.62 151.51,-26.39 159.94,-25.19"/>
<polygon fill="#63b8ff" stroke="#63b8ff" points="133.72,-25.39 124.31,-30.27 134.7,-32.32 133.72,-25.39"/>
</a>
</g>
</g>
</g>
</svg>
