<?xml version="1.0" encoding="UTF-8" standalone="no"?>
<!DOCTYPE svg PUBLIC "-//W3C//DTD SVG 1.1//EN"
 "http://www.w3.org/Graphics/SVG/1.1/DTD/svg11.dtd">
<!-- Generated by graphviz version 2.43.0 (0)
 -->
<!-- Title: Graphical Class Hierarchy Pages: 1 -->
<svg width="321pt" height="172pt"
 viewBox="0.00 0.00 321.00 172.00" xmlns="http://www.w3.org/2000/svg" xmlns:xlink="http://www.w3.org/1999/xlink">
<g id="graph0" class="graph" transform="scale(1 1) rotate(0) translate(4 168)">
<title>Graphical Class Hierarchy</title>
<!-- Node0 -->
<g id="Node000000" class="node">
<title>Node0</title>
<g id="a_Node000000"><a xlink:title=" ">
<polygon fill="#e0e0e0" stroke="#999999" points="89,-93.5 0,-93.5 0,-74.5 89,-74.5 89,-93.5"/>
<text text-anchor="middle" x="44.5" y="-81.5" font-family="Helvetica,sans-Serif" font-size="10.00">std::false_type</text>
</a>
</g>
</g>
<!-- Node1 -->
<g id="Node000001" class="node">
<title>Node1</title>
<g id="a_Node000001"><a xlink:href="structsen_1_1_has_value_type.html" target="_top" xlink:title="return false if T has not an &#39;using ValueType&#39; or a &#39;typedef ValueType&#39;">
<polygon fill="white" stroke="#666666" points="287,-164 151,-164 151,-134 287,-134 287,-164"/>
<text text-anchor="start" x="159" y="-152" font-family="Helvetica,sans-Serif" font-size="10.00">sen::HasValueType&lt;</text>
<text text-anchor="middle" x="219" y="-141" font-family="Helvetica,sans-Serif" font-size="10.00"> typename, typename &gt;</text>
</a>
</g>
</g>
<!-- Node0&#45;&gt;Node1 -->
<g id="edge83_Node000000_Node000001" class="edge">
<title>Node0&#45;&gt;Node1</title>
<g id="a_edge83_Node000000_Node000001"><a xlink:title=" ">
<path fill="none" stroke="#63b8ff" d="M70.31,-98.63C85.67,-107.21 106.01,-117.76 125,-125 133.57,-128.27 142.75,-131.24 151.88,-133.89"/>
<polygon fill="#63b8ff" stroke="#63b8ff" points="71.87,-95.49 61.45,-93.58 68.41,-101.57 71.87,-95.49"/>
</a>
</g>
</g>
<!-- Node2 -->
<g id="Node000002" class="node">
<title>Node2</title>
<g id="a_Node000002"><a xlink:href="structsen_1_1_should_be_passed_by_value.html" target="_top" xlink:title="Utility to indicate that your class wants to be passed by value in some of the library calls.">
<polygon fill="white" stroke="#666666" points="313,-115.5 125,-115.5 125,-96.5 313,-96.5 313,-115.5"/>
<text text-anchor="middle" x="219" y="-103.5" font-family="Helvetica,sans-Serif" font-size="10.00">sen::ShouldBePassedByValue&lt; T &gt;</text>
</a>
</g>
</g>
<!-- Node0&#45;&gt;Node2 -->
<g id="edge84_Node000000_Node000002" class="edge">
<title>Node0&#45;&gt;Node2</title>
<g id="a_edge84_Node000000_Node000002"><a xlink:title=" ">
<path fill="none" stroke="#63b8ff" d="M98.97,-90.82C112.99,-92.61 128.36,-94.57 143.27,-96.47"/>
<polygon fill="#63b8ff" stroke="#63b8ff" points="99.39,-87.34 89.03,-89.55 98.51,-94.29 99.39,-87.34"/>
</a>
</g>
</g>
<!-- Node3 -->
<g id="Node000003" class="node">
<title>Node3</title>
<g id="a_Node000003"><a xlink:href="structsen_1_1std__util_1_1_is_instantiation_of.html" target="_top" xlink:title=" ">
<polygon fill="white" stroke="#666666" points="295,-78 143,-78 143,-48 295,-48 295,-78"/>
<text text-anchor="start" x="151" y="-66" font-family="Helvetica,sans-Serif" font-size="10.00">sen::std_util::IsInstantiation</text>
<text text-anchor="middle" x="219" y="-55" font-family="Helvetica,sans-Serif" font-size="10.00">Of&lt; Template, T &gt;</text>
</a>
</g>
</g>
<!-- Node0&#45;&gt;Node3 -->
<g id="edge85_Node000000_Node000003" class="edge">
<title>Node0&#45;&gt;Node3</title>
<g id="a_edge85_Node000000_Node000003"><a xlink:title=" ">
<path fill="none" stroke="#63b8ff" d="M99.31,-77.45C113.13,-75.77 128.25,-73.93 142.93,-72.14"/>
<polygon fill="#63b8ff" stroke="#63b8ff" points="98.53,-74.02 89.03,-78.7 99.38,-80.97 98.53,-74.02"/>
</a>
</g>
</g>
<!-- Node4 -->
<g id="Node000004" class="node">
<title>Node4</title>
<g id="a_Node000004"><a xlink:href="structsen_1_1std__util_1_1detail_1_1_is_in_place_type.html" target="_top" xlink:title=" ">
<polygon fill="white" stroke="#666666" points="277.5,-30 160.5,-30 160.5,0 277.5,0 277.5,-30"/>
<text text-anchor="start" x="168.5" y="-18" font-family="Helvetica,sans-Serif" font-size="10.00">sen::std_util::detail</text>
<text text-anchor="middle" x="219" y="-7" font-family="Helvetica,sans-Serif" font-size="10.00">::IsInPlaceType&lt; T &gt;</text>
</a>
</g>
</g>
<!-- Node0&#45;&gt;Node4 -->
<g id="edge86_Node000000_Node000004" class="edge">
<title>Node0&#45;&gt;Node4</title>
<g id="a_edge86_Node000000_Node000004"><a xlink:title=" ">
<path fill="none" stroke="#63b8ff" d="M68.69,-68.71C84.13,-59.09 105.15,-47.02 125,-39 136.13,-34.5 148.36,-30.64 160.18,-27.41"/>
<polygon fill="#63b8ff" stroke="#63b8ff" points="66.42,-66.01 59.86,-74.33 70.18,-71.92 66.42,-66.01"/>
</a>
</g>
</g>
</g>
</svg>
