<?xml version="1.0" encoding="UTF-8" standalone="no"?>
<!DOCTYPE svg PUBLIC "-//W3C//DTD SVG 1.1//EN"
 "http://www.w3.org/Graphics/SVG/1.1/DTD/svg11.dtd">
<!-- Generated by graphviz version 2.43.0 (0)
 -->
<!-- Title: Graphical Class Hierarchy Pages: 1 -->
<svg width="333pt" height="915pt"
 viewBox="0.00 0.00 333.00 915.00" xmlns="http://www.w3.org/2000/svg" xmlns:xlink="http://www.w3.org/1999/xlink">
<g id="graph0" class="graph" transform="scale(1 1) rotate(0) translate(4 911)">
<title>Graphical Class Hierarchy</title>
<!-- Node0 -->
<g id="Node000000" class="node">
<title>Node0</title>
<g id="a_Node000000"><a xlink:title=" ">
<polygon fill="#e0e0e0" stroke="#999999" points="89,-446.5 0,-446.5 0,-427.5 89,-427.5 89,-446.5"/>
<text text-anchor="middle" x="44.5" y="-434.5" font-family="Helvetica,sans-Serif" font-size="10.00">std::false_type</text>
</a>
</g>
</g>
<!-- Node1 -->
<g id="Node000001" class="node">
<title>Node1</title>
<g id="a_Node000001"><a xlink:href="structsen_1_1_has_value_type_3_01_t_00_01std_1_1void__t_3_01typename_01_t_1_1_value_type_01_4_01_4.html" target="_top" xlink:title="return true if T has an &#39;using ValueType&#39; or a &#39;typedef ValueType&#39;">
<polygon fill="white" stroke="#666666" points="296.5,-751.5 153.5,-751.5 153.5,-710.5 296.5,-710.5 296.5,-751.5"/>
<text text-anchor="start" x="161.5" y="-739.5" font-family="Helvetica,sans-Serif" font-size="10.00">sen::HasValueType&lt;</text>
<text text-anchor="start" x="161.5" y="-728.5" font-family="Helvetica,sans-Serif" font-size="10.00"> T, std::void_t&lt; typename</text>
<text text-anchor="middle" x="225" y="-717.5" font-family="Helvetica,sans-Serif" font-size="10.00"> T::ValueType &gt; &gt;</text>
</a>
</g>
</g>
<!-- Node0&#45;&gt;Node1 -->
<g id="edge84_Node000000_Node000001" class="edge">
<title>Node0&#45;&gt;Node1</title>
<g id="a_edge84_Node000000_Node000001"><a xlink:title=" ">
<path fill="none" stroke="#63b8ff" d="M58.13,-455.34C67.95,-470.45 81.19,-492.76 89,-514 118.2,-593.44 68.35,-638.12 125,-701 132.69,-709.54 142.73,-715.68 153.45,-720.1"/>
<polygon fill="#63b8ff" stroke="#63b8ff" points="60.99,-453.32 52.53,-446.94 55.16,-457.21 60.99,-453.32"/>
</a>
</g>
</g>
<!-- Node3 -->
<g id="Node000003" class="node">
<title>Node3</title>
<g id="a_Node000003"><a xlink:href="structsen_1_1_should_be_passed_by_value_3_01_conn_id_01_4.html" target="_top" xlink:title=" ">
<polygon fill="white" stroke="#666666" points="304.5,-692 145.5,-692 145.5,-662 304.5,-662 304.5,-692"/>
<text text-anchor="start" x="153.5" y="-680" font-family="Helvetica,sans-Serif" font-size="10.00">sen::ShouldBePassedByValue</text>
<text text-anchor="middle" x="225" y="-669" font-family="Helvetica,sans-Serif" font-size="10.00">&lt; ConnId &gt;</text>
</a>
</g>
</g>
<!-- Node0&#45;&gt;Node3 -->
<g id="edge85_Node000000_Node000003" class="edge">
<title>Node0&#45;&gt;Node3</title>
<g id="a_edge85_Node000000_Node000003"><a xlink:title=" ">
<path fill="none" stroke="#63b8ff" d="M57.44,-454.97C67.09,-470.16 80.43,-492.78 89,-514 112.9,-573.17 79.52,-608.23 125,-653 130.8,-658.71 137.71,-663.14 145.14,-666.57"/>
<polygon fill="#63b8ff" stroke="#63b8ff" points="60.36,-453.04 51.99,-446.55 54.49,-456.85 60.36,-453.04"/>
</a>
</g>
</g>
<!-- Node4 -->
<g id="Node000004" class="node">
<title>Node4</title>
<g id="a_Node000004"><a xlink:href="structsen_1_1_should_be_passed_by_value_3_01_duration_01_4.html" target="_top" xlink:title=" ">
<polygon fill="white" stroke="#666666" points="304.5,-644 145.5,-644 145.5,-614 304.5,-614 304.5,-644"/>
<text text-anchor="start" x="153.5" y="-632" font-family="Helvetica,sans-Serif" font-size="10.00">sen::ShouldBePassedByValue</text>
<text text-anchor="middle" x="225" y="-621" font-family="Helvetica,sans-Serif" font-size="10.00">&lt; Duration &gt;</text>
</a>
</g>
</g>
<!-- Node0&#45;&gt;Node4 -->
<g id="edge86_Node000000_Node000004" class="edge">
<title>Node0&#45;&gt;Node4</title>
<g id="a_edge86_Node000000_Node000004"><a xlink:title=" ">
<path fill="none" stroke="#63b8ff" d="M57.03,-455.71C66.26,-471.07 79.23,-493.54 89,-514 107.74,-553.25 92.19,-576.45 125,-605 131,-610.22 137.96,-614.35 145.34,-617.61"/>
<polygon fill="#63b8ff" stroke="#63b8ff" points="59.76,-453.46 51.58,-446.74 53.78,-457.1 59.76,-453.46"/>
</a>
</g>
</g>
<!-- Node5 -->
<g id="Node000005" class="node">
<title>Node5</title>
<g id="a_Node000005"><a xlink:href="structsen_1_1_should_be_passed_by_value_3_01_interest_id_01_4.html" target="_top" xlink:title="Unique identifier that represents the interest.">
<polygon fill="white" stroke="#666666" points="304.5,-596 145.5,-596 145.5,-566 304.5,-566 304.5,-596"/>
<text text-anchor="start" x="153.5" y="-584" font-family="Helvetica,sans-Serif" font-size="10.00">sen::ShouldBePassedByValue</text>
<text text-anchor="middle" x="225" y="-573" font-family="Helvetica,sans-Serif" font-size="10.00">&lt; InterestId &gt;</text>
</a>
</g>
</g>
<!-- Node0&#45;&gt;Node5 -->
<g id="edge87_Node000000_Node000005" class="edge">
<title>Node0&#45;&gt;Node5</title>
<g id="a_edge87_Node000000_Node000005"><a xlink:title=" ">
<path fill="none" stroke="#63b8ff" d="M55.82,-456.03C72.64,-486.37 105.98,-543.65 125,-557 131.23,-561.37 138.15,-564.94 145.37,-567.87"/>
<polygon fill="#63b8ff" stroke="#63b8ff" points="58.68,-453.96 50.8,-446.87 52.54,-457.32 58.68,-453.96"/>
</a>
</g>
</g>
<!-- Node6 -->
<g id="Node000006" class="node">
<title>Node6</title>
<g id="a_Node000006"><a xlink:href="structsen_1_1_should_be_passed_by_value_3_01_member_hash_01_4.html" target="_top" xlink:title=" ">
<polygon fill="white" stroke="#666666" points="304.5,-548 145.5,-548 145.5,-518 304.5,-518 304.5,-548"/>
<text text-anchor="start" x="153.5" y="-536" font-family="Helvetica,sans-Serif" font-size="10.00">sen::ShouldBePassedByValue</text>
<text text-anchor="middle" x="225" y="-525" font-family="Helvetica,sans-Serif" font-size="10.00">&lt; MemberHash &gt;</text>
</a>
</g>
</g>
<!-- Node0&#45;&gt;Node6 -->
<g id="edge88_Node000000_Node000006" class="edge">
<title>Node0&#45;&gt;Node6</title>
<g id="a_edge88_Node000000_Node000006"><a xlink:title=" ">
<path fill="none" stroke="#63b8ff" d="M59.99,-454.4C74.69,-470.91 98.93,-495.2 125,-509 131.49,-512.43 138.47,-515.39 145.62,-517.92"/>
<polygon fill="#63b8ff" stroke="#63b8ff" points="62.41,-451.84 53.22,-446.57 57.11,-456.42 62.41,-451.84"/>
</a>
</g>
</g>
<!-- Node7 -->
<g id="Node000007" class="node">
<title>Node7</title>
<g id="a_Node000007"><a xlink:href="structsen_1_1_should_be_passed_by_value_3_01_object_id_01_4.html" target="_top" xlink:title="Unique identifier for any object instance.">
<polygon fill="white" stroke="#666666" points="304.5,-500 145.5,-500 145.5,-470 304.5,-470 304.5,-500"/>
<text text-anchor="start" x="153.5" y="-488" font-family="Helvetica,sans-Serif" font-size="10.00">sen::ShouldBePassedByValue</text>
<text text-anchor="middle" x="225" y="-477" font-family="Helvetica,sans-Serif" font-size="10.00">&lt; ObjectId &gt;</text>
</a>
</g>
</g>
<!-- Node0&#45;&gt;Node7 -->
<g id="edge89_Node000000_Node000007" class="edge">
<title>Node0&#45;&gt;Node7</title>
<g id="a_edge89_Node000000_Node000007"><a xlink:title=" ">
<path fill="none" stroke="#63b8ff" d="M85.37,-449.51C98,-453.34 112.05,-457.48 125,-461 136.18,-464.04 148.12,-467.09 159.7,-469.96"/>
<polygon fill="#63b8ff" stroke="#63b8ff" points="86.17,-446.09 75.59,-446.51 84.12,-452.79 86.17,-446.09"/>
</a>
</g>
</g>
<!-- Node8 -->
<g id="Node000008" class="node">
<title>Node8</title>
<g id="a_Node000008"><a xlink:href="structsen_1_1_should_be_passed_by_value_3_01_object_owner_id_01_4.html" target="_top" xlink:title="Identifies the owner of an object.">
<polygon fill="white" stroke="#666666" points="304.5,-452 145.5,-452 145.5,-422 304.5,-422 304.5,-452"/>
<text text-anchor="start" x="153.5" y="-440" font-family="Helvetica,sans-Serif" font-size="10.00">sen::ShouldBePassedByValue</text>
<text text-anchor="middle" x="225" y="-429" font-family="Helvetica,sans-Serif" font-size="10.00">&lt; ObjectOwnerId &gt;</text>
</a>
</g>
</g>
<!-- Node0&#45;&gt;Node8 -->
<g id="edge90_Node000000_Node000008" class="edge">
<title>Node0&#45;&gt;Node8</title>
<g id="a_edge90_Node000000_Node000008"><a xlink:title=" ">
<path fill="none" stroke="#63b8ff" d="M99.4,-437C113.85,-437 129.77,-437 145.26,-437"/>
<polygon fill="#63b8ff" stroke="#63b8ff" points="99.17,-433.5 89.17,-437 99.17,-440.5 99.17,-433.5"/>
</a>
</g>
</g>
<!-- Node9 -->
<g id="Node000009" class="node">
<title>Node9</title>
<g id="a_Node000009"><a xlink:href="structsen_1_1_should_be_passed_by_value_3_01_quantity_3_01_t_00_01_d_01_4_01_4.html" target="_top" xlink:title=" ">
<polygon fill="white" stroke="#666666" points="304.5,-404 145.5,-404 145.5,-374 304.5,-374 304.5,-404"/>
<text text-anchor="start" x="153.5" y="-392" font-family="Helvetica,sans-Serif" font-size="10.00">sen::ShouldBePassedByValue</text>
<text text-anchor="middle" x="225" y="-381" font-family="Helvetica,sans-Serif" font-size="10.00">&lt; Quantity&lt; T, D &gt; &gt;</text>
</a>
</g>
</g>
<!-- Node0&#45;&gt;Node9 -->
<g id="edge91_Node000000_Node000009" class="edge">
<title>Node0&#45;&gt;Node9</title>
<g id="a_edge91_Node000000_Node000009"><a xlink:title=" ">
<path fill="none" stroke="#63b8ff" d="M85.37,-424.49C98,-420.66 112.05,-416.52 125,-413 136.18,-409.96 148.12,-406.91 159.7,-404.04"/>
<polygon fill="#63b8ff" stroke="#63b8ff" points="84.12,-421.21 75.59,-427.49 86.17,-427.91 84.12,-421.21"/>
</a>
</g>
</g>
<!-- Node10 -->
<g id="Node000010" class="node">
<title>Node10</title>
<g id="a_Node000010"><a xlink:href="structsen_1_1_should_be_passed_by_value_3_01_strong_type_3_01_t_00_01_d_01_4_01_4.html" target="_top" xlink:title=" ">
<polygon fill="white" stroke="#666666" points="304.5,-356 145.5,-356 145.5,-326 304.5,-326 304.5,-356"/>
<text text-anchor="start" x="153.5" y="-344" font-family="Helvetica,sans-Serif" font-size="10.00">sen::ShouldBePassedByValue</text>
<text text-anchor="middle" x="225" y="-333" font-family="Helvetica,sans-Serif" font-size="10.00">&lt; StrongType&lt; T, D &gt; &gt;</text>
</a>
</g>
</g>
<!-- Node0&#45;&gt;Node10 -->
<g id="edge92_Node000000_Node000010" class="edge">
<title>Node0&#45;&gt;Node10</title>
<g id="a_edge92_Node000000_Node000010"><a xlink:title=" ">
<path fill="none" stroke="#63b8ff" d="M59.99,-419.6C74.69,-403.09 98.93,-378.8 125,-365 131.49,-361.57 138.47,-358.61 145.62,-356.08"/>
<polygon fill="#63b8ff" stroke="#63b8ff" points="57.11,-417.58 53.22,-427.43 62.41,-422.16 57.11,-417.58"/>
</a>
</g>
</g>
<!-- Node11 -->
<g id="Node000011" class="node">
<title>Node11</title>
<g id="a_Node000011"><a xlink:href="structsen_1_1_should_be_passed_by_value_3_01_strong_type_base_3_01_t_01_4_01_4.html" target="_top" xlink:title=" ">
<polygon fill="white" stroke="#666666" points="304.5,-308 145.5,-308 145.5,-278 304.5,-278 304.5,-308"/>
<text text-anchor="start" x="153.5" y="-296" font-family="Helvetica,sans-Serif" font-size="10.00">sen::ShouldBePassedByValue</text>
<text text-anchor="middle" x="225" y="-285" font-family="Helvetica,sans-Serif" font-size="10.00">&lt; StrongTypeBase&lt; T &gt; &gt;</text>
</a>
</g>
</g>
<!-- Node0&#45;&gt;Node11 -->
<g id="edge93_Node000000_Node000011" class="edge">
<title>Node0&#45;&gt;Node11</title>
<g id="a_edge93_Node000000_Node000011"><a xlink:title=" ">
<path fill="none" stroke="#63b8ff" d="M52.77,-418.03C64.05,-391.24 88.34,-342.72 125,-317 131.23,-312.63 138.15,-309.06 145.37,-306.13"/>
<polygon fill="#63b8ff" stroke="#63b8ff" points="49.47,-416.86 48.97,-427.45 55.96,-419.48 49.47,-416.86"/>
</a>
</g>
</g>
<!-- Node12 -->
<g id="Node000012" class="node">
<title>Node12</title>
<g id="a_Node000012"><a xlink:href="structsen_1_1_should_be_passed_by_value_3_01_time_stamp_01_4.html" target="_top" xlink:title=" ">
<polygon fill="white" stroke="#666666" points="304.5,-260 145.5,-260 145.5,-230 304.5,-230 304.5,-260"/>
<text text-anchor="start" x="153.5" y="-248" font-family="Helvetica,sans-Serif" font-size="10.00">sen::ShouldBePassedByValue</text>
<text text-anchor="middle" x="225" y="-237" font-family="Helvetica,sans-Serif" font-size="10.00">&lt; TimeStamp &gt;</text>
</a>
</g>
</g>
<!-- Node0&#45;&gt;Node12 -->
<g id="edge94_Node000000_Node000012" class="edge">
<title>Node0&#45;&gt;Node12</title>
<g id="a_edge94_Node000000_Node000012"><a xlink:title=" ">
<path fill="none" stroke="#63b8ff" d="M49.1,-417.2C56.61,-381.81 77.36,-307.79 125,-269 131.03,-264.09 137.92,-260.15 145.18,-257.01"/>
<polygon fill="#63b8ff" stroke="#63b8ff" points="45.62,-416.75 47.11,-427.24 52.49,-418.11 45.62,-416.75"/>
</a>
</g>
</g>
<!-- Node13 -->
<g id="Node000013" class="node">
<title>Node13</title>
<g id="a_Node000013"><a xlink:href="structsen_1_1_should_be_passed_by_value_3_01kernel_1_1_bus_id_01_4.html" target="_top" xlink:title=" ">
<polygon fill="white" stroke="#666666" points="304.5,-212 145.5,-212 145.5,-182 304.5,-182 304.5,-212"/>
<text text-anchor="start" x="153.5" y="-200" font-family="Helvetica,sans-Serif" font-size="10.00">sen::ShouldBePassedByValue</text>
<text text-anchor="middle" x="225" y="-189" font-family="Helvetica,sans-Serif" font-size="10.00">&lt; kernel::BusId &gt;</text>
</a>
</g>
</g>
<!-- Node0&#45;&gt;Node13 -->
<g id="edge95_Node000000_Node000013" class="edge">
<title>Node0&#45;&gt;Node13</title>
<g id="a_edge95_Node000000_Node000013"><a xlink:title=" ">
<path fill="none" stroke="#63b8ff" d="M46.78,-417.05C50.64,-374.35 65.85,-273.72 125,-221 130.94,-215.7 137.85,-211.53 145.21,-208.24"/>
<polygon fill="#63b8ff" stroke="#63b8ff" points="43.29,-416.79 46,-427.03 50.27,-417.34 43.29,-416.79"/>
</a>
</g>
</g>
<!-- Node14 -->
<g id="Node000014" class="node">
<title>Node14</title>
<g id="a_Node000014"><a xlink:href="structsen_1_1_should_be_passed_by_value_3_01kernel_1_1_process_id_01_4.html" target="_top" xlink:title=" ">
<polygon fill="white" stroke="#666666" points="304.5,-907 145.5,-907 145.5,-877 304.5,-877 304.5,-907"/>
<text text-anchor="start" x="153.5" y="-895" font-family="Helvetica,sans-Serif" font-size="10.00">sen::ShouldBePassedByValue</text>
<text text-anchor="middle" x="225" y="-884" font-family="Helvetica,sans-Serif" font-size="10.00">&lt; kernel::ProcessId &gt;</text>
</a>
</g>
</g>
<!-- Node0&#45;&gt;Node14 -->
<g id="edge96_Node000000_Node000014" class="edge">
<title>Node0&#45;&gt;Node14</title>
<g id="a_edge96_Node000000_Node000014"><a xlink:title=" ">
<path fill="none" stroke="#63b8ff" d="M58.64,-455.17C68.76,-470.17 82.14,-492.43 89,-514 112.96,-589.36 73.03,-808.4 125,-868 130.58,-874.4 137.55,-879.24 145.19,-882.89"/>
<polygon fill="#63b8ff" stroke="#63b8ff" points="61.43,-453.05 52.85,-446.84 55.68,-457.04 61.43,-453.05"/>
</a>
</g>
</g>
<!-- Node15 -->
<g id="Node000015" class="node">
<title>Node15</title>
<g id="a_Node000015"><a xlink:href="structsen_1_1std__util_1_1_is_instantiation_of_3_01_template_00_01_template_3_01_args_8_8_8_01_4_01_4.html" target="_top" xlink:title=" ">
<polygon fill="white" stroke="#666666" points="325,-859 125,-859 125,-829 325,-829 325,-859"/>
<text text-anchor="start" x="133" y="-847" font-family="Helvetica,sans-Serif" font-size="10.00">sen::std_util::IsInstantiation</text>
<text text-anchor="middle" x="225" y="-836" font-family="Helvetica,sans-Serif" font-size="10.00">Of&lt; Template, Template&lt; Args... &gt; &gt;</text>
</a>
</g>
</g>
<!-- Node0&#45;&gt;Node15 -->
<g id="edge97_Node000000_Node000015" class="edge">
<title>Node0&#45;&gt;Node15</title>
<g id="a_edge97_Node000000_Node000015"><a xlink:title=" ">
<path fill="none" stroke="#63b8ff" d="M58.55,-455.2C68.62,-470.22 81.97,-492.49 89,-514 110.26,-579.09 79.59,-768.75 125,-820 127.93,-823.31 131.24,-826.2 134.81,-828.73"/>
<polygon fill="#63b8ff" stroke="#63b8ff" points="61.35,-453.1 52.79,-446.85 55.59,-457.07 61.35,-453.1"/>
</a>
</g>
</g>
<!-- Node16 -->
<g id="Node000016" class="node">
<title>Node16</title>
<g id="a_Node000016"><a xlink:href="structsen_1_1std__util_1_1detail_1_1_is_in_place_type_3_01std_1_1in__place__type__t_3_01_t_01_4_01_4.html" target="_top" xlink:title=" ">
<polygon fill="white" stroke="#666666" points="294.5,-810.5 155.5,-810.5 155.5,-769.5 294.5,-769.5 294.5,-810.5"/>
<text text-anchor="start" x="163.5" y="-798.5" font-family="Helvetica,sans-Serif" font-size="10.00">sen::std_util::detail</text>
<text text-anchor="start" x="163.5" y="-787.5" font-family="Helvetica,sans-Serif" font-size="10.00">::IsInPlaceType&lt; std</text>
<text text-anchor="middle" x="225" y="-776.5" font-family="Helvetica,sans-Serif" font-size="10.00">::in_place_type_t&lt; T &gt; &gt;</text>
</a>
</g>
</g>
<!-- Node0&#45;&gt;Node16 -->
<g id="edge98_Node000000_Node000016" class="edge">
<title>Node0&#45;&gt;Node16</title>
<g id="a_edge98_Node000000_Node000016"><a xlink:title=" ">
<path fill="none" stroke="#63b8ff" d="M58.39,-455.25C68.36,-470.3 81.68,-492.58 89,-514 124.89,-618.97 52.24,-677.25 125,-761 133.05,-770.26 143.87,-776.64 155.42,-781.02"/>
<polygon fill="#63b8ff" stroke="#63b8ff" points="61.21,-453.18 52.69,-446.89 55.43,-457.12 61.21,-453.18"/>
</a>
</g>
</g>
<!-- Node17 -->
<g id="Node000017" class="node">
<title>Node17</title>
<g id="a_Node000017"><a xlink:href="structsen_1_1_has_value_type.html" target="_top" xlink:title="return false if T has not an &#39;using ValueType&#39; or a &#39;typedef ValueType&#39;">
<polygon fill="white" stroke="#666666" points="293,-116 157,-116 157,-86 293,-86 293,-116"/>
<text text-anchor="start" x="165" y="-104" font-family="Helvetica,sans-Serif" font-size="10.00">sen::HasValueType&lt;</text>
<text text-anchor="middle" x="225" y="-93" font-family="Helvetica,sans-Serif" font-size="10.00"> typename, typename &gt;</text>
</a>
</g>
</g>
<!-- Node0&#45;&gt;Node17 -->
<g id="edge99_Node000000_Node000017" class="edge">
<title>Node0&#45;&gt;Node17</title>
<g id="a_edge99_Node000000_Node000017"><a xlink:title=" ">
<path fill="none" stroke="#63b8ff" d="M47.87,-417.29C55.68,-355.45 82.62,-166.89 125,-125 133.74,-116.36 145.03,-110.64 156.85,-106.9"/>
<polygon fill="#63b8ff" stroke="#63b8ff" points="44.38,-416.94 46.63,-427.3 51.33,-417.8 44.38,-416.94"/>
</a>
</g>
</g>
<!-- Node18 -->
<g id="Node000018" class="node">
<title>Node18</title>
<g id="a_Node000018"><a xlink:href="structsen_1_1_should_be_passed_by_value.html" target="_top" xlink:title="Utility to indicate that your class wants to be passed by value in some of the library calls.">
<polygon fill="white" stroke="#666666" points="319,-67.5 131,-67.5 131,-48.5 319,-48.5 319,-67.5"/>
<text text-anchor="middle" x="225" y="-55.5" font-family="Helvetica,sans-Serif" font-size="10.00">sen::ShouldBePassedByValue&lt; T &gt;</text>
</a>
</g>
</g>
<!-- Node0&#45;&gt;Node18 -->
<g id="edge100_Node000000_Node000018" class="edge">
<title>Node0&#45;&gt;Node18</title>
<g id="a_edge100_Node000000_Node000018"><a xlink:title=" ">
<path fill="none" stroke="#63b8ff" d="M47.09,-416.91C52.92,-348.36 75.45,-125.2 125,-77 128.76,-73.34 133,-70.28 137.56,-67.72"/>
<polygon fill="#63b8ff" stroke="#63b8ff" points="43.57,-416.94 46.24,-427.19 50.55,-417.52 43.57,-416.94"/>
</a>
</g>
</g>
<!-- Node19 -->
<g id="Node000019" class="node">
<title>Node19</title>
<g id="a_Node000019"><a xlink:href="structsen_1_1std__util_1_1_is_instantiation_of.html" target="_top" xlink:title=" ">
<polygon fill="white" stroke="#666666" points="301,-30 149,-30 149,0 301,0 301,-30"/>
<text text-anchor="start" x="157" y="-18" font-family="Helvetica,sans-Serif" font-size="10.00">sen::std_util::IsInstantiation</text>
<text text-anchor="middle" x="225" y="-7" font-family="Helvetica,sans-Serif" font-size="10.00">Of&lt; Template, T &gt;</text>
</a>
</g>
</g>
<!-- Node0&#45;&gt;Node19 -->
<g id="edge101_Node000000_Node000019" class="edge">
<title>Node0&#45;&gt;Node19</title>
<g id="a_edge101_Node000000_Node000019"><a xlink:title=" ">
<path fill="none" stroke="#63b8ff" d="M46.7,-417.28C51.5,-344.79 71.73,-94.48 125,-39 131.61,-32.11 139.84,-27.06 148.71,-23.38"/>
<polygon fill="#63b8ff" stroke="#63b8ff" points="43.2,-417.12 46.06,-427.33 50.19,-417.57 43.2,-417.12"/>
</a>
</g>
</g>
<!-- Node20 -->
<g id="Node000020" class="node">
<title>Node20</title>
<g id="a_Node000020"><a xlink:href="structsen_1_1std__util_1_1detail_1_1_is_in_place_type.html" target="_top" xlink:title=" ">
<polygon fill="white" stroke="#666666" points="283.5,-164 166.5,-164 166.5,-134 283.5,-134 283.5,-164"/>
<text text-anchor="start" x="174.5" y="-152" font-family="Helvetica,sans-Serif" font-size="10.00">sen::std_util::detail</text>
<text text-anchor="middle" x="225" y="-141" font-family="Helvetica,sans-Serif" font-size="10.00">::IsInPlaceType&lt; T &gt;</text>
</a>
</g>
</g>
<!-- Node0&#45;&gt;Node20 -->
<g id="edge102_Node000000_Node000020" class="edge">
<title>Node0&#45;&gt;Node20</title>
<g id="a_edge102_Node000000_Node000020"><a xlink:title=" ">
<path fill="none" stroke="#63b8ff" d="M45.23,-417.15C45.7,-368.08 54.04,-240.18 125,-173 136.24,-162.36 151.36,-156.19 166.4,-152.68"/>
<polygon fill="#63b8ff" stroke="#63b8ff" points="41.73,-417.37 45.24,-427.36 48.73,-417.36 41.73,-417.37"/>
</a>
</g>
</g>
<!-- Node2 -->
<g id="Node000002" class="node">
<title>Node2</title>
<g id="a_Node000002"><a xlink:title=" ">
<polygon fill="#e0e0e0" stroke="#999999" points="86.5,-542.5 2.5,-542.5 2.5,-523.5 86.5,-523.5 86.5,-542.5"/>
<text text-anchor="middle" x="44.5" y="-530.5" font-family="Helvetica,sans-Serif" font-size="10.00">std::true_type</text>
</a>
</g>
</g>
<!-- Node2&#45;&gt;Node1 -->
<g id="edge103_Node000002_Node000001" class="edge">
<title>Node2&#45;&gt;Node1</title>
<g id="a_edge103_Node000002_Node000001"><a xlink:title=" ">
<path fill="none" stroke="#63b8ff" d="M49.32,-552.54C57.18,-587.51 78.47,-660.88 125,-701 133.23,-708.09 143.1,-713.51 153.37,-717.65"/>
<polygon fill="#63b8ff" stroke="#63b8ff" points="52.72,-551.69 47.23,-542.63 45.87,-553.13 52.72,-551.69"/>
</a>
</g>
</g>
<!-- Node2&#45;&gt;Node3 -->
<g id="edge104_Node000002_Node000003" class="edge">
<title>Node2&#45;&gt;Node3</title>
<g id="a_edge104_Node000002_Node000003"><a xlink:title=" ">
<path fill="none" stroke="#63b8ff" d="M52.77,-551.97C64.05,-578.76 88.34,-627.28 125,-653 131.23,-657.37 138.15,-660.94 145.37,-663.87"/>
<polygon fill="#63b8ff" stroke="#63b8ff" points="55.96,-550.52 48.97,-542.55 49.47,-553.14 55.96,-550.52"/>
</a>
</g>
</g>
<!-- Node2&#45;&gt;Node4 -->
<g id="edge105_Node000002_Node000004" class="edge">
<title>Node2&#45;&gt;Node4</title>
<g id="a_edge105_Node000002_Node000004"><a xlink:title=" ">
<path fill="none" stroke="#63b8ff" d="M59.99,-550.4C74.69,-566.91 98.93,-591.2 125,-605 131.49,-608.43 138.47,-611.39 145.62,-613.92"/>
<polygon fill="#63b8ff" stroke="#63b8ff" points="62.41,-547.84 53.22,-542.57 57.11,-552.42 62.41,-547.84"/>
</a>
</g>
</g>
<!-- Node2&#45;&gt;Node5 -->
<g id="edge106_Node000002_Node000005" class="edge">
<title>Node2&#45;&gt;Node5</title>
<g id="a_edge106_Node000002_Node000005"><a xlink:title=" ">
<path fill="none" stroke="#63b8ff" d="M85.37,-545.51C98,-549.34 112.05,-553.48 125,-557 136.18,-560.04 148.12,-563.09 159.7,-565.96"/>
<polygon fill="#63b8ff" stroke="#63b8ff" points="86.17,-542.09 75.59,-542.51 84.12,-548.79 86.17,-542.09"/>
</a>
</g>
</g>
<!-- Node2&#45;&gt;Node6 -->
<g id="edge107_Node000002_Node000006" class="edge">
<title>Node2&#45;&gt;Node6</title>
<g id="a_edge107_Node000002_Node000006"><a xlink:title=" ">
<path fill="none" stroke="#63b8ff" d="M97.03,-533C112.1,-533 128.93,-533 145.29,-533"/>
<polygon fill="#63b8ff" stroke="#63b8ff" points="96.9,-529.5 86.9,-533 96.9,-536.5 96.9,-529.5"/>
</a>
</g>
</g>
<!-- Node2&#45;&gt;Node7 -->
<g id="edge108_Node000002_Node000007" class="edge">
<title>Node2&#45;&gt;Node7</title>
<g id="a_edge108_Node000002_Node000007"><a xlink:title=" ">
<path fill="none" stroke="#63b8ff" d="M85.37,-520.49C98,-516.66 112.05,-512.52 125,-509 136.18,-505.96 148.12,-502.91 159.7,-500.04"/>
<polygon fill="#63b8ff" stroke="#63b8ff" points="84.12,-517.21 75.59,-523.49 86.17,-523.91 84.12,-517.21"/>
</a>
</g>
</g>
<!-- Node2&#45;&gt;Node8 -->
<g id="edge109_Node000002_Node000008" class="edge">
<title>Node2&#45;&gt;Node8</title>
<g id="a_edge109_Node000002_Node000008"><a xlink:title=" ">
<path fill="none" stroke="#63b8ff" d="M59.99,-515.6C74.69,-499.09 98.93,-474.8 125,-461 131.49,-457.57 138.47,-454.61 145.62,-452.08"/>
<polygon fill="#63b8ff" stroke="#63b8ff" points="57.11,-513.58 53.22,-523.43 62.41,-518.16 57.11,-513.58"/>
</a>
</g>
</g>
<!-- Node2&#45;&gt;Node9 -->
<g id="edge110_Node000002_Node000009" class="edge">
<title>Node2&#45;&gt;Node9</title>
<g id="a_edge110_Node000002_Node000009"><a xlink:title=" ">
<path fill="none" stroke="#63b8ff" d="M55.82,-513.97C72.64,-483.63 105.98,-426.35 125,-413 131.23,-408.63 138.15,-405.06 145.37,-402.13"/>
<polygon fill="#63b8ff" stroke="#63b8ff" points="52.54,-512.68 50.8,-523.13 58.68,-516.04 52.54,-512.68"/>
</a>
</g>
</g>
<!-- Node2&#45;&gt;Node10 -->
<g id="edge111_Node000002_Node000010" class="edge">
<title>Node2&#45;&gt;Node10</title>
<g id="a_edge111_Node000002_Node000010"><a xlink:title=" ">
<path fill="none" stroke="#63b8ff" d="M56.73,-514.46C65.95,-498.88 79.06,-475.87 89,-455 107.53,-416.11 92.44,-393.21 125,-365 131.01,-359.79 137.97,-355.67 145.36,-352.41"/>
<polygon fill="#63b8ff" stroke="#63b8ff" points="53.68,-512.74 51.55,-523.12 59.69,-516.33 53.68,-512.74"/>
</a>
</g>
</g>
<!-- Node2&#45;&gt;Node11 -->
<g id="edge112_Node000002_Node000011" class="edge">
<title>Node2&#45;&gt;Node11</title>
<g id="a_edge112_Node000002_Node000011"><a xlink:title=" ">
<path fill="none" stroke="#63b8ff" d="M57.42,-514.77C67.05,-499.36 80.39,-476.45 89,-455 112.63,-396.18 79.79,-361.43 125,-317 130.8,-311.3 137.72,-306.87 145.15,-303.44"/>
<polygon fill="#63b8ff" stroke="#63b8ff" points="54.4,-512.99 51.97,-523.31 60.3,-516.76 54.4,-512.99"/>
</a>
</g>
</g>
<!-- Node2&#45;&gt;Node12 -->
<g id="edge113_Node000002_Node000012" class="edge">
<title>Node2&#45;&gt;Node12</title>
<g id="a_edge113_Node000002_Node000012"><a xlink:title=" ">
<path fill="none" stroke="#63b8ff" d="M57.78,-514.9C67.63,-499.58 81.08,-476.71 89,-455 117.87,-375.9 66.87,-329.91 125,-269 130.74,-262.99 137.71,-258.37 145.26,-254.85"/>
<polygon fill="#63b8ff" stroke="#63b8ff" points="54.77,-513.11 52.2,-523.39 60.62,-516.96 54.77,-513.11"/>
</a>
</g>
</g>
<!-- Node2&#45;&gt;Node13 -->
<g id="edge114_Node000002_Node000013" class="edge">
<title>Node2&#45;&gt;Node13</title>
<g id="a_edge114_Node000002_Node000013"><a xlink:title=" ">
<path fill="none" stroke="#63b8ff" d="M58,-514.98C67.98,-499.71 81.5,-476.86 89,-455 123.17,-355.48 53.83,-298.5 125,-221 130.62,-214.88 137.52,-210.19 145.03,-206.63"/>
<polygon fill="#63b8ff" stroke="#63b8ff" points="54.99,-513.18 52.33,-523.44 60.81,-517.08 54.99,-513.18"/>
</a>
</g>
</g>
<!-- Node2&#45;&gt;Node14 -->
<g id="edge115_Node000002_Node000014" class="edge">
<title>Node2&#45;&gt;Node14</title>
<g id="a_edge115_Node000002_Node000014"><a xlink:title=" ">
<path fill="none" stroke="#63b8ff" d="M47.51,-552.87C54.5,-617.86 79.75,-822.53 125,-868 130.74,-873.77 137.61,-878.24 145.03,-881.69"/>
<polygon fill="#63b8ff" stroke="#63b8ff" points="50.98,-552.32 46.45,-542.74 44.01,-553.05 50.98,-552.32"/>
</a>
</g>
</g>
<!-- Node2&#45;&gt;Node15 -->
<g id="edge116_Node000002_Node000015" class="edge">
<title>Node2&#45;&gt;Node15</title>
<g id="a_edge116_Node000002_Node000015"><a xlink:title=" ">
<path fill="none" stroke="#63b8ff" d="M44.66,-552.79C43.61,-604.69 48.33,-745.78 125,-820 128.56,-823.44 132.52,-826.42 136.76,-828.99"/>
<polygon fill="#63b8ff" stroke="#63b8ff" points="48.17,-552.72 44.97,-542.62 41.17,-552.51 48.17,-552.72"/>
</a>
</g>
</g>
<!-- Node2&#45;&gt;Node16 -->
<g id="edge117_Node000002_Node000016" class="edge">
<title>Node2&#45;&gt;Node16</title>
<g id="a_edge117_Node000002_Node000016"><a xlink:title=" ">
<path fill="none" stroke="#63b8ff" d="M46.54,-552.91C49.95,-596.97 64.35,-703.34 125,-761 133.5,-769.08 144.13,-774.93 155.25,-779.15"/>
<polygon fill="#63b8ff" stroke="#63b8ff" points="50.03,-552.65 45.88,-542.9 43.05,-553.11 50.03,-552.65"/>
</a>
</g>
</g>
</g>
</svg>
