<?xml version="1.0" encoding="UTF-8" standalone="no"?>
<!DOCTYPE svg PUBLIC "-//W3C//DTD SVG 1.1//EN"
 "http://www.w3.org/Graphics/SVG/1.1/DTD/svg11.dtd">
<!-- Generated by graphviz version 2.43.0 (0)
 -->
<!-- Title: Graphical Class Hierarchy Pages: 1 -->
<svg width="260pt" height="113pt"
 viewBox="0.00 0.00 260.00 113.00" xmlns="http://www.w3.org/2000/svg" xmlns:xlink="http://www.w3.org/1999/xlink">
<g id="graph0" class="graph" transform="scale(1 1) rotate(0) translate(4 109)">
<title>Graphical Class Hierarchy</title>
<!-- Node0 -->
<g id="Node000000" class="node">
<title>Node0</title>
<g id="a_Node000000"><a xlink:href="classsen_1_1_writer.html" target="_top" xlink:title="Interface for writing to a device.">
<polygon fill="white" stroke="#666666" points="70,-62 0,-62 0,-43 70,-43 70,-62"/>
<text text-anchor="middle" x="35" y="-50" font-family="Helvetica,sans-Serif" font-size="10.00">sen::Writer</text>
</a>
</g>
</g>
<!-- Node1 -->
<g id="Node000001" class="node">
<title>Node1</title>
<g id="a_Node000001"><a xlink:href="classsen_1_1_buffer_writer.html" target="_top" xlink:title="A writer that owns a fixed size buffer.">
<polygon fill="white" stroke="#666666" points="228.5,-105 129.5,-105 129.5,-86 228.5,-86 228.5,-105"/>
<text text-anchor="middle" x="179" y="-93" font-family="Helvetica,sans-Serif" font-size="10.00">sen::BufferWriter</text>
</a>
</g>
</g>
<!-- Node0&#45;&gt;Node1 -->
<g id="edge57_Node000000_Node000001" class="edge">
<title>Node0&#45;&gt;Node1</title>
<g id="a_edge57_Node000000_Node000001"><a xlink:title=" ">
<path fill="none" stroke="#63b8ff" d="M72.05,-65.42C82.91,-69.16 94.89,-73.13 106,-76.5 116.89,-79.8 128.8,-83.07 139.74,-85.95"/>
<polygon fill="#63b8ff" stroke="#63b8ff" points="73.04,-62.06 62.45,-62.07 70.74,-68.67 73.04,-62.06"/>
</a>
</g>
</g>
<!-- Node2 -->
<g id="Node000002" class="node">
<title>Node2</title>
<g id="a_Node000002"><a xlink:href="classsen_1_1_resizable_buffer_writer.html" target="_top" xlink:title="A writer that owns a buffer that gets resized on demand.">
<polygon fill="white" stroke="#666666" points="252,-67.5 106,-67.5 106,-37.5 252,-37.5 252,-67.5"/>
<text text-anchor="start" x="114" y="-55.5" font-family="Helvetica,sans-Serif" font-size="10.00">sen::ResizableBufferWriter</text>
<text text-anchor="middle" x="179" y="-44.5" font-family="Helvetica,sans-Serif" font-size="10.00">&lt; Container &gt;</text>
</a>
</g>
</g>
<!-- Node0&#45;&gt;Node2 -->
<g id="edge58_Node000000_Node000002" class="edge">
<title>Node0&#45;&gt;Node2</title>
<g id="a_edge58_Node000000_Node000002"><a xlink:title=" ">
<path fill="none" stroke="#63b8ff" d="M80.04,-52.5C88.22,-52.5 96.97,-52.5 105.74,-52.5"/>
<polygon fill="#63b8ff" stroke="#63b8ff" points="80.01,-49 70.01,-52.5 80.01,-56 80.01,-49"/>
</a>
</g>
</g>
<!-- Node3 -->
<g id="Node000003" class="node">
<title>Node3</title>
<g id="a_Node000003"><a xlink:href="classsen_1_1test_1_1_test_writer.html" target="_top" xlink:title=" ">
<polygon fill="white" stroke="#666666" points="236,-19 122,-19 122,0 236,0 236,-19"/>
<text text-anchor="middle" x="179" y="-7" font-family="Helvetica,sans-Serif" font-size="10.00">sen::test::TestWriter</text>
</a>
</g>
</g>
<!-- Node0&#45;&gt;Node3 -->
<g id="edge59_Node000000_Node000003" class="edge">
<title>Node0&#45;&gt;Node3</title>
<g id="a_edge59_Node000000_Node000003"><a xlink:title=" ">
<path fill="none" stroke="#63b8ff" d="M72.05,-39.58C82.91,-35.84 94.89,-31.87 106,-28.5 116.89,-25.2 128.8,-21.93 139.74,-19.05"/>
<polygon fill="#63b8ff" stroke="#63b8ff" points="70.74,-36.33 62.45,-42.93 73.04,-42.94 70.74,-36.33"/>
</a>
</g>
</g>
</g>
</svg>
