<?xml version="1.0" encoding="UTF-8" standalone="no"?>
<!DOCTYPE svg PUBLIC "-//W3C//DTD SVG 1.1//EN"
 "http://www.w3.org/Graphics/SVG/1.1/DTD/svg11.dtd">
<!-- Generated by graphviz version 2.43.0 (0)
 -->
<!-- Title: Graphical Class Hierarchy Pages: 1 -->
<svg width="495pt" height="86pt"
 viewBox="0.00 0.00 495.00 86.00" xmlns="http://www.w3.org/2000/svg" xmlns:xlink="http://www.w3.org/1999/xlink">
<g id="graph0" class="graph" transform="scale(1 1) rotate(0) translate(4 82)">
<title>Graphical Class Hierarchy</title>
<!-- Node0 -->
<g id="Node000000" class="node">
<title>Node0</title>
<g id="a_Node000000"><a xlink:title=" ">
<polygon fill="#e0e0e0" stroke="#999999" points="91,-48.5 0,-48.5 0,-29.5 91,-29.5 91,-48.5"/>
<text text-anchor="middle" x="45.5" y="-36.5" font-family="Helvetica,sans-Serif" font-size="10.00">std::disjunction</text>
</a>
</g>
</g>
<!-- Node1 -->
<g id="Node000001" class="node">
<title>Node1</title>
<g id="a_Node000001"><a xlink:href="structsen_1_1_is_contained.html" target="_top" xlink:title=" ">
<polygon fill="white" stroke="#666666" points="245,-78 127,-78 127,-48 245,-48 245,-78"/>
<text text-anchor="start" x="135" y="-66" font-family="Helvetica,sans-Serif" font-size="10.00">sen::IsContained&lt; T,</text>
<text text-anchor="middle" x="186" y="-55" font-family="Helvetica,sans-Serif" font-size="10.00"> MemberTypes... &gt;</text>
</a>
</g>
</g>
<!-- Node0&#45;&gt;Node1 -->
<g id="edge62_Node000000_Node000001" class="edge">
<title>Node0&#45;&gt;Node1</title>
<g id="a_edge62_Node000000_Node000001"><a xlink:title=" ">
<path fill="none" stroke="#63b8ff" d="M101.18,-48.48C109.61,-49.94 118.34,-51.45 126.84,-52.92"/>
<polygon fill="#63b8ff" stroke="#63b8ff" points="101.54,-44.98 91.08,-46.73 100.34,-51.88 101.54,-44.98"/>
</a>
</g>
</g>
<!-- Node3 -->
<g id="Node000003" class="node">
<title>Node3</title>
<g id="a_Node000003"><a xlink:href="structsen_1_1_is_contained.html" target="_top" xlink:title="Checks if T is on of the types in TypeList.">
<polygon fill="white" stroke="#666666" points="245,-30 127,-30 127,0 245,0 245,-30"/>
<text text-anchor="start" x="135" y="-18" font-family="Helvetica,sans-Serif" font-size="10.00">sen::IsContained&lt; T,</text>
<text text-anchor="middle" x="186" y="-7" font-family="Helvetica,sans-Serif" font-size="10.00"> TypeList &gt;</text>
</a>
</g>
</g>
<!-- Node0&#45;&gt;Node3 -->
<g id="edge64_Node000000_Node000003" class="edge">
<title>Node0&#45;&gt;Node3</title>
<g id="a_edge64_Node000000_Node000003"><a xlink:title=" ">
<path fill="none" stroke="#63b8ff" d="M101.18,-29.52C109.61,-28.06 118.34,-26.55 126.84,-25.08"/>
<polygon fill="#63b8ff" stroke="#63b8ff" points="100.34,-26.12 91.08,-31.27 101.54,-33.02 100.34,-26.12"/>
</a>
</g>
</g>
<!-- Node2 -->
<g id="Node000002" class="node">
<title>Node2</title>
<g id="a_Node000002"><a xlink:href="structsen_1_1_is_variant_member_3_01_t_00_01std_1_1variant_3_01_member_types_8_8_8_01_4_01_4.html" target="_top" xlink:title="Checks if T is on of the member types of the given VariantType.">
<polygon fill="white" stroke="#666666" points="487,-78 281,-78 281,-48 487,-48 487,-78"/>
<text text-anchor="start" x="289" y="-66" font-family="Helvetica,sans-Serif" font-size="10.00">sen::IsVariantMember</text>
<text text-anchor="middle" x="384" y="-55" font-family="Helvetica,sans-Serif" font-size="10.00">&lt; T, std::variant&lt; MemberTypes... &gt; &gt;</text>
</a>
</g>
</g>
<!-- Node1&#45;&gt;Node2 -->
<g id="edge63_Node000001_Node000002" class="edge">
<title>Node1&#45;&gt;Node2</title>
<g id="a_edge63_Node000001_Node000002"><a xlink:title=" ">
<path fill="none" stroke="#63b8ff" d="M255.27,-63C263.52,-63 272.07,-63 280.67,-63"/>
<polygon fill="#63b8ff" stroke="#63b8ff" points="255.01,-59.5 245.01,-63 255.01,-66.5 255.01,-59.5"/>
</a>
</g>
</g>
</g>
</svg>
