<?xml version="1.0" encoding="UTF-8" standalone="no"?>
<!DOCTYPE svg PUBLIC "-//W3C//DTD SVG 1.1//EN"
 "http://www.w3.org/Graphics/SVG/1.1/DTD/svg11.dtd">
<!-- Generated by graphviz version 2.43.0 (0)
 -->
<!-- Title: sen::std_util::IsInstantiationOf&lt; Template, Template&lt; Args... &gt; &gt; Pages: 1 -->
<svg width="202pt" height="153pt"
 viewBox="0.00 0.00 202.00 153.00" xmlns="http://www.w3.org/2000/svg" xmlns:xlink="http://www.w3.org/1999/xlink">
<g id="graph0" class="graph" transform="scale(1 1) rotate(0) translate(4 149)">
<title>sen::std_util::IsInstantiationOf&lt; Template, Template&lt; Args... &gt; &gt;</title>
<!-- Node1 -->
<g id="Node000001" class="node">
<title>Node1</title>
<g id="a_Node000001"><a xlink:title=" ">
<polygon fill="#999999" stroke="transparent" points="194,-60 0,-60 0,0 194,0 194,-60"/>
<text text-anchor="start" x="5" y="-48" font-family="Helvetica,sans-Serif" font-size="10.00">sen::std_util::IsInstantiation</text>
<text text-anchor="start" x="5" y="-37" font-family="Helvetica,sans-Serif" font-size="10.00">Of&lt; Template, Template&lt; Args... &gt; &gt;</text>
<text text-anchor="start" x="95" y="-22" font-family="Helvetica,sans-Serif" font-size="10.00"> </text>
<text text-anchor="start" x="95" y="-7" font-family="Helvetica,sans-Serif" font-size="10.00"> </text>
<polygon fill="#666666" stroke="#666666" points="0,-32 0,-32 194,-32 194,-32 0,-32"/>
<polygon fill="#666666" stroke="#666666" points="0,-17 0,-17 194,-17 194,-17 0,-17"/>
<polygon fill="none" stroke="#666666" points="0,0 0,-60 194,-60 194,0 0,0"/>
</a>
</g>
</g>
<!-- Node2 -->
<g id="Node000002" class="node">
<title>Node2</title>
<g id="a_Node000002"><a xlink:title=" ">
<polygon fill="white" stroke="transparent" points="136,-145 58,-145 58,-96 136,-96 136,-145"/>
<text text-anchor="start" x="63" y="-132.5" font-family="Helvetica,sans-Serif" font-size="10.00">std::true_type</text>
<text text-anchor="start" x="95" y="-117.5" font-family="Helvetica,sans-Serif" font-size="10.00"> </text>
<text text-anchor="start" x="95" y="-102.5" font-family="Helvetica,sans-Serif" font-size="10.00"> </text>
<polygon fill="#666666" stroke="#666666" points="58,-127.5 58,-127.5 136,-127.5 136,-127.5 58,-127.5"/>
<polygon fill="#666666" stroke="#666666" points="58,-112.5 58,-112.5 136,-112.5 136,-112.5 58,-112.5"/>
<polygon fill="none" stroke="#666666" points="58,-96 58,-145 136,-145 136,-96 58,-96"/>
</a>
</g>
</g>
<!-- Node2&#45;&gt;Node1 -->
<g id="edge1_Node000001_Node000002" class="edge">
<title>Node2&#45;&gt;Node1</title>
<g id="a_edge1_Node000001_Node000002"><a xlink:title=" ">
<path fill="none" stroke="#63b8ff" d="M97,-85.55C97,-77.18 97,-68.28 97,-60.16"/>
<polygon fill="none" stroke="#63b8ff" points="93.5,-85.78 97,-95.78 100.5,-85.78 93.5,-85.78"/>
</a>
</g>
</g>
</g>
</svg>
