<?xml version="1.0" encoding="UTF-8" standalone="no"?>
<!DOCTYPE svg PUBLIC "-//W3C//DTD SVG 1.1//EN"
 "http://www.w3.org/Graphics/SVG/1.1/DTD/svg11.dtd">
<!-- Generated by graphviz version 2.43.0 (0)
 -->
<!-- Title: sen::VariantTraitsBaseBase Pages: 1 -->
<svg width="155pt" height="292pt"
 viewBox="0.00 0.00 155.00 292.00" xmlns="http://www.w3.org/2000/svg" xmlns:xlink="http://www.w3.org/1999/xlink">
<g id="graph0" class="graph" transform="scale(1 1) rotate(0) translate(4 288)">
<title>sen::VariantTraitsBaseBase</title>
<!-- Node1 -->
<g id="Node000001" class="node">
<title>Node1</title>
<g id="a_Node000001"><a xlink:title=" ">
<polygon fill="#999999" stroke="transparent" points="145,-284 2,-284 2,-175 145,-175 145,-284"/>
<text text-anchor="start" x="7.5" y="-271.5" font-family="Helvetica,sans-Serif" font-size="10.00">sen::VariantTraitsBaseBase</text>
<text text-anchor="start" x="72" y="-256.5" font-family="Helvetica,sans-Serif" font-size="10.00"> </text>
<text text-anchor="start" x="6.5" y="-241.5" font-family="Helvetica,sans-Serif" font-size="10.00">#</text>
<text text-anchor="start" x="19.5" y="-241.5" font-family="Helvetica,sans-Serif" font-size="10.00">throwEmptyStructError()</text>
<text text-anchor="start" x="6.5" y="-226.5" font-family="Helvetica,sans-Serif" font-size="10.00">#</text>
<text text-anchor="start" x="19.5" y="-226.5" font-family="Helvetica,sans-Serif" font-size="10.00">expectAtLeastOneField()</text>
<text text-anchor="start" x="6.5" y="-211.5" font-family="Helvetica,sans-Serif" font-size="10.00">#</text>
<text text-anchor="start" x="19.5" y="-211.5" font-family="Helvetica,sans-Serif" font-size="10.00">throwNonNativeField()</text>
<text text-anchor="start" x="6.5" y="-196.5" font-family="Helvetica,sans-Serif" font-size="10.00">#</text>
<text text-anchor="start" x="19.5" y="-196.5" font-family="Helvetica,sans-Serif" font-size="10.00">throwInvalidFieldIndex()</text>
<text text-anchor="start" x="6.5" y="-181.5" font-family="Helvetica,sans-Serif" font-size="10.00">#</text>
<text text-anchor="start" x="19.5" y="-181.5" font-family="Helvetica,sans-Serif" font-size="10.00">getTypeAndValue()</text>
<polygon fill="#666666" stroke="#666666" points="2.5,-266.5 2.5,-266.5 145.5,-266.5 145.5,-266.5 2.5,-266.5"/>
<polygon fill="#666666" stroke="#666666" points="2.5,-251.5 2.5,-251.5 145.5,-251.5 145.5,-251.5 2.5,-251.5"/>
<polygon fill="none" stroke="#666666" points="2,-175 2,-284 145,-284 145,-175 2,-175"/>
</a>
</g>
</g>
<!-- Node2 -->
<g id="Node000002" class="node">
<title>Node2</title>
<g id="a_Node000002"><a xlink:href="structsen_1_1_variant_traits_base.html" target="_top" xlink:title="Base class for variant traits.">
<polygon fill="white" stroke="transparent" points="147,-139 0,-139 0,0 147,0 147,-139"/>
<text text-anchor="start" x="5.5" y="-126.5" font-family="Helvetica,sans-Serif" font-size="10.00">sen::VariantTraitsBase&lt; T &gt;</text>
<text text-anchor="start" x="6.5" y="-111.5" font-family="Helvetica,sans-Serif" font-size="10.00">+</text>
<text text-anchor="start" x="21.5" y="-111.5" font-family="Helvetica,sans-Serif" font-size="10.00">available</text>
<text text-anchor="start" x="6.5" y="-96.5" font-family="Helvetica,sans-Serif" font-size="10.00">+</text>
<text text-anchor="start" x="21.5" y="-96.5" font-family="Helvetica,sans-Serif" font-size="10.00">tryPrintField()</text>
<text text-anchor="start" x="6.5" y="-81.5" font-family="Helvetica,sans-Serif" font-size="10.00">#</text>
<text text-anchor="start" x="21.5" y="-81.5" font-family="Helvetica,sans-Serif" font-size="10.00">assignFieldByName()</text>
<text text-anchor="start" x="6.5" y="-66.5" font-family="Helvetica,sans-Serif" font-size="10.00">#</text>
<text text-anchor="start" x="21.5" y="-66.5" font-family="Helvetica,sans-Serif" font-size="10.00">assignField()</text>
<text text-anchor="start" x="6.5" y="-51.5" font-family="Helvetica,sans-Serif" font-size="10.00">#</text>
<text text-anchor="start" x="21.5" y="-51.5" font-family="Helvetica,sans-Serif" font-size="10.00">getFieldSerializedSize()</text>
<text text-anchor="start" x="6.5" y="-36.5" font-family="Helvetica,sans-Serif" font-size="10.00">#</text>
<text text-anchor="start" x="21.5" y="-36.5" font-family="Helvetica,sans-Serif" font-size="10.00">tryWriteField()</text>
<text text-anchor="start" x="6.5" y="-21.5" font-family="Helvetica,sans-Serif" font-size="10.00">#</text>
<text text-anchor="start" x="21.5" y="-21.5" font-family="Helvetica,sans-Serif" font-size="10.00">readField()</text>
<text text-anchor="start" x="6.5" y="-6.5" font-family="Helvetica,sans-Serif" font-size="10.00">#</text>
<text text-anchor="start" x="21.5" y="-6.5" font-family="Helvetica,sans-Serif" font-size="10.00">tryFieldValueToVariant()</text>
<polygon fill="#666666" stroke="#666666" points="0.5,-121.5 0.5,-121.5 147.5,-121.5 147.5,-121.5 0.5,-121.5"/>
<polygon fill="#666666" stroke="#666666" points="0.5,-106.5 0.5,-106.5 19.5,-106.5 19.5,-106.5 0.5,-106.5"/>
<polygon fill="#666666" stroke="#666666" points="19.5,-106.5 19.5,-106.5 147.5,-106.5 147.5,-106.5 19.5,-106.5"/>
<polygon fill="none" stroke="#666666" points="0,0 0,-139 147,-139 147,0 0,0"/>
</a>
</g>
</g>
<!-- Node1&#45;&gt;Node2 -->
<g id="edge1_Node000001_Node000002" class="edge">
<title>Node1&#45;&gt;Node2</title>
<g id="a_edge1_Node000001_Node000002"><a xlink:title=" ">
<path fill="none" stroke="#63b8ff" d="M73.5,-164.55C73.5,-156.23 73.5,-147.67 73.5,-139.28"/>
<polygon fill="none" stroke="#63b8ff" points="70,-164.57 73.5,-174.57 77,-164.57 70,-164.57"/>
</a>
</g>
</g>
</g>
</svg>
