<?xml version="1.0" encoding="UTF-8" standalone="no"?>
<!DOCTYPE svg PUBLIC "-//W3C//DTD SVG 1.1//EN"
 "http://www.w3.org/Graphics/SVG/1.1/DTD/svg11.dtd">
<!-- Generated by graphviz version 2.43.0 (0)
 -->
<!-- Title: sen::IsContained&lt; T, TypeList &gt; Pages: 1 -->
<svg width="128pt" height="175pt"
 viewBox="0.00 0.00 128.00 175.00" xmlns="http://www.w3.org/2000/svg" xmlns:xlink="http://www.w3.org/1999/xlink">
<g id="graph0" class="graph" transform="scale(1 1) rotate(0) translate(4 171)">
<title>sen::IsContained&lt; T, TypeList &gt;</title>
<!-- Node1 -->
<g id="Node000001" class="node">
<title>Node1</title>
<g id="a_Node000001"><a xlink:title="Checks if T is on of the types in TypeList.">
<polygon fill="#999999" stroke="transparent" points="116,-60 4,-60 4,0 116,0 116,-60"/>
<text text-anchor="start" x="9" y="-48" font-family="Helvetica,sans-Serif" font-size="10.00">sen::IsContained&lt; T,</text>
<text text-anchor="start" x="32.5" y="-37" font-family="Helvetica,sans-Serif" font-size="10.00"> TypeList &gt;</text>
<text text-anchor="start" x="58" y="-22" font-family="Helvetica,sans-Serif" font-size="10.00"> </text>
<text text-anchor="start" x="58" y="-7" font-family="Helvetica,sans-Serif" font-size="10.00"> </text>
<polygon fill="#666666" stroke="#666666" points="4,-32 4,-32 116,-32 116,-32 4,-32"/>
<polygon fill="#666666" stroke="#666666" points="4,-17 4,-17 116,-17 116,-17 4,-17"/>
<polygon fill="none" stroke="#666666" points="4,0 4,-60 116,-60 116,0 4,0"/>
</a>
</g>
</g>
<!-- Node2 -->
<g id="Node000002" class="node">
<title>Node2</title>
<g id="a_Node000002"><a xlink:title=" ">
<polygon fill="white" stroke="transparent" points="120,-167 0,-167 0,-96 120,-96 120,-167"/>
<text text-anchor="start" x="5" y="-154.5" font-family="Helvetica,sans-Serif" font-size="10.00">std::disjunction&lt; std</text>
<text text-anchor="start" x="5" y="-143.5" font-family="Helvetica,sans-Serif" font-size="10.00">::is_same&lt; T, TypeList</text>
<text text-anchor="start" x="44" y="-132.5" font-family="Helvetica,sans-Serif" font-size="10.00"> &gt;... &gt;</text>
<text text-anchor="start" x="58" y="-117.5" font-family="Helvetica,sans-Serif" font-size="10.00"> </text>
<text text-anchor="start" x="58" y="-102.5" font-family="Helvetica,sans-Serif" font-size="10.00"> </text>
<polygon fill="#666666" stroke="#666666" points="0,-127.5 0,-127.5 120,-127.5 120,-127.5 0,-127.5"/>
<polygon fill="#666666" stroke="#666666" points="0,-112.5 0,-112.5 120,-112.5 120,-112.5 0,-112.5"/>
<polygon fill="none" stroke="#666666" points="0,-96 0,-167 120,-167 120,-96 0,-96"/>
</a>
</g>
</g>
<!-- Node2&#45;&gt;Node1 -->
<g id="edge1_Node000001_Node000002" class="edge">
<title>Node2&#45;&gt;Node1</title>
<g id="a_edge1_Node000001_Node000002"><a xlink:title=" ">
<path fill="none" stroke="#63b8ff" d="M60,-85.9C60,-77.17 60,-68.24 60,-60.17"/>
<polygon fill="none" stroke="#63b8ff" points="56.5,-85.98 60,-95.98 63.5,-85.98 56.5,-85.98"/>
</a>
</g>
</g>
</g>
</svg>
