<?xml version="1.0" encoding="UTF-8" standalone="no"?>
<!DOCTYPE svg PUBLIC "-//W3C//DTD SVG 1.1//EN"
 "http://www.w3.org/Graphics/SVG/1.1/DTD/svg11.dtd">
<!-- Generated by graphviz version 2.43.0 (0)
 -->
<!-- Title: sen::std_util::detail::IsInPlaceType&lt; std::in_place_type_t&lt; T &gt; &gt; Pages: 1 -->
<svg width="141pt" height="164pt"
 viewBox="0.00 0.00 141.00 164.00" xmlns="http://www.w3.org/2000/svg" xmlns:xlink="http://www.w3.org/1999/xlink">
<g id="graph0" class="graph" transform="scale(1 1) rotate(0) translate(4 160)">
<title>sen::std_util::detail::IsInPlaceType&lt; std::in_place_type_t&lt; T &gt; &gt;</title>
<!-- Node1 -->
<g id="Node000001" class="node">
<title>Node1</title>
<g id="a_Node000001"><a xlink:title=" ">
<polygon fill="#999999" stroke="transparent" points="133,-71 0,-71 0,0 133,0 133,-71"/>
<text text-anchor="start" x="5.5" y="-58.5" font-family="Helvetica,sans-Serif" font-size="10.00">sen::std_util::detail</text>
<text text-anchor="start" x="5.5" y="-47.5" font-family="Helvetica,sans-Serif" font-size="10.00">::IsInPlaceType&lt; std</text>
<text text-anchor="start" x="5.5" y="-36.5" font-family="Helvetica,sans-Serif" font-size="10.00">::in_place_type_t&lt; T &gt; &gt;</text>
<text text-anchor="start" x="65" y="-21.5" font-family="Helvetica,sans-Serif" font-size="10.00"> </text>
<text text-anchor="start" x="65" y="-6.5" font-family="Helvetica,sans-Serif" font-size="10.00"> </text>
<polygon fill="#666666" stroke="#666666" points="0.5,-31.5 0.5,-31.5 133.5,-31.5 133.5,-31.5 0.5,-31.5"/>
<polygon fill="#666666" stroke="#666666" points="0.5,-16.5 0.5,-16.5 133.5,-16.5 133.5,-16.5 0.5,-16.5"/>
<polygon fill="none" stroke="#666666" points="0,0 0,-71 133,-71 133,0 0,0"/>
</a>
</g>
</g>
<!-- Node2 -->
<g id="Node000002" class="node">
<title>Node2</title>
<g id="a_Node000002"><a xlink:title=" ">
<polygon fill="white" stroke="transparent" points="105.5,-156 27.5,-156 27.5,-107 105.5,-107 105.5,-156"/>
<text text-anchor="start" x="32.5" y="-143.5" font-family="Helvetica,sans-Serif" font-size="10.00">std::true_type</text>
<text text-anchor="start" x="64.5" y="-128.5" font-family="Helvetica,sans-Serif" font-size="10.00"> </text>
<text text-anchor="start" x="64.5" y="-113.5" font-family="Helvetica,sans-Serif" font-size="10.00"> </text>
<polygon fill="#666666" stroke="#666666" points="27.5,-138.5 27.5,-138.5 105.5,-138.5 105.5,-138.5 27.5,-138.5"/>
<polygon fill="#666666" stroke="#666666" points="27.5,-123.5 27.5,-123.5 105.5,-123.5 105.5,-123.5 27.5,-123.5"/>
<polygon fill="none" stroke="#666666" points="27.5,-107 27.5,-156 105.5,-156 105.5,-107 27.5,-107"/>
</a>
</g>
</g>
<!-- Node2&#45;&gt;Node1 -->
<g id="edge1_Node000001_Node000002" class="edge">
<title>Node2&#45;&gt;Node1</title>
<g id="a_edge1_Node000001_Node000002"><a xlink:title=" ">
<path fill="none" stroke="#63b8ff" d="M66.5,-96.7C66.5,-88.42 66.5,-79.55 66.5,-71.23"/>
<polygon fill="none" stroke="#63b8ff" points="63,-96.78 66.5,-106.78 70,-96.78 63,-96.78"/>
</a>
</g>
</g>
</g>
</svg>
