<?xml version="1.0" encoding="UTF-8" standalone="no"?>
<!DOCTYPE svg PUBLIC "-//W3C//DTD SVG 1.1//EN"
 "http://www.w3.org/Graphics/SVG/1.1/DTD/svg11.dtd">
<!-- Generated by graphviz version 2.43.0 (0)
 -->
<!-- Title: sen::kernel::BusId Pages: 1 -->
<svg width="148pt" height="493pt"
 viewBox="0.00 0.00 148.00 493.00" xmlns="http://www.w3.org/2000/svg" xmlns:xlink="http://www.w3.org/1999/xlink">
<g id="graph0" class="graph" transform="scale(1 1) rotate(0) translate(4 489)">
<title>sen::kernel::BusId</title>
<!-- Node1 -->
<g id="Node000001" class="node">
<title>Node1</title>
<g id="a_Node000001"><a xlink:title=" ">
<polygon fill="#999999" stroke="transparent" points="118.5,-49 21.5,-49 21.5,0 118.5,0 118.5,-49"/>
<text text-anchor="start" x="27" y="-36.5" font-family="Helvetica,sans-Serif" font-size="10.00">sen::kernel::BusId</text>
<text text-anchor="start" x="33.5" y="-21.5" font-family="Helvetica,sans-Serif" font-size="10.00">+</text>
<text text-anchor="start" x="54" y="-21.5" font-family="Helvetica,sans-Serif" font-size="10.00">userData</text>
<text text-anchor="start" x="68.5" y="-6.5" font-family="Helvetica,sans-Serif" font-size="10.00"> </text>
<polygon fill="#666666" stroke="#666666" points="22,-31.5 22,-31.5 119,-31.5 119,-31.5 22,-31.5"/>
<polygon fill="#666666" stroke="#666666" points="22,-16.5 22,-16.5 52,-16.5 52,-16.5 22,-16.5"/>
<polygon fill="#666666" stroke="#666666" points="52,-16.5 52,-16.5 119,-16.5 119,-16.5 52,-16.5"/>
<polygon fill="none" stroke="#666666" points="21.5,0 21.5,-49 118.5,-49 118.5,0 21.5,0"/>
</a>
</g>
</g>
<!-- Node2 -->
<g id="Node000002" class="node">
<title>Node2</title>
<g id="a_Node000002"><a xlink:href="classsen_1_1_strong_type.html" target="_top" xlink:title=" ">
<polygon fill="white" stroke="transparent" points="135,-295 5,-295 5,-85 135,-85 135,-295"/>
<text text-anchor="start" x="10" y="-283" font-family="Helvetica,sans-Serif" font-size="10.00">sen::StrongType&lt; uint32</text>
<text text-anchor="start" x="43" y="-272" font-family="Helvetica,sans-Serif" font-size="10.00">_t, BusId &gt;</text>
<text text-anchor="start" x="68" y="-257" font-family="Helvetica,sans-Serif" font-size="10.00"> </text>
<text text-anchor="start" x="18.5" y="-242" font-family="Helvetica,sans-Serif" font-size="10.00">+</text>
<text text-anchor="start" x="41" y="-242" font-family="Helvetica,sans-Serif" font-size="10.00">~StrongType()</text>
<text text-anchor="start" x="18.5" y="-227" font-family="Helvetica,sans-Serif" font-size="10.00">+</text>
<text text-anchor="start" x="41" y="-227" font-family="Helvetica,sans-Serif" font-size="10.00">operator==()</text>
<text text-anchor="start" x="18.5" y="-212" font-family="Helvetica,sans-Serif" font-size="10.00">+</text>
<text text-anchor="start" x="41" y="-212" font-family="Helvetica,sans-Serif" font-size="10.00">operator!=()</text>
<text text-anchor="start" x="18.5" y="-197" font-family="Helvetica,sans-Serif" font-size="10.00">+</text>
<text text-anchor="start" x="41" y="-197" font-family="Helvetica,sans-Serif" font-size="10.00">operator&lt;()</text>
<text text-anchor="start" x="18.5" y="-182" font-family="Helvetica,sans-Serif" font-size="10.00">+</text>
<text text-anchor="start" x="41" y="-182" font-family="Helvetica,sans-Serif" font-size="10.00">operator&lt;=()</text>
<text text-anchor="start" x="18.5" y="-167" font-family="Helvetica,sans-Serif" font-size="10.00">+</text>
<text text-anchor="start" x="41" y="-167" font-family="Helvetica,sans-Serif" font-size="10.00">operator&gt;()</text>
<text text-anchor="start" x="18.5" y="-152" font-family="Helvetica,sans-Serif" font-size="10.00">+</text>
<text text-anchor="start" x="41" y="-152" font-family="Helvetica,sans-Serif" font-size="10.00">operator&gt;=()</text>
<text text-anchor="start" x="18.5" y="-137" font-family="Helvetica,sans-Serif" font-size="10.00">+</text>
<text text-anchor="start" x="41" y="-137" font-family="Helvetica,sans-Serif" font-size="10.00">operator++()</text>
<text text-anchor="start" x="18.5" y="-122" font-family="Helvetica,sans-Serif" font-size="10.00">+</text>
<text text-anchor="start" x="41" y="-122" font-family="Helvetica,sans-Serif" font-size="10.00">operator++()</text>
<text text-anchor="start" x="18.5" y="-107" font-family="Helvetica,sans-Serif" font-size="10.00">+</text>
<text text-anchor="start" x="41" y="-107" font-family="Helvetica,sans-Serif" font-size="10.00">operator&#45;&#45;()</text>
<text text-anchor="start" x="41" y="-92" font-family="Helvetica,sans-Serif" font-size="10.00">and 8 more...</text>
<polygon fill="#666666" stroke="#666666" points="5,-267 5,-267 135,-267 135,-267 5,-267"/>
<polygon fill="#666666" stroke="#666666" points="5,-252 5,-252 135,-252 135,-252 5,-252"/>
<polygon fill="none" stroke="#666666" points="5,-85 5,-295 135,-295 135,-85 5,-85"/>
</a>
</g>
</g>
<!-- Node2&#45;&gt;Node1 -->
<g id="edge1_Node000001_Node000002" class="edge">
<title>Node2&#45;&gt;Node1</title>
<g id="a_edge1_Node000001_Node000002"><a xlink:title=" ">
<path fill="none" stroke="#63b8ff" d="M70,-74.86C70,-65.36 70,-56.55 70,-49.09"/>
<polygon fill="none" stroke="#63b8ff" points="66.5,-74.99 70,-84.99 73.5,-74.99 66.5,-74.99"/>
</a>
</g>
</g>
<!-- Node3 -->
<g id="Node000003" class="node">
<title>Node3</title>
<g id="a_Node000003"><a xlink:href="classsen_1_1_strong_type_base.html" target="_top" xlink:title="Wraps T to make it a strong type.">
<polygon fill="white" stroke="transparent" points="140,-485 0,-485 0,-331 140,-331 140,-485"/>
<text text-anchor="start" x="5" y="-473" font-family="Helvetica,sans-Serif" font-size="10.00">sen::StrongTypeBase&lt; T &gt;</text>
<text text-anchor="start" x="68" y="-458" font-family="Helvetica,sans-Serif" font-size="10.00"> </text>
<text text-anchor="start" x="10" y="-443" font-family="Helvetica,sans-Serif" font-size="10.00">+</text>
<text text-anchor="start" x="29" y="-443" font-family="Helvetica,sans-Serif" font-size="10.00">StrongTypeBase()</text>
<text text-anchor="start" x="10" y="-428" font-family="Helvetica,sans-Serif" font-size="10.00">+</text>
<text text-anchor="start" x="29" y="-428" font-family="Helvetica,sans-Serif" font-size="10.00">StrongTypeBase()</text>
<text text-anchor="start" x="10" y="-413" font-family="Helvetica,sans-Serif" font-size="10.00">+</text>
<text text-anchor="start" x="29" y="-413" font-family="Helvetica,sans-Serif" font-size="10.00">~StrongTypeBase()</text>
<text text-anchor="start" x="10" y="-398" font-family="Helvetica,sans-Serif" font-size="10.00">+</text>
<text text-anchor="start" x="29" y="-398" font-family="Helvetica,sans-Serif" font-size="10.00">get()</text>
<text text-anchor="start" x="10" y="-383" font-family="Helvetica,sans-Serif" font-size="10.00">+</text>
<text text-anchor="start" x="29" y="-383" font-family="Helvetica,sans-Serif" font-size="10.00">set()</text>
<text text-anchor="start" x="10" y="-368" font-family="Helvetica,sans-Serif" font-size="10.00">+</text>
<text text-anchor="start" x="29" y="-368" font-family="Helvetica,sans-Serif" font-size="10.00">set()</text>
<text text-anchor="start" x="10" y="-353" font-family="Helvetica,sans-Serif" font-size="10.00">#</text>
<text text-anchor="start" x="29" y="-353" font-family="Helvetica,sans-Serif" font-size="10.00">val()</text>
<text text-anchor="start" x="10" y="-338" font-family="Helvetica,sans-Serif" font-size="10.00">#</text>
<text text-anchor="start" x="29" y="-338" font-family="Helvetica,sans-Serif" font-size="10.00">val()</text>
<polygon fill="#666666" stroke="#666666" points="0,-468 0,-468 140,-468 140,-468 0,-468"/>
<polygon fill="#666666" stroke="#666666" points="0,-453 0,-453 140,-453 140,-453 0,-453"/>
<polygon fill="none" stroke="#666666" points="0,-331 0,-485 140,-485 140,-331 0,-331"/>
</a>
</g>
</g>
<!-- Node3&#45;&gt;Node2 -->
<g id="edge2_Node000002_Node000003" class="edge">
<title>Node3&#45;&gt;Node2</title>
<g id="a_edge2_Node000002_Node000003"><a xlink:title=" ">
<path fill="none" stroke="#63b8ff" d="M70,-320.72C70,-312.33 70,-303.77 70,-295.23"/>
<polygon fill="none" stroke="#63b8ff" points="66.5,-320.85 70,-330.85 73.5,-320.85 66.5,-320.85"/>
</a>
</g>
</g>
</g>
</svg>
