<?xml version="1.0" encoding="UTF-8" standalone="no"?>
<!DOCTYPE svg PUBLIC "-//W3C//DTD SVG 1.1//EN"
 "http://www.w3.org/Graphics/SVG/1.1/DTD/svg11.dtd">
<!-- Generated by graphviz version 2.43.0 (0)
 -->
<!-- Title: sen::IsVariantMember&lt; T, Var &gt; Pages: 1 -->
<svg width="125pt" height="164pt"
 viewBox="0.00 0.00 125.00 164.00" xmlns="http://www.w3.org/2000/svg" xmlns:xlink="http://www.w3.org/1999/xlink">
<g id="graph0" class="graph" transform="scale(1 1) rotate(0) translate(4 160)">
<title>sen::IsVariantMember&lt; T, Var &gt;</title>
<!-- Node1 -->
<g id="Node000001" class="node">
<title>Node1</title>
<g id="a_Node000001"><a xlink:title=" ">
<polygon fill="#999999" stroke="transparent" points="117,-60 0,-60 0,0 117,0 117,-60"/>
<text text-anchor="start" x="5.5" y="-48" font-family="Helvetica,sans-Serif" font-size="10.00">sen::IsVariantMember</text>
<text text-anchor="start" x="33.5" y="-37" font-family="Helvetica,sans-Serif" font-size="10.00">&lt; T, Var &gt;</text>
<text text-anchor="start" x="57" y="-22" font-family="Helvetica,sans-Serif" font-size="10.00"> </text>
<text text-anchor="start" x="57" y="-7" font-family="Helvetica,sans-Serif" font-size="10.00"> </text>
<polygon fill="#666666" stroke="#666666" points="0.5,-32 0.5,-32 117.5,-32 117.5,-32 0.5,-32"/>
<polygon fill="#666666" stroke="#666666" points="0.5,-17 0.5,-17 117.5,-17 117.5,-17 0.5,-17"/>
<polygon fill="none" stroke="#666666" points="0,0 0,-60 117,-60 117,0 0,0"/>
</a>
</g>
</g>
<!-- Node2 -->
<g id="Node000002" class="node">
<title>Node2</title>
<g id="a_Node000002"><a xlink:href="group__templates.html" target="_top" xlink:title=" ">
<polygon fill="white" stroke="transparent" points="117,-156 0,-156 0,-96 117,-96 117,-156"/>
<text text-anchor="start" x="5.5" y="-144" font-family="Helvetica,sans-Serif" font-size="10.00">sen::IsVariantMember</text>
<text text-anchor="start" x="6" y="-133" font-family="Helvetica,sans-Serif" font-size="10.00">&lt; T, Var::ValueType &gt;</text>
<text text-anchor="start" x="57" y="-118" font-family="Helvetica,sans-Serif" font-size="10.00"> </text>
<text text-anchor="start" x="57" y="-103" font-family="Helvetica,sans-Serif" font-size="10.00"> </text>
<polygon fill="#666666" stroke="#666666" points="0.5,-128 0.5,-128 117.5,-128 117.5,-128 0.5,-128"/>
<polygon fill="#666666" stroke="#666666" points="0.5,-113 0.5,-113 117.5,-113 117.5,-113 0.5,-113"/>
<polygon fill="none" stroke="#666666" points="0,-96 0,-156 117,-156 117,-96 0,-96"/>
</a>
</g>
</g>
<!-- Node2&#45;&gt;Node1 -->
<g id="edge1_Node000001_Node000002" class="edge">
<title>Node2&#45;&gt;Node1</title>
<g id="a_edge1_Node000001_Node000002"><a xlink:title=" ">
<path fill="none" stroke="#63b8ff" d="M58.5,-85.63C58.5,-77.11 58.5,-68.25 58.5,-60.21"/>
<polygon fill="none" stroke="#63b8ff" points="55,-85.77 58.5,-95.77 62,-85.77 55,-85.77"/>
</a>
</g>
</g>
</g>
</svg>
