<?xml version="1.0" encoding="UTF-8" standalone="no"?>
<!DOCTYPE svg PUBLIC "-//W3C//DTD SVG 1.1//EN"
 "http://www.w3.org/Graphics/SVG/1.1/DTD/svg11.dtd">
<!-- Generated by graphviz version 2.43.0 (0)
 -->
<!-- Title: sen::VariantTraitsBase&lt; T &gt; Pages: 1 -->
<svg width="155pt" height="277pt"
 viewBox="0.00 0.00 155.00 277.00" xmlns="http://www.w3.org/2000/svg" xmlns:xlink="http://www.w3.org/1999/xlink">
<g id="graph0" class="graph" transform="scale(1 1) rotate(0) translate(4 273)">
<title>sen::VariantTraitsBase&lt; T &gt;</title>
<!-- Node1 -->
<g id="Node000001" class="node">
<title>Node1</title>
<g id="a_Node000001"><a xlink:title="Base class for variant traits.">
<polygon fill="#999999" stroke="transparent" points="147,-139 0,-139 0,0 147,0 147,-139"/>
<text text-anchor="start" x="5.5" y="-126.5" font-family="Helvetica,sans-Serif" font-size="10.00">sen::VariantTraitsBase&lt; T &gt;</text>
<text text-anchor="start" x="6.5" y="-111.5" font-family="Helvetica,sans-Serif" font-size="10.00">+</text>
<text text-anchor="start" x="21.5" y="-111.5" font-family="Helvetica,sans-Serif" font-size="10.00">available</text>
<text text-anchor="start" x="6.5" y="-96.5" font-family="Helvetica,sans-Serif" font-size="10.00">+</text>
<text text-anchor="start" x="21.5" y="-96.5" font-family="Helvetica,sans-Serif" font-size="10.00">tryPrintField()</text>
<text text-anchor="start" x="6.5" y="-81.5" font-family="Helvetica,sans-Serif" font-size="10.00">#</text>
<text text-anchor="start" x="21.5" y="-81.5" font-family="Helvetica,sans-Serif" font-size="10.00">assignFieldByName()</text>
<text text-anchor="start" x="6.5" y="-66.5" font-family="Helvetica,sans-Serif" font-size="10.00">#</text>
<text text-anchor="start" x="21.5" y="-66.5" font-family="Helvetica,sans-Serif" font-size="10.00">assignField()</text>
<text text-anchor="start" x="6.5" y="-51.5" font-family="Helvetica,sans-Serif" font-size="10.00">#</text>
<text text-anchor="start" x="21.5" y="-51.5" font-family="Helvetica,sans-Serif" font-size="10.00">getFieldSerializedSize()</text>
<text text-anchor="start" x="6.5" y="-36.5" font-family="Helvetica,sans-Serif" font-size="10.00">#</text>
<text text-anchor="start" x="21.5" y="-36.5" font-family="Helvetica,sans-Serif" font-size="10.00">tryWriteField()</text>
<text text-anchor="start" x="6.5" y="-21.5" font-family="Helvetica,sans-Serif" font-size="10.00">#</text>
<text text-anchor="start" x="21.5" y="-21.5" font-family="Helvetica,sans-Serif" font-size="10.00">readField()</text>
<text text-anchor="start" x="6.5" y="-6.5" font-family="Helvetica,sans-Serif" font-size="10.00">#</text>
<text text-anchor="start" x="21.5" y="-6.5" font-family="Helvetica,sans-Serif" font-size="10.00">tryFieldValueToVariant()</text>
<polygon fill="#666666" stroke="#666666" points="0.5,-121.5 0.5,-121.5 147.5,-121.5 147.5,-121.5 0.5,-121.5"/>
<polygon fill="#666666" stroke="#666666" points="0.5,-106.5 0.5,-106.5 19.5,-106.5 19.5,-106.5 0.5,-106.5"/>
<polygon fill="#666666" stroke="#666666" points="19.5,-106.5 19.5,-106.5 147.5,-106.5 147.5,-106.5 19.5,-106.5"/>
<polygon fill="none" stroke="#666666" points="0,0 0,-139 147,-139 147,0 0,0"/>
</a>
</g>
</g>
<!-- Node2 -->
<g id="Node000002" class="node">
<title>Node2</title>
<g id="a_Node000002"><a xlink:href="structsen_1_1_variant_traits_base_base.html" target="_top" xlink:title=" ">
<polygon fill="white" stroke="transparent" points="145,-269 2,-269 2,-175 145,-175 145,-269"/>
<text text-anchor="start" x="7.5" y="-257" font-family="Helvetica,sans-Serif" font-size="10.00">sen::VariantTraitsBaseBase</text>
<text text-anchor="start" x="72" y="-242" font-family="Helvetica,sans-Serif" font-size="10.00"> </text>
<text text-anchor="start" x="6.5" y="-227" font-family="Helvetica,sans-Serif" font-size="10.00">#</text>
<text text-anchor="start" x="19.5" y="-227" font-family="Helvetica,sans-Serif" font-size="10.00">expectAtLeastOneField()</text>
<text text-anchor="start" x="6.5" y="-212" font-family="Helvetica,sans-Serif" font-size="10.00">#</text>
<text text-anchor="start" x="19.5" y="-212" font-family="Helvetica,sans-Serif" font-size="10.00">throwNonNativeField()</text>
<text text-anchor="start" x="6.5" y="-197" font-family="Helvetica,sans-Serif" font-size="10.00">#</text>
<text text-anchor="start" x="19.5" y="-197" font-family="Helvetica,sans-Serif" font-size="10.00">throwInvalidFieldIndex()</text>
<text text-anchor="start" x="6.5" y="-182" font-family="Helvetica,sans-Serif" font-size="10.00">#</text>
<text text-anchor="start" x="19.5" y="-182" font-family="Helvetica,sans-Serif" font-size="10.00">getTypeAndValue()</text>
<polygon fill="#666666" stroke="#666666" points="2.5,-252 2.5,-252 145.5,-252 145.5,-252 2.5,-252"/>
<polygon fill="#666666" stroke="#666666" points="2.5,-237 2.5,-237 145.5,-237 145.5,-237 2.5,-237"/>
<polygon fill="none" stroke="#666666" points="2,-175 2,-269 145,-269 145,-175 2,-175"/>
</a>
</g>
</g>
<!-- Node2&#45;&gt;Node1 -->
<g id="edge1_Node000001_Node000002" class="edge">
<title>Node2&#45;&gt;Node1</title>
<g id="a_edge1_Node000001_Node000002"><a xlink:title=" ">
<path fill="none" stroke="#63b8ff" d="M73.5,-164.38C73.5,-156.14 73.5,-147.58 73.5,-139.14"/>
<polygon fill="none" stroke="#63b8ff" points="70,-164.62 73.5,-174.62 77,-164.62 70,-164.62"/>
</a>
</g>
</g>
</g>
</svg>
