<?xml version="1.0" encoding="UTF-8" standalone="no"?>
<!DOCTYPE svg PUBLIC "-//W3C//DTD SVG 1.1//EN"
 "http://www.w3.org/Graphics/SVG/1.1/DTD/svg11.dtd">
<!-- Generated by graphviz version 2.43.0 (0)
 -->
<!-- Title: sen::SenClassRelation&lt; T &amp; &gt; Pages: 1 -->
<svg width="146pt" height="164pt"
 viewBox="0.00 0.00 146.00 164.00" xmlns="http://www.w3.org/2000/svg" xmlns:xlink="http://www.w3.org/1999/xlink">
<g id="graph0" class="graph" transform="scale(1 1) rotate(0) translate(4 160)">
<title>sen::SenClassRelation&lt; T &amp; &gt;</title>
<!-- Node1 -->
<g id="Node000001" class="node">
<title>Node1</title>
<g id="a_Node000001"><a xlink:title=" ">
<polygon fill="#999999" stroke="transparent" points="128.5,-60 9.5,-60 9.5,0 128.5,0 128.5,-60"/>
<text text-anchor="start" x="15" y="-48" font-family="Helvetica,sans-Serif" font-size="10.00">sen::SenClassRelation</text>
<text text-anchor="start" x="49.5" y="-37" font-family="Helvetica,sans-Serif" font-size="10.00">&lt; T &amp; &gt;</text>
<text text-anchor="start" x="67.5" y="-22" font-family="Helvetica,sans-Serif" font-size="10.00"> </text>
<text text-anchor="start" x="67.5" y="-7" font-family="Helvetica,sans-Serif" font-size="10.00"> </text>
<polygon fill="#666666" stroke="#666666" points="10,-32 10,-32 129,-32 129,-32 10,-32"/>
<polygon fill="#666666" stroke="#666666" points="10,-17 10,-17 129,-17 129,-17 10,-17"/>
<polygon fill="none" stroke="#666666" points="9.5,0 9.5,-60 128.5,-60 128.5,0 9.5,0"/>
</a>
</g>
</g>
<!-- Node2 -->
<g id="Node000002" class="node">
<title>Node2</title>
<g id="a_Node000002"><a xlink:href="structsen_1_1_sen_class_relation.html" target="_top" xlink:title=" ">
<polygon fill="white" stroke="transparent" points="138,-156 0,-156 0,-96 138,-96 138,-156"/>
<text text-anchor="start" x="5" y="-144" font-family="Helvetica,sans-Serif" font-size="10.00">sen::SenClassRelation</text>
<text text-anchor="start" x="5" y="-133" font-family="Helvetica,sans-Serif" font-size="10.00">&lt; remove_cvref_t&lt; T &gt; &gt;</text>
<text text-anchor="start" x="8" y="-118" font-family="Helvetica,sans-Serif" font-size="10.00">+</text>
<text text-anchor="start" x="25" y="-118" font-family="Helvetica,sans-Serif" font-size="10.00">isBaseTypeTemplate</text>
<text text-anchor="start" x="67" y="-103" font-family="Helvetica,sans-Serif" font-size="10.00"> </text>
<polygon fill="#666666" stroke="#666666" points="0,-128 0,-128 138,-128 138,-128 0,-128"/>
<polygon fill="#666666" stroke="#666666" points="0,-113 0,-113 23,-113 23,-113 0,-113"/>
<polygon fill="#666666" stroke="#666666" points="23,-113 23,-113 138,-113 138,-113 23,-113"/>
<polygon fill="none" stroke="#666666" points="0,-96 0,-156 138,-156 138,-96 0,-96"/>
</a>
</g>
</g>
<!-- Node2&#45;&gt;Node1 -->
<g id="edge1_Node000001_Node000002" class="edge">
<title>Node2&#45;&gt;Node1</title>
<g id="a_edge1_Node000001_Node000002"><a xlink:title=" ">
<path fill="none" stroke="#8b1a1a" d="M69,-85.63C69,-77.11 69,-68.25 69,-60.21"/>
<polygon fill="none" stroke="#8b1a1a" points="65.5,-85.77 69,-95.77 72.5,-85.77 65.5,-85.77"/>
</a>
</g>
</g>
</g>
</svg>
