<?xml version="1.0" encoding="UTF-8" standalone="no"?>
<!DOCTYPE svg PUBLIC "-//W3C//DTD SVG 1.1//EN"
 "http://www.w3.org/Graphics/SVG/1.1/DTD/svg11.dtd">
<!-- Generated by graphviz version 2.43.0 (0)
 -->
<!-- Title: sen::IsVariantMember&lt; T, std::variant&lt; MemberTypes... &gt; &gt; Pages: 1 -->
<svg width="208pt" height="271pt"
 viewBox="0.00 0.00 208.00 271.00" xmlns="http://www.w3.org/2000/svg" xmlns:xlink="http://www.w3.org/1999/xlink">
<g id="graph0" class="graph" transform="scale(1 1) rotate(0) translate(4 267)">
<title>sen::IsVariantMember&lt; T, std::variant&lt; MemberTypes... &gt; &gt;</title>
<!-- Node1 -->
<g id="Node000001" class="node">
<title>Node1</title>
<g id="a_Node000001"><a xlink:title="Checks if T is on of the member types of the given VariantType.">
<polygon fill="#999999" stroke="transparent" points="200,-60 0,-60 0,0 200,0 200,-60"/>
<text text-anchor="start" x="5" y="-48" font-family="Helvetica,sans-Serif" font-size="10.00">sen::IsVariantMember</text>
<text text-anchor="start" x="5" y="-37" font-family="Helvetica,sans-Serif" font-size="10.00">&lt; T, std::variant&lt; MemberTypes... &gt; &gt;</text>
<text text-anchor="start" x="98" y="-22" font-family="Helvetica,sans-Serif" font-size="10.00"> </text>
<text text-anchor="start" x="98" y="-7" font-family="Helvetica,sans-Serif" font-size="10.00"> </text>
<polygon fill="#666666" stroke="#666666" points="0,-32 0,-32 200,-32 200,-32 0,-32"/>
<polygon fill="#666666" stroke="#666666" points="0,-17 0,-17 200,-17 200,-17 0,-17"/>
<polygon fill="none" stroke="#666666" points="0,0 0,-60 200,-60 200,0 0,0"/>
</a>
</g>
</g>
<!-- Node2 -->
<g id="Node000002" class="node">
<title>Node2</title>
<g id="a_Node000002"><a xlink:href="structsen_1_1_is_contained.html" target="_top" xlink:title=" ">
<polygon fill="white" stroke="transparent" points="156,-156 44,-156 44,-96 156,-96 156,-156"/>
<text text-anchor="start" x="49" y="-144" font-family="Helvetica,sans-Serif" font-size="10.00">sen::IsContained&lt; T,</text>
<text text-anchor="start" x="54" y="-133" font-family="Helvetica,sans-Serif" font-size="10.00"> MemberTypes... &gt;</text>
<text text-anchor="start" x="98" y="-118" font-family="Helvetica,sans-Serif" font-size="10.00"> </text>
<text text-anchor="start" x="98" y="-103" font-family="Helvetica,sans-Serif" font-size="10.00"> </text>
<polygon fill="#666666" stroke="#666666" points="44,-128 44,-128 156,-128 156,-128 44,-128"/>
<polygon fill="#666666" stroke="#666666" points="44,-113 44,-113 156,-113 156,-113 44,-113"/>
<polygon fill="none" stroke="#666666" points="44,-96 44,-156 156,-156 156,-96 44,-96"/>
</a>
</g>
</g>
<!-- Node2&#45;&gt;Node1 -->
<g id="edge1_Node000001_Node000002" class="edge">
<title>Node2&#45;&gt;Node1</title>
<g id="a_edge1_Node000001_Node000002"><a xlink:title=" ">
<path fill="none" stroke="#63b8ff" d="M100,-85.63C100,-77.11 100,-68.25 100,-60.21"/>
<polygon fill="none" stroke="#63b8ff" points="96.5,-85.77 100,-95.77 103.5,-85.77 96.5,-85.77"/>
</a>
</g>
</g>
<!-- Node3 -->
<g id="Node000003" class="node">
<title>Node3</title>
<g id="a_Node000003"><a xlink:title=" ">
<polygon fill="white" stroke="transparent" points="160,-263 40,-263 40,-192 160,-192 160,-263"/>
<text text-anchor="start" x="45" y="-250.5" font-family="Helvetica,sans-Serif" font-size="10.00">std::disjunction&lt; std</text>
<text text-anchor="start" x="45" y="-239.5" font-family="Helvetica,sans-Serif" font-size="10.00">::is_same&lt; T, TypeList</text>
<text text-anchor="start" x="84" y="-228.5" font-family="Helvetica,sans-Serif" font-size="10.00"> &gt;... &gt;</text>
<text text-anchor="start" x="98" y="-213.5" font-family="Helvetica,sans-Serif" font-size="10.00"> </text>
<text text-anchor="start" x="98" y="-198.5" font-family="Helvetica,sans-Serif" font-size="10.00"> </text>
<polygon fill="#666666" stroke="#666666" points="40,-223.5 40,-223.5 160,-223.5 160,-223.5 40,-223.5"/>
<polygon fill="#666666" stroke="#666666" points="40,-208.5 40,-208.5 160,-208.5 160,-208.5 40,-208.5"/>
<polygon fill="none" stroke="#666666" points="40,-192 40,-263 160,-263 160,-192 40,-192"/>
</a>
</g>
</g>
<!-- Node3&#45;&gt;Node2 -->
<g id="edge2_Node000002_Node000003" class="edge">
<title>Node3&#45;&gt;Node2</title>
<g id="a_edge2_Node000002_Node000003"><a xlink:title=" ">
<path fill="none" stroke="#63b8ff" d="M100,-181.9C100,-173.17 100,-164.24 100,-156.17"/>
<polygon fill="none" stroke="#63b8ff" points="96.5,-181.98 100,-191.98 103.5,-181.98 96.5,-181.98"/>
</a>
</g>
</g>
</g>
</svg>
