<?xml version="1.0" encoding="UTF-8" standalone="no"?>
<!DOCTYPE svg PUBLIC "-//W3C//DTD SVG 1.1//EN"
 "http://www.w3.org/Graphics/SVG/1.1/DTD/svg11.dtd">
<!-- Generated by graphviz version 2.43.0 (0)
 -->
<!-- Title: sen::HasValueType&lt; typename, typename &gt; Pages: 1 -->
<svg width="138pt" height="153pt"
 viewBox="0.00 0.00 138.00 153.00" xmlns="http://www.w3.org/2000/svg" xmlns:xlink="http://www.w3.org/1999/xlink">
<g id="graph0" class="graph" transform="scale(1 1) rotate(0) translate(4 149)">
<title>sen::HasValueType&lt; typename, typename &gt;</title>
<!-- Node1 -->
<g id="Node000001" class="node">
<title>Node1</title>
<g id="a_Node000001"><a xlink:title="return false if T has not an &#39;using ValueType&#39; or a &#39;typedef ValueType&#39;">
<polygon fill="#999999" stroke="transparent" points="130,-60 0,-60 0,0 130,0 130,-60"/>
<text text-anchor="start" x="5" y="-48" font-family="Helvetica,sans-Serif" font-size="10.00">sen::HasValueType&lt;</text>
<text text-anchor="start" x="5" y="-37" font-family="Helvetica,sans-Serif" font-size="10.00"> typename, typename &gt;</text>
<text text-anchor="start" x="63" y="-22" font-family="Helvetica,sans-Serif" font-size="10.00"> </text>
<text text-anchor="start" x="63" y="-7" font-family="Helvetica,sans-Serif" font-size="10.00"> </text>
<polygon fill="#666666" stroke="#666666" points="0,-32 0,-32 130,-32 130,-32 0,-32"/>
<polygon fill="#666666" stroke="#666666" points="0,-17 0,-17 130,-17 130,-17 0,-17"/>
<polygon fill="none" stroke="#666666" points="0,0 0,-60 130,-60 130,0 0,0"/>
</a>
</g>
</g>
<!-- Node2 -->
<g id="Node000002" class="node">
<title>Node2</title>
<g id="a_Node000002"><a xlink:title=" ">
<polygon fill="white" stroke="transparent" points="106.5,-145 23.5,-145 23.5,-96 106.5,-96 106.5,-145"/>
<text text-anchor="start" x="29" y="-132.5" font-family="Helvetica,sans-Serif" font-size="10.00">std::false_type</text>
<text text-anchor="start" x="63.5" y="-117.5" font-family="Helvetica,sans-Serif" font-size="10.00"> </text>
<text text-anchor="start" x="63.5" y="-102.5" font-family="Helvetica,sans-Serif" font-size="10.00"> </text>
<polygon fill="#666666" stroke="#666666" points="24,-127.5 24,-127.5 107,-127.5 107,-127.5 24,-127.5"/>
<polygon fill="#666666" stroke="#666666" points="24,-112.5 24,-112.5 107,-112.5 107,-112.5 24,-112.5"/>
<polygon fill="none" stroke="#666666" points="23.5,-96 23.5,-145 106.5,-145 106.5,-96 23.5,-96"/>
</a>
</g>
</g>
<!-- Node2&#45;&gt;Node1 -->
<g id="edge1_Node000001_Node000002" class="edge">
<title>Node2&#45;&gt;Node1</title>
<g id="a_edge1_Node000001_Node000002"><a xlink:title=" ">
<path fill="none" stroke="#63b8ff" d="M65,-85.55C65,-77.18 65,-68.28 65,-60.16"/>
<polygon fill="none" stroke="#63b8ff" points="61.5,-85.78 65,-95.78 68.5,-85.78 61.5,-85.78"/>
</a>
</g>
</g>
</g>
</svg>
