<?xml version="1.0" encoding="UTF-8" standalone="no"?>
<!DOCTYPE svg PUBLIC "-//W3C//DTD SVG 1.1//EN"
 "http://www.w3.org/Graphics/SVG/1.1/DTD/svg11.dtd">
<!-- Generated by graphviz version 2.43.0 (0)
 -->
<!-- Title: sen::MemberHash Pages: 1 -->
<svg width="138pt" height="489pt"
 viewBox="0.00 0.00 138.00 489.00" xmlns="http://www.w3.org/2000/svg" xmlns:xlink="http://www.w3.org/1999/xlink">
<g id="graph0" class="graph" transform="scale(1 1) rotate(0) translate(4 485)">
<title>sen::MemberHash</title>
<!-- Node1 -->
<g id="Node000001" class="node">
<title>Node1</title>
<g id="a_Node000001"><a xlink:title="The hash of a member.">
<polygon fill="#999999" stroke="transparent" points="114.5,-49 15.5,-49 15.5,0 114.5,0 114.5,-49"/>
<text text-anchor="start" x="21" y="-36.5" font-family="Helvetica,sans-Serif" font-size="10.00">sen::MemberHash</text>
<text text-anchor="start" x="63.5" y="-21.5" font-family="Helvetica,sans-Serif" font-size="10.00"> </text>
<text text-anchor="start" x="63.5" y="-6.5" font-family="Helvetica,sans-Serif" font-size="10.00"> </text>
<polygon fill="#666666" stroke="#666666" points="16,-31.5 16,-31.5 115,-31.5 115,-31.5 16,-31.5"/>
<polygon fill="#666666" stroke="#666666" points="16,-16.5 16,-16.5 115,-16.5 115,-16.5 16,-16.5"/>
<polygon fill="none" stroke="#666666" points="15.5,0 15.5,-49 114.5,-49 114.5,0 15.5,0"/>
</a>
</g>
</g>
<!-- Node2 -->
<g id="Node000002" class="node">
<title>Node2</title>
<g id="a_Node000002"><a xlink:href="classsen_1_1_strong_type.html" target="_top" xlink:title=" ">
<polygon fill="white" stroke="transparent" points="130,-325 0,-325 0,-85 130,-85 130,-325"/>
<text text-anchor="start" x="5" y="-313" font-family="Helvetica,sans-Serif" font-size="10.00">sen::StrongType&lt; uint32</text>
<text text-anchor="start" x="19" y="-302" font-family="Helvetica,sans-Serif" font-size="10.00">_t, MemberHash &gt;</text>
<text text-anchor="start" x="63" y="-287" font-family="Helvetica,sans-Serif" font-size="10.00"> </text>
<text text-anchor="start" x="13.5" y="-272" font-family="Helvetica,sans-Serif" font-size="10.00">+</text>
<text text-anchor="start" x="36" y="-272" font-family="Helvetica,sans-Serif" font-size="10.00">~StrongType()</text>
<text text-anchor="start" x="13.5" y="-257" font-family="Helvetica,sans-Serif" font-size="10.00">+</text>
<text text-anchor="start" x="36" y="-257" font-family="Helvetica,sans-Serif" font-size="10.00">operator==()</text>
<text text-anchor="start" x="13.5" y="-242" font-family="Helvetica,sans-Serif" font-size="10.00">+</text>
<text text-anchor="start" x="36" y="-242" font-family="Helvetica,sans-Serif" font-size="10.00">operator!=()</text>
<text text-anchor="start" x="13.5" y="-227" font-family="Helvetica,sans-Serif" font-size="10.00">+</text>
<text text-anchor="start" x="36" y="-227" font-family="Helvetica,sans-Serif" font-size="10.00">operator&lt;()</text>
<text text-anchor="start" x="13.5" y="-212" font-family="Helvetica,sans-Serif" font-size="10.00">+</text>
<text text-anchor="start" x="36" y="-212" font-family="Helvetica,sans-Serif" font-size="10.00">operator&lt;=()</text>
<text text-anchor="start" x="13.5" y="-197" font-family="Helvetica,sans-Serif" font-size="10.00">+</text>
<text text-anchor="start" x="36" y="-197" font-family="Helvetica,sans-Serif" font-size="10.00">operator&gt;()</text>
<text text-anchor="start" x="13.5" y="-182" font-family="Helvetica,sans-Serif" font-size="10.00">+</text>
<text text-anchor="start" x="36" y="-182" font-family="Helvetica,sans-Serif" font-size="10.00">operator&gt;=()</text>
<text text-anchor="start" x="13.5" y="-167" font-family="Helvetica,sans-Serif" font-size="10.00">+</text>
<text text-anchor="start" x="36" y="-167" font-family="Helvetica,sans-Serif" font-size="10.00">operator++()</text>
<text text-anchor="start" x="13.5" y="-152" font-family="Helvetica,sans-Serif" font-size="10.00">+</text>
<text text-anchor="start" x="36" y="-152" font-family="Helvetica,sans-Serif" font-size="10.00">operator&#45;&#45;()</text>
<text text-anchor="start" x="13.5" y="-137" font-family="Helvetica,sans-Serif" font-size="10.00">+</text>
<text text-anchor="start" x="36" y="-137" font-family="Helvetica,sans-Serif" font-size="10.00">operator+=()</text>
<text text-anchor="start" x="36" y="-122" font-family="Helvetica,sans-Serif" font-size="10.00">and 8 more...</text>
<text text-anchor="start" x="13.5" y="-107" font-family="Helvetica,sans-Serif" font-size="10.00">#</text>
<text text-anchor="start" x="36" y="-107" font-family="Helvetica,sans-Serif" font-size="10.00">val()</text>
<text text-anchor="start" x="13.5" y="-92" font-family="Helvetica,sans-Serif" font-size="10.00">#</text>
<text text-anchor="start" x="36" y="-92" font-family="Helvetica,sans-Serif" font-size="10.00">val()</text>
<polygon fill="#666666" stroke="#666666" points="0,-297 0,-297 130,-297 130,-297 0,-297"/>
<polygon fill="#666666" stroke="#666666" points="0,-282 0,-282 130,-282 130,-282 0,-282"/>
<polygon fill="none" stroke="#666666" points="0,-85 0,-325 130,-325 130,-85 0,-85"/>
</a>
</g>
</g>
<!-- Node2&#45;&gt;Node1 -->
<g id="edge1_Node000001_Node000002" class="edge">
<title>Node2&#45;&gt;Node1</title>
<g id="a_edge1_Node000001_Node000002"><a xlink:title=" ">
<path fill="none" stroke="#63b8ff" d="M65,-74.78C65,-65.27 65,-56.53 65,-49.13"/>
<polygon fill="none" stroke="#63b8ff" points="61.5,-74.94 65,-84.94 68.5,-74.94 61.5,-74.94"/>
</a>
</g>
</g>
<!-- Node3 -->
<g id="Node000003" class="node">
<title>Node3</title>
<g id="a_Node000003"><a xlink:href="classsen_1_1_strong_type_base.html" target="_top" xlink:title=" ">
<polygon fill="white" stroke="transparent" points="122.5,-481 7.5,-481 7.5,-361 122.5,-361 122.5,-481"/>
<text text-anchor="start" x="14.5" y="-469" font-family="Helvetica,sans-Serif" font-size="10.00">sen::StrongTypeBase</text>
<text text-anchor="start" x="34" y="-458" font-family="Helvetica,sans-Serif" font-size="10.00">&lt; uint32_t &gt;</text>
<text text-anchor="start" x="63.5" y="-443" font-family="Helvetica,sans-Serif" font-size="10.00"> </text>
<text text-anchor="start" x="12" y="-428" font-family="Helvetica,sans-Serif" font-size="10.00">+</text>
<text text-anchor="start" x="25" y="-428" font-family="Helvetica,sans-Serif" font-size="10.00">StrongTypeBase()</text>
<text text-anchor="start" x="12" y="-413" font-family="Helvetica,sans-Serif" font-size="10.00">+</text>
<text text-anchor="start" x="25" y="-413" font-family="Helvetica,sans-Serif" font-size="10.00">~StrongTypeBase()</text>
<text text-anchor="start" x="12" y="-398" font-family="Helvetica,sans-Serif" font-size="10.00">+</text>
<text text-anchor="start" x="25" y="-398" font-family="Helvetica,sans-Serif" font-size="10.00">get()</text>
<text text-anchor="start" x="12" y="-383" font-family="Helvetica,sans-Serif" font-size="10.00">+</text>
<text text-anchor="start" x="25" y="-383" font-family="Helvetica,sans-Serif" font-size="10.00">set()</text>
<text text-anchor="start" x="12" y="-368" font-family="Helvetica,sans-Serif" font-size="10.00">#</text>
<text text-anchor="start" x="25" y="-368" font-family="Helvetica,sans-Serif" font-size="10.00">val()</text>
<polygon fill="#666666" stroke="#666666" points="8,-453 8,-453 123,-453 123,-453 8,-453"/>
<polygon fill="#666666" stroke="#666666" points="8,-438 8,-438 123,-438 123,-438 8,-438"/>
<polygon fill="none" stroke="#666666" points="7.5,-361 7.5,-481 122.5,-481 122.5,-361 7.5,-361"/>
</a>
</g>
</g>
<!-- Node3&#45;&gt;Node2 -->
<g id="edge2_Node000002_Node000003" class="edge">
<title>Node3&#45;&gt;Node2</title>
<g id="a_edge2_Node000002_Node000003"><a xlink:title=" ">
<path fill="none" stroke="#63b8ff" d="M65,-350.71C65,-342.46 65,-333.87 65,-325.18"/>
<polygon fill="none" stroke="#63b8ff" points="61.5,-350.96 65,-360.96 68.5,-350.96 61.5,-350.96"/>
</a>
</g>
</g>
</g>
</svg>
