<?xml version="1.0" encoding="UTF-8" standalone="no"?>
<!DOCTYPE svg PUBLIC "-//W3C//DTD SVG 1.1//EN"
 "http://www.w3.org/Graphics/SVG/1.1/DTD/svg11.dtd">
<!-- Generated by graphviz version 2.43.0 (0)
 -->
<!-- Title: sen::HasValueType&lt; T, std::void_t&lt; typename T::ValueType &gt; &gt; Pages: 1 -->
<svg width="145pt" height="164pt"
 viewBox="0.00 0.00 145.00 164.00" xmlns="http://www.w3.org/2000/svg" xmlns:xlink="http://www.w3.org/1999/xlink">
<g id="graph0" class="graph" transform="scale(1 1) rotate(0) translate(4 160)">
<title>sen::HasValueType&lt; T, std::void_t&lt; typename T::ValueType &gt; &gt;</title>
<!-- Node1 -->
<g id="Node000001" class="node">
<title>Node1</title>
<g id="a_Node000001"><a xlink:title="return true if T has an &#39;using ValueType&#39; or a &#39;typedef ValueType&#39;">
<polygon fill="#999999" stroke="transparent" points="137,-71 0,-71 0,0 137,0 137,-71"/>
<text text-anchor="start" x="5.5" y="-58.5" font-family="Helvetica,sans-Serif" font-size="10.00">sen::HasValueType&lt;</text>
<text text-anchor="start" x="5.5" y="-47.5" font-family="Helvetica,sans-Serif" font-size="10.00"> T, std::void_t&lt; typename</text>
<text text-anchor="start" x="25.5" y="-36.5" font-family="Helvetica,sans-Serif" font-size="10.00"> T::ValueType &gt; &gt;</text>
<text text-anchor="start" x="67" y="-21.5" font-family="Helvetica,sans-Serif" font-size="10.00"> </text>
<text text-anchor="start" x="67" y="-6.5" font-family="Helvetica,sans-Serif" font-size="10.00"> </text>
<polygon fill="#666666" stroke="#666666" points="0.5,-31.5 0.5,-31.5 137.5,-31.5 137.5,-31.5 0.5,-31.5"/>
<polygon fill="#666666" stroke="#666666" points="0.5,-16.5 0.5,-16.5 137.5,-16.5 137.5,-16.5 0.5,-16.5"/>
<polygon fill="none" stroke="#666666" points="0,0 0,-71 137,-71 137,0 0,0"/>
</a>
</g>
</g>
<!-- Node2 -->
<g id="Node000002" class="node">
<title>Node2</title>
<g id="a_Node000002"><a xlink:title=" ">
<polygon fill="white" stroke="transparent" points="107.5,-156 29.5,-156 29.5,-107 107.5,-107 107.5,-156"/>
<text text-anchor="start" x="34.5" y="-143.5" font-family="Helvetica,sans-Serif" font-size="10.00">std::true_type</text>
<text text-anchor="start" x="66.5" y="-128.5" font-family="Helvetica,sans-Serif" font-size="10.00"> </text>
<text text-anchor="start" x="66.5" y="-113.5" font-family="Helvetica,sans-Serif" font-size="10.00"> </text>
<polygon fill="#666666" stroke="#666666" points="29.5,-138.5 29.5,-138.5 107.5,-138.5 107.5,-138.5 29.5,-138.5"/>
<polygon fill="#666666" stroke="#666666" points="29.5,-123.5 29.5,-123.5 107.5,-123.5 107.5,-123.5 29.5,-123.5"/>
<polygon fill="none" stroke="#666666" points="29.5,-107 29.5,-156 107.5,-156 107.5,-107 29.5,-107"/>
</a>
</g>
</g>
<!-- Node2&#45;&gt;Node1 -->
<g id="edge1_Node000001_Node000002" class="edge">
<title>Node2&#45;&gt;Node1</title>
<g id="a_edge1_Node000001_Node000002"><a xlink:title=" ">
<path fill="none" stroke="#63b8ff" d="M68.5,-96.7C68.5,-88.42 68.5,-79.55 68.5,-71.23"/>
<polygon fill="none" stroke="#63b8ff" points="65,-96.78 68.5,-106.78 72,-96.78 65,-96.78"/>
</a>
</g>
</g>
</g>
</svg>
