<?xml version="1.0" encoding="UTF-8" standalone="no"?>
<!-- Created with Inkscape (http://www.inkscape.org/) -->

<svg
   width="61.917431mm"
   height="63.096664mm"
   viewBox="0 0 61.917431 63.096664"
   version="1.1"
   id="svg5"
   xml:space="preserve"
   inkscape:version="1.2.2 (b0a8486541, 2022-12-01)"
   sodipodi:docname="influx_logo.svg"
   xmlns:inkscape="http://www.inkscape.org/namespaces/inkscape"
   xmlns:sodipodi="http://sodipodi.sourceforge.net/DTD/sodipodi-0.dtd"
   xmlns="http://www.w3.org/2000/svg"
   xmlns:svg="http://www.w3.org/2000/svg"><sodipodi:namedview
     id="namedview7"
     pagecolor="#ffffff"
     bordercolor="#000000"
     borderopacity="0.25"
     inkscape:showpageshadow="2"
     inkscape:pageopacity="0.0"
     inkscape:pagecheckerboard="0"
     inkscape:deskcolor="#d1d1d1"
     inkscape:document-units="mm"
     showgrid="false"
     inkscape:zoom="0.914906"
     inkscape:cx="334.46059"
     inkscape:cy="482.56323"
     inkscape:window-width="1499"
     inkscape:window-height="1236"
     inkscape:window-x="1255"
     inkscape:window-y="129"
     inkscape:window-maximized="0"
     inkscape:current-layer="layer1" /><defs
     id="defs2" /><g
     inkscape:label="Layer 1"
     inkscape:groupmode="layer"
     id="layer1"
     transform="translate(-16.771268,-21.08436)"><path
       style="fill:#00a0f5;fill-opacity:0.866667;fill-rule:evenodd;stroke-width:0.496861"
       d="m 62.766224,64.622374 14.597301,-3.353818 a 1.6644868,1.6644868 0 0 0 0.625053,-0.269796 1.6684617,1.6684617 0 0 0 0.687158,-1.145265 c 0.02883,-0.228558 0.0094,-0.459598 -0.05664,-0.6807 L 72.412298,32.184754 A 1.7385192,1.7385192 0 0 0 71.622287,31.121471 1.7340474,1.7340474 0 0 0 70.31405,30.927198 l -14.592828,3.353816 c -0.440715,0.11427 -0.819823,0.39749 -1.052354,0.791502 a 1.7151667,1.7151667 0 0 0 -0.190297,1.304262 l 6.189407,26.988038 a 1.7385192,1.7385192 0 0 0 0.790009,1.063283 c 0.392521,0.237005 0.863546,0.307062 1.308237,0.194275 z M 57.7355,81.300034 75.434212,64.876766 c 0.667782,-0.675731 0.498847,-1.091108 -0.419353,-0.759204 l -12.165162,2.770004 a 3.0914736,3.0914736 0 0 0 -1.34898,0.725419 3.0909768,3.0909768 0 0 0 -0.832739,1.284883 l -3.6892,11.901825 c -0.252405,0.921679 0.08347,1.174086 0.756722,0.500341 z m -32.292039,-5.360642 26.504593,8.208157 c 0.452144,0.08546 0.919692,0.006 1.319664,-0.223589 a 1.9611132,1.9611132 0 0 0 0.861559,-1.028503 l 4.440951,-14.249994 a 1.7290788,1.7290788 0 0 0 0.05814,-0.684676 1.7350411,1.7350411 0 0 0 -0.207689,-0.654366 1.7256008,1.7256008 0 0 0 -0.442207,-0.52568 1.7698215,1.7698215 0 0 0 -0.609649,-0.314515 L 30.864224,58.336078 a 1.7613748,1.7613748 0 0 0 -1.339042,0.15104 1.7737964,1.7737964 0 0 0 -0.842679,1.052352 l -4.411634,14.220183 a 1.7668403,1.7668403 0 0 0 0.138119,1.331588 1.7623685,1.7623685 0 0 0 1.034465,0.848144 z m -8.558939,-29.166777 5.374056,23.577084 c 0.166945,0.922174 0.599712,0.922174 0.834727,0 l 3.6892,-11.899343 a 3.3334453,3.3334453 0 0 0 0.0154,-1.546731 3.370213,3.370213 0 0 0 -0.680702,-1.387734 l -8.476958,-9.164613 c -0.587787,-0.693123 -1.026516,-0.500837 -0.756719,0.420841 z M 37.606638,21.56831 17.304868,40.400364 a 1.7241102,1.7241102 0 0 0 -0.08347,2.408786 l 10.150884,11.002505 a 1.7305694,1.7305694 0 0 0 1.199922,0.545555 1.7290788,1.7290788 0 0 0 1.234204,-0.460093 L 50.102213,35.03376 a 1.7121855,1.7121855 0 0 0 0.08546,-2.408288 L 40.054181,21.628431 a 1.7290788,1.7290788 0 0 0 -0.551515,-0.394508 1.7226196,1.7226196 0 0 0 -0.65884,-0.149049 1.6987702,1.6987702 0 0 0 -0.665793,0.118252 1.70672,1.70672 0 0 0 -0.570896,0.365193 z m 19.62405,42.632725 c 0.926149,0.252405 1.507976,-0.246443 1.262029,-1.2034 L 52.620805,37.522043 C 52.3684,36.600364 51.609692,36.347959 50.943896,37.015244 L 31.819192,54.819291 c -0.671758,0.667286 -0.504812,1.420528 0.415375,1.672933 z M 67.21264,28.667967 44.061864,21.567814 c -0.91969,-0.253898 -1.086635,0.08396 -0.33538,0.836715 l 8.473479,9.135797 a 3.2539473,3.2539473 0 0 0 1.341527,0.758706 3.2693501,3.2693501 0 0 0 1.536793,0.05465 l 12.165659,-2.764041 c 0.894351,-0.252406 0.894351,-0.673247 -0.0313,-0.921679 z m 0,0"
       id="path686" /></g></svg>
