<?xml version="1.0" standalone="no"?>
<!DOCTYPE svg PUBLIC "-//W3C//DTD SVG 1.1//EN" "http://www.w3.org/Graphics/SVG/1.1/DTD/svg11.dtd">
<svg version="1.1" xmlns="http://www.w3.org/2000/svg" viewBox="0 0 928.3896981949104 765.1994834917597" width="928.3896981949104" height="765.1994834917597"><!-- svg-source:excalidraw --><metadata></metadata><defs><style class="style-fonts">
      </style></defs><g stroke-linecap="round" transform="translate(75.95999084395453 465.0398319207002) rotate(0 27.814609871407924 25.600692988675846)"><path d="M23.9 0.29 C29.47 -0.92, 37.51 0.66, 42.49 3.49 C47.48 6.32, 51.9 12.03, 53.81 17.26 C55.73 22.49, 55.98 29.62, 53.99 34.85 C52 40.09, 47.05 46.06, 41.87 48.68 C36.69 51.29, 28.98 51.65, 22.92 50.56 C16.86 49.47, 9.2 46.26, 5.53 42.14 C1.86 38.02, 0.73 31.47, 0.91 25.85 C1.08 20.23, 2.36 12.83, 6.56 8.43 C10.77 4.04, 22.26 0.63, 26.15 -0.52 C30.04 -1.67, 29.85 0.95, 29.92 1.52 M20.55 0.6 C25.83 -0.96, 34.78 0.08, 40.13 2.75 C45.47 5.42, 50.1 11.61, 52.61 16.61 C55.11 21.61, 56.75 27.85, 55.15 32.74 C53.56 37.64, 48.21 43.05, 43.02 45.99 C37.83 48.92, 29.89 50.73, 24.03 50.33 C18.17 49.92, 11.67 47.24, 7.86 43.57 C4.05 39.89, 1.71 33.59, 1.16 28.27 C0.6 22.96, 1.05 16.02, 4.54 11.66 C8.03 7.31, 19.45 4.11, 22.1 2.13 C24.75 0.15, 20.65 -0.54, 20.44 -0.21" stroke="none" stroke-width="0" fill="#121212"></path><path d="M18.24 1.81 C23.2 -0.55, 30.05 -0.62, 35.67 1.06 C41.29 2.73, 48.54 7.16, 51.97 11.89 C55.39 16.62, 57.1 24.14, 56.24 29.43 C55.37 34.71, 51.49 39.95, 46.8 43.6 C42.11 47.26, 34.27 51.05, 28.11 51.38 C21.94 51.71, 14.34 49, 9.82 45.59 C5.3 42.17, 2.11 36.14, 1 30.88 C-0.12 25.62, 0.05 19.07, 3.15 14.01 C6.24 8.95, 16.84 2.65, 19.58 0.53 C22.31 -1.59, 19.49 0.72, 19.56 1.29 M32.73 1.75 C38.51 2.46, 44.68 5.07, 48.65 8.97 C52.62 12.87, 56.26 19.59, 56.58 25.16 C56.9 30.73, 54.39 37.92, 50.57 42.4 C46.74 46.87, 39.47 51.03, 33.6 52 C27.74 52.96, 20.91 51.09, 15.38 48.17 C9.85 45.26, 2.78 39.65, 0.4 34.5 C-1.98 29.35, -1.31 22.34, 1.09 17.29 C3.48 12.25, 9.63 7.02, 14.78 4.23 C19.92 1.44, 29.08 1.35, 31.95 0.57 C34.81 -0.22, 32.15 -0.91, 31.98 -0.49" stroke="#ededed" stroke-width="2" fill="none"></path></g><g stroke-linecap="round"><g transform="translate(100.60983954045378 515.9574411490623) rotate(0 -1.1191241354110844 31.29852106466609)"><path d="M-0.93 0.29 C-1.5 10.99, -1.98 53.03, -2.3 63.2 M0.78 -0.6 C-0.01 9.88, -2.28 51.2, -3.02 61.67" stroke="#ededed" stroke-width="2" fill="none"></path></g></g><mask></mask><g stroke-linecap="round"><g transform="translate(98.12367992644658 579.620207290179) rotate(0 11.832253695874215 19.44727207815859)"><path d="M0.43 1.13 C4.66 7.26, 20.48 30.84, 24.47 37.09 M-0.8 0.67 C3.35 6.92, 19.41 32.23, 23.46 38.22" stroke="#ededed" stroke-width="2" fill="none"></path></g></g><mask></mask><g stroke-linecap="round"><g transform="translate(96.86826911792286 578.3257089703985) rotate(0 -12.312711498125395 16.993590538234358)"><path d="M-0.11 -0.77 C-4.09 4.84, -19.59 28.79, -23.47 34.76 M-1.62 1.44 C-5.82 7.22, -20.76 27.72, -24.52 33.02" stroke="#ededed" stroke-width="2" fill="none"></path></g></g><mask></mask><g stroke-linecap="round"><g transform="translate(73.57445325501112 512.3799699805916) rotate(0 12.126546774477788 9.854953936669034)"><path d="M-0.2 0.74 C1.16 3.91, 3.67 15.28, 8.04 18.22 C12.41 21.16, 23.28 18.58, 26.02 18.4 M-1.77 0.09 C-0.56 3.01, 2.51 13.95, 7.05 16.64 C11.59 19.33, 22.64 16.06, 25.48 16.24" stroke="#ededed" stroke-width="2" fill="none"></path></g></g><mask></mask><g stroke-linecap="round"><g transform="translate(100.99574459440237 531.0261299970475) rotate(0 14.348637253366178 2.2626962365593357)"><path d="M-0.04 0.47 C2.72 1.78, 11.69 8.84, 16.42 8.15 C21.15 7.46, 26.27 -1.68, 28.37 -3.67 M-0.72 0.24 C1.99 1.34, 11.07 7.85, 16.09 7.26 C21.11 6.68, 27.24 -1.49, 29.42 -3.29" stroke="#ededed" stroke-width="2" fill="none"></path></g></g><mask></mask><g stroke-linecap="round" transform="translate(747.9065623081704 429.5816298085389) rotate(0 27.814609871408038 25.600692988675846)"><path d="M26.12 0.17 C31.62 -0.6, 38.53 0.84, 43.47 4.02 C48.41 7.21, 54.25 13.72, 55.76 19.27 C57.28 24.82, 55.16 32.25, 52.55 37.34 C49.94 42.43, 45.52 47.76, 40.12 49.82 C34.72 51.87, 26.05 51.24, 20.14 49.69 C14.23 48.15, 7.85 45.11, 4.67 40.54 C1.48 35.96, 0.39 27.79, 1.04 22.24 C1.68 16.69, 3.06 10.82, 8.51 7.22 C13.97 3.62, 28.63 1.23, 33.78 0.62 C38.92 0.01, 39.47 3.14, 39.4 3.57 M25.55 -1.06 C31.2 -1.94, 39.41 0.99, 44.4 4.26 C49.39 7.52, 53.82 13.35, 55.49 18.54 C57.17 23.73, 56.92 30.58, 54.45 35.38 C51.97 40.18, 46.29 44.69, 40.66 47.34 C35.04 50, 26.73 52.66, 20.7 51.31 C14.68 49.96, 8.13 43.78, 4.52 39.24 C0.9 34.71, -1.37 29.36, -0.97 24.09 C-0.57 18.83, 2.38 11.77, 6.91 7.65 C11.43 3.53, 22.86 0.64, 26.18 -0.64 C29.51 -1.92, 26.72 -0.48, 26.87 -0.04" stroke="#ededed" stroke-width="2" fill="none"></path></g><g stroke-linecap="round"><g transform="translate(772.5564110046696 480.49923903690103) rotate(0 -1.7448385266577588 30.812805769440715)"><path d="M-0.18 0.12 C-0.86 10.4, -2.91 52.28, -3.31 62.49 M-1.73 -0.86 C-2.07 8.97, -0.64 50.06, -0.91 60.58" stroke="#ededed" stroke-width="2" fill="none"></path></g></g><mask></mask><g stroke-linecap="round"><g transform="translate(770.0702513906624 544.1620051780177) rotate(0 12.05205352794269 18.929778748812396)"><path d="M-0.58 0.41 C3.56 6.58, 20.66 30.69, 24.69 37.12 M1.31 -0.42 C5.32 5.88, 19.69 31.99, 23.8 38.28" stroke="#ededed" stroke-width="2" fill="none"></path></g></g><mask></mask><g stroke-linecap="round"><g transform="translate(768.8148405821387 542.8675068582372) rotate(0 -12.061729878953429 17.231315545768396)"><path d="M0.12 -0.73 C-3.83 5.06, -20.33 29.47, -24.24 35.19 M-1.28 1.5 C-4.81 6.96, -18.23 28.15, -22.04 33.69" stroke="#ededed" stroke-width="2" fill="none"></path></g></g><mask></mask><g stroke-linecap="round"><g transform="translate(738.6222032520534 515.771744140042) rotate(0 15.727780444264226 -9.997603150226837)"><path d="M-0.97 1.18 C4.41 -2.22, 26.73 -17.69, 32.43 -21.18 M0.72 0.76 C5.93 -2.41, 26.1 -16.13, 31.45 -19.84" stroke="#ededed" stroke-width="2" fill="none"></path></g></g><mask></mask><g stroke-linecap="round"><g transform="translate(772.9423160586182 495.5679278848862) rotate(0 15.755081919610802 -8.529040075033166)"><path d="M-0.06 -0.37 C5.45 -0.62, 27.91 2.64, 32.05 -0.29 C36.19 -3.23, 26.29 -15.04, 24.8 -18 M-1.55 -1.61 C3.95 -1.66, 27.13 0.67, 31.48 -1.85 C35.84 -4.37, 25.99 -14.21, 24.58 -16.74" stroke="#ededed" stroke-width="2" fill="none"></path></g></g><mask></mask><g stroke-linecap="round" transform="translate(178.9976213355137 146.6345402820753) rotate(0 59.795616238769526 216.90566674847852)"><path d="M0 0 C0 0, 0 0, 0 0 M0 0 C0 0, 0 0, 0 0 M3.22 9.76 C0.17 6.67, 5.55 2.57, 10.03 0.35 M-0.51 12.71 C3.75 6.84, 9.06 3.23, 11.65 1.34 M-3.31 22.94 C5.6 15.05, 10.93 8.54, 23.17 -1.54 M-1.64 25.86 C8.93 14.38, 17.29 6.29, 20.06 0.6 M3.38 37.33 C7.41 28.75, 17.8 17.38, 35.83 -0.6 M1.07 36.69 C8.29 26.51, 18.18 16.55, 32.41 -0.72 M3.55 51.71 C14.65 34.81, 33.14 19.93, 46.31 3.78 M-2.02 49.92 C14.37 31.92, 32.33 12.76, 41.16 1.3 M-1.12 57.95 C14.28 45.24, 23.75 28.86, 55.6 -2 M0.46 60.82 C19.23 40.12, 42.45 16.87, 53.17 -0.14 M3.29 72.03 C22.04 46.87, 46.14 16.63, 66.63 0.97 M-1.35 74.04 C22.07 52.42, 40.02 26.82, 63.24 1.52 M1.6 85.46 C16.22 68.83, 25.96 53.25, 71.64 2.72 M2.15 84.11 C24.64 56.49, 46.81 29.06, 73.4 -0.13 M0.3 100.62 C33.21 62.34, 56.93 35.36, 83.56 3.02 M-1.36 97.81 C24.4 72.49, 47.97 43.92, 86.27 -0.79 M-2.45 110.37 C35.38 72.59, 72.18 37.73, 99.37 -1.95 M1.84 110.88 C21.66 78.63, 49 49.94, 96.33 0.24 M-1.43 121.22 C37.67 75.11, 79.67 30.55, 107.48 2.97 M-1.12 122.25 C31.13 84.94, 66.33 50.86, 107.26 -0.24 M1.68 132.94 C36.45 90.96, 68.03 51.7, 114.47 -0.67 M-1.77 134.66 C39.06 90.46, 78.35 42.73, 114.58 1.11 M1.03 149.92 C24.39 112.47, 56.09 82.95, 119.77 6.45 M0.36 145.15 C48.7 86.96, 95.51 32.83, 122.32 2.59 M1.25 156.55 C37.03 117.43, 73.25 69.52, 125.76 13.54 M-1.59 157.46 C41.17 109.06, 87.83 58.77, 124.99 16.69 M-0.45 172.86 C34.06 131.61, 65.87 92.05, 127.56 25.73 M0.11 172.74 C39.46 125.97, 74.93 84.13, 123.39 29.13 M-2.92 185.61 C37.22 142.33, 74.72 98.78, 121.38 40.58 M1.14 181.73 C39.11 141.64, 74.39 97.82, 124.8 38.5 M-3.06 195.98 C30.71 155.84, 65.92 125.91, 127.11 54.41 M-0.87 195.47 C32.74 164.81, 59.35 132.95, 123.62 51.57 M2.93 210.86 C31.8 171.37, 59.6 139.06, 127.04 65.67 M2.25 205.68 C47.35 147.94, 94.26 92.46, 123.94 65.8 M-1.73 222.3 C41.19 174.03, 75.67 132.83, 123.87 78.55 M-0.12 219.27 C34.82 187.13, 65.6 149.18, 123.5 77.96 M3.55 235.08 C41.93 178.79, 90.81 129.62, 124.15 86.13 M-1.43 230.96 C39.67 185.89, 79.02 139.54, 125.11 90.36 M-3.79 241.88 C27.9 209.94, 64.73 175.87, 124.24 97.99 M1.41 245.52 C40.57 201.63, 75.98 158.29, 124.5 99.53 M0.55 258.88 C40.18 208.64, 81.87 157.76, 121.08 111.6 M-0.04 254.44 C36.62 212.1, 71.54 171.56, 125.08 114.65 M2.39 265.13 C45.99 213.72, 93.59 164.09, 126.89 127.66 M0.9 266.35 C30.82 237.47, 60.07 202.28, 122.5 126.01 M-4.13 281.94 C39.8 242.16, 71.46 203.93, 127.16 141.77 M-1.32 279.48 C34.26 240.03, 65.76 200.27, 122.66 139.64 M-2.62 292.5 C38.48 248.19, 76.84 206.84, 124.09 147.53 M1.5 292.33 C40.25 246.45, 77.41 205.7, 123.04 149.58 M1.03 300.98 C42.51 251.11, 93.13 198.78, 126.61 160.17 M0.64 303.87 C39.72 256.44, 78.94 211.28, 122.65 160.5 M0.64 316.23 C49.19 267.87, 91.52 213.7, 125.06 175.91 M0.41 316.25 C40.69 271.14, 79.75 225.9, 122.71 176.16 M-3.52 327.05 C27.1 298.3, 61.16 263.57, 125.95 183.36 M-1.19 327.17 C29.44 292.61, 59.99 258.48, 125.27 185.87 M-2.04 345.66 C43.44 290.47, 87.17 240.48, 121.94 199.14 M-1.8 340.39 C36.15 297.29, 74.25 255.83, 125.16 197.12 M1.64 355.26 C46.76 298.08, 86.63 247.8, 123.29 210.99 M1.2 354.36 C40.5 300.14, 85.2 250.55, 125.37 209.85 M-1.32 365.18 C55.61 310.34, 103.78 251.83, 127.82 221.4 M-1.89 364.47 C48.24 308.31, 91.86 253.67, 125 225.06 M0.83 374.52 C33.89 340.04, 69.11 301.69, 123.69 235 M-1.18 379.68 C35.14 336.43, 71.98 295.72, 125.89 235.29 M3.13 391.48 C32.74 351.03, 76.54 305.46, 120.06 249.92 M-0.54 388.96 C37.82 343.39, 78.89 296.36, 125.28 249.04 M-1.33 400.81 C41.82 351.57, 87.48 305.92, 121.15 257.41 M-0.92 401.8 C27.28 371.34, 52.17 341.12, 125.78 261.47 M0.55 411.34 C28.19 382.57, 53.37 352.58, 121.61 268.98 M1.57 414.79 C28.25 381.86, 56.09 350.81, 124.7 270.59 M-2.65 427.18 C25.89 397.2, 57.5 358.41, 120.59 284.03 M1.04 427.89 C49.28 368.74, 95.95 314.65, 124.01 283.92 M1.73 436.3 C40.58 389.63, 81.84 351.92, 120.38 297.2 M2.4 436.06 C25.37 408.11, 50.77 376.8, 123 294.97 M17.15 433.89 C57.19 383.88, 103.02 339.14, 121.22 309.77 M13.97 433.72 C47.41 399.22, 80.03 362.35, 124.93 309.63 M25.53 435.13 C56.35 390.11, 98.64 347.29, 123.21 317.26 M23.09 434.53 C53.37 403.91, 82.37 371.66, 124.98 322.89 M30.93 434.4 C64.42 396.69, 100.44 356.63, 125.83 332.57 M33.77 435.69 C70.12 393.58, 101.91 355.39, 125.58 333.03 M41.67 437.94 C78.31 402.88, 104.24 361.24, 121.86 341.62 M44.71 437.67 C72.18 408.75, 96.83 377.59, 124.42 346.3 M57.81 435 C87.22 402.58, 107.76 373.8, 124.17 354.69 M54.73 436.41 C80.92 407.83, 106.9 375.65, 125.04 355.32 M69.1 437.46 C84.65 417.22, 100.13 394.37, 124.39 373.83 M64.68 438.01 C81.57 417.34, 100.37 397.45, 125.52 371.6 M77.76 439.22 C89.6 424.37, 95.51 411.03, 122.94 384.46 M78.09 435.16 C89.17 425.83, 98.35 411.02, 124.41 380.13 M85.78 434.79 C97.53 424.99, 108.72 406.57, 124.43 390.5 M88.49 436.83 C97.56 428.47, 102.23 418.94, 122.12 395.66 M94.35 433.93 C102.69 431.09, 108.55 423.29, 127.72 406.01 M96.75 435.95 C102.85 428.05, 111.2 422.97, 122.83 405.32 M107.22 432.3 C113.8 431.73, 123.19 418.76, 124.58 414.55 M110.33 435.11 C112.67 434.35, 115.79 427.37, 123.15 417.09" stroke="#6e757c" stroke-width="1" fill="none"></path><path d="M-3.96 -3.21 C30.08 1.58, 57.64 0.79, 122.83 0.96 M0.4 -0.95 C27.25 0.38, 53.08 2.21, 120.08 -1.1 M118.23 1.19 C123.29 87.33, 121.54 176.68, 119.87 434.86 M118.81 -0.11 C115.92 150.25, 115.72 301.54, 119.6 433.23 M121.76 434.17 C82.16 429.94, 53.33 432.25, -0.94 432.4 M121.12 434.88 C72.24 436.08, 26.62 435.54, 0.14 433.14 M-0.89 433.16 C1.65 321.5, -1.08 203.38, 0.57 1.44 M-0.79 434.71 C0.86 295.6, 0.22 157.46, -0.11 0.56" stroke="#d3d3d3" stroke-width="2" fill="none"></path></g><g stroke-linecap="round" transform="translate(529.9548983447637 146.63454028207525) rotate(0 65.26711053512781 218.85977185432068)"><path d="M0 0 C0 0, 0 0, 0 0 M0 0 C0 0, 0 0, 0 0 M1.88 11.95 C4.08 8.1, 8.53 1.42, 9.75 0.41 M1.67 10.52 C3.72 6.99, 7.77 5.68, 10.29 0.23 M-1.31 21.69 C4.12 20.13, 9.57 5.89, 24.96 -1.88 M1.36 22.85 C6.31 17.82, 10.26 13.13, 21.77 -2.05 M1.68 39.4 C12.14 26.21, 25.54 6.89, 33.34 -0.64 M-1.87 36.58 C5.46 28.34, 13.11 20.88, 30.9 -1.24 M-0.7 51.26 C17.29 35.9, 29.49 19.73, 39.39 -2.12 M0.19 49.86 C9.27 39.59, 20.03 27.69, 42.23 -0.83 M1.5 64.24 C21.45 41.69, 41.58 16.84, 50.13 1.41 M-1.67 59.85 C16.94 39.32, 36.78 17.81, 53.17 1.14 M-1.8 73.69 C25.32 48.39, 43.1 16.97, 66.27 -1.53 M0.26 72.98 C23.97 48.03, 50.53 16.66, 63.2 -0.12 M-1.96 86.7 C18.9 59.25, 41.98 32.95, 77.56 0.94 M-0.75 85.4 C24.74 59.11, 45.87 33.41, 73.14 1.48 M-0.99 101.5 C24.89 69.35, 47.38 45.91, 86.22 2.7 M0.77 97.4 C30.51 63.06, 57.98 29.28, 86.55 -1.37 M-1.47 111.07 C27.79 72.74, 66.45 32.84, 94.24 -1.74 M-1.53 110.12 C23.24 78.7, 49.46 49.33, 96.96 0.3 M0.86 118.27 C43.55 74.48, 81.06 28.52, 102.81 -2.6 M1.54 123.74 C24.53 92.4, 52.61 61.71, 105.21 -0.58 M3.1 131.45 C29.24 103.42, 59.37 64.54, 115.03 -3.47 M-1.39 134.14 C28.67 94.16, 62.37 57.41, 118.13 -0.66 M-2.09 143.87 C38.55 98.14, 82.66 50.26, 129.88 -1.73 M0.46 147.37 C32.13 104.55, 65.82 68.73, 128.46 -1.53 M-3.44 157.19 C41.97 105.58, 88.27 54.41, 127.54 9.99 M0.57 159.94 C51.26 96.03, 102.31 37.61, 131.57 8.06 M1.07 172.12 C44.35 123.56, 85.88 71.45, 132.94 22.15 M1.32 170.2 C29.9 133.15, 60.73 99.05, 129.68 18.94 M3.82 185.99 C35.15 139.24, 66.82 96.16, 126.85 36.43 M-0.71 180.95 C37.5 137.83, 77.79 91.56, 132.52 33.02 M-3.29 197.21 C40.67 137.38, 87.27 86.84, 132.77 43.23 M-1.49 196.06 C41.44 145.46, 85.45 95.21, 130.23 43.32 M-3.07 206.92 C38.07 167.05, 76.66 120.54, 128.2 57.61 M0.22 207.58 C42.84 160.3, 81.99 113.61, 130.8 58.44 M0.63 221.36 C29.88 189.66, 63.26 154.93, 133.09 66.15 M0.77 218.78 C38 175.52, 81.16 123.89, 132.66 67.9 M1.3 232.36 C40.33 187.37, 86.17 142.24, 133.57 77.52 M0.19 232.17 C44.07 182.51, 87.44 131.87, 132.02 80.04 M-2.91 247.12 C41.39 195.59, 81.06 148.87, 127.75 90.93 M0.6 244.96 C36.51 199.02, 77.73 152.11, 130.15 95.09 M0.19 252.9 C37.55 211.59, 73.59 164.03, 131.32 104.5 M-0.97 256.3 C44.1 205.03, 88.64 150.33, 132.18 107.64 M0.62 268.18 C41.46 227.23, 79.98 176.28, 134.55 116.19 M1.72 266.62 C31.3 234.85, 59.01 202.02, 132.54 118.52 M-3.38 278.14 C36.84 237.74, 73.82 195.35, 131.12 132.62 M0.71 281.69 C42.9 232.08, 82.78 184.05, 132.47 129.8 M-0.85 289.34 C39 246.6, 77.38 198.41, 132.99 145.29 M0.27 291.93 C40.34 247.16, 81.77 196.87, 129.66 141.2 M-1.6 301.81 C38.88 255.94, 78.44 205.93, 134.05 156.77 M1.4 303.11 C32.81 270.28, 65.4 230.09, 130.57 156.2 M-0.9 317.55 C48.08 258.95, 100.57 191.9, 134.11 167.52 M0.46 317 C33.88 275.52, 69.61 235.25, 129.53 167.41 M4.22 329.62 C41.77 274.06, 90.09 226.48, 132.41 177.39 M1.67 330.36 C45.11 278.06, 91.05 227.01, 129.74 178.07 M1.49 342.94 C48.38 286.8, 91.16 233.58, 128.83 187.91 M-0.32 341.94 C35.8 301, 69.33 259.22, 132.02 191.04 M-1.51 354.18 C45.61 305.73, 91.14 252.04, 133.31 204.33 M-0.43 353.21 C35.6 311.56, 71.96 271.33, 130.06 203.31 M3.35 365.75 C31.31 333.7, 56.83 295.03, 128.26 214.93 M0.08 366.06 C43.98 314.32, 90.89 264.65, 129.24 214.33 M-1.76 374.35 C40.79 335.26, 85.28 286.69, 133.7 225.87 M1.89 376.29 C39.53 333.41, 80.82 286.8, 131 228.52 M3.6 390.08 C55.6 337.83, 101.23 273.42, 134.33 243.54 M1.9 391.34 C28.87 355.55, 58.36 318.6, 132.39 239.82 M-2.03 403.66 C42.65 344.46, 95.51 289.87, 131.94 249.32 M-1.75 403.02 C44.16 350.92, 88.66 300.55, 132.59 250.31 M2.59 418.24 C41.28 373.88, 73.24 335.76, 129.16 261.98 M-0.57 414.36 C36.8 365.64, 78.55 320.48, 130.33 262.11 M0.28 429.37 C28.38 397.81, 54.97 363.15, 130.03 278.71 M-0.94 427.21 C35.7 389.19, 67.07 349.73, 132.46 276.41 M1.19 437.05 C41.32 395.74, 78.79 345.66, 129.2 286.09 M1.39 436.98 C37.72 399.13, 68.72 359.28, 132.45 290.5 M13.29 439.47 C34.96 411.92, 64.46 385.29, 132.7 298.53 M10.04 439.39 C40.85 402.52, 73.46 369.48, 132 298.84 M24.53 441.39 C57.87 401.88, 85.83 366.37, 129.11 314.68 M23.94 436.13 C62.29 391.07, 107.4 339.03, 129.67 314.59 M31.41 436.06 C53.32 407.9, 79.11 387.23, 132.07 328.53 M31.41 437.28 C54.4 410.45, 77.54 384.4, 131.34 323.76 M39.82 435.82 C69.27 415.9, 86.94 384.63, 130.99 336.85 M43.01 439.09 C76.15 401.51, 108.41 364.32, 130.97 337.74 M51.03 435.76 C77.5 407.45, 107.17 378.15, 129.06 346.78 M51.45 436.63 C73.88 419.11, 89.57 398.09, 132.46 347.93 M61.2 436.89 C77.95 418.65, 91.69 399.88, 130.7 362.97 M62.96 438.01 C79.73 420.39, 91.84 401.94, 131.08 361.95 M71.28 441.68 C86.82 418.55, 104.42 402.84, 131.53 371.18 M73.25 437.06 C90.91 424.27, 103.84 410.66, 131.37 374.33 M81.82 441.51 C97.04 428.59, 108.14 414.31, 133.1 385.69 M86.16 439.74 C100.95 420.45, 117.95 399.35, 131.79 386.94 M92.26 439.23 C106 428.28, 108.25 419.84, 129.63 396.66 M94.97 439.9 C104.37 425.85, 116.44 415.27, 131.44 399.42 M104.38 435.87 C110.21 428.56, 118.06 423.08, 133.98 413.75 M105.71 436.87 C116.97 429.64, 127.25 416.01, 129.92 409.9 M113.64 437.15 C123.29 431.36, 122.93 434.19, 129.1 425.25 M118.47 439.23 C118.48 435.34, 124.18 430.45, 130.75 421.13 M127.96 438.81 C129.19 435.93, 130.2 434.45, 131.79 434.35 M127.5 438.37 C128.82 437.21, 128.72 436.61, 130.6 434.23" stroke="#6e757c" stroke-width="1" fill="none"></path><path d="M-3.91 -1.74 C32.7 5.06, 60.12 0.05, 127.66 0.64 M1.46 -1.44 C28.21 1.25, 56.5 0.91, 131.21 -1.37 M132.43 -1.52 C131.58 172.63, 129.86 345.52, 129.45 439.13 M131.27 -0.14 C125.38 149.84, 126.6 299.49, 129.99 437.28 M128.78 436.13 C100.3 438.9, 65.46 434.82, -1.59 436.58 M130.69 438.35 C95.99 434.75, 62.22 435.17, 0.69 436.99 M0.04 435.81 C0.46 326.06, -3.39 212.13, 0.15 0.31 M0.7 437.1 C-4.37 342.11, -4.45 248.63, -0.62 0.82" stroke="#d3d3d3" stroke-width="2" fill="none"></path></g><g stroke-linecap="round" transform="translate(107.86819548285871 10) rotate(0 309.9210697865649 67.92644911986926)"><path d="M0 0 C0 0, 0 0, 0 0 M0 0 C0 0, 0 0, 0 0 M-2.83 9.08 C0.78 7.96, 7.06 3.48, 10.32 2.47 M0.24 13.44 C3.48 9.33, 6.35 5.28, 9.35 1.19 M-0.07 24.72 C1.37 15.78, 12.37 11.97, 23.54 0.74 M1.48 24.66 C7.85 15.65, 17.98 6.75, 20.28 -1.56 M1.49 39.61 C16.23 25.77, 24.83 11.73, 28.2 -0.47 M0.95 35.63 C11.49 24.92, 19.38 12.91, 30.96 -1.46 M0.29 51.15 C8.85 37.14, 16.86 25.73, 42.09 -3.86 M-2.08 48.46 C13.32 34.35, 23.85 19.84, 43.34 1.72 M-2.85 62.67 C15.16 41.41, 28.45 26.05, 54.38 0.58 M0.48 62.61 C14.66 40.06, 31.97 22.82, 53.68 -0.86 M3.81 75.09 C24.95 45.3, 43.27 28.73, 60.07 3.5 M-0.18 71.55 C25.57 43.71, 50.96 13.35, 61.87 -1.47 M-3.12 86.98 C24.78 50.9, 54.84 20.07, 74.69 3.65 M-0.69 84.82 C25 54.99, 46.63 29.23, 75.16 -0.49 M-4.17 98.73 C35.26 61.28, 58.11 27.86, 88.91 -0.81 M1.48 96.08 C26.69 63.34, 56.96 26.99, 85.82 -1.12 M-3.77 108.91 C33.91 74.72, 58.51 41.52, 99.13 -0.9 M0.37 109.4 C17.74 88.46, 39.82 65.14, 94.85 -2.06 M-3.58 122.15 C28.17 91.23, 55.71 62.92, 110.15 -1.46 M1.26 123.16 C24.23 95.75, 48.15 66, 105.62 -0.19 M2.77 137.52 C43.39 87.36, 89.49 33.79, 117.08 -1.03 M1 132.26 C25.92 102.8, 51.12 72.35, 114.99 1.49 M12.22 134.84 C46.47 92.46, 87.66 51.19, 126.68 -3.46 M7.57 134.43 C33.84 109.32, 58.32 79.39, 125.51 0.14 M23.21 133.19 C46.77 102.92, 68.35 71.74, 135.96 -2.04 M18.11 134.7 C62.25 84.79, 106.71 36.9, 137.27 0.97 M30.04 139.72 C58.45 104.37, 85.55 71.77, 145.47 0.88 M30.35 138.07 C63.86 99.57, 95.39 60.17, 148.15 -0.53 M38.86 135.97 C84.08 81.17, 134.45 26.97, 157.27 -2.01 M41.62 137.83 C79.39 90.31, 118.59 41.9, 156.88 1.51 M48.32 139.55 C84.9 90.28, 128.84 45.18, 169.56 0.44 M50.61 137.16 C90 89.79, 127.26 46.36, 168.72 0.67 M59.55 140.26 C85.92 107.23, 110.88 77.64, 183.26 1.17 M62.36 135.17 C102.1 92.48, 142.21 47.06, 179.14 1.51 M69.4 140.44 C117.41 88.86, 158.94 37.09, 188.7 -1.71 M70.62 135.22 C103.35 107.34, 127.93 73.71, 191.52 0.91 M85.11 134.87 C117.72 98.9, 142.8 64.93, 204.21 -1.49 M83.56 134.74 C110.6 107.67, 135.12 74.98, 200.83 -0.61 M93.62 135.15 C143.77 86.77, 193.11 33.58, 214.74 0.43 M94.11 137.54 C138.05 85.95, 182.31 35.64, 211.32 -1.61 M103.47 137.8 C141.33 94.3, 172.52 56.23, 226.49 -2.01 M104.97 135.87 C138.29 100.87, 167.48 63.11, 224.2 -0.39 M111.45 135.66 C159.47 81.34, 205.93 27.07, 229.55 3.8 M116.3 137.73 C155.8 88.07, 197.72 37.54, 231.35 -1.68 M121.24 133.25 C170.59 85.26, 208.6 37.55, 244.5 -3.47 M123.43 136.17 C160.51 94.89, 194.78 57.6, 242.97 -1.33 M134.04 134.14 C174.63 93.66, 211.17 48.81, 253.08 0.28 M136.53 136.63 C164.47 103.15, 192 70.58, 253.32 -1.03 M143.15 140.35 C177.56 98.92, 212.84 63.18, 268.74 -0.03 M146.29 138.25 C184.45 89.47, 227.36 43.81, 264.33 -0.92 M156.63 139.68 C192.12 94.76, 228.03 57.08, 275.34 -3.32 M155.62 137.16 C193.69 93.1, 233.7 45.8, 275.39 1.63 M167.94 137.15 C203.77 97.26, 238.79 59.58, 289.74 3.09 M169.34 135.8 C207.34 93.1, 244.95 51.15, 286.94 -0.6 M178.52 134.31 C202.34 104.26, 232.23 68.91, 300.42 2.76 M177.85 138.23 C203.63 104.98, 227.96 73.86, 298.22 0.61 M192.45 136.66 C225.62 98.65, 254.2 69.88, 306.12 1.61 M190.84 135.48 C217.47 105.47, 241.37 74.49, 306.92 0.22 M199.06 133.01 C225.91 105.96, 250.4 74.62, 318.45 3.21 M200.97 136.81 C236.57 96.09, 270.21 53.1, 318.91 1.26 M207.56 134.83 C249.24 88.39, 287 44.76, 328.54 -3.8 M209.54 135.05 C255.59 89.86, 293.76 44.96, 327.87 -1.86 M221.66 139.68 C260.14 92.16, 294.65 47.85, 341.63 1.65 M222.2 137.89 C254.4 99.41, 285.55 60.01, 341.04 -2.04 M234.22 138.53 C255.45 106.57, 279.05 74.14, 351.07 -2.8 M230.63 137.24 C271.77 89.8, 312.34 45.72, 350.2 0.58 M241.82 135.17 C276.52 90.24, 316.21 53.32, 359.56 1.41 M240.23 136.49 C268.38 104.93, 293.01 72.36, 360 0.89 M255.44 137.57 C286.72 98.83, 320.2 63.04, 373.83 1.65 M251.8 135.85 C282.08 100, 308.71 67.69, 371.74 0.69 M267.07 137.26 C293.45 104.76, 322.4 71.66, 377.89 -1.52 M265.22 135.66 C306.18 84.67, 349.41 34.7, 379.63 -1.03 M276.31 132.71 C309.39 104.44, 339.45 66.07, 395.01 1.76 M273.17 137.7 C316.03 91.63, 357.99 45.47, 393.86 -0.05 M280.36 133.44 C309.63 101.14, 344.92 70.18, 402.35 -1.95 M284.14 137.24 C318.76 96.74, 352.91 62.3, 402.26 -1.57 M295.29 140.4 C340.25 86.75, 386.66 31.03, 409.54 1.95 M294.72 137.39 C330.61 95.89, 367.43 54.77, 414.01 -0.91 M302.68 137.85 C345.79 91.29, 382.41 48.92, 421.37 -0.5 M305.39 136.85 C337.52 98.45, 373.51 61.83, 425.33 1.79 M318.91 137.75 C346.18 100.61, 376.93 69.33, 436.39 -0.44 M316.82 136.29 C355.09 86.51, 398.2 38.48, 435.14 0.89 M329.11 135.84 C368.31 91.64, 408.48 48.46, 441.49 1.15 M324.89 138.37 C353.74 101.8, 383.66 67.08, 446.77 -1.42 M337.77 135.08 C374.68 93.99, 416.17 51.61, 458.6 -3.13 M338.38 137.07 C387.85 80.24, 432.89 28.3, 455.65 0.15 M351.42 132.95 C377.18 107.29, 398.98 72.99, 467.27 -3.75 M346.66 136.99 C372.69 106.97, 398.57 77.45, 466.97 -0.64 M357.2 136.89 C387.57 106.1, 416.35 70.84, 475.29 -2.88 M357.4 134.67 C395.01 97.55, 424.88 57.51, 475.42 1.71 M369.49 135.65 C412.27 81.66, 461.8 27.54, 489.35 0.99 M368.22 137.92 C414.46 87.31, 461.21 33, 486.8 1.74 M376.58 138.64 C418.88 93.14, 463.56 47.02, 497.63 0.45 M380.38 135.08 C413.43 95.26, 448.9 53.05, 497.8 -1.58 M387.23 139.34 C427.78 85.79, 469.2 40.13, 512.43 2.5 M390.52 138.4 C417.3 106.13, 446.79 70.11, 509.59 0.36 M401.36 138.68 C434.8 95.07, 467.68 55.47, 520.83 -0.04 M400.27 137.29 C432.19 97.77, 467.65 57.71, 519.59 1.19 M408.62 140.38 C444.51 101.67, 475.93 60.94, 527.28 2.84 M412 137.69 C448.62 92.09, 487.6 48.73, 531.13 0.86 M423.06 134.35 C457.93 99.39, 489.2 64.39, 544.21 1.7 M422.49 135.35 C465.89 89.15, 504.22 46.58, 541.09 0.95 M433.71 140.05 C472.99 84.56, 519.27 36.2, 554.71 -0.98 M434.58 135.12 C457.84 106.42, 484.27 75.09, 549.68 -2.05 M447.25 133.88 C492.84 85.65, 541.44 31.66, 559.11 -3.38 M442.93 136.31 C476.7 92.25, 516.79 50.46, 564.05 -1.35 M454.6 132.57 C501.7 87.13, 539.86 36.66, 569.62 2.98 M453.64 136 C497.24 87.75, 536.46 42.34, 571.99 1.35 M465.57 136.48 C500.1 102, 529 57.9, 584.3 -2.6 M465.96 134.29 C501.98 96.04, 541.36 55.16, 581.02 0.04 M475.46 133.09 C500.49 108.15, 532.07 74.81, 592.3 -1.65 M476.01 137.7 C499.55 105.92, 526.43 76.73, 594.61 -1.42 M483.71 136.27 C526.17 93.01, 564.75 51.88, 600.57 -0.63 M486.41 136.41 C532.06 82.12, 578.75 32.06, 604 -1.37 M492.52 133.73 C525.64 102, 549.57 76.07, 615.08 -2.57 M498.01 135.63 C537.86 88.53, 577.12 40.03, 616.51 1.9 M509.45 134.32 C549.82 95.08, 586.94 42.89, 617.56 3.11 M507.56 136.84 C532.87 107.77, 559.4 80.66, 621.27 4.27 M513.43 140.25 C549.1 101.96, 574.07 71.83, 618.63 19.86 M518.76 137.95 C554.42 91.32, 593.12 46.58, 621.44 17.01 M523.96 135.38 C547.02 112.04, 567.71 87.14, 616.39 31.41 M526.54 135.53 C557.28 102.18, 583.62 68.54, 621.93 30.12 M539.84 133.14 C558.11 113.96, 576.73 91.98, 619.92 45.98 M536.84 136.64 C562.22 109.3, 586.48 84.31, 619.86 42.44 M552.42 132.89 C564.22 114.58, 580.62 96.27, 623.8 58.58 M550.9 137.18 C573.82 111.9, 596.93 82.98, 620.18 55.94 M559.53 140.04 C576.76 111.22, 595.68 89.5, 622.73 70.9 M560.3 137.92 C572.55 120.53, 584.29 106.25, 621.4 65.52 M568.14 133.47 C586.03 120.67, 600.55 105.6, 620.84 75.7 M568.67 137.82 C588.79 116.67, 605.03 96.46, 621.89 79.35 M576.97 132.82 C596.16 119.57, 608.13 104.27, 617.65 88.92 M579.34 137.32 C592.47 125.65, 601.53 109.83, 620.95 92.92 M595.12 133.94 C602.33 127.53, 609.36 118.27, 622 105.82 M593.04 135.72 C597.64 129.36, 605.62 121.29, 617.78 105.06 M600.7 136.24 C609.24 133, 606.07 127.87, 617.35 113.31 M603.61 138.4 C608.64 129.03, 614.2 125.19, 619.87 116.33 M614.24 135.15 C615.56 133.81, 615.59 132.53, 620.23 129.12 M612.15 137.44 C614.35 133.56, 617.95 130.78, 619.26 128.5" stroke="#6e757c" stroke-width="1" fill="none"></path><path d="M-0.4 -0.55 C230.64 -5.75, 462.4 -5.58, 620.04 -0.25 M-0.77 -0.13 C160.94 2.43, 322.52 2.76, 620.3 -0.03 M616.31 0.95 C616.92 44.84, 623.44 92.53, 623.51 135.36 M621.57 0.45 C623.05 36.42, 621.99 74.53, 621.18 134.77 M620.22 137.17 C462.57 140.87, 303.51 139.88, 1.27 136.84 M619.53 135.44 C450.05 135, 281.5 134.48, 0 136 M1.78 136.55 C-2.59 97.71, 4.12 58.75, 2.36 -2.73 M-1.24 136.45 C0.44 84.84, -0.11 35.29, 1.44 0.03" stroke="#d3d3d3" stroke-width="2" fill="none"></path></g><g stroke-linecap="round"><g transform="translate(365.0284274116859 33.2964441432307) rotate(0 -17.097314489389646 20.88879523028379)"><path d="M1.78 0.19 C-6.13 8.08, -13.9 17.01, -35.83 39.89 M0.1 -0.11 C-10.05 11.69, -19.4 21.61, -35.98 41.88" stroke="#d3d3d3" stroke-width="2" fill="none"></path></g></g><mask></mask><g stroke-linecap="round"><g transform="translate(370.49992170804376 50.49256907464161) rotate(0 -7.2841445793505954 8.098600356993813)"><path d="M-1.57 0.1 C-1.44 4.86, -7.53 6.09, -14.88 15.87 M0.31 0.87 C-2.99 3.56, -5.87 7.47, -13.93 16.1" stroke="#d3d3d3" stroke-width="2" fill="none"></path></g></g><mask></mask><g stroke-linecap="round"><g transform="translate(11.89882350154221 560.6530950975264) rotate(0 82.46168893276024 -0.049355255103421314)"><path d="M0.72 0.25 C56.64 -1.68, 117.55 -2.08, 162.09 -0.35 M-1.9 1.89 C66.15 -2.26, 131.1 -2.46, 166.82 -1.54" stroke="#d3d3d3" stroke-width="2" fill="none"></path></g></g><mask></mask><g stroke-linecap="round"><g transform="translate(298.76145303916996 562.2064881325791) rotate(0 114.94071256768734 0.41619080083920323)"><path d="M2.14 1.22 C86.57 1.56, 165.23 0.47, 230.13 -1.37 M-0.25 -1.57 C47.19 2.59, 95.12 2.97, 229.62 1.87" stroke="#d3d3d3" stroke-width="2" fill="none"></path></g></g><mask></mask><g stroke-linecap="round"><g transform="translate(658.7532361042283 558.9886748253628) rotate(0 127.66290235322549 -2.0748353558431916)"><path d="M0 0 C0 0, 0 0, 0 0 M0 0 C0 0, 0 0, 0 0 M3.11 -2.92 C64.05 -1.18, 127.12 -1.21, 252.9 -5.23 M1.36 0.99 C76.45 1.27, 156.05 1.12, 255.33 -2.64" stroke="#d3d3d3" stroke-width="2" fill="none"></path></g></g><mask></mask><g stroke-linecap="round"><g transform="translate(323.4462754343351 565.5533076303641) rotate(0 9.347387875296135 -13.972877729011785)"><path d="M0.49 0.69 C-0.09 -3.16, -1.1 -5.17, -5.96 -12.77 M-0.21 0.29 C-1.75 -4.09, -2.81 -6.67, -5.47 -12.27 M-5.57 -11.33 C-2.47 -9.72, 0.57 -8.56, 3.82 -6.96 M-5.65 -12.05 C-3.31 -10.94, -1.3 -9.61, 3.38 -7.38 M3.54 -6.72 C3.33 -10.59, 2.59 -12.21, 3.01 -19.39 M3.6 -7.3 C3.53 -12.55, 2.62 -16.87, 2.65 -20.48 M2.75 -20.62 C3.53 -17.49, 6.46 -16.26, 8.31 -12.57 M2.42 -19.75 C3.73 -18.63, 4.9 -17.06, 8.21 -13.44 M7.39 -12.96 C9.14 -20.05, 9.43 -25.93, 10.21 -26.5 M7.98 -13.23 C9.17 -18.31, 10.4 -23.29, 10.76 -27.64 M11.69 -26.37 C11.11 -22.98, 15.72 -14.78, 17.06 -7.51 M11.75 -28.64 C12.53 -22.89, 13.96 -17.04, 15.62 -8.9 M15.6 -8.51 C18.85 -10.07, 20.19 -11.8, 24.2 -15.22 M15.16 -8.94 C19.04 -10.95, 22.5 -13.19, 24.65 -14.31 M24.07 -14.66 C23.04 -12.65, 23.42 -7.77, 21.49 -4.52 M24.66 -14.37 C24.35 -11.2, 22.47 -9.03, 20.33 -4.45" stroke="#d3d3d3" stroke-width="2" fill="none"></path></g></g><mask></mask><g stroke-linecap="round"><g transform="translate(210.57277982085975 522.7690069724357) rotate(0 24.36371149520187 -74.7210172003758)"><path d="M1.17 -3.3 C11.94 -20.05, 24.27 -44.13, 50.61 -109.65 M-1.88 -0.21 C9.25 -23.8, 22.14 -48.51, 50.35 -104.29 M46.91 -106.03 C40.29 -103.35, 29.19 -101.92, 17.16 -96.31 M47.94 -104.97 C39.69 -104.99, 28.37 -98.97, 19.4 -98.93 M21.07 -100.35 C21.8 -118.09, 23.65 -125.03, 30.82 -146.38 M19.96 -101.08 C22.46 -110.57, 25.61 -120.76, 30.89 -149.23" stroke="#6e757c" stroke-width="1" fill="none"></path></g></g><mask></mask><g stroke-linecap="round"><g transform="translate(528.3351222159861 99.08588377893369) rotate(0 62.726978463103706 -18.177489004517895)"><path d="M3.99 2.27 C11.89 -14.84, 26.11 -23.56, 36.5 -36.09 M1.89 1.05 C12.85 -12.8, 25.16 -27.96, 36.46 -34.33 M37.95 -37.71 C39.67 -33.66, 42.98 -26.48, 42.81 -24.89 M35.59 -35.39 C39.29 -31.16, 40.59 -27.31, 43.53 -23.71 M44.82 -24.54 C60.74 -28.74, 80.51 -32.5, 123.57 -35.2 M42.9 -23.77 C73.01 -30.42, 103.85 -33.75, 121.37 -38.62" stroke="#6e757c" stroke-width="1" fill="none"></path></g></g><mask></mask><g stroke-linecap="round"><g transform="translate(632.3474204774541 291.84262000660806) rotate(0 -11.295536693717622 104.62604302518383)"><path d="M2.38 2.01 C-0.46 2.68, -5.59 9.59, -19.87 22.66 M0.18 -1.41 C-6.36 5.54, -11.11 11.76, -19.44 27.02 M-17.76 22.41 C-15.4 42.85, -14.01 53.14, -13.3 74.62 M-17.3 24.73 C-15.71 38.62, -12.84 48.62, -10.64 73.04 M-10.22 71.08 C-16.19 91.81, -22.36 108.96, -23.86 133.82 M-8.81 73.33 C-13.09 91.13, -18.08 107.31, -24.97 135.25 M-21.23 139.4 C-24.39 154.74, -23.32 166.72, -14.64 209.23 M-22.45 137.22 C-22.18 159.51, -17.89 180.27, -17.03 210.66" stroke="#6e757c" stroke-width="1" fill="none"></path></g></g><mask></mask><g stroke-linecap="round"><g transform="translate(227.7491226530285 191.64728681895554) rotate(0 16.683806792204678 69.22904871583376)"><path d="M3.7 1.28 C10.3 10.83, 15.29 20.38, 23.92 38.45 M-1.52 1.73 C7.75 8.42, 12.37 20.59, 26.54 40.21 M23.93 43.47 C19.88 45.34, 18.88 58.83, 13.68 70.75 M23.8 42.92 C22.84 51.4, 18.14 63.45, 14.56 75.4 M13.75 74.36 C18.81 85.98, 21.12 94.95, 22.31 122.42 M16.14 74.43 C16.25 89.18, 19.89 103.77, 20.27 119.23 M23.12 122.71 C23.44 124.22, 30.62 134.44, 33.27 133.84 M21.19 120.56 C25.63 122.3, 25.97 127.54, 34.89 137.17" stroke="#6e757c" stroke-width="1" fill="none"></path></g></g><mask></mask><g stroke-linecap="round"><g transform="translate(200.0761258678674 246.99328038927786) rotate(0 5.0111994553037675 80.29320908302537)"><path d="M-0.97 3.86 C-0.06 8.12, 3.95 20.46, 10.5 36.49 M0.55 -0.33 C1.18 9.29, 2.22 17.39, 7.38 38.98 M4.33 37.33 C1.73 52.56, 0.13 68, 2.33 88.41 M8.04 38.07 C5.04 59.38, 1.15 81.56, -1.39 91.55 M-1.36 95.32 C0.34 117.01, 5.29 143.4, 11.42 160.92 M0.11 91.22 C2.82 116.62, 7.62 146.38, 8.18 159.91" stroke="#6e757c" stroke-width="1" fill="none"></path></g></g><mask></mask><g stroke-linecap="round"><g transform="translate(584.6353570547624 260.3526581476316) rotate(0 -8.17834341992193 79.46060026489027)"><path d="M-0.57 0.4 C0.73 6.57, -0.4 24.34, 0.87 41 M0.49 -1.21 C2.31 10.78, 2.8 25.86, 2.23 43.82 M3.46 45.95 C-1.65 68.08, -8.43 83.4, -19.81 105.12 M0.12 45.87 C-6.25 67.61, -11.28 93.37, -18.72 106.41 M-15.41 102.3 C-18.04 116.56, -11.14 137.88, -12.19 156.5 M-15.4 103.73 C-13.41 123.58, -12.91 139.19, -12.04 160.13" stroke="#6e757c" stroke-width="1" fill="none"></path></g></g><mask></mask><g stroke-linecap="round"><g transform="translate(609.4456300345621 180.19639159750955) rotate(0 1.6587332414355842 44.20747788305704)"><path d="M1.53 3.94 C1.24 13.68, 1.71 23.21, 9.2 42.11 M-0.69 0.55 C1.73 10.18, 2.46 19.54, 6.88 37.95 M6.43 35.61 C4.81 51.78, 2.6 59.9, -5.88 87.87 M5.51 37.56 C4.7 54.93, 1.42 68.38, -2.82 83.64" stroke="#6e757c" stroke-width="1" fill="none"></path></g></g><mask></mask><g stroke-linecap="round"><g transform="translate(167.63192274043718 111.4910202688335) rotate(0 49.29046449668067 -29.331034376130987)"><path d="M-2.01 -3.09 C15.26 -9.11, 31.66 -10.81, 61.63 -19.74 M1.06 1 C15.33 -4.29, 32.23 -8.81, 59.85 -19.86 M61.27 -24.37 C71.02 -34.92, 90.6 -47.54, 100.6 -59.66 M59.01 -22.58 C72.29 -33.58, 85.86 -45.1, 99.31 -58.26" stroke="#6e757c" stroke-width="1" fill="none"></path></g></g><mask></mask><g stroke-linecap="round"><g transform="translate(579.8641507124933 474.10270228129025) rotate(0 -9.538677861105043 51.69631058994037)"><path d="M0.27 -3.58 C-5.61 16.63, -11.45 25.84, -19.35 43.68 M-1.52 1.4 C-5.12 14.28, -12.2 29.04, -17 45.44 M-13.56 42.19 C-17.77 67.63, -17.25 82.75, -13.28 106.97 M-16.03 45.79 C-16.75 63.56, -15.54 83.49, -14.48 103.23" stroke="#6e757c" stroke-width="1" fill="none"></path></g></g><mask></mask><g stroke-linecap="round"><g transform="translate(523.563915873717 583.3710690363346) rotate(0 -5.319936204414262 81.07816537293779)" fill-rule="evenodd"><path d="M-347.03 -7.52 C-347.03 -7.52, -347.03 -7.52, -347.03 -7.52 M-347.03 -7.52 C-347.03 -7.52, -347.03 -7.52, -347.03 -7.52 M-344.81 -4.79 C-343.5 -4.6, -342.43 -6.38, -341.77 -6.68 M-345.02 -3.78 C-344.05 -5.36, -342.38 -6.51, -341.95 -7.01 M-343.53 -0.57 C-339.09 -2, -338.62 -5.3, -338.34 -6.72 M-342.72 -0.28 C-341.05 -3.01, -338.35 -6.08, -336.49 -6.74 M-337.78 3.82 C-339.81 -0.35, -335.95 -2.62, -331.49 -9.44 M-338.84 2.35 C-338.69 0.35, -336.21 -1.19, -330.9 -6.19 M-340.1 6.36 C-337.63 -0.47, -329.76 -3.47, -329.22 -7.27 M-337.86 4.67 C-334.2 2.4, -329.78 -4.15, -327.09 -5.52 M-336.55 5.45 C-325.65 0.88, -322.09 -0.81, -319.61 -9.56 M-336.32 8.95 C-329.68 1.14, -325.4 -3.21, -319.5 -8.15 M-333.13 15.29 C-328.54 7.55, -318.18 -2.07, -317.47 -7.89 M-333.87 10.63 C-326.93 6.23, -323.41 -1.89, -314.88 -7.86 M-332.67 17.66 C-321.14 8.87, -316.92 2.54, -306.36 -6.07 M-328.2 16.53 C-325.85 7.81, -318.98 2.81, -309.5 -5.41 M-330.64 15.94 C-322.03 8.65, -315.11 7.65, -306.04 -8.32 M-329.47 18.65 C-320.86 9.49, -316 4.3, -304.2 -7.41 M-402.3 111.62 C-402.01 111.22, -401.22 110.58, -400.68 109.01 M-402.72 110.99 C-401.73 110.75, -401.61 109.7, -400.62 109.05 M-324.05 22.46 C-317.33 16.99, -314.39 4.86, -295.96 -9.03 M-325.34 20.93 C-315.89 12.5, -309.49 3.37, -298.68 -7.85 M-399.17 114.33 C-399.39 113.38, -398.26 111.12, -395.64 109.03 M-400.41 114.18 C-398.66 113.17, -396.34 110.12, -395.97 109.08 M-318.7 25.73 C-316.95 15.54, -306.12 11.15, -291.54 -4.85 M-321.34 25.15 C-310.77 13.92, -300.64 2.16, -295.49 -8.15 M-395.6 115.81 C-393.63 117.54, -393.05 114.95, -388.15 108.24 M-398.83 117.58 C-395.12 114.29, -393.3 111, -389.19 108.59 M-323.3 29.59 C-307.54 13.51, -299.25 3.37, -285.79 -8.42 M-319.64 28.34 C-309.86 16.64, -298.83 0.16, -288.43 -7.71 M-397.47 120.52 C-388.47 116.95, -390.01 113.74, -381.77 111.15 M-394.07 120.61 C-393.52 116.24, -387.37 112.88, -383.01 108.02 M-315.66 29.66 C-301.18 18.9, -289.21 1.06, -284.82 -4.35 M-316.41 29.72 C-307.94 21.79, -297.33 7.5, -282.29 -6.42 M-395.26 124.07 C-386.03 122.12, -383.73 121.27, -375.64 105.7 M-392.24 124.62 C-385.48 117.86, -380.66 110.54, -378.15 108.19 M-313.3 36.41 C-305.91 27.1, -302.19 20.27, -281.73 -6.88 M-314.43 35.76 C-301.37 19.9, -290.75 7.28, -280.76 -8.47 M-392.29 127.93 C-381.94 120.25, -378.88 112.33, -369.75 109.82 M-390.06 127.19 C-383.63 118.81, -376.48 111.06, -373.92 106.44 M-312.82 38.33 C-295.23 22.07, -288.55 6.03, -272.09 -5.22 M-312.46 37.37 C-302.73 28.85, -295.71 17.02, -271.91 -5.57 M-389.9 128.25 C-382.97 126.47, -378.98 117.33, -370.54 109.78 M-387.64 130.84 C-379.47 119.62, -369.91 113.48, -367.19 106.45 M-309.21 37.26 C-303.69 32.33, -293.78 19.4, -271.15 -9.53 M-310.58 39.19 C-297.06 25.63, -283.46 13.32, -267.38 -4.98 M-382.76 130.15 C-380.66 128.37, -369.65 119.98, -363.99 109.49 M-386.94 132.46 C-377.46 125.71, -369.76 119.02, -363.04 108.45 M-310.51 47.34 C-298.46 31.85, -288.31 21.64, -264.59 -4.88 M-306.79 44.6 C-297.18 28.45, -283.23 14.83, -263.18 -5.48 M-386.63 134.77 C-374.34 128.31, -361.59 112.52, -359.78 103.65 M-384.89 136.39 C-378.1 131.39, -368.31 119.77, -357.16 107.91 M-305.83 46.51 C-296.3 36.89, -280.72 24.16, -257.79 -5.28 M-303.11 49.16 C-286.7 31.62, -271.86 10.57, -258.88 -5.36 M-378.3 143.37 C-371.71 129.42, -358.42 112.95, -352.69 110.75 M-379.39 140.44 C-371.6 130.36, -359.66 115.82, -351.26 106.5 M-304.02 47.54 C-286.91 39.62, -275.71 20.46, -250.54 -7.7 M-302.17 49.67 C-289.95 37.22, -276.61 22.26, -250.42 -6.49 M-379.66 145.23 C-361.75 132.27, -354.68 113.68, -346.53 109.64 M-379.31 145.9 C-371.31 134.65, -361.01 127.14, -346.96 106.6 M-296.32 52.5 C-281.05 32.94, -254.99 8.43, -246.36 -6.03 M-299.91 52.66 C-282.57 35.2, -264.13 15.18, -245.33 -6.22 M-373.65 145.7 C-362.5 136.48, -350.33 122.84, -339.52 104.44 M-374.49 147.51 C-369.42 139.33, -360.52 130.39, -341.21 106.33 M-295.01 59.78 C-283.24 41.45, -270.88 25.91, -243.18 -9.1 M-298.22 55.36 C-281.09 43.22, -267.55 24.78, -239.47 -5.47 M-372.24 154.22 C-365.18 137.45, -348.67 126.58, -336.92 105.37 M-373.72 151.5 C-356.67 132.74, -343.37 114.17, -332.93 106.26 M-293.47 63.59 C-277.66 44.63, -261.33 29.02, -234.61 -6.68 M-294.99 59.22 C-276.84 39.16, -260.35 19.59, -236.3 -8.67 M-372.52 156.25 C-365.58 141.34, -351.51 131.14, -331.1 108.67 M-370.8 153.55 C-357.44 139.62, -346.28 125.07, -329 103.46 M-288.78 60.92 C-279.5 43.07, -258.93 23.64, -233.37 -2.71 M-292.71 62.91 C-274.37 42.73, -255.46 23.97, -232.29 -7.04 M-367.93 156.59 C-358.64 142.26, -341.11 127.82, -322.09 109.44 M-369.8 156.08 C-352.09 141.15, -337.63 124.85, -322.93 106.18 M-293.09 70.87 C-265.07 36.74, -241.28 12.78, -229.25 -9.12 M-291.88 67.59 C-272.16 47.91, -252.48 27.47, -224.87 -6.33 M-362.98 162.36 C-351.38 147.2, -338.09 125.05, -319.06 102.54 M-365.75 161.21 C-356.99 146.97, -343.12 136.68, -318.23 104.9 M-288.98 65.81 C-260.85 45.08, -242.75 20.11, -219.04 -7.45 M-288.28 70.1 C-262.46 40.48, -237.93 11.39, -220.41 -6.57 M-365.26 166.47 C-349.4 138.89, -326.8 117.53, -316.2 107.19 M-362.67 164.28 C-351.41 152.54, -340.36 139.56, -310.35 106.84 M-284.02 74.45 C-267.55 50.8, -245.49 27.52, -215.97 -3.98 M-285.65 72.03 C-269.89 55.15, -256.97 37.83, -217.58 -3.05 M-360.08 170.64 C-347.02 149.97, -334.7 135.95, -310.08 103.9 M-362.22 166.87 C-340.21 144.54, -322.38 122.84, -306.05 102.92 M-278.9 77.29 C-270.05 60.47, -256.78 42.24, -213.66 -1.67 M-281.69 77.18 C-262.87 54.76, -242.58 31.91, -213.38 -0.37 M-361.82 172.68 C-338.97 147.27, -313.45 126.64, -304.38 103.23 M-357.02 169.99 C-344.44 152.73, -326.18 133.6, -302.05 102.52 M-282.03 77.67 C-265.39 59.32, -249.89 43.36, -212.83 2.33 M-280.78 80.56 C-257.73 56.15, -235.8 28.53, -211.81 0.07 M-350.61 166.67 C-327.79 144.05, -310.13 121.42, -297.79 101.84 M-353.36 168.39 C-336.75 154.31, -323.39 136.84, -295.05 103.52 M-280.87 80.98 C-250.66 54.72, -232.17 26.74, -206.53 2.7 M-279.23 81.67 C-254.05 55.52, -229.15 27.1, -211.11 4.15 M-350.25 166.29 C-333.8 156.99, -323.74 142.12, -288.1 102.42 M-347.09 167.8 C-335.88 153.8, -320.45 139.97, -287.71 102.23 M-277.29 89.9 C-259.89 62.97, -237.53 46.32, -210.91 7.91 M-274.68 85.69 C-253.48 61.49, -233.83 37.83, -208.52 8.91 M-342.3 165.54 C-326.29 156.84, -315.82 135.66, -284.81 102.48 M-343.73 167.66 C-326.66 152.19, -310.2 133.9, -283.34 104.22 M-270.2 87.46 C-246.08 63.17, -221 33.19, -207.2 14.5 M-270.7 88.57 C-248.47 63.39, -226.24 38.54, -204.26 10.88 M-337.36 170.45 C-316.49 147.55, -302.4 130.18, -278.51 103.35 M-335.77 170.88 C-314.04 143.14, -293.43 119.04, -277.21 103.24 M-271.59 92.48 C-254.64 77.04, -237.72 58.71, -203.64 13.34 M-270.85 94.44 C-247.11 72.24, -230.23 48.7, -201.47 14.32 M-330.48 170.37 C-307.83 140.95, -284.54 113.69, -272.82 102.66 M-328.03 169.09 C-313.98 149.87, -296.51 130, -274.56 103.78 M-265.18 94.6 C-239.74 63.77, -218.16 38.24, -194.92 20.34 M-267.35 96.65 C-246.65 72.59, -228.78 51.74, -199.65 15.95 M-323.71 169 C-308.9 142.81, -284.79 126.08, -269.77 103.37 M-322.24 167.63 C-312.39 152.97, -296.96 135.75, -265.92 104.04 M-265.75 97.52 C-238.11 67.07, -212.57 36.86, -195.4 22.49 M-266.35 99.05 C-241 71.39, -219.33 41.26, -197.89 20.97 M-318.21 167.79 C-288.23 133.28, -259.66 102.81, -189.55 23.24 M-319.15 167.07 C-291.05 141.75, -264.67 110.4, -192.93 23.46 M-309.26 162.75 C-283.99 128.96, -255.77 97.32, -187.54 27.2 M-312.1 165.69 C-267.97 119.34, -227.06 72.43, -189.25 26.39 M-307.2 164.65 C-261.28 113.24, -222.07 69.67, -190.37 30.24 M-305.49 167.79 C-276.89 129.07, -246.86 93.13, -186.08 28.06 M-303.45 162.45 C-270.21 130.85, -244.43 100.26, -185.53 29.46 M-303.55 167.64 C-258.07 113.83, -213.75 64.9, -186.47 30.23 M-296.26 166.34 C-254.53 117.55, -212.39 65.62, -186.94 36.61 M-296.23 164.44 C-265.06 132.27, -236.48 98.12, -181.35 34.57 M-287.33 162.42 C-261.5 128.06, -229.32 97.21, -181.63 38.93 M-291.81 164.08 C-257.89 129.59, -223.73 93.51, -178.22 36.57 M-282.4 167.27 C-259.9 134.6, -229.84 104.31, -176.24 44.05 M-283.68 162.75 C-252.72 124.63, -217.49 86.12, -175.82 41.55 M-279.26 165.85 C-240.41 116.06, -193.54 69.27, -177.14 41.34 M-278.27 163.94 C-235.77 118.49, -197.23 72.36, -174.16 42.99 M-271 161.16 C-245.42 138.21, -226.42 109.01, -176.25 50.58 M-272.46 161.13 C-241.9 128.4, -210.12 94.2, -172.54 46.31 M-270.66 164.28 C-240.35 134.39, -222.55 107.91, -170.43 50.5 M-266.25 162.93 C-248.57 141.3, -227.97 116.23, -170.91 50.51 M-258.52 164.08 C-231.54 122.35, -193.02 80.38, -163.38 51.51 M-260.12 163.77 C-241.44 141.85, -223.96 116.44, -167.86 51.87 M-258.02 161.02 C-228.8 125.68, -191.81 90.73, -160.95 56.25 M-255.06 160.91 C-219.83 118.99, -182.17 78.44, -162.05 57.64 M-248.46 157.86 C-220.51 123.86, -187.28 91.87, -165.09 60.24 M-251.23 162.04 C-217.78 124.82, -189.88 91.17, -162.11 57.72 M-241.56 162.21 C-216.06 132.31, -190.12 98.27, -161.19 60.51 M-244.66 163.01 C-221.66 137.5, -199.57 108.86, -160.14 62.34 M-242.09 161.19 C-220.52 135.66, -201.47 114.54, -159.93 64.22 M-237.96 159.52 C-212.57 132.86, -186.77 99.41, -157.58 65.8 M-235.89 163.3 C-204.99 134.4, -188.74 104.12, -153.36 66.02 M-232.31 160.04 C-205.17 122.96, -174.81 88.41, -155.36 68.81 M-225.06 160.04 C-206.03 127.22, -177.49 99.95, -153.46 68.96 M-228.81 160.53 C-199.65 128.41, -173.68 101.09, -152.52 70.54 M-220.68 156.05 C-202.91 131.39, -182.28 112.74, -146.77 77.32 M-221.2 157.57 C-205.62 141.09, -186.99 119.66, -146.89 74.46 M-214.05 154.71 C-190.14 127.34, -167.07 105.54, -142.36 78.03 M-217.2 159.11 C-199.49 137.42, -180.03 119.38, -147.16 76.83 M-212.66 160.04 C-192.98 136.45, -175.53 122.61, -145.76 77.27 M-210.53 157.36 C-186.19 132.49, -164.25 109.17, -144.85 80.4 M-200.83 159.3 C-184.41 131.21, -160.63 107.57, -142.33 81.08 M-203.57 156.51 C-188.77 140.78, -173.65 118.6, -141.7 82.03 M-200.31 157.65 C-172.41 127.26, -153.23 106.9, -135.09 84.03 M-200.12 158.39 C-180.22 136.27, -163 117.91, -137.67 86.48 M-190.91 160.74 C-178.68 137.69, -165.07 124.11, -136.15 89.79 M-191.98 158.19 C-174.73 135.72, -158.23 116.35, -134.31 89.98 M-187.15 153.34 C-178.44 138.88, -160.62 123.73, -129.28 88.06 M-187.76 158.12 C-166.04 134.1, -145.27 107.39, -127.47 90.25 M-182.19 153.25 C-169.12 137.01, -153.25 123.33, -119.76 87.16 M-182.8 154.35 C-166.56 137.9, -150.21 123.13, -125.21 90.18 M-179.12 152.87 C-160.45 138.74, -151.65 127.41, -119.85 88.41 M-174.55 153.71 C-155.15 133.77, -138.64 110.28, -119.28 89.24 M-171.61 153.37 C-148.13 137.03, -138.82 113.79, -115.97 91.78 M-169.32 152.89 C-158.84 136.11, -143.37 120.5, -112.42 88.19 M-167.18 154.31 C-148.23 130.64, -128.4 113.47, -110.03 87.22 M-165.54 155.08 C-152.34 141.95, -143.47 127.67, -105.71 89.48 M-155.18 151.47 C-137 133.83, -123.25 106.07, -105.4 86.31 M-159.86 152.94 C-133.97 128.81, -113.09 101.7, -100.65 87.99 M-151.4 155.55 C-135.76 130.36, -120.72 113.23, -95.5 85.39 M-151.77 154.31 C-137.74 135.97, -121.51 114.42, -97.76 87.18 M-150.67 150.72 C-131.69 140.05, -123.2 121.48, -89.77 89.18 M-146.34 153.85 C-128.23 129.73, -111.09 110.05, -90.65 85.79 M-139.54 153.29 C-116.49 126.36, -101.84 104.51, -82.97 86.15 M-142.89 150.76 C-121.16 131.46, -102.48 107.05, -85.36 86.28 M-136.22 153.58 C-116.28 129.61, -97.62 108.58, -75.81 83.16 M-137.02 151.68 C-113.24 126.44, -93.96 101.69, -77.07 84.52 M-125.8 153.55 C-109.96 131.93, -91.37 104.34, -75.56 88.06 M-127.9 151.45 C-115.53 136.88, -105.09 123.69, -72.75 85.44 M1.02 0.87 C1.04 0.52, 1.13 0.42, 1.47 0.14 M0.82 0.84 C1.02 0.66, 1.15 0.34, 1.52 -0.04 M-127.04 147.04 C-103.95 133.75, -84.11 107.88, -67.11 82.1 M-125.34 148.55 C-112.47 135.41, -99.15 121.91, -66.78 85.18 M4.43 2.11 C6.24 1.7, 6.48 0.22, 7.91 0 M4.16 2.36 C4.89 1.43, 5.92 1.04, 7.43 -0.61 M-117.91 147.5 C-110.79 137.14, -96.21 119.9, -61.22 86.57 M-116.5 151.67 C-99.1 128.2, -75.3 101.01, -62.01 84.71 M6.88 4.84 C9.49 3.46, 11.01 2.4, 13.68 -1.28 M7.5 5.51 C9.07 3.3, 9.63 3.19, 13.04 -0.42 M-110.46 151.9 C-93.74 129.79, -75.03 111.99, -60.2 88.18 M-110.9 149.99 C-96.02 131.9, -79.63 112.95, -55.56 85.07 M11.53 8.34 C11.17 3.45, 13.55 4.82, 17.77 -0.74 M10.97 6.22 C13.17 4.53, 15.72 2.13, 17.65 0.18 M-103.77 151.23 C-89.24 127.85, -75.67 108.29, -47.41 85.74 M-106.07 149.2 C-87.44 125.94, -66.08 98.54, -51.58 82.82 M16.33 8.59 C17.66 8.58, 20.38 5.58, 25.82 -0.77 M15.69 9.98 C18.2 6.21, 19.55 2.24, 22.68 -1.89 M-103.99 150.58 C-83.57 132.51, -67.63 110.61, -47.3 86.09 M-101.47 149.43 C-79.04 126.87, -59.54 98.11, -43.13 83.94 M16.12 9.41 C21.89 6.71, 26.5 5.31, 29.79 -1.83 M18.23 10.13 C20.02 8.81, 25.21 2.53, 27.5 -1.83 M-96.33 149.08 C-81.16 130.98, -63.25 108.01, -41.36 84.16 M-96.56 147.29 C-83.19 131.43, -69.65 117.19, -38.28 81.92 M23.04 13.65 C27.74 4.94, 31.02 0.61, 38.65 -0.18 M22.84 12.96 C25.7 8.18, 29.97 7.2, 34.55 -0.13 M-89.09 151.94 C-64.95 126.44, -43.79 97.08, -36.14 82.93 M-88.74 149.88 C-76.07 129.06, -58.98 111.51, -34.05 83.68 M26.18 19.51 C28.22 6.84, 35.47 2.74, 38.74 -4.95 M23.81 17.86 C29.72 9.29, 35.72 3.28, 38.52 -3.15 M-84.94 149.65 C-64.78 129.33, -46.35 107.12, -27.28 81.44 M-82.76 147.97 C-67.17 126.63, -47.49 106.41, -26.44 83.64 M26.15 16.89 C30.48 8.18, 38.73 3.13, 47.86 -2.93 M26.91 19.1 C34.26 11.52, 40.04 6.31, 46.72 -1.84 M-79.6 149.06 C-64.86 125.58, -45.51 107.76, -19.46 78.8 M-79.27 145.1 C-60.54 127.4, -44.74 106.36, -24.41 81.67 M28.87 22.39 C40.07 10.34, 42.56 1.27, 50.6 -4.99 M30.87 18.92 C37.39 12.26, 44.46 3.89, 52.79 -0.84 M-69.87 148.8 C-50.65 125.81, -34.63 103.38, -14.42 78.18 M-72.94 146.99 C-51.57 122.97, -27.09 97.02, -15.89 81.12 M35.19 24.7 C41.02 15.73, 48.68 8.84, 54.54 -5.68 M35.5 23.07 C39.92 14.32, 47.37 4.89, 58.39 -4.08 M-68.29 146.31 C-53.04 131.93, -45.65 117.71, -14.98 82.81 M-65.06 146.61 C-57.16 130.4, -41.47 119.31, -9.77 82.8 M38.86 26.27 C45.92 16.57, 51.5 5.71, 64.84 -6.22 M37.57 24.45 C46.71 12.09, 56.48 2.89, 61.89 -3.75 M-58.45 149.12 C-39.29 121.9, -18.99 100.31, -5 83.99 M-60.88 145.37 C-40.69 121.31, -22.7 98.45, -5.94 83 M41.93 28.68 C49.91 16.39, 58.32 2.49, 71.58 -1.8 M40.29 26.5 C48.66 20.9, 54.02 9.52, 67.69 -1.59 M-54.99 146.79 C-37.13 121.26, -14.42 99.16, -1.42 81.06 M-55.65 143.17 C-35.44 121.06, -15.04 97.06, -1.22 79.46 M48.05 30.5 C51.74 21.96, 57.58 11.51, 69.15 -0.78 M44.49 27.08 C52.19 17.81, 61.47 8.55, 71.56 -2.11 M-51.65 146.97 C-31.82 124.85, -16.48 102.16, 5.76 77.45 M-48.55 144.36 C-31.16 123.19, -10.96 101.39, 4.58 81.41 M45.81 28.67 C63.15 16.96, 70.82 7.21, 78.83 0.29 M50.1 29.78 C57.23 25.2, 64.63 16.04, 77.28 -1.61 M-41.18 147.35 C-29.32 122.5, -9.55 102.88, 9.48 76.64 M-44.75 143.79 C-22.62 117.93, 0.3 93.84, 10.68 79.54 M54.74 36.18 C60.98 19.24, 69.12 9.61, 84.88 -6.82 M52.06 31.69 C60.45 23.37, 66.46 16.15, 82.67 -1.66 M-35.45 147.7 C-24.91 130.41, -11.16 111.24, 13.63 78.18 M-37.38 144.74 C-15.09 119.49, 6.61 95.53, 17.34 79.99 M59.28 35.8 C65.1 28.06, 68.74 15.57, 89.14 -1.05 M56.32 35.06 C64.44 24.99, 75.55 14.2, 88.27 -2.13 M-28.68 145.09 C-14.62 121.14, 0.22 107.55, 21.01 81.67 M-32.89 144.22 C-9.89 115.7, 11.01 92.17, 23.85 78.41 M56.84 36.65 C73.91 28.07, 80.18 14.76, 98.39 -7.24 M57.86 37.91 C74.19 22.91, 85.48 5.15, 94.61 -6.4 M-28.16 140.91 C-11.99 119.42, 9.14 105.87, 28.72 83.53 M-27.67 141.99 C-5.1 119.16, 14.96 95.57, 25.86 78.64 M63.78 35.9 C75.73 30.42, 84.83 13.53, 103.71 -3.46 M60.75 37.72 C69.11 30.61, 78.6 20.13, 99.64 -2.63 M-22.27 140.36 C-3.71 122.16, 8.01 102.9, 34.77 77.99 M-22.1 142 C-0.5 116.98, 18.58 95.56, 32.05 79.73 M65.33 44.52 C75.08 24.84, 91.63 14.84, 103.06 -7.93 M66.01 43.15 C76.41 28.98, 84.41 18.13, 107.27 -4.8 M-19.09 143.46 C-3.33 125.74, 12.18 107.85, 38.13 81.59 M-17.18 141.41 C3.72 122.37, 19.84 102.46, 38.14 78.47 M71.07 40.57 C78.12 32.3, 90.29 18.84, 109.38 -6.6 M69.09 45.39 C83.88 25.86, 97.53 11.26, 113.51 -6.12 M-9.78 140.27 C0.47 122.91, 16.03 109.38, 45.36 78.2 M-7.9 139.87 C8.42 116.9, 29.22 93.66, 43.54 80.37 M76.12 47.15 C88.93 28.77, 98.02 14.54, 117.21 -8.06 M71.08 46.04 C80.39 34.34, 89.26 26.99, 119.02 -4.11 M-4.55 138.94 C11.8 128.62, 24.94 106.83, 49.97 79.72 M-5.21 141.48 C6.39 125.79, 18.18 113.05, 48.69 78.38 M76.59 45.67 C86.17 36.69, 100.42 20.83, 122.02 -6.86 M76.16 48.45 C92.41 27.96, 114.22 5.74, 122.52 -5.81 M3.32 137.66 C21.96 118.77, 33.4 107.84, 52.4 74.15 M1.99 140.84 C23.93 119.49, 43.48 95.16, 57.07 78.96 M75.5 49.63 C95.19 35, 105.16 19.71, 131.56 -2.75 M79.51 49.45 C91.29 36.32, 103.6 24.61, 126.1 -5.06 M9.49 136.7 C25.61 127.29, 38.66 107.05, 64.01 77.52 M8.8 140.99 C23.05 121.29, 34.04 107.82, 61.19 76.01 M80.79 50.31 C102.01 36.85, 113.81 11.46, 132.49 -7.65 M83.32 51.06 C100.04 31.85, 118.31 8.57, 131.83 -7.46 M11.21 141.63 C26.85 116.23, 46.86 97.73, 71.14 73.95 M13.04 138.68 C31.63 119.11, 47.1 96.6, 68.58 76.91 M88.73 58.07 C101.88 37.93, 117.97 22.96, 138.44 -5.16 M86.21 55.79 C103 36.58, 118.72 17.42, 139.86 -7.9 M16.71 138.35 C39.41 117.53, 54.85 91.94, 71.03 75.6 M18.56 137.42 C38.68 114.13, 59.85 91.04, 71.81 76.5 M93.12 60.33 C100.43 38.99, 114.6 25.74, 147.32 -4.1 M90.42 58.59 C111.31 35.64, 131.27 9.94, 143.72 -6.04 M21.1 140.55 C41.99 116.5, 60.73 98.44, 75.88 78.7 M25.23 136.9 C43.45 112.84, 66.29 89.6, 78.48 75.09 M92.74 54.81 C110.24 44.89, 124.63 25.35, 147.29 -4.67 M95.27 58.17 C114.29 34.61, 134.55 14.54, 146.27 -2.58 M31.81 140.74 C45.51 120.57, 65.15 96.58, 84.8 75.55 M28.29 138.06 C46.97 120.76, 61.27 103.35, 85.23 76.47 M97.33 59.32 C111.59 46.59, 125.77 27.63, 153.41 -3.34 M97.11 60.69 C118.51 37.2, 134.74 13.13, 150.38 -2.03 M33.17 137.5 C53.67 116.26, 71.54 91.96, 87.88 74.5 M37.02 136.27 C47.93 122.1, 64.3 105.21, 91.71 73.89 M101.51 65.46 C116.99 47.95, 128.72 32.18, 151.06 0.55 M101.3 63.5 C117.6 48.56, 130.24 29.95, 152.32 2.62 M38.47 139.47 C52.08 122.5, 72.65 99.61, 94.1 71.97 M40.72 135.4 C60.24 115.87, 77 96.66, 94.62 76.07 M100.21 63.91 C120.48 46.45, 136.86 29.01, 159.21 4.94 M103.59 66.48 C114.68 49.76, 127.77 35.99, 159.04 4.07 M45.93 137.35 C61.63 116.26, 80.03 99, 103.41 72.44 M46.71 137.79 C59.77 124.92, 69.69 111.3, 101.69 73.2 M105.95 66.38 C122.42 47.72, 147.59 21.48, 161.12 2.6 M105.39 67.91 C128.22 44.36, 146.11 24.34, 160.89 4.24 M50.72 139.89 C72.44 119.3, 87.1 95.79, 102.69 76.47 M54.38 134.22 C71.11 113.09, 91.33 91.93, 105.66 74.94 M108.19 66.92 C121.76 57.2, 141.38 37.74, 166.95 6.11 M111.18 67.84 C122.61 58.32, 133.56 43.03, 164.2 9.26 M56.93 137.93 C74.57 117.93, 91.99 103, 109.75 76.65 M57.11 133.97 C75.28 113.08, 96.54 91.33, 110.34 72.41 M111.34 75.65 C129.79 59.19, 139.4 44.43, 165.81 8.34 M112.46 71.78 C125.83 56.53, 142.15 40.65, 169.36 8.01 M66.24 131.6 C98.32 88.74, 137.05 52.03, 175.15 7.76 M64.99 134.02 C88.72 107.67, 110.81 84.56, 170.33 10.32 M69.87 132.46 C106.57 86.84, 146.21 37.17, 175.46 10.13 M68.9 134.42 C92.36 109.09, 111.38 84.8, 174.47 13.68 M76.97 136.97 C98.67 102.6, 128.66 81.06, 180.02 19.2 M77.81 135.68 C104.31 98.22, 135.85 62.61, 178.94 17.4 M83.38 136.96 C113.59 95.56, 139.24 59.99, 181.19 16.36 M81.36 131.58 C120.09 89, 154.37 48.44, 180.3 17.95 M91.02 130.68 C119.67 99.08, 144.8 66.7, 184.41 20.24 M86.07 131.28 C119.34 94.21, 152.34 55.86, 186.46 21.64 M91.27 129.34 C123.99 92.52, 160.76 53.58, 186.28 18.86 M92.65 131.05 C129.47 91.4, 169.15 46.87, 190.68 23.84 M100.26 135.81 C131.84 96.29, 157.96 63.19, 192.56 21.23 M99.3 131.95 C121.42 105.43, 143.06 78.57, 191.48 25.57 M102.36 135.2 C126.8 106.93, 148.49 81.51, 193.59 24.51 M103.05 131.47 C133.41 95.91, 168.65 57.24, 196.08 27.82 M110.12 128.74 C145.28 88.02, 178.17 49.08, 198.29 25.6 M111.7 132.54 C141.09 99.65, 167.32 68.69, 200.27 28.14 M113.07 127.45 C132.77 104.29, 152.87 84.07, 204.26 33.28 M114.54 130.17 C147.89 94.07, 180.06 56.88, 202.43 31.87 M125.01 126.19 C144.88 103.23, 168.33 72.8, 207.73 31.82 M121.55 128.65 C158.63 88.02, 188.36 50.94, 207.48 32.8 M124.78 129.34 C152.35 101.88, 181.42 68.22, 211.03 36.16 M126.15 128.23 C160.87 93.12, 190.11 58.1, 210.26 35.4 M132.25 128.66 C166.84 90.86, 193.19 60.97, 216.57 39.44 M133.12 130.07 C155.66 100.23, 182 69.96, 215.43 35.45 M135.76 125.91 C162.23 97.94, 185.5 70.79, 212.92 41.24 M139.93 127.93 C166.38 100.43, 188.34 71.84, 215.53 39.3 M143.43 127.47 C174.62 95.08, 206.62 64.74, 216.8 43.07 M144.05 129.83 C169.16 101.64, 193.23 74.91, 218.85 40.48 M150.58 127.01 C171.17 101.69, 193.34 74.74, 224.53 39.64 M148.28 129.76 C178.38 97.23, 205.46 63.39, 224.86 41.93 M159.08 124.03 C176.38 102.33, 192.82 81.62, 230 46.37 M156.03 129.39 C179.49 99.33, 202.47 72.12, 228.12 44.71 M161.4 129.8 C188.19 101.18, 208.93 66.75, 234.77 47.58 M161.31 124.95 C185.9 95.19, 211.74 68.07, 232.28 47.13 M165.34 125.01 C181.83 107.77, 196.75 87.99, 234.05 48.08 M169.41 123.97 C191.31 97.67, 210.76 72.73, 234.03 49.48 M173.35 125.79 C192.55 108.17, 212.94 85.68, 240.12 48.32 M174.17 124.43 C191.04 101.19, 213.49 79.04, 238.46 52.19 M175.3 125.44 C203.1 98.79, 223.24 71.74, 245.69 54.48 M178.64 123.49 C197.22 104.65, 211.47 87.43, 244.33 51.04 M188.47 124.25 C203.4 103.62, 223.39 82.01, 247.29 53.65 M185.04 124.38 C202.5 105.74, 218.33 85.74, 247.43 51.35 M188.96 124.14 C210.48 103.52, 225.21 84.96, 253.99 50.91 M190.13 126.1 C215.21 96.44, 236.08 66.57, 255.19 50.16 M199.06 127.3 C209.02 110.34, 223.72 95.1, 262.04 52.23 M194.45 123.15 C212.58 106.68, 228.73 86.37, 261.32 50.13 M202.61 122.76 C223.15 101.5, 239.12 81.2, 265.65 52.32 M201.68 123.15 C224 95.34, 248.07 69.88, 266.48 48.55 M209.04 124.34 C220.81 99.71, 236.54 86.61, 270.99 50.27 M208.62 121.84 C226.78 101.41, 240.41 83.56, 272.26 47.97 M214.12 120.23 C226.06 103.09, 241.93 91.39, 278.94 48.94 M213.8 123.73 C231.05 98.47, 253.83 73.68, 277.78 48.66 M219.29 123.12 C240.04 97.74, 261.99 70.24, 279.75 50.29 M218.84 121.28 C239.72 98.71, 260.29 75.7, 282.42 51.06 M224.35 119.83 C252.2 94.58, 272.08 63.64, 287.09 51.06 M225.03 119.63 C238.87 108.42, 249.72 93.47, 285.69 48.41 M227.58 117.18 C246.66 99.6, 268.82 72.68, 289.47 49.85 M231.4 119.49 C248.2 103.75, 264.21 85.77, 294.64 49.03 M237.05 120.63 C262.42 94, 282.88 69.86, 300.23 50.78 M237.93 118.87 C252.54 103.7, 267.32 85.92, 299.81 48.91 M238 116.88 C257.02 104, 274.6 84.91, 304.28 50.84 M242.96 120.72 C262.83 93.89, 288.24 65.24, 305.82 50.24 M244.24 116.51 C265.56 93.86, 287.15 75.83, 311.48 48.79 M246.43 118.68 C268.47 92.46, 290.27 67.42, 306.82 51.28 M249.53 120.63 C266.56 100.4, 285.06 79.86, 309.3 49.75 M251.22 120.7 C269.27 100.28, 288.06 81.81, 310.95 54.06 M255.56 114.68 C275.88 99.58, 288.81 83.88, 314.88 51.58 M259.13 118.02 C276.73 95.66, 296.36 72.21, 314.43 55.83 M268.77 118.15 C287.19 95.96, 303.47 75.73, 319.8 58.55 M265.55 115.86 C274.74 105.98, 286.95 91.15, 318.23 57.76 M267.61 118.65 C284.18 103.71, 303.8 86.51, 318.69 57.92 M270.72 118.57 C287.01 100.59, 300.65 83.81, 322.64 58.58 M279.3 113.52 C298.76 93.82, 316.61 72.72, 323.36 60.58 M274.4 116.36 C294.53 95.57, 314.43 76.41, 325.32 62.34 M279.88 119.74 C290.53 105.38, 299.05 96.17, 327.46 61.67 M279.88 118.21 C298.11 101.46, 308.35 83.95, 327.86 64.03 M289.57 116.56 C304.67 98.28, 320.82 75.8, 328.53 65.22 M287.22 115.58 C299.05 104.22, 309.07 91.59, 329.88 65.3 M296.16 112.1 C301.96 106.62, 308.9 96.95, 332.7 68.74 M292.66 116.06 C306.87 96.54, 324.7 77.15, 335.54 68.15 M302.36 117.96 C307.57 105.85, 320.16 91.1, 336.76 71.91 M297.83 115.11 C313.18 99.75, 322.97 84.45, 335.64 70.6 M305.84 111.16 C316.47 101.83, 328.32 88.94, 340.85 69.13 M305.79 112.94 C315.13 102.62, 324.32 92.28, 342.16 72.38 M311.99 115.7 C323.53 102.74, 337.75 83.04, 346.48 74.18 M311.72 113.26 C318.65 101.88, 330.34 91.05, 342.33 74.64 M317.25 112.7 C329.42 102.04, 334.57 88.05, 345.28 80.86 M318.1 112.41 C323.21 106.73, 329.31 94.91, 349.21 77.62 M321.79 114.06 C330.55 98.35, 345.96 86.15, 349.69 78.84 M321.47 114.08 C330.54 105.19, 338.3 95.67, 352.38 79.58 M325.64 116.29 C330.92 107.24, 338.11 101.26, 354.33 82.06 M328.37 114.24 C338.75 100.28, 346.13 88.72, 353.24 82.26 M335.98 115.16 C337.53 108.08, 346.51 93.79, 357.35 81.05 M332.65 112.81 C340.68 105.15, 344.07 95.56, 358.28 82.28 M338.56 108.32 C344.96 102.9, 353.35 100.55, 363.22 86.88 M338.78 111.4 C348.11 102.62, 356.91 93.22, 359.81 84.14 M345.07 109.92 C354.77 104.94, 355.2 98.73, 367.35 87.73 M343.19 112.92 C348.58 106.83, 351.08 102.54, 364.52 87.82 M348.48 113.24 C354.66 102.86, 363.59 102.93, 366.17 93.56 M349.55 111.35 C356.89 102.13, 362.53 95.59, 369.53 90.56 M355.14 112.56 C361.92 99.77, 368.97 97.81, 373.83 92.67 M354.74 110.6 C362.63 106.13, 364.94 97.59, 370.96 94.49 M361.49 108.84 C363.22 106.81, 363.72 103.11, 376.21 96.33 M361.6 109.27 C367.16 105.13, 368.82 101.54, 375.95 96.27 M365.77 111.12 C370.19 104.76, 374.15 105.57, 379.6 95.94 M367.96 108.02 C368.85 107.25, 371.34 104.75, 379.28 95.45 M374.1 106.53 C376.47 108.1, 379.6 101.86, 381.53 98.49 M372.47 108.89 C376.15 107.76, 376.9 103.56, 380.51 98.45 M377.45 108.83 C382.45 108.08, 382.98 103.36, 385.29 100.21 M379.79 108.83 C380.3 106.26, 383.5 104.28, 384.6 102.07 M384.47 106.91 C384.81 107.56, 386.44 105.6, 388.34 104.08 M384.37 108.11 C386.18 106.36, 387.45 104.73, 387.78 103.67 M390.14 107.27 C390.77 106.62, 391.46 106.13, 391.73 106.33 M390.43 107.66 C390.84 106.85, 391.35 106.09, 391.81 105.92 M-358.86 170.46 C-358.86 170.46, -358.86 170.46, -358.86 170.46 M-358.86 170.46 C-358.86 170.46, -358.86 170.46, -358.86 170.46 M-353.6 169.52 C-358.02 164.51, -364.3 162.04, -365.96 153.35 M-354.22 168.3 C-357.68 166.36, -361.61 160.1, -369.39 157.38 M-347.36 168.45 C-360.18 158.66, -371.13 145.45, -379.8 139.51 M-347.93 170.96 C-360.5 158.8, -369.7 150.17, -379.33 141.23 M-340.04 168.02 C-349.19 161.33, -365.62 153.14, -392.82 123.74 M-342.62 169.82 C-351.08 159.34, -363.16 148.59, -391.82 126.01 M-336.08 166.24 C-352.58 149.56, -373.49 136.37, -398.02 113.09 M-336.36 167.64 C-352.08 153.14, -371.49 139.46, -400.16 111.1 M-330.64 168.4 C-350.57 154.06, -363.76 134.76, -402.7 107.46 M-332.23 169.44 C-350.24 152.83, -366.04 135.99, -400.65 107.07 M-323.77 169.83 C-353.1 145.04, -379.73 117.97, -394.82 110.8 M-325.44 167.14 C-343.8 151.07, -363.71 138.71, -393.92 106.91 M-318.75 169.9 C-346.18 141.35, -366.72 123.55, -387.88 110.71 M-320.58 165.5 C-332.6 154.08, -348.94 141.22, -386.76 107.49 M-315.97 167.43 C-338.44 147.67, -353.44 132.11, -381.89 107.26 M-314.46 167.51 C-335.44 146.77, -356.47 129.98, -379.98 106.35 M-311.35 166.7 C-326.08 154.91, -337.76 142.34, -375.21 105.67 M-309.46 164.33 C-325.11 152.45, -344.78 134.4, -377.23 108.31 M-302.42 168.18 C-321.24 148.24, -340.46 131.29, -368.96 109.07 M-304.51 163.9 C-326.31 146.93, -352.09 124.27, -372.31 106.16 M-297.68 163.91 C-321.22 141.11, -349.06 119.13, -363.61 110.51 M-299.48 166.32 C-322.16 146.76, -343.26 128.44, -362.78 106.63 M-290.03 168.85 C-316.53 144.81, -342.17 123.9, -360.41 104.36 M-293.44 165.12 C-316.19 145.37, -339.91 122.57, -358.18 105.71 M-290.12 168.26 C-301.38 149.48, -317.72 133.61, -350.71 109.67 M-285.01 166.56 C-307.01 144.45, -330.46 127.43, -354.43 105.93 M-284.44 164.46 C-300.74 140.57, -325.26 128.69, -348.59 110.2 M-279.39 162.36 C-302.01 143.92, -324.64 126.15, -345.34 108.39 M-273.75 166.76 C-299.41 145.37, -318.16 123.94, -343.28 107.17 M-277.7 163.52 C-290.15 151.72, -305.15 139.6, -339.97 107.38 M-266.93 162.95 C-281.03 154.66, -299.85 143.14, -336 102.61 M-271.78 161.81 C-293.11 143.01, -313.89 123.82, -334.38 105.67 M-263.35 165.3 C-286.02 139.79, -312.56 122.27, -332.34 104.03 M-265.5 163.65 C-276.53 151.16, -294.07 135.93, -328.99 105.19 M-258.99 161.25 C-287.42 139.58, -309 118.09, -326.86 104.54 M-257.81 162.75 C-276.98 149.89, -291.97 135.53, -324.13 103 M-255.85 164.78 C-266.45 149.03, -284.25 135.52, -316.54 106.16 M-255.11 163.46 C-268.76 149.41, -287.62 132.76, -318.34 104.6 M-251.3 159.83 C-264.39 146.68, -277.28 139.48, -309.31 107.87 M-249.47 162.1 C-271.44 140.72, -292.91 121.43, -311.95 103.88 M-239.43 159.65 C-261.7 144.12, -276.86 129.3, -308.5 102.39 M-243.03 162.18 C-268.5 141.11, -295.63 117.76, -308.4 105.85 M-232.46 158.16 C-253.05 140.72, -271.86 127.62, -301.68 107.44 M-234.27 159.84 C-257.31 145.07, -276.57 128.02, -302.02 105.85 M-230.89 156.68 C-244.37 148.9, -258.25 140.52, -293.03 106.55 M-231.06 158.39 C-251.71 145.16, -269.33 129.59, -295.36 104.27 M-225.79 157.95 C-243.92 144.72, -259.53 130.03, -287.98 101.01 M-226 160.33 C-250.29 139.44, -272.63 118.01, -290.76 102.48 M-220.76 157.53 C-240.63 141.32, -261.72 116.76, -282.6 101.35 M-221.24 158.67 C-239.69 140.13, -260.32 124.39, -284.66 104.17 M-218.27 161.83 C-236.34 142.59, -254.17 126.64, -280.18 99.27 M-215.74 156.91 C-238.36 134.71, -267.22 113.81, -279.14 103.33 M-205.75 158.81 C-223.69 143.39, -235.22 135.47, -275.64 104.46 M-210.41 159.66 C-231.81 139.05, -256.18 116.45, -271.28 102.91 M-201.06 157.39 C-224.39 137.06, -246.97 126.01, -268.41 103.88 M-202.36 157.99 C-226.26 137.76, -244.26 120.09, -264.92 102.08 M-197.75 158.76 C-212.17 143.73, -227.03 133.74, -267.31 94.57 M-197.21 156.71 C-211.73 144.11, -225.27 133.45, -264.52 98.97 M-194.53 155.82 C-221.28 128.33, -259.91 97.92, -275.16 79.71 M-191.48 155.68 C-221.92 128.39, -253.32 101.02, -278.76 82.67 M-188.59 152.53 C-216.07 135.87, -239.74 106.59, -291.81 66.93 M-184.79 157.17 C-211.8 138.73, -232.47 120.77, -292.35 65.47 M-181.75 154.6 C-228.24 110.26, -271.37 70.04, -300.64 50.84 M-183.03 154.46 C-211.06 130.74, -242.33 104.51, -303.66 49.34 M-178.8 151.56 C-214.81 126.03, -248.51 85.68, -312.93 36.24 M-175.58 153.79 C-206.18 127.9, -236.56 100.67, -317.89 31.08 M-173.03 152.38 C-220.57 115.78, -268.62 69.9, -326.47 19.75 M-170.19 155.63 C-231.07 102.77, -291.23 50.94, -328.4 16.32 M-162.85 150.8 C-213.69 108.65, -265.84 61.07, -339.51 -1.77 M-166 153.43 C-223.03 102.2, -277.16 53.62, -340.69 -0.61 M-160.19 155.33 C-206.66 115.77, -248.38 76.98, -347.31 -6.62 M-158.13 152.46 C-220.22 101.46, -282.19 46.96, -343.25 -6.5 M-152.43 150.37 C-196.3 114.8, -238.01 72.63, -337.17 -9.63 M-154.22 154.31 C-199.12 110.87, -246.69 72.5, -339.13 -7.73 M-147.15 155.68 C-187.85 117.61, -221.18 82.95, -330.75 -7.92 M-146.39 152.1 C-201.27 102.13, -257.23 54.1, -330.93 -6.21 M-139.95 149.73 C-187.64 115.31, -239.61 76.2, -326.45 -7.53 M-141.4 152.87 C-185.91 116.84, -229.57 78.3, -326.47 -7.63 M-138.7 155.12 C-207.52 91.15, -280.82 29.66, -319.75 -6.14 M-136.04 152.23 C-180.47 109.6, -226.2 71.86, -318.78 -7.45 M-132.41 148.16 C-172.87 111.28, -218.67 72.91, -312.23 -4 M-131.42 149.7 C-185.93 103.95, -237.33 56.86, -312.29 -6.96 M-125.66 153.67 C-168.71 114.64, -207.09 79.18, -310.46 -5.96 M-125.2 149.1 C-192.55 87.46, -260.83 31.21, -307.67 -8.59 M-117.89 150.97 C-166.43 103.67, -213.76 63.77, -301.58 -6.59 M-119.74 150.73 C-177.6 97.76, -237.11 48.58, -301.41 -6.22 M-111.4 149.08 C-181.73 91.84, -243.86 40.1, -292.24 -4.68 M-114.32 148.43 C-159.39 112.67, -204.98 74.53, -293.94 -6.3 M-106.63 148.95 C-177.93 87.57, -245.09 25.69, -290.92 -8.47 M-109.51 148.31 C-160.09 103.58, -212.1 59.91, -289.34 -8.13 M-99.92 149.61 C-151.18 108.76, -192.51 70, -279.99 -4.12 M-102.39 149.88 C-151.61 108.54, -201.98 61.63, -283.29 -5.83 M-98.08 150.97 C-135.42 111.91, -172.34 76.26, -279.03 -7.64 M-96.89 148.78 C-163.68 89.29, -233.84 28.07, -276.96 -8.51 M-89.39 146.61 C-166.44 89.64, -236.43 27.14, -273.01 -10.02 M-92.28 147.92 C-137.17 110.71, -180.41 76.48, -271.25 -8.85 M-85.69 146.01 C-152.08 95.92, -214.35 40.98, -262.21 -9.05 M-87.6 146.18 C-128.49 112.12, -171.41 72.78, -263.98 -6.66 M-83.71 149.95 C-147.03 95.9, -204.18 46.75, -261.22 -4.54 M-80.5 145.56 C-143.17 95.38, -201.57 42.08, -257.9 -7.54 M-77.35 149.25 C-140.88 87.36, -203.94 33.61, -254.09 -10.44 M-75.49 146.59 C-112.35 116.06, -151.47 82.43, -253.71 -6.35 M-73.2 147.3 C-95.59 120.11, -125.43 100.88, -137.16 86.76 M-69.2 145.23 C-94.08 123.78, -116.3 108.26, -134.29 86.94 M-134.04 91.54 C-178.64 49.66, -219.34 13.88, -242.51 -8.28 M-137.05 89.08 C-180.53 50.73, -223.03 12.29, -245.64 -6.38 M-66.03 142.73 C-85.47 126.23, -107.96 102.23, -127.9 87.78 M-65.3 143.77 C-80.47 129.64, -99.63 113.09, -128.37 88.6 M-157.6 69.58 C-188.5 42.84, -213.98 17.81, -243.43 -4.03 M-153.95 65.2 C-176.06 48.79, -199.91 28.02, -241.15 -7.03 M-62.57 145.83 C-81.18 126.47, -107.81 104.25, -124.38 91.84 M-60.55 146.06 C-79.94 129.95, -98.74 109.44, -124.34 87.52 M-172.11 47.82 C-191.76 23.18, -213.61 10.7, -235.95 -7.93 M-174.99 45.34 C-198.25 24.61, -220.26 4.76, -233.73 -6.68 M-50.3 140.91 C-71.07 128.81, -92.05 111.1, -122.3 83.98 M-52.05 144.65 C-68.72 130.01, -85.22 117.04, -120.44 89.12 M-196.54 22.56 C-204.35 11.57, -219.3 -1.05, -226.98 -4.64 M-192.75 23.3 C-206.68 10.1, -220.01 -0.55, -228.36 -4.81 M-50.65 147.22 C-69.44 128.01, -88 110.63, -108.54 90.82 M-46.39 145.08 C-65.55 127.35, -83.04 111, -112.64 89.52 M-210.93 -0.3 C-217.15 -2.13, -221.26 -5.74, -221.53 -5.17 M-213.68 -0.35 C-214.78 -2.07, -219.43 -4.83, -221.62 -6.35 M-42.98 142.95 C-65.2 126.16, -86.87 101.99, -108.21 85.96 M-41.71 143.98 C-56.66 128.73, -72.46 117.93, -107.75 86.89 M-39.57 143.59 C-55.53 128.75, -68.22 109.95, -101.44 83.66 M-36.39 144.32 C-54.89 126.47, -74.48 111.05, -102.79 86.89 M-27.7 140.18 C-47.29 126.36, -63.37 113.6, -98.42 85.52 M-32.8 141.91 C-49.61 126.13, -68.2 109.49, -95.17 87.01 M-28.3 144.12 C-39.02 124.95, -61.43 110.39, -87.57 84.89 M-24.65 142.12 C-42.29 126.12, -60.95 113.17, -89.4 87.78 M-20.18 144.68 C-38.28 125.6, -67.3 102.35, -80.27 86.67 M-19 141.26 C-34.72 127.32, -52.91 111.02, -84.89 87.85 M-14.14 143.65 C-35.15 119.7, -53.73 100.23, -76.3 82.7 M-13.31 141.27 C-32.42 128.68, -48.12 112.7, -78.3 85.3 M-10.35 138.8 C-32.7 122.3, -49.37 104.28, -73.16 87.13 M-9.78 139.04 C-30.78 122.42, -50.82 102.08, -71.78 84.97 M0.26 143.16 C-26.19 117.14, -53.65 94.88, -63.48 87.78 M-3.63 141.72 C-25.93 121.26, -51.35 99.56, -67.38 83.78 M-1.33 136.47 C-23.11 117.98, -39 101.89, -60.4 81.55 M2.58 140 C-19.47 118.43, -41.84 101.33, -63.26 86 M8.33 140.54 C-16.4 122.84, -31.19 103.86, -54.92 81.76 M6.62 139.47 C-9.3 122.41, -26.89 109.91, -56.07 84.61 M17.08 137.93 C-4.19 129.57, -18.17 111, -49.28 81.55 M11.54 137.23 C-4.28 123.88, -20.21 107.73, -49.24 84.58 M18.78 142 C2.04 124.17, -18.01 113.79, -46.36 85.22 M20.37 139.87 C-7.53 116.61, -31.65 92.38, -43.31 84.21 M27.4 136.3 C1.68 121.66, -18.17 99.18, -35 79.64 M25.27 136.83 C0.41 115.63, -22.79 97.04, -40.21 82.4 M30.68 136.62 C16.58 127.41, 1.74 114.33, -35.46 81.64 M30.28 138.31 C13.67 120.65, -5.54 104.16, -33.6 84.01 M31.96 133.67 C13.3 119.29, -1.91 102.74, -28.71 85.31 M36.18 135.96 C10.65 115.36, -13.74 94.25, -29.16 83.15 M40.87 136.48 C17.97 116.92, -9.87 93.07, -25.85 85.47 M40.23 138.19 C24.54 120.62, 6.18 107.08, -22.93 80.5 M43.89 139.74 C25.81 115.85, -0.87 99, -13.47 80.96 M45.85 135.48 C21.8 115.88, -1.16 92.37, -17.61 82.59 M51.02 135.22 C37.7 123.08, 28.94 112.21, -7.06 82.09 M54.31 135.65 C36.78 118.63, 20.08 105.25, -8.87 79.17 M58.39 135.13 C48.32 118.35, 29.11 107.42, -4.32 81.94 M58.39 137.26 C35.74 114.39, 13.46 94.5, -5.64 82.48 M62.12 134.8 C51.17 119.4, 30.8 109.29, 1.4 79.81 M61.34 136.17 C42.95 118.33, 26.08 104.39, -0.48 80.57 M71.97 130.75 C51.2 116.45, 28.39 92.18, 3.79 76.53 M69.57 133.56 C47.96 114.47, 28.22 98.45, 6.17 80.63 M73.46 136.06 C61.07 125.68, 46.36 112.49, 10.13 81.89 M75.84 135.24 C58.99 119.7, 44 106.43, 11.63 78.27 M81.47 134.42 C65.19 120.63, 51.88 104.14, 15.97 77.96 M79.93 131.64 C61.54 117.37, 40.1 100.76, 18.69 80.86 M82.14 130.82 C73.31 124.11, 51.71 105.24, 24.5 83.17 M87.58 132.42 C62.47 112.06, 40.63 91.41, 22.06 77.51 M91.51 134.92 C73.79 118.95, 59.13 102.68, 26.14 81.04 M92.2 131.81 C70.65 115.58, 51.99 98.25, 29.03 79.71 M98.09 132.48 C84.15 117.43, 69.69 102.48, 37.71 79.47 M98.53 131.94 C79.52 118.21, 62.36 102.05, 33.65 78.63 M105.55 132.64 C89.81 117.15, 75.42 108.23, 42.03 79.55 M104.33 132.09 C80.83 112.32, 57.2 91.28, 41.48 77.76 M106.53 130.73 C89.12 117.27, 73.4 100, 47.28 75.52 M107.35 131.42 C93.18 118, 77.05 105.39, 47.95 78.94 M112.34 134.22 C103.61 119.41, 88.89 108.74, 53.68 74.18 M113.99 128.85 C94.88 111.48, 73.42 96.67, 54.09 77.59 M115.01 130.17 C96.63 113.6, 76.69 96.06, 56.04 78.3 M118.48 130.48 C103.53 117.83, 92.28 105.43, 56.21 76.12 M124.97 127.24 C105.02 111.84, 90.56 95.76, 66.44 73.92 M123.59 129.48 C102.14 109.98, 83.18 91.56, 61.6 75.17 M128.89 126.37 C109.69 112.9, 95.46 98.63, 68.86 77.77 M131.54 128.79 C109.19 110.81, 87.45 93.64, 70.19 74.92 M132.33 128.22 C119.11 111.47, 96.86 92.83, 73.75 76.65 M137.72 130.42 C115.23 112.16, 99.48 98.77, 74.25 74.47 M142.34 128.49 C122.93 109.92, 109.2 99.27, 80.7 74.8 M142.36 126.73 C120.62 110.22, 101.01 94.96, 80.08 77.08 M146.11 125.3 C130.87 114.08, 111.34 94.88, 85.07 73.24 M148.22 129.79 C135.04 117.52, 123.06 107, 87.71 73.53 M149.58 130.62 C139.03 108.71, 120.33 99.54, 88.58 77.21 M152.27 126.68 C138.15 117.97, 125.79 104.67, 92.55 75.39 M15.69 12.16 C14.13 3.09, 7.08 -1.11, 5.42 0.21 M18.5 11.5 C12.44 7.66, 8.74 5.16, 4.72 -0.71 M158.51 123.53 C147.58 116.69, 130.93 105.3, 97.92 72.14 M159.64 126.82 C137.02 108.51, 112.31 89.73, 99.11 72.07 M36.27 20.75 C33.29 16.3, 26.09 13.64, 11.94 -2.6 M40.21 23.34 C29.46 15.14, 17.24 4.73, 9.09 -1.51 M166.65 124.12 C153.44 117.87, 140.24 101.93, 103.51 76.89 M161.89 124.52 C142 107.59, 121.65 89.15, 103.01 75.57 M63.11 39.09 C42.79 21.42, 30.03 12.24, 19.94 -0.95 M60.44 37.96 C48.3 25.94, 34.25 11.48, 14.93 0.31 M167.65 128.63 C153.19 105.97, 128.47 93.87, 108.55 72.09 M167.98 127.61 C155.11 114.6, 143.21 104.63, 108.33 71.77 M83.79 51.42 C66.42 35.91, 44.6 16.98, 21.77 -1.34 M85.04 53.87 C64.77 34.6, 41.4 16.03, 22.28 -2.38 M172 126.92 C150.17 109.05, 129.09 88.23, 110.29 69.31 M173.09 126.63 C157.38 108.95, 138.1 94.08, 115.62 73.59 M105.09 65.2 C79.32 45.18, 55.93 17.55, 31.95 -3.58 M108.94 65 C89.32 51.59, 70.17 32.17, 28.91 -2.73 M178.24 121.77 C139.86 95.46, 101.38 61.29, 34.03 0.25 M179.89 124.11 C134.01 86.24, 87.55 45.27, 33.85 -3.83 M185.78 124.44 C134.18 77.72, 84.59 32.82, 38 0.4 M187.49 123.91 C139.87 84.94, 93.42 44.26, 38.99 -0.93 M190.62 124.5 C141.24 81.18, 98.56 43.16, 47.63 -3.8 M190.14 124.26 C156.28 92.31, 118.09 59.66, 44.99 -1.66 M193.38 120.53 C161.4 96.8, 130.14 63.36, 52.94 1.07 M195.17 122.68 C146.25 81.06, 98.72 38.2, 49.58 -3.7 M206.17 120.17 C149.33 80.36, 101.1 36.27, 53.35 -2.17 M201.79 124.08 C175.98 96.05, 143.88 71.72, 57.79 -1.6 M206.49 122.84 C153.85 73.15, 98.04 31.79, 61.25 -4.55 M205.98 121.4 C177.9 95.35, 149.43 71.36, 62.62 -2.07 M210.86 125.72 C176.11 82.04, 128.69 50.12, 65.45 -2.89 M215.17 121.56 C180.89 92.41, 146.24 63.71, 67.45 -5.97 M216.9 119.23 C172.99 83.02, 133.94 49.23, 78.48 -3.84 M217.46 122.81 C167.73 80.66, 119.81 38.12, 74.52 -4.42 M221 125 C184.86 88.73, 149.1 56.76, 80.27 -3.05 M224.3 120.69 C178.43 79.3, 133.04 39.92, 79.6 -4.04 M228.17 122.57 C191.33 82.27, 155.89 50.51, 85.23 -1.91 M231.39 120.69 C177.67 79.77, 124.95 32.55, 84.16 -3.73 M234.68 116.82 C191.82 79.59, 144.49 40.85, 93.92 -2.78 M234.43 121.53 C205.03 88.55, 170.53 58.28, 90.09 -4.01 M238.69 121.29 C211.7 93.13, 182.33 72.57, 101.17 -4.29 M242.76 120.52 C190.83 76.17, 141.37 32.12, 96.88 -6.34 M246.84 121.59 C191.28 72, 139.11 17.91, 103.64 -4.62 M247.04 120.82 C208.48 81.09, 169.66 46.46, 104.28 -6.45 M252.91 122.76 C222.28 92.26, 181.27 62.46, 111.02 -2.18 M253.01 120.8 C207.97 77.02, 166.25 42.26, 108.5 -7.14 M259.69 120 C222.64 85.52, 178.38 56.38, 113.65 -6.84 M256.31 116.67 C214.67 74.28, 165.35 37.03, 116.93 -7.51 M260.59 116.65 C208.96 72.24, 159.44 25.57, 121.85 -3.9 M263.31 118.42 C214.92 77.94, 168.56 34.3, 120.54 -7.06 M265.78 115.65 C212.97 70.14, 160.55 15.9, 129.31 -2.11 M270.16 117.2 C216.62 71.33, 166.16 26.83, 128.34 -7.67 M275.81 113.52 C232.6 80.12, 188.25 43.39, 132.75 -8.83 M275.57 117.25 C242.11 89.56, 209.55 63.82, 132.02 -4.98 M279.48 119.1 C232.67 75.3, 186 38.04, 138.99 -2.8 M279.7 114.58 C228.35 70.35, 174.08 22.07, 140.22 -7.04 M288.46 112.9 C243.96 74.49, 193.65 38.13, 151.42 0.55 M285.89 114.25 C249.34 86.74, 214.48 51.38, 149.94 0.19 M287.94 114.51 C264.87 91.35, 230.48 62.83, 167.77 9.33 M292.29 117.69 C260.8 87.3, 228.94 59.14, 171.42 11.03 M295.23 117.93 C267.25 93.33, 241.49 65.9, 185.95 17.89 M297.6 116.04 C263.63 87.72, 231.7 58.05, 187.07 22.76 M302.4 110.99 C280.41 95.33, 258.48 77.62, 207.32 28.63 M304.73 113.42 C275.76 91.81, 245.9 67.03, 209.76 31.35 M310.14 114.02 C277.88 86.42, 255.88 70.47, 223.99 45.56 M309.74 115.62 C278.78 84.03, 244.12 57.36, 227.2 44.91 M313.4 113.9 C293.02 96.82, 270.68 80.03, 243.15 47.67 M312.56 112.04 C291.2 94.82, 271.69 76.72, 241.33 51.05 M315.52 115.47 C299.62 100.29, 288.16 86.71, 244.54 46.24 M318.1 113.01 C294.17 89.48, 267.24 63.78, 246.83 50.14 M321.81 115.53 C308.93 95.85, 293.98 88.41, 256.05 52.05 M323.03 111.82 C307.69 98.62, 290.11 87.03, 253.87 48.41 M333.49 109.57 C311.24 99.56, 292.79 74.25, 260.82 45.76 M328.65 113.28 C306.57 89.66, 284.12 73.14, 256.14 48.26 M338.28 111.13 C316.79 91.59, 292.27 73.35, 264.1 48.43 M336.62 113.1 C306.01 88.3, 278.91 64.25, 264.86 48.81 M345.02 111.2 C315.86 85.56, 287.67 60.17, 268.64 45.6 M342.6 111.17 C321.51 92.97, 301.3 76.06, 269.23 49.8 M350.31 113.56 C322.24 87.11, 297.47 68.59, 274.32 48.03 M348 110.9 C326.22 92.53, 307.33 73.78, 275.09 50.34 M348.36 109.53 C331.21 91.26, 309.03 70.18, 281.27 50.98 M352.86 111.83 C328.21 91.76, 306.68 71.73, 281.13 48.12 M356.67 107.94 C329.21 87, 305.12 64.93, 289.51 47.03 M358.59 111.61 C334.37 91.73, 313.86 70.6, 285.57 46.12 M366.1 106.6 C335.1 88.78, 310.4 59.69, 291.07 46.69 M365.1 107.38 C342.25 90.67, 325.49 74.26, 291.35 49.24 M366.5 106.3 C344.4 91.52, 325.16 71.67, 301.59 51.19 M369.52 109.64 C349.28 90.86, 330.13 74.97, 300.8 46.95 M372.61 109.47 C355.59 92.82, 336.87 73.26, 307.47 43.81 M375.15 107.01 C358.06 92.33, 340.64 78.95, 303.86 48.58 M382.69 107.64 C364.36 94.64, 339.13 78.7, 333.87 68.3 M379.13 109.45 C367.98 97.75, 354.77 86.89, 329.1 63.72 M389.1 104.76 C373.92 97.85, 361.62 87.29, 358.19 83.13 M386.11 109.61 C379.15 99.07, 368.09 92.79, 354.34 80.35 M392.51 105.54 C391.01 104.99, 389.06 106, 383.79 97.41 M391.86 106.58 C387.41 104.67, 384.87 100.33, 380.9 98.27" stroke="#202325" stroke-width="0.5" fill="none"></path><path d="M-0.29 -2.15 C30.97 16.96, 62.88 38.33, 116.35 74.88 M-0.38 -1.77 C26.67 14.7, 49.98 28.29, 117.28 74.48 M112.43 74.53 C17.06 77.6, -81.37 86.24, -134.49 88.61 M116.07 72.21 C51.34 73.62, -13.82 76.72, -135.05 90.47 M-138.02 88.69 C-158.06 63.32, -177.44 41.9, -219.25 -9.67 M-134.07 90.98 C-161.26 63.7, -181.73 38.88, -218.95 -5.97 M-217.61 -7.23 C-253.42 -3.6, -289.87 -3.77, -348.16 -8.58 M-218.86 -5.89 C-246.82 -8.46, -276.41 -8.01, -347.75 -5.48 M-351.01 -6.08 C-322.69 27.24, -294.09 51.71, -259 101.74 M-345.73 -8.65 C-316.39 29.75, -287.14 72.12, -263.19 100.56 M-259.6 99.06 C-299.92 102.42, -343.46 110.04, -402.76 112.84 M-262.55 102.34 C-298.53 104.89, -329.43 109.21, -405.47 111.01 M-402.79 105.64 C-391.34 134.25, -373.77 150.33, -358 171.83 M-403.08 108.75 C-390.73 126.2, -375.81 146.18, -358.63 169.27 M-359.49 169.38 C-66.13 141.05, 227.55 116.89, 391.64 108.07 M-359.44 171.22 C-119.13 155.26, 117.99 134.94, 392.97 106.38 M394.83 108.06 C373.96 91.01, 344.64 74.73, 307.19 47.51 M392.28 108.81 C360.08 83.41, 324.48 60.95, 305.48 46.68 M303.73 48.8 C280.82 48.35, 261.47 52.86, 235.74 47.26 M303.9 46.77 C283.84 49.18, 260.38 47.4, 240 49.58 M242.06 53.75 C215.08 41, 191.68 25.34, 145.11 -6.95 M239.22 51.61 C199.92 28.79, 161.96 5.66, 142.36 -6.29 M142.5 -6.06 C99.1 -3.05, 62.7 -3.53, 1.74 -1.33 M141.26 -4.84 C88.62 -7.11, 36.29 -4.27, 2 -1.09 M0 0 C0 0, 0 0, 0 0 M0 0 C0 0, 0 0, 0 0" stroke="#202325" stroke-width="1" fill="none"></path></g></g><mask></mask><g stroke-linecap="round"><g transform="translate(665.2059036277749 612.7534692285589) rotate(0 13.788862312029323 -16.868356560067724)"><path d="M-0.28 -0.46 C-4.02 -4.47, -6.31 -11.74, -9.14 -15.43 M0.53 0.04 C-1.24 -3.21, -3.97 -6.74, -7.28 -14.17 M-7.37 -13.06 C-3.53 -13.27, -0.09 -9.39, 4.79 -8.4 M-7.87 -13.85 C-4.12 -12.73, -1.93 -11.42, 4.44 -8.69 M4.11 -7.36 C4.8 -12.18, 3.21 -13.64, 5.09 -24.61 M5.15 -8.74 C4.81 -11.84, 4.79 -16.09, 3.27 -23.6 M4.47 -24.35 C5.16 -20.71, 7.71 -18.87, 11.16 -15.56 M4.15 -22.83 C5.93 -21.52, 8.23 -19.67, 12.47 -14.92 M10.6 -16.06 C15.31 -20.98, 14.57 -30.01, 17.52 -33.78 M11.77 -15.74 C12.58 -20.81, 14.99 -26.8, 16.67 -33.12 M15.21 -33.55 C16.19 -26.45, 18.98 -18.21, 21.8 -11.55 M15.13 -31.57 C18.61 -26.36, 19.21 -19.78, 22.57 -9.98 M23.09 -9.44 C25.79 -11.34, 30.03 -14.29, 36.72 -16.27 M22.2 -10.81 C27.09 -12.06, 31.81 -15.01, 36.01 -17.24 M35.2 -15.6 C36.05 -14.2, 34.32 -9.19, 28.95 -5.78 M36.25 -16.78 C33.88 -12.48, 31.19 -7.6, 30.27 -5.33" stroke="#d3d3d3" stroke-width="2" fill="none"></path></g></g><mask></mask><g stroke-linecap="round"><g transform="translate(193.31406305858877 631.3416406446433) rotate(0 15.083890961235511 -16.84771271733527)"><path d="M-1.38 0.56 C-1.72 -5.87, -7.24 -11.67, -6.28 -14.9 M-0.4 0.45 C-2.51 -5.51, -5.06 -9.95, -7.1 -14.19 M-6.7 -15.18 C-3.53 -13.6, -1.15 -9.55, 4.38 -8.48 M-7.67 -14.29 C-3.39 -11.64, 2.5 -9.34, 5.38 -7.74 M5.71 -8.36 C4.64 -13.44, 5.4 -19.48, 4.65 -24.11 M5.4 -8.3 C4.79 -12.92, 4.42 -17.78, 3.24 -22.57 M3.6 -23.96 C5.94 -20.96, 8.42 -20.56, 12.16 -15.59 M4.22 -22.86 C5.03 -21.5, 7.64 -20.15, 12.42 -15.97 M13.13 -13.85 C13.48 -22.14, 15.36 -29.58, 17.24 -34.26 M12.07 -15.65 C13.17 -19.82, 14.99 -24.37, 15.21 -32.9 M17.73 -31.92 C18.38 -26.2, 21.58 -16.11, 21.18 -9.39 M16.57 -32.15 C17.98 -25.07, 21 -15.85, 22.31 -10.85 M23.37 -11.27 C25.77 -12.03, 29 -14.92, 37.83 -15.78 M22.03 -10.18 C27.09 -13.08, 30.65 -14, 36.22 -17.12 M35.81 -17.9 C34.31 -15.2, 33.32 -12.55, 30.77 -4.83 M36.14 -16.32 C34.82 -13.31, 31.66 -8.03, 30.2 -4.37" stroke="#d3d3d3" stroke-width="2" fill="none"></path></g></g><mask></mask></svg>