<?xml version="1.0" encoding="UTF-8" standalone="no"?>
<!-- Created with Inkscape (http://www.inkscape.org/) -->

<svg
   width="36.658344mm"
   height="37.410572mm"
   viewBox="0 0 36.658343 37.410573"
   version="1.1"
   id="svg295"
   sodipodi:docname="logo_simple.svg"
   inkscape:version="1.1.2 (0a00cf5339, 2022-02-04)"
   xmlns:inkscape="http://www.inkscape.org/namespaces/inkscape"
   xmlns:sodipodi="http://sodipodi.sourceforge.net/DTD/sodipodi-0.dtd"
   xmlns:xlink="http://www.w3.org/1999/xlink"
   xmlns="http://www.w3.org/2000/svg"
   xmlns:svg="http://www.w3.org/2000/svg">
  <sodipodi:namedview
     id="namedview297"
     pagecolor="#ffffff"
     bordercolor="#cccccc"
     borderopacity="1"
     inkscape:pageshadow="0"
     inkscape:pageopacity="1"
     inkscape:pagecheckerboard="0"
     inkscape:document-units="mm"
     showgrid="false"
     fit-margin-top="1.3"
     fit-margin-left="1.3"
     fit-margin-right="1.3"
     fit-margin-bottom="1.3"
     inkscape:zoom="0.64052329"
     inkscape:cx="145.9744"
     inkscape:cy="96.015244"
     inkscape:window-width="1876"
     inkscape:window-height="904"
     inkscape:window-x="44"
     inkscape:window-y="27"
     inkscape:window-maximized="1"
     inkscape:current-layer="layer1"
     lock-margins="true" />
  <defs
     id="defs292">
    <linearGradient
       inkscape:collect="always"
       xlink:href="#linearGradient4"
       id="linearGradient108"
       x1="93.12468"
       y1="-49.204983"
       x2="133.08565"
       y2="-73.634323"
       gradientUnits="userSpaceOnUse"
       gradientTransform="translate(-5.804109,190.02115)" />
    <linearGradient
       id="linearGradient4"
       inkscape:collect="always">
      <stop
         style="stop-color:#007eca;stop-opacity:1;"
         offset="0"
         id="stop3" />
      <stop
         style="stop-color:#7acbf4;stop-opacity:1;"
         offset="1"
         id="stop4" />
    </linearGradient>
    <linearGradient
       inkscape:collect="always"
       xlink:href="#linearGradient2"
       id="linearGradient112"
       x1="141.91331"
       y1="-137.05867"
       x2="189.86954"
       y2="-69.134804"
       gradientUnits="userSpaceOnUse"
       gradientTransform="translate(-5.804109,190.02115)" />
    <linearGradient
       id="linearGradient2"
       inkscape:collect="always">
      <stop
         style="stop-color:#79cbf4;stop-opacity:1;"
         offset="0"
         id="stop1" />
      <stop
         style="stop-color:#006ab3;stop-opacity:1;"
         offset="1"
         id="stop2" />
    </linearGradient>
    <linearGradient
       inkscape:collect="always"
       xlink:href="#linearGradient107"
       id="linearGradient110"
       x1="85.008934"
       y1="-47.515926"
       x2="43.822216"
       y2="-69.716125"
       gradientUnits="userSpaceOnUse"
       gradientTransform="translate(-5.804109,190.02115)" />
    <linearGradient
       id="linearGradient107"
       inkscape:collect="always">
      <stop
         style="stop-color:#007eca;stop-opacity:1;"
         offset="0"
         id="stop107" />
      <stop
         style="stop-color:#00567e;stop-opacity:1;"
         offset="1"
         id="stop108" />
    </linearGradient>
  </defs>
  <g
     inkscape:label="Layer 1"
     inkscape:groupmode="layer"
     id="layer1"
     transform="translate(-24.934774,-114.91087)">
    <g
       id="g408"
       transform="matrix(0.28932422,0,0,0.28932422,12.071257,105.31033)">
      <path
         id="path99"
         style="fill:url(#linearGradient108);fill-opacity:0.658291;stroke:none;stroke-width:0.418042;stroke-linejoin:round;stroke-dasharray:none;stroke-opacity:0.658291;paint-order:markers fill stroke"
         d="m 88.101786,37.714624 c -0.001,3e-5 -0.0021,-4e-5 -0.0031,0 -0.001,2.2e-4 -0.0021,2.9e-4 -0.0031,5.1e-4 -0.455635,0.0162 -0.913744,0.0231 -1.361157,0.0682 -0.695402,0.0701 -1.380299,0.17423 -2.053104,0.31109 -0.672812,0.13685 -1.333428,0.30624 -1.980241,0.50643 -0.64682,0.20019 -1.280126,0.4313 -1.897559,0.69143 -0.617427,0.26013 -1.219378,0.54948 -1.804024,0.86609 -0.584646,0.31668 -1.152202,0.66061 -1.700671,1.03043 -0.548476,0.36983 -1.077562,0.76537 -1.586467,1.18494 -0.508899,0.41958 -0.997543,0.8637 -1.463476,1.32964 -0.327963,0.32796 -0.630147,0.68037 -0.935344,1.02991 -4.85e-4,3.8e-4 -0.0011,6.8e-4 -0.0015,10e-4 v 5.2e-4 c -0.183404,0.1455 -0.38227,0.27168 -0.562756,0.42065 -0.767172,0.63316 -1.493902,1.31177 -2.206067,2.00504 -0.116933,0.11383 -0.246862,0.21379 -0.362252,0.32918 -0.818143,0.81816 -1.330116,1.738421 -2.067219,2.631561 -0.737123,0.89294 -1.448298,1.890403 -2.152841,2.813259 -0.747671,0.979349 -1.421185,1.727693 -2.0085,2.89007 -0.263005,0.520522 -0.544925,1.03258 -0.798918,1.5596 -0.253993,0.52701 -0.495182,1.06062 -0.723987,1.60145 -0.16013,0.3785 -0.306241,0.76433 -0.453719,1.14928 -0.06325,0.1651 -0.133417,0.32675 -0.194303,0.493 -0.06064,0.16556 -0.111741,0.3356 -0.170016,0.50229 v 5.2e-4 c -0.13668,0.39096 -0.274927,0.78128 -0.398425,1.17822 -0.176153,0.56619 -0.339158,1.13845 -0.487825,1.71617 -0.14869,0.57772 -0.283147,1.16074 -0.403593,1.74925 -0.120469,0.58829 -0.226839,1.18224 -0.318327,1.78077 -0.09149,0.59831 -0.16821,1.20192 -0.22996,1.80971 -0.06175,0.6078 -0.108272,1.22028 -0.139527,1.83658 -0.03125,0.61631 -0.04703,1.2363 -0.04703,1.86035 0,0.62405 0.01577,1.24457 0.04703,1.86087 0.03126,0.61631 0.07778,1.22878 0.139527,1.83658 0.06175,0.60781 0.138471,1.21117 0.22996,1.80971 0.09149,0.59854 0.197858,1.19225 0.318327,1.78077 0.120446,0.58852 0.254903,1.17151 0.403593,1.74925 0.148667,0.57774 0.311672,1.14997 0.487825,1.71617 0.176153,0.56621 0.365583,1.12662 0.568441,1.68052 0.202858,0.55391 0.419218,1.10143 0.648022,1.64228 0.228805,0.54085 0.469994,1.07493 0.723987,1.60197 0.253993,0.52703 0.520495,1.04713 0.798918,1.55959 0.556824,1.024914 1.16178,2.020169 1.811775,2.982247 0.513433,0.759917 1.076707,1.482002 1.644861,2.199349 0.151147,0.190829 0.282812,0.397295 0.4377,0.584977 0.118934,0.144142 0.255588,0.272189 0.376721,0.414445 0.629454,0.739226 1.271399,1.467694 1.957503,2.153873 0.818137,0.818198 1.675208,1.597585 2.568319,2.334745 0.89311,0.73715 1.822308,1.43251 2.784326,2.08256 0.962017,0.65005 1.957388,1.25488 2.982247,1.81177 0.512416,0.27843 1.032063,0.54493 1.559078,0.79892 0.526989,0.25402 1.061139,0.49568 1.601969,0.72451 0.540804,0.22882 1.088391,0.44516 1.642277,0.64802 0.553861,0.20288 1.114358,0.39227 1.680517,0.56844 0.514158,0.15998 1.034342,0.3055 1.558045,0.44287 0.05299,0.0139 0.104526,0.0313 0.157613,0.045 0.219433,0.0565 0.443536,0.10103 0.664559,0.15348 0.360886,0.0856 0.720228,0.17539 1.085205,0.25011 0.588478,0.12045 1.182241,0.22683 1.78077,0.31833 0.598501,0.0915 1.201942,0.16823 1.809708,0.22996 0.607795,0.0618 1.219791,0.10878 1.836064,0.14004 0.0075,3.8e-4 0.01521,1.4e-4 0.02274,5.2e-4 0.01379,0.0161 0.02882,0.0312 0.04496,0.045 h 1.731686 0.008 c 0.018,3.2e-4 0.0357,0.002 0.0537,0.002 0.018,0 0.0353,-10e-4 0.0532,-0.002 h 0.008 19.036569 4.55992 0.38913 c 0.39966,0.006 0.79753,0.0203 1.18804,0.0599 0.45455,0.0461 0.90249,0.1147 1.34255,0.20464 0.44005,0.0899 0.87223,0.20128 1.29553,0.33279 0.42331,0.13153 0.83749,0.28338 1.24179,0.45424 0.40429,0.17085 0.79881,0.36051 1.18184,0.56844 0.38302,0.20793 0.75465,0.43371 1.11414,0.67644 0.3595,0.24275 0.70654,0.50243 1.04025,0.77773 0.33371,0.27529 0.65396,0.5667 0.95963,0.8723 0.30567,0.30561 0.59694,0.62548 0.8723,0.95912 0.27536,0.33365 0.53493,0.6808 0.77773,1.04024 0.2428,0.35944 0.46898,0.73117 0.67696,1.11415 0.20798,0.38297 0.39754,0.77708 0.56844,1.18132 0.1709,0.40425 0.32319,0.81852 0.45475,1.24178 0.13157,0.42326 0.24283,0.8555 0.3328,1.29553 0.09,0.44003 0.15853,0.88802 0.20464,1.34256 0.0461,0.45452 0.0698,0.91607 0.0698,1.38286 0,0.46677 -0.0237,0.92782 -0.0698,1.38234 -0.0461,0.45454 -0.11467,0.90254 -0.20464,1.34256 -0.09,0.44003 -0.20123,0.87227 -0.3328,1.29552 -0.13156,0.42327 -0.28385,0.83754 -0.45475,1.24179 -0.1709,0.40425 -0.36046,0.79836 -0.56844,1.18132 -0.20798,0.38297 -0.43416,0.75471 -0.67696,1.11415 -0.2428,0.35943 -0.50237,0.70659 -0.77773,1.04024 -0.27536,0.33364 -0.56663,0.65403 -0.8723,0.95963 -0.30567,0.30561 -0.62592,0.5965 -0.95963,0.87178 -0.33371,0.27531 -0.68075,0.53499 -1.04025,0.77773 -0.35949,0.24273 -0.73112,0.46852 -1.11414,0.67645 -0.38303,0.20793 -0.77755,0.3981 -1.18184,0.56896 -0.4043,0.17084 -0.81848,0.32219 -1.24179,0.45372 -0.4233,0.13152 -0.85548,0.24285 -1.29553,0.33279 -0.33013,0.0675 -0.56124,0.11052 -0.91829,0.16795 -0.11216,0.018 -0.31026,0.031 -0.42426,0.0367 -0.46902,0.0234 -0.86853,0.006 -1.33532,0.006 -0.46679,0 -0.91337,-0.0169 -1.38855,-0.0347 -0.11053,-0.004 -0.19468,-0.008 -0.37723,-0.0223 h -3.33933 -25.697147 c -0.677243,0 -2.338748,-0.10025 -2.338748,-0.10025 0.533932,7.04506 0.385772,5.905 1.671135,21.96724 l 31.736,4.1e-4 h 2.10478 c 0.39998,-0.027 0.80062,-0.0507 1.19683,-0.0909 0.59433,-0.0603 1.18468,-0.13541 1.76992,-0.22479 0.58524,-0.0894 1.16557,-0.19288 1.74098,-0.31058 0.57541,-0.11769 1.14565,-0.24953 1.71049,-0.39481 0.56484,-0.14526 1.1244,-0.30435 1.67793,-0.47645 0.55354,-0.17211 1.10131,-0.35732 1.64279,-0.55552 0.54149,-0.19821 1.07699,-0.40948 1.60559,-0.63304 1.05741,-0.44712 2.08842,-0.94418 3.09025,-1.48828 1.00172,-0.54412 1.97421,-1.13526 2.91455,-1.77044 0.94033,-0.63517 1.84836,-1.31416 2.72128,-2.0345 0.87292,-0.72034 1.71086,-1.48192 2.51044,-2.28151 0.004,-0.004 0.007,-0.008 0.0114,-0.0124 0.69717,-0.69782 1.35292,-1.43616 1.99006,-2.19005 0.0896,-0.10606 0.19169,-0.20087 0.28009,-0.30799 0.72035,-0.87291 1.39932,-1.78096 2.0345,-2.72128 0.63519,-0.94033 1.22633,-1.91273 1.77044,-2.91455 0.5441,-1.00182 1.04116,-2.03285 1.48828,-3.09025 0.0697,-0.16489 0.13012,-0.3346 0.1974,-0.50075 0.13477,-0.33281 0.27049,-0.66527 0.39532,-1.00304 0.0127,-0.0343 0.0277,-0.0675 0.0403,-0.1018 0.1982,-0.54148 0.38341,-1.08927 0.55552,-1.64279 0.1721,-0.55354 0.33119,-1.11311 0.47646,-1.67794 0.14528,-0.56483 0.27659,-1.13508 0.39429,-1.71049 0.11769,-0.5754 0.22171,-1.15574 0.31109,-1.74098 0.0894,-0.58522 0.16447,-1.17508 0.2248,-1.7694 0.0603,-0.59431 0.10588,-1.19309 0.13642,-1.79575 0.0305,-0.60267 0.046,-1.20926 0.046,-1.81953 0,-0.61028 -0.0155,-1.21738 -0.046,-1.82004 -0.0305,-0.60267 -0.0761,-1.20093 -0.13642,-1.79524 -0.0603,-0.59433 -0.13542,-1.18469 -0.2248,-1.76992 -0.0894,-0.58523 -0.1934,-1.16558 -0.31109,-1.74098 -0.1177,-0.5754 -0.24901,-1.14565 -0.39429,-1.71049 -0.14527,-0.56483 -0.30436,-1.1244 -0.47646,-1.67793 -0.17211,-0.55353 -0.35732,-1.10132 -0.55552,-1.6428 -0.19821,-0.54149 -0.40947,-1.07689 -0.63303,-1.60558 -0.44712,-1.0574 -0.94418,-2.08844 -1.48828,-3.09026 -0.54411,-1.00181 -1.13525,-1.97423 -1.77044,-2.91455 -0.22003,-0.32573 -0.47439,-0.6247 -0.70487,-0.94258 -0.26635,-0.36732 -0.53448,-0.73284 -0.81442,-1.08934 -0.17714,-0.22555 -0.33275,-0.46827 -0.51521,-0.68936 -0.72035,-0.872905 -1.48193,-1.710863 -2.28152,-2.510441 -0.79958,-0.799591 -1.63752,-1.561181 -2.51044,-2.281514 -0.87292,-0.720333 -1.78095,-1.399327 -2.72128,-2.034501 -0.94034,-0.635174 -1.91287,-1.226336 -2.91455,-1.770435 -1.00183,-0.544113 -2.03284,-1.041159 -3.09025,-1.488281 -0.52856,-0.223554 -1.0641,-0.434834 -1.60559,-0.633034 -0.54148,-0.1982 -1.08925,-0.38342 -1.64279,-0.55552 -0.54673,-0.16999 -1.09949,-0.32697 -1.65726,-0.47078 -0.007,-0.002 -0.0137,-0.004 -0.0207,-0.006 -0.27252,-0.0701 -0.55026,-0.12645 -0.82528,-0.19017 v 5.2e-4 c -0.295,-0.0683 -0.58742,-0.14321 -0.88521,-0.20412 -0.57541,-0.1177 -1.15574,-0.22171 -1.74098,-0.31109 -0.58524,-0.0894 -1.17559,-0.16448 -1.76992,-0.2248 -0.0934,-0.009 -0.18853,-0.0124 -0.28215,-0.0212 -0.27024,-0.0253 -0.54244,-0.0429 -0.81442,-0.062 l -10.07432,-0.11679 h -15.422319 -1.1467 c -0.29793,-0.0118 -0.5979,-0.0152 -0.8909,-0.045 -0.3513,-0.0357 -0.694312,-0.098 -1.037667,-0.15865 -0.127225,-0.0225 -0.258426,-0.0331 -0.384473,-0.0589 -0.466193,-0.0955 -0.924505,-0.21407 -1.373043,-0.35347 -0.448562,-0.13966 -0.8877,-0.30075 -1.316198,-0.48214 -0.428499,-0.18138 -0.846093,-0.38286 -1.25212,-0.60358 -0.406028,-0.22071 -0.80069,-0.46067 -1.18184,-0.7183 -0.38115,-0.25763 -0.74891,-0.53314 -1.102775,-0.82528 -0.353866,-0.29213 -0.693334,-0.60076 -1.017509,-0.925 -0.324175,-0.32424 -0.632932,-0.6641 -0.925008,-1.01803 -0.292077,-0.35392 -0.567701,-0.72208 -0.825273,-1.10329 -0.257547,-0.3812 -0.497151,-0.77524 -0.717786,-1.18132 -0.22066,-0.40608 -0.422238,-0.82409 -0.60358,-1.25264 -0.181342,-0.42854 -0.342525,-0.8676 -0.482141,-1.3162 -0.139617,-0.4486 -0.257982,-0.90679 -0.353467,-1.37304 -0.09548,-0.46625 -0.168095,-0.94066 -0.217041,-1.42214 -0.04895,-0.48149 -0.0739,-0.9702 -0.0739,-1.46451 0,-0.49432 0.02495,-0.9825 0.0739,-1.46399 0.04895,-0.48148 0.121557,-0.9559 0.217041,-1.42214 0.09549,-0.46625 0.21385,-0.92444 0.353467,-1.37304 0.139616,-0.4486 0.300799,-0.88766 0.482141,-1.3162 0.181342,-0.42855 0.38292,-0.84655 0.60358,-1.25263 0.220635,-0.40608 0.460239,-0.80013 0.717786,-1.18133 0.257572,-0.38121 0.533196,-0.74936 0.825273,-1.10329 0.292076,-0.35392 0.571286,-0.559971 0.895461,-0.884201 0.324175,-0.32423 0.663643,-0.63286 1.017509,-0.925 0.353865,-0.29214 0.721625,-0.56765 1.102775,-0.82528 0.38115,-0.25763 0.775812,-0.49758 1.18184,-0.7183 0.406027,-0.22046 0.823621,-0.42219 1.25212,-0.60358 0.279268,-0.11821 0.02078,-0.0269 0.853695,-0.287318 0.832919,-0.260417 9.469282,-0.160701 9.469282,-0.160701 h 26.00462 c 0.5682,0 1.12631,0.0402 1.68258,0.0847 0.14334,0.0115 0.2911,0.007 0.43357,0.0217 0.16121,0.0163 0.31587,0.0523 0.47594,0.0724 1.1686,-4.95196 5.23719,-22.04625 5.23719,-22.04625 0,0 -25.20456,0.01 -31.36166,5.7e-4 -5.066689,-0.007 -10.079674,-3e-5 -15.141714,0.0366 z"
         sodipodi:nodetypes="cccsssscsssccccsscssssssccssccssssssssssssssssssssscscsssssscsccccscccccssssssssssssssssssssssssssssssssssccsccccssssssccssscssssssscssssscsssssssssssssssssccssccccsscccccccsccssssssssssssssssssssssscszcsscccscc" />
      <path
         id="path60"
         style="fill:url(#linearGradient112);fill-opacity:0.658291;stroke:none;stroke-width:0.418042;stroke-linejoin:round;stroke-dasharray:none;stroke-opacity:0.658291;paint-order:markers fill stroke"
         d="m 134.60516,37.677474 -5.23716,22.04568 c 0,0 1.06035,0.13364 1.57716,0.23875 0.67279,0.13682 1.33295,0.30627 1.97973,0.50643 0.64678,0.20015 1.28017,0.43083 1.89756,0.69091 0.61738,0.26008 1.2189,0.54948 1.8035,0.8661 0.5846,0.31662 1.15226,0.66066 1.70068,1.03043 0.54837,0.36972 1.07762,0.76542 1.58646,1.18494 0.50885,0.41951 0.99708,0.86272 1.46296,1.3286 0.46588,0.46587 0.9096,0.95411 1.32912,1.46296 0.41952,0.50884 0.81517,1.03856 1.18494,1.58698 0.36977,0.54842 0.71381,1.11555 1.03043,1.70015 0.31662,0.5846 0.6055,1.18664 0.86558,1.80403 0.26008,0.61739 0.49128,1.25026 0.69143,1.89704 0.20015,0.64678 0.36908,1.30746 0.50591,1.98024 0.13683,0.67279 0.2415,1.35771 0.31161,2.05311 0.0701,0.69539 0.10594,1.40102 0.10594,2.11563 v 19.437055 1.326021 c 0.27994,0.35649 0.54807,0.722 0.81442,1.08934 0.23048,0.31787 0.48483,0.61684 0.70486,0.94257 0.63519,0.94034 1.22633,1.91273 1.77044,2.91456 0.54411,1.00182 1.04116,2.03284 1.48828,3.09025 0.22356,0.5287 0.43483,1.06409 0.63304,1.60558 0.1982,0.54149 0.38341,1.08926 0.55552,1.6428 0.1721,0.55354 0.33118,1.11309 0.47645,1.67793 0.14528,0.56485 0.2766,1.13508 0.3943,1.71049 0.11769,0.57541 0.22171,1.15574 0.31109,1.74098 0.0894,0.58524 0.16446,1.17559 0.22479,1.76992 0.0603,0.59432 0.10589,1.19256 0.13643,1.79524 0.0305,0.60267 0.046,1.20976 0.046,1.82004 0,0.61029 -0.0155,1.21685 -0.046,1.81953 -0.0305,0.60267 -0.0761,1.20143 -0.13643,1.79575 -0.0603,0.59433 -0.13541,1.18417 -0.22479,1.76941 -0.0894,0.58524 -0.1934,1.16557 -0.31109,1.74097 -0.1177,0.57542 -0.24902,1.14565 -0.3943,1.71049 -0.14527,0.56485 -0.30435,1.1244 -0.47645,1.67794 -0.17211,0.55353 -0.35732,1.1013 -0.55552,1.64279 -0.0126,0.0343 -0.0276,0.0675 -0.0403,0.1018 l -2.08101,4.59456 -3.29231,4.99969 0.0853,-0.10904 13.10669,-14.32625 c 0.0177,-0.0175 0.0377,-0.0325 0.0553,-0.0501 0.46587,-0.46588 0.9096,-0.95412 1.32911,-1.46296 0.41952,-0.50884 0.81466,-1.03806 1.18443,-1.58647 0.36976,-0.54842 0.71381,-1.11607 1.03043,-1.70067 0.31662,-0.5846 0.60601,-1.18613 0.86609,-1.80351 0.26009,-0.61739 0.49128,-1.25026 0.69143,-1.89704 0.20015,-0.64678 0.36909,-1.30746 0.50592,-1.98024 0.13682,-0.67278 0.24149,-1.35771 0.3116,-2.05311 0.0701,-0.69539 0.10594,-1.40154 0.10594,-2.11615 v -57.1955 c 0,-0.71461 -0.0358,-1.42023 -0.10594,-2.11564 -0.0701,-0.6954 -0.17478,-1.38029 -0.3116,-2.0531 -0.13683,-0.67281 -0.30577,-1.33342 -0.50592,-1.98024 -0.20015,-0.64682 -0.43134,-1.28013 -0.69143,-1.89756 -0.26008,-0.61743 -0.54947,-1.21937 -0.86609,-1.80402 -0.31662,-0.58466 -0.66067,-1.15168 -1.03043,-1.70016 -0.36977,-0.54847 -0.76491,-1.07808 -1.18443,-1.58698 -0.41951,-0.50891 -0.86324,-0.99702 -1.32911,-1.46296 -0.46588,-0.46594 -0.95412,-0.91006 -1.46296,-1.32964 -0.50885,-0.41957 -1.03857,-0.81511 -1.58699,-1.18494 -0.54842,-0.36982 -1.11555,-0.71375 -1.70015,-1.03043 -0.5846,-0.31663 -1.18664,-0.60596 -1.80403,-0.86609 -0.61738,-0.26013 -1.25026,-0.49124 -1.89704,-0.69143 -0.64678,-0.20019 -1.30745,-0.36958 -1.98024,-0.50643 -0.67278,-0.13686 -1.35771,-0.24097 -2.0531,-0.31109 -0.6954,-0.0701 -1.40103,-0.10594 -2.11564,-0.10594 z"
         sodipodi:nodetypes="ccsssssssssssssssccsssssssssscsssssssscccccssssssssssssssssssssssssssc" />
      <path
         id="path28"
         style="fill:url(#linearGradient110);fill-opacity:0.658291;stroke:none;stroke-width:0.418042;stroke-linejoin:round;stroke-dasharray:none;stroke-opacity:0.658291;paint-order:markers fill stroke"
         d="m 70.180916,47.489794 c -4.295687,4.507052 -10.010932,11.936724 -15.021305,17.91519 -0.05829,0.0569 -0.123259,0.10672 -0.180868,0.16433 -0.465874,0.46587 -0.909603,0.95411 -1.329117,1.46296 -0.419519,0.50884 -0.815175,1.03856 -1.184941,1.58698 -0.369766,0.54842 -0.713807,1.11555 -1.030428,1.70015 -0.316621,0.5846 -0.605502,1.18664 -0.86558,1.80403 -0.260083,0.61739 -0.49128,1.25026 -0.691431,1.89704 -0.200151,0.64678 -0.369602,1.30746 -0.506429,1.98024 -0.136827,0.67279 -0.240982,1.35771 -0.311092,2.05311 -0.07011,0.69539 -0.105937,1.40102 -0.105937,2.11563 v 57.195476 c 0,0.71461 0.03583,1.42023 0.105937,2.11563 0.07011,0.69541 0.174265,1.38081 0.311092,2.05362 0.136827,0.67281 0.306278,1.33343 0.506429,1.98025 0.200151,0.64681 0.431348,1.27961 0.691431,1.89704 0.260078,0.61743 0.548959,1.21937 0.86558,1.80402 0.316621,0.58465 0.660662,1.1522 1.030428,1.70067 0.369766,0.54847 0.765422,1.07808 1.184941,1.58699 0.419514,0.5089 0.863243,0.99702 1.329117,1.46296 0.465878,0.46593 0.954119,0.90953 1.46296,1.32911 0.508845,0.41958 1.038048,0.81512 1.586467,1.18494 0.548414,0.36983 1.116072,0.71376 1.700671,1.03043 0.584595,0.31668 1.186124,0.60597 1.803507,0.8661 0.617388,0.26013 1.250264,0.49124 1.897042,0.69143 0.646782,0.20019 1.307461,0.36957 1.980241,0.50643 0.67278,0.13685 1.357711,0.24097 2.053105,0.31109 0.695389,0.0701 1.40154,0.10645 2.11615,0.10645 H 88.18242 l -1.671135,-21.96724 c 0,0 -0.283008,-0.0813 -0.589728,-0.12961 -0.414914,-0.0585 -0.833815,-0.10545 -1.240234,-0.1881 -0.672812,-0.13683 -1.333426,-0.30577 -1.980241,-0.50592 -0.64682,-0.20015 -1.280126,-0.43134 -1.897559,-0.69143 -0.617429,-0.26008 -1.219376,-0.54896 -1.804024,-0.86558 -0.584648,-0.31661 -1.1522,-0.66066 -1.700671,-1.03043 -0.548476,-0.36976 -1.077562,-0.76542 -1.586467,-1.18494 -0.508901,-0.41951 -0.997541,-0.86324 -1.463476,-1.32911 -0.465939,-0.46588 -0.909544,-0.95412 -1.329118,-1.46296 -0.419579,-0.50884 -0.815117,-1.03806 -1.184941,-1.58647 -0.369819,-0.54842 -0.713755,-1.11607 -1.030428,-1.70067 -0.316669,-0.5846 -0.605969,-1.18613 -0.866097,-1.80351 -0.260128,-0.61739 -0.491246,-1.25026 -0.69143,-1.89704 -0.200189,-0.64678 -0.36958,-1.30746 -0.506429,-1.98024 -0.136854,-0.67278 -0.240968,-1.35771 -0.311093,-2.05311 -0.07012,-0.69539 -0.105936,-1.40154 -0.105936,-2.11615 V 96.480071 c -0.121133,-0.142256 -0.25777,-0.270303 -0.376721,-0.414445 -0.154888,-0.187682 -0.286553,-0.394147 -0.4377,-0.584977 -0.568172,-0.717347 -1.131428,-1.439414 -1.644861,-2.199349 -0.650013,-0.962096 -1.254933,-1.957315 -1.811775,-2.982247 -0.278423,-0.512459 -0.544925,-1.032549 -0.798918,-1.559589 -0.253993,-0.52704 -0.495182,-1.06112 -0.723987,-1.60197 -0.228804,-0.54085 -0.445164,-1.08837 -0.648022,-1.64228 -0.202858,-0.5539 -0.392288,-1.11431 -0.568441,-1.68052 -0.176153,-0.5662 -0.33914,-1.13843 -0.487825,-1.71617 -0.14869,-0.57774 -0.283129,-1.16073 -0.403593,-1.74925 -0.120469,-0.58852 -0.226839,-1.18223 -0.318327,-1.78077 -0.09149,-0.59854 -0.16821,-1.2019 -0.22996,-1.80971 -0.06175,-0.6078 -0.108272,-1.22027 -0.139527,-1.83658 -0.03125,-0.6163 -0.04703,-1.23681 -0.04703,-1.86086 0,-0.62405 0.01577,-1.24405 0.04703,-1.86036 0.03126,-0.6163 0.07778,-1.22878 0.139527,-1.83658 0.06175,-0.60779 0.138471,-1.21122 0.22996,-1.8097 0.09149,-0.59853 0.197858,-1.19231 0.318327,-1.78077 0.120464,-0.58851 0.254903,-1.17153 0.403593,-1.74925 0.148685,-0.57773 0.311672,-1.14999 0.487825,-1.71618 0.123498,-0.39694 0.261745,-0.78726 0.398425,-1.17822 0.466593,-1.2651 0.929475,-2.476612 1.54203,-3.74606 0,0 0.836277,-1.740164 1.331848,-2.48099 0.495572,-0.740826 5.697965,-7.41228 5.695625,-7.41345 z"
         sodipodi:nodetypes="ccssssssssssssssssssssssssssccsssssssssssssssscsssssssssssssssssssscczc" />
      <circle
         style="fill:#41a7e1;fill-opacity:0.658824;stroke:none;stroke-width:1.05833;stroke-linejoin:round;stroke-opacity:0.658291;paint-order:markers fill stroke"
         id="path4"
         cx="95.086632"
         cy="73.305466"
         r="4.3511887" />
      <use
         x="0"
         y="0"
         xlink:href="#path4"
         id="use4"
         transform="translate(26.219006,49.391408)"
         width="100%"
         height="100%" />
    </g>
  </g>
</svg>
